<svg width="564" height="157" viewBox="0 0 564 157" fill="none" xmlns="http://www.w3.org/2000/svg">
<path d="M0 16C0 7.16344 7.16344 0 16 0H141H211.5H282H352.5H548C556.837 0 564 7.16344 564 16V141C564 149.837 556.837 157 548 157H423H352.5H282H16C7.16345 157 0 149.837 0 141V16Z" fill="#5629C6"/>
<path d="M134.414 43.28H145.754V69.02H175.544V43.28H186.884V107H175.544V78.74H145.754V107H134.414V43.28ZM200.587 63.8H211.387V107H200.587V63.8ZM199.057 49.13C199.057 47.39 199.687 45.89 200.947 44.63C202.267 43.31 203.917 42.65 205.897 42.65C207.877 42.65 209.527 43.28 210.847 44.54C212.227 45.74 212.917 47.27 212.917 49.13C212.917 50.99 212.227 52.55 210.847 53.81C209.527 55.01 207.877 55.61 205.897 55.61C203.917 55.61 202.267 54.98 200.947 53.72C199.687 52.4 199.057 50.87 199.057 49.13ZM268.409 63.8V103.13C268.409 107.03 267.929 110.54 266.969 113.66C266.009 116.84 264.509 119.51 262.469 121.67C260.489 123.89 257.969 125.6 254.909 126.8C251.849 128 248.219 128.6 244.019 128.6C242.279 128.6 240.419 128.45 238.439 128.15C236.519 127.85 234.599 127.4 232.679 126.8C230.819 126.2 229.019 125.45 227.279 124.55C225.539 123.65 223.979 122.63 222.599 121.49L228.809 113.12C230.909 115.1 233.279 116.6 235.919 117.62C238.559 118.7 241.229 119.24 243.929 119.24C246.509 119.24 248.669 118.85 250.409 118.07C252.209 117.35 253.619 116.33 254.639 115.01C255.719 113.69 256.469 112.13 256.889 110.33C257.369 108.53 257.609 106.55 257.609 104.39V101.24H257.429C255.869 103.34 253.859 104.96 251.399 106.1C248.999 107.18 246.299 107.72 243.299 107.72C240.059 107.72 237.119 107.12 234.479 105.92C231.839 104.72 229.589 103.1 227.729 101.06C225.929 99.02 224.519 96.65 223.499 93.95C222.479 91.19 221.969 88.28 221.969 85.22C221.969 82.1 222.449 79.16 223.409 76.4C224.429 73.64 225.839 71.24 227.639 69.2C229.499 67.16 231.719 65.54 234.299 64.34C236.939 63.14 239.879 62.54 243.119 62.54C246.179 62.54 249.029 63.17 251.669 64.43C254.309 65.69 256.409 67.64 257.969 70.28H258.149V63.8H268.409ZM245.369 71.36C243.389 71.36 241.619 71.72 240.059 72.44C238.559 73.16 237.269 74.15 236.189 75.41C235.169 76.61 234.359 78.05 233.759 79.73C233.219 81.41 232.949 83.21 232.949 85.13C232.949 86.87 233.219 88.55 233.759 90.17C234.359 91.79 235.169 93.26 236.189 94.58C237.269 95.84 238.559 96.86 240.059 97.64C241.619 98.42 243.359 98.81 245.279 98.81C247.259 98.81 249.029 98.45 250.589 97.73C252.209 96.95 253.559 95.93 254.639 94.67C255.779 93.41 256.649 91.97 257.249 90.35C257.849 88.67 258.149 86.93 258.149 85.13C258.149 83.27 257.849 81.5 257.249 79.82C256.649 78.14 255.779 76.67 254.639 75.41C253.559 74.15 252.239 73.16 250.679 72.44C249.119 71.72 247.349 71.36 245.369 71.36ZM305.384 62.54C308.204 62.54 310.604 63.05 312.584 64.07C314.624 65.03 316.274 66.32 317.534 67.94C318.854 69.56 319.814 71.42 320.414 73.52C321.014 75.62 321.314 77.78 321.314 80V107H310.514V83.24C310.514 81.98 310.424 80.69 310.244 79.37C310.064 77.99 309.674 76.76 309.074 75.68C308.534 74.54 307.724 73.61 306.644 72.89C305.624 72.17 304.244 71.81 302.504 71.81C300.764 71.81 299.264 72.14 298.004 72.8C296.744 73.46 295.694 74.36 294.854 75.5C294.014 76.58 293.384 77.81 292.964 79.19C292.544 80.57 292.334 81.98 292.334 83.42V107H281.534V38.96H292.334V69.83H292.514C292.934 68.93 293.534 68.06 294.314 67.22C295.154 66.32 296.114 65.54 297.194 64.88C298.274 64.16 299.504 63.59 300.884 63.17C302.264 62.75 303.764 62.54 305.384 62.54ZM334.093 38.96H344.893V107H334.093V38.96ZM358.175 63.8H368.975V107H358.175V63.8ZM356.645 49.13C356.645 47.39 357.275 45.89 358.535 44.63C359.855 43.31 361.505 42.65 363.485 42.65C365.465 42.65 367.115 43.28 368.435 44.54C369.815 45.74 370.505 47.27 370.505 49.13C370.505 50.99 369.815 52.55 368.435 53.81C367.115 55.01 365.465 55.61 363.485 55.61C361.505 55.61 359.855 54.98 358.535 53.72C357.275 52.4 356.645 50.87 356.645 49.13ZM425.997 63.8V103.13C425.997 107.03 425.517 110.54 424.557 113.66C423.597 116.84 422.097 119.51 420.057 121.67C418.077 123.89 415.557 125.6 412.497 126.8C409.437 128 405.807 128.6 401.607 128.6C399.867 128.6 398.007 128.45 396.027 128.15C394.107 127.85 392.187 127.4 390.267 126.8C388.407 126.2 386.607 125.45 384.867 124.55C383.127 123.65 381.567 122.63 380.187 121.49L386.397 113.12C388.497 115.1 390.867 116.6 393.507 117.62C396.147 118.7 398.817 119.24 401.517 119.24C404.097 119.24 406.257 118.85 407.997 118.07C409.797 117.35 411.207 116.33 412.227 115.01C413.307 113.69 414.057 112.13 414.477 110.33C414.957 108.53 415.197 106.55 415.197 104.39V101.24H415.017C413.457 103.34 411.447 104.96 408.987 106.1C406.587 107.18 403.887 107.72 400.887 107.72C397.647 107.72 394.707 107.12 392.067 105.92C389.427 104.72 387.177 103.1 385.317 101.06C383.517 99.02 382.107 96.65 381.087 93.95C380.067 91.19 379.557 88.28 379.557 85.22C379.557 82.1 380.037 79.16 380.997 76.4C382.017 73.64 383.427 71.24 385.227 69.2C387.087 67.16 389.307 65.54 391.887 64.34C394.527 63.14 397.467 62.54 400.707 62.54C403.767 62.54 406.617 63.17 409.257 64.43C411.897 65.69 413.997 67.64 415.557 70.28H415.737V63.8H425.997ZM402.957 71.36C400.977 71.36 399.207 71.72 397.647 72.44C396.147 73.16 394.857 74.15 393.777 75.41C392.757 76.61 391.947 78.05 391.347 79.73C390.807 81.41 390.537 83.21 390.537 85.13C390.537 86.87 390.807 88.55 391.347 90.17C391.947 91.79 392.757 93.26 393.777 94.58C394.857 95.84 396.147 96.86 397.647 97.64C399.207 98.42 400.947 98.81 402.867 98.81C404.847 98.81 406.617 98.45 408.177 97.73C409.797 96.95 411.147 95.93 412.227 94.67C413.367 93.41 414.237 91.97 414.837 90.35C415.437 88.67 415.737 86.93 415.737 85.13C415.737 83.27 415.437 81.5 414.837 79.82C414.237 78.14 413.367 76.67 412.227 75.41C411.147 74.15 409.827 73.16 408.267 72.44C406.707 71.72 404.937 71.36 402.957 71.36ZM462.972 62.54C465.792 62.54 468.192 63.05 470.172 64.07C472.212 65.03 473.862 66.32 475.122 67.94C476.442 69.56 477.402 71.42 478.002 73.52C478.602 75.62 478.902 77.78 478.902 80V107H468.102V83.24C468.102 81.98 468.012 80.69 467.832 79.37C467.652 77.99 467.262 76.76 466.662 75.68C466.122 74.54 465.312 73.61 464.232 72.89C463.212 72.17 461.832 71.81 460.092 71.81C458.352 71.81 456.852 72.14 455.592 72.8C454.332 73.46 453.282 74.36 452.442 75.5C451.602 76.58 450.972 77.81 450.552 79.19C450.132 80.57 449.922 81.98 449.922 83.42V107H439.122V38.96H449.922V69.83H450.102C450.522 68.93 451.122 68.06 451.902 67.22C452.742 66.32 453.702 65.54 454.782 64.88C455.862 64.16 457.092 63.59 458.472 63.17C459.852 62.75 461.352 62.54 462.972 62.54ZM485.291 72.44V63.8H492.851V51.29H503.471V63.8H514.271V72.44H503.471V92.51C503.471 94.43 503.801 96.02 504.461 97.28C505.181 98.54 506.741 99.17 509.141 99.17C509.861 99.17 510.641 99.11 511.481 98.99C512.321 98.81 513.071 98.57 513.731 98.27L514.091 106.73C513.131 107.09 511.991 107.36 510.671 107.54C509.351 107.78 508.091 107.9 506.891 107.9C504.011 107.9 501.671 107.51 499.871 106.73C498.071 105.89 496.631 104.78 495.551 103.4C494.531 101.96 493.811 100.34 493.391 98.54C493.031 96.68 492.851 94.7 492.851 92.6V72.44H485.291Z" fill="white"/>
<path d="M72 157L47 0H82.5L107 157H72Z" fill="white"/>
</svg>
