<svg width="95" height="32" viewBox="0 0 95 32" fill="none" xmlns="http://www.w3.org/2000/svg">
<g clip-path="url(#clip0_285_615)">
<path d="M94.1673 22.5523C94.0651 22.309 93.972 22.0621 93.878 21.8155C93.7982 21.6061 93.7979 21.6093 93.6171 21.7263C93.3531 21.8972 93.0641 21.9962 92.7482 22.0034C92.1438 22.0173 91.748 21.7121 91.6016 21.1231C91.5681 20.9885 91.5508 20.852 91.5508 20.7128C91.551 18.5139 91.5505 16.315 91.5517 14.1161C91.5518 13.8156 91.5852 13.7837 91.89 13.7827C92.4244 13.7808 92.9587 13.7835 93.493 13.7815C93.7215 13.7807 93.7375 13.7636 93.7389 13.533C93.7408 13.244 93.7411 12.955 93.7388 12.666C93.737 12.4463 93.7202 12.4284 93.5028 12.4274C92.9748 12.4251 92.4467 12.4274 91.9187 12.4264C91.574 12.4257 91.5518 12.4043 91.5514 12.0668C91.5504 11.2941 91.5517 10.5213 91.5507 9.74854C91.5503 9.4961 91.5398 9.48635 91.2827 9.48565C90.9118 9.48465 90.5409 9.48305 90.17 9.48639C89.9581 9.48829 89.9326 9.51304 89.9317 9.72858C89.9288 10.4699 89.9308 11.2113 89.9305 11.9526C89.9305 12.028 89.9328 12.1035 89.9284 12.1787C89.9171 12.3758 89.8768 12.4205 89.6752 12.424C89.2541 12.4313 88.8329 12.4249 88.4117 12.427C88.1719 12.4282 88.1589 12.4415 88.1576 12.6861C88.1561 12.9751 88.1554 13.2642 88.158 13.5531C88.1598 13.7627 88.1768 13.7801 88.3836 13.7814C88.7545 13.7838 89.1254 13.782 89.4963 13.7822C89.9281 13.7824 89.9304 13.7845 89.9305 14.2077C89.9307 16.3438 89.9245 18.4799 89.9351 20.6159C89.9375 21.1098 89.9555 21.608 90.1355 22.0827C90.3627 22.6818 90.7742 23.0922 91.3894 23.2629C92.2784 23.5095 93.1428 23.4558 93.954 22.9685C94.0636 22.9027 94.1362 22.7699 94.2875 22.7767V22.7012C94.1952 22.6942 94.192 22.6113 94.1673 22.5524V22.5523Z" fill="#EBFF5E"/>
<path d="M93.6183 21.6622C93.273 21.9027 92.8875 21.9954 92.4735 21.9413C92.0756 21.8893 91.7551 21.5396 91.6527 21.0828C91.6068 20.8783 91.6056 20.6718 91.6056 20.4645C91.6055 18.3407 91.6056 16.2168 91.6056 14.093C91.6056 14.0553 91.6086 14.0173 91.6051 13.9799C91.5958 13.8812 91.6405 13.8466 91.737 13.8492C91.9129 13.8539 92.089 13.8504 92.2651 13.8504C92.724 13.8504 93.183 13.8505 93.642 13.8502C93.7167 13.8501 93.7977 13.8642 93.7971 13.7448C93.795 13.3238 93.7958 12.9028 93.7971 12.4818C93.7973 12.4128 93.7733 12.3746 93.6994 12.3772C93.6555 12.3788 93.6114 12.377 93.5674 12.377C92.9638 12.377 92.3602 12.3778 91.7566 12.3764C91.6103 12.376 91.6099 12.3727 91.6058 12.2307C91.6046 12.1867 91.6056 12.1427 91.6056 12.0987C91.6056 11.2756 91.6058 10.4524 91.6055 9.62927C91.6054 9.43109 91.6046 9.43026 91.4138 9.43003C90.98 9.4295 90.5462 9.42967 90.1124 9.42994C89.9623 9.43003 89.8871 9.50609 89.8866 9.65812C89.8864 10.4938 89.8867 11.3295 89.8864 12.1653C89.8864 12.3764 89.8857 12.3768 89.6683 12.3769C89.2094 12.3772 88.7504 12.3766 88.2914 12.3772C88.1036 12.3774 88.1026 12.3784 88.1022 12.5599C88.1015 12.9118 88.1013 13.2637 88.1021 13.6156C88.1027 13.8681 88.0786 13.85 88.3343 13.8503C88.7933 13.8507 89.2523 13.8497 89.7112 13.8508C89.8844 13.8512 89.8844 13.853 89.8865 14.0308C89.8869 14.0685 89.8865 14.1062 89.8865 14.1439C89.8865 15.3315 89.8817 16.5192 89.8879 17.7067C89.894 18.8625 89.8624 20.0184 89.907 21.1741C89.9203 21.5166 89.9804 21.8481 90.1078 22.1652C90.3396 22.7421 90.7538 23.125 91.3475 23.3166C91.7299 23.44 92.1222 23.4725 92.5194 23.4547C93.1837 23.4248 93.7925 23.2431 94.2919 22.7785C94.1406 22.7717 94.068 22.9045 93.9584 22.9703C93.1472 23.4576 92.2828 23.5113 91.3938 23.2647C90.7786 23.0941 90.3671 22.6837 90.1399 22.0846C89.9599 21.6098 89.9419 21.1117 89.9395 20.6177C89.9289 18.4817 89.9351 16.3456 89.9349 14.2095C89.9348 13.7863 89.9325 13.7843 89.5007 13.784C89.1298 13.7838 88.7589 13.7857 88.388 13.7833C88.1812 13.7819 88.1642 13.7645 88.1623 13.555C88.1597 13.266 88.1605 12.977 88.162 12.688C88.1633 12.4433 88.1763 12.43 88.4161 12.4288C88.8372 12.4267 89.2585 12.4331 89.6796 12.4258C89.8812 12.4223 89.9215 12.3777 89.9328 12.1806C89.9371 12.1053 89.9349 12.0298 89.9349 11.9544C89.9353 11.2131 89.9332 10.4717 89.9361 9.73041C89.937 9.51489 89.9625 9.49012 90.1744 9.48821C90.5452 9.48489 90.9162 9.4865 91.2871 9.48748C91.5442 9.48816 91.5547 9.49793 91.5551 9.75037C91.5561 10.5231 91.5547 11.2959 91.5558 12.0686C91.5562 12.4061 91.5784 12.4275 91.9231 12.4282C92.4511 12.4292 92.9792 12.4269 93.5072 12.4292C93.7246 12.4302 93.7414 12.4482 93.7432 12.6678C93.7455 12.9568 93.7451 13.2458 93.7433 13.5348C93.7419 13.7655 93.7259 13.7825 93.4974 13.7833C92.9631 13.7853 92.4288 13.7827 91.8944 13.7845C91.5896 13.7856 91.5562 13.8174 91.5561 14.1179C91.5549 16.3168 91.5554 18.5157 91.5552 20.7146C91.5552 20.8538 91.5725 20.9903 91.606 21.1249C91.7524 21.7139 92.1482 22.0191 92.7526 22.0052C93.0685 21.998 93.3575 21.8991 93.6215 21.7282C93.8023 21.6111 93.8026 21.6079 93.8824 21.8173C93.9764 22.0639 94.0695 22.3109 94.1717 22.5542C94.1964 22.6131 94.1995 22.696 94.2919 22.703C94.1363 22.3088 93.9807 21.9145 93.8205 21.5085C93.7467 21.5648 93.6844 21.6161 93.6183 21.6621L93.6183 21.6622Z" fill="#EBFF5E"/>
<path d="M0.0718211 16.1375C0.0719343 16.1148 0.0708589 16.0925 0.0660293 16.0709C0.0313168 15.9165 0.0307697 15.7641 0.0643126 15.6092C0.0695195 15.5851 0.0712928 15.5603 0.0717456 15.5352C0.0596151 15.5575 0.0396553 15.5741 0 15.5762V16.1041C0.0383536 16.1024 0.0586152 16.1168 0.0718211 16.1375V16.1375Z" fill="#EBFF5E"/>
<path d="M0.0721909 15.5378C0.0728554 15.5006 0.0705579 15.4628 0.0715643 15.4257C0.0172218 15.4626 0.0591084 15.5444 0 15.5791C0.0399119 15.577 0.0600008 15.5603 0.0722099 15.5378H0.0721909Z" fill="#EBFF5E"/>
<path d="M0.0711194 16.218C0.0706045 16.1907 0.0724735 16.1629 0.072607 16.1354C0.0592567 16.1145 0.0387733 16.0999 0 16.1017C0.0490531 16.125 0.0281312 16.191 0.0711194 16.218Z" fill="#EBFF5E"/>
<path d="M25.5004 31.6467C25.2503 31.646 25.0001 31.6453 24.75 31.6445C24.7508 31.6566 24.7514 31.6686 24.7517 31.6807H25.5064C25.4987 31.6685 25.4968 31.6572 25.5004 31.6467Z" fill="#EBFF5E"/>
<path d="M25.5147 31.6446C25.5104 31.6446 25.5061 31.6446 25.5018 31.6445C25.4981 31.6554 25.5001 31.6671 25.508 31.6797C25.5087 31.6677 25.511 31.656 25.5147 31.6446H25.5147L25.5147 31.6446Z" fill="#EBFF5E"/>
<path d="M10.984 31.6445H10.9839C10.755 31.6451 10.5261 31.6456 10.2972 31.6462C10.297 31.6467 10.297 31.6472 10.2969 31.6477C10.2986 31.6582 10.3002 31.6687 10.3016 31.6792H10.9808C10.9809 31.6676 10.982 31.656 10.984 31.6445H10.984V31.6445Z" fill="#EBFF5E"/>
<path d="M24.7564 0.0341655C24.966 0.0341655 25.1755 0.0341655 25.3851 0.0341466C25.3817 0.0234498 25.3838 0.0120739 25.3914 0H24.75C24.758 0.0120739 24.7601 0.0234498 24.7564 0.0341655Z" fill="#EBFF5E"/>
<path d="M25.3844 0.0353641H25.3924C25.3918 0.0235825 25.3914 0.0117815 25.391 0C25.3831 0.0125044 25.3809 0.0242859 25.3844 0.0353641Z" fill="#EBFF5E"/>
<path d="M24.75 0.0353836H24.758C24.7619 0.0242859 24.7597 0.0125044 24.7514 0C24.751 0.011801 24.7506 0.0235825 24.75 0.0353836H24.75Z" fill="#EBFF5E"/>
<path d="M10.2933 31.647C10.2932 31.6465 10.2932 31.646 10.2931 31.6455L10.2931 31.6455C10.234 31.6452 10.175 31.6449 10.1159 31.6445C10.1192 31.6552 10.1171 31.6665 10.1094 31.6784H10.298C10.2926 31.6668 10.2911 31.6564 10.2933 31.647Z" fill="#EBFF5E"/>
<path d="M10.1174 31.6446L10.1094 31.6445C10.1099 31.6563 10.1103 31.668 10.1106 31.6797C10.1186 31.6673 10.1208 31.6556 10.1174 31.6446Z" fill="#EBFF5E"/>
<path d="M10.3029 31.6853C10.3014 31.6743 10.2997 31.6633 10.2979 31.6523C10.2956 31.6622 10.2971 31.6732 10.3029 31.6853Z" fill="#EBFF5E"/>
<path d="M11.1579 31.6452C11.0987 31.6449 11.0396 31.6447 10.9804 31.6445C10.9838 31.6548 10.9826 31.6663 10.9766 31.6792H11.1652C11.1565 31.6675 11.1542 31.6561 11.1579 31.6452Z" fill="#EBFF5E"/>
<path d="M11.1672 31.6446C11.1641 31.6446 11.1611 31.6446 11.158 31.6445C11.1542 31.6559 11.1566 31.6676 11.1656 31.6798C11.1658 31.668 11.1663 31.6563 11.1672 31.6446Z" fill="#EBFF5E"/>
<path d="M10.9806 31.6445H10.9799C10.9779 31.6564 10.9768 31.6684 10.9766 31.6804C10.9828 31.6671 10.9841 31.6552 10.9806 31.6445Z" fill="#EBFF5E"/>
<path d="M24.7563 31.6445C24.6968 31.6456 24.6374 31.6467 24.578 31.6477C24.5812 31.6583 24.5787 31.6693 24.5703 31.6807H24.759C24.7532 31.667 24.7523 31.655 24.7563 31.6445L24.7563 31.6445Z" fill="#EBFF5E"/>
<path d="M24.5756 31.6523C24.5713 31.6524 24.5669 31.6525 24.5625 31.6526H24.5625C24.565 31.664 24.5667 31.6755 24.5676 31.6871C24.5764 31.6751 24.5791 31.6635 24.5756 31.6524V31.6523Z" fill="#EBFF5E"/>
<path d="M24.7524 31.6445C24.7485 31.6551 24.7493 31.6672 24.7551 31.681C24.7548 31.6688 24.7543 31.6567 24.7534 31.6445H24.7524V31.6445Z" fill="#EBFF5E"/>
<path d="M10.3151 31.6148C10.5305 31.5614 10.746 31.5614 10.9617 31.6145C10.972 31.6215 10.9785 31.6295 10.9816 31.6384C11.0418 31.5842 11.1018 31.5824 11.1616 31.6339C11.1636 31.6302 11.1662 31.6265 11.1695 31.6229C11.2165 31.5878 11.2729 31.5756 11.3282 31.5673C12.5897 31.3787 13.7157 30.8476 14.7914 30.1936C15.6473 29.6734 16.4416 29.0701 17.1899 28.404C17.3774 28.237 17.5478 28.051 17.7479 27.8984C17.9164 27.7699 17.9438 27.7741 18.0988 27.9199C18.9374 28.7089 19.8199 29.4433 20.7882 30.0702C21.743 30.6883 22.7482 31.1969 23.8582 31.4783C24.0895 31.5369 24.3304 31.5461 24.5577 31.6228C24.5608 31.6261 24.5632 31.6294 24.5652 31.6327C24.6249 31.581 24.6857 31.5845 24.7473 31.6367C24.751 31.6275 24.7582 31.6194 24.7695 31.6126C25.0148 31.5723 25.2603 31.5286 25.5004 31.6351C25.503 31.63 25.5067 31.625 25.5121 31.6203C25.702 31.5525 25.905 31.5404 26.0973 31.4803C26.966 31.2086 27.5578 30.623 27.9723 29.8354C28.3553 29.108 28.546 28.3238 28.6597 27.516C28.7661 26.7596 28.7621 25.998 28.7285 25.2402C28.6823 24.1975 28.5136 23.1676 28.2766 22.1502C28.2666 22.1073 28.2548 22.0649 28.2452 22.022C28.1974 21.8071 28.2193 21.7592 28.4352 21.6897C28.7762 21.5799 29.1178 21.4725 29.4545 21.3496C31.011 20.7817 32.493 20.0746 33.7708 18.9995C34.3111 18.545 34.7927 18.0331 35.1448 17.4111C35.7821 16.2856 35.7358 15.1805 35.0488 14.0964C34.5521 13.3126 33.868 12.7159 33.1134 12.1922C31.9732 11.4009 30.7201 10.8381 29.4184 10.3757C29.0572 10.2474 28.6948 10.1203 28.3232 10.0244C28.1652 9.98363 28.1277 9.89945 28.1627 9.74773C28.3334 9.00666 28.4808 8.26098 28.5651 7.50445C28.6088 7.11178 28.652 6.71938 28.6651 6.32336C28.6756 6.00374 28.7136 5.6847 28.6985 5.36431C28.6481 4.30071 28.5487 3.24439 28.1295 2.24948C27.8859 1.67121 27.5664 1.14234 27.0656 0.740331C26.6535 0.409467 26.1908 0.201362 25.6687 0.12422C25.5755 0.110449 25.4807 0.104468 25.398 0.0520032C25.3922 0.0466076 25.3883 0.0409857 25.3859 0.0351562C25.1756 0.129842 24.9653 0.129805 24.7549 0.0351562C24.7526 0.0404009 24.749 0.0454757 24.7437 0.0503996C24.6228 0.111486 24.4887 0.110618 24.3592 0.132068C23.6912 0.242696 23.0548 0.454499 22.4404 0.735539C21.0912 1.3528 19.8977 2.20309 18.7861 3.17606C18.5357 3.39526 18.2842 3.61306 18.0452 3.84499C17.8795 4.0059 17.851 4.00192 17.6756 3.83946C16.6867 2.92385 15.6442 2.07712 14.4763 1.39653C13.6096 0.891519 12.71 0.460593 11.722 0.244092C11.0521 0.0972993 10.3777 0.0517768 9.70406 0.20921C8.81423 0.417164 8.1938 0.974282 7.75849 1.75552C7.36071 2.46945 7.16753 3.24728 7.0666 4.05095C6.97012 4.81921 6.9749 5.58862 7.01991 6.36156C7.08516 7.48213 7.28108 8.57984 7.53348 9.66997C7.59225 9.92382 7.58653 9.94518 7.33672 10.0151C6.5182 10.244 5.72088 10.532 4.94006 10.8663C3.73072 11.384 2.59883 12.0303 1.61958 12.9173C1.05559 13.4281 0.592083 14.0185 0.301535 14.732C0.210754 14.955 0.176758 15.1923 0.108842 15.4209C0.103692 15.4288 0.0998813 15.4377 0.0966553 15.447C0.108069 15.4624 0.115087 15.48 0.113747 15.4987C0.0980513 15.7169 0.0964666 15.935 0.107918 16.1534C0.108635 16.167 0.102598 16.1793 0.09375 16.1904C0.0975231 16.201 0.101617 16.2114 0.10688 16.2207C0.33521 17.4073 1.04389 18.288 1.93012 19.0476C3.14457 20.0885 4.55481 20.7857 6.03999 21.3462C6.46368 21.5061 6.89289 21.6492 7.32738 21.7772C7.5481 21.8422 7.57278 21.885 7.51813 22.1027C7.29131 23.0062 7.13672 23.9225 7.0387 24.848C7.0004 25.2096 7.00008 25.5747 6.98423 25.9382C6.94846 26.7582 7.01181 27.5675 7.18053 28.369C7.33343 29.0954 7.58231 29.7847 8.03633 30.3821C8.50223 30.9951 9.10574 31.401 9.87105 31.5484C9.95089 31.5637 10.0332 31.5731 10.1037 31.62C10.1086 31.6247 10.1122 31.6296 10.1146 31.6346C10.1746 31.5827 10.2343 31.5839 10.2937 31.6405H10.2943C10.297 31.6307 10.304 31.6222 10.3151 31.6148L10.3151 31.6148ZM18.0198 25.4977C17.9073 25.6211 17.9077 25.6249 17.7963 25.505C17.1761 24.8373 16.5938 24.1375 16.0353 23.4178C15.9552 23.3145 15.8638 23.2192 15.7863 23.0771C16.4948 23.0684 17.1864 23.1149 17.8783 23.1133C18.566 23.1118 19.2532 23.0637 19.9815 23.0739C19.8293 23.2793 19.7036 23.4562 19.5704 23.6273C19.0726 24.2665 18.5663 24.8987 18.0198 25.4977ZM10.4879 17.8142C10.5039 17.7744 10.5242 17.7362 10.5586 17.6628C10.8986 18.2973 11.2256 18.9073 11.573 19.5056C11.9217 20.1059 12.2876 20.6961 12.6655 21.2944C12.4908 21.3202 12.3433 21.2765 12.1965 21.2579C11.3074 21.1451 10.4217 21.0097 9.54583 20.8168C9.41325 20.7875 9.40908 20.7854 9.44805 20.6571C9.65046 19.9909 9.88645 19.3363 10.1388 18.6876C10.2525 18.3954 10.3709 18.1051 10.4879 17.8143V17.8142ZM9.47339 11.152C9.42564 11.002 9.42723 10.9998 9.59164 10.9609C10.1595 10.8266 10.7341 10.7268 11.3097 10.6336C11.712 10.5684 12.1157 10.5128 12.5188 10.453C12.5497 10.4484 12.5808 10.4427 12.6282 10.469C11.8951 11.6231 11.211 12.8052 10.5825 14.0175C10.5077 14.0068 10.5042 13.9485 10.4869 13.9069C10.1106 13.0028 9.77043 12.0853 9.47339 11.152ZM11.7471 16.6426C11.6352 16.4249 11.5371 16.1999 11.422 15.984C11.3709 15.8882 11.3835 15.8126 11.4281 15.7218C11.8358 14.8934 12.2605 14.074 12.7165 13.271C13.2655 12.3041 13.8537 11.3615 14.4673 10.4341C14.5662 10.2846 14.6809 10.2286 14.8516 10.2197C15.7864 10.1711 16.7211 10.124 17.6576 10.132C18.2605 10.1372 18.8637 10.1343 19.4664 10.1502C19.9369 10.1626 20.4068 10.1989 20.877 10.2235C21.0215 10.2311 21.1257 10.281 21.2136 10.4135C21.9957 11.5914 22.7242 12.8011 23.4032 14.0411C23.7019 14.5865 23.9887 15.1378 24.2703 15.6921C24.3237 15.7972 24.3302 15.8787 24.2757 15.9886C23.5608 17.4299 22.7755 18.8317 21.9253 20.1973C21.6864 20.5811 21.4349 20.9571 21.1955 21.3406C21.1315 21.4432 21.0516 21.4832 20.9345 21.4893C20.0373 21.5358 19.1403 21.5832 18.2414 21.5766C18.091 21.5755 17.9405 21.5765 17.79 21.5765L17.7899 21.5725C17.4947 21.5725 17.1995 21.5696 16.9043 21.5731C16.3321 21.5798 15.7616 21.5359 15.19 21.5224C15.0333 21.5187 14.877 21.4959 14.7203 21.494C14.6279 21.4929 14.5869 21.4381 14.5452 21.3743C14.2465 20.9169 13.9424 20.4628 13.6501 20.0013C12.9609 18.913 12.3356 17.788 11.747 16.6426L11.7471 16.6426ZM25.142 14.0543C24.4864 12.8302 23.8054 11.6371 23.0449 10.4418C24.1579 10.5899 25.2188 10.7645 26.2666 11.0093C26.2105 11.405 25.3691 13.6411 25.142 14.0543V14.0543ZM25.2475 17.7855C25.6324 18.6793 25.9854 19.5853 26.2902 20.5098C26.2961 20.5276 26.3002 20.5461 26.3058 20.5641C26.3519 20.7133 26.3533 20.7197 26.205 20.7511C25.8001 20.837 25.3951 20.9228 24.9882 20.9978C24.4207 21.1024 23.8493 21.1831 23.2774 21.26C23.216 21.2683 23.1532 21.2667 23.0505 21.2717C23.8025 20.0654 24.4988 18.8696 25.1389 17.6397C25.2178 17.6761 25.2264 17.7365 25.2475 17.7855ZM27.2722 26.474C27.2388 27.2789 27.1336 28.0734 26.8249 28.8275C26.7101 29.1078 26.566 29.371 26.3702 29.6045C26.1164 29.9072 25.7946 30.079 25.4025 30.1308C24.7466 30.2176 24.1306 30.0553 23.5264 29.8329C22.5511 29.4739 21.6778 28.9311 20.8467 28.3165C20.235 27.8641 19.6591 27.3687 19.1067 26.8458C19.0659 26.8071 19.0168 26.7772 18.964 26.7375C19.2977 26.3489 19.6037 25.9995 19.9022 25.6437C20.5604 24.8591 21.1749 24.041 21.7631 23.203C21.9632 22.9179 21.9616 22.9189 22.3047 22.8911C22.7361 22.8561 23.1652 22.8002 23.5946 22.7466C24.1051 22.6827 24.6124 22.6011 25.1196 22.5163C25.6084 22.4345 26.0931 22.333 26.5777 22.2308C26.7747 22.1893 26.7762 22.1862 26.8234 22.3909C26.9501 22.9407 27.0539 23.4945 27.1339 24.0534C27.2489 24.8569 27.3058 25.6636 27.2722 26.474H27.2722ZM27.7015 11.592C27.7654 11.3896 27.7653 11.3914 27.9823 11.4549C28.676 11.658 29.3566 11.8985 30.021 12.1824C30.9598 12.5835 31.8604 13.0543 32.668 13.6858C33.1054 14.0279 33.5056 14.4077 33.8076 14.8798C34.0232 15.2168 34.1178 15.5114 34.1166 15.849C34.1258 16.1593 34.0055 16.447 33.8449 16.721C33.5282 17.2614 33.0827 17.6835 32.5944 18.0641C31.6849 18.773 30.6665 19.2864 29.6037 19.7191C29.0741 19.9347 28.5341 20.1207 27.988 20.2893C27.8328 20.3372 27.8295 20.3375 27.7793 20.1808C27.3153 18.7317 26.7347 17.3293 26.0858 15.9544C26.0437 15.865 26.0468 15.7961 26.0871 15.7083C26.5039 14.8012 26.8925 13.8822 27.2359 12.9446C27.3999 12.4968 27.5578 12.0469 27.7015 11.592V11.592ZM19.086 4.88667C20.0512 3.97181 21.0827 3.1431 22.2433 2.48558C22.89 2.11917 23.5607 1.8061 24.2916 1.64256C24.6668 1.55859 25.0435 1.51385 25.4304 1.57087C25.9 1.64007 26.2377 1.89317 26.4917 2.27859C26.7871 2.7268 26.9439 3.22815 27.0508 3.7475C27.1765 4.35855 27.2248 4.97692 27.2106 5.51797C27.2202 6.83063 27.0402 8.03818 26.7692 9.23431C26.7465 9.33439 26.7699 9.47956 26.668 9.51923C26.5895 9.54978 26.4758 9.49197 26.3782 9.47128C25.5865 9.3033 24.7911 9.15694 23.9899 9.04116C23.3689 8.95142 22.7474 8.86752 22.1219 8.81642C22.0044 8.80681 21.9179 8.76522 21.8433 8.65929C20.9923 7.45176 20.0814 6.29144 19.0818 5.20214C18.9306 5.03729 18.9299 5.03467 19.0861 4.88665L19.086 4.88667ZM17.8651 6.12768C18.6061 6.92179 19.2809 7.74797 19.934 8.62023H15.7751C16.4329 7.75391 17.1169 6.92607 17.8651 6.12768ZM8.45088 5.43792C8.45765 4.70798 8.51577 3.98381 8.71558 3.27784C8.83079 2.87072 8.9923 2.48481 9.25649 2.14681C9.54855 1.77314 9.9419 1.61099 10.4013 1.5836C10.852 1.55674 11.2891 1.63607 11.7199 1.76131C12.5107 1.99127 13.2379 2.35894 13.9359 2.78801C14.9032 3.38264 15.7817 4.09256 16.6147 4.86094C16.6424 4.8865 16.6698 4.91246 16.6963 4.93929C16.7948 5.03894 16.7979 5.04218 16.6985 5.14787C16.1215 5.76173 15.582 6.40778 15.0565 7.06551C14.6486 7.5759 14.2523 8.09551 13.88 8.6322C13.7932 8.75722 13.6907 8.80612 13.555 8.81478C13.298 8.83117 13.0431 8.86594 12.7874 8.89462C12.195 8.96104 11.6049 9.04375 11.0169 9.14083C10.3979 9.243 9.78122 9.35707 9.1693 9.49626C9.01584 9.53116 9.01537 9.52602 8.97472 9.36412C8.77129 8.55404 8.62269 7.73355 8.53528 6.90343C8.48408 6.41701 8.44441 5.9285 8.45088 5.4379V5.43792ZM7.98133 20.2433C7.92794 20.4133 7.92464 20.4164 7.74533 20.3638C6.30913 19.942 4.93953 19.3694 3.6882 18.5395C3.05166 18.1173 2.46954 17.6304 2.01664 17.0055C1.88316 16.8213 1.77356 16.624 1.68772 16.414C1.48808 15.9258 1.54555 15.456 1.7994 15.0034C2.03579 14.582 2.35333 14.2282 2.7154 13.9115C3.54759 13.1837 4.50494 12.6622 5.51067 12.2219C6.24802 11.8991 7.00908 11.6415 7.78132 11.4162C7.81734 11.4057 7.85307 11.3942 7.86546 11.3904C7.93719 11.3809 7.95828 11.4101 7.97156 11.4484C7.99211 11.5077 8.01274 11.5669 8.03159 11.6268C8.46953 13.0177 9.00422 14.3712 9.61094 15.6966C9.66176 15.8076 9.66863 15.8973 9.61599 16.013C8.98885 17.3912 8.4352 18.7981 7.98137 20.2433L7.98133 20.2433ZM9.06869 29.2919C8.80734 28.8326 8.65723 28.3361 8.56699 27.8201C8.47599 27.2996 8.43218 26.7745 8.44608 26.3213C8.4426 25.5032 8.51487 24.7676 8.62908 24.0344C8.7122 23.5009 8.82449 22.9739 8.94489 22.4482C8.98724 22.2633 9.00035 22.2552 9.18646 22.2962C10.0142 22.4785 10.8503 22.6149 11.6897 22.727C12.3302 22.8126 12.9726 22.8883 13.6183 22.9277C13.7344 22.9347 13.8146 22.9771 13.8836 23.0743C14.59 24.0685 15.3451 25.0247 16.1447 25.9455C16.3425 26.1731 16.5508 26.3915 16.7521 26.6162C16.8451 26.7199 16.8439 26.7271 16.7519 26.8136C15.9166 27.5987 15.0312 28.3198 14.0529 28.9219C13.4196 29.3116 12.7593 29.6457 12.0538 29.8859C11.5993 30.0406 11.1321 30.1404 10.6527 30.1512C9.96631 30.1667 9.41934 29.9082 9.0687 29.2919L9.06869 29.2919Z" fill="#EBFF5E"/>
<path d="M25.4027 0.0547575C25.4854 0.107204 25.5802 0.113203 25.6734 0.126975C26.1955 0.204116 26.6582 0.412222 27.0703 0.743085C27.5711 1.14509 27.8906 1.67397 28.1342 2.25223C28.5534 3.24714 28.6529 4.30346 28.7032 5.36706C28.7183 5.68744 28.6804 6.00649 28.6698 6.32611C28.6567 6.72214 28.6136 7.11454 28.5698 7.50721C28.4855 8.26373 28.3381 9.00941 28.1674 9.75049C28.1324 9.90221 28.17 9.98636 28.3279 10.0272C28.6995 10.1231 29.0619 10.2502 29.4231 10.3785C30.7248 10.8409 31.9779 11.4036 33.1181 12.195C33.8727 12.7187 34.5568 13.3154 35.0535 14.0992C35.7405 15.1832 35.7868 16.2883 35.1495 17.4139C34.7974 18.0358 34.3158 18.5477 33.7755 19.0023C32.4977 20.0774 31.0157 20.7845 29.4593 21.3524C29.1225 21.4753 28.7809 21.5827 28.4399 21.6924C28.224 21.762 28.2021 21.8099 28.2499 22.0248C28.2595 22.0677 28.2713 22.1101 28.2813 22.1529C28.5183 23.1704 28.687 24.2002 28.7332 25.243C28.7668 26.0007 28.7708 26.7624 28.6644 27.5188C28.5508 28.3266 28.36 29.1107 27.9771 29.8382C27.5625 30.6257 26.9707 31.2113 26.102 31.483C25.9097 31.5432 25.7067 31.5553 25.5168 31.623C25.5114 31.6278 25.5076 31.6327 25.5051 31.6378C25.5086 31.6394 25.5121 31.6407 25.5155 31.6423C26.0424 31.6045 26.5186 31.4251 26.9504 31.1251C27.4098 30.8061 27.7446 30.3791 28.0064 29.891C28.5282 28.9179 28.7206 27.8591 28.7827 26.7744C28.8261 26.0159 28.8049 25.2561 28.7239 24.4979C28.6358 23.6733 28.4981 22.8585 28.3071 22.0522C28.2485 21.8044 28.2462 21.802 28.5009 21.7244C29.0118 21.5689 29.5154 21.3928 30.012 21.1965C31.3036 20.6861 32.5339 20.0646 33.6247 19.1934C34.2375 18.7039 34.7817 18.1506 35.178 17.4657C35.4659 16.968 35.6445 16.4352 35.6516 15.8578C35.6596 15.2175 35.4478 14.638 35.1141 14.0992C34.742 13.4987 34.2516 13.0049 33.7042 12.5665C32.765 11.8145 31.7139 11.2537 30.6115 10.7831C29.8597 10.4622 29.0877 10.1978 28.3048 9.96397C28.1791 9.92641 28.1793 9.92379 28.2086 9.79641C28.3788 9.05661 28.5201 8.31216 28.6142 7.55803C28.6866 6.97801 28.7288 6.39635 28.7454 5.81333C28.7653 5.11561 28.7154 4.4203 28.5994 3.73169C28.4873 3.06647 28.3059 2.42166 27.9884 1.82121C27.7386 1.34893 27.4208 0.932627 26.9889 0.610876C26.5164 0.258977 25.9769 0.091451 25.3972 0.0351562H25.3972C25.395 0.0361561 25.3928 0.0369862 25.3906 0.0379672C25.393 0.0437778 25.3969 0.0494186 25.4027 0.0548141V0.0547575Z" fill="#EBFF5E"/>
<path d="M0.0977052 15.4498C0.100931 15.4405 0.104723 15.4316 0.109892 15.4237C0.177808 15.1951 0.211785 14.9578 0.302585 14.7348C0.593133 14.0213 1.05664 13.4309 1.62063 12.9201C2.59988 12.0331 3.73177 11.3868 4.94111 10.8691C5.72195 10.5348 6.51927 10.2468 7.33777 10.0178C7.5876 9.94797 7.59332 9.92662 7.53453 9.67276C7.28213 8.58264 7.08621 7.48493 7.02096 6.36435C6.97594 5.59141 6.97117 4.822 7.06765 4.05374C7.16858 3.25007 7.36174 2.47224 7.75954 1.75831C8.19483 0.977074 8.81528 0.419956 9.70511 0.212002C10.3787 0.0545689 11.0531 0.100091 11.723 0.246884C12.711 0.463385 13.6107 0.894311 14.4773 1.39932C15.6453 2.07992 16.6877 2.92664 17.6766 3.84226C17.8521 4.00469 17.8806 4.00867 18.0463 3.84778C18.2852 3.61585 18.5367 3.39805 18.7871 3.17885C19.8988 2.20586 21.0922 1.35557 22.4415 0.738331C23.0558 0.457291 23.6922 0.245488 24.3602 0.134861C24.4898 0.11341 24.6238 0.114278 24.7448 0.0531917C24.75 0.0482867 24.7536 0.043193 24.756 0.0379483C24.7538 0.0369673 24.7516 0.0361373 24.7495 0.0351562H24.7495C24.4184 0.0707744 24.0901 0.122919 23.7679 0.208078C22.6179 0.512077 21.5845 1.06178 20.6021 1.71645C19.653 2.3489 18.7803 3.07588 17.9585 3.86522C17.8658 3.95424 17.8642 3.95319 17.7679 3.86212C17.2013 3.32647 16.6097 2.8201 15.9861 2.35205C15.0787 1.67101 14.1209 1.07389 13.0714 0.633344C12.1761 0.257524 11.2539 0.0132722 10.2708 0.0745475C9.7472 0.107185 9.25609 0.248733 8.81254 0.530905C8.16723 0.941456 7.75835 1.54262 7.47199 2.23601C7.12747 3.07026 6.98985 3.94881 6.94838 4.84271C6.91665 5.52655 6.94112 6.21013 7.00994 6.89283C7.0767 7.55499 7.17062 8.21187 7.30837 8.86269C7.38089 9.20535 7.45479 9.54774 7.52861 9.89288C7.44585 9.94571 7.35188 9.96201 7.26278 9.98797C5.94402 10.3724 4.66882 10.8639 3.47158 11.5425C2.55928 12.0595 1.71212 12.6621 1.02778 13.4695C0.544233 14.0399 0.188694 14.6729 0.0703125 15.4221C0.0807074 15.4302 0.0901402 15.4395 0.0976864 15.4498L0.0977052 15.4498Z" fill="#EBFF5E"/>
<path d="M10.1055 31.6288C10.035 31.5819 9.9527 31.5726 9.87286 31.5572C9.10752 31.4098 8.50401 31.004 8.03813 30.3909C7.58409 29.7935 7.33524 29.1042 7.18233 28.3778C7.01362 27.5763 6.95027 26.767 6.98604 25.947C7.0019 25.5835 7.0022 25.2184 7.0405 24.8568C7.13853 23.9313 7.29309 23.015 7.51993 22.1115C7.57457 21.8938 7.54989 21.851 7.32918 21.786C6.89469 21.658 6.46548 21.5149 6.0418 21.355C4.55661 20.7946 3.14637 20.0973 1.93192 19.0564C1.0457 18.2968 0.337014 17.4161 0.108685 16.2295C0.103421 16.2202 0.0993465 16.2098 0.0955546 16.1992C0.0883668 16.2082 0.079368 16.2164 0.0703125 16.2236C0.0773116 16.2669 0.0829335 16.3105 0.0914985 16.3535C0.250893 17.154 0.6612 17.8211 1.1997 18.4173C1.65217 18.9183 2.16676 19.3489 2.72364 19.7297C3.68225 20.3852 4.71557 20.8958 5.7963 21.3151C6.31142 21.5149 6.8337 21.6931 7.36448 21.8468C7.51721 21.891 7.51955 21.8952 7.48952 22.0183C7.26955 22.9204 7.10119 23.831 7.00375 24.7552C6.9471 25.2927 6.91829 25.8318 6.92142 26.3702C6.92461 26.9147 6.95949 27.4601 7.05482 27.9994C7.17892 28.7016 7.3684 29.3809 7.72396 30.0054C8.25459 30.9373 9.03553 31.5063 10.1107 31.6483C10.1126 31.6465 10.1145 31.645 10.1164 31.6433C10.114 31.6383 10.1105 31.6334 10.1055 31.6287V31.6288Z" fill="#EBFF5E"/>
<path d="M24.5523 31.6254C24.3251 31.5486 24.0841 31.5395 23.8528 31.4808C22.7428 31.1995 21.7376 30.6909 20.7829 30.0727C19.8146 29.4459 18.9321 28.7115 18.0935 27.9225C17.9385 27.7766 17.9111 27.7724 17.7426 27.9009C17.5425 28.0535 17.3721 28.2396 17.1845 28.4066C16.4363 29.0727 15.6419 29.6759 14.7861 30.1962C13.7104 30.8502 12.5843 31.3812 11.3229 31.5699C11.2676 31.5781 11.2112 31.5904 11.1642 31.6254C11.1608 31.629 11.1582 31.6327 11.1562 31.6364C11.1584 31.6383 11.1606 31.64 11.1627 31.642C11.8524 31.555 12.5135 31.363 13.1532 31.0951C14.1555 30.6753 15.0764 30.1146 15.9488 29.4715C16.5867 29.0014 17.1881 28.4877 17.7644 27.944C17.9081 27.8084 17.9112 27.8137 18.0568 27.9517C18.792 28.6481 19.5645 29.2995 20.4004 29.8727C21.3261 30.5075 22.2978 31.0542 23.3755 31.3928C23.7594 31.5134 24.1482 31.6107 24.5509 31.6433C24.5538 31.6404 24.5568 31.6379 24.5598 31.6353C24.5578 31.6319 24.5554 31.6286 24.5523 31.6254H24.5523Z" fill="#EBFF5E"/>
<path d="M0.101449 16.1517C0.0899973 15.9333 0.0915632 15.7152 0.107278 15.497C0.108618 15.4783 0.1016 15.4608 0.090186 15.4453C0.0806966 15.4728 0.0768103 15.5045 0.0634347 15.5291C0.0629819 15.5542 0.0612085 15.5791 0.0560017 15.6031C0.0224399 15.7581 0.0230058 15.9104 0.0577184 16.0649C0.062548 16.0864 0.0636233 16.1088 0.0635101 16.1315C0.0741314 16.1481 0.0802061 16.1689 0.0872807 16.1887C0.0961286 16.1776 0.102166 16.1653 0.101449 16.1517Z" fill="#EBFF5E"/>
<path d="M0.0705641 15.4258C0.0695723 15.4631 0.07188 15.5011 0.0711934 15.5384C0.0847155 15.5135 0.0886443 15.4815 0.0982375 15.4537C0.0905896 15.4434 0.0810537 15.4339 0.0705641 15.4258V15.4258Z" fill="#EBFF5E"/>
<path d="M0.095756 16.1943C0.0886499 16.1743 0.0825481 16.1535 0.0718795 16.1367C0.0717469 16.164 0.0698898 16.1916 0.0704014 16.2187C0.0794973 16.2115 0.0885362 16.2033 0.095756 16.1943Z" fill="#EBFF5E"/>
<path d="M24.7722 31.6183C24.7609 31.6251 24.7536 31.6332 24.75 31.6424C24.7502 31.6426 24.7505 31.6428 24.7507 31.643C25.0008 31.6437 25.251 31.6445 25.5011 31.6452C25.5016 31.6437 25.5023 31.6423 25.5031 31.6408C25.263 31.5343 25.0175 31.578 24.7722 31.6183V31.6183Z" fill="#EBFF5E"/>
<path d="M25.5078 31.6496C25.5126 31.6496 25.5174 31.6496 25.5223 31.6497C25.5182 31.6478 25.5142 31.6463 25.5101 31.6445C25.5092 31.6462 25.5084 31.6479 25.5078 31.6496H25.5078Z" fill="#EBFF5E"/>
<path d="M10.9645 31.6139C10.7489 31.5607 10.5334 31.5608 10.3179 31.6142C10.3068 31.6216 10.2999 31.6302 10.2971 31.6399C10.5261 31.6393 10.755 31.6388 10.9839 31.6382H10.9839L10.9844 31.6378C10.9814 31.6288 10.9748 31.6208 10.9645 31.6139Z" fill="#EBFF5E"/>
<path d="M25.3888 0.0379672C25.3884 0.0370239 25.388 0.0360995 25.3877 0.0351562C25.1781 0.0351562 24.9686 0.0351563 24.7591 0.0351751C24.7587 0.0361184 24.7582 0.0370428 24.7578 0.0379672C24.9681 0.132616 25.1785 0.132653 25.3888 0.0379672H25.3888Z" fill="#EBFF5E"/>
<path d="M25.3841 0.0385239C25.3867 0.0373486 25.3893 0.0363541 25.392 0.0351562H25.3828C25.3832 0.0362863 25.3837 0.0374164 25.3841 0.0385239Z" fill="#EBFF5E"/>
<path d="M24.7593 0.0351562H24.75C24.7526 0.0363541 24.7552 0.0373486 24.7578 0.0385013C24.7583 0.0373938 24.7589 0.0362863 24.7593 0.0351562H24.7593Z" fill="#EBFF5E"/>
<path d="M10.1172 31.6394C10.118 31.6411 10.1187 31.6427 10.1192 31.6444C10.1784 31.6447 10.2376 31.645 10.2968 31.6453C10.2372 31.5886 10.1773 31.5874 10.1172 31.6394V31.6394Z" fill="#EBFF5E"/>
<path d="M10.1094 31.6504L10.1186 31.6505C10.118 31.6485 10.1171 31.6465 10.1162 31.6445C10.1139 31.6465 10.1117 31.6483 10.1094 31.6504Z" fill="#EBFF5E"/>
<path d="M10.9844 31.6436L10.9845 31.644C11.0438 31.6442 11.1031 31.6444 11.1624 31.6447C11.163 31.6428 11.1638 31.6409 11.1648 31.6391C11.1049 31.5874 11.0447 31.5893 10.9844 31.6436H10.9844Z" fill="#EBFF5E"/>
<path d="M11.1562 31.6435C11.1598 31.6435 11.1634 31.6435 11.167 31.6435C11.1644 31.6411 11.1618 31.639 11.1592 31.6367C11.158 31.639 11.157 31.6412 11.1562 31.6435Z" fill="#EBFF5E"/>
<path d="M10.9844 31.6458H10.9864L10.9859 31.6445L10.9844 31.6458Z" fill="#EBFF5E"/>
<path d="M24.5703 31.6386C24.5718 31.6412 24.5731 31.6437 24.5739 31.6463C24.6333 31.6453 24.6928 31.6442 24.7522 31.6432C24.7523 31.643 24.7524 31.6428 24.7524 31.6426C24.6908 31.5904 24.6301 31.5869 24.5703 31.6386H24.5703Z" fill="#EBFF5E"/>
<path d="M24.5625 31.646C24.5673 31.6459 24.5722 31.6458 24.577 31.6457C24.5761 31.6427 24.5746 31.6397 24.5729 31.6367C24.5694 31.6397 24.5659 31.6427 24.5625 31.646Z" fill="#EBFF5E"/>
<path d="M24.75 31.6459H24.7522C24.7517 31.6454 24.7511 31.645 24.7506 31.6445C24.7504 31.645 24.7502 31.6454 24.75 31.6459Z" fill="#EBFF5E"/>
<path d="M49.883 20.0564C49.2693 19.1295 48.655 18.2028 48.042 17.2754C48.0066 17.2218 47.9498 17.1739 47.9669 17.0927C48.2106 17.0705 48.4457 17.0304 48.6757 16.9668C50.147 16.5601 51.1613 15.6617 51.6159 14.1875C51.8781 13.3372 51.8897 12.47 51.6906 11.6024C51.4422 10.5204 50.8705 9.65732 49.9387 9.04173C49.1392 8.5135 48.2472 8.27172 47.301 8.26364C45.3271 8.24682 43.3529 8.25685 41.3788 8.2571C41.0838 8.25714 41.1185 8.22193 41.1184 8.51848C41.1178 13.3188 41.118 18.1191 41.118 22.9195C41.118 22.9572 41.1173 22.9949 41.1181 23.0326C41.1216 23.1834 41.1218 23.1857 41.2793 23.1861C41.7697 23.1872 42.2601 23.1868 42.7504 23.1864C42.9889 23.1862 42.9699 23.2053 42.97 22.9589C42.9702 21.1557 42.9701 19.3524 42.9701 17.5492C42.9701 17.4926 42.9742 17.4358 42.9697 17.3796C42.962 17.2856 43.0092 17.2564 43.0939 17.2622C43.1252 17.2643 43.1567 17.2623 43.1882 17.2623C44.0558 17.2623 44.9234 17.2654 45.7909 17.2591C45.9276 17.2581 46.0056 17.3033 46.0772 17.4172C46.4781 18.0554 46.8874 18.6883 47.2925 19.3238C48.0692 20.5418 48.8474 21.7588 49.6181 22.9805C49.7117 23.1289 49.808 23.1958 49.9915 23.1915C50.5696 23.178 51.1482 23.1865 51.7265 23.1865H51.921C51.9138 23.1033 51.8756 23.0675 51.8483 23.0263C51.1935 22.0362 50.5383 21.0463 49.883 20.0564ZM46.8738 15.6172C45.6356 15.6158 44.3973 15.6167 43.159 15.6167C43.1339 15.6167 43.1086 15.6151 43.0836 15.6167C43.0061 15.6217 42.965 15.5913 42.9701 15.5086C42.9728 15.4648 42.9702 15.4207 42.9702 15.3768C42.9702 14.5036 42.9702 13.6304 42.9702 12.7572H42.9705C42.9705 11.8903 42.9705 11.0234 42.9705 10.1565C42.9705 10.1314 42.9702 10.1063 42.9705 10.0811C42.973 9.91826 42.9731 9.91592 43.1388 9.91602C44.4462 9.91662 45.7539 9.90168 47.0609 9.92555C47.866 9.94026 48.5883 10.2114 49.1569 10.8092C49.5308 11.2023 49.7533 11.6733 49.8379 12.2094C49.9194 12.7258 49.9019 13.2372 49.7309 13.7334C49.3956 14.7063 48.6958 15.2784 47.7142 15.5281C47.4392 15.598 47.1575 15.6175 46.8738 15.6172V15.6172Z" fill="#EBFF5E"/>
<path d="M63.0562 14.5091C62.4983 13.5647 61.7213 12.8675 60.6932 12.4657C59.9081 12.1589 59.0952 12.0558 58.2543 12.1271C57.6204 12.1808 57.0159 12.3332 56.4464 12.6116C55.1397 13.2504 54.2627 14.2784 53.7626 15.6317C53.4473 16.4849 53.3415 17.3681 53.4111 18.2779C53.4732 19.0895 53.6579 19.8643 54.0281 20.5891C54.6773 21.8596 55.6882 22.7165 57.0424 23.16C57.8209 23.415 58.6217 23.4886 59.4405 23.4233C60.1614 23.3658 60.8541 23.212 61.5156 22.921C62.1019 22.6631 62.6288 22.3148 63.0944 21.8748C63.2085 21.767 63.2085 21.7642 63.1121 21.6325C62.9081 21.3538 62.7028 21.0759 62.4968 20.7987C62.4071 20.6781 62.4053 20.6788 62.2897 20.7876C62.0092 21.0516 61.7016 21.2787 61.3629 21.4623C60.3602 22.0056 59.2961 22.1869 58.1747 21.9728C57.5462 21.8529 56.9836 21.5797 56.5024 21.1534C55.8126 20.5424 55.4171 19.7663 55.2426 18.8711C55.2139 18.7241 55.188 18.575 55.1889 18.423C55.1894 18.3503 55.2172 18.3193 55.2886 18.3216C55.3388 18.3233 55.3891 18.3214 55.4394 18.3214C56.8098 18.3214 58.1803 18.3214 59.5507 18.3214C60.4057 18.3214 61.2606 18.3214 62.1156 18.3214C62.6625 18.3214 63.2094 18.3221 63.7563 18.3209C63.9096 18.3205 63.9117 18.3178 63.9126 18.1628C63.9149 17.7234 63.9033 17.2856 63.8425 16.8483C63.7271 16.0178 63.4834 15.2323 63.0562 14.5092L63.0562 14.5091ZM62.1125 17.0724C62.0686 17.0738 62.0245 17.0726 61.9805 17.0726C59.7929 17.0726 57.6053 17.0726 55.4177 17.0726C55.3989 17.0726 55.38 17.0727 55.3611 17.0726C55.1432 17.0719 55.1507 17.0728 55.1767 16.8485C55.2402 16.2992 55.3985 15.7802 55.6678 15.2975C56.222 14.3039 57.0411 13.6851 58.1859 13.5253C58.3614 13.5008 58.536 13.4975 58.7358 13.4916C59.4668 13.4915 60.1671 13.6769 60.7843 14.1229C61.4982 14.6387 61.9172 15.3514 62.1362 16.192C62.1996 16.4354 62.24 16.683 62.2482 16.9346C62.2524 17.0676 62.2482 17.0681 62.1125 17.0724L62.1125 17.0724Z" fill="#EBFF5E"/>
<path d="M75.0085 15.0433C74.8153 13.8008 74.1391 12.9429 72.9709 12.4764C72.4354 12.2626 71.8755 12.1692 71.3009 12.1293C70.6237 12.0823 69.9581 12.139 69.3008 12.2937C68.2633 12.5379 67.3882 13.0706 66.6358 13.8165C66.5715 13.8802 66.5593 13.9235 66.6165 14.0048C66.8262 14.3026 67.0252 14.608 67.229 14.91C67.3359 15.0683 67.3363 15.0675 67.4664 14.9377C67.6176 14.7867 67.7696 14.6373 67.9376 14.5038C69.0299 13.6361 70.2622 13.3952 71.61 13.6899C72.0412 13.7841 72.4266 13.9846 72.7476 14.2893C73.1487 14.67 73.3619 15.1472 73.3757 15.6971C73.3922 16.3502 73.3814 17.004 73.3819 17.6575C73.3819 17.6804 73.39 17.7075 73.3531 17.7304C73.3005 17.706 73.2653 17.6533 73.2236 17.61C72.7607 17.1287 72.2046 16.7957 71.5734 16.5888C70.823 16.3429 70.0541 16.2717 69.2681 16.3571C68.7033 16.4184 68.1747 16.5872 67.6864 16.8718C67.0299 17.2545 66.55 17.7933 66.2793 18.5111C66.0317 19.1678 65.9854 19.8408 66.0951 20.5294C66.2073 21.2345 66.5106 21.8478 67.0208 22.3436C67.7548 23.0569 68.6503 23.4094 69.6696 23.4532C70.0412 23.4692 70.4109 23.4387 70.7763 23.3734C71.5698 23.2316 72.2892 22.9245 72.9146 22.4064C73.0677 22.2795 73.1992 22.1291 73.3824 21.9806V22.1726C73.3824 22.4554 73.3815 22.7382 73.3828 23.0209C73.3835 23.1871 73.385 23.189 73.5476 23.1895C73.9689 23.1906 74.3901 23.191 74.8114 23.1895C75.0669 23.1885 75.0703 23.2303 75.0702 22.9378C75.0697 20.594 75.0725 18.2502 75.0667 15.9064C75.066 15.6189 75.0531 15.33 75.0085 15.0433L75.0085 15.0433ZM73.2617 21.061C73.0162 21.3435 72.7315 21.5777 72.4031 21.758C71.9404 22.0121 71.4464 22.1591 70.9214 22.2199C70.4022 22.2801 69.892 22.2586 69.3958 22.0932C68.6715 21.8517 68.1263 21.4027 67.8769 20.6637C67.5278 19.6295 67.8635 18.4494 68.947 17.8784C69.57 17.55 70.2336 17.4841 70.9229 17.5587C71.4411 17.6148 71.9326 17.7523 72.3905 18.0023C72.7351 18.1905 73.0435 18.4238 73.2927 18.7318C73.3559 18.8098 73.3859 18.8867 73.3841 18.9873C73.3789 19.2825 73.3823 19.5777 73.3823 19.873C73.3823 20.1619 73.375 20.4511 73.3855 20.7397C73.3903 20.8715 73.3418 20.9688 73.2617 21.061V21.061Z" fill="#EBFF5E"/>
<path d="M81.1857 14.2498C81.6775 13.9002 82.2285 13.7069 82.8274 13.6393C83.4167 13.5728 83.9936 13.6132 84.5537 13.8169C85.1377 14.0294 85.6045 14.4006 85.98 14.8896C86.0398 14.9675 86.079 14.9838 86.1564 14.9132C86.4673 14.6293 86.7818 14.3495 87.0969 14.0702C87.1599 14.0143 87.1726 13.968 87.1148 13.8968C86.6899 13.374 86.1981 12.9333 85.5931 12.6251C84.9309 12.2879 84.2208 12.1485 83.4867 12.1121C83.0272 12.0893 82.5702 12.1255 82.1184 12.2148C80.4927 12.5362 79.285 13.4301 78.508 14.8885C77.9047 16.021 77.7411 17.2391 77.8686 18.5055C77.9521 19.3355 78.1901 20.1167 78.6052 20.84C79.247 21.958 80.1725 22.7425 81.3966 23.1602C82.3753 23.4942 83.375 23.5373 84.3888 23.3468C85.5081 23.1364 86.3984 22.5572 87.1068 21.6785C87.1683 21.6023 87.1657 21.5533 87.0939 21.4903C86.9474 21.362 86.806 21.2279 86.6624 21.0962C86.4684 20.9182 86.2743 20.7403 86.0658 20.5492C85.9915 20.6389 85.9326 20.7119 85.8717 20.7831C85.5358 21.1754 85.1393 21.4873 84.662 21.6919C84.0436 21.9569 83.3995 22.0052 82.7405 21.9143C81.6517 21.7642 80.8209 21.2118 80.2352 20.2888C79.8253 19.6428 79.6337 18.9239 79.5807 18.1691C79.5368 17.5457 79.5851 16.9264 79.7642 16.3231C80.0146 15.4795 80.4588 14.7665 81.1857 14.2498Z" fill="#EBFF5E"/>
<path d="M17.844 19.0032C19.6372 19.004 21.0427 17.5144 21.0195 15.8293C21.0473 14.1781 19.7045 12.6509 17.8548 12.6446C16.0033 12.6382 14.6628 14.164 14.6641 15.8275C14.6653 17.5136 16.0522 19.0024 17.844 19.0032Z" fill="#EBFF5E"/>
</g>
<defs>
<clipPath id="clip0_285_615">
<rect width="94.2899" height="31.6752" fill="white"/>
</clipPath>
</defs>
</svg>
