<svg width="93" height="33" viewBox="0 0 93 33" fill="none" xmlns="http://www.w3.org/2000/svg">
<g clip-path="url(#clip0_285_583)">
<path d="M30.4641 0.0285221H38.0262C31.6841 10.9562 25.3806 21.8172 19.0482 32.7282C12.6772 21.823 6.33396 10.9652 0 0.1233C0.0833404 -0.00933569 0.180778 0.0284335 0.261281 0.0283448C2.65413 0.0260397 5.04697 0.0263056 7.4399 0.0275469C7.51296 0.0275469 7.58601 0.0415552 7.65907 0.0490913C8.15601 0.532377 8.41108 1.17436 8.74897 1.75677C10.6681 5.06512 12.5879 8.3732 14.5032 11.6839C15.96 14.2022 17.4191 16.7191 18.8758 19.2374C18.9189 19.3119 18.9489 19.3967 19.0552 19.4716C19.5621 18.6438 20.0346 17.8137 20.5137 16.9885C21.9746 14.4724 23.4538 11.9672 24.9172 9.45264C26.6405 6.49139 28.3649 3.53086 30.0991 0.575998C30.2107 0.385822 30.3445 0.212314 30.4641 0.0285221V0.0285221Z" stroke="#72E4FC" stroke-width="1.5208"/>
<path d="M30.4614 0.0182562C30.5205 0.154438 30.4126 0.23902 30.3567 0.334772C26.6372 6.70526 22.9159 13.0747 19.1946 19.4442C19.1503 19.52 19.1045 19.5949 19.0337 19.7131C18.6911 19.1258 18.3646 18.5695 18.0413 18.0113C14.633 12.1251 11.225 6.23882 7.8177 0.35215C7.75892 0.250545 7.7098 0.143355 7.65625 0.0388253C9.20532 0.0299593 10.7543 0.020118 12.3034 0.0126706C12.9086 0.00974483 13.5154 0.038914 14.1185 0.00265203C14.51 -0.0208429 14.7232 0.110374 14.9171 0.452158C16.1818 2.68072 17.4698 4.89606 18.751 7.11531C18.8384 7.26674 18.9326 7.41445 19.0413 7.59292C20.4268 5.18687 21.8012 2.81885 23.1502 0.436377C23.3374 0.105852 23.5369 -0.000185088 23.9074 0.00327265C26.0919 0.0234871 28.2766 0.0163057 30.4614 0.0182562V0.0182562Z" stroke="#72E4FC" stroke-width="1.5208"/>
<path d="M48.841 20.2777C50.2124 15.6678 51.5843 11.0583 52.954 6.44805C53.0599 6.09155 53.1366 5.70463 53.5891 5.64177C54.1184 5.56828 54.5789 5.72396 54.9356 6.14013C55.143 6.382 55.0517 6.64106 54.9742 6.89303C54.2625 9.20644 53.5466 11.5186 52.8332 13.8315C51.9555 16.6773 51.0784 19.5232 50.2025 22.3695C49.9094 23.3223 48.8336 23.7283 47.9699 23.2182C47.6743 23.0436 47.5708 22.7579 47.4789 22.4625C46.0234 17.7839 44.5701 13.1046 43.1166 8.42543C42.9381 7.851 42.7695 7.27338 42.5787 6.70312C42.4543 6.33075 42.5795 6.07186 42.8958 5.88656C43.0463 5.79835 43.2058 5.71279 43.3725 5.66687C44.047 5.4813 44.4075 5.6854 44.6071 6.3538C45.5303 9.44671 46.4505 12.5406 47.3744 15.6333C47.8111 17.0953 48.2543 18.5553 48.6916 20.0171C48.7209 20.1153 48.7164 20.2256 48.841 20.2776V20.2777Z" fill="#72E4FC"/>
<path d="M64.8703 16.018C64.8703 17.0071 64.8684 17.9963 64.8708 18.9854C64.8758 21.0163 63.0862 22.8804 61.2053 23.3285C58.7137 23.9221 56.0725 22.3875 55.4088 19.9254C55.3206 19.598 55.2652 19.2656 55.2656 18.923C55.2686 16.8557 55.2651 14.7884 55.2666 12.721C55.2671 12.144 55.629 11.8287 56.2777 11.8289C56.9066 11.8292 57.2941 12.1652 57.2953 12.7342C57.2998 14.7573 57.2879 16.7803 57.3006 18.8033C57.3115 20.5683 58.8419 21.856 60.5835 21.5883C61.8472 21.394 62.8652 20.108 62.871 18.6728C62.879 16.7089 62.8721 14.7449 62.8735 12.781C62.8739 12.1361 63.2141 11.8254 63.9085 11.8281C64.5946 11.8308 64.8858 12.1111 64.8878 12.7843C64.8911 13.8622 64.8887 14.9402 64.8887 16.0181H64.8704L64.8703 16.018Z" fill="#72E4FC"/>
<path d="M88.7198 23.4564C87.476 23.4314 86.2878 23.2105 85.268 22.4342C84.7947 22.074 84.6717 21.6546 84.8766 21.2026C85.1158 20.6751 85.4614 20.5669 85.9254 20.9075C86.6305 21.4251 87.4056 21.742 88.279 21.8213C88.8744 21.8753 89.4611 21.835 90.0241 21.6349C90.5257 21.4566 90.8943 21.1128 90.9831 20.5726C91.0829 19.965 90.9059 19.4331 90.3974 19.0445C89.9345 18.6909 89.4052 18.4779 88.8511 18.3158C88.358 18.1714 87.8657 18.0242 87.3752 17.8711C85.8356 17.3909 85.0466 16.4184 85.0613 15.0255C85.0771 13.5323 86.0411 12.2481 87.4962 11.8715C88.9224 11.5024 90.3302 11.6221 91.6939 12.1886C91.8422 12.2502 91.9881 12.3257 92.12 12.4168C92.5443 12.7094 92.6023 12.998 92.3489 13.481C92.0906 13.9732 91.8442 14.0851 91.3484 13.8774C90.4156 13.4869 89.4781 13.1731 88.4392 13.3452C87.5961 13.4849 86.9524 14.098 86.8894 14.8609C86.8442 15.4066 87.0764 15.7987 87.5334 16.0744C88.0555 16.3894 88.6354 16.5512 89.2156 16.7157C89.6814 16.8478 90.1466 16.9846 90.6049 17.1402C92.1146 17.6528 92.9339 18.8517 92.8452 20.4006C92.7615 21.8631 91.8291 22.9165 90.2991 23.2797C89.78 23.4028 89.2552 23.4697 88.7199 23.4564H88.7198Z" fill="#72E4FC"/>
<path d="M83.2774 18.6726C83.2774 20.5911 83.2897 22.5097 83.2719 24.428C83.2638 25.2991 83.1338 26.1558 82.7636 26.9611C82.1663 28.2607 81.1489 28.8702 79.7289 28.768C79.2 28.73 78.8938 28.4291 78.8831 27.937C78.8727 27.462 79.1845 27.0929 79.6628 27.014C80.8052 26.8256 81.0208 26.5879 81.1687 25.4466C81.2297 24.9759 81.2458 24.5067 81.2458 24.0346C81.2454 20.2861 81.2454 16.5377 81.2458 12.7892C81.2458 12.0975 81.5307 11.8272 82.2547 11.8281C82.9719 11.829 83.2796 12.1143 83.2799 12.7843C83.2808 14.7471 83.2802 16.7098 83.2802 18.6727H83.2774V18.6726Z" fill="#72E4FC"/>
<path d="M79.5799 22.1318C79.585 22.8355 79.0651 23.3782 78.374 23.3907C77.6728 23.4035 77.0888 22.8489 77.0783 22.1605C77.0676 21.4642 77.6277 20.8871 78.3218 20.879C79.0326 20.8708 79.5749 21.4107 79.58 22.1318H79.5799Z" fill="#72E4FC"/>
<path d="M82.226 8.66644C81.544 8.66006 80.9625 8.11578 80.9768 7.49711C80.9909 6.88544 81.5522 6.39533 82.2396 6.39453C82.9409 6.39365 83.4878 6.90991 83.4725 7.55811C83.4576 8.18564 82.9096 8.67292 82.2261 8.66653L82.226 8.66644Z" fill="#72E4FC"/>
<path d="M68.9279 18.1221C69.7987 18.1373 70.67 18.1278 71.7598 18.1278C72.6163 18.0761 73.6971 18.2206 74.7685 18.0491C75.4578 17.9388 75.8898 17.5496 75.9924 16.8988C76.1807 15.7044 76.0111 14.5658 75.2514 13.5917C73.9875 11.9712 72.299 11.3945 70.3101 11.7862C68.2992 12.1821 66.7803 13.7842 66.5708 15.7977C66.4447 17.0097 66.4596 18.2436 66.5957 19.4648C66.7267 20.6398 67.287 21.5726 68.2176 22.2906C69.5711 23.3352 71.1292 23.5591 72.7735 23.4084C73.7282 23.3209 74.6178 23.0334 75.3772 22.4257C75.8451 22.0514 75.9093 21.6384 75.5976 21.1943C75.3021 20.7731 74.9756 20.716 74.4472 21.0112C73.8541 21.3426 73.2529 21.643 72.5655 21.7292C70.7731 21.9542 68.381 21.1458 68.5505 18.4718C68.5698 18.1676 68.658 18.1173 68.9278 18.1221H68.9279ZM70.4858 13.4074C72.1684 12.8367 73.9076 13.9692 74.1313 15.726C74.2214 16.4331 74.0359 16.7049 73.3332 16.7389C72.5531 16.7767 71.7698 16.7476 70.9879 16.7476V16.7757C70.2794 16.7757 69.5709 16.7767 68.8624 16.7749C68.7224 16.7745 68.5734 16.819 68.5574 16.5776C68.4642 15.1741 68.8068 13.9769 70.4858 13.4073V13.4074Z" fill="#72E4FC"/>
</g>
<defs>
<clipPath id="clip0_285_583">
<rect width="92.8439" height="32.7178" fill="white"/>
</clipPath>
</defs>
</svg>
