<svg width="1210" height="332" viewBox="0 0 1210 332" fill="none" xmlns="http://www.w3.org/2000/svg">
<g clip-path="url(#clip0_11_2)">
<path d="M505.108 143.829H455.195V328.78H505.108V143.829Z" fill="black"/>
<path d="M443.028 270.786V327.539C429.482 331.962 415.08 333.121 400.999 330.92C386.919 328.719 373.56 323.222 362.019 314.878C350.477 306.534 341.079 295.58 334.596 282.914C328.112 270.248 324.727 256.229 324.717 242.006V143.829H374.629V242.006C374.655 249.902 377.006 257.616 381.392 264.188C385.777 270.759 392.003 275.899 399.293 278.967C406.583 282.034 414.617 282.894 422.393 281.439C430.17 279.985 437.346 276.28 443.028 270.786Z" fill="black"/>
<path d="M1016.97 140.441V190.251C993.179 190.277 970.368 199.722 953.544 216.511C936.72 233.301 927.256 256.064 927.23 279.808V328.746H877.317V143.829H927.23V173.111C952.342 151.992 984.131 140.419 1016.97 140.441Z" fill="black"/>
<path d="M667.282 140.441V190.251C643.492 190.278 620.685 199.723 603.866 216.513C587.047 233.304 577.591 256.068 577.573 279.808V328.746H527.594V143.829H577.506V173.111C602.624 151.979 634.429 140.405 667.282 140.441Z" fill="black"/>
<path d="M1114.04 140.474C1088.59 140.474 1064.18 150.564 1046.19 168.523C1028.19 186.482 1018.08 210.839 1018.08 236.237C1018.08 261.635 1028.19 285.993 1046.19 303.952C1064.18 321.911 1088.59 332 1114.04 332C1125.6 332.013 1137.07 329.922 1147.89 325.828V267.364C1140.61 275.229 1130.81 280.312 1120.18 281.733C1109.55 283.154 1098.76 280.824 1089.67 275.147C1080.57 269.47 1073.76 260.801 1070.39 250.639C1067.02 240.477 1067.32 229.46 1071.22 219.492C1075.13 209.525 1082.4 201.232 1091.79 196.047C1101.17 190.863 1112.07 189.112 1122.61 191.098C1133.15 193.084 1142.66 198.682 1149.51 206.924C1156.35 215.165 1160.09 225.534 1160.09 236.237V328.746H1209.9V236.237C1209.86 210.868 1199.76 186.546 1181.79 168.597C1163.82 150.649 1139.46 140.536 1114.04 140.474Z" fill="black"/>
<path d="M764.35 332C745.373 331.993 726.823 326.371 711.047 315.845C695.271 305.318 682.977 290.36 675.719 272.861C668.461 255.362 666.566 236.108 670.272 217.534C673.978 198.96 683.12 181.9 696.542 168.511C709.964 155.122 727.062 146.004 745.675 142.312C764.289 138.62 783.581 140.518 801.114 147.767C818.646 155.016 833.631 167.29 844.174 183.038C854.716 198.785 860.344 217.299 860.344 236.237C860.308 261.63 850.182 285.972 832.186 303.924C814.191 321.877 789.795 331.973 764.35 332ZM764.35 190.284C755.243 190.284 746.34 192.98 738.768 198.029C731.195 203.078 725.293 210.255 721.808 218.652C718.323 227.049 717.411 236.288 719.188 245.202C720.965 254.116 725.35 262.304 731.79 268.731C738.23 275.157 746.435 279.534 755.367 281.307C764.299 283.08 773.558 282.17 781.972 278.692C790.386 275.214 797.577 269.324 802.637 261.767C807.697 254.21 810.397 245.326 810.397 236.237C810.389 224.052 805.534 212.369 796.901 203.754C788.267 195.138 776.56 190.293 764.35 190.284Z" fill="black"/>
<path d="M159.552 205.848L63.3233 328.713H0L96.195 205.848H159.552Z" fill="black"/>
<path d="M240.084 22.1042V103.008L211.313 139.904C195.616 134.589 179.153 131.87 162.577 131.854H154.275L240.084 22.1042Z" fill="black"/>
<path d="M302.198 0V328.713H252.285V283.23C252.267 260.587 243.662 238.79 228.199 222.219C212.735 205.649 191.56 195.534 168.929 193.907C166.812 193.907 164.694 193.672 162.577 193.672H62.6511V143.862H162.577C195.407 143.84 227.186 155.413 252.285 176.532V0H302.198Z" fill="black"/>
</g>
<defs>
<clipPath id="clip0_11_2">
<rect width="1210" height="332" fill="white"/>
</clipPath>
</defs>
</svg>
