<svg width="600" height="300" viewBox="0 0 600 300" fill="none" xmlns="http://www.w3.org/2000/svg">
<path fill-rule="evenodd" clip-rule="evenodd" d="M204.143 89.8604C204.419 90.1485 204.694 90.4387 204.967 90.731L201.447 94.3651C201.419 94.3477 201.392 94.3304 201.365 94.3131C192.663 88.7814 182.541 85.4015 171.694 84.8915C170.741 84.8466 169.782 84.824 168.818 84.824C134.488 84.824 106.658 113.557 106.658 149C106.658 184.443 134.488 213.176 168.818 213.176C169.782 213.176 170.741 213.153 171.694 213.109C183.441 212.556 194.338 208.638 203.502 202.265C203.564 202.222 203.626 202.179 203.689 202.135L206.75 205.295C206.563 205.509 206.375 205.722 206.186 205.933C204.501 207.819 202.734 209.625 200.89 211.345C199.393 212.742 197.845 214.082 196.249 215.362C189.808 220.531 182.594 224.722 174.816 227.72C165.96 231.134 156.372 233 146.362 233C101.427 233 65 195.392 65 149C65 102.608 101.427 65 146.362 65C156.372 65 165.96 66.8662 174.816 70.2799C181.756 72.9546 188.246 76.5793 194.14 81.0007C197.195 83.2922 200.089 85.7978 202.802 88.496C203.254 88.9455 203.701 89.4003 204.143 89.8604ZM127.45 82.5762C99.6323 91.0047 79.3198 117.553 79.3198 149C79.3198 180.447 99.6323 206.995 127.45 215.424C106.326 201.372 92.3378 176.873 92.3378 149C92.3378 121.127 106.326 96.6279 127.45 82.5762Z" fill="black"/>
<path d="M309.662 133.701H293.578C293.12 131.063 292.274 128.727 291.041 126.691C289.808 124.627 288.275 122.878 286.44 121.445C284.605 120.011 282.512 118.936 280.161 118.219C277.839 117.474 275.33 117.101 272.635 117.101C267.847 117.101 263.604 118.305 259.906 120.714C256.207 123.093 253.312 126.591 251.219 131.207C249.126 135.794 248.079 141.399 248.079 148.022C248.079 154.759 249.126 160.436 251.219 165.051C253.34 169.639 256.236 173.108 259.906 175.459C263.604 177.781 267.833 178.942 272.592 178.942C275.23 178.942 277.695 178.598 279.989 177.91C282.311 177.193 284.39 176.147 286.225 174.771C288.088 173.394 289.651 171.703 290.912 169.696C292.202 167.689 293.091 165.395 293.578 162.815L309.662 162.901C309.06 167.087 307.756 171.015 305.749 174.684C303.771 178.354 301.176 181.594 297.965 184.404C294.754 187.185 290.998 189.363 286.698 190.94C282.397 192.488 277.624 193.263 272.377 193.263C264.636 193.263 257.727 191.471 251.649 187.887C245.571 184.303 240.783 179.128 237.285 172.362C233.787 165.596 232.039 157.483 232.039 148.022C232.039 138.532 233.802 130.418 237.328 123.681C240.855 116.915 245.657 111.74 251.735 108.156C257.813 104.572 264.694 102.781 272.377 102.781C277.28 102.781 281.838 103.469 286.053 104.845C290.267 106.221 294.023 108.242 297.32 110.908C300.617 113.546 303.326 116.786 305.448 120.628C307.598 124.441 309.003 128.798 309.662 133.701Z" fill="black"/>
<path d="M337.749 193.392C333.563 193.392 329.793 192.646 326.439 191.155C323.113 189.636 320.475 187.4 318.526 184.447C316.605 181.494 315.645 177.853 315.645 173.523C315.645 169.796 316.333 166.714 317.709 164.277C319.085 161.84 320.963 159.891 323.342 158.429C325.722 156.967 328.403 155.863 331.384 155.117C334.395 154.343 337.505 153.784 340.716 153.44C344.587 153.039 347.726 152.68 350.134 152.365C352.543 152.021 354.292 151.505 355.381 150.817C356.499 150.1 357.058 148.996 357.058 147.505V147.247C357.058 144.008 356.098 141.499 354.177 139.722C352.256 137.944 349.489 137.055 345.877 137.055C342.064 137.055 339.039 137.887 336.803 139.55C334.595 141.212 333.105 143.176 332.33 145.441L317.795 143.377C318.942 139.363 320.834 136.009 323.471 133.314C326.109 130.59 329.334 128.555 333.148 127.207C336.961 125.831 341.175 125.143 345.791 125.143C348.973 125.143 352.141 125.516 355.295 126.261C358.449 127.007 361.33 128.239 363.939 129.96C366.548 131.651 368.641 133.959 370.218 136.883C371.823 139.808 372.626 143.463 372.626 147.85V192.058H357.66V182.984H357.144C356.198 184.819 354.865 186.539 353.145 188.145C351.453 189.722 349.317 190.998 346.737 191.972C344.185 192.919 341.189 193.392 337.749 193.392ZM341.792 181.952C344.917 181.952 347.626 181.336 349.919 180.103C352.213 178.842 353.976 177.179 355.209 175.115C356.47 173.05 357.101 170.8 357.101 168.363V160.579C356.614 160.98 355.782 161.353 354.607 161.697C353.46 162.041 352.17 162.342 350.737 162.6C349.303 162.858 347.884 163.088 346.479 163.288C345.074 163.489 343.856 163.661 342.824 163.804C340.501 164.12 338.423 164.636 336.588 165.352C334.753 166.069 333.305 167.073 332.244 168.363C331.184 169.624 330.653 171.258 330.653 173.265C330.653 176.132 331.7 178.297 333.793 179.759C335.886 181.221 338.552 181.952 341.792 181.952Z" fill="black"/>
<path d="M384.124 192.058V103.985H399.691V136.926H400.337C401.139 135.321 402.272 133.615 403.734 131.809C405.196 129.974 407.174 128.411 409.669 127.121C412.163 125.802 415.345 125.143 419.216 125.143C424.319 125.143 428.92 126.447 433.02 129.056C437.149 131.637 440.417 135.464 442.825 140.539C445.262 145.585 446.481 151.777 446.481 159.117C446.481 166.37 445.291 172.534 442.911 177.609C440.532 182.683 437.292 186.554 433.192 189.22C429.092 191.886 424.448 193.22 419.259 193.22C415.474 193.22 412.335 192.589 409.841 191.327C407.346 190.066 405.339 188.546 403.82 186.769C402.329 184.963 401.168 183.257 400.337 181.651H399.433V192.058H384.124ZM399.39 159.031C399.39 163.303 399.992 167.044 401.197 170.255C402.429 173.466 404.193 175.975 406.486 177.781C408.808 179.558 411.618 180.447 414.915 180.447C418.355 180.447 421.237 179.53 423.559 177.695C425.881 175.831 427.63 173.294 428.806 170.083C430.01 166.843 430.612 163.159 430.612 159.031C430.612 154.931 430.024 151.29 428.849 148.108C427.673 144.925 425.924 142.431 423.602 140.625C421.28 138.819 418.384 137.915 414.915 137.915C411.589 137.915 408.765 138.79 406.443 140.539C404.121 142.288 402.358 144.739 401.154 147.893C399.978 151.046 399.39 154.759 399.39 159.031Z" fill="black"/>
<path d="M473.879 193.392C469.694 193.392 465.923 192.646 462.569 191.155C459.243 189.636 456.606 187.4 454.656 184.447C452.735 181.494 451.775 177.853 451.775 173.523C451.775 169.796 452.463 166.714 453.839 164.277C455.215 161.84 457.093 159.891 459.473 158.429C461.852 156.967 464.533 155.863 467.515 155.117C470.525 154.343 473.636 153.784 476.847 153.44C480.717 153.039 483.857 152.68 486.265 152.365C488.673 152.021 490.422 151.505 491.511 150.817C492.629 150.1 493.189 148.996 493.189 147.505V147.247C493.189 144.008 492.228 141.499 490.307 139.722C488.386 137.944 485.62 137.055 482.007 137.055C478.194 137.055 475.17 137.887 472.933 139.55C470.726 141.212 469.235 143.176 468.461 145.441L453.925 143.377C455.072 139.363 456.964 136.009 459.602 133.314C462.239 130.59 465.465 128.555 469.278 127.207C473.091 125.831 477.305 125.143 481.921 125.143C485.104 125.143 488.272 125.516 491.425 126.261C494.579 127.007 497.46 128.239 500.069 129.96C502.678 131.651 504.771 133.959 506.348 136.883C507.953 139.808 508.756 143.463 508.756 147.85V192.058H493.791V182.984H493.275C492.328 184.819 490.995 186.539 489.275 188.145C487.584 189.722 485.448 190.998 482.867 191.972C480.316 192.919 477.32 193.392 473.879 193.392ZM477.922 181.952C481.047 181.952 483.756 181.336 486.05 180.103C488.343 178.842 490.107 177.179 491.339 175.115C492.601 173.05 493.232 170.8 493.232 168.363V160.579C492.744 160.98 491.913 161.353 490.737 161.697C489.59 162.041 488.3 162.342 486.867 162.6C485.433 162.858 484.014 163.088 482.609 163.288C481.205 163.489 479.986 163.661 478.954 163.804C476.632 164.12 474.553 164.636 472.718 165.352C470.883 166.069 469.436 167.073 468.375 168.363C467.314 169.624 466.784 171.258 466.784 173.265C466.784 176.132 467.83 178.297 469.923 179.759C472.016 181.221 474.682 181.952 477.922 181.952Z" fill="black"/>
<path d="M535.134 103.985V192.058H519.566V103.985H535.134Z" fill="black"/>
</svg>
