<svg width="135" height="23" viewBox="0 0 135 23" fill="none" xmlns="http://www.w3.org/2000/svg">
<g clip-path="url(#clip0_3_3)">
<path d="M133.585 6.29215C133.005 6.29308 132.484 6.33687 132.141 6.91292C131.777 7.52209 131.237 7.4677 130.679 7.19699C130.464 7.09259 130.256 6.97284 130.048 6.85477C126.912 5.07317 123.482 5.9248 121.208 8.0335C118.629 10.4237 117.932 14.0024 119.263 17.1149C121.078 21.3602 126.784 23.3747 130.465 20.5916C131.469 19.8325 131.705 19.9417 132.24 21.0308C132.5 21.5599 132.897 21.6563 133.401 21.6759C133.948 21.6972 134.531 21.5708 135 21.9927V6.21748C134.54 6.44261 134.057 6.2914 133.585 6.29217L133.585 6.29215ZM131.958 14.0608C131.879 17.0953 129.498 19.3319 126.444 19.2404C123.417 19.1496 121.149 16.7478 121.243 13.7308C121.337 10.7152 123.74 8.46071 126.772 8.54373C129.796 8.62653 132.038 11.0111 131.958 14.0608H131.958Z" fill="black"/>
<path d="M132.457 5.96681C132.159 5.94696 132.06 6.20599 132.033 6.44833C131.919 7.47782 131.448 7.36634 130.749 6.92099C126.691 4.33249 121.465 5.75174 119.235 10.0278C116.989 14.3332 118.885 19.7255 123.302 21.5282C125.961 22.6133 128.507 22.4934 130.835 20.6542C131.47 20.1526 131.982 20.1034 131.985 21.0762C131.988 21.9186 132.387 22.0693 133.095 22.0183C133.728 21.9728 134.365 21.9985 135 21.9927C134.531 21.5708 133.948 21.6971 133.401 21.6759C132.897 21.6563 132.5 21.5599 132.24 21.0307C131.705 19.9417 131.469 19.8325 130.465 20.5916C126.784 23.3747 121.078 21.3602 119.263 17.1148C117.932 14.0024 118.629 10.4236 121.207 8.03348C123.482 5.92477 126.912 5.07317 130.048 6.85475C130.256 6.97282 130.464 7.09256 130.679 7.19696C131.236 7.46767 131.777 7.52206 132.14 6.9129C132.484 6.33684 133.005 6.29306 133.585 6.29212C134.056 6.29136 134.54 6.44256 135 6.21743C134.2 5.66431 133.307 6.02352 132.457 5.96681H132.457Z" fill="black"/>
<path d="M113.837 0.0650715C113.025 0.0578418 112.339 0.00857443 112.409 1.20394C112.502 2.79187 112.434 4.38938 112.431 5.98277C112.43 6.3377 112.479 6.73825 112.087 6.9296C111.707 7.11489 111.416 6.87787 111.121 6.65171C109.945 5.749 108.593 5.32089 107.124 5.28249C103.492 5.18757 100.305 7.40133 99.0484 10.8692C97.8012 14.3112 98.9478 18.2525 101.86 20.5217C104.196 22.3428 108.196 23.1195 111.261 20.608C111.915 20.0725 112.388 20.1899 112.423 21.0974C112.49 22.8175 113.769 21.7965 114.472 21.9787C115.383 22.2151 115.341 21.4772 115.34 20.8561C115.333 17.6294 115.337 14.4028 115.337 11.1762C115.337 7.86985 115.283 4.56225 115.364 1.25788C115.395 -0.02214 114.675 0.0725885 113.837 0.0651194V0.0650715ZM106.81 19.1951C103.886 19.1564 101.481 16.6713 101.514 13.7238C101.548 10.68 103.98 8.27742 106.99 8.31421C110.026 8.35132 112.364 10.775 112.326 13.8451C112.289 16.8907 109.871 19.2357 106.81 19.1951Z" fill="black"/>
<path d="M37.6109 10.1634C36.4143 9.83983 35.1906 9.69742 33.9626 9.55771C32.708 9.41495 31.4576 9.14068 30.9447 7.79167C30.0236 5.36877 31.4168 3.23543 33.9946 3.06776C34.6275 3.02661 35.2767 3.02962 35.9022 3.12212C37.2617 3.32324 38.4079 4.03944 38.7261 5.36619C39.0604 6.75959 39.8187 6.95644 41.0242 6.88773C41.8934 6.8382 42.1228 6.58543 41.9389 5.72372C41.1804 2.16897 38.4993 0.00936904 34.7495 0.00314477C34.6697 0.00326447 34.5899 0.00245052 34.5102 0.00338416C30.6839 0.0483904 28.1084 2.25801 27.8152 5.74704C27.4931 9.5787 29.3402 11.8246 33.4107 12.5193C34.7026 12.7397 36.0352 12.7171 37.2901 13.1608C39.2902 13.8679 39.9538 16.1833 38.544 17.7846C37.182 19.3317 35.341 19.413 33.4707 19.1278C31.8358 18.8784 30.7359 17.938 30.2198 16.3434C29.9786 15.5981 28.5153 15.124 27.5373 15.5407C26.6554 15.9165 27.2797 16.6157 27.407 17.0715C28.691 21.6706 34.3268 23.7287 38.8321 21.2855C41.2221 19.9895 42.4975 17.528 42.1277 14.7981C41.7704 12.1597 40.0341 10.8187 37.6109 10.1634L37.6109 10.1634Z" fill="black"/>
<path d="M60.7151 12.1201C59.7199 7.57016 55.3329 4.79473 50.647 5.7508C46.3489 6.62775 43.4519 11.1313 44.3453 15.5468C44.9772 18.6698 47.6349 21.3828 50.6813 21.994C54.2518 22.7103 57.0915 21.5079 59.2956 18.6788C59.5078 18.4064 59.8658 18.0346 59.505 17.7473C58.9193 17.2809 58.2667 16.8348 57.5684 16.594C57.0438 16.4131 56.8401 17.1055 56.5323 17.4369C55.0293 19.0548 53.1574 19.5731 51.0915 19.0216C49.127 18.497 47.8624 17.1302 47.2448 15.0442H58.4708C61.0068 15.0442 61.243 14.7526 60.7449 12.2357C60.7372 12.1967 60.7235 12.1589 60.715 12.1201H60.7151ZM56.7283 12.4834C55.3008 12.4369 53.8706 12.4716 52.4415 12.4716C51.0919 12.4716 49.7405 12.4298 48.3932 12.4849C47.3246 12.5286 47.2864 12.0776 47.6187 11.2596C48.5492 8.96949 51.6317 7.69081 54.2545 8.53705C55.7203 9.01002 56.8284 9.89664 57.4651 11.3246C57.8031 12.0826 57.7195 12.5157 56.7283 12.4834H56.7283Z" fill="black"/>
<path d="M88.1582 5.43098C83.5841 5.39971 79.7709 9.16049 79.7354 13.7381C79.6997 18.3338 83.5501 22.2173 88.1396 22.2144C92.7242 22.2114 96.513 18.4497 96.539 13.8751C96.5657 9.18043 92.8763 5.46325 88.1582 5.431L88.1582 5.43098ZM88.1551 19.3113C85.2859 19.3691 82.6324 16.709 82.664 13.8066C82.6962 10.8508 85.1384 8.38542 88.0507 8.36871C91.0968 8.35126 93.5449 10.7404 93.581 13.7659C93.6165 16.735 91.1548 19.2509 88.1551 19.3113V19.3113Z" fill="black"/>
<path d="M77.2779 18.4053C76.2565 17.7361 75.4791 17.4461 74.2657 18.3521C72.1063 19.9645 69.1517 19.3865 67.3941 17.3323C65.6477 15.2912 65.6701 12.3378 67.4472 10.3496C69.2317 8.35318 72.2669 7.84535 74.3558 9.43646C75.3937 10.2271 76.0596 10.074 77.047 9.50141C78.0782 8.90343 77.8846 8.47704 77.1642 7.83999C74.537 5.51688 71.5833 4.88672 68.3128 6.2026C65.1625 7.47012 63.2087 10.4703 63.2055 13.9633C63.134 14.5832 63.2698 15.2918 63.4619 15.9789C64.3102 19.0121 66.2576 21.0616 69.277 21.898C72.3552 22.7508 75.0859 21.9487 77.3766 19.6841C77.9013 19.1654 77.9524 18.8472 77.2779 18.4053H77.2779Z" fill="black"/>
<path d="M18.0074 9.03717C17.6317 8.5268 17.536 8.20937 18.0293 7.64921C18.7467 6.83459 18.7611 5.81573 18.1675 4.87934C17.5657 3.93011 16.6418 3.61571 15.5717 3.84257C13.8743 4.20242 13.229 6.17602 14.3244 7.74549C15.9418 10.0627 17.62 12.3375 19.2579 14.6406C20.1249 15.8597 20.1572 17.2594 19.3865 18.431C18.5989 19.6282 17.1804 20.1934 15.7273 19.833C15.2723 19.7202 14.8574 19.4549 14.4133 19.2883C13.7529 19.0405 13.2227 19.2623 12.8897 19.852C12.5592 20.4372 12.9386 20.8281 13.3733 21.1549C14.3283 21.8729 15.4125 22.2113 16.7357 22.2251C18.7464 22.0885 20.4308 21.1757 21.4588 19.2603C22.5052 17.3107 22.4578 15.3654 21.1862 13.5159C20.1491 12.0075 19.0928 10.5112 18.0075 9.03719L18.0074 9.03717Z" fill="black"/>
<path d="M4.22437 13.1105C4.62215 13.6446 4.85922 14.0312 4.22233 14.5869C3.76535 14.9856 3.64494 15.6232 3.73105 16.241C3.88273 17.3295 4.47707 18.1084 5.55049 18.3676C6.56024 18.6114 7.46292 18.2969 8.06946 17.4168C8.69641 16.507 8.71676 15.5338 8.07805 14.6278C6.40387 12.2529 4.68642 9.90852 3.00755 7.5369C2.07158 6.21475 2.14486 4.62766 3.14338 3.46482C4.18513 2.25159 5.6429 1.9292 7.13507 2.57918C7.42567 2.70575 7.7123 2.85137 8.01521 2.93765C8.57171 3.09615 9.05002 2.94387 9.35053 2.43487C9.68094 1.87522 9.42548 1.44328 8.97004 1.09594C8.02184 0.37287 6.95428 -0.00994661 5.2619 0.00032343C3.53848 0.0670428 1.84988 1.05091 0.789553 2.98582C-0.282649 4.94244 -0.14459 6.89676 1.10419 8.73668C2.10974 10.2182 3.15477 11.6744 4.22437 13.1105V13.1105Z" fill="black"/>
<path d="M19.2112 0.677617C17.2382 -0.355515 15.3046 -0.159786 13.4954 1.16476C12.084 2.19809 10.6519 3.20369 9.25288 4.25331C8.7564 4.62579 8.42738 4.74431 7.87665 4.24158C7.05576 3.49228 6.04004 3.52302 5.11351 4.11075C4.21482 4.68083 3.91924 5.56644 4.08552 6.59622C4.36832 8.34756 6.33729 9.12811 7.87349 8.04416C10.1794 6.41704 12.4358 4.71987 14.7214 3.06374C16.0606 2.0933 17.5381 2.06833 18.6807 2.96788C19.9665 3.98019 20.3919 5.50664 19.8063 7.01641C19.6634 7.38467 19.4607 7.73842 19.3773 8.11892C19.2578 8.66402 19.4036 9.1544 19.9499 9.42767C20.5508 9.72827 20.93 9.38632 21.2497 8.93691C21.9377 7.97004 22.2913 6.8936 22.2895 5.43413C22.1947 3.4573 21.2068 1.7225 19.2112 0.677593V0.677617Z" fill="black"/>
<path d="M14.3496 17.9301C15.2171 18.7013 16.4818 18.6502 17.3203 17.9843C18.3552 17.1624 18.5639 15.738 17.805 14.6757C16.9941 13.5407 15.6419 13.2818 14.439 14.135C12.1327 15.7709 9.86747 17.4646 7.58051 19.1278C6.20044 20.1316 4.71766 20.1372 3.52389 19.1596C2.24468 18.112 1.87817 16.6017 2.52908 15.0842C2.66901 14.7579 2.83764 14.4335 2.90922 14.0908C3.02446 13.539 2.86948 13.045 2.33189 12.7755C1.73743 12.4774 1.33376 12.8248 1.02398 13.2738C0.378073 14.2102 -0.0341174 15.232 0.00222271 16.4032C0.0559429 18.6963 1.02712 20.4717 3.09046 21.5346C5.08072 22.5599 7.00948 22.3398 8.81763 21.0181C10.2323 19.9841 11.669 18.9795 13.0675 17.9243C13.5394 17.5683 13.8262 17.4649 14.3496 17.9301L14.3496 17.9301Z" fill="black"/>
</g>
<defs>
<clipPath id="clip0_3_3">
<rect width="135" height="22.3231" fill="white"/>
</clipPath>
</defs>
</svg>
