<svg width="17" height="17" viewBox="0 0 17 17" fill="none" xmlns="http://www.w3.org/2000/svg">
<path d="M3.23619 13.0844H14.7562C15.5222 13.0844 16 12.6626 16 12.0409C16 11.2787 15.325 10.6423 14.6652 10.0429C14.1495 9.56931 14.0358 8.5555 13.922 7.56389C13.7855 5.06265 12.9967 3.27183 11.1614 2.62802C10.8581 1.70301 10.0542 1 9 1C7.93824 1 7.14193 1.70301 6.83099 2.62802C5.00325 3.27183 4.20693 5.06265 4.07042 7.56389C3.96425 8.5555 3.85049 9.56931 3.32719 10.0429C2.67497 10.6423 2 11.2787 2 12.0409C2 12.6626 2.47779 13.0844 3.23619 13.0844ZM9 16C10.2969 16 11.2373 15.112 11.3283 14.0686H6.66414C6.75515 15.112 7.70314 16 9 16Z" fill="#C93305"/>
</svg>
