<svg width="14" height="15" viewBox="0 0 14 15" fill="none" xmlns="http://www.w3.org/2000/svg">
<path d="M1.24611 12.3887H4.13619C4.18123 13.7244 5.31475 15 7.00375 15C8.67775 15 9.81126 13.7469 9.86381 12.3887H12.7539C13.5271 12.3887 14 11.9535 14 11.3082C14 10.5203 13.3244 9.86743 12.6713 9.25963C12.1458 8.76438 12.0332 7.7964 11.9206 6.71586C11.8005 4.10455 10.9898 2.31116 9.15067 1.65833C8.86542 0.697849 8.0622 0 7.00375 0C5.9378 0 5.13458 0.697849 4.84933 1.65833C3.01769 2.31116 2.20697 4.10455 2.07936 6.71586C1.96676 7.7964 1.85416 8.76438 1.32869 9.25963C0.675603 9.86743 0 10.5203 0 11.3082C0 11.9535 0.480429 12.3887 1.24611 12.3887ZM1.88418 10.9555V10.8729C2.09437 10.6703 2.49973 10.3102 2.83753 9.91246C3.31796 9.35718 3.53566 8.26913 3.61823 6.93347C3.71582 4.2021 4.57158 3.25663 5.67507 2.95648C5.84772 2.91896 5.94531 2.83642 5.96783 2.63382C6.00536 1.92096 6.39571 1.45573 7.00375 1.45573C7.60429 1.45573 7.99464 1.92096 8.03968 2.63382C8.05469 2.83642 8.15228 2.91896 8.32493 2.95648C9.42842 3.25663 10.2842 4.2021 10.3818 6.93347C10.4643 8.26913 10.6895 9.35718 11.1625 9.91246C11.5003 10.3102 11.8831 10.6703 12.0933 10.8729V10.9555H1.88418ZM7.00375 13.7844C6.22306 13.7844 5.66005 13.2366 5.60751 12.3887H8.39249C8.35496 13.2216 7.78445 13.7844 7.00375 13.7844Z" fill="#643DDC"/>
</svg>
