<?xml version="1.0" encoding="utf-8"?>
<!-- Generator: Adobe Illustrator 23.0.0, SVG Export Plug-In . SVG Version: 6.00 Build 0)  -->
<svg version="1.1" id="Layer_1" xmlns="http://www.w3.org/2000/svg" xmlns:xlink="http://www.w3.org/1999/xlink" x="0px" y="0px"
	 viewBox="0 0 64 64" style="enable-background:new 0 0 64 64;" xml:space="preserve">
<g>
	<path d="M32,0C14.4,0,0,14.4,0,32s14.4,32,32,32s32-14.4,32-32S49.6,0,32,0z M32,58.7c-14.7,0-26.7-12-26.7-26.7S17.3,5.3,32,5.3
		s26.7,12,26.7,26.7S46.7,58.7,32,58.7z"/>
	<path d="M40.8,22.1l-12.3,12l-5.6-5.3c-1.1-1.1-2.7-1.1-3.7,0s-1.1,2.7,0,3.7l6.7,6.4c0.8,0.8,1.6,1.1,2.4,1.1
		c0.8,0,1.9-0.3,2.4-1.1l13.6-13.1c1.1-1.1,1.1-2.7,0-3.7C43.5,21.1,41.9,21.1,40.8,22.1z"/>
</g>
</svg>
