<svg width="64" height="64" viewBox="0 0 64 64" fill="current" xmlns="http://www.w3.org/2000/svg">
<path d="M35.4002 32.0002L55.3002 12.1002C56.3002 11.1002 56.3002 9.7002 55.3002 8.7002C54.3002 7.7002 52.9002 7.7002 51.9002 8.7002L32.0002 28.6002L12.0002 8.8002C11.1002 7.8002 9.6002 7.8002 8.7002 8.8002C7.8002 9.8002 7.7002 11.2002 8.7002 12.2002L28.6002 32.0002L8.7002 51.9002C7.7002 52.9002 7.7002 54.3002 8.7002 55.3002C9.2002 55.7002 9.7002 56.0002 10.4002 56.0002C11.1002 56.0002 11.6002 55.8002 12.1002 55.3002L32.1002 35.4002L52.1002 55.2002C52.6002 55.6002 53.3002 55.9002 53.8002 55.9002C54.3002 55.9002 55.0002 55.7002 55.5002 55.2002C56.5002 54.2002 56.5002 52.8002 55.5002 51.8002L35.4002 32.0002Z" fill="current"/>
</svg>
