<?xml version="1.0" encoding="utf-8"?>
<!-- Generator: Adobe Illustrator 23.0.0, SVG Export Plug-In . SVG Version: 6.00 Build 0)  -->
<svg xmlns="http://www.w3.org/2000/svg"  width="20" height="20"
	 viewBox="0 0 64 64" fill="current">
<path d="M61.3,16.9v-4.8c0-2.1-0.8-4-2.4-5.3s-3.7-1.9-5.6-1.3l-48,10.7l0,0l0,0c-2.9,0-5.3,2.4-5.3,5.3v32c0,2.9,2.4,5.3,5.3,5.3
	h53.3c2.9,0,5.3-2.4,5.3-5.3v-32C64,19.6,62.9,17.7,61.3,16.9z M54.4,10.8c0.5,0,1.1,0,1.1,0.3c0.3,0.3,0.5,0.5,0.5,1.1v4H30.4
	L54.4,10.8z M58.7,21.4v5.3H5.3v-5.3H58.7z M58.7,32.1v2.7H5.3v-2.7H58.7z M5.3,53.4V40.1h53.3v13.3H5.3z" fill="current"/>
</svg>
