<?xml version="1.0" encoding="utf-8"?>
<!-- Generator: Adobe Illustrator 23.0.0, SVG Export Plug-In . SVG Version: 6.00 Build 0)  -->
<svg version="1.1" id="Layer_1" xmlns="http://www.w3.org/2000/svg" xmlns:xlink="http://www.w3.org/1999/xlink" x="0px" y="0px"
	 viewBox="0 0 64 64" style="enable-background:new 0 0 64 64;" xml:space="preserve">
<path d="M32,0C14.4,0,0,14.4,0,32s14.4,32,32,32s32-14.4,32-32S49.6,0,32,0z M32,58.7c-14.7,0-26.7-12-26.7-26.7S17.3,5.3,32,5.3
	s26.7,12,26.7,26.7S46.7,58.7,32,58.7z"/>
<path d="M41.9,22.1c-1.1-1.1-2.7-1.1-3.7,0L32,28.3l-6.1-6.1c-1.1-1.1-2.7-1.1-3.7,0c-1.1,1.1-1.1,2.7,0,3.7l6.1,6.1l-6.1,6.1
	c-1.1,1.1-1.1,2.7,0,3.7c0.5,0.5,1.3,0.8,1.9,0.8s1.3-0.3,1.9-0.8l6.1-6.1l6.1,6.1c0.5,0.5,1.3,0.8,1.9,0.8s1.3-0.3,1.9-0.8
	c1.1-1.1,1.1-2.7,0-3.7L35.7,32l6.1-6.1C42.9,24.8,42.9,23.2,41.9,22.1z"/>
</svg>
