<svg width="16" height="16" viewBox="0 0 16 16" version="1.1" id="Layer_1" xmlns="http://www.w3.org/2000/svg" xmlns:xlink="http://www.w3.org/1999/xlink" x="0px" y="0px"
	 viewBox="0 0 64 64" style="enable-background:new 0 0 64 64;" xml:space="preserve">
<path d="M58.8,39.6h-9.1c0-2.9-0.5-5.6-1.1-8l7.5-7.8c1.1-1.1,1.1-2.7,0-3.7c-1.1-1.1-2.7-1.1-3.7,0l-5.9,6.2
	c-1.3-2.4-2.9-4.6-4.8-6.2c0.8-0.5,1.6-0.8,2.1-1.6c1.3-1.6,2.1-3.5,1.9-5.6C44.9,5.6,39.2,0,32,0c-7,0-12.9,5.4-13.7,12.6
	c-0.3,2.1,0.5,4.3,1.9,5.6c0.5,0.8,1.3,1.3,2.1,1.6c-1.9,1.6-3.5,3.5-4.8,5.9l-5.6-5.9c-1.1-1.1-2.7-1.1-3.7,0
	c-1.1,1.1-1.1,2.7,0,3.7l7.2,7.5c-0.8,2.7-1.3,5.4-1.3,8.3H5.2c-1.6,0-2.7,1.1-2.7,2.7s1.1,2.7,2.7,2.7h9.1c0.3,1.6,0.5,2.9,1.1,4.6
	l-7.5,8c-1.1,1.1-1.1,2.7,0,3.7c0.5,0.5,1.1,0.8,1.9,0.8c0.8,0,1.3-0.3,1.9-0.8l6.2-6.2C21,60.3,26.1,64,31.7,64s11-3.5,14.2-9.1
	l6.2,6.4c0.5,0.5,1.3,0.8,1.9,0.8c0.8,0,1.3-0.3,1.9-0.8c1.1-1.1,1.1-2.7,0-3.7l-7.8-8c0.5-1.3,0.8-2.7,1.1-4.3h9.6
	c1.6,0,2.7-1.1,2.7-2.7C61.5,41,60.4,39.6,58.8,39.6z M32,5.4c4.3,0,7.8,3.5,8.3,7.8c0,0.5,0,1.1-0.5,1.6s-1.1,0.8-1.3,0.8H25.6
	c-0.5,0-1.1-0.3-1.3-0.5c-0.3-0.5-0.5-1.1-0.5-1.6C24,8.8,27.7,5.4,32,5.4z M31.7,58.4c-7,0-12.6-8.3-12.6-18.2S24.8,22,31.7,22
	s12.6,8.3,12.6,18.2S38.7,58.4,31.7,58.4z" stroke="currentColor"/>
</svg>
