<svg width="22" height="16" viewBox="0 0 22 16" fill="none" xmlns="http://www.w3.org/2000/svg">
<path d="M21.2143 12.5899H0.785714C0.57733 12.5899 0.37748 12.6699 0.23013 12.8122C0.0827804 12.9546 0 13.1476 0 13.3489L0 14.867C0 15.0683 0.0827804 15.2614 0.23013 15.4037C0.37748 15.5461 0.57733 15.626 0.785714 15.626H21.2143C21.4227 15.626 21.6225 15.5461 21.7699 15.4037C21.9172 15.2614 22 15.0683 22 14.867V13.3489C22 13.1476 21.9172 12.9546 21.7699 12.8122C21.6225 12.6699 21.4227 12.5899 21.2143 12.5899ZM21.2143 6.5176H0.785714C0.57733 6.5176 0.37748 6.59757 0.23013 6.73992C0.0827804 6.88227 0 7.07533 0 7.27664L0 8.79471C0 8.99602 0.0827804 9.18908 0.23013 9.33143C0.37748 9.47378 0.57733 9.55375 0.785714 9.55375H21.2143C21.4227 9.55375 21.6225 9.47378 21.7699 9.33143C21.9172 9.18908 22 8.99602 22 8.79471V7.27664C22 7.07533 21.9172 6.88227 21.7699 6.73992C21.6225 6.59757 21.4227 6.5176 21.2143 6.5176ZM21.2143 0.445312H0.785714C0.57733 0.445313 0.37748 0.525282 0.23013 0.667629C0.0827804 0.809976 0 1.00304 0 1.20435L0 2.72242C0 2.92373 0.0827804 3.11679 0.23013 3.25914C0.37748 3.40149 0.57733 3.48146 0.785714 3.48146H21.2143C21.4227 3.48146 21.6225 3.40149 21.7699 3.25914C21.9172 3.11679 22 2.92373 22 2.72242V1.20435C22 1.00304 21.9172 0.809976 21.7699 0.667629C21.6225 0.525282 21.4227 0.445313 21.2143 0.445312Z" fill="black"/>
</svg>
