<svg width="465" height="157" viewBox="0 0 465 157" fill="none" xmlns="http://www.w3.org/2000/svg">
<path d="M0 16C0 7.16344 7.16344 0 16 0H116.25H174.375H232.5H290.625H449C457.837 0 465 7.16344 465 16V141C465 149.837 457.837 157 449 157H348.75H290.625H232.5H16C7.16344 157 0 149.837 0 141V16Z" fill="#643DDC"/>
<path d="M75.8909 62.54C78.7109 62.54 81.1109 63.05 83.0909 64.07C85.1309 65.03 86.7809 66.32 88.0409 67.94C89.3609 69.56 90.3209 71.42 90.9209 73.52C91.5209 75.62 91.8209 77.78 91.8209 80V107H81.0209V83.24C81.0209 81.98 80.9309 80.69 80.7509 79.37C80.5709 77.99 80.1809 76.76 79.5809 75.68C79.0409 74.54 78.2309 73.61 77.1509 72.89C76.1309 72.17 74.7509 71.81 73.0109 71.81C71.2709 71.81 69.7709 72.14 68.5109 72.8C67.2509 73.46 66.2009 74.36 65.3609 75.5C64.5209 76.58 63.8909 77.81 63.4709 79.19C63.0509 80.57 62.8409 81.98 62.8409 83.42V107H52.0409V38.96H62.8409V69.83H63.0209C63.4409 68.93 64.0409 68.06 64.8209 67.22C65.6609 66.32 66.6209 65.54 67.7009 64.88C68.7809 64.16 70.0109 63.59 71.3909 63.17C72.7709 62.75 74.2709 62.54 75.8909 62.54ZM104.599 63.8H115.399V107H104.599V63.8ZM103.069 49.13C103.069 47.39 103.699 45.89 104.959 44.63C106.279 43.31 107.929 42.65 109.909 42.65C111.889 42.65 113.539 43.28 114.859 44.54C116.239 45.74 116.929 47.27 116.929 49.13C116.929 50.99 116.239 52.55 114.859 53.81C113.539 55.01 111.889 55.61 109.909 55.61C107.929 55.61 106.279 54.98 104.959 53.72C103.699 52.4 103.069 50.87 103.069 49.13ZM172.421 63.8V103.13C172.421 107.03 171.941 110.54 170.981 113.66C170.021 116.84 168.521 119.51 166.481 121.67C164.501 123.89 161.981 125.6 158.921 126.8C155.861 128 152.231 128.6 148.031 128.6C146.291 128.6 144.431 128.45 142.451 128.15C140.531 127.85 138.611 127.4 136.691 126.8C134.831 126.2 133.031 125.45 131.291 124.55C129.551 123.65 127.991 122.63 126.611 121.49L132.821 113.12C134.921 115.1 137.291 116.6 139.931 117.62C142.571 118.7 145.241 119.24 147.941 119.24C150.521 119.24 152.681 118.85 154.421 118.07C156.221 117.35 157.631 116.33 158.651 115.01C159.731 113.69 160.481 112.13 160.901 110.33C161.381 108.53 161.621 106.55 161.621 104.39V101.24H161.441C159.881 103.34 157.871 104.96 155.411 106.1C153.011 107.18 150.311 107.72 147.311 107.72C144.071 107.72 141.131 107.12 138.491 105.92C135.851 104.72 133.601 103.1 131.741 101.06C129.941 99.02 128.531 96.65 127.511 93.95C126.491 91.19 125.981 88.28 125.981 85.22C125.981 82.1 126.461 79.16 127.421 76.4C128.441 73.64 129.851 71.24 131.651 69.2C133.511 67.16 135.731 65.54 138.311 64.34C140.951 63.14 143.891 62.54 147.131 62.54C150.191 62.54 153.041 63.17 155.681 64.43C158.321 65.69 160.421 67.64 161.981 70.28H162.161V63.8H172.421ZM149.381 71.36C147.401 71.36 145.631 71.72 144.071 72.44C142.571 73.16 141.281 74.15 140.201 75.41C139.181 76.61 138.371 78.05 137.771 79.73C137.231 81.41 136.961 83.21 136.961 85.13C136.961 86.87 137.231 88.55 137.771 90.17C138.371 91.79 139.181 93.26 140.201 94.58C141.281 95.84 142.571 96.86 144.071 97.64C145.631 98.42 147.371 98.81 149.291 98.81C151.271 98.81 153.041 98.45 154.601 97.73C156.221 96.95 157.571 95.93 158.651 94.67C159.791 93.41 160.661 91.97 161.261 90.35C161.861 88.67 162.161 86.93 162.161 85.13C162.161 83.27 161.861 81.5 161.261 79.82C160.661 78.14 159.791 76.67 158.651 75.41C157.571 74.15 156.251 73.16 154.691 72.44C153.131 71.72 151.361 71.36 149.381 71.36ZM209.397 62.54C212.217 62.54 214.617 63.05 216.597 64.07C218.637 65.03 220.287 66.32 221.547 67.94C222.867 69.56 223.827 71.42 224.427 73.52C225.027 75.62 225.327 77.78 225.327 80V107H214.527V83.24C214.527 81.98 214.437 80.69 214.257 79.37C214.077 77.99 213.687 76.76 213.087 75.68C212.547 74.54 211.737 73.61 210.657 72.89C209.637 72.17 208.257 71.81 206.517 71.81C204.777 71.81 203.277 72.14 202.017 72.8C200.757 73.46 199.707 74.36 198.867 75.5C198.027 76.58 197.397 77.81 196.977 79.19C196.557 80.57 196.347 81.98 196.347 83.42V107H185.547V38.96H196.347V69.83H196.527C196.947 68.93 197.547 68.06 198.327 67.22C199.167 66.32 200.127 65.54 201.207 64.88C202.287 64.16 203.517 63.59 204.897 63.17C206.277 62.75 207.777 62.54 209.397 62.54ZM238.105 38.96H248.905V107H238.105V38.96ZM262.187 63.8H272.987V107H262.187V63.8ZM260.657 49.13C260.657 47.39 261.287 45.89 262.547 44.63C263.867 43.31 265.517 42.65 267.497 42.65C269.477 42.65 271.127 43.28 272.447 44.54C273.827 45.74 274.517 47.27 274.517 49.13C274.517 50.99 273.827 52.55 272.447 53.81C271.127 55.01 269.477 55.61 267.497 55.61C265.517 55.61 263.867 54.98 262.547 53.72C261.287 52.4 260.657 50.87 260.657 49.13ZM330.009 63.8V103.13C330.009 107.03 329.529 110.54 328.569 113.66C327.609 116.84 326.109 119.51 324.069 121.67C322.089 123.89 319.569 125.6 316.509 126.8C313.449 128 309.819 128.6 305.619 128.6C303.879 128.6 302.019 128.45 300.039 128.15C298.119 127.85 296.199 127.4 294.279 126.8C292.419 126.2 290.619 125.45 288.879 124.55C287.139 123.65 285.579 122.63 284.199 121.49L290.409 113.12C292.509 115.1 294.879 116.6 297.519 117.62C300.159 118.7 302.829 119.24 305.529 119.24C308.109 119.24 310.269 118.85 312.009 118.07C313.809 117.35 315.219 116.33 316.239 115.01C317.319 113.69 318.069 112.13 318.489 110.33C318.969 108.53 319.209 106.55 319.209 104.39V101.24H319.029C317.469 103.34 315.459 104.96 312.999 106.1C310.599 107.18 307.899 107.72 304.899 107.72C301.659 107.72 298.719 107.12 296.079 105.92C293.439 104.72 291.189 103.1 289.329 101.06C287.529 99.02 286.119 96.65 285.099 93.95C284.079 91.19 283.569 88.28 283.569 85.22C283.569 82.1 284.049 79.16 285.009 76.4C286.029 73.64 287.439 71.24 289.239 69.2C291.099 67.16 293.319 65.54 295.899 64.34C298.539 63.14 301.479 62.54 304.719 62.54C307.779 62.54 310.629 63.17 313.269 64.43C315.909 65.69 318.009 67.64 319.569 70.28H319.749V63.8H330.009ZM306.969 71.36C304.989 71.36 303.219 71.72 301.659 72.44C300.159 73.16 298.869 74.15 297.789 75.41C296.769 76.61 295.959 78.05 295.359 79.73C294.819 81.41 294.549 83.21 294.549 85.13C294.549 86.87 294.819 88.55 295.359 90.17C295.959 91.79 296.769 93.26 297.789 94.58C298.869 95.84 300.159 96.86 301.659 97.64C303.219 98.42 304.959 98.81 306.879 98.81C308.859 98.81 310.629 98.45 312.189 97.73C313.809 96.95 315.159 95.93 316.239 94.67C317.379 93.41 318.249 91.97 318.849 90.35C319.449 88.67 319.749 86.93 319.749 85.13C319.749 83.27 319.449 81.5 318.849 79.82C318.249 78.14 317.379 76.67 316.239 75.41C315.159 74.15 313.839 73.16 312.279 72.44C310.719 71.72 308.949 71.36 306.969 71.36ZM366.985 62.54C369.805 62.54 372.205 63.05 374.185 64.07C376.225 65.03 377.875 66.32 379.135 67.94C380.455 69.56 381.415 71.42 382.015 73.52C382.615 75.62 382.915 77.78 382.915 80V107H372.115V83.24C372.115 81.98 372.025 80.69 371.845 79.37C371.665 77.99 371.275 76.76 370.675 75.68C370.135 74.54 369.325 73.61 368.245 72.89C367.225 72.17 365.845 71.81 364.105 71.81C362.365 71.81 360.865 72.14 359.605 72.8C358.345 73.46 357.295 74.36 356.455 75.5C355.615 76.58 354.985 77.81 354.565 79.19C354.145 80.57 353.935 81.98 353.935 83.42V107H343.135V38.96H353.935V69.83H354.115C354.535 68.93 355.135 68.06 355.915 67.22C356.755 66.32 357.715 65.54 358.795 64.88C359.875 64.16 361.105 63.59 362.485 63.17C363.865 62.75 365.365 62.54 366.985 62.54ZM389.303 72.44V63.8H396.863V51.29H407.483V63.8H418.283V72.44H407.483V92.51C407.483 94.43 407.813 96.02 408.473 97.28C409.193 98.54 410.753 99.17 413.153 99.17C413.873 99.17 414.653 99.11 415.493 98.99C416.333 98.81 417.083 98.57 417.743 98.27L418.103 106.73C417.143 107.09 416.003 107.36 414.683 107.54C413.363 107.78 412.103 107.9 410.903 107.9C408.023 107.9 405.683 107.51 403.883 106.73C402.083 105.89 400.643 104.78 399.563 103.4C398.543 101.96 397.823 100.34 397.403 98.54C397.043 96.68 396.863 94.7 396.863 92.6V72.44H389.303Z" fill="white"/>
</svg>
