<svg width="64" height="54" viewBox="0 0 64 54" fill="none" xmlns="http://www.w3.org/2000/svg">
<path d="M32.0996 32.3008C23.2996 32.3008 16.0996 25.1008 16.0996 16.3008C16.0996 7.50078 23.2996 0.300781 32.0996 0.300781C40.8996 0.300781 48.0996 7.50078 48.0996 16.3008C48.0996 25.1008 40.8996 32.3008 32.0996 32.3008ZM32.0996 5.70078C26.1996 5.70078 21.3996 10.5008 21.3996 16.4008C21.3996 22.3008 26.2996 27.0008 32.0996 27.0008C37.8996 27.0008 42.7996 22.2008 42.7996 16.3008C42.7996 10.4008 37.9996 5.70078 32.0996 5.70078Z" fill="current"/>
<path d="M2.79992 53.7012C1.99992 53.7012 1.19992 53.4012 0.699921 52.6012C-0.400079 51.5012 -0.100079 49.7012 0.999922 48.9012C9.79992 41.7012 20.6999 37.7012 32.1999 37.7012C43.6999 37.7012 54.5999 41.7012 63.0999 48.9012C64.1999 50.0012 64.3999 51.6012 63.3999 52.6012C62.2999 53.7012 60.6999 53.9012 59.6999 52.9012C52.0999 46.5012 42.2999 43.0012 32.0999 43.0012C21.8999 43.0012 12.0999 46.5012 4.39992 53.1012C4.09992 53.4012 3.29992 53.7012 2.79992 53.7012Z" fill="current"/>
</svg>
