<svg width="13" height="11" viewBox="0 0 13 11" fill="none" xmlns="http://www.w3.org/2000/svg">
<path d="M12.9595 9.80684L12.0657 6.15059C12.0048 5.90684 11.8829 5.74434 11.7204 5.62246C11.7813 5.50059 11.8423 5.37871 11.8423 5.21621V1.01152C11.8423 0.544336 11.497 0.178711 11.0095 0.178711H2.09229C1.6251 0.178711 1.19854 0.544336 1.19854 1.01152V5.21621C1.19854 5.33809 1.25947 5.5209 1.32041 5.62246C1.1376 5.74434 0.975098 5.92715 0.91416 6.15059L0.0204102 9.80684C-0.0405273 10.0506 0.0204102 10.274 0.203223 10.5178C0.386035 10.7006 0.609473 10.8225 0.91416 10.8225H12.147C12.4517 10.8225 12.6751 10.7006 12.8579 10.4771C13.0204 10.2943 13.0204 9.98965 12.9595 9.80684ZM2.37666 1.35684H10.6438V4.91152H2.37666V1.35684ZM1.32041 9.64434L2.03135 6.67871H11.0704L11.7813 9.64434H1.32041Z" fill="current"/>
</svg>
