<?xml version="1.0" encoding="utf-8"?>
<!-- Generator: Adobe Illustrator 22.0.1, SVG Export Plug-In . SVG Version: 6.00 Build 0)  -->
<svg version="1.1" id="Layer_2_1_" xmlns="http://www.w3.org/2000/svg" xmlns:xlink="http://www.w3.org/1999/xlink" x="0px" y="0px"
	 viewBox="0 0 64 64" style="enable-background:new 0 0 64 64;" xml:space="preserve">
<path d="M59.2,0H4.8C2.1,0,0,2.1,0,4.8V16v5.3v37.9C0,61.9,2.1,64,4.8,64H16h5.3h37.9c2.4,0,4.5-1.9,4.8-4.3V4.8
	C64,2.1,61.9,0,59.2,0z M5.3,5.3h53.3V16H5.3V5.3z M21.3,21.3h37.3v16H21.3V21.3z M5.3,58.7V21.3H16v37.3H5.3z M21.3,58.7v-16h37.3
	v16H21.3z"/>
</svg>
