<svg width="15" height="15" viewBox="0 0 15 15" fill="none" xmlns="http://www.w3.org/2000/svg">
<path d="M13.875 0H1.125C0.492188 0 0 0.492188 0 1.125V3.75V4.99219V13.875C0 14.5078 0.492188 15 1.125 15H3.75H4.99219H13.875C14.4375 15 14.9297 14.5547 15 13.9922V1.125C15 0.492188 14.5078 0 13.875 0ZM1.24219 1.24219H13.7344V3.75H1.24219V1.24219ZM4.99219 4.99219H13.7344V8.74219H4.99219V4.99219ZM1.24219 13.7578V4.99219H3.75V13.7344H1.24219V13.7578ZM4.99219 13.7578V10.0078H13.7344V13.7578H4.99219Z" fill="black"/>
</svg>
