<?xml version="1.0" encoding="utf-8"?>
<!-- Generator: Adobe Illustrator 23.0.0, SVG Export Plug-In . SVG Version: 6.00 Build 0)  -->
<svg version="1.1" id="Layer_2_1_" xmlns="http://www.w3.org/2000/svg" xmlns:xlink="http://www.w3.org/1999/xlink" x="0px" y="0px"
	 viewBox="0 0 64 64" style="enable-background:new 0 0 64 64;" xml:space="preserve">
<g>
	<path d="M48.1,19v-2.4c0-8.6-6.4-15.8-14.7-16.6C28.8-0.2,24.2,1.1,21,4.3c-3.2,2.9-5.1,7.2-5.1,11.5V19
		C9.8,20.4,5.2,25.7,5.2,32.2v19c0,7.2,5.9,12.8,12.8,12.8h27.8c7.2,0,12.8-5.9,12.8-12.8v-19C58.8,25.7,54.2,20.4,48.1,19z
		 M24.8,8.3c2.1-2.1,5.1-2.9,8.3-2.7c5.4,0.5,9.6,5.4,9.6,11.2v1.9H21.3v-2.9C21.3,12.9,22.6,10.2,24.8,8.3z M53.4,51.4
		c0,4.3-3.5,7.5-7.5,7.5H18.1c-4,0-7.5-3.5-7.5-7.5v-19c0-4.5,3.7-8.3,8.3-8.3h26.2c4.5,0,8.3,3.5,8.3,8V51.4z"/>
	<path d="M32,34.8c-1.6,0-2.7,1.1-2.7,2.7v2.7v2.7v5.4c0,1.6,1.1,2.7,2.7,2.7c1.6,0,2.7-1.1,2.7-2.7v-5.4v-2.7v-2.7
		C34.7,35.9,33.6,34.8,32,34.8z"/>
</g>
</svg>
