<svg viewBox="0 0 52 52" fill="current" xmlns="http://www.w3.org/2000/svg">
<path d="M2.81725 34.4225L9.77322 27.5055C13.2921 24.0063 18.9387 23.5994 22.8668 26.4476L26.7949 22.5415C25.731 20.8325 25.0763 18.8795 25.0763 16.9264C25.0763 14.0782 26.1402 11.4742 28.1042 9.6025L34.651 2.92958C38.5791 -0.976526 45.1259 -0.976526 49.0539 2.92958C50.9361 4.80125 52 7.16119 52 10.0094C52 12.8576 50.9361 15.2175 48.9721 17.1706L42.2617 24.0876C40.2976 26.0407 37.6789 27.0986 35.0602 27.0986C33.3417 27.0986 31.3776 26.6917 29.8228 25.5524L25.6492 29.7027C26.5494 31.2488 27.204 32.9577 27.204 34.9108C27.204 37.759 26.1402 40.1189 24.1762 42.072L17.4657 48.989C15.5017 50.9421 12.8829 52 10.2642 52C7.64551 52 5.0268 50.9421 3.06276 48.989C1.09872 47.036 0.0348685 44.6761 0.0348685 41.8279C-0.210636 38.9797 0.853218 36.3756 2.81725 34.4225ZM39.1519 20.9953L45.8624 14.0782C46.9262 13.0203 47.5809 11.4742 47.5809 9.92801C47.5809 8.38185 46.9262 6.91706 45.8624 5.77778C44.7985 4.6385 43.2437 4.06886 41.6888 4.06886C40.1339 4.06886 38.6609 4.71987 37.5152 5.77778L30.5593 12.6948C29.4954 13.7527 28.8407 15.2989 28.8407 16.8451C28.8407 17.7402 29.0862 18.554 29.4954 19.4491L31.4595 17.4961C32.3596 16.6009 33.669 16.6009 34.4873 17.4961C35.3875 18.3912 35.3875 19.6933 34.4873 20.507L32.7688 22.216C35.0602 22.9484 37.4334 22.5415 39.1519 20.9953ZM5.84514 45.734C8.21836 48.0939 11.9828 48.0939 14.1105 45.734L21.0664 38.8169C22.1303 37.759 22.785 36.2128 22.785 34.6667C22.785 34.0156 22.5395 33.3646 22.3758 32.7136L20.6573 34.4225C20.2481 34.8294 19.5934 35.0736 19.1024 35.0736C18.4477 35.0736 18.0385 34.8294 17.5475 34.4225C16.6473 33.5274 16.6473 32.2254 17.5475 31.4116L19.2661 29.4585C18.3659 29.0516 17.5475 28.8075 16.6473 28.8075C15.0925 28.8075 13.6195 29.4585 12.4738 30.5164L5.5178 37.4335C4.45395 38.4914 3.79927 40.0376 3.79927 41.5837C4.12661 43.1299 4.78129 44.6761 5.84514 45.734Z" fill="current"/>
</svg>
