<svg width="15" height="15" viewBox="0 0 15 15" fill="none" xmlns="http://www.w3.org/2000/svg">
<g clip-path="url(#clip0)">
<path d="M14.7422 13.2422L10.7578 10.0078C12.4453 7.6875 12.1875 4.45313 10.125 2.39062C9 1.24219 7.5 0.632812 5.92969 0.632812C4.35937 0.632812 2.88281 1.24219 1.75781 2.36719C0.632812 3.49219 0 4.99219 0 6.5625C0 8.13281 0.632812 9.63281 1.75781 10.7578C2.95312 11.9531 4.45312 12.5156 5.95312 12.5156C7.38281 12.5156 8.83594 12.0234 9.96094 10.9453L14.0156 14.25C14.1328 14.3672 14.2734 14.3672 14.3906 14.3672C14.5781 14.3672 14.7656 14.2969 14.8828 14.1094C15.0703 13.875 15.0703 13.5 14.7422 13.2422ZM5.92969 11.25C4.6875 11.25 3.49219 10.7578 2.625 9.86719C1.75781 9 1.24219 7.80469 1.24219 6.5625C1.24219 5.32031 1.73437 4.125 2.625 3.25781C3.51562 2.39062 4.6875 1.875 5.92969 1.875C7.17187 1.875 8.36719 2.36719 9.23438 3.25781C10.1016 4.14844 10.6172 5.32031 10.6172 6.5625C10.6172 7.80469 10.125 9 9.23438 9.86719C8.36719 10.7578 7.19531 11.25 5.92969 11.25Z" fill="#888888"/>
</g>
<defs>
<clipPath id="clip0">
<rect width="15" height="15" fill="white"/>
</clipPath>
</defs>
</svg>
