<svg width="86" height="90" viewBox="0 0 86 90" fill="current" xmlns="http://www.w3.org/2000/svg">
<g clip-path="url(#clip0)">
<path d="M83.3819 28.8535H34.5022C33.5714 28.8535 32.8169 29.6081 32.8169 30.5388V36.232C32.8169 37.1628 33.5714 37.9173 34.5022 37.9173H83.3819C84.3127 37.9173 85.0672 37.1628 85.0672 36.232V30.5388C85.0672 29.6081 84.3127 28.8535 83.3819 28.8535Z" fill="current"/>
<path d="M51.0528 51.5049H2.17309C1.24233 51.5049 0.487793 52.2594 0.487793 53.1902V58.8834C0.487793 59.8141 1.24233 60.5687 2.17309 60.5687H51.0528C51.9836 60.5687 52.7381 59.8141 52.7381 58.8834V53.1902C52.7381 52.2594 51.9836 51.5049 51.0528 51.5049Z" fill="current"/>
<path fill-rule="evenodd" clip-rule="evenodd" d="M6.76138 35.0585C7.18642 35.1686 7.63756 35.1098 8.02025 34.8946C8.40293 34.6794 8.68746 34.3244 8.81418 33.904C11.5136 25.4265 17.2846 18.2643 24.994 13.8236C32.7034 9.38288 41.7944 7.98447 50.482 9.90293C50.902 9.99036 51.3395 9.91293 51.704 9.68666C52.0685 9.46039 52.332 9.10262 52.44 8.68743L53.9147 3.18353C53.9728 2.96211 53.9856 2.7312 53.9521 2.50473C53.9186 2.27826 53.8396 2.06092 53.7198 1.86582C53.6 1.67071 53.442 1.50188 53.2552 1.36952C53.0684 1.23715 52.8567 1.14398 52.633 1.09563C41.6556 -1.37972 30.1485 0.373809 20.4067 6.00649C10.6649 11.6392 3.40432 20.737 0.0729826 31.4856C0.00937971 31.7012 -0.0102672 31.9273 0.0152082 32.1506C0.0406837 32.3738 0.110762 32.5897 0.221283 32.7854C0.331804 32.9811 0.480514 33.1525 0.658584 33.2896C0.836654 33.4267 1.04045 33.5266 1.25788 33.5834L6.76138 35.0585Z" fill="current"/>
<path fill-rule="evenodd" clip-rule="evenodd" d="M78.8126 54.3648C78.3876 54.2548 77.9366 54.3135 77.5539 54.5287C77.1713 54.7439 76.8868 55.0989 76.7601 55.5192C74.0608 63.9968 68.2898 71.1592 60.5803 75.5999C52.8708 80.0407 43.7797 81.439 35.092 79.5204C34.6721 79.4331 34.2347 79.5106 33.8703 79.7369C33.5059 79.9631 33.2424 80.3208 33.1344 80.7359L31.6601 86.2398C31.602 86.4612 31.5892 86.6921 31.6227 86.9186C31.6562 87.145 31.7352 87.3624 31.855 87.5575C31.9748 87.7526 32.1328 87.9214 32.3196 88.0538C32.5064 88.1862 32.7181 88.2793 32.9418 88.3277C43.9192 90.803 55.4263 89.0495 65.1681 83.4168C74.9099 77.7841 82.1705 68.6863 85.5018 57.9377C85.5654 57.7221 85.5851 57.496 85.5596 57.2727C85.5342 57.0494 85.4641 56.8336 85.3536 56.6379C85.243 56.4422 85.0943 56.2707 84.9162 56.1337C84.7382 55.9966 84.5344 55.8967 84.3169 55.8399L78.8126 54.3648Z" fill="current"/>
<path d="M68.6131 18.9019C71.3576 18.9019 73.5826 16.677 73.5826 13.9324C73.5826 11.1878 71.3576 8.96289 68.6131 8.96289C65.8685 8.96289 63.6436 11.1878 63.6436 13.9324C63.6436 16.677 65.8685 18.9019 68.6131 18.9019Z" fill="current"/>
<path d="M16.9592 80.4605C19.7038 80.4605 21.9287 78.2356 21.9287 75.491C21.9287 72.7464 19.7038 70.5215 16.9592 70.5215C14.2147 70.5215 11.9897 72.7464 11.9897 75.491C11.9897 78.2356 14.2147 80.4605 16.9592 80.4605Z" fill="current"/>
</g>
<defs>
<clipPath id="clip0">
<rect width="85.5739" height="89.4228" fill="current"/>
</clipPath>
</defs>
</svg>
