<svg width="86" height="90" viewBox="0 0 86 90" fill="current" xmlns="http://www.w3.org/2000/svg">
<path d="M83.3824 28.8535H34.5027C33.5719 28.8535 32.8174 29.6081 32.8174 30.5388V36.232C32.8174 37.1628 33.5719 37.9173 34.5027 37.9173H83.3824C84.3132 37.9173 85.0677 37.1628 85.0677 36.232V30.5388C85.0677 29.6081 84.3132 28.8535 83.3824 28.8535Z" fill="currrent"/>
<path d="M51.0533 51.5049H2.17358C1.24282 51.5049 0.488281 52.2594 0.488281 53.1902V58.8834C0.488281 59.8141 1.24282 60.5687 2.17358 60.5687H51.0533C51.984 60.5687 52.7386 59.8141 52.7386 58.8834V53.1902C52.7386 52.2594 51.984 51.5049 51.0533 51.5049Z" fill="current"/>
<path fill-rule="evenodd" clip-rule="evenodd" d="M6.76187 35.0585C7.18691 35.1686 7.63805 35.1098 8.02073 34.8946C8.40342 34.6794 8.68794 34.3244 8.81467 33.904C11.5141 25.4265 17.2851 18.2643 24.9945 13.8236C32.7039 9.38288 41.7949 7.98447 50.4825 9.90293C50.9025 9.99036 51.34 9.91293 51.7045 9.68666C52.069 9.46039 52.3325 9.10262 52.4405 8.68743L53.9152 3.18353C53.9733 2.96211 53.9861 2.7312 53.9526 2.50473C53.9191 2.27826 53.84 2.06092 53.7203 1.86582C53.6005 1.67071 53.4425 1.50188 53.2557 1.36952C53.0689 1.23715 52.8572 1.14398 52.6335 1.09563C41.6561 -1.37972 30.149 0.373809 20.4072 6.00649C10.6654 11.6392 3.40481 20.737 0.0734709 31.4856C0.009868 31.7012 -0.00977896 31.9273 0.0156965 32.1506C0.041172 32.3738 0.11125 32.5897 0.221771 32.7854C0.332292 32.9811 0.481002 33.1525 0.659072 33.2896C0.837142 33.4267 1.04094 33.5266 1.25837 33.5834L6.76187 35.0585Z" fill="current"/>
<path fill-rule="evenodd" clip-rule="evenodd" d="M78.8126 54.3648C78.3876 54.2548 77.9366 54.3135 77.5539 54.5287C77.1713 54.7439 76.8868 55.0989 76.7601 55.5192C74.0608 63.9968 68.2898 71.1592 60.5803 75.5999C52.8708 80.0407 43.7797 81.439 35.092 79.5204C34.6721 79.4331 34.2347 79.5106 33.8703 79.7369C33.5059 79.9631 33.2424 80.3208 33.1344 80.7359L31.6601 86.2398C31.602 86.4612 31.5892 86.6921 31.6227 86.9186C31.6562 87.145 31.7352 87.3624 31.855 87.5575C31.9748 87.7526 32.1328 87.9214 32.3196 88.0538C32.5064 88.1862 32.7181 88.2793 32.9418 88.3277C43.9192 90.803 55.4263 89.0495 65.1681 83.4168C74.9099 77.7841 82.1705 68.6863 85.5018 57.9377C85.5654 57.7221 85.5851 57.496 85.5596 57.2727C85.5342 57.0494 85.4641 56.8336 85.3536 56.6379C85.243 56.4422 85.0943 56.2707 84.9162 56.1337C84.7382 55.9966 84.5344 55.8967 84.3169 55.8399L78.8126 54.3648Z" fill="current"/>
<path d="M68.6131 18.9019C71.3576 18.9019 73.5826 16.677 73.5826 13.9324C73.5826 11.1878 71.3576 8.96289 68.6131 8.96289C65.8685 8.96289 63.6436 11.1878 63.6436 13.9324C63.6436 16.677 65.8685 18.9019 68.6131 18.9019Z" fill="current"/>
<path d="M16.9597 80.4605C19.7043 80.4605 21.9292 78.2356 21.9292 75.491C21.9292 72.7464 19.7043 70.5215 16.9597 70.5215C14.2152 70.5215 11.9902 72.7464 11.9902 75.491C11.9902 78.2356 14.2152 80.4605 16.9597 80.4605Z" fill="current"/>
</svg>
