<svg width="20" height="20" viewBox="0 0 20 20" fill="current" xmlns="http://www.w3.org/2000/svg">
<path d="M15 3.34375H13.3438V0.84375C13.3438 0.34375 13 0 12.5 0C12 0 11.6562 0.34375 11.6562 0.84375V3.34375H8.34375V0.84375C8.34375 0.34375 8 0 7.5 0C7 0 6.65625 0.34375 6.65625 0.84375V3.34375H5C4.5 3.34375 4.15625 3.6875 4.15625 4.1875V7.5C4.15625 10.4062 6.3125 12.8438 9.15625 13.25V19.1562C9.15625 19.6562 9.5 20 10 20C10.5 20 10.8438 19.6562 10.8438 19.1562V13.25C13.6875 12.8438 15.8438 10.4062 15.8438 7.5V4.15625C15.8438 3.65625 15.5 3.34375 15 3.34375ZM14.1875 7.5C14.1875 9.84375 12.3125 11.6562 10 11.6562C7.6875 11.6562 5.84375 9.84375 5.84375 7.5V5H14.1875V7.5Z" fill="current" fill-opacity="1"/>
</svg>
