<svg viewBox="0 0 20 14" fill="current" xmlns="http://www.w3.org/2000/svg">
<path d="M6.66197 8.32545C9.00509 8.32545 10.8171 6.47882 10.8171 4.16272C10.8171 1.84662 8.97385 0 6.66197 0C4.35009 0 2.50684 1.81532 2.50684 4.16272C2.50684 6.51012 4.35009 8.32545 6.66197 8.32545ZM6.66197 1.65883C8.06784 1.65883 9.1613 2.75428 9.1613 4.16272C9.1613 5.57116 8.06784 6.66662 6.66197 6.66662C5.2561 6.66662 4.16264 5.57116 4.16264 4.16272C4.16264 2.75428 5.2561 1.65883 6.66197 1.65883Z" fill="current"/>
<path d="M6.66227 9.1709C4.25667 9.1709 2.00727 10.1725 0.257743 11.9252C-0.0859144 12.2695 -0.0859144 12.7702 0.257743 13.0832C0.601401 13.3962 1.10127 13.4275 1.41368 13.0832C2.81955 11.6748 4.75653 10.8297 6.66227 10.8297C8.56801 10.8297 10.4113 11.6748 11.9109 13.0832C12.0671 13.2397 12.317 13.3336 12.5044 13.3336C12.7544 13.3336 12.9106 13.2397 13.098 13.0832C13.4417 12.7389 13.4417 12.2382 13.098 11.9252C11.3173 10.1725 9.00539 9.1709 6.66227 9.1709Z" fill="current"/>
<path d="M15.0032 8.32615C16.4091 8.32615 17.5026 7.23069 17.5026 5.82225C17.5026 4.41381 16.4091 3.31836 15.0032 3.31836C13.5974 3.31836 12.5039 4.41381 12.5039 5.82225C12.5039 7.23069 13.5661 8.32615 15.0032 8.32615ZM15.0032 5.00849C15.5031 5.00849 15.8468 5.35277 15.8468 5.85355C15.8468 6.35433 15.5031 6.69862 15.0032 6.69862C14.5034 6.69862 14.1597 6.35433 14.1597 5.85355C14.1597 5.32147 14.5034 5.00849 15.0032 5.00849Z" fill="current"/>
<path d="M19.7524 11.0811C18.0028 9.42226 15.5972 8.82759 13.1604 9.42226C12.7542 9.51616 12.4106 10.0169 12.5668 10.4238C12.6605 10.8307 13.1604 11.175 13.5665 11.0185C15.4098 10.5177 17.3155 11.0185 18.6589 12.2704C18.8151 12.4269 19.0026 12.5208 19.2525 12.5208C19.5024 12.5208 19.6586 12.4269 19.8461 12.2704C20.0648 11.9262 20.0648 11.3315 19.7524 11.0811Z" fill="current"/>
</svg>
