<svg viewBox="0 0 48 64" fill="none" xmlns="http://www.w3.org/2000/svg">
<path d="M24 0C10.7 0 0 11.2 0 25.3C0 37.3 16.5 57 21.6 62.9C22.1 63.7 23.2 64 24 64C25.1 64 25.9 63.5 26.4 62.9C31.5 57.1 48 37.1 48 25.3C48 11.2 37.3 0 24 0ZM24 57.6C14.9 46.9 5.3 32.8 5.3 25.3C5.3 14.1 13.6 5.3 24 5.3C34.4 5.3 42.7 14.4 42.7 25.3C42.7 32.8 33.1 46.9 24 57.6Z" fill="current"/>
<path d="M23.9998 13.3008C18.0998 13.3008 13.2998 18.1008 13.2998 24.0008C13.2998 29.9008 18.0998 34.7008 23.9998 34.7008C29.8998 34.7008 34.6998 29.9008 34.6998 24.0008C34.6998 18.1008 29.8998 13.3008 23.9998 13.3008ZM23.9998 29.3008C21.0998 29.3008 18.6998 26.9008 18.6998 24.0008C18.6998 21.1008 21.0998 18.7008 23.9998 18.7008C26.8998 18.7008 29.2998 21.1008 29.2998 24.0008C29.2998 26.9008 26.8998 29.3008 23.9998 29.3008Z" fill="current"/>
</svg>
