<svg version="1.1" id="Layer_2_1_" xmlns="http://www.w3.org/2000/svg" xmlns:xlink="http://www.w3.org/1999/xlink" x="0px" y="0px"
	 viewBox="0 0 64 64" style="enable-background:new 0 0 64 64;" xml:space="preserve">
<g>
	<path d="M53.1,8.4h-10c-0.6-4.7-4.4-8.3-9.4-8.3h-3.1c-5,0-8.9,3.6-9.4,8.3H10.9C8.7,8.4,7,10.1,7,12.3l2.5,41.7
		c0.3,5.6,5,10,10.6,10h23.6c5.6,0,10.3-4.2,10.8-10L57,12.3C57,10.1,55.3,8.4,53.1,8.4z M30.6,5.6h3.1c1.7,0,3.1,1.1,3.6,2.8H26.7
		C27.3,6.7,28.7,5.6,30.6,5.6z M48.9,53.7c-0.3,2.8-2.5,4.7-5.3,4.7H20.1c-2.8,0-5-1.9-5-4.7l-2.2-39.7h38.6L48.9,53.7z"/>
	<path d="M37.6,27.8v13.9c0,1.7,1.1,2.8,2.8,2.8s2.8-1.1,2.8-2.8V27.8c0-1.7-1.1-2.8-2.8-2.8S37.6,26.2,37.6,27.8z"/>
	<path d="M23.7,25.1c-1.7,0-2.8,1.1-2.8,2.8v13.9c0,1.7,1.1,2.8,2.8,2.8c1.7,0,2.8-1.1,2.8-2.8V27.8C26.4,26.2,25.3,25.1,23.7,25.1z
		"/>
	<path d="M32,22.3c-1.7,0-2.8,1.1-2.8,2.8v19.4c0,1.7,1.1,2.8,2.8,2.8s2.8-1.1,2.8-2.8V25.1C34.8,23.4,33.7,22.3,32,22.3z"/>
</g>
</svg>
