<svg width="62" height="64" viewBox="0 0 62 64" fill="current" xmlns="http://www.w3.org/2000/svg">
<path d="M33.9 24.5004C32.8 23.7004 31.2 23.7004 29.9 24.5004L14.4 35.2004C13.1 36.0004 12.8 37.6004 13.6 38.9004C14.4 40.2004 16 40.5004 17.3 39.7004L31.7 29.8004L46.1 39.7004C46.6 40.0004 47.2 40.2004 47.7 40.2004C48.5 40.2004 49.3 39.7004 49.8 39.1004C50.6 37.8004 50.3 36.2004 49 35.4004L33.9 24.5004Z" fill="current"/>
<path d="M32 0C14.4 0 0 14.4 0 32C0 49.6 14.4 64 32 64C49.6 64 64 49.6 64 32C64 14.4 49.6 0 32 0ZM32 58.7C17.3 58.7 5.3 46.7 5.3 32C5.3 17.3 17.3 5.3 32 5.3C46.7 5.3 58.7 17.3 58.7 32C58.7 46.7 46.7 58.7 32 58.7Z" fill="current"/>
</svg>
