<svg width="20" height="20" viewBox="0 0 20 20" fill="current" xmlns="http://www.w3.org/2000/svg">
<path d="M18.8438 5H14C13.5938 3.59375 12.1562 2.5 10.4062 2.5H9.5C7.75 2.5 6.34375 3.59375 5.90625 5H1.15625C0.5 5 0 5.5 0 6.15625V16.3125C0 17 0.5 17.5 1.15625 17.5H18.9062C19.5 17.5 20 17 20 16.3438V6.15625C20 5.5 19.5 5 18.8438 5ZM9.5 4.15625H10.4062C11.1562 4.15625 11.8125 4.5 12.1562 5H7.75C8.15625 4.5 8.75 4.15625 9.5 4.15625ZM5.84375 6.65625H7.5H12.5H14.1562H18.3125V9.40625L10.5625 10.8125C10.4688 10.8125 10.4062 10.8125 10.2188 10.8125L1.65625 9.25V6.65625H5.84375ZM1.65625 15.8438V10.9062L10 12.5C10.1562 12.5 10.3438 12.5938 10.5 12.5938C10.6562 12.5938 10.8438 12.5938 11 12.5L18.4062 11.0938V15.8438H1.65625Z" fill="current" fill-opacity="0.7"/>
</svg>
