<svg width="20" height="20" viewBox="0 0 20 20" fill="none" xmlns="http://www.w3.org/2000/svg">
<path fill-rule="evenodd" clip-rule="evenodd" d="M12.3162 3.05132C12.8402 3.22596 13.1233 3.79228 12.9487 4.31623L8.94868 16.3162C8.77404 16.8402 8.20772 17.1233 7.68377 16.9487C7.15983 16.774 6.87667 16.2077 7.05132 15.6838L11.0513 3.68377C11.226 3.15983 11.7923 2.87667 12.3162 3.05132ZM5.70711 6.29289C6.09763 6.68342 6.09763 7.31658 5.70711 7.70711L3.41421 10L5.70711 12.2929C6.09763 12.6834 6.09763 13.3166 5.70711 13.7071C5.31658 14.0976 4.68342 14.0976 4.29289 13.7071L1.29289 10.7071C0.902369 10.3166 0.902369 9.68342 1.29289 9.29289L4.29289 6.29289C4.68342 5.90237 5.31658 5.90237 5.70711 6.29289ZM14.2929 6.29289C14.6834 5.90237 15.3166 5.90237 15.7071 6.29289L18.7071 9.29289C19.0976 9.68342 19.0976 10.3166 18.7071 10.7071L15.7071 13.7071C15.3166 14.0976 14.6834 14.0976 14.2929 13.7071C13.9024 13.3166 13.9024 12.6834 14.2929 12.2929L16.5858 10L14.2929 7.70711C13.9024 7.31658 13.9024 6.68342 14.2929 6.29289Z" fill="#6F6E77"/>
</svg>
