<svg width="14" height="14" viewBox="0 0 14 14" fill="none" xmlns="http://www.w3.org/2000/svg">
<path d="M2.1 2.09961C1.7134 2.09961 1.4 2.41301 1.4 2.79961V11.1996C1.4 11.5862 1.7134 11.8996 2.1 11.8996C2.4866 11.8996 2.8 11.5862 2.8 11.1996V2.79961C2.8 2.41301 2.4866 2.09961 2.1 2.09961Z" fill="#86848D"/>
<path d="M9.30503 8.60463C9.03166 8.878 9.03166 9.32122 9.30503 9.59458C9.57839 9.86795 10.0216 9.86795 10.295 9.59458L12.395 7.49458C12.5263 7.36331 12.6 7.18526 12.6 6.99961C12.6 6.81396 12.5263 6.63591 12.395 6.50463L10.295 4.40463C10.0216 4.13127 9.57839 4.13127 9.30503 4.40463C9.03166 4.678 9.03166 5.12122 9.30503 5.39458L10.2101 6.29961L4.9 6.29961C4.5134 6.29961 4.2 6.61301 4.2 6.99961C4.2 7.38621 4.5134 7.69961 4.9 7.69961H10.2101L9.30503 8.60463Z" fill="#86848D"/>
</svg>
