<svg width="20" height="20" viewBox="0 0 20 20" fill="none" xmlns="http://www.w3.org/2000/svg">
<path fill-rule="evenodd" clip-rule="evenodd" d="M10 1.95068C5.58 1.95068 2 5.53068 2 9.95068C2 13.4907 4.29 16.4807 7.47 17.5407C7.87 17.6107 8.02 17.3707 8.02 17.1607C8.02 16.9707 8.01 16.3407 8.01 15.6707C6 16.0407 5.48 15.1807 5.32 14.7307C5.23 14.5007 4.84 13.7907 4.5 13.6007C4.22 13.4507 3.82 13.0807 4.49 13.0707C5.12 13.0607 5.57 13.6507 5.72 13.8907C6.44 15.1007 7.59 14.7607 8.05 14.5507C8.12 14.0307 8.33 13.6807 8.56 13.4807C6.78 13.2807 4.92 12.5907 4.92 9.53068C4.92 8.66068 5.23 7.94068 5.74 7.38068C5.66 7.18068 5.38 6.36068 5.82 5.26068C5.82 5.26068 6.49 5.05068 8.02 6.08068C8.66 5.90068 9.34 5.81068 10.02 5.81068C10.7 5.81068 11.38 5.90068 12.02 6.08068C13.55 5.04068 14.22 5.26068 14.22 5.26068C14.66 6.36068 14.38 7.18068 14.3 7.38068C14.81 7.94068 15.12 8.65068 15.12 9.53068C15.12 12.6007 13.25 13.2807 11.47 13.4807C11.76 13.7307 12.01 14.2107 12.01 14.9607C12.01 16.0307 12 16.8907 12 17.1607C12 17.3707 12.15 17.6207 12.55 17.5407C14.1381 17.0045 15.5182 15.9839 16.4958 14.6223C17.4735 13.2608 17.9996 11.6269 18 9.95068C18 5.53068 14.42 1.95068 10 1.95068Z" fill="#6F6E77"/>
</svg>
