<svg width="20" height="20" viewBox="0 0 20 20" fill="none" xmlns="http://www.w3.org/2000/svg">
  <g clip-path="url(#clip0_1603_12998)">
    <path
      d="M18.215 10.3681C18.215 9.69688 18.1605 9.20709 18.0426 8.69916H10.3782V11.7286H14.8771C14.7864 12.4815 14.2966 13.6153 13.2081 14.3771L13.1929 14.4785L15.6162 16.3559L15.7841 16.3726C17.326 14.9486 18.215 12.8533 18.215 10.3681Z"
      fill="#4285F4" />
    <path
      d="M10.3782 18.3499C12.5823 18.3499 14.4326 17.6242 15.7841 16.3726L13.2081 14.3771C12.5188 14.8578 11.5936 15.1934 10.3782 15.1934C8.21951 15.1934 6.38733 13.7694 5.73421 11.8011L5.63847 11.8093L3.11865 13.7594L3.08569 13.851C4.42808 16.5176 7.18546 18.3499 10.3782 18.3499Z"
      fill="#34A853" />
    <path
      d="M5.73421 11.8012C5.56187 11.2933 5.46214 10.749 5.46214 10.1867C5.46214 9.62429 5.56187 9.0801 5.72514 8.57217L5.72057 8.46399L3.16917 6.48254L3.08569 6.52225C2.53243 7.62884 2.21497 8.8715 2.21497 10.1867C2.21497 11.5019 2.53243 12.7445 3.08569 13.8511L5.73421 11.8012Z"
      fill="#FBBC05" />
    <path
      d="M10.3782 5.17982C11.9111 5.17982 12.9451 5.84195 13.5347 6.39527L15.8385 4.14583C14.4236 2.83064 12.5823 2.02338 10.3782 2.02338C7.18546 2.02338 4.42808 3.85556 3.08569 6.52221L5.72514 8.57212C6.38733 6.60387 8.21952 5.17982 10.3782 5.17982Z"
      fill="#EB4335" />
  </g>
  <defs>
    <clipPath id="clip0_1603_12998">
      <rect width="16" height="16.3733" fill="white" transform="translate(2.21497 2)" />
    </clipPath>
  </defs>
</svg>
