<svg width="20" height="20" viewBox="0 0 20 20" fill="none" xmlns="http://www.w3.org/2000/svg">
<path fill-rule="evenodd" clip-rule="evenodd" d="M9.24254 3.02986C9.77833 3.16381 10.1041 3.70674 9.97014 4.24254L9.53078 6H12.4692L13.0299 3.75746C13.1638 3.22167 13.7067 2.89591 14.2425 3.02986C14.7783 3.16381 15.1041 3.70674 14.9701 4.24254L14.5308 6H17C17.5523 6 18 6.44772 18 7C18 7.55228 17.5523 8 17 8H14.0308L13.0308 12H15C15.5523 12 16 12.4477 16 13C16 13.5523 15.5523 14 15 14H12.5308L11.9701 16.2425C11.8362 16.7783 11.2933 17.1041 10.7575 16.9701C10.2217 16.8362 9.89591 16.2933 10.0299 15.7575L10.4692 14H7.53078L6.97014 16.2425C6.83619 16.7783 6.29326 17.1041 5.75746 16.9701C5.22167 16.8362 4.89591 16.2933 5.02986 15.7575L5.46922 14H3C2.44772 14 2 13.5523 2 13C2 12.4477 2.44772 12 3 12H5.96922L6.96922 8H5C4.44772 8 4 7.55228 4 7C4 6.44772 4.44772 6 5 6H7.46922L8.02986 3.75746C8.16381 3.22167 8.70674 2.89591 9.24254 3.02986ZM9.03078 8L8.03078 12H10.9692L11.9692 8H9.03078Z" fill="#6F6E77"/>
</svg>
