<svg width="20" height="20" viewBox="0 0 20 20" fill="none" xmlns="http://www.w3.org/2000/svg">
<g clip-path="url(#clip0_590_7243)">
<path d="M8.92224 12.6208L9.05062 12.5131L15.5235 12.4573L15.5637 12.6208L15.5637 12.6205C15.5549 12.6554 15.5414 12.6892 15.5235 12.721C15.468 12.8195 15.3472 12.8894 15.1054 13.0293L8.85585 16.645C8.23343 17.005 7.92224 17.1851 7.72989 17.1422C7.56347 17.1051 7.42698 16.9866 7.36692 16.827C7.29755 16.6426 7.43222 16.3092 7.70155 15.6425L8.92224 12.6208Z" fill="#7957FF"/>
<path d="M15.5637 12.6207H8.92224L8.88306 12.3456L10.8936 7.43102L11.0579 7.33893L15.2658 12.0144C15.2724 12.0217 15.2789 12.0289 15.2852 12.036C15.4592 12.2293 15.5468 12.3297 15.5684 12.4365C15.5808 12.498 15.579 12.5609 15.5637 12.6207Z" fill="#18B6AA"/>
<path d="M11.1084 3.35073L4.88781 6.93155C4.64557 7.071 4.52443 7.14073 4.46879 7.23917C4.42 7.32549 4.40387 7.42647 4.42332 7.5237C4.44553 7.63458 4.53891 7.73858 4.72564 7.94657L8.92223 12.6207L11.0579 7.33895L12.2614 4.35352C12.5291 3.68932 12.663 3.35721 12.5937 3.17301C12.5338 3.0136 12.3976 2.89512 12.2314 2.85788C12.0394 2.81481 11.7291 2.99344 11.1084 3.35073Z" fill="#F845C6"/>
</g>
<defs>
<clipPath id="clip0_590_7243">
<rect width="20" height="20" fill="white"/>
</clipPath>
</defs>
</svg>
