<svg width="20" height="20" viewBox="0 0 20 20" fill="none" xmlns="http://www.w3.org/2000/svg">
<path fill-rule="evenodd" clip-rule="evenodd" d="M3 5C3 3.89543 3.89543 3 5 3H6C6.55228 3 7 3.44772 7 4C7 4.55228 6.55228 5 6 5L5 5V15H15V5H14C13.4477 5 13 4.55228 13 4C13 3.44772 13.4477 3 14 3H15C16.1046 3 17 3.89543 17 5V15C17 16.1046 16.1046 17 15 17H5C3.89543 17 3 16.1046 3 15V5Z" fill="#6F6E77"/>
<path d="M4 12H7L8 14H12L13 12H16V16H4V12Z" fill="#6F6E77"/>
<path d="M7.29289 7.29289C7.68342 6.90237 8.31658 6.90237 8.70711 7.29289L9 7.58579V3C9 2.44772 9.44771 2 10 2C10.5523 2 11 2.44771 11 3L11 7.58579L11.2929 7.29289C11.6834 6.90237 12.3166 6.90237 12.7071 7.29289C13.0976 7.68342 13.0976 8.31658 12.7071 8.70711L10.7071 10.7071C10.5196 10.8946 10.2652 11 10 11C9.73478 11 9.48043 10.8946 9.29289 10.7071L7.29289 8.70711C6.90237 8.31658 6.90237 7.68342 7.29289 7.29289Z" fill="#6F6E77"/>
</svg>
