<svg width="20" height="20" viewBox="0 0 20 20" fill="none" xmlns="http://www.w3.org/2000/svg">
<path d="M15 4H5C4.44772 4 4 4.44772 4 5V15C4 15.5523 4.44772 16 5 16H6.5C7.05228 16 7.5 16.4477 7.5 17C7.5 17.5523 7.05228 18 6.5 18H5C3.34315 18 2 16.6569 2 15V5C2 3.34315 3.34315 2 5 2H15C16.6569 2 18 3.34315 18 5V6.5C18 7.05228 17.5523 7.5 17 7.5C16.4477 7.5 16 7.05228 16 6.5V5C16 4.44772 15.5523 4 15 4Z" fill="#6F6E77"/>
<path d="M7.26851 7.26851C7.5278 7.00922 7.91667 6.9294 8.25713 7.06559L17.4238 10.7322C17.7589 10.8663 17.9842 11.1846 17.9992 11.5453C18.0142 11.9059 17.8161 12.2418 17.4933 12.4032L14 14L12.4032 17.4933C12.2418 17.8161 11.9059 18.0142 11.5453 17.9992C11.1846 17.9842 10.8663 17.7589 10.7322 17.4238L7.06559 8.25713C6.9294 7.91667 7.00922 7.5278 7.26851 7.26851Z" fill="#6F6E77"/>
</svg>
