<svg width="20" height="20" viewBox="0 0 20 20" fill="none" xmlns="http://www.w3.org/2000/svg">
<path fill-rule="evenodd" clip-rule="evenodd" d="M11.3006 1.04626C11.7169 1.17748 12 1.56353 12 2V7L16 7C16.3729 7 16.7148 7.20746 16.887 7.53819C17.0592 7.86892 17.0331 8.26799 16.8192 8.57346L9.81924 18.5735C9.56894 18.931 9.11564 19.085 8.69936 18.9537C8.28309 18.8225 8 18.4365 8 18L8 13H4C3.62713 13 3.28522 12.7925 3.11302 12.4618C2.94083 12.1311 2.96694 11.732 3.18077 11.4265L10.1808 1.42654C10.4311 1.06897 10.8844 0.915042 11.3006 1.04626Z" fill="#6F6E77"/>
</svg>
