<svg width="20" height="20" viewBox="0 0 20 20" fill="none" xmlns="http://www.w3.org/2000/svg">
<path d="M2.10067 11.3498L8.65022 17.8993C5.30578 17.334 2.666 14.6944 2.10067 11.3498ZM2 9.57178L10.4282 18C10.9214 17.9738 11.4111 17.902 11.8911 17.7856L2.21444 8.10889C2.09796 8.58885 2.02617 9.07857 2 9.57178H2ZM2.634 6.85111L13.1489 17.366C13.53 17.2024 13.8978 17.0094 14.2489 16.7887L3.21133 5.75111C2.99061 6.10222 2.79758 6.47 2.634 6.85111V6.85111ZM3.92378 4.78622C5.392 3.08 7.56667 2 9.99422 2C14.4158 2 18 5.58444 18 10.0058C18 12.4331 16.9198 14.608 15.2138 16.0762L3.92378 4.78622Z" fill="#5E6AD2"/>
</svg>
