<svg xmlns="http://www.w3.org/2000/svg" width="20" height="20" viewBox="0 0 20 20" fill="none">
<path d="M10 3C10 2.44772 10.4495 1.99355 10.9974 2.0624C12.667 2.27217 14.2374 3.00478 15.4764 4.16825C16.9597 5.56115 17.8564 7.46692 17.9842 9.49768C18.112 11.5284 17.4611 13.5316 16.1641 15.0994C15.0807 16.409 13.6145 17.3326 11.9844 17.75C11.4494 17.887 10.9466 17.4927 10.8773 16.9448C10.8081 16.3969 11.2003 15.9046 11.7291 15.7455C12.855 15.4066 13.8643 14.7418 14.6231 13.8245C15.5958 12.6487 16.084 11.1463 15.9882 9.62326C15.8923 8.10019 15.2197 6.67086 14.1073 5.62619C13.2395 4.81127 12.1549 4.27819 10.9954 4.08313C10.4508 3.9915 10 3.55228 10 3Z" fill="#6F6E77"/>
</svg>
