<svg width="142" height="39" viewBox="0 0 142 39" fill="none" xmlns="http://www.w3.org/2000/svg">
<path d="M19 13C19 12.4477 19.4495 11.9935 19.9974 12.0624C21.667 12.2722 23.2374 13.0048 24.4764 14.1683C25.9597 15.5612 26.8564 17.4669 26.9842 19.4977C27.112 21.5284 26.4611 23.5316 25.1641 25.0994C24.0807 26.409 22.6145 27.3326 20.9844 27.75C20.4494 27.887 19.9466 27.4927 19.8773 26.9448V26.9448C19.8081 26.3969 20.2003 25.9046 20.7291 25.7455C21.855 25.4066 22.8643 24.7418 23.6231 23.8245C24.5958 22.6487 25.084 21.1463 24.9882 19.6233C24.8923 18.1002 24.2197 16.6709 23.1073 15.6262C22.2395 14.8113 21.1549 14.2782 19.9954 14.0831C19.4508 13.9915 19 13.5523 19 13V13Z" fill="#6F6E77"/>
<path d="M95 27C95 27.5523 94.5505 28.0065 94.0026 27.9376C92.333 27.7278 90.7626 26.9952 89.5236 25.8317C88.0403 24.4388 87.1435 22.5331 87.0158 20.5023C86.888 18.4716 87.5389 16.4684 88.8359 14.9006C89.9193 13.591 91.3855 12.6674 93.0156 12.25C93.5506 12.113 94.0534 12.5073 94.1227 13.0552V13.0552C94.1919 13.6031 93.7997 14.0954 93.2709 14.2545C92.145 14.5934 91.1357 15.2582 90.3769 16.1755C89.4042 17.3513 88.916 18.8537 89.0118 20.3767C89.1077 21.8998 89.7803 23.3291 90.8927 24.3738C91.7605 25.1887 92.8451 25.7218 94.0046 25.9169C94.5492 26.0085 95 26.4477 95 27V27Z" fill="#6F6E77"/>
<path d="M120.878 13.001C120.868 12.4488 121.31 11.9869 121.859 12.0462C123.532 12.2268 125.115 12.9319 126.374 14.0735C127.881 15.4403 128.811 17.3302 128.974 19.3584C129.137 21.3866 128.522 23.4008 127.252 24.991C126.192 26.3193 124.742 27.2684 123.119 27.7142C122.587 27.8605 122.077 27.475 121.998 26.9284V26.9284C121.92 26.3818 122.303 25.8827 122.829 25.7144C123.949 25.3559 124.946 24.6736 125.689 23.7432C126.641 22.5506 127.103 21.0399 126.981 19.5188C126.858 17.9976 126.161 16.5802 125.03 15.5551C124.148 14.7555 123.055 14.2414 121.892 14.0666C121.346 13.9845 120.887 13.5532 120.878 13.001V13.001Z" fill="#6F6E77"/>
<rect x="0.5" y="0.5" width="141" height="38" rx="4.5" stroke="#9747FF" stroke-dasharray="10 5"/>
</svg>
