<svg width="114" height="39" viewBox="0 0 114 39" fill="none" xmlns="http://www.w3.org/2000/svg">
<path fill-rule="evenodd" clip-rule="evenodd" d="M18 28C22.4183 28 26 24.4183 26 20C26 15.5817 22.4183 12 18 12C13.5817 12 10 15.5817 10 20C10 24.4183 13.5817 28 18 28ZM18 26.4C14.4654 26.4 11.6 23.5346 11.6 20C11.6 16.4654 14.4654 13.6 18 13.6C21.5346 13.6 24.4 16.4654 24.4 20C24.4 23.5346 21.5346 26.4 18 26.4ZM21.4227 16.3552C20.4957 15.4846 19.2717 15 18 15V20L21.4227 16.3552Z" fill="#6F6E77"/>
<path fill-rule="evenodd" clip-rule="evenodd" d="M74 28C78.4183 28 82 24.4183 82 20C82 15.5817 78.4183 12 74 12C69.5817 12 66 15.5817 66 20C66 24.4183 69.5817 28 74 28ZM74 26.4C70.4654 26.4 67.6 23.5346 67.6 20C67.6 16.4654 70.4654 13.6 74 13.6C77.5346 13.6 80.4 16.4654 80.4 20C80.4 23.5346 77.5346 26.4 74 26.4ZM76.4088 15.6185C75.6707 15.2127 74.8422 15 74 15V20L70.1474 23.1871C70.6843 23.836 71.3763 24.3389 72.1594 24.6489C72.9424 24.9589 73.7911 25.0661 74.6267 24.9606C75.4622 24.855 76.2576 24.5401 76.9389 24.0451C77.6203 23.5501 78.1655 22.8909 78.5241 22.1289C78.8827 21.3669 79.043 20.5266 78.9901 19.686C78.9373 18.8455 78.6729 18.032 78.2216 17.3209C77.7704 16.6098 77.1468 16.0242 76.4088 15.6185Z" fill="#6F6E77"/>
<path fill-rule="evenodd" clip-rule="evenodd" d="M97 28C101.418 28 105 24.4183 105 20C105 15.5817 101.418 12 97 12C92.5817 12 89 15.5817 89 20C89 24.4183 92.5817 28 97 28ZM97 26.4C93.4654 26.4 90.6 23.5346 90.6 20C90.6 16.4654 93.4654 13.6 97 13.6C100.535 13.6 103.4 16.4654 103.4 20C103.4 23.5346 100.535 26.4 97 26.4ZM97 25C99.7614 25 102 22.7614 102 20C102 17.2386 99.7614 15 97 15C94.2386 15 92 17.2386 92 20C92 22.7614 94.2386 25 97 25Z" fill="#6F6E77"/>
<rect x="0.5" y="0.5" width="113" height="38" rx="4.5" stroke="#9747FF" stroke-dasharray="10 5"/>
</svg>
