<svg width="14" height="14" viewBox="0 0 14 14" fill="none" xmlns="http://www.w3.org/2000/svg">
<path fill-rule="evenodd" clip-rule="evenodd" d="M2.09997 2.09961C2.48657 2.09961 2.79997 2.41301 2.79997 2.79961L2.79997 11.1996C2.79997 11.5862 2.48657 11.8996 2.09997 11.8996C1.71337 11.8996 1.39997 11.5862 1.39997 11.1996L1.39997 2.79961C1.39997 2.41301 1.71338 2.09961 2.09997 2.09961ZM7.49495 4.40463C7.76832 4.678 7.76832 5.12122 7.49495 5.39458L6.58993 6.29961L11.9 6.29961C12.2866 6.29961 12.6 6.61301 12.6 6.99961C12.6 7.38621 12.2866 7.69961 11.9 7.69961L6.58992 7.69961L7.49495 8.60463C7.76832 8.878 7.76832 9.32122 7.49495 9.59458C7.22158 9.86795 6.77837 9.86795 6.505 9.59458L4.405 7.49458C4.27373 7.36331 4.19997 7.18526 4.19997 6.99961C4.19997 6.81396 4.27373 6.63591 4.405 6.50463L6.505 4.40463C6.77837 4.13127 7.22158 4.13127 7.49495 4.40463Z" fill="#6F6E77"/>
</svg>
