<svg width="16" height="14" viewBox="0 0 16 14" fill="none" xmlns="http://www.w3.org/2000/svg">
<path fill-rule="evenodd" clip-rule="evenodd" d="M0 3C0 1.34314 1.34314 0 3 0H13C14.6569 0 16 1.34314 16 3V11C16 12.6569 14.6569 14 13 14H3C1.34314 14 0 12.6569 0 11V3ZM3 4.75171C3 4.06134 3.55963 3.50171 4.25 3.50171H11.75C12.4404 3.50171 13 4.06134 13 4.75171C13 5.44208 12.4404 6.00171 11.75 6.00171H4.25C3.55963 6.00171 3 5.44208 3 4.75171ZM4.25 7.99829C3.55963 7.99829 3 8.55792 3 9.24829C3 9.93866 3.55963 10.4983 4.25 10.4983H8.75C9.44037 10.4983 10 9.93866 10 9.24829C10 8.55792 9.44037 7.99829 8.75 7.99829H4.25Z" fill="#6F6E77"/>
</svg>
