<svg width="20" height="20" viewBox="0 0 20 20" fill="none" xmlns="http://www.w3.org/2000/svg">
<path fill-rule="evenodd" clip-rule="evenodd" d="M10 2C10.5523 2 11 2.44772 11 3V4.32297L14.9544 5.90474L16.5528 5.10557C17.0468 4.85858 17.6474 5.05881 17.8944 5.55279C18.1414 6.04676 17.9412 6.64744 17.4472 6.89443L16.2141 7.51101L17.9522 12.9307C18.0728 13.3065 17.961 13.718 17.6669 13.9812C16.9599 14.614 16.0238 15 15 15C13.9762 15 13.0401 14.614 12.3331 13.9812C12.039 13.718 11.9273 13.3065 12.0478 12.9307L13.7631 7.58227L11 6.47703V16H13C13.5523 16 14 16.4477 14 17C14 17.5523 13.5523 18 13 18H7.00001C6.44772 18 6.00001 17.5523 6.00001 17C6.00001 16.4477 6.44772 16 7.00001 16H9.00001V6.47703L6.23692 7.58227L7.95223 12.9307C8.07276 13.3065 7.96099 13.718 7.66692 13.9812C6.95991 14.614 6.02384 15 5.00001 15C3.97617 15 3.0401 14.614 2.33309 13.9812C2.03902 13.718 1.92726 13.3065 2.04778 12.9307L3.78595 7.51101L2.55279 6.89443C2.05881 6.64744 1.85859 6.04676 2.10558 5.55279C2.35257 5.05881 2.95324 4.85858 3.44722 5.10557L5.04556 5.90474L9.00001 4.32297V3C9.00001 2.44772 9.44772 2 10 2ZM5.00001 10.2745L4.18177 12.8258C4.43135 12.9378 4.70804 13 5.00001 13C5.29198 13 5.56866 12.9378 5.81824 12.8258L5.00001 10.2745ZM15 10.2745L14.1818 12.8258C14.4314 12.9378 14.708 13 15 13C15.292 13 15.5687 12.9378 15.8182 12.8258L15 10.2745Z" fill="#6F6E77"/>
</svg>
