<svg fill="none" height="256" viewBox="0 0 256 256" width="256" xmlns="http://www.w3.org/2000/svg"><g clip-rule="evenodd" fill-rule="evenodd"><path d="m56.4835 183.994c-7.2185.018-13.346-2.018-18.3509-4.527-12.2646-6.149-18.3508-16.96-18.3508-32.234 0-15.269 6.1165-26.014 18.3508-32.229 5.0379-2.444 11.1531-3.956 18.3509-4.529h16.3973c3.5975 0 6.4054 1.509 8.4194 4.529 2.0141 3.017 3.0211 6.538 3.0211 10.563s-1.007 7.547-3.0211 10.565c-2.014 3.017-4.8219 4.527-8.4194 4.527h-16.3973c-4.3198 0-6.477 2.193-6.477 6.574 0 4.386 2.1572 6.591 6.477 6.579l58.2535-.274c3.598-.009 6.406 1.512 8.42 4.529 2.011 3.017 3.022 6.538 3.022 10.563s-1.008 7.547-3.022 10.565c-2.014 3.017-4.824 4.519-8.42 4.527z" fill="#01933f"/><path d="m206.93 172.348v-51.601c0-3.593 1.512-6.359 4.533-8.37 3.024-2.016 6.55-3.02 10.579-3.02s7.555 1.004 10.58 3.02c3.021 2.011 4.533 4.777 4.533 8.37v51.601c0 3.593-1.512 6.361-4.533 8.373-3.025 2.011-6.551 3.018-10.58 3.018s-7.555-1.007-10.579-3.018c-3.021-2.012-4.533-4.78-4.533-8.373z" fill="#01933f"/><path d="m222.042 101.164c-4.173 0-7.735-1.4739-10.686-4.4196-2.95-2.9471-4.426-6.5042-4.426-10.6727s1.476-7.7256 4.426-10.6727c2.951-2.9457 6.513-4.4172 10.686-4.4172 4.174 0 7.736 1.4715 10.686 4.4172 2.951 2.9471 4.427 6.5042 4.427 10.6727s-1.476 7.7256-4.427 10.6727c-2.95 2.9457-6.512 4.4196-10.686 4.4196z" fill="#83c21f"/><path d="m163.754 172.312v-25.871c0-4.311-2.16-6.469-6.477-6.469h-22.23c-15.254 0-25.979-6.108-32.167-18.326-2.446-5.029-3.9584-11.139-4.5348-18.325v-17.2493c0-3.5928 1.5133-6.397 4.5348-8.4085 3.023-2.0114 6.549-3.0171 10.579-3.0171 4.028 0 7.554 1.0057 10.578 3.0171 3.022 2.0115 4.534 4.8157 4.534 8.4085v17.2493c0 4.312 2.157 6.468 6.476 6.468h22.23c7.197.572 13.313 2.084 18.351 4.528 12.234 6.18 18.351 16.888 18.351 32.124v25.871c0 3.594-1.512 6.397-4.533 8.408-3.024 2.012-6.55 3.019-10.579 3.019-4.031 0-7.557-1.007-10.58-3.019-3.021-2.011-4.533-4.814-4.533-8.408z" fill="#01933f"/></g></svg>