<svg xmlns="http://www.w3.org/2000/svg" viewBox="0 0 80 80"><path d="M0 0h80v80H0zm47.68 66a12.72 12.72 0 006.16 6.12 17.62 17.62 0 0012.51.88 9.55 9.55 0 007.39-8.91A10 10 0 0070.08 55 22.77 22.77 0 0065 52c-1.64-.74-3.3-1.43-4.92-2.22a7.11 7.11 0 01-2-1.38 3.24 3.24 0 011.71-5.4 4.68 4.68 0 015.09 1.81c.3.4.57.81.88 1.25l5.81-3.74a10.81 10.81 0 00-7-5.61 14.9 14.9 0 00-6.2-.19c-4.77.85-8.09 4.18-8.44 8.86a10.17 10.17 0 003.35 8.84 21.55 21.55 0 005.85 3.44c1.5.66 3 1.32 4.46 2a6.57 6.57 0 011.51 1 3.37 3.37 0 01-.49 5.47 5 5 0 01-1.52.64 7.85 7.85 0 01-8.37-2.92c-.34-.44-.65-.9-1-1.39zm-26.6.83a11.23 11.23 0 005 5.43 14 14 0 0010.21.92 9 9 0 006.73-6.7 15.82 15.82 0 00.51-4.28V37.39a5.88 5.88 0 00-.07-.67H36v24.83a13.26 13.26 0 010 1.67 9 9 0 01-.43 1.85 2.66 2.66 0 01-2 1.71A4.5 4.5 0 0128.31 65c-.39-.57-.75-1.15-1.16-1.78z" fill="#f6de1e"/><path d="M47.68 66l6-3.51c.34.49.65 1 1 1.39a7.85 7.85 0 008.37 2.92 5 5 0 001.52-.64 3.37 3.37 0 00.49-5.47 6.57 6.57 0 00-1.51-1c-1.47-.71-3-1.37-4.46-2a21.55 21.55 0 01-5.85-3.44 10.17 10.17 0 01-3.35-8.84c.35-4.68 3.67-8 8.44-8.86a14.9 14.9 0 016.2.19 10.81 10.81 0 017 5.61l-5.81 3.74c-.31-.44-.58-.85-.88-1.25A4.68 4.68 0 0059.79 43a3.24 3.24 0 00-1.65 5.39 7.11 7.11 0 002 1.38c1.62.79 3.28 1.48 4.92 2.22a22.77 22.77 0 015.07 3 10 10 0 013.66 9.1A9.55 9.55 0 0166.35 73a17.62 17.62 0 01-12.51-.87A12.72 12.72 0 0147.68 66zm-26.6.85l6.07-3.68c.41.63.77 1.21 1.16 1.78a4.5 4.5 0 005.25 1.88 2.66 2.66 0 002-1.71 9 9 0 00.44-1.85 13.26 13.26 0 000-1.67V36.77c2.5-.08 4.95 0 7.46 0a5.88 5.88 0 01.07.67v24.78a15.82 15.82 0 01-.51 4.28 9 9 0 01-6.73 6.7 14 14 0 01-10.21-.92 11.23 11.23 0 01-5-5.43z" fill="#010100"/></svg>