<svg xmlns="http://www.w3.org/2000/svg" viewBox="0 0 80 80"><path d="M78.81 18.1a1.14 1.14 0 010 .33V35.6a1.24 1.24 0 01-.63 1.08L63.81 45v16.43a1.23 1.23 0 01-.62 1.08L33.1 79.83a.85.85 0 01-.22.09h-.08a1.38 1.38 0 01-.64 0h-.1a1.89 1.89 0 01-.21-.09L1.77 62.51a1.24 1.24 0 01-.63-1.08V9.91a1.26 1.26 0 01.05-.33 1 1 0 000-.1c0-.07.05-.13.08-.19l.09-.12A.76.76 0 011.51 9l.12-.1.14-.1 15-8.66a1.22 1.22 0 011.25 0l15 8.66.14.1.12.1a1.71 1.71 0 01.11.14.5.5 0 01.08.12 1.11 1.11 0 01.09.19v.11a1.12 1.12 0 010 .32v32.21l12.54-7.22V18.42a1.12 1.12 0 010-.32v-.11a1.63 1.63 0 01.09-.19.44.44 0 01.08-.11c0-.05.07-.11.11-.15l.12-.09.14-.11 15-8.66a1.27 1.27 0 011.25 0l15 8.66.14.11a.94.94 0 01.12.09s.07.1.11.15l.09.11c0 .06 0 .13.08.19s.37.07.38.11zm-2.46 16.77V20.59l-5.26 3-7.28 4.19v14.31l12.54-7.22zm-15 25.83V46.41l-7.19 4.09-20.43 11.66v14.42zM3.65 12.08V60.7l27.57 15.88V62.16L16.82 54l-.14-.1s-.08-.06-.11-.1a1.13 1.13 0 01-.1-.13.94.94 0 01-.09-.12l-.06-.15a.94.94 0 01-.06-.15 1.13 1.13 0 010-.18V19.3l-7.35-4.19-5.26-3zM17.44 2.7L4.91 9.91l12.53 7.22L30 9.91 17.44 2.7zm6.52 45l7.27-4.19V12.08l-5.27 3-7.27 4.22v31.45zm38.6-36.51L50 18.43l12.53 7.21 12.53-7.22zm-1.25 16.6L54 23.62l-5.27-3v14.25L56 39.06l5.27 3zM32.48 60l18.38-10.5L60 44.25 47.52 37l-14.41 8.3L20 52.91z" fill="#ff2d20" fill-rule="evenodd"/></svg>