<svg width="500" height="500" viewBox="0 0 500 500" fill="none" xmlns="http://www.w3.org/2000/svg">
<g clip-path="url(#clip0_1717_2814)">
<path d="M250 500C388.071 500 500 388.071 500 250C500 111.929 388.071 0 250 0C111.929 0 0 111.929 0 250C0 388.071 111.929 500 250 500Z" fill="#0B0C15"/>
<path d="M421.05 327.933L312.832 125.006C303.391 107.304 277.923 107.771 269.133 125.803L242.52 179.367C239.305 185.962 240.796 188.316 243.47 192.144C245.615 195.215 250.593 195.457 252.62 192.307C254.611 189.21 259.228 189.495 260.824 192.814L330.399 337.533C335.643 349.325 346.625 357.542 359.4 359.222L396.21 363.929C416.018 366.534 430.469 345.595 421.05 327.933Z" fill="#C9D3EE"/>
<path d="M277.106 341.924L215.863 165.462C209.061 145.865 180.544 146.714 174.962 166.678L156.331 233.35C154.217 240.919 153.405 245.296 156.336 252.595H163.411L189.131 334.785C193.114 344.702 201.341 352.4 211.625 355.826L249.968 368.602C266.783 374.204 282.832 358.428 277.106 341.924Z" fill="#C9D3EE"/>
<path d="M109.551 223.921L99.1872 313.816C98.1225 323.047 101.643 332.214 108.612 338.357L134.294 360.998C143.087 368.751 156.745 361.195 154.856 349.622L134.261 223.34C131.928 209.042 111.211 209.529 109.551 223.921Z" fill="#C9D3EE"/>
</g>
<defs>
<clipPath id="clip0_1717_2814">
<rect width="500" height="500" fill="white"/>
</clipPath>
</defs>
</svg>
