<svg id="root" fill="none" height="21" viewBox="0 0 154 21" width="154" xmlns="http://www.w3.org/2000/svg"><g fill="#ffffff"><path d="m39.7809 1.81949h-6.0652c-.1374 0-.2488.11136-.2488.24873v15.81168c0 .1374.1114.2488.2488.2488h6.2982c1.7241 0 3.0988-.4194 4.1239-1.2815 1.0251-.8387 1.561-2.027 1.561-3.5414 0-1.0251-.2563-1.8872-.7688-2.5862-.4064-.5357-.9153-.95419-1.5268-1.26717-.1902-.09738-.2077-.38735-.036-.51454.3454-.2558.6567-.58341.9337-.99081.3728-.55918.5825-1.21154.5825-1.93381 0-1.30473-.4893-2.32987-1.4213-3.07544-.9319-.74556-2.1668-1.11834-3.6812-1.11834zm1.6076 5.8946c-.4193.32618-1.0251.48927-1.8173.48927h-2.8267c-.1373 0-.2487-.11136-.2487-.24873v-3.41673c0-.13738.1114-.24874.2487-.24874h2.7801c.8155 0 1.4446.18639 1.8639.51258.4194.32618.6291.81546.6291 1.44452 0 .65237-.2097 1.14164-.6291 1.46783zm1.3514 5.42861c0 1.5377-1.0252 2.3066-3.0522 2.3066h-2.9432c-.1373 0-.2487-.1114-.2487-.2487v-4.139c0-.1374.1114-.2488.2487-.2488h2.9432c1.0252 0 1.7707.2097 2.2833.6058s.7689.9785.7689 1.7241z"/><path d="m57.9141 14.5071c.0363-.1512-.0814-.2926-.2369-.2926h-2.3103c-.1106 0-.2067.0734-.2444.1773-.1727.4757-.4586.8548-.8741 1.1041-.466.3029-1.0718.4427-1.794.4427-.9087 0-1.6542-.2796-2.2134-.8388-.526-.5049-.862-1.1619-.9908-1.9879-.0227-.1452.0929-.2721.2398-.2721h8.1627c.1299 0 .2383-.1.2473-.2297.0164-.2364.0296-.486.0296-.7488 0-.9786-.2097-1.88723-.6291-2.74928-.4194-.86206-1.0717-1.56102-1.9338-2.0969-.862-.53587-1.9105-.81545-3.1453-.81545s-2.2833.27958-3.1453.83875c-.8854.55917-1.5378 1.30474-1.9571 2.21339-.4427.90869-.6524 1.88719-.6524 2.95899 0 1.0717.233 2.0503.6989 2.9822.466.932 1.165 1.7008 2.0736 2.26.9087.5825 1.9804.862 3.2153.862 1.4445 0 2.656-.3727 3.6812-1.1183.9228-.6867 1.5095-1.5711 1.7785-2.6896zm-8.336-3.5545c-.1533 0-.2706-.1377-.2376-.2874.339-1.535 1.2993-2.32204 2.8809-2.32204.8154 0 1.4678.25628 1.9804.72226.4512.43068.7218.96968.8279 1.61698.0236.1444-.092.2702-.2382.2702z"/><path d="m62.1667 6.38606c-.1374 0-.2487-.11136-.2487-.24874v-2.94963c0-.16918-.1653-.289-.3261-.23641l-2.3683.7746c-.1022.03345-.1714.12883-.1714.23641v2.42377 2.39977 5.24227c0 1.3047.3728 2.3065 1.1417 3.0288.7455.7223 1.794 1.0718 3.0987 1.0718h1.6385c.1373 0 .2487-.1114.2487-.2488v-1.9256c0-.1374-.1114-.2487-.2487-.2487h-1.3123c-.5592 0-.9786-.1398-1.2581-.4427-.3029-.3029-.4427-.7456-.4427-1.3513v-4.87704c0-.13737.1113-.24873.2487-.24873h2.7644c.1373 0 .2487-.11136.2487-.24873v-1.90231c0-.13737-.1114-.24873-.2487-.24873z"/><path d="m69.7003 6.38606c-.1374 0-.2488-.11136-.2488-.24874v-2.94963c0-.16918-.1652-.289-.326-.23641l-2.3683.7746c-.1023.03345-.1714.12883-.1714.23641v2.42377 2.39977 5.24227c0 1.3047.3727 2.3065 1.1416 3.0288.7456.7223 1.794 1.0718 3.0987 1.0718h1.6385c.1374 0 .2488-.1114.2488-.2488v-1.9256c0-.1374-.1114-.2487-.2488-.2487h-1.3123c-.5591 0-.9785-.1398-1.2581-.4427-.3029-.3029-.4427-.7456-.4427-1.3513v-4.87704c0-.13737.1114-.24873.2488-.24873h2.7643c.1374 0 .2488-.11136.2488-.24873v-1.90231c0-.13737-.1114-.24873-.2488-.24873z"/><path d="m84.43 14.5071c.0364-.1512-.0813-.2926-.2369-.2926h-2.3102c-.1106 0-.2067.0734-.2445.1773-.1726.4757-.4585.8548-.874 1.1041-.466.3029-1.0718.4427-1.794.4427-.9087 0-1.6543-.2796-2.2134-.8388-.526-.5049-.862-1.1619-.9909-1.9879-.0226-.1452.093-.2721.2399-.2721h8.1626c.13 0 .2383-.1.2474-.2297.0164-.2364.0296-.486.0296-.7488 0-.9786-.2097-1.88723-.6291-2.74928-.4194-.86206-1.0717-1.56102-1.9338-2.0969-.8621-.53587-1.9105-.81545-3.1453-.81545-1.2349 0-2.2833.27958-3.1454.83875-.8853.55917-1.5377 1.30474-1.9571 2.21339-.4427.90869-.6523 1.88719-.6523 2.95899 0 1.0717.233 2.0503.6989 2.9822.466.932 1.165 1.7008 2.0736 2.26.9087.5825 1.9804.862 3.2153.862 1.4445 0 2.656-.3727 3.6812-1.1183.9228-.6867 1.5095-1.5711 1.7784-2.6896zm-8.336-3.5545c-.1532 0-.2705-.1377-.2375-.2874.3389-1.535 1.2992-2.32204 2.8809-2.32204.8154 0 1.4678.25628 1.9804.72226.4512.43068.7218.96968.8278 1.61698.0237.1444-.0919.2702-.2382.2702z"/><path d="m89.194 9.81098c.4193-.67567 1.0484-1.02515 1.9338-1.02515h1.5919c.1373 0 .2487-.11136.2487-.24873v-1.90231c0-.13737-.1114-.24873-.2487-.24873h-1.126c-.7688 0-1.3979.16309-1.8639.48927-.3531.24723-.6662.60154-.9188 1.08323-.0514.09809-.2228.06319-.2228-.04758v-1.27619c0-.13737-.1114-.24873-.2487-.24873h-2.3683c-.1374 0-.2487.11136-.2487.24873v11.19821c0 .1544.1391.2715.2912.2451l2.3683-.4111c.1192-.0207.2062-.1241.2062-.2451v-4.8384c0-1.1649.1864-2.0969.6058-2.77252z"/><path d="m99.1689 17.6161c.9321.466 2.0041.6989 3.2381.6989 1.189 0 2.237-.1863 3.169-.5824.909-.3961 1.631-.9553 2.144-1.7008.512-.7223.768-1.5844.768-2.5862 0-1.1184-.256-2.0037-.768-2.6561-.513-.6523-1.142-1.11831-1.841-1.3979-.699-.27958-1.631-.55917-2.749-.83876-.839-.18639-1.468-.34948-1.934-.51257s-.839-.39608-1.142-.69896c-.3026-.27959-.4424-.67567-.4424-1.16494 0-.55917.233-1.02515.6994-1.37463.466-.32619 1.095-.51258 1.91-.51258.839 0 1.538.23299 2.074.65237.459.39653.75.90522.872 1.50933.025.12217.129.21478.254.21478h2.457c.142 0 .256-.11866.243-.26-.079-.89571-.353-1.6944-.821-2.39606-.512-.74556-1.188-1.32803-2.073-1.74741-.886-.41938-1.888-.62907-3.006-.62907-1.095 0-2.074.20969-2.9123.58247-.862.37278-1.5377.90865-2.0037 1.60762-.466.69896-.699 1.46782-.699 2.35318 0 1.11834.233 1.98039.7456 2.63276s1.1183 1.14164 1.8173 1.44457c.699.3028 1.6311.5824 2.7491.862.792.2097 1.398.3961 1.864.5592s.839.3961 1.142.6756c.279.3029.442.6757.442 1.1417 0 .699-.279 1.2348-.815 1.6076s-1.258.5359-2.144.5359c-.978 0-1.747-.2563-2.329-.7922-.5555-.491-.8758-1.1385-.9793-1.9603-.0163-.1292-.1236-.2298-.2538-.2298h-2.469c-.1414 0-.2547.1178-.2444.2588.076 1.0347.3523 1.9487.8473 2.7235.5359.862 1.2582 1.5144 2.1901 1.9804z"/><path d="m113.275 6.38606c-.137 0-.248-.11136-.248-.24874v-2.94963c0-.16918-.166-.289-.327-.23641l-2.368.7746c-.102.03345-.171.12883-.171.23641v2.42377 2.39977 5.24227c0 1.3047.373 2.3065 1.141 3.0288.746.7223 1.794 1.0718 3.099 1.0718h1.639c.137 0 .248-.1114.248-.2488v-1.9256c0-.1374-.111-.2487-.248-.2487h-1.313c-.559 0-.978-.1398-1.258-.4427-.303-.3029-.442-.7456-.442-1.3513v-4.87704c0-.13737.111-.24873.248-.24873h2.765c.137 0 .248-.11136.248-.24873v-1.90231c0-.13737-.111-.24873-.248-.24873z"/><path d="m125.51 6.75884c-.769-.37278-1.654-.55917-2.633-.55917-1.001 0-1.887.18639-2.656.55917-.768.37278-1.374.86205-1.794 1.49112-.391.55652-.619 1.16776-.698 1.83364-.017.1423.097.2633.24.2633h2.06c.134 0 .242-.1057.262-.2374.072-.45544.297-.84521.676-1.18388.443-.37278 1.025-.58246 1.771-.58246.745 0 1.328.18639 1.747.55917s.652.83875.652 1.39797c0 .2562-.093.4426-.233.5824-.139.1398-.349.2097-.629.2097h-2.166c-1.328 0-2.4.3495-3.192 1.0019-.816.6756-1.212 1.5843-1.212 2.7026 0 .6757.163 1.2815.489 1.8173.327.5359.769.9553 1.375 1.2582.606.3028 1.281.4426 2.05.4426.839 0 1.561-.163 2.19-.5125.471-.2612.837-.5875 1.099-.9887.059-.0908.229-.0505.229.058v.9604c0 .1546.14.2718.292.2449l2.322-.4096c.119-.021.206-.1243.206-.245v-6.8427c0-.86202-.233-1.63087-.653-2.28324-.419-.65237-1.025-1.16494-1.794-1.53772zm-1.141 8.59726c-.513.5592-1.189.8388-2.074.8388-.559 0-1.002-.1398-1.328-.4194s-.489-.6291-.489-1.0951c0-.5125.186-.9086.559-1.2348.373-.3029.862-.466 1.468-.466h2.446c.103 0 .186.0835.186.1864 0 .9087-.256 1.6309-.768 2.1901z"/><path d="m131.833 17.5229c.886.5359 1.934.7921 3.146.7921.978 0 1.887-.1863 2.702-.5591.816-.3728 1.491-.8854 2.004-1.561.455-.5791.763-1.2498.924-1.9961.033-.1498-.085-.2872-.238-.2872h-2.399c-.115 0-.215.0804-.249.191-.161.5138-.467.9184-.904 1.2302-.489.3495-1.072.5126-1.724.5126-.978 0-1.747-.3262-2.283-1.0019-.559-.6523-.816-1.5144-.816-2.5861 0-1.0485.257-1.9105.793-2.58621.535-.65237 1.281-1.00185 2.26-1.00185.675 0 1.258.20969 1.77.58247.452.32853.741.74755.883 1.22519.033.1129.134.196.251.196h2.364c.148 0 .264-.1281.241-.2739-.123-.77119-.414-1.45093-.873-2.05594-.513-.67567-1.188-1.21154-2.004-1.58432-.838-.37278-1.724-.55917-2.702-.55917-1.212 0-2.26.27958-3.146.81545-.908.53588-1.607 1.25814-2.097 2.19009-.489.93199-.722 1.93379-.722 3.05219 0 1.1183.233 2.1434.722 3.0754.49.9319 1.189 1.6542 2.097 2.1901z"/><path d="m149.81 18.0223c.046.0666.123.1064.204.1064h2.854c.203 0 .321-.2304.201-.3948l-4.759-6.5598c-.073-.1003-.06-.2389.029-.325l4.178-4.0354c.161-.1554.051-.42764-.173-.42764h-2.919c-.064 0-.126.0246-.172.0687l-4.004 3.81754c-.159.1509-.421.0387-.421-.1801v-8.39563c0-.16919-.165-.289-.326-.23641l-2.368.7746c-.102.03344-.171.12883-.171.23641v15.40873c0 .1374.111.2488.248.2488h2.369c.137 0 .248-.1114.248-.2488v-3.5366c0-.0675.028-.132.076-.1789l1.112-1.0751c.111-.1064.29-.0891.377.0365z"/><path d="m25.4694 17.0768-8.5583-16.04826c-.7466-1.399958-2.7607-1.362955-3.4559.06307l-2.1046 4.23601c-.2543.52158-.1364.70773.0751 1.01048.1696.24283.5633.26199.7236.01287.1575-.24493.5226-.22237.6488.04011l5.5023 11.44492c.4147.9326 1.2832 1.5824 2.2935 1.7153l2.9111.3722c1.5665.206 2.7093-1.4499 1.9644-2.8467z"/><path d="m14.0858 18.1833-4.84338-13.95529c-.53793-1.5498-2.79317-1.48268-3.23456.09616l-1.47346 5.27266c-.16712.59857-.2314.94477.00045 1.52197h.5595l2.03401 6.4999c.315.7843.96566 1.3931 1.77897 1.664l3.03227 1.0104c1.3298.443 2.599-.8046 2.1462-2.1098z"/><path d="m.834857 8.85118-.8196064 7.10922c-.0842004.73.1941994 1.455.7453294 1.9408l2.03101 1.7905c.69544.6132 1.77558.0156 1.62618-.8996l-1.62873-9.98687c-.18456-1.13079-1.822921-1.09222-1.954183.04595z"/></g></svg>
