<svg width="20" height="20" viewBox="0 0 20 20" fill="none" xmlns="http://www.w3.org/2000/svg">
<g clip-path="url(#clip0_285_457)">
<path d="M8.33333 10.8359H11.6667C12.1267 10.8359 12.5 11.2093 12.5 11.6693V19.1693C12.5 19.6293 12.1267 20.0026 11.6667 20.0026H8.33333C7.87333 20.0026 7.5 19.6293 7.5 19.1693V11.6693C7.5 11.2093 7.87333 10.8359 8.33333 10.8359Z" fill="white"/>
<path d="M15.8333 14.1641H19.1667C19.6267 14.1641 20 14.5374 20 14.9974V19.1641C20 19.6241 19.6267 19.9974 19.1667 19.9974H15.8333C15.3733 19.9974 15 19.6241 15 19.1641V14.9974C15 14.5374 15.3733 14.1641 15.8333 14.1641Z" fill="white"/>
<path d="M0.833333 7.5H4.16667C4.62667 7.5 5 7.87333 5 8.33333V19.1667C5 19.6267 4.62667 20 4.16667 20H0.833333C0.373333 20 0 19.6267 0 19.1667V8.33333C0 7.87333 0.373333 7.5 0.833333 7.5Z" fill="white"/>
<path d="M11.1783 0.83271L16.4225 6.07688L16.4225 3.08854L18.0892 3.08854L18.0892 8.08854C18.0892 8.54854 17.7158 8.92188 17.2558 8.92188L12.2558 8.92188L12.2558 7.25521L15.2442 7.25521L10.5892 2.60021L7.845 5.34438C7.51917 5.67021 6.9925 5.67021 6.66667 5.34438L2.5 1.17771L3.67833 -0.000624451L7.25583 3.57688L10 0.83271C10.3258 0.506876 10.8525 0.506876 11.1783 0.83271Z" fill="white"/>
</g>
<defs>
<clipPath id="clip0_285_457">
<rect width="20" height="20" fill="white" transform="matrix(-1 0 0 1 20 0)"/>
</clipPath>
</defs>
</svg>
