<svg width="20" height="20" viewBox="0 0 20 20" fill="none" xmlns="http://www.w3.org/2000/svg">
<path d="M20 3.75H10V6.25H20V3.75Z" fill="white"/>
<path d="M1.25 8.75H6.25C6.58152 8.75 6.89946 8.6183 7.13388 8.38388C7.3683 8.14946 7.5 7.83152 7.5 7.5V2.5C7.5 2.16848 7.3683 1.85054 7.13388 1.61612C6.89946 1.3817 6.58152 1.25 6.25 1.25H1.25C0.918479 1.25 0.600537 1.3817 0.366117 1.61612C0.131696 1.85054 0 2.16848 0 2.5L0 7.5C0 7.83152 0.131696 8.14946 0.366117 8.38388C0.600537 8.6183 0.918479 8.75 1.25 8.75ZM2.5 3.75H5V6.25H2.5V3.75Z" fill="white"/>
<path d="M20 13.75H10V16.25H20V13.75Z" fill="white"/>
<path d="M7.77489 10.4666L3.64739 15.6229L2.13489 14.1104C1.90001 13.876 1.58163 13.7445 1.24981 13.7449C0.91799 13.7452 0.599898 13.8774 0.365513 14.1122C0.131128 14.3471 -0.000350927 14.6655 7.03497e-07 14.9973C0.000352334 15.3291 0.132505 15.6472 0.367388 15.8816L2.86739 18.3816C3.10175 18.6161 3.41964 18.7478 3.75114 18.7479H3.81989C3.99544 18.7383 4.167 18.6919 4.32337 18.6115C4.47975 18.5312 4.61742 18.4188 4.72739 18.2816L9.72739 12.0316C9.82998 11.9034 9.90632 11.7563 9.95205 11.5986C9.99777 11.4408 10.012 11.2757 9.99388 11.1125C9.97577 10.9493 9.9257 10.7912 9.84651 10.6474C9.76733 10.5036 9.66059 10.3767 9.53239 10.2741C9.40419 10.1715 9.25703 10.0952 9.09932 10.0495C8.94162 10.0037 8.77645 9.98952 8.61325 10.0076C8.45005 10.0257 8.29202 10.0758 8.14817 10.155C8.00432 10.2342 7.87748 10.3409 7.77489 10.4691V10.4666Z" fill="white"/>
</svg>
