<svg width="1240" height="36" viewBox="0 0 1240 36" fill="none" xmlns="http://www.w3.org/2000/svg">
<g opacity="0.4">
<g clip-path="url(#clip0_95_503)">
<path d="M26.3489 18.0715V4.51793H30.0665V6.14436C30.7177 5.03296 31.8846 4.24686 33.5941 4.24686C35.6021 4.24686 36.9589 5.11429 37.6916 6.57807C38.4243 5.1685 39.781 4.24686 41.8976 4.24686C45.0996 4.24686 46.7006 6.41543 46.7006 9.7225V18.0715H42.9559V10.3189C42.9559 8.61111 42.2775 7.49971 40.7308 7.49971C39.2112 7.49971 38.37 8.61111 38.37 10.3189V18.0715H34.6524V10.3189C34.6524 8.61111 33.9469 7.49971 32.4273 7.49971C30.8805 7.49971 30.0665 8.61111 30.0665 10.3189V18.0715H26.3489Z" fill="white"/>
<path d="M55.2854 18.3426C59.5185 18.3426 62.3407 15.144 62.3407 11.3219C62.3407 7.49977 59.4914 4.27402 55.2854 4.27402C51.0522 4.27402 48.2301 7.47266 48.2301 11.3219C48.2301 15.144 51.0522 18.3426 55.2854 18.3426ZM55.2854 14.9271C53.5216 14.9271 51.9477 13.626 51.9477 11.3219C51.9477 8.99066 53.5216 7.68952 55.2854 7.68952C57.0492 7.68952 58.6231 8.99066 58.6231 11.3219C58.6231 13.626 57.0492 14.9271 55.2854 14.9271Z" fill="white"/>
<path d="M64.1544 18.0986V4.51793H67.872V6.33411C68.5504 5.11429 69.7987 4.24686 71.6168 4.24686C74.9002 4.24686 76.664 6.49675 76.664 9.83093V18.0986H72.9193V10.4273C72.9193 8.66532 72.1595 7.49971 70.4771 7.49971C68.7675 7.49971 67.872 8.66532 67.872 10.4273V18.0986H64.1544Z" fill="white"/>
<path d="M88.7204 4.51798V6.38838C87.7978 5.03302 86.2511 4.27402 84.4601 4.27402C81.041 4.27402 78.1918 6.95762 78.1918 11.2948C78.1918 15.659 81.041 18.3426 84.4601 18.3426C86.2511 18.3426 87.7978 17.5836 88.7204 16.2283V18.0987H92.438V4.51798H88.7204ZM85.3556 15.0084C83.5918 15.0084 82.0722 13.626 82.0722 11.3219C82.0722 8.99066 83.5918 7.6082 85.3556 7.6082C87.1194 7.6082 88.639 8.99066 88.639 11.3219C88.639 13.626 87.1194 15.0084 85.3556 15.0084Z" fill="white"/>
</g>
<g clip-path="url(#clip1_95_503)">
<path fill-rule="evenodd" clip-rule="evenodd" d="M10.3425 0C4.63049 0 0 4.62562 0 10.3316V10.8827C0 16.5886 4.63049 21.2143 10.3425 21.2143H10.6183H19.7197C20.5574 21.2143 21.2366 20.5358 21.2366 19.699V10.6071V10.3316C21.2366 4.62562 16.6061 0 10.8941 0H10.3425ZM4.5507 9.09185C4.5507 7.83649 5.56941 6.81887 6.82604 6.81887C8.08272 6.81887 9.10141 7.83649 9.10141 9.09185V13.5836C9.10141 14.032 8.7376 14.3954 8.28878 14.3954H5.36334C4.91453 14.3954 4.5507 14.032 4.5507 13.5836V9.09185ZM14.4106 6.81887C13.1539 6.81887 12.1352 7.83649 12.1352 9.09185V13.5836C12.1352 14.032 12.499 14.3954 12.9478 14.3954H15.8732C16.3221 14.3954 16.6859 14.032 16.6859 13.5836V9.09185C16.6859 7.83649 15.6672 6.81887 14.4106 6.81887Z" fill="url(#paint0_linear_95_503)"/>
<path fill-rule="evenodd" clip-rule="evenodd" d="M10.3425 0C4.63049 0 0 4.62562 0 10.3316V10.8827C0 16.5886 4.63049 21.2143 10.3425 21.2143H10.6183H19.7197C20.5574 21.2143 21.2366 20.5358 21.2366 19.699V10.6071V10.3316C21.2366 4.62562 16.6061 0 10.8941 0H10.3425ZM4.5507 9.09185C4.5507 7.83649 5.56941 6.81887 6.82604 6.81887C8.08272 6.81887 9.10141 7.83649 9.10141 9.09185V13.5836C9.10141 14.032 8.7376 14.3954 8.28878 14.3954H5.36334C4.91453 14.3954 4.5507 14.032 4.5507 13.5836V9.09185ZM14.4106 6.81887C13.1539 6.81887 12.1352 7.83649 12.1352 9.09185V13.5836C12.1352 14.032 12.499 14.3954 12.9478 14.3954H15.8732C16.3221 14.3954 16.6859 14.032 16.6859 13.5836V9.09185C16.6859 7.83649 15.6672 6.81887 14.4106 6.81887Z" fill="white"/>
</g>
<path fill-rule="evenodd" clip-rule="evenodd" d="M187.274 21.9997V16.3943C187.39 16.4874 187.498 16.5775 187.601 16.6636C187.824 16.8502 188.027 17.019 188.243 17.1639C190.534 18.6984 194.033 18.1424 195.982 15.9176C197.602 14.0687 198.038 11.884 197.627 9.52008C197.072 6.35588 195.013 3.91648 191.478 3.798C189.822 3.74297 188.34 4.15342 187.227 5.4846C187.208 5.50746 187.179 5.52185 187.133 5.54489C187.105 5.55852 187.072 5.57518 187.03 5.5984V4.2607H183.301V21.9997H187.274ZM190.465 14.2851C188.64 14.286 187.11 12.744 187.097 10.8904H187.098C187.168 9.37367 188.206 7.53407 190.424 7.52747C191.318 7.52373 192.176 7.87907 192.806 8.51394C193.436 9.14882 193.785 10.01 193.774 10.9045C193.755 12.7822 192.29 14.2841 190.465 14.2851Z" fill="white"/>
<path fill-rule="evenodd" clip-rule="evenodd" d="M209.349 21.9997V16.4592C209.518 16.5747 209.678 16.693 209.836 16.8091C210.169 17.0538 210.488 17.2885 210.836 17.4654C213.35 18.739 216.763 17.8204 218.471 15.4213C219.898 13.4154 220.162 11.186 219.556 8.8569C218.919 6.41129 217.51 4.59549 214.936 4.01228C212.801 3.52875 210.783 3.76166 209.234 5.56628C209.229 5.57255 209.21 5.56767 209.179 5.55952C209.159 5.55434 209.134 5.54785 209.105 5.54206V4.2806H205.389V21.9997H209.349ZM212.538 14.2941C210.707 14.2875 209.18 12.7475 209.174 10.8991L209.173 10.8982C209.248 9.37116 210.295 7.54504 212.508 7.54504C213.404 7.541 214.263 7.89681 214.892 8.5323C215.522 9.16786 215.868 10.0296 215.854 10.9233C215.826 12.8034 214.37 14.3006 212.538 14.2941Z" fill="white"/>
<path fill-rule="evenodd" clip-rule="evenodd" d="M224.486 11.8142H234.216C234.784 9.02296 233.297 5.10488 229.35 4.04698C225.608 3.04731 221.933 5.08607 220.902 8.66915C219.846 12.34 221.87 16.0977 225.492 17.1556C229.292 18.2663 232.656 16.0663 233.83 13.0449C233.827 13.0419 233.823 13.038 233.82 13.0342C233.813 13.0265 233.807 13.0189 233.801 13.0189C233.514 13.0183 233.226 13.0168 232.939 13.0152C232.061 13.0106 231.184 13.0059 230.307 13.0261C230.043 13.036 229.792 13.1348 229.596 13.3056C228.771 14.0974 227.795 14.3303 226.684 14.1512C225.451 13.9496 224.494 12.9393 224.486 11.8142ZM227.039 7.06929C228.783 6.94478 230.107 7.78143 230.382 9.23165H224.584C224.613 8.24903 225.693 7.16514 227.039 7.06929Z" fill="white"/>
<path d="M158.709 21.9998V21.6465C158.709 17.2245 158.703 12.8024 158.709 8.37678C158.713 6.09045 160.243 4.20669 162.481 3.86687C163.464 3.71803 164.488 3.84177 165.561 3.84177V4.21385C165.561 8.5612 165.561 12.9085 165.561 17.2559C165.561 20.0353 163.592 21.9855 160.796 21.9953C160.126 22.0016 159.45 21.9998 158.709 21.9998Z" fill="white"/>
<path d="M167.846 14.391V0.000214019C169.117 0.066283 170.384 -0.158352 171.612 0.283367C173.421 0.92103 174.651 2.67697 174.686 4.67034C174.71 6.27488 174.7 7.8794 174.694 9.48393C174.682 12.2211 172.929 14.2031 170.32 14.392C169.512 14.441 168.699 14.391 167.846 14.391Z" fill="white"/>
<path d="M203.104 17.4478H199.296V4.55151H203.104V17.4478Z" fill="white"/>
<path d="M203.104 0V3.03442H199.296V0H203.104Z" fill="white"/>
<path d="M327.372 2.2569H333.717C334.338 2.2569 334.936 2.32579 335.533 2.46358C336.131 2.62433 336.66 2.85397 337.142 3.17547C337.602 3.51993 337.97 3.93329 338.269 4.46147C338.568 4.98965 338.706 5.60968 338.706 6.34454C338.706 7.26311 338.453 8.02093 337.924 8.61801C337.395 9.21508 336.729 9.6514 335.878 9.90401V9.94993C336.913 10.0877 337.74 10.4781 338.407 11.1441C339.073 11.81 339.395 12.6827 339.395 13.785C339.395 14.6806 339.211 15.4154 338.867 16.0125C338.522 16.6325 338.062 17.1148 337.487 17.4822C336.913 17.8497 336.246 18.1023 335.51 18.263C334.752 18.4238 333.993 18.5156 333.234 18.5156H327.372V2.2569ZM330.269 8.87061H332.844C333.809 8.87061 334.545 8.6869 335.05 8.29651C335.556 7.90611 335.809 7.37793 335.809 6.66604C335.809 5.93118 335.556 5.40301 335.027 5.10447C334.499 4.80593 333.694 4.64518 332.591 4.64518H330.269V8.87061ZM330.269 16.0814H332.867C333.234 16.0814 333.625 16.0584 334.062 15.9895C334.499 15.9436 334.89 15.8288 335.257 15.668C335.602 15.5073 335.901 15.2547 336.154 14.9332C336.384 14.6117 336.499 14.1754 336.499 13.6472C336.499 12.7975 336.2 12.2004 335.625 11.856C335.05 11.5115 334.154 11.3508 332.981 11.3508H330.269V16.0814Z" fill="white"/>
<path d="M348.969 17.0906H348.9C348.624 17.5729 348.188 17.9862 347.567 18.2848C346.946 18.6063 346.257 18.767 345.475 18.767C345.038 18.767 344.579 18.7211 344.096 18.6063C343.59 18.4914 343.153 18.2848 342.762 18.0092C342.349 17.7566 342.004 17.3892 341.751 16.9528C341.475 16.5165 341.337 15.9883 341.337 15.3453C341.337 14.5186 341.567 13.8527 342.05 13.3704C342.51 12.8882 343.107 12.4978 343.843 12.2452C344.579 11.9926 345.406 11.8088 346.303 11.717C347.199 11.6481 348.073 11.6022 348.923 11.6022V11.3266C348.923 10.6377 348.67 10.1325 348.188 9.78799C347.682 9.46649 347.084 9.30574 346.395 9.30574C345.82 9.30574 345.245 9.42056 344.716 9.67317C344.188 9.92577 343.728 10.2243 343.383 10.5688L341.958 8.89238C342.579 8.31827 343.314 7.88195 344.142 7.58342C344.946 7.28488 345.774 7.14709 346.625 7.14709C347.613 7.14709 348.418 7.28488 349.061 7.56045C349.682 7.83602 350.188 8.20345 350.556 8.63977C350.923 9.07609 351.176 9.58131 351.337 10.1325C351.475 10.6836 351.544 11.2347 351.544 11.7859V18.4914H348.969V17.0906ZM348.923 13.4623H348.303C347.866 13.4623 347.383 13.4852 346.9 13.5082C346.418 13.5541 345.958 13.646 345.544 13.7608C345.13 13.8986 344.785 14.0823 344.51 14.3119C344.234 14.5646 344.096 14.8861 344.096 15.2994C344.096 15.552 344.165 15.7817 344.28 15.9424C344.395 16.1261 344.533 16.2639 344.716 16.3787C344.9 16.4936 345.107 16.5625 345.337 16.6084C345.567 16.6543 345.797 16.6773 346.027 16.6773C346.969 16.6773 347.705 16.4247 348.188 15.9194C348.67 15.4142 348.923 14.7253 348.923 13.8527V13.4623Z" fill="white"/>
<path d="M360.806 10.408C360.553 10.0865 360.231 9.81092 359.794 9.55831C359.357 9.32867 358.897 9.21385 358.392 9.21385C357.955 9.21385 357.541 9.30571 357.173 9.48942C356.806 9.67314 356.622 9.97167 356.622 10.408C356.622 10.8443 356.829 11.1428 357.242 11.3036C357.633 11.4873 358.231 11.671 359.012 11.8547C359.426 11.9466 359.84 12.0614 360.277 12.2222C360.691 12.3829 361.081 12.5666 361.426 12.8192C361.771 13.0719 362.047 13.3934 362.254 13.7608C362.461 14.1512 362.576 14.6105 362.576 15.1386C362.576 15.8046 362.461 16.3787 362.208 16.838C361.955 17.3202 361.61 17.6877 361.196 17.9862C360.76 18.2847 360.277 18.4914 359.725 18.6292C359.15 18.744 358.576 18.8129 357.978 18.8129C357.127 18.8129 356.277 18.6522 355.472 18.3307C354.668 18.0321 353.978 17.5729 353.449 16.9987L355.265 15.2994C355.564 15.6898 355.978 16.0342 356.461 16.2868C356.943 16.5395 357.495 16.6772 358.093 16.6772C358.3 16.6772 358.507 16.6543 358.714 16.6084C358.92 16.5624 359.104 16.4935 359.288 16.3787C359.449 16.2868 359.587 16.1491 359.702 15.9883C359.817 15.8276 359.863 15.6209 359.863 15.3683C359.863 14.909 359.656 14.5875 359.242 14.3808C358.806 14.1741 358.185 13.9904 357.334 13.7837C356.92 13.6919 356.53 13.5771 356.139 13.4163C355.748 13.2785 355.38 13.0948 355.081 12.8422C354.783 12.6126 354.53 12.314 354.346 11.9696C354.162 11.6251 354.07 11.1888 354.07 10.6606C354.07 10.0406 354.208 9.51239 354.461 9.07606C354.691 8.63974 355.035 8.27231 355.449 7.97378C355.863 7.69821 356.323 7.49153 356.852 7.35374C357.38 7.21596 357.909 7.14706 358.461 7.14706C359.265 7.14706 360.047 7.28485 360.806 7.56042C361.564 7.83599 362.162 8.24935 362.599 8.82346L360.806 10.408Z" fill="white"/>
<path d="M372.721 11.8777C372.721 11.5333 372.675 11.1888 372.583 10.8673C372.468 10.5458 372.307 10.2702 372.1 10.0176C371.893 9.76502 371.617 9.58131 371.295 9.42056C370.951 9.28277 370.56 9.21388 370.123 9.21388C369.295 9.21388 368.606 9.46649 368.031 9.94874C367.456 10.454 367.134 11.097 367.066 11.8777H372.721ZM375.479 13.1178V13.4852C375.479 13.6001 375.479 13.7378 375.456 13.8527H367.066C367.088 14.2431 367.203 14.6105 367.387 14.932C367.548 15.2765 367.778 15.552 368.077 15.7817C368.376 16.0343 368.698 16.218 369.065 16.3558C369.433 16.4936 369.824 16.5625 370.215 16.5625C370.905 16.5625 371.479 16.4247 371.962 16.1721C372.445 15.9195 372.836 15.575 373.134 15.1387L374.974 16.6084C373.893 18.0781 372.307 18.813 370.238 18.813C369.387 18.813 368.583 18.6752 367.87 18.3996C367.157 18.147 366.514 17.7566 366.008 17.2743C365.479 16.7921 365.066 16.195 364.767 15.4602C364.445 14.7483 364.307 13.9445 364.307 13.0489C364.307 12.1533 364.445 11.3496 364.767 10.6147C365.066 9.90281 365.456 9.28277 365.985 8.75459C366.514 8.24938 367.134 7.85899 367.847 7.56045C368.56 7.28488 369.318 7.14709 370.146 7.14709C370.905 7.14709 371.617 7.26192 372.284 7.51452C372.928 7.76713 373.479 8.15752 373.962 8.63977C374.445 9.14499 374.813 9.76502 375.088 10.4999C375.341 11.2577 375.479 12.1303 375.479 13.1178Z" fill="white"/>
<path d="M378.302 2.2569H384.072C385.13 2.2569 386.187 2.39468 387.268 2.67025C388.348 2.94583 389.313 3.40511 390.164 4.02515C391.015 4.66815 391.727 5.49486 392.256 6.52825C392.785 7.58461 393.061 8.84765 393.061 10.3863C393.061 11.81 392.785 13.0271 392.256 14.0605C391.727 15.0939 391.015 15.9207 390.164 16.5866C389.313 17.2526 388.348 17.7348 387.268 18.0334C386.187 18.3549 385.13 18.5156 384.072 18.5156H378.302V2.2569ZM383.612 15.9895C384.371 15.9895 385.107 15.8977 385.865 15.714C386.624 15.5532 387.29 15.2547 387.911 14.8184C388.509 14.405 388.992 13.8309 389.382 13.119C389.773 12.4071 389.957 11.4885 389.957 10.3863C389.957 9.21508 389.773 8.27354 389.382 7.53868C388.992 6.80383 388.509 6.22972 387.911 5.81636C387.29 5.40301 386.624 5.12743 385.865 4.96668C385.107 4.80593 384.371 4.73704 383.612 4.73704H381.199V15.9895H383.612Z" fill="white"/>
<path d="M402.567 17.0906H402.498C402.222 17.5728 401.785 17.9862 401.165 18.2847C400.544 18.6062 399.854 18.767 399.073 18.767C398.636 18.767 398.176 18.7211 397.693 18.6062C397.188 18.4914 396.751 18.2847 396.36 18.0092C395.946 17.7566 395.601 17.3891 395.348 16.9528C395.073 16.5165 394.935 15.9883 394.935 15.3453C394.935 14.5186 395.165 13.8526 395.647 13.3704C396.107 12.8881 396.705 12.4977 397.44 12.2451C398.176 11.9925 399.004 11.8088 399.9 11.717C400.797 11.6481 401.67 11.6021 402.521 11.6021V11.3266C402.521 10.6376 402.268 10.1324 401.785 9.78796C401.28 9.46646 400.682 9.30571 399.992 9.30571C399.417 9.30571 398.843 9.42053 398.314 9.67313C397.785 9.92574 397.325 10.2243 396.981 10.5687L395.555 8.89235C396.176 8.31824 396.912 7.88192 397.739 7.58339C398.544 7.28485 399.371 7.14706 400.222 7.14706C401.211 7.14706 402.015 7.28485 402.659 7.56042C403.279 7.83599 403.785 8.20342 404.153 8.63974C404.521 9.07606 404.774 9.58128 404.935 10.1324C405.073 10.6836 405.142 11.2347 405.142 11.7858V18.4914H402.567V17.0906ZM402.521 13.4622H401.9C401.463 13.4622 400.981 13.4852 400.498 13.5082C400.015 13.5541 399.555 13.646 399.142 13.7608C398.728 13.8986 398.383 14.0823 398.107 14.3119C397.831 14.5645 397.693 14.886 397.693 15.2994C397.693 15.552 397.762 15.7816 397.877 15.9424C397.992 16.1261 398.13 16.2639 398.314 16.3787C398.498 16.4935 398.705 16.5624 398.935 16.6083C399.165 16.6543 399.394 16.6772 399.624 16.6772C400.567 16.6772 401.302 16.4246 401.785 15.9194C402.268 15.4142 402.521 14.7253 402.521 13.8526V13.4622Z" fill="white"/>
<path d="M414.403 10.408C414.15 10.0865 413.828 9.81095 413.392 9.55834C412.955 9.3287 412.495 9.21388 411.989 9.21388C411.552 9.21388 411.139 9.30574 410.771 9.48945C410.403 9.67317 410.219 9.9717 410.219 10.408C410.219 10.8443 410.426 11.1429 410.84 11.3036C411.231 11.4873 411.828 11.6711 412.61 11.8548C413.024 11.9466 413.438 12.0615 413.874 12.2222C414.288 12.383 414.679 12.5667 415.024 12.8193C415.369 13.0719 415.644 13.3934 415.851 13.7608C416.058 14.1512 416.173 14.6105 416.173 15.1387C416.173 15.8046 416.058 16.3787 415.805 16.838C415.552 17.3203 415.208 17.6877 414.794 17.9862C414.357 18.2848 413.874 18.4915 413.323 18.6292C412.748 18.7441 412.173 18.813 411.575 18.813C410.725 18.813 409.874 18.6522 409.07 18.3307C408.265 18.0322 407.575 17.5729 407.047 16.9988L408.863 15.2994C409.162 15.6898 409.575 16.0343 410.058 16.2869C410.541 16.5395 411.093 16.6773 411.69 16.6773C411.897 16.6773 412.104 16.6543 412.311 16.6084C412.518 16.5625 412.702 16.4936 412.886 16.3787C413.047 16.2869 413.185 16.1491 413.3 15.9883C413.415 15.8276 413.461 15.6209 413.461 15.3683C413.461 14.909 413.254 14.5875 412.84 14.3808C412.403 14.1742 411.782 13.9905 410.932 13.7838C410.518 13.6919 410.127 13.5771 409.736 13.4163C409.346 13.2786 408.978 13.0948 408.679 12.8422C408.38 12.6126 408.127 12.3141 407.943 11.9696C407.759 11.6251 407.667 11.1888 407.667 10.6606C407.667 10.0406 407.805 9.51242 408.058 9.07609C408.288 8.63977 408.633 8.27234 409.047 7.97381C409.461 7.69824 409.92 7.49156 410.449 7.35377C410.978 7.21599 411.507 7.14709 412.058 7.14709C412.863 7.14709 413.644 7.28488 414.403 7.56045C415.162 7.83602 415.759 8.24938 416.196 8.82349L414.403 10.408Z" fill="white"/>
<path d="M424.719 7.14494C425.432 7.14494 426.052 7.25976 426.581 7.51236C427.087 7.76497 427.501 8.10943 427.845 8.52279C428.167 8.93615 428.397 9.4184 428.558 9.94658C428.719 10.4748 428.788 11.0259 428.788 11.6V18.4893H426.029V12.4267C426.029 12.1052 426.006 11.7608 425.96 11.4163C425.914 11.0718 425.822 10.7733 425.685 10.4748C425.524 10.1992 425.317 9.96954 425.064 9.78583C424.788 9.60211 424.42 9.51025 423.983 9.51025C423.547 9.51025 423.156 9.60211 422.834 9.76286C422.512 9.92361 422.236 10.1533 422.029 10.4288C421.822 10.7274 421.662 11.0489 421.547 11.3933C421.432 11.7378 421.386 12.1052 421.386 12.4726V18.4893H418.627V1.1283H421.386V9.00504H421.432C421.547 8.7754 421.708 8.54576 421.914 8.31611C422.121 8.10943 422.351 7.90276 422.627 7.71904C422.903 7.55829 423.225 7.42051 423.57 7.30568C423.914 7.19086 424.305 7.14494 424.719 7.14494Z" fill="white"/>
<path d="M314.505 20.0001C316.082 20.0001 317.361 18.7229 317.361 17.1474C317.361 15.5719 316.082 14.2947 314.505 14.2947C312.928 14.2947 311.649 15.5719 311.649 17.1474C311.649 18.7229 312.928 20.0001 314.505 20.0001Z" fill="white"/>
<path fill-rule="evenodd" clip-rule="evenodd" d="M310.222 17.1472C310.222 15.5725 308.943 14.2945 307.366 14.2945H303.083C301.506 14.2945 300.227 15.5725 300.227 17.1472C300.227 18.7219 301.506 19.9999 303.083 19.9999H307.366C308.943 19.9999 310.222 18.7219 310.222 17.1472Z" fill="white"/>
<path d="M309.514 12.8526C311.092 12.8526 312.37 11.5754 312.37 9.99991C312.37 8.42441 311.092 7.14722 309.514 7.14722C307.937 7.14722 306.659 8.42441 306.659 9.99991C306.659 11.5754 307.937 12.8526 309.514 12.8526Z" fill="white"/>
<path fill-rule="evenodd" clip-rule="evenodd" d="M321.668 9.99998C321.668 8.42529 320.387 7.14728 318.812 7.14728H316.67C315.094 7.14728 313.814 8.42529 313.814 9.99998C313.814 11.5747 315.094 12.8527 316.67 12.8527H318.812C320.387 12.8527 321.668 11.5747 321.668 9.99998Z" fill="white"/>
<path d="M318.805 5.70539C320.382 5.70539 321.66 4.4282 321.66 2.8527C321.66 1.2772 320.382 0 318.805 0C317.228 0 315.949 1.2772 315.949 2.8527C315.949 4.4282 317.228 5.70539 318.805 5.70539Z" fill="white"/>
<path fill-rule="evenodd" clip-rule="evenodd" d="M314.521 2.8527C314.521 1.27801 313.241 0 311.666 0H304.526C302.95 0 301.671 1.27801 301.671 2.8527C301.671 4.42739 302.95 5.7054 304.526 5.7054H311.666C313.241 5.7054 314.521 4.42739 314.521 2.8527Z" fill="white"/>
<path d="M507.544 6.00723C507.53 6.00001 501.503 9.53363 501.503 9.53363V21.0951L508.499 25.1787L517.539 19.9012V22.9378C517.539 22.9378 511.776 26.274 509.181 27.782C508.672 28.0771 508.442 28.2126 508.442 28.2126L498.604 22.4543V7.99511L504.776 4.39246C504.776 4.39246 507.53 6.00001 507.544 6.00723Z" fill="white"/>
<path d="M514.755 16.2479C514.755 14.9131 514.753 13.7541 514.756 12.5959C514.759 11.6881 514.755 9.20766 514.755 9.20766L504.855 3.42959L497.787 7.55526V17.8977L495.151 16.3592V5.98805L504.964 0.260193L517.539 7.6001V14.6234L514.755 16.2479Z" fill="white"/>
<path d="M502.33 17.3663L508.426 20.9249L518.366 15.1227V7.00317C518.366 7.00317 518.149 6.86955 517.635 6.57528C515.13 5.13819 509.639 1.91944 509.333 1.7311C510.16 1.24663 511.941 0.20874 511.941 0.20874L521.012 5.50327V16.8397L508.493 24.1473L502.33 20.55V17.3663Z" fill="white"/>
<path d="M533.427 13.4805C534.77 13.4805 535.747 12.4121 535.747 11.0172C535.747 9.59974 534.77 8.55377 533.427 8.55377H530.627V13.4805H533.427ZM533.427 5.55576C534.951 5.55576 536.249 6.0913 537.295 7.13641C538.342 8.18239 538.865 9.48315 538.865 11.0172C538.865 12.5512 538.342 13.8528 537.295 14.8979C536.249 15.9448 534.951 16.4786 533.427 16.4786H530.627V21.8234H527.488V5.55576H533.427Z" fill="white"/>
<path d="M545.438 19.2189C546.326 19.2189 547.055 18.9175 547.646 18.3128C548.238 17.7082 548.534 16.9412 548.534 16.0118C548.534 15.0824 548.238 14.3154 547.646 13.7117C547.055 13.1071 546.326 12.8048 545.438 12.8048C544.551 12.8048 543.824 13.1071 543.233 13.7117C542.663 14.3154 542.368 15.0824 542.368 16.0118C542.368 16.9412 542.663 17.7082 543.233 18.3128C543.824 18.9175 544.551 19.2189 545.438 19.2189ZM545.438 22.1469C543.755 22.1469 542.322 21.5656 541.161 20.3806C540 19.1956 539.432 17.7315 539.432 16.0118C539.432 14.2921 540 12.8514 541.161 11.6664C542.322 10.4813 543.755 9.87671 545.438 9.87671C547.123 9.87671 548.557 10.4813 549.717 11.6664C550.876 12.8514 551.469 14.2921 551.469 16.0118C551.469 17.7315 550.876 19.1956 549.717 20.3806C548.557 21.5656 547.123 22.1469 545.438 22.1469Z" fill="white"/>
<path d="M556.248 12.2032C556.794 10.7159 558.159 9.97217 559.707 9.97217V13.3182C558.819 13.2016 557.999 13.3873 557.294 13.8762C556.589 14.3643 556.248 15.1546 556.248 16.2697V21.8235H553.312V10.2045H556.248V12.2032Z" fill="white"/>
<path d="M574.745 19.2888C575.657 19.2888 576.406 18.9865 576.997 18.3828C577.612 17.7548 577.909 16.9645 577.909 16.0118C577.909 15.0591 577.612 14.2688 576.997 13.665C576.406 13.0371 575.657 12.7347 574.745 12.7347C573.836 12.7347 573.085 13.0371 572.492 13.665C571.902 14.2688 571.605 15.0591 571.605 16.0118C571.605 16.9645 571.902 17.7548 572.492 18.3828C573.085 18.9865 573.836 19.2888 574.745 19.2888ZM577.909 10.2023H580.844V21.8213H577.909V20.4505C577.021 21.5889 575.792 22.1469 574.199 22.1469C572.675 22.1469 571.379 21.5656 570.285 20.3806C569.215 19.1956 568.67 17.7315 568.67 16.0118C568.67 14.2921 569.215 12.8514 570.285 11.6664C571.379 10.4813 572.675 9.87671 574.199 9.87671C575.792 9.87671 577.021 10.4346 577.909 11.573V10.2023Z" fill="white"/>
<path d="M583.252 21.8234V4.8587H586.187V21.8234H583.252Z" fill="white"/>
<path d="M567.16 13.0845V10.203H564.589V7.90387H561.655V17.9179C561.655 21.1017 563.132 22.2867 567.16 21.8221V19.1039C565.477 19.1963 564.589 19.173 564.589 17.9179V13.0845H567.16Z" fill="white"/>
<path d="M680.093 2.2569H686.437C687.058 2.2569 687.656 2.32579 688.253 2.46358C688.851 2.62433 689.38 2.85397 689.863 3.17547C690.322 3.51993 690.69 3.93329 690.989 4.46147C691.288 4.98965 691.426 5.60968 691.426 6.34454C691.426 7.26311 691.173 8.02093 690.644 8.61801C690.115 9.21508 689.449 9.6514 688.598 9.90401V9.94993C689.633 10.0877 690.46 10.4781 691.127 11.1441C691.794 11.81 692.115 12.6827 692.115 13.785C692.115 14.6806 691.932 15.4154 691.587 16.0125C691.242 16.6325 690.782 17.1148 690.207 17.4822C689.633 17.8497 688.966 18.1023 688.23 18.263C687.472 18.4238 686.713 18.5156 685.955 18.5156H680.093V2.2569ZM682.989 8.87061H685.564C686.529 8.87061 687.265 8.6869 687.771 8.29651C688.276 7.90611 688.529 7.37793 688.529 6.66604C688.529 5.93118 688.276 5.40301 687.748 5.10447C687.219 4.80593 686.414 4.64518 685.311 4.64518H682.989V8.87061ZM682.989 16.0814H685.587C685.955 16.0814 686.345 16.0584 686.782 15.9895C687.219 15.9436 687.61 15.8288 687.978 15.668C688.322 15.5073 688.621 15.2547 688.874 14.9332C689.104 14.6117 689.219 14.1754 689.219 13.6472C689.219 12.7975 688.92 12.2004 688.345 11.856C687.771 11.5115 686.874 11.3508 685.702 11.3508H682.989V16.0814Z" fill="white"/>
<path d="M701.69 17.0906H701.621C701.345 17.5729 700.908 17.9862 700.287 18.2848C699.667 18.6063 698.977 18.767 698.195 18.767C697.759 18.767 697.299 18.7211 696.816 18.6063C696.31 18.4914 695.873 18.2848 695.483 18.0092C695.069 17.7566 694.724 17.3892 694.471 16.9528C694.195 16.5165 694.057 15.9883 694.057 15.3453C694.057 14.5186 694.287 13.8527 694.77 13.3704C695.23 12.8882 695.827 12.4978 696.563 12.2452C697.299 11.9926 698.126 11.8088 699.023 11.717C699.919 11.6481 700.793 11.6022 701.644 11.6022V11.3266C701.644 10.6377 701.391 10.1325 700.908 9.78799C700.402 9.46649 699.804 9.30574 699.115 9.30574C698.54 9.30574 697.965 9.42056 697.437 9.67317C696.908 9.92577 696.448 10.2243 696.103 10.5688L694.678 8.89238C695.299 8.31827 696.034 7.88195 696.862 7.58342C697.667 7.28488 698.494 7.14709 699.345 7.14709C700.333 7.14709 701.138 7.28488 701.781 7.56045C702.402 7.83602 702.908 8.20345 703.276 8.63977C703.644 9.07609 703.896 9.58131 704.057 10.1325C704.195 10.6836 704.264 11.2347 704.264 11.7859V18.4914H701.69V17.0906ZM701.644 13.4623H701.023C700.586 13.4623 700.103 13.4852 699.621 13.5082C699.138 13.5541 698.678 13.646 698.264 13.7608C697.85 13.8986 697.506 14.0823 697.23 14.3119C696.954 14.5646 696.816 14.8861 696.816 15.2994C696.816 15.552 696.885 15.7817 697 15.9424C697.115 16.1261 697.253 16.2639 697.437 16.3787C697.621 16.4936 697.827 16.5625 698.057 16.6084C698.287 16.6543 698.517 16.6773 698.747 16.6773C699.69 16.6773 700.425 16.4247 700.908 15.9194C701.391 15.4142 701.644 14.7253 701.644 13.8527V13.4623Z" fill="white"/>
<path d="M713.526 10.408C713.273 10.0865 712.951 9.81092 712.514 9.55831C712.077 9.32867 711.618 9.21385 711.112 9.21385C710.675 9.21385 710.261 9.30571 709.894 9.48942C709.526 9.67314 709.342 9.97167 709.342 10.408C709.342 10.8443 709.549 11.1428 709.963 11.3036C710.353 11.4873 710.951 11.671 711.733 11.8547C712.146 11.9466 712.56 12.0614 712.997 12.2222C713.411 12.3829 713.802 12.5666 714.146 12.8192C714.491 13.0719 714.767 13.3934 714.974 13.7608C715.181 14.1512 715.296 14.6105 715.296 15.1386C715.296 15.8046 715.181 16.3787 714.928 16.838C714.675 17.3202 714.33 17.6877 713.917 17.9862C713.48 18.2847 712.997 18.4914 712.445 18.6292C711.871 18.744 711.296 18.8129 710.698 18.8129C709.848 18.8129 708.997 18.6522 708.192 18.3307C707.388 18.0321 706.698 17.5729 706.169 16.9987L707.986 15.2994C708.284 15.6898 708.698 16.0342 709.181 16.2868C709.664 16.5395 710.215 16.6772 710.813 16.6772C711.02 16.6772 711.227 16.6543 711.434 16.6084C711.641 16.5624 711.825 16.4935 712.008 16.3787C712.169 16.2868 712.307 16.1491 712.422 15.9883C712.537 15.8276 712.583 15.6209 712.583 15.3683C712.583 14.909 712.376 14.5875 711.963 14.3808C711.526 14.1741 710.905 13.9904 710.054 13.7837C709.641 13.6919 709.25 13.5771 708.859 13.4163C708.468 13.2785 708.1 13.0948 707.802 12.8422C707.503 12.6126 707.25 12.314 707.066 11.9696C706.882 11.6251 706.79 11.1888 706.79 10.6606C706.79 10.0406 706.928 9.51239 707.181 9.07606C707.411 8.63974 707.756 8.27231 708.169 7.97378C708.583 7.69821 709.043 7.49153 709.572 7.35374C710.1 7.21596 710.629 7.14706 711.181 7.14706C711.986 7.14706 712.767 7.28485 713.526 7.56042C714.284 7.83599 714.882 8.24935 715.319 8.82346L713.526 10.408Z" fill="white"/>
<path d="M725.441 11.8777C725.441 11.5333 725.395 11.1888 725.303 10.8673C725.188 10.5458 725.027 10.2702 724.82 10.0176C724.613 9.76502 724.337 9.58131 724.016 9.42056C723.671 9.28277 723.28 9.21388 722.843 9.21388C722.016 9.21388 721.326 9.46649 720.751 9.94874C720.177 10.454 719.855 11.097 719.786 11.8777H725.441ZM728.199 13.1178V13.4852C728.199 13.6001 728.199 13.7378 728.177 13.8527H719.786C719.809 14.2431 719.924 14.6105 720.108 14.932C720.268 15.2765 720.498 15.552 720.797 15.7817C721.096 16.0343 721.418 16.218 721.786 16.3558C722.154 16.4936 722.544 16.5625 722.935 16.5625C723.625 16.5625 724.2 16.4247 724.682 16.1721C725.165 15.9195 725.556 15.575 725.855 15.1387L727.694 16.6084C726.613 18.0781 725.027 18.813 722.958 18.813C722.108 18.813 721.303 18.6752 720.59 18.3996C719.878 18.147 719.234 17.7566 718.728 17.2743C718.2 16.7921 717.786 16.195 717.487 15.4602C717.165 14.7483 717.027 13.9445 717.027 13.0489C717.027 12.1533 717.165 11.3496 717.487 10.6147C717.786 9.90281 718.177 9.28277 718.705 8.75459C719.234 8.24938 719.855 7.85899 720.567 7.56045C721.28 7.28488 722.039 7.14709 722.866 7.14709C723.625 7.14709 724.337 7.26192 725.004 7.51452C725.648 7.76713 726.199 8.15752 726.682 8.63977C727.165 9.14499 727.533 9.76502 727.809 10.4999C728.062 11.2577 728.199 12.1303 728.199 13.1178Z" fill="white"/>
<path d="M731.022 2.2569H736.792C737.85 2.2569 738.907 2.39468 739.988 2.67025C741.068 2.94583 742.034 3.40511 742.884 4.02515C743.735 4.66815 744.447 5.49486 744.976 6.52825C745.505 7.58461 745.781 8.84765 745.781 10.3863C745.781 11.81 745.505 13.0271 744.976 14.0605C744.447 15.0939 743.735 15.9207 742.884 16.5866C742.034 17.2526 741.068 17.7348 739.988 18.0334C738.907 18.3549 737.85 18.5156 736.792 18.5156H731.022V2.2569ZM736.333 15.9895C737.091 15.9895 737.827 15.8977 738.585 15.714C739.344 15.5532 740.011 15.2547 740.631 14.8184C741.229 14.405 741.712 13.8309 742.103 13.119C742.493 12.4071 742.677 11.4885 742.677 10.3863C742.677 9.21508 742.493 8.27354 742.103 7.53868C741.712 6.80383 741.229 6.22972 740.631 5.81636C740.011 5.40301 739.344 5.12743 738.585 4.96668C737.827 4.80593 737.091 4.73704 736.333 4.73704H733.919V15.9895H736.333Z" fill="white"/>
<path d="M755.287 17.0906H755.218C754.942 17.5728 754.505 17.9862 753.885 18.2847C753.264 18.6062 752.574 18.767 751.793 18.767C751.356 18.767 750.896 18.7211 750.414 18.6062C749.908 18.4914 749.471 18.2847 749.08 18.0092C748.666 17.7566 748.322 17.3891 748.069 16.9528C747.793 16.5165 747.655 15.9883 747.655 15.3453C747.655 14.5186 747.885 13.8526 748.368 13.3704C748.827 12.8881 749.425 12.4977 750.161 12.2451C750.896 11.9925 751.724 11.8088 752.62 11.717C753.517 11.6481 754.391 11.6021 755.241 11.6021V11.3266C755.241 10.6376 754.988 10.1324 754.505 9.78796C754 9.46646 753.402 9.30571 752.712 9.30571C752.138 9.30571 751.563 9.42053 751.034 9.67313C750.505 9.92574 750.046 10.2243 749.701 10.5687L748.276 8.89235C748.896 8.31824 749.632 7.88192 750.459 7.58339C751.264 7.28485 752.092 7.14706 752.942 7.14706C753.931 7.14706 754.735 7.28485 755.379 7.56042C756 7.83599 756.505 8.20342 756.873 8.63974C757.241 9.07606 757.494 9.58128 757.655 10.1324C757.793 10.6836 757.862 11.2347 757.862 11.7858V18.4914H755.287V17.0906ZM755.241 13.4622H754.62C754.184 13.4622 753.701 13.4852 753.218 13.5082C752.735 13.5541 752.276 13.646 751.862 13.7608C751.448 13.8986 751.103 14.0823 750.827 14.3119C750.551 14.5645 750.414 14.886 750.414 15.2994C750.414 15.552 750.482 15.7816 750.597 15.9424C750.712 16.1261 750.85 16.2639 751.034 16.3787C751.218 16.4935 751.425 16.5624 751.655 16.6083C751.885 16.6543 752.115 16.6772 752.345 16.6772C753.287 16.6772 754.023 16.4246 754.505 15.9194C754.988 15.4142 755.241 14.7253 755.241 13.8526V13.4622Z" fill="white"/>
<path d="M767.123 10.408C766.87 10.0865 766.549 9.81095 766.112 9.55834C765.675 9.3287 765.215 9.21388 764.709 9.21388C764.273 9.21388 763.859 9.30574 763.491 9.48945C763.123 9.67317 762.939 9.9717 762.939 10.408C762.939 10.8443 763.146 11.1429 763.56 11.3036C763.951 11.4873 764.549 11.6711 765.33 11.8548C765.744 11.9466 766.158 12.0615 766.595 12.2222C767.008 12.383 767.399 12.5667 767.744 12.8193C768.089 13.0719 768.365 13.3934 768.572 13.7608C768.778 14.1512 768.893 14.6105 768.893 15.1387C768.893 15.8046 768.778 16.3787 768.526 16.838C768.273 17.3203 767.928 17.6877 767.514 17.9862C767.077 18.2848 766.595 18.4915 766.043 18.6292C765.468 18.7441 764.893 18.813 764.296 18.813C763.445 18.813 762.595 18.6522 761.79 18.3307C760.985 18.0322 760.296 17.5729 759.767 16.9988L761.583 15.2994C761.882 15.6898 762.296 16.0343 762.778 16.2869C763.261 16.5395 763.813 16.6773 764.411 16.6773C764.618 16.6773 764.824 16.6543 765.031 16.6084C765.238 16.5625 765.422 16.4936 765.606 16.3787C765.767 16.2869 765.905 16.1491 766.02 15.9883C766.135 15.8276 766.181 15.6209 766.181 15.3683C766.181 14.909 765.974 14.5875 765.56 14.3808C765.123 14.1742 764.503 13.9905 763.652 13.7838C763.238 13.6919 762.847 13.5771 762.457 13.4163C762.066 13.2786 761.698 13.0948 761.399 12.8422C761.1 12.6126 760.847 12.3141 760.664 11.9696C760.48 11.6251 760.388 11.1888 760.388 10.6606C760.388 10.0406 760.526 9.51242 760.778 9.07609C761.008 8.63977 761.353 8.27234 761.767 7.97381C762.181 7.69824 762.641 7.49156 763.169 7.35377C763.698 7.21599 764.227 7.14709 764.778 7.14709C765.583 7.14709 766.365 7.28488 767.123 7.56045C767.882 7.83602 768.48 8.24938 768.916 8.82349L767.123 10.408Z" fill="white"/>
<path d="M777.439 7.14494C778.152 7.14494 778.773 7.25976 779.301 7.51236C779.807 7.76497 780.221 8.10943 780.566 8.52279C780.888 8.93615 781.117 9.4184 781.278 9.94658C781.439 10.4748 781.508 11.0259 781.508 11.6V18.4893H778.75V12.4267C778.75 12.1052 778.727 11.7608 778.681 11.4163C778.635 11.0718 778.543 10.7733 778.405 10.4748C778.244 10.1992 778.037 9.96954 777.784 9.78583C777.508 9.60211 777.14 9.51025 776.704 9.51025C776.267 9.51025 775.876 9.60211 775.554 9.76286C775.232 9.92361 774.956 10.1533 774.75 10.4288C774.543 10.7274 774.382 11.0489 774.267 11.3933C774.152 11.7378 774.106 12.1052 774.106 12.4726V18.4893H771.347V1.1283H774.106V9.00504H774.152C774.267 8.7754 774.428 8.54576 774.635 8.31611C774.842 8.10943 775.071 7.90276 775.347 7.71904C775.623 7.55829 775.945 7.42051 776.29 7.30568C776.635 7.19086 777.025 7.14494 777.439 7.14494Z" fill="white"/>
<path d="M667.225 20.0001C668.802 20.0001 670.081 18.7229 670.081 17.1474C670.081 15.5719 668.802 14.2947 667.225 14.2947C665.648 14.2947 664.37 15.5719 664.37 17.1474C664.37 18.7229 665.648 20.0001 667.225 20.0001Z" fill="white"/>
<path fill-rule="evenodd" clip-rule="evenodd" d="M662.942 17.1472C662.942 15.5725 661.663 14.2945 660.086 14.2945H655.803C654.227 14.2945 652.947 15.5725 652.947 17.1472C652.947 18.7219 654.227 19.9999 655.803 19.9999H660.086C661.663 19.9999 662.942 18.7219 662.942 17.1472Z" fill="white"/>
<path d="M662.235 12.8526C663.812 12.8526 665.09 11.5754 665.09 9.99991C665.09 8.42441 663.812 7.14722 662.235 7.14722C660.657 7.14722 659.379 8.42441 659.379 9.99991C659.379 11.5754 660.657 12.8526 662.235 12.8526Z" fill="white"/>
<path fill-rule="evenodd" clip-rule="evenodd" d="M674.388 9.99998C674.388 8.42529 673.108 7.14728 671.532 7.14728H669.39C667.815 7.14728 666.535 8.42529 666.535 9.99998C666.535 11.5747 667.815 12.8527 669.39 12.8527H671.532C673.108 12.8527 674.388 11.5747 674.388 9.99998Z" fill="white"/>
<path d="M671.525 5.70539C673.102 5.70539 674.381 4.4282 674.381 2.8527C674.381 1.2772 673.102 0 671.525 0C669.948 0 668.669 1.2772 668.669 2.8527C668.669 4.4282 669.948 5.70539 671.525 5.70539Z" fill="white"/>
<path fill-rule="evenodd" clip-rule="evenodd" d="M667.241 2.8527C667.241 1.27801 665.961 0 664.386 0H657.246C655.671 0 654.391 1.27801 654.391 2.8527C654.391 4.42739 655.671 5.7054 657.246 5.7054H664.386C665.961 5.7054 667.241 4.42739 667.241 2.8527Z" fill="white"/>
<g clip-path="url(#clip2_95_503)">
<path d="M873.751 18.0715V4.51793H877.469V6.14436C878.12 5.03296 879.287 4.24686 880.997 4.24686C883.005 4.24686 884.362 5.11429 885.094 6.57807C885.827 5.1685 887.184 4.24686 889.3 4.24686C892.502 4.24686 894.103 6.41543 894.103 9.7225V18.0715H890.358V10.3189C890.358 8.61111 889.68 7.49971 888.133 7.49971C886.614 7.49971 885.773 8.61111 885.773 10.3189V18.0715H882.055V10.3189C882.055 8.61111 881.349 7.49971 879.83 7.49971C878.283 7.49971 877.469 8.61111 877.469 10.3189V18.0715H873.751Z" fill="white"/>
<path d="M902.688 18.3426C906.921 18.3426 909.743 15.144 909.743 11.3219C909.743 7.49977 906.894 4.27402 902.688 4.27402C898.455 4.27402 895.633 7.47266 895.633 11.3219C895.633 15.144 898.455 18.3426 902.688 18.3426ZM902.688 14.9271C900.924 14.9271 899.35 13.626 899.35 11.3219C899.35 8.99066 900.924 7.68952 902.688 7.68952C904.452 7.68952 906.026 8.99066 906.026 11.3219C906.026 13.626 904.452 14.9271 902.688 14.9271Z" fill="white"/>
<path d="M911.557 18.0986V4.51793H915.275V6.33411C915.953 5.11429 917.201 4.24686 919.019 4.24686C922.303 4.24686 924.067 6.49675 924.067 9.83093V18.0986H920.322V10.4273C920.322 8.66532 919.562 7.49971 917.88 7.49971C916.17 7.49971 915.275 8.66532 915.275 10.4273V18.0986H911.557Z" fill="white"/>
<path d="M936.123 4.51798V6.38838C935.201 5.03302 933.654 4.27402 931.863 4.27402C928.444 4.27402 925.594 6.95762 925.594 11.2948C925.594 15.659 928.444 18.3426 931.863 18.3426C933.654 18.3426 935.201 17.5836 936.123 16.2283V18.0987H939.841V4.51798H936.123ZM932.758 15.0084C930.994 15.0084 929.475 13.626 929.475 11.3219C929.475 8.99066 930.994 7.6082 932.758 7.6082C934.522 7.6082 936.042 8.99066 936.042 11.3219C936.042 13.626 934.522 15.0084 932.758 15.0084Z" fill="white"/>
</g>
<g clip-path="url(#clip3_95_503)">
<path fill-rule="evenodd" clip-rule="evenodd" d="M857.745 0C852.033 0 847.403 4.62562 847.403 10.3316V10.8827C847.403 16.5886 852.033 21.2143 857.745 21.2143H858.021H867.122C867.96 21.2143 868.639 20.5358 868.639 19.699V10.6071V10.3316C868.639 4.62562 864.009 0 858.297 0H857.745ZM851.953 9.09185C851.953 7.83649 852.972 6.81887 854.229 6.81887C855.485 6.81887 856.504 7.83649 856.504 9.09185V13.5836C856.504 14.032 856.14 14.3954 855.691 14.3954H852.766C852.317 14.3954 851.953 14.032 851.953 13.5836V9.09185ZM861.813 6.81887C860.556 6.81887 859.538 7.83649 859.538 9.09185V13.5836C859.538 14.032 859.902 14.3954 860.35 14.3954H863.276C863.725 14.3954 864.089 14.032 864.089 13.5836V9.09185C864.089 7.83649 863.07 6.81887 861.813 6.81887Z" fill="url(#paint1_linear_95_503)"/>
<path fill-rule="evenodd" clip-rule="evenodd" d="M857.745 0C852.033 0 847.403 4.62562 847.403 10.3316V10.8827C847.403 16.5886 852.033 21.2143 857.745 21.2143H858.021H867.122C867.96 21.2143 868.639 20.5358 868.639 19.699V10.6071V10.3316C868.639 4.62562 864.009 0 858.297 0H857.745ZM851.953 9.09185C851.953 7.83649 852.972 6.81887 854.229 6.81887C855.485 6.81887 856.504 7.83649 856.504 9.09185V13.5836C856.504 14.032 856.14 14.3954 855.691 14.3954H852.766C852.317 14.3954 851.953 14.032 851.953 13.5836V9.09185ZM861.813 6.81887C860.556 6.81887 859.538 7.83649 859.538 9.09185V13.5836C859.538 14.032 859.902 14.3954 860.35 14.3954H863.276C863.725 14.3954 864.089 14.032 864.089 13.5836V9.09185C864.089 7.83649 863.07 6.81887 861.813 6.81887Z" fill="white"/>
</g>
<g clip-path="url(#clip4_95_503)">
<path d="M1018.97 6.00723C1018.96 6.00001 1012.93 9.53363 1012.93 9.53363V21.0951L1019.93 25.1787L1028.97 19.9012V22.9378C1028.97 22.9378 1023.2 26.274 1020.61 27.782C1020.1 28.0771 1019.87 28.2126 1019.87 28.2126L1010.03 22.4543V7.99511L1016.2 4.39246C1016.2 4.39246 1018.96 6.00001 1018.97 6.00723Z" fill="white"/>
<path d="M1026.18 16.2479C1026.18 14.9131 1026.18 13.7541 1026.18 12.5959C1026.19 11.6881 1026.18 9.20766 1026.18 9.20766L1016.28 3.42959L1009.21 7.55526V17.8977L1006.58 16.3592V5.98805L1016.39 0.260193L1028.97 7.6001V14.6234L1026.18 16.2479Z" fill="white"/>
<path d="M1013.76 17.3663L1019.85 20.9249L1029.79 15.1227V7.00317C1029.79 7.00317 1029.58 6.86955 1029.06 6.57528C1026.56 5.13819 1021.07 1.91944 1020.76 1.7311C1021.59 1.24663 1023.37 0.20874 1023.37 0.20874L1032.44 5.50327V16.8397L1019.92 24.1473L1013.76 20.55V17.3663Z" fill="white"/>
<path d="M1044.85 13.4805C1046.2 13.4805 1047.17 12.4121 1047.17 11.0172C1047.17 9.59974 1046.2 8.55377 1044.85 8.55377H1042.05V13.4805H1044.85ZM1044.85 5.55576C1046.38 5.55576 1047.68 6.0913 1048.72 7.13641C1049.77 8.18239 1050.29 9.48315 1050.29 11.0172C1050.29 12.5512 1049.77 13.8528 1048.72 14.8979C1047.68 15.9448 1046.38 16.4786 1044.85 16.4786H1042.05V21.8234H1038.91V5.55576H1044.85Z" fill="white"/>
<path d="M1056.86 19.2189C1057.75 19.2189 1058.48 18.9175 1059.07 18.3128C1059.66 17.7082 1059.96 16.9412 1059.96 16.0118C1059.96 15.0824 1059.66 14.3154 1059.07 13.7117C1058.48 13.1071 1057.75 12.8048 1056.86 12.8048C1055.98 12.8048 1055.25 13.1071 1054.66 13.7117C1054.09 14.3154 1053.79 15.0824 1053.79 16.0118C1053.79 16.9412 1054.09 17.7082 1054.66 18.3128C1055.25 18.9175 1055.98 19.2189 1056.86 19.2189ZM1056.86 22.1469C1055.18 22.1469 1053.75 21.5656 1052.59 20.3806C1051.43 19.1956 1050.86 17.7315 1050.86 16.0118C1050.86 14.2921 1051.43 12.8514 1052.59 11.6664C1053.75 10.4813 1055.18 9.87671 1056.86 9.87671C1058.55 9.87671 1059.98 10.4813 1061.14 11.6664C1062.3 12.8514 1062.9 14.2921 1062.9 16.0118C1062.9 17.7315 1062.3 19.1956 1061.14 20.3806C1059.98 21.5656 1058.55 22.1469 1056.86 22.1469Z" fill="white"/>
<path d="M1067.67 12.2032C1068.22 10.7159 1069.59 9.97217 1071.13 9.97217V13.3182C1070.25 13.2016 1069.43 13.3873 1068.72 13.8762C1068.02 14.3643 1067.67 15.1546 1067.67 16.2697V21.8235H1064.74V10.2045H1067.67V12.2032Z" fill="white"/>
<path d="M1086.17 19.2888C1087.08 19.2888 1087.83 18.9865 1088.42 18.3828C1089.04 17.7548 1089.34 16.9645 1089.34 16.0118C1089.34 15.0591 1089.04 14.2688 1088.42 13.665C1087.83 13.0371 1087.08 12.7347 1086.17 12.7347C1085.26 12.7347 1084.51 13.0371 1083.92 13.665C1083.33 14.2688 1083.03 15.0591 1083.03 16.0118C1083.03 16.9645 1083.33 17.7548 1083.92 18.3828C1084.51 18.9865 1085.26 19.2888 1086.17 19.2888ZM1089.34 10.2023H1092.27V21.8213H1089.34V20.4505C1088.45 21.5889 1087.22 22.1469 1085.63 22.1469C1084.1 22.1469 1082.81 21.5656 1081.71 20.3806C1080.64 19.1956 1080.1 17.7315 1080.1 16.0118C1080.1 14.2921 1080.64 12.8514 1081.71 11.6664C1082.81 10.4813 1084.1 9.87671 1085.63 9.87671C1087.22 9.87671 1088.45 10.4346 1089.34 11.573V10.2023Z" fill="white"/>
<path d="M1094.68 21.8234V4.8587H1097.61V21.8234H1094.68Z" fill="white"/>
<path d="M1078.59 13.0845V10.203H1076.02V7.90387H1073.08V17.9179C1073.08 21.1017 1074.56 22.2867 1078.59 21.8221V19.1039C1076.9 19.1963 1076.02 19.173 1076.02 17.9179V13.0845H1078.59Z" fill="white"/>
</g>
<path fill-rule="evenodd" clip-rule="evenodd" d="M1192.94 21.9997V16.3943C1193.06 16.4874 1193.17 16.5775 1193.27 16.6636C1193.49 16.8502 1193.69 17.019 1193.91 17.1639C1196.2 18.6984 1199.7 18.1424 1201.65 15.9176C1203.27 14.0687 1203.71 11.884 1203.29 9.52008C1202.74 6.35588 1200.68 3.91648 1197.15 3.798C1195.49 3.74297 1194.01 4.15342 1192.89 5.4846C1192.88 5.50746 1192.85 5.52185 1192.8 5.54489C1192.77 5.55852 1192.74 5.57518 1192.7 5.5984V4.2607H1188.97V21.9997H1192.94ZM1196.13 14.2851C1194.31 14.286 1192.78 12.744 1192.76 10.8904H1192.77C1192.84 9.37367 1193.87 7.53407 1196.09 7.52747C1196.99 7.52373 1197.84 7.87907 1198.47 8.51394C1199.1 9.14882 1199.45 10.01 1199.44 10.9045C1199.42 12.7822 1197.96 14.2841 1196.13 14.2851Z" fill="white"/>
<path fill-rule="evenodd" clip-rule="evenodd" d="M1215.02 21.9997V16.4592C1215.18 16.5747 1215.35 16.693 1215.5 16.8091C1215.84 17.0538 1216.16 17.2885 1216.5 17.4654C1219.02 18.739 1222.43 17.8204 1224.14 15.4213C1225.57 13.4154 1225.83 11.186 1225.22 8.8569C1224.59 6.41129 1223.18 4.59549 1220.6 4.01228C1218.47 3.52875 1216.45 3.76166 1214.9 5.56628C1214.9 5.57255 1214.88 5.56767 1214.85 5.55952C1214.83 5.55434 1214.8 5.54785 1214.77 5.54206V4.2806H1211.06V21.9997H1215.02ZM1218.21 14.2941C1216.37 14.2875 1214.85 12.7475 1214.84 10.8991L1214.84 10.8982C1214.92 9.37116 1215.96 7.54504 1218.18 7.54504C1219.07 7.541 1219.93 7.89681 1220.56 8.5323C1221.19 9.16786 1221.54 10.0296 1221.52 10.9233C1221.49 12.8034 1220.04 14.3006 1218.21 14.2941Z" fill="white"/>
<path fill-rule="evenodd" clip-rule="evenodd" d="M1230.15 11.8142H1239.88C1240.45 9.02296 1238.96 5.10488 1235.02 4.04698C1231.28 3.04731 1227.6 5.08607 1226.57 8.66915C1225.51 12.34 1227.54 16.0977 1231.16 17.1556C1234.96 18.2663 1238.32 16.0663 1239.5 13.0449C1239.49 13.0419 1239.49 13.038 1239.49 13.0342C1239.48 13.0265 1239.47 13.0189 1239.47 13.0189C1239.18 13.0183 1238.89 13.0168 1238.61 13.0152C1237.73 13.0106 1236.85 13.0059 1235.97 13.0261C1235.71 13.036 1235.46 13.1348 1235.26 13.3056C1234.44 14.0974 1233.46 14.3303 1232.35 14.1512C1231.12 13.9496 1230.16 12.9393 1230.15 11.8142ZM1232.71 7.06929C1234.45 6.94478 1235.77 7.78143 1236.05 9.23165H1230.25C1230.28 8.24903 1231.36 7.16514 1232.71 7.06929Z" fill="white"/>
<path d="M1164.38 21.9998V21.6465C1164.38 17.2245 1164.37 12.8024 1164.38 8.37678C1164.38 6.09045 1165.91 4.20669 1168.15 3.86687C1169.13 3.71803 1170.16 3.84177 1171.23 3.84177V4.21385C1171.23 8.5612 1171.23 12.9085 1171.23 17.2559C1171.23 20.0353 1169.26 21.9855 1166.46 21.9953C1165.79 22.0016 1165.12 21.9998 1164.38 21.9998Z" fill="white"/>
<path d="M1173.51 14.391V0.000214019C1174.78 0.066283 1176.05 -0.158352 1177.28 0.283367C1179.09 0.92103 1180.32 2.67697 1180.35 4.67034C1180.38 6.27488 1180.37 7.8794 1180.36 9.48393C1180.35 12.2211 1178.6 14.2031 1175.99 14.392C1175.18 14.441 1174.37 14.391 1173.51 14.391Z" fill="white"/>
<path d="M1208.77 17.4478H1204.96V4.55151H1208.77V17.4478Z" fill="white"/>
<path d="M1208.77 0V3.03442H1204.96V0H1208.77Z" fill="white"/>
</g>
<defs>
<linearGradient id="paint0_linear_95_503" x1="11.5031" y1="7.32537e-09" x2="11.4038" y2="21.214" gradientUnits="userSpaceOnUse">
<stop stop-color="#EC5B2D"/>
<stop offset="1" stop-color="#EC2D7D"/>
</linearGradient>
<linearGradient id="paint1_linear_95_503" x1="858.906" y1="7.32536e-09" x2="858.806" y2="21.214" gradientUnits="userSpaceOnUse">
<stop stop-color="#EC5B2D"/>
<stop offset="1" stop-color="#EC2D7D"/>
</linearGradient>
<clipPath id="clip0_95_503">
<rect width="66.4628" height="22" fill="white" transform="translate(26.3489)"/>
</clipPath>
<clipPath id="clip1_95_503">
<rect width="21.2366" height="21.2143" fill="white"/>
</clipPath>
<clipPath id="clip2_95_503">
<rect width="66.4627" height="22" fill="white" transform="translate(873.751)"/>
</clipPath>
<clipPath id="clip3_95_503">
<rect width="21.2366" height="21.2143" fill="white" transform="translate(847.403)"/>
</clipPath>
<clipPath id="clip4_95_503">
<rect width="92.3704" height="29" fill="white" transform="translate(1006.11)"/>
</clipPath>
</defs>
</svg>
