<svg width="21" height="23" viewBox="0 0 21 23" fill="none" xmlns="http://www.w3.org/2000/svg">
<path fill-rule="evenodd" clip-rule="evenodd" d="M12.4578 2.63576L17.1871 5.36631C17.3203 5.22526 17.4758 5.10071 17.6523 4.99821C18.6331 4.43437 19.8842 4.76915 20.4539 5.75C21.0177 6.73085 20.6829 7.98187 19.7021 8.55158C19.527 8.65225 19.3431 8.72427 19.1559 8.76908V14.2323C19.341 14.2772 19.5229 14.3488 19.6962 14.4484C20.6829 15.0181 21.0177 16.2692 20.448 17.25C19.8842 18.2308 18.6273 18.5656 17.6464 18.0018C17.4511 17.8895 17.2815 17.7498 17.1394 17.5903L12.4389 20.3042C12.5061 20.5072 12.5425 20.7244 12.5425 20.9502C12.5425 22.0779 11.6263 23 10.4927 23C9.35914 23 8.4429 22.0838 8.4429 20.9502C8.4429 20.7487 8.47185 20.5541 8.52583 20.3703L3.79776 17.6404C3.66602 17.7787 3.51262 17.9009 3.33897 18.0018C2.35225 18.5656 1.10123 18.2308 0.537387 17.25C-0.0264532 16.2692 0.308327 15.0181 1.28917 14.4484C1.4626 14.3487 1.64447 14.2771 1.82952 14.2322V8.76908C1.64233 8.72427 1.45841 8.65225 1.2833 8.55158C0.302454 7.98774 -0.0323265 6.73085 0.531514 5.75C1.09535 4.76915 2.35225 4.43437 3.3331 4.99821C3.5086 5.10015 3.66342 5.2239 3.7961 5.36401L8.5267 2.63272C8.47217 2.44801 8.4429 2.25237 8.4429 2.0498C8.4429 0.916241 9.35914 0 10.4927 0C11.6263 0 12.5425 0.916241 12.5425 2.0498C12.5425 2.25349 12.5129 2.45016 12.4578 2.63576ZM11.9651 3.47705L16.7056 6.21411C16.5591 6.72877 16.6129 7.29944 16.9005 7.7998C17.1891 8.30178 17.6592 8.63455 18.1809 8.76423V14.2343C18.1543 14.2408 18.1279 14.2479 18.1016 14.2555L11.91 3.53172C11.9287 3.51385 11.9471 3.49562 11.9651 3.47705ZM9.07668 3.53296L2.88525 14.2565C2.85848 14.2488 2.83156 14.2415 2.8045 14.2348V8.76423C3.32622 8.63455 3.79632 8.30178 4.08488 7.7998C4.37308 7.29845 4.42651 6.72652 4.27889 6.21106L9.01813 3.47477C9.03726 3.49456 9.05678 3.51396 9.07668 3.53296ZM11.0654 4.01877L17.2555 14.7399C17.1169 14.872 16.9948 15.0259 16.8946 15.2002C16.795 15.3735 16.7235 15.5554 16.6786 15.7406H4.30695C4.26205 15.5555 4.19045 15.3736 4.09076 15.2002C3.99016 15.027 3.86832 14.874 3.73048 14.7424L9.92169 4.01927C10.1029 4.07157 10.2945 4.09959 10.4927 4.09959C10.6916 4.09959 10.8837 4.07139 11.0654 4.01877ZM12.0086 19.5693L16.7184 16.85C16.7043 16.8056 16.6916 16.7608 16.6805 16.7155H4.30433C4.29777 16.7421 4.29068 16.7685 4.28306 16.7948L9.01598 19.5275C9.38863 19.1407 9.91217 18.9004 10.4927 18.9004C11.0939 18.9004 11.6339 19.1581 12.0086 19.5693Z" fill="#645D74"/>
</svg>
