<svg xmlns="http://www.w3.org/2000/svg" viewBox="0 0 537.48 206.03"><path d="M16.36 30.45H0v79.95h16.36V30.45zM51.77 0H35.41v60.9h16.36V0z" fill="#ffffff"/><path d="M51.77 79.93H35.41v60.9h16.36v-60.9zm35.4-49.48H70.81v79.95h16.36V30.45z" fill="#31d891"/><g fill="#ffffff"><path d="M242.34 94.91c-.75 2.4-1.89 4.64-3.34 6.68-1.48 2.07-3.26 3.91-5.31 5.42-2.16 1.59-4.53 2.8-7.06 3.67-2.8.92-5.74 1.38-8.7 1.35-3.56 0-7.09-.65-10.4-1.91-3.29-1.24-6.25-3.18-8.76-5.63-2.59-2.59-4.61-5.69-5.96-9.11-1.54-3.91-2.29-8.08-2.24-12.29-.05-3.99.67-7.95 2.16-11.67 1.32-3.34 3.26-6.39 5.71-9.03 2.34-2.51 5.17-4.5 8.33-5.87 3.1-1.37 6.44-2.08 9.84-2.08 3.8-.05 7.6.65 11.13 2.08 3.13 1.29 5.93 3.29 8.19 5.82 2.26 2.61 3.96 5.66 5.01 8.97 1.21 3.72 1.81 7.63 1.75 11.56 0 .67 0 1.32-.05 1.91-.03.49-.08.97-.16 1.46h-40.91a19.36 19.36 0 0 0 1.35 6.68c.78 1.97 1.97 3.75 3.45 5.25 1.48 1.48 3.26 2.61 5.2 3.37 2.05.78 4.2 1.19 6.39 1.16 4.45 0 7.84-1.05 10.16-3.15 2.35-2.13 4.1-4.8 5.09-7.79l9.13 3.15zm-10.72-17.25c-.05-3.66-1.46-7.17-3.96-9.86-2.48-2.67-6.14-3.99-10.97-3.99-2.07-.03-4.12.38-6.04 1.19a14.37 14.37 0 0 0-4.53 3.15c-1.24 1.32-2.26 2.8-2.99 4.45-.73 1.59-1.16 3.31-1.24 5.07h29.72zm-60.1 32.72V74.86h-36.65v35.52H123.8V30.42h11.07v34.17h36.65V30.42h11.07v79.95h-11.07z"/><path d="M242.24 94.91c-3.04 9.59-11.72 17.14-24.36 17.14-14.55 0-27.3-10.59-27.3-28.97 0-17.03 12.29-28.65 25.92-28.65 16.68 0 26.06 11.51 26.06 28.43a27.85 27.85 0 0 1-.22 3.4h-40.83c.22 9.7 7.22 16.47 16.36 16.47s13.2-4.85 15.23-10.94l9.13 3.13zm-10.7-17.25c-.22-7.79-5.31-13.88-14.88-13.88-8.92 0-14.31 6.87-14.77 13.88h29.64zm32.77 1.7l14.66-2.13c3.29-.46 4.18-2.16 4.18-4.07 0-5.31-3.5-9.7-11.72-9.7-7.44 0-11.61 4.64-12.29 10.94l-10.13-2.37c1.13-10.38 10.48-17.6 22.21-17.6 16.22 0 22.55 9.24 22.55 19.86v27.16a52.31 52.31 0 0 0 .67 8.92h-10.38a42.87 42.87 0 0 1-.57-7.33c-2.37 3.83-7.79 9.03-17.49 9.03-11.05 0-18.16-7.68-18.16-16.22-.03-9.73 7.09-15.14 16.46-16.49zm18.81 7.79v-2.48l-16.57 2.48c-4.5.67-7.9 3.26-7.9 8.11 0 4.07 3.4 7.9 8.79 7.9 8.7 0 15.68-4.18 15.68-16.01zm20.61 44.65V56.13H314v8.46c2.94-5.42 9.35-9.7 18.16-9.7 16.22 0 24.93 12.53 24.93 28.3s-9.38 28.65-25.28 28.65c-8.35 0-14.66-3.93-17.6-8.81v28.75h-10.48v.03zm26.52-67.56c-9.7 0-16.12 8.11-16.12 18.94s6.44 19.16 16.12 19.16 16.01-8 16.01-19.16-6.09-18.94-16.01-18.94z"/></g><path d="M138.52 170.3c6.7 0 12.2 5.75 12.2 13.2s-5.5 13.2-12.2 13.2c-3.65 0-6.3-1.35-8.1-3.65V196h-6.45v-35h6.45v12.95c1.8-2.3 4.45-3.65 8.1-3.65zm-1.2 20.25c4 0 6.95-2.85 6.95-7.05s-2.95-7.05-6.95-7.05-6.9 2.85-6.9 7.05 2.95 7.05 6.9 7.05zM170.59 171h6.9l-9.1 25c-2.6 7.2-6.85 10.35-13.2 10v-6c3.55.05 5.35-1.45 6.55-4.8L151.49 171h7.05l6.5 16.8 5.55-16.8zm39.37 25.7c-10.6 0-18.2-8-18.2-18.2s7.6-18.2 18.2-18.2c6.4 0 12.05 3.25 15.05 8.25l-5.95 3.45c-1.7-3.1-5.1-5-9.1-5-6.85 0-11.35 4.75-11.35 11.5s4.5 11.45 11.35 11.45c4 0 7.45-1.9 9.1-4.95l5.95 3.45c-2.95 5-8.6 8.25-15.05 8.25zm31.04 0c-7.35 0-13.2-5.75-13.2-13.2s5.85-13.2 13.2-13.2 13.25 5.75 13.25 13.2-5.9 13.2-13.25 13.2zm0-6.3c3.85 0 6.8-2.85 6.8-6.9s-2.95-6.9-6.8-6.9-6.75 2.85-6.75 6.9 2.95 6.9 6.75 6.9zm31.69-20.1c5.3 0 9.45 3.7 9.45 10.35V196h-6.45v-14.55c0-3.4-2.05-5.15-4.95-5.15-3.15 0-5.5 1.85-5.5 6.2V196h-6.45v-25h6.45v2.8c1.5-2.25 4.1-3.5 7.45-3.5zm29.26 6.9h-5.65v10.4c0 2.7 1.95 2.75 5.65 2.55V196c-9.05 1-12.1-1.65-12.1-8.4v-10.4h-4.35V171h4.35v-5.05l6.45-1.95v7h5.65v6.2zm9.22 8.95c.9 3.3 3.65 4.7 7.05 4.7 2.5 0 4.5-1.05 5.6-2.5l5.2 3c-2.35 3.4-6.1 5.35-10.9 5.35-8.4 0-13.7-5.75-13.7-13.2s5.35-13.2 13.2-13.2c7.4 0 12.65 5.85 12.65 13.2a14.9 14.9 0 0 1-.25 2.65h-18.85zm-.1-5h12.75c-.8-3.6-3.5-5.05-6.2-5.05-3.45 0-5.8 1.85-6.55 5.05zm37.6-10.85c5.3 0 9.45 3.7 9.45 10.35V196h-6.45v-14.55c0-3.4-2.05-5.15-4.95-5.15-3.15 0-5.5 1.85-5.5 6.2V196h-6.45v-25h6.45v2.8c1.5-2.25 4.1-3.5 7.45-3.5zm29.26 6.9h-5.65v10.4c0 2.7 1.95 2.75 5.65 2.55V196c-9.05 1-12.1-1.65-12.1-8.4v-10.4h-4.35V171h4.35v-5.05l6.45-1.95v7h5.65v6.2zm9.96.9c0 3.7 12.9 1.4 12.9 10.6 0 5.4-4.7 8-10.05 8-5 0-8.7-2.1-10.5-5.95l5.6-3.15c.7 2.05 2.4 3.25 4.9 3.25 2.05 0 3.45-.7 3.45-2.15 0-3.65-12.9-1.65-12.9-10.45 0-5.1 4.35-7.95 9.5-7.95 4.05 0 7.55 1.85 9.5 5.3l-5.5 3c-.75-1.6-2.15-2.55-4-2.55-1.6 0-2.9.7-2.9 2.05zm35.66-7.1H430v35h-6.45v-12.95c-1.8 2.3-4.45 3.65-8.1 3.65-6.7 0-12.2-5.75-12.2-13.2s5.5-13.2 12.2-13.2c3.65 0 6.3 1.35 8.1 3.65V171zm-6.9 19.55c3.95 0 6.9-2.85 6.9-7.05s-2.95-7.05-6.9-7.05-6.95 2.85-6.95 7.05 2.95 7.05 6.95 7.05zM452.4 171h6.45v25h-6.45v-2.8c-1.5 2.25-4.1 3.5-7.45 3.5-5.3 0-9.45-3.7-9.45-10.35V171h6.45v14.55c0 3.4 2.05 5.15 4.95 5.15 3.15 0 5.5-1.85 5.5-6.2V171zm31.36 0h6.45v25h-6.45v-2.95c-1.8 2.25-4.5 3.65-8.15 3.65-6.65 0-12.15-5.75-12.15-13.2s5.5-13.2 12.15-13.2c3.65 0 6.35 1.4 8.15 3.65V171zm-6.95 19.55c4 0 6.95-2.85 6.95-7.05s-2.95-7.05-6.95-7.05-6.9 2.85-6.9 7.05 2.95 7.05 6.9 7.05zm25.7-15.25c1.3-3.4 4.45-4.8 7.6-4.8v7.2c-3.35-.4-7.6 1.1-7.6 6.35V196h-6.45v-25h6.45v4.3zm15.89 10.85c.9 3.3 3.65 4.7 7.05 4.7 2.5 0 4.5-1.05 5.6-2.5l5.2 3c-2.35 3.4-6.1 5.35-10.9 5.35-8.4 0-13.7-5.75-13.7-13.2s5.35-13.2 13.2-13.2c7.4 0 12.65 5.85 12.65 13.2a14.9 14.9 0 0 1-.25 2.65H518.4zm-.1-5h12.75c-.8-3.6-3.5-5.05-6.2-5.05-3.45 0-5.8 1.85-6.55 5.05z" fill="#ffffff"/></svg>
