<svg width="23" height="23" viewBox="0 0 23 23" fill="none" xmlns="http://www.w3.org/2000/svg">
<path d="M0.207275 3.3717C0.207275 1.71485 1.55042 0.371704 3.20728 0.371704H19.6982C21.355 0.371704 22.6982 1.71485 22.6982 3.3717V19.6283C22.6982 21.2852 21.355 22.6283 19.6982 22.6283H3.20728C1.55042 22.6283 0.207275 21.2852 0.207275 19.6283V3.3717Z" fill="#72E4FC"/>
<path d="M15.3405 17.8405C15.7945 18.5821 16.3853 19.127 17.4304 19.127C18.3082 19.127 18.8689 18.6882 18.8689 18.0822C18.8689 17.3559 18.2929 17.0985 17.3266 16.6759L16.7971 16.4488C15.2684 15.7976 14.253 14.9816 14.253 13.2568C14.253 11.668 15.4634 10.4586 17.3555 10.4586C18.7023 10.4586 19.6708 10.9274 20.3685 12.1547L18.7188 13.2139C18.3556 12.5625 17.9639 12.306 17.3555 12.306C16.7349 12.306 16.3417 12.6997 16.3417 13.2139C16.3417 13.8493 16.7353 14.1067 17.6442 14.5004L18.1738 14.7273C19.9738 15.4992 20.99 16.2861 20.99 18.0552C20.99 19.9624 19.4918 21.0074 17.4795 21.0074C15.5121 21.0074 14.241 20.07 13.619 18.8412C13.619 18.8407 15.3405 17.8405 15.3405 17.8405ZM7.85714 18.0242C8.18998 18.6148 8.49276 19.1139 9.22049 19.1139C9.91647 19.1139 10.3555 18.8417 10.3555 17.7828V10.5793H12.4738V17.8112C12.4738 20.0046 11.1877 21.0031 9.31044 21.0031C7.61425 21.0031 6.63195 20.1253 6.13232 19.0681L7.85714 18.0242Z" fill="black"/>
</svg>
