<svg width="632" height="505" viewBox="0 0 632 505" fill="none" xmlns="http://www.w3.org/2000/svg">
<rect width="632" height="505" fill="#0D0225"/>
<rect width="487" height="453" transform="translate(72 26)" fill="#0D0225"/>
<rect x="89.4676" y="26.4676" width="134.065" height="134.065" rx="7.53243" fill="#30294E"/>
<g clip-path="url(#clip0_3974_36839)">
<path d="M165.298 93.5158C165.299 96.0542 164.842 98.5719 163.947 100.947C161.57 101.842 159.052 102.301 156.513 102.301H156.483C153.868 102.298 151.363 101.82 149.052 100.948C148.156 98.5727 147.698 96.0546 147.699 93.5158V93.485C147.697 90.947 148.155 88.4297 149.049 86.0545C151.425 85.158 153.944 84.6992 156.483 84.7004H156.513C159.052 84.6991 161.571 85.1578 163.947 86.0542C164.842 88.4292 165.3 90.9466 165.299 93.4847V93.5155L165.298 93.5158ZM191.21 87.6338H170.663L185.191 73.1047C184.05 71.5029 182.778 69.999 181.388 68.6087V68.6076C179.997 67.2188 178.494 65.948 176.893 64.8082L162.364 79.3373V58.7904C160.432 58.4653 158.476 58.3014 156.516 58.3004L156.48 58.3004C154.487 58.3015 152.534 58.4709 150.632 58.7904V79.3373L136.103 64.8082C134.502 65.9477 132.999 67.2194 131.61 68.6101L131.602 68.6156C130.214 70.0041 128.944 71.5057 127.805 73.1047L142.335 87.6338H121.789C121.789 87.6338 121.299 91.4929 121.299 93.4883V93.5125C121.299 95.5079 121.468 97.4634 121.789 99.3669H142.335L127.805 113.896C130.091 117.104 132.895 119.908 136.103 122.194L150.632 107.663V128.211C152.562 128.535 154.516 128.698 156.473 128.7H156.523C158.48 128.699 160.434 128.535 162.364 128.211V107.663L176.894 122.194C178.495 121.053 179.998 119.782 181.388 118.393L181.391 118.39C182.78 116.999 184.051 115.496 185.191 113.896L170.66 99.3669H191.21C191.529 97.4667 191.696 95.5169 191.699 93.5259V93.4748C191.696 91.4838 191.529 89.534 191.21 87.6338Z" fill="#FF4A00"/>
</g>
<rect x="89.4676" y="26.4676" width="134.065" height="134.065" rx="7.53243" stroke="#30294E" stroke-width="0.935145"/>
<rect x="248.5" y="26.5" width="134" height="134" rx="7.5" fill="#30294E"/>
<g clip-path="url(#clip1_3974_36839)">
<mask id="mask0_3974_36839" style="mask-type:luminance" maskUnits="userSpaceOnUse" x="280" y="58" width="71" height="71">
<path d="M350.696 58.3011H280.296V128.701H350.696V58.3011Z" fill="white"/>
</mask>
<g mask="url(#mask0_3974_36839)">
<mask id="mask1_3974_36839" style="mask-type:luminance" maskUnits="userSpaceOnUse" x="280" y="58" width="71" height="71">
<path d="M350.693 58.3018H280.293V128.702H350.693V58.3018Z" fill="white"/>
</mask>
<g mask="url(#mask1_3974_36839)">
<path d="M338.959 58.3018H292.026C285.546 58.3018 280.293 63.555 280.293 70.0351V116.969C280.293 123.449 285.546 128.702 292.026 128.702H338.959C345.44 128.702 350.693 123.449 350.693 116.969V70.0351C350.693 63.555 345.44 58.3018 338.959 58.3018Z" fill="#7856FF"/>
<path d="M299.363 100.835C303.414 100.835 306.697 97.5519 306.697 93.5019C306.697 89.4517 303.414 86.1684 299.363 86.1684C295.312 86.1684 292.029 89.4517 292.029 93.5019C292.029 97.5519 295.312 100.835 299.363 100.835Z" fill="white"/>
<path d="M320.629 98.6359C323.465 98.6359 325.764 96.3376 325.764 93.5027C325.764 90.6675 323.465 88.3692 320.629 88.3692C317.794 88.3692 315.495 90.6675 315.495 93.5027C315.495 96.3376 317.794 98.6359 320.629 98.6359Z" fill="white"/>
<path d="M336.762 95.7018C337.977 95.7018 338.962 94.7169 338.962 93.5018C338.962 92.2868 337.977 91.3018 336.762 91.3018C335.547 91.3018 334.562 92.2868 334.562 93.5018C334.562 94.7169 335.547 95.7018 336.762 95.7018Z" fill="white"/>
</g>
</g>
</g>
<rect x="248.5" y="26.5" width="134" height="134" rx="7.5" stroke="#30294E"/>
<rect x="407.5" y="26.5" width="134" height="134" rx="7.5" fill="#30294E"/>
<g clip-path="url(#clip2_3974_36839)">
<path fill-rule="evenodd" clip-rule="evenodd" d="M458.857 102.641C458.857 98.5403 461.958 95.2387 465.81 95.2387C469.662 95.2387 472.763 98.5403 472.763 102.641V120.863C472.763 124.964 469.662 128.266 465.81 128.266C461.958 128.266 458.857 124.964 458.857 120.863V102.641Z" fill="#E01E5A" stroke="#E01E5A" stroke-width="0.869136" stroke-linecap="round" stroke-linejoin="round"/>
<path fill-rule="evenodd" clip-rule="evenodd" d="M483.641 109.145C479.54 109.145 476.238 106.044 476.238 102.192C476.238 98.3398 479.54 95.2387 483.641 95.2387H501.863C505.964 95.2387 509.265 98.3398 509.265 102.192C509.265 106.044 505.964 109.145 501.863 109.145H483.641Z" fill="#ECB22D" stroke="#ECB22D" stroke-width="0.869136" stroke-linecap="round" stroke-linejoin="round"/>
<path fill-rule="evenodd" clip-rule="evenodd" d="M476.238 66.138C476.238 62.037 479.339 58.7354 483.191 58.7354C487.043 58.7354 490.144 62.037 490.144 66.138V84.3599C490.144 88.461 487.043 91.7626 483.191 91.7626C479.339 91.7626 476.238 88.461 476.238 84.3599V66.138Z" fill="#2FB67C" stroke="#2FB67C" stroke-width="0.869136" stroke-linecap="round" stroke-linejoin="round"/>
<path fill-rule="evenodd" clip-rule="evenodd" d="M447.139 91.7627C443.038 91.7627 439.736 88.6616 439.736 84.8096C439.736 80.9576 443.038 77.8565 447.139 77.8565H465.36C469.462 77.8565 472.763 80.9576 472.763 84.8096C472.763 88.6616 469.462 91.7627 465.36 91.7627H447.139Z" fill="#36C5F1" stroke="#36C5F1" stroke-width="0.869136" stroke-linecap="round" stroke-linejoin="round"/>
<path fill-rule="evenodd" clip-rule="evenodd" d="M476.237 121.313C476.235 122.226 476.413 123.131 476.762 123.976C477.111 124.82 477.623 125.588 478.269 126.234C478.915 126.88 479.682 127.392 480.526 127.741C481.371 128.089 482.276 128.268 483.19 128.266C487.042 128.266 490.143 125.165 490.143 121.313C490.145 120.399 489.966 119.494 489.617 118.65C489.269 117.805 488.757 117.038 488.111 116.392C487.464 115.746 486.697 115.234 485.853 114.885C485.008 114.536 484.103 114.358 483.19 114.36H476.237V121.313Z" fill="#ECB22D" stroke="#ECB22D" stroke-width="0.869136" stroke-linecap="round"/>
<path fill-rule="evenodd" clip-rule="evenodd" d="M502.311 91.7626H495.358V84.8095C495.358 80.9575 498.459 77.8564 502.311 77.8564C506.163 77.8564 509.264 80.9575 509.264 84.8095C509.264 88.6615 506.163 91.7626 502.311 91.7626Z" fill="#2FB67C" stroke="#2FB67C" stroke-width="0.869136" stroke-linecap="round"/>
<path fill-rule="evenodd" clip-rule="evenodd" d="M446.688 95.2386H453.641V102.192C453.641 106.044 450.54 109.145 446.688 109.145C445.774 109.147 444.869 108.968 444.025 108.619C443.18 108.271 442.413 107.759 441.767 107.113C441.121 106.467 440.609 105.699 440.26 104.855C439.911 104.01 439.733 103.105 439.735 102.192C439.735 98.3397 442.836 95.2386 446.688 95.2386Z" fill="#E01E5A" stroke="#E01E5A" stroke-width="0.869136" stroke-linecap="round"/>
<path fill-rule="evenodd" clip-rule="evenodd" d="M472.762 65.6884V72.6415H465.809C464.895 72.6434 463.99 72.4649 463.146 72.1162C462.301 71.7674 461.534 71.2554 460.888 70.6093C460.242 69.9633 459.73 69.196 459.381 68.3515C459.032 67.5071 458.854 66.602 458.856 65.6884C458.856 61.8364 461.957 58.7353 465.809 58.7353C466.722 58.7334 467.627 58.9119 468.472 59.2606C469.316 59.6093 470.084 60.1214 470.73 60.7675C471.376 61.4135 471.888 62.1808 472.237 63.0253C472.585 63.8697 472.764 64.7748 472.762 65.6884Z" fill="#36C5F1" stroke="#36C5F1" stroke-width="0.869136" stroke-linecap="round"/>
</g>
<rect x="407.5" y="26.5" width="134" height="134" rx="7.5" stroke="#30294E"/>
<rect x="89.5" y="185.5" width="134" height="134" rx="7.5" fill="#30294E"/>
<g clip-path="url(#clip3_3974_36839)">
<path d="M182.935 217.3H130.127C125.207 217.3 121.3 221.208 121.3 226.065V278.872C121.294 280.034 121.518 281.186 121.96 282.261C122.401 283.336 123.052 284.312 123.874 285.134C124.695 285.956 125.672 286.606 126.747 287.048C127.821 287.49 128.973 287.714 130.135 287.708H182.943C187.792 287.708 191.708 283.8 191.708 278.943V226.135C191.7 221.208 187.776 217.3 182.935 217.3ZM165.884 230.208C165.884 228.874 166.904 227.854 168.238 227.854C169.572 227.854 170.592 228.874 170.592 230.208V261.578C170.592 262.912 169.572 263.932 168.238 263.932C166.904 263.932 165.884 262.912 165.884 261.578V230.208ZM154.154 229.031C154.154 227.697 155.174 226.677 156.508 226.677C157.842 226.677 158.862 227.697 158.862 229.031V263.054C158.862 264.388 157.842 265.408 156.508 265.408C155.174 265.408 154.154 264.388 154.154 263.054V229.031ZM142.423 230.208C142.423 228.874 143.443 227.854 144.777 227.854C146.111 227.854 147.131 228.874 147.131 230.208V261.578C147.131 262.912 146.111 263.932 144.777 263.932C143.443 263.932 142.423 262.912 142.423 261.578V230.208ZM130.692 234.9C130.692 233.566 131.712 232.546 133.046 232.546C134.38 232.546 135.4 233.566 135.4 234.9V256.023C135.4 257.357 134.38 258.377 133.046 258.377C131.712 258.377 130.692 257.357 130.692 256.023V234.9ZM181.538 270.728C181.146 271.042 172.468 278.315 156.429 278.315C140.391 278.315 131.791 271.042 131.32 270.728C131.082 270.532 130.887 270.289 130.745 270.015C130.604 269.741 130.52 269.442 130.498 269.134C130.475 268.827 130.516 268.518 130.617 268.227C130.718 267.936 130.877 267.668 131.085 267.44C131.281 267.202 131.523 267.007 131.797 266.865C132.071 266.724 132.37 266.64 132.678 266.618C132.985 266.596 133.294 266.636 133.585 266.737C133.877 266.838 134.144 266.997 134.372 267.205C134.529 267.205 142.274 273.615 156.343 273.615C170.577 273.615 178.235 267.205 178.235 267.126C179.255 266.341 180.746 266.341 181.531 267.361C181.745 267.591 181.911 267.861 182.019 268.156C182.128 268.451 182.176 268.764 182.161 269.078C182.147 269.391 182.07 269.699 181.934 269.982C181.799 270.266 181.608 270.519 181.374 270.728H181.538ZM182.323 256.023C182.323 257.357 181.303 258.377 179.969 258.377C178.635 258.377 177.615 257.357 177.615 256.023V234.9C177.615 233.566 178.635 232.546 179.969 232.546C181.303 232.546 182.323 233.566 182.323 234.9V256.023Z" fill="#1F8DED"/>
</g>
<rect x="89.5" y="185.5" width="134" height="134" rx="7.5" stroke="#30294E"/>
<rect x="248.5" y="185.5" width="134" height="134" rx="7.5" fill="#30294E"/>
<g clip-path="url(#clip4_3974_36839)">
<path fill-rule="evenodd" clip-rule="evenodd" d="M315.197 222.155L350.093 282.845H280.3L315.197 222.155Z" fill="white"/>
</g>
<rect x="248.5" y="185.5" width="134" height="134" rx="7.5" stroke="#30294E"/>
<rect x="407.5" y="185.5" width="134" height="134" rx="7.5" fill="#30294E"/>
<g clip-path="url(#clip5_3974_36839)">
<path d="M497.87 231.178C505.493 242.358 509.258 254.969 507.851 269.487C507.845 269.548 507.813 269.605 507.762 269.642C501.989 273.87 496.396 276.436 490.881 278.138C490.838 278.151 490.792 278.15 490.749 278.136C490.707 278.121 490.67 278.094 490.644 278.058C489.369 276.29 488.212 274.425 487.198 272.468C487.139 272.352 487.192 272.214 487.312 272.168C489.151 271.477 490.899 270.649 492.581 269.669C492.713 269.591 492.722 269.402 492.599 269.311C492.242 269.047 491.889 268.769 491.551 268.491C491.487 268.44 491.402 268.43 491.33 268.464C480.413 273.493 468.453 273.493 457.406 268.464C457.334 268.432 457.249 268.443 457.188 268.494C456.85 268.771 456.496 269.047 456.142 269.311C456.02 269.402 456.03 269.591 456.163 269.669C457.845 270.631 459.593 271.477 461.429 272.172C461.548 272.217 461.605 272.352 461.546 272.468C460.553 274.428 459.396 276.292 458.098 278.06C458.042 278.132 457.949 278.165 457.861 278.138C452.372 276.436 446.779 273.87 441.006 269.642C440.957 269.605 440.923 269.546 440.918 269.484C439.742 256.927 442.139 244.211 450.89 231.176C450.911 231.141 450.943 231.114 450.98 231.098C455.286 229.127 459.899 227.677 464.72 226.849C464.808 226.835 464.896 226.876 464.941 226.953C465.537 228.005 466.218 229.354 466.678 230.457C471.761 229.683 476.922 229.683 482.11 230.457C482.571 229.378 483.228 228.005 483.822 226.953C483.843 226.915 483.875 226.884 483.915 226.865C483.955 226.847 483.999 226.841 484.043 226.849C488.867 227.68 493.479 229.13 497.782 231.098C497.82 231.114 497.851 231.141 497.87 231.178ZM469.262 255.055C469.315 251.342 466.602 248.271 463.195 248.271C459.817 248.271 457.129 251.315 457.129 255.055C457.129 258.793 459.87 261.838 463.195 261.838C466.575 261.838 469.262 258.793 469.262 255.055ZM491.691 255.055C491.745 251.342 489.031 248.271 485.626 248.271C482.246 248.271 479.559 251.315 479.559 255.055C479.559 258.793 482.299 261.838 485.626 261.838C489.031 261.838 491.691 258.793 491.691 255.055Z" fill="#5865F2"/>
</g>
<rect x="407.5" y="185.5" width="134" height="134" rx="7.5" stroke="#30294E"/>
<rect x="89.5" y="344.5" width="134" height="134" rx="7.5" fill="#30294E"/>
<g clip-path="url(#clip6_3974_36839)">
<g clip-path="url(#clip7_3974_36839)">
<path d="M151.757 423.031L152.322 422.558L180.802 422.312L180.979 423.031L180.98 423.03C180.94 423.184 180.881 423.332 180.802 423.473C180.558 423.906 180.027 424.214 178.963 424.829L151.465 440.738C148.726 442.322 147.357 443.114 146.511 442.926C145.778 442.763 145.178 442.241 144.914 441.539C144.608 440.727 145.201 439.261 146.386 436.327L151.757 423.031Z" fill="#7957FF"/>
<path d="M180.979 423.031H151.757L151.584 421.821L160.431 400.197L161.154 399.791L179.669 420.363C179.698 420.395 179.726 420.427 179.754 420.458C180.519 421.309 180.905 421.75 181 422.221C181.055 422.491 181.047 422.768 180.979 423.031Z" fill="#18B6AA"/>
<path d="M161.376 382.243L134.005 397.999C132.94 398.612 132.407 398.919 132.162 399.352C131.947 399.732 131.876 400.177 131.962 400.604C132.059 401.092 132.47 401.55 133.292 402.465L151.757 423.031L161.154 399.791L166.449 386.656C167.627 383.733 168.216 382.272 167.912 381.461C167.648 380.76 167.048 380.239 166.317 380.075C165.472 379.885 164.107 380.671 161.376 382.243Z" fill="#F845C6"/>
</g>
</g>
<rect x="89.5" y="344.5" width="134" height="134" rx="7.5" stroke="#30294E"/>
<rect x="248.5" y="344.5" width="134" height="134" rx="7.5" fill="#30294E"/>
<path d="M280.743 417.439L309.561 446.257C294.846 443.77 283.231 432.156 280.743 417.439ZM280.3 409.616L317.384 446.7C319.554 446.585 321.709 446.269 323.821 445.757L281.244 403.179C280.731 405.291 280.415 407.446 280.3 409.616V409.616ZM283.09 397.645L329.355 443.91C331.032 443.191 332.65 442.341 334.195 441.37L285.63 392.805C284.659 394.35 283.81 395.968 283.09 397.645ZM288.765 388.559C295.225 381.052 304.794 376.3 315.475 376.3C334.93 376.3 350.7 392.072 350.7 411.525C350.7 422.206 345.947 431.775 338.441 438.235L288.765 388.559Z" fill="#5E6AD2"/>
<rect x="248.5" y="344.5" width="134" height="134" rx="7.5" stroke="#30294E"/>
<rect x="407.5" y="344.5" width="134" height="134" rx="7.5" fill="#30294E"/>
<g clip-path="url(#clip8_3974_36839)">
<path d="M453.908 373.22H495.092C504.861 373.22 512.78 381.139 512.78 390.908V432.092C512.78 441.861 504.861 449.78 495.092 449.78H453.908C444.139 449.78 436.22 441.861 436.22 432.092V390.908C436.22 381.139 444.139 373.22 453.908 373.22Z" fill="white" stroke="#E4E2E4" stroke-width="2.64"/>
<path fill-rule="evenodd" clip-rule="evenodd" d="M451.297 426.209L459.862 419.648C464.41 425.586 469.241 428.323 474.623 428.323C479.976 428.323 484.673 425.617 489.018 419.726L497.702 426.13C491.437 434.624 483.644 439.112 474.623 439.112C465.632 439.112 457.767 434.656 451.297 426.209Z" fill="url(#paint0_linear_3974_36839)"/>
<path fill-rule="evenodd" clip-rule="evenodd" d="M474.594 397.692L459.349 410.829L452.306 402.655L474.624 383.424L496.769 402.67L489.692 410.814L474.594 397.692Z" fill="url(#paint1_linear_3974_36839)"/>
</g>
<rect x="407.5" y="344.5" width="134" height="134" rx="7.5" stroke="#30294E"/>
<defs>
<linearGradient id="paint0_linear_3974_36839" x1="451.297" y1="432.885" x2="497.702" y2="432.885" gradientUnits="userSpaceOnUse">
<stop stop-color="#8930FD"/>
<stop offset="1" stop-color="#49CCF9"/>
</linearGradient>
<linearGradient id="paint1_linear_3974_36839" x1="452.306" y1="402.061" x2="496.769" y2="402.061" gradientUnits="userSpaceOnUse">
<stop stop-color="#FF02F0"/>
<stop offset="1" stop-color="#FFC800"/>
</linearGradient>
<clipPath id="clip0_3974_36839">
<rect width="70.4" height="70.4" fill="white" transform="translate(121.3 58.3)"/>
</clipPath>
<clipPath id="clip1_3974_36839">
<rect width="70.4" height="70.4" fill="white" transform="translate(280.3 58.3)"/>
</clipPath>
<clipPath id="clip2_3974_36839">
<rect width="70.4" height="70.4" fill="white" transform="translate(439.3 58.3)"/>
</clipPath>
<clipPath id="clip3_3974_36839">
<rect width="70.4" height="70.4" fill="white" transform="translate(121.3 217.3)"/>
</clipPath>
<clipPath id="clip4_3974_36839">
<rect width="70.4" height="60.6897" fill="white" transform="translate(280.3 222.155)"/>
</clipPath>
<clipPath id="clip5_3974_36839">
<rect width="70.4" height="51.3444" fill="white" transform="translate(439.3 226.828)"/>
</clipPath>
<clipPath id="clip6_3974_36839">
<rect width="88" height="88" fill="white" transform="translate(112.5 367.5)"/>
</clipPath>
<clipPath id="clip7_3974_36839">
<rect width="88" height="88" fill="white" transform="translate(112.5 367.5)"/>
</clipPath>
<clipPath id="clip8_3974_36839">
<rect width="79.2" height="79.2" fill="white" transform="translate(434.9 371.9)"/>
</clipPath>
</defs>
</svg>
