<svg fill="none" height="51" viewBox="0 0 123 51" width="123" xmlns="http://www.w3.org/2000/svg"><g fill="#ffffff"><path d="m0 13h3.01719v26.3495h15.98281v2.6505h-19z"/><path d="m38.7563 22.116c1.4953 1.4125 2.2437 3.5023 2.2437 6.2712v13.4069h-2.7755v-3.3714c-.6533 1.1243-1.6114 2.0008-2.8779 2.6311-1.2649.6303-2.7688.9462-4.5099.9462-2.3946 0-4.2987-.5761-5.7143-1.7267-1.4154-1.1522-2.1224-2.673-2.1224-4.5638 0-1.8366.6602-3.3172 1.9786-4.4415 1.3186-1.1243 3.422-1.6865 6.305-1.6865h6.8161v-1.3164c0-1.8646-.5164-3.2824-1.5506-4.2565-1.0345-.9726-2.5436-1.4596-4.5309-1.4596-1.36 0-2.6664.227-3.9174.6791-1.2509.4521-2.3268 1.0772-3.2243 1.8717l-1.3064-2.179c1.0881-.9322 2.3944-1.6516 3.9174-2.1596 1.523-.5063 3.129-.7612 4.8149-.7612 2.8085-.0017 4.957.7053 6.4539 2.116zm-3.2641 16.4498c1.1694-.7542 2.0409-1.8435 2.6109-3.2682v-3.5373h-6.7329c-3.673 0-5.5097 1.2885-5.5097 3.8654 0 1.2606.4765 2.2557 1.4277 2.982.9512.7264 2.2853 1.0895 3.9989 1.0895 1.6339 0 3.0337-.3771 4.2051-1.1314z"/><path d="m50.8217 41.2406c-1.6298-.5063-2.9031-1.1437-3.8217-1.9119l1.337-2.3028c.9187.7124 2.0749 1.2956 3.4671 1.7477 1.3922.4522 2.8411.6791 4.3448.6791 2.0057 0 3.4883-.309 4.4477-.9253.9613-.6163 1.4418-1.4875 1.4418-2.6118 0-.7944-.2643-1.4195-.7946-1.8717-.5283-.4521-1.197-.7944-2.0057-1.0282-.8086-.2323-1.8797-.4593-3.2169-.6793-1.7823-.3281-3.217-.6651-4.3023-1.0074-1.0853-.3421-2.0127-.9253-2.7771-1.7475-.766-.8224-1.1491-1.9607-1.1491-3.4133 0-1.8087.766-3.2893 2.2966-4.4415 1.5304-1.1523 3.662-1.7267 6.3912-1.7267 1.4206 0 2.8411.185 4.2615.5551 1.4205.3702 2.5892.8572 3.5078 1.4595l-1.2945 2.3449c-1.8107-1.2344-3.9689-1.8507-6.4748-1.8507-1.894 0-3.3215.3282-4.2809.9864-.9613.6582-1.4418 1.5225-1.4418 2.5909 0 .8224.2713 1.4806.8139 1.9746.5428.4941 1.2185.8573 2.0254 1.0895.8067.234 1.9205.4732 3.3409.7193 1.754.3283 3.1603.6582 4.2191.9865 1.0586.3282 1.9631.8903 2.7149 1.6865.752.7961 1.128 1.8925 1.128 3.2893 0 1.8908-.8016 3.3922-2.4012 4.5026-1.6014 1.1105-3.8217 1.6656-6.6626 1.6656-1.7806.0017-3.4866-.2514-5.1145-.7594z"/><path d="m82 40.5101c-.52.4835-1.1639.8526-1.9305 1.1071-.7666.2547-1.5662.3828-2.3991.3828-1.9238 0-3.4055-.5365-4.4453-1.6096-1.0397-1.073-1.5596-2.5887-1.5596-4.5486v-12.7984h-3.6655v-2.4144h3.6655v-4.629h2.7683v4.629h6.2399v2.4144h-6.2399v12.6377c0 1.261.3045 2.2213.9171 2.8775.611.6579 1.4885.986 2.6326.986.5711 0 1.1241-.094 1.6572-.2819.5331-.188.995-.4563 1.3841-.8048z"/><path clip-rule="evenodd" d="m122.88 28.0004-2.527-.247c.072-.7406.109-1.4924.109-2.2534s-.037-1.5128-.109-2.2534l2.527-.247c.079.8227.12 1.6567.12 2.5004s-.041 1.6777-.12 2.5004zm-.967-9.9051-2.429.7393c-.437-1.45-1.013-2.8397-1.714-4.1533l2.238-1.2041c.778 1.4602 1.419 3.0054 1.905 4.6181zm-4.673-8.77266-1.961 1.61896c-.951-1.16219-2.012-2.22905-3.169-3.18386l1.611-1.9702c1.285 1.06017 2.463 2.24464 3.519 3.5351zm-7.654-6.31619-1.198 2.24783c-1.308-.70365-2.691-1.28282-4.134-1.72205l.736-2.44051c1.605.48864 3.143 1.13268 4.596 1.91473zm-9.477-2.885484-.2464 2.538044c-.7371-.07203-1.4853-.10901-2.2428-.10901-.7574 0-1.5057.03698-2.2428.10901l-.2459-2.538044c.8189-.0800062 1.649-.120966 2.4887-.120966.8398 0 1.6699.0409598 2.4892.120966zm-9.8591.970754.7359 2.44051c-1.4432.43923-2.8264 1.0184-4.1338 1.72205l-1.1985-2.24783c1.4534-.78205 2.9913-1.42609 4.5964-1.91473zm-8.7314 4.69582 1.6113 1.9702c-1.1567.95481-2.2185 2.02167-3.1689 3.18386l-1.9609-1.6188c1.0552-1.29062 2.2341-2.47509 3.5185-3.53526zm4.135 42.20596 1.1985-2.2478c1.3074.7037 2.6906 1.2828 4.1338 1.7221l-.7359 2.4405c-1.6051-.4887-3.143-1.1327-4.5964-1.9148zm9.4776 2.8855.2459-2.538c.7371.072 1.4854.109 2.2428.109.7575 0 1.5057-.037 2.2428-.109l.2464 2.538c-.8193.08-1.6494.121-2.4892.121-.8397 0-1.6698-.041-2.4887-.121zm9.8589-.9707-.736-2.4405c1.443-.4393 2.826-1.0184 4.134-1.7221l1.198 2.2478c-1.453.7821-2.991 1.4261-4.596 1.9148zm8.731-4.6958-1.611-1.9702c1.157-.9549 2.218-2.0217 3.169-3.1839l1.961 1.6188c-1.056 1.2906-2.234 2.4751-3.519 3.5353zm6.287-7.6897-2.238-1.2041c.701-1.3136 1.277-2.7033 1.714-4.1533l2.429.7393c-.486 1.6127-1.127 3.1579-1.905 4.6181z" fill-rule="evenodd"/><path d="m88 20.8064c0 5.5038 3.9851 9.3174 9.6 9.3174.8444 0 1.6444-.1397 2.3851-.3212l-7.3481 10.1974h6.4445l7.0225-9.8064c2.607-3.6599 3.866-6.4957 3.896-9.513.015-6.1464-5.081-9.6806-11.1111-9.6806-6.3259 0-10.8889 3.9253-10.8889 9.8064zm6.163-.2095c0-2.8358 1.9555-4.8753 4.7555-4.8753 2.8145 0 4.7995 2.0395 4.7995 4.9032 0 2.8357-1.985 4.8473-4.7995 4.8473-2.8 0-4.7555-2.0116-4.7555-4.8752z"/></g></svg>