<svg width="190" height="34" viewBox="0 0 190 34" fill="none" xmlns="http://www.w3.org/2000/svg">
                        <path class="svgColor" d="M126.694 12.348C122.319 12.348 119.38 15.2553 119.38 19.585C119.38 23.9147 122.319 26.7924 126.694 26.7924C131.07 26.7924 134.009 23.8982 134.009 19.585C134.009 15.2718 131.086 12.348 126.694 12.348ZM126.694 23.9675C124.709 23.9675 123.571 22.3703 123.571 19.585C123.571 16.7998 124.709 15.1728 126.694 15.1728C128.679 15.1728 129.818 16.78 129.818 19.585C129.818 22.3901 128.679 23.9675 126.694 23.9675ZM148.454 17.7502V26.4921H144.339V18.5719C144.339 16.3641 143.523 15.2421 141.906 15.2421C140.289 15.2421 139.469 16.3807 139.469 18.6247V26.4855H135.371V12.645H139.455V14.9979C140.078 13.6779 141.313 12.3414 143.75 12.3414C146.753 12.348 148.47 14.3181 148.47 17.7634L148.454 17.7502ZM149.967 7.18994H154.208V11.0213H149.967V7.18994ZM150.017 12.6384H154.131V26.4789H150.034L150.017 12.6384ZM163.478 23.4527H164.937V26.4789H162.638C159.625 26.4789 157.767 24.8915 157.767 22.3307V15.6612H155.196V12.6384H157.767V10.8498L161.881 8.55948V12.6384H164.894V15.6612H161.881V22.0535C161.884 23.0798 162.33 23.4659 163.495 23.4659L163.478 23.4527ZM172.476 12.3348C168.101 12.3348 165.162 15.2421 165.162 19.5718C165.162 23.9015 168.101 26.7792 172.476 26.7792C176.852 26.7792 179.791 23.885 179.791 19.5718C179.791 15.2586 176.865 12.348 172.493 12.348L172.476 12.3348ZM172.476 23.9543C170.491 23.9543 169.35 22.3571 169.35 19.5718C169.35 16.7866 170.491 15.1596 172.476 15.1596C174.461 15.1596 175.6 16.7668 175.6 19.5718C175.6 22.3769 174.478 23.9675 172.493 23.9675L172.476 23.9543ZM189.847 12.3348V16.3147H188.746C186.272 16.3147 185.264 17.1859 185.264 19.321V26.4789H181.167V12.6384H185.254V15.5721C186.011 13.4766 187.597 12.3348 189.753 12.3348H189.847ZM37.4834 22.9511H45.8524V26.4789H33.2352V7.20315H37.4767L37.4834 22.9511ZM53.2909 12.3348C48.9155 12.3348 45.9763 15.2421 45.9763 19.5718C45.9763 23.9015 48.9155 26.7792 53.2909 26.7792C57.6662 26.7792 60.6054 23.885 60.6054 19.5718C60.6054 15.2586 57.6829 12.348 53.3076 12.348L53.2909 12.3348ZM53.2909 23.9543C51.3057 23.9543 50.1675 22.3571 50.1675 19.5718C50.1675 16.7866 51.3057 15.1596 53.2909 15.1596C55.276 15.1596 56.4142 16.7668 56.4142 19.5718C56.4142 22.3769 55.2927 23.9675 53.3076 23.9675L53.2909 23.9543ZM71.9538 15.186C71.5824 14.3249 70.9579 13.5931 70.1608 13.0849C69.3637 12.5767 68.4305 12.3155 67.4814 12.3348C64.0602 12.3348 61.67 15.219 61.67 19.3441C61.67 23.5385 64.0133 26.3535 67.4814 26.3535C68.3966 26.3594 69.2962 26.1199 70.084 25.6607C70.8718 25.2015 71.5181 24.5398 71.9538 23.7464V26.1951C71.9538 27.8715 70.9027 28.8748 69.1351 28.8748C67.699 28.8748 66.6914 28.1916 66.457 27.0531L66.437 26.9673H62.306V27.0861C62.5772 29.317 64.5154 31.7062 69.1351 31.7062C72.4828 31.7062 76.0413 30.241 76.0413 26.1291V12.645H71.9538V15.186ZM68.9845 23.5286C66.9759 23.5286 65.8578 22.0436 65.8578 19.3441C65.8578 16.6447 66.9692 15.1596 68.9845 15.1596C70.9998 15.1596 72.1078 16.6843 72.1078 19.3441C72.1078 22.004 70.9864 23.5418 69.0013 23.5418L68.9845 23.5286ZM77.5544 7.18994H81.7959V11.0213H77.5544V7.18994ZM77.6046 12.6384H81.7189V26.4789H77.6046V12.6384ZM93.2146 21.4199H97.3523L97.3255 21.5486C96.6861 24.776 94.0114 26.7792 90.3457 26.7792C85.9938 26.7792 83.0813 23.8718 83.0813 19.5454C83.0813 15.219 86.0005 12.3348 90.3457 12.3348C93.9745 12.3348 96.6024 14.361 97.2016 17.6149L97.2251 17.7436H93.084L93.064 17.6578C92.8497 16.7239 92.207 15.1563 90.3457 15.1563C88.394 15.1563 87.2726 16.7569 87.2726 19.5421C87.2726 22.3274 88.394 23.951 90.3457 23.951C91.8086 23.951 92.7426 23.1491 93.1945 21.4958L93.2146 21.4199ZM113.608 7.18994H118.031V26.4789H113.779V13.9683L108.423 23.0699L108.319 22.9181L103.047 13.9749V26.4855H98.8085V7.20315H103.201L103.231 7.25597L108.423 16.0572L113.608 7.18994Z" fill="#ecfe5b"></path>
                        <path class="svgColor" d="M6.86598 14.6942V26.7494L0 30.5214V11.2621L20.0857 0.256348V7.44722L6.86598 14.6942ZM20.0857 7.43401V19.4661L6.86598 26.7263V33.9303L26.9517 22.885V3.66205L20.0857 7.43401ZM15.928 17.5058C15.2317 17.5058 14.8299 16.9449 14.8299 15.9647C14.8299 14.9846 15.2317 14.417 15.928 14.417C16.6243 14.417 17.026 14.9813 17.026 15.9647C17.026 16.9482 16.6142 17.5058 15.928 17.5058ZM11.0472 19.7796C10.3509 19.7796 9.94913 19.2186 9.94913 18.2385C9.94913 17.2583 10.3509 16.6907 11.0472 16.6907C11.7435 16.6907 12.1451 17.255 12.1451 18.2385C12.1451 19.2219 11.7334 19.7796 11.0371 19.7796H11.0472Z" fill="#ecfe5b"></path>
                    </svg>