<svg width="220" height="34" viewBox="0 0 220 34" fill="none" xmlns="http://www.w3.org/2000/svg">
<circle cx="16" cy="17.5" r="16" fill="#744ED4"/>
<path fill-rule="evenodd" clip-rule="evenodd" d="M11 10.5C9.89543 10.5 9 11.3954 9 12.5V22.5C9 23.6046 9.89543 24.5 11 24.5H17L12 10.5H11ZM15 10.5L20 24.5H21C22.1046 24.5 23 23.6046 23 22.5V12.5C23 11.3954 22.1046 10.5 21 10.5H15Z" fill="white"/>
<path d="M48.382 12.136C49.306 12.136 50.1273 12.3413 50.846 12.752C51.5647 13.148 52.122 13.742 52.518 14.534C52.9287 15.3113 53.134 16.25 53.134 17.35V24.5H50.054V17.768C50.054 16.8 49.812 16.0593 49.328 15.546C48.844 15.018 48.184 14.754 47.348 14.754C46.4973 14.754 45.8227 15.018 45.324 15.546C44.84 16.0593 44.598 16.8 44.598 17.768V24.5H41.518V8.22H44.598V13.83C44.994 13.302 45.522 12.8913 46.182 12.598C46.842 12.29 47.5753 12.136 48.382 12.136ZM57.6249 10.86C57.0823 10.86 56.6276 10.6913 56.2609 10.354C55.9089 10.002 55.7329 9.56933 55.7329 9.056C55.7329 8.54267 55.9089 8.11733 56.2609 7.78C56.6276 7.428 57.0823 7.252 57.6249 7.252C58.1676 7.252 58.6149 7.428 58.9669 7.78C59.3336 8.11733 59.5169 8.54267 59.5169 9.056C59.5169 9.56933 59.3336 10.002 58.9669 10.354C58.6149 10.6913 58.1676 10.86 57.6249 10.86ZM59.1429 12.312V24.5H56.0629V12.312H59.1429ZM66.96 12.114C67.8693 12.114 68.6686 12.2973 69.358 12.664C70.0473 13.016 70.59 13.478 70.986 14.05V12.312H74.088V24.588C74.088 25.7173 73.8606 26.722 73.406 27.602C72.9513 28.4967 72.2693 29.2007 71.36 29.714C70.4506 30.242 69.3506 30.506 68.06 30.506C66.3293 30.506 64.9066 30.1027 63.792 29.296C62.692 28.4893 62.0686 27.3893 61.922 25.996H64.98C65.1413 26.5533 65.486 26.9933 66.014 27.316C66.5566 27.6533 67.2093 27.822 67.972 27.822C68.8666 27.822 69.5926 27.5507 70.15 27.008C70.7073 26.48 70.986 25.6733 70.986 24.588V22.696C70.59 23.268 70.04 23.7447 69.336 24.126C68.6466 24.5073 67.8546 24.698 66.96 24.698C65.9333 24.698 64.9946 24.434 64.144 23.906C63.2933 23.378 62.6186 22.6373 62.12 21.684C61.636 20.716 61.394 19.6087 61.394 18.362C61.394 17.13 61.636 16.0373 62.12 15.084C62.6186 14.1307 63.286 13.3973 64.122 12.884C64.9726 12.3707 65.9186 12.114 66.96 12.114ZM70.986 18.406C70.986 17.658 70.8393 17.02 70.546 16.492C70.2526 15.9493 69.8566 15.5387 69.358 15.26C68.8593 14.9667 68.324 14.82 67.752 14.82C67.18 14.82 66.652 14.9593 66.168 15.238C65.684 15.5167 65.288 15.9273 64.98 16.47C64.6866 16.998 64.54 17.6287 64.54 18.362C64.54 19.0953 64.6866 19.7407 64.98 20.298C65.288 20.8407 65.684 21.2587 66.168 21.552C66.6666 21.8453 67.1946 21.992 67.752 21.992C68.324 21.992 68.8593 21.8527 69.358 21.574C69.8566 21.2807 70.2526 20.87 70.546 20.342C70.8393 19.7993 70.986 19.154 70.986 18.406ZM83.9601 12.136C84.8841 12.136 85.7055 12.3413 86.4241 12.752C87.1428 13.148 87.7001 13.742 88.0961 14.534C88.5068 15.3113 88.7121 16.25 88.7121 17.35V24.5H85.6321V17.768C85.6321 16.8 85.3901 16.0593 84.9061 15.546C84.4221 15.018 83.7621 14.754 82.9261 14.754C82.0755 14.754 81.4008 15.018 80.9021 15.546C80.4181 16.0593 80.1761 16.8 80.1761 17.768V24.5H77.0961V8.22H80.1761V13.83C80.5721 13.302 81.1001 12.8913 81.7601 12.598C82.4201 12.29 83.1535 12.136 83.9601 12.136ZM94.721 8.22V24.5H91.641V8.22H94.721ZM99.3261 10.86C98.7834 10.86 98.3288 10.6913 97.9621 10.354C97.6101 10.002 97.4341 9.56933 97.4341 9.056C97.4341 8.54267 97.6101 8.11733 97.9621 7.78C98.3288 7.428 98.7834 7.252 99.3261 7.252C99.8688 7.252 100.316 7.428 100.668 7.78C101.035 8.11733 101.218 8.54267 101.218 9.056C101.218 9.56933 101.035 10.002 100.668 10.354C100.316 10.6913 99.8688 10.86 99.3261 10.86ZM100.844 12.312V24.5H97.7641V12.312H100.844ZM108.661 12.114C109.57 12.114 110.37 12.2973 111.059 12.664C111.748 13.016 112.291 13.478 112.687 14.05V12.312H115.789V24.588C115.789 25.7173 115.562 26.722 115.107 27.602C114.652 28.4967 113.97 29.2007 113.061 29.714C112.152 30.242 111.052 30.506 109.761 30.506C108.03 30.506 106.608 30.1027 105.493 29.296C104.393 28.4893 103.77 27.3893 103.623 25.996H106.681C106.842 26.5533 107.187 26.9933 107.715 27.316C108.258 27.6533 108.91 27.822 109.673 27.822C110.568 27.822 111.294 27.5507 111.851 27.008C112.408 26.48 112.687 25.6733 112.687 24.588V22.696C112.291 23.268 111.741 23.7447 111.037 24.126C110.348 24.5073 109.556 24.698 108.661 24.698C107.634 24.698 106.696 24.434 105.845 23.906C104.994 23.378 104.32 22.6373 103.821 21.684C103.337 20.716 103.095 19.6087 103.095 18.362C103.095 17.13 103.337 16.0373 103.821 15.084C104.32 14.1307 104.987 13.3973 105.823 12.884C106.674 12.3707 107.62 12.114 108.661 12.114ZM112.687 18.406C112.687 17.658 112.54 17.02 112.247 16.492C111.954 15.9493 111.558 15.5387 111.059 15.26C110.56 14.9667 110.025 14.82 109.453 14.82C108.881 14.82 108.353 14.9593 107.869 15.238C107.385 15.5167 106.989 15.9273 106.681 16.47C106.388 16.998 106.241 17.6287 106.241 18.362C106.241 19.0953 106.388 19.7407 106.681 20.298C106.989 20.8407 107.385 21.2587 107.869 21.552C108.368 21.8453 108.896 21.992 109.453 21.992C110.025 21.992 110.56 21.8527 111.059 21.574C111.558 21.2807 111.954 20.87 112.247 20.342C112.54 19.7993 112.687 19.154 112.687 18.406ZM125.661 12.136C126.585 12.136 127.407 12.3413 128.125 12.752C128.844 13.148 129.401 13.742 129.797 14.534C130.208 15.3113 130.413 16.25 130.413 17.35V24.5H127.333V17.768C127.333 16.8 127.091 16.0593 126.607 15.546C126.123 15.018 125.463 14.754 124.627 14.754C123.777 14.754 123.102 15.018 122.603 15.546C122.119 16.0593 121.877 16.8 121.877 17.768V24.5H118.797V8.22H121.877V13.83C122.273 13.302 122.801 12.8913 123.461 12.598C124.121 12.29 124.855 12.136 125.661 12.136ZM136.928 14.842V20.738C136.928 21.1487 137.024 21.4493 137.214 21.64C137.42 21.816 137.757 21.904 138.226 21.904H139.656V24.5H137.72C135.124 24.5 133.826 23.2387 133.826 20.716V14.842H132.374V12.312H133.826V9.298H136.928V12.312H139.656V14.842H136.928ZM143.236 24.654C142.678 24.654 142.216 24.4853 141.85 24.148C141.498 23.796 141.322 23.3633 141.322 22.85C141.322 22.3367 141.498 21.9113 141.85 21.574C142.216 21.222 142.678 21.046 143.236 21.046C143.778 21.046 144.226 21.222 144.578 21.574C144.93 21.9113 145.106 22.3367 145.106 22.85C145.106 23.3633 144.93 23.796 144.578 24.148C144.226 24.4853 143.778 24.654 143.236 24.654ZM149.148 10.86C148.606 10.86 148.151 10.6913 147.784 10.354C147.432 10.002 147.256 9.56933 147.256 9.056C147.256 8.54267 147.432 8.11733 147.784 7.78C148.151 7.428 148.606 7.252 149.148 7.252C149.691 7.252 150.138 7.428 150.49 7.78C150.857 8.11733 151.04 8.54267 151.04 9.056C151.04 9.56933 150.857 10.002 150.49 10.354C150.138 10.6913 149.691 10.86 149.148 10.86ZM150.666 12.312V24.5H147.586V12.312H150.666ZM159.121 24.698C157.948 24.698 156.892 24.4413 155.953 23.928C155.015 23.4 154.274 22.6593 153.731 21.706C153.203 20.7527 152.939 19.6527 152.939 18.406C152.939 17.1593 153.211 16.0593 153.753 15.106C154.311 14.1527 155.066 13.4193 156.019 12.906C156.973 12.378 158.036 12.114 159.209 12.114C160.383 12.114 161.446 12.378 162.399 12.906C163.353 13.4193 164.101 14.1527 164.643 15.106C165.201 16.0593 165.479 17.1593 165.479 18.406C165.479 19.6527 165.193 20.7527 164.621 21.706C164.064 22.6593 163.301 23.4 162.333 23.928C161.38 24.4413 160.309 24.698 159.121 24.698ZM159.121 22.014C159.679 22.014 160.199 21.882 160.683 21.618C161.182 21.3393 161.578 20.9287 161.871 20.386C162.165 19.8433 162.311 19.1833 162.311 18.406C162.311 17.2473 162.003 16.36 161.387 15.744C160.786 15.1133 160.045 14.798 159.165 14.798C158.285 14.798 157.545 15.1133 156.943 15.744C156.357 16.36 156.063 17.2473 156.063 18.406C156.063 19.5647 156.349 20.4593 156.921 21.09C157.508 21.706 158.241 22.014 159.121 22.014Z" fill="#1A1523" fill-opacity="0.8"/>
</svg>
