<svg version="1.1" xmlns="http://www.w3.org/2000/svg" xmlns:xlink="http://www.w3.org/1999/xlink" x="0px" y="0px"
	 viewBox="0 0 31 28" style="enable-background:new 0 0 145.6 28;" xml:space="preserve">
<style type="text/css">
	.st0{fill:#ffffff;}
</style>
<g>
	<g>
		<path class="st0" d="M30.9,14c0-2.4-1.9-4.5-5.1-6c0.3-3.4-0.6-6.2-2.7-7.4S18.3,0,15.5,2c-0.1-0.1-0.2-0.1-0.3-0.2
			c-2.8-1.9-5.5-2.3-7.5-1.2C5.6,1.8,4.8,4.6,5.1,8C1.9,9.5,0,11.6,0,14s1.9,4.5,5.1,6c0,0.1,0,0.2,0,0.3c-0.2,3.4,0.7,5.9,2.7,7
			c0.7,0.4,1.6,0.6,2.4,0.6c1.6,0,3.5-0.7,5.3-2c1.9,1.3,3.7,2,5.3,2c0.8,0,1.7-0.2,2.4-0.6c2-1.1,2.9-3.6,2.7-7c0-0.1,0-0.2,0-0.3
			C29,18.6,30.9,16.4,30.9,14z M20.8,1.7c0.5,0,1.1,0.1,1.6,0.4c1.3,0.7,2,2.7,1.9,5.2c-1.4-0.5-2.8-0.8-4.3-1C19,5.1,18,4,16.9,3.1
			C18.3,2.2,19.7,1.7,20.8,1.7z M6.9,9.1c0.9-0.3,1.8-0.6,2.7-0.8C9.2,8.8,8.8,9.4,8.5,10c-0.3,0.6-0.7,1.2-0.9,1.8
			C7.3,10.9,7,10,6.9,9.1z M19,20.2c-1.2,0.1-2.4,0.2-3.5,0.2s-2.4-0.1-3.5-0.2c-0.8-0.1-1.6-0.2-2.4-0.4c-0.9-0.2-1.8-0.5-2.7-0.8
			C7,18,7.3,17.1,7.5,16.3C7.8,15.5,8,14.8,8.4,14c0.5-1.1,1-2.2,1.6-3.2c0.6-1,1.2-2,2-3c0.5-0.7,1-1.3,1.5-1.9
			c0.6-0.7,1.3-1.3,2-1.9c0.7,0.6,1.4,1.2,2,1.9c0.5,0.6,1,1.2,1.5,1.9c0.7,0.9,1.4,1.9,2,3c0.6,1,1.1,2.1,1.6,3.2
			c0.3,0.8,0.6,1.5,0.8,2.3c0.3,0.9,0.5,1.8,0.6,2.7c-0.9,0.3-1.8,0.6-2.7,0.8C20.6,19.9,19.8,20.1,19,20.2z M15.5,22.1
			c0.7,0,1.4,0,2-0.1c-0.6,0.7-1.3,1.3-2,1.9c-0.7-0.6-1.4-1.2-2-1.9C14.1,22,14.8,22.1,15.5,22.1z M23.4,11.8
			c-0.3-0.6-0.6-1.2-0.9-1.8c-0.3-0.6-0.7-1.2-1.1-1.7c0.9,0.2,1.8,0.5,2.7,0.8C23.9,10,23.7,10.9,23.4,11.8L23.4,11.8z M8.6,2.1
			c0.5-0.3,1-0.4,1.6-0.4c1.1,0,2.5,0.5,3.9,1.4c-1.1,1-2.1,2-3.1,3.2C9.5,6.5,8.1,6.8,6.7,7.3C6.6,4.7,7.3,2.8,8.6,2.1z M1.7,14
			c0-1.6,1.4-3.1,3.6-4.2C5.6,11.2,6,12.6,6.5,14c-0.5,1.4-1,2.8-1.2,4.2C3,17.1,1.7,15.5,1.7,14L1.7,14z M10.1,26.3
			c-0.5,0-1.1-0.1-1.6-0.4c-1.3-0.8-2-2.7-1.9-5.2c1.4,0.5,2.8,0.8,4.3,1.1c0.9,1.2,1.9,2.2,3.1,3.2C12.6,25.9,11.3,26.3,10.1,26.3z
			 M22.4,25.9c-1.3,0.7-3.3,0.4-5.5-1c1.1-1,2.1-2,3.1-3.2c1.5-0.2,2.9-0.6,4.3-1.1C24.3,23.3,23.7,25.2,22.4,25.9L22.4,25.9z
			 M25.6,18.3c-0.3-1.4-0.7-2.9-1.2-4.2c0.5-1.4,1-2.8,1.2-4.2c2.2,1.1,3.6,2.6,3.6,4.2C29.2,15.5,27.9,17.1,25.6,18.3L25.6,18.3z"
			/>
		<path class="st0" d="M15.5,8.9c-2,2.6-3.4,5.6-4.2,8.7l4.2-2.3l4.2,2.3c-0.4-1.6-1-3.2-1.7-4.7C17.2,11.6,16.4,10.2,15.5,8.9z"/>
	</g>
</g>
</svg>
