<svg version="1.1" xmlns="http://www.w3.org/2000/svg" xmlns:xlink="http://www.w3.org/1999/xlink" x="0px" y="0px"
	 viewBox="0 0 145.6 28" style="enable-background:new 0 0 145.6 28;" xml:space="preserve">
<style type="text/css">
	.st0{fill:#ffffff;}
</style>
<g>
	<g>
		<path class="st0" d="M30.9,14c0-2.4-1.9-4.5-5.1-6c0.3-3.4-0.6-6.2-2.7-7.4S18.3,0,15.5,2c-0.1-0.1-0.2-0.1-0.3-0.2
			c-2.8-1.9-5.5-2.3-7.5-1.2C5.6,1.8,4.8,4.6,5.1,8C1.9,9.5,0,11.6,0,14s1.9,4.5,5.1,6c0,0.1,0,0.2,0,0.3c-0.2,3.4,0.7,5.9,2.7,7
			c0.7,0.4,1.6,0.6,2.4,0.6c1.6,0,3.5-0.7,5.3-2c1.9,1.3,3.7,2,5.3,2c0.8,0,1.7-0.2,2.4-0.6c2-1.1,2.9-3.6,2.7-7c0-0.1,0-0.2,0-0.3
			C29,18.6,30.9,16.4,30.9,14z M20.8,1.7c0.5,0,1.1,0.1,1.6,0.4c1.3,0.7,2,2.7,1.9,5.2c-1.4-0.5-2.8-0.8-4.3-1C19,5.1,18,4,16.9,3.1
			C18.3,2.2,19.7,1.7,20.8,1.7z M6.9,9.1c0.9-0.3,1.8-0.6,2.7-0.8C9.2,8.8,8.8,9.4,8.5,10c-0.3,0.6-0.7,1.2-0.9,1.8
			C7.3,10.9,7,10,6.9,9.1z M19,20.2c-1.2,0.1-2.4,0.2-3.5,0.2s-2.4-0.1-3.5-0.2c-0.8-0.1-1.6-0.2-2.4-0.4c-0.9-0.2-1.8-0.5-2.7-0.8
			C7,18,7.3,17.1,7.5,16.3C7.8,15.5,8,14.8,8.4,14c0.5-1.1,1-2.2,1.6-3.2c0.6-1,1.2-2,2-3c0.5-0.7,1-1.3,1.5-1.9
			c0.6-0.7,1.3-1.3,2-1.9c0.7,0.6,1.4,1.2,2,1.9c0.5,0.6,1,1.2,1.5,1.9c0.7,0.9,1.4,1.9,2,3c0.6,1,1.1,2.1,1.6,3.2
			c0.3,0.8,0.6,1.5,0.8,2.3c0.3,0.9,0.5,1.8,0.6,2.7c-0.9,0.3-1.8,0.6-2.7,0.8C20.6,19.9,19.8,20.1,19,20.2z M15.5,22.1
			c0.7,0,1.4,0,2-0.1c-0.6,0.7-1.3,1.3-2,1.9c-0.7-0.6-1.4-1.2-2-1.9C14.1,22,14.8,22.1,15.5,22.1z M23.4,11.8
			c-0.3-0.6-0.6-1.2-0.9-1.8c-0.3-0.6-0.7-1.2-1.1-1.7c0.9,0.2,1.8,0.5,2.7,0.8C23.9,10,23.7,10.9,23.4,11.8L23.4,11.8z M8.6,2.1
			c0.5-0.3,1-0.4,1.6-0.4c1.1,0,2.5,0.5,3.9,1.4c-1.1,1-2.1,2-3.1,3.2C9.5,6.5,8.1,6.8,6.7,7.3C6.6,4.7,7.3,2.8,8.6,2.1z M1.7,14
			c0-1.6,1.4-3.1,3.6-4.2C5.6,11.2,6,12.6,6.5,14c-0.5,1.4-1,2.8-1.2,4.2C3,17.1,1.7,15.5,1.7,14L1.7,14z M10.1,26.3
			c-0.5,0-1.1-0.1-1.6-0.4c-1.3-0.8-2-2.7-1.9-5.2c1.4,0.5,2.8,0.8,4.3,1.1c0.9,1.2,1.9,2.2,3.1,3.2C12.6,25.9,11.3,26.3,10.1,26.3z
			 M22.4,25.9c-1.3,0.7-3.3,0.4-5.5-1c1.1-1,2.1-2,3.1-3.2c1.5-0.2,2.9-0.6,4.3-1.1C24.3,23.3,23.7,25.2,22.4,25.9L22.4,25.9z
			 M25.6,18.3c-0.3-1.4-0.7-2.9-1.2-4.2c0.5-1.4,1-2.8,1.2-4.2c2.2,1.1,3.6,2.6,3.6,4.2C29.2,15.5,27.9,17.1,25.6,18.3L25.6,18.3z"
			/>
		<path class="st0" d="M15.5,8.9c-2,2.6-3.4,5.6-4.2,8.7l4.2-2.3l4.2,2.3c-0.4-1.6-1-3.2-1.7-4.7C17.2,11.6,16.4,10.2,15.5,8.9z"/>
	</g>
	<g>
		<path class="st0" d="M39.6,19.3V8.7h2.1L42,10c1.2-0.9,2.4-1.3,3.7-1.3c1.3,0,2.3,0.5,2.9,1.5c1.4-1,2.6-1.5,3.8-1.5
			c2.3,0,3.4,1.4,3.4,4.1v6.6h-2.7v-6.7c0-1.2-0.5-1.8-1.5-1.8c-0.8,0-1.6,0.5-2.5,1.4v7.1h-2.7v-6.7c0-1.2-0.5-1.8-1.5-1.8
			c-0.9,0-1.7,0.5-2.5,1.4v7.1L39.6,19.3z"/>
		<path class="st0" d="M57.4,14c0-3.6,1.8-5.4,5.4-5.4c3.6,0,5.4,1.8,5.4,5.4s-1.8,5.4-5.4,5.4C59.2,19.4,57.5,17.6,57.4,14z
			 M62.8,17.3c1.8,0,2.7-1.1,2.7-3.3c0-2.2-0.9-3.3-2.7-3.3c-1.8,0-2.7,1.1-2.7,3.3C60.1,16.2,61,17.3,62.8,17.3L62.8,17.3z"/>
		<path class="st0" d="M79.9,8.7v10.7h-2.1L77.5,18c-1.3,0.9-2.6,1.4-3.9,1.4c-2.5,0-3.7-1.3-3.7-4V8.7h2.7v6.7
			c0,1.2,0.6,1.8,1.7,1.8c0.9,0,1.9-0.5,2.9-1.4V8.7H79.9z"/>
		<path class="st0" d="M82.7,18.8v-2.2c1.2,0.5,2.6,0.7,4.1,0.7c1.2,0,1.7-0.4,1.7-1.1c0-0.7-0.4-1-1.2-1h-1.9
			c-2.2,0-3.3-1.1-3.3-3.3c0-2.2,1.6-3.4,4.7-3.4c1.3,0,2.6,0.2,3.8,0.6v2.2c-1.2-0.5-2.5-0.7-3.9-0.7c-1.5,0-2.2,0.4-2.2,1.1
			c0,0.7,0.4,1,1.3,1h1.7c2.4,0,3.6,1.1,3.6,3.3c0,2.2-1.5,3.4-4.5,3.4C85.2,19.4,83.9,19.2,82.7,18.8z"/>
		<path class="st0" d="M102.7,15.1h-7c0,1.4,1.2,2.2,3.5,2.2c1.1,0,2.2-0.1,3.2-0.3V19c-0.9,0.2-2.2,0.3-3.6,0.3
			c-3.9,0-5.8-1.8-5.8-5.5c0-3.5,1.8-5.2,5.3-5.2C101.8,8.7,103.3,10.8,102.7,15.1z M95.7,13.1h4.5c0.1-1.5-0.6-2.3-2.1-2.3
			C96.6,10.8,95.8,11.6,95.7,13.1z"/>
		<path class="st0" d="M105,19.4V8.1c0-2.6,1.6-3.9,4.8-3.9c0.8,0,1.6,0.1,2.4,0.4v2.1c-0.7-0.3-1.5-0.4-2.4-0.4
			c-1.4,0-2.1,0.7-2.1,2.3h3.2v2.1h-3.2v8.5L105,19.4z"/>
		<path class="st0" d="M116.2,4.8v14.5h-2.7V4.8H116.2z"/>
		<path class="st0" d="M118.1,14c0-3.6,1.8-5.4,5.4-5.4c3.6,0,5.4,1.8,5.4,5.4s-1.8,5.4-5.4,5.4C119.9,19.4,118.2,17.6,118.1,14z
			 M123.5,17.3c1.8,0,2.7-1.1,2.7-3.3c0-2.2-0.9-3.3-2.7-3.3s-2.7,1.1-2.7,3.3C120.8,16.2,121.7,17.3,123.5,17.3z"/>
		<path class="st0" d="M129.8,8.7h2.7l1.6,7.2l2.4-7.2h2.3l2.6,7.2l1.4-7.2h2.8l-2.9,10.7h-2.5l-2.5-7.4l-2.5,7.4h-2.6L129.8,8.7z"
			/>
	</g>
</g>
</svg>
