<svg width="20" height="20" viewBox="0 0 20 20" fill="none" xmlns="http://www.w3.org/2000/svg">
<g clip-path="url(#clip0_285_451)">
<path d="M11.25 13.545C11.25 12.79 10.9187 12.0712 10.3275 11.6025C9.42375 10.885 7.85625 10 5.625 10C3.39375 10 1.82625 10.885 0.9225 11.6025C0.33125 12.0712 0 12.79 0 13.545V15H11.25V13.545Z" fill="white"/>
<path d="M5.625 8.75C7.35089 8.75 8.75 7.35089 8.75 5.625C8.75 3.89911 7.35089 2.5 5.625 2.5C3.89911 2.5 2.5 3.89911 2.5 5.625C2.5 7.35089 3.89911 8.75 5.625 8.75Z" fill="white"/>
<path d="M14.375 8.75C16.1009 8.75 17.5 7.35089 17.5 5.625C17.5 3.89911 16.1009 2.5 14.375 2.5C12.6491 2.5 11.25 3.89911 11.25 5.625C11.25 7.35089 12.6491 8.75 14.375 8.75Z" fill="white"/>
<path d="M19.0778 11.6025C18.1741 10.885 16.6066 10 14.3753 10C13.6741 10 13.0466 10.0938 12.4766 10.2363C13.2816 11.1363 13.7503 12.295 13.7503 13.545V15H20.0003V13.545C20.0003 12.79 19.6691 12.0712 19.0778 11.6025Z" fill="white"/>
</g>
<defs>
<clipPath id="clip0_285_451">
<rect width="20" height="20" fill="white"/>
</clipPath>
</defs>
</svg>
