<svg width="592" height="366" viewBox="0 0 592 366" fill="none" xmlns="http://www.w3.org/2000/svg">
<rect x="0.5" y="0.5" width="591" height="365" rx="11.5" fill="#0D0225" stroke="#0D0225"/>
<path d="M41.892 77.856C41.892 75.392 42.3907 73.236 43.388 71.388C44.3853 69.5107 45.7493 68.0587 47.48 67.032C49.24 66.0053 51.2053 65.492 53.376 65.492C55.2533 65.492 56.9987 65.932 58.612 66.812C60.2253 67.6627 61.4573 68.792 62.308 70.2V57.44H66.356V90H62.308V85.468C61.516 86.9053 60.3427 88.0933 58.788 89.032C57.2333 89.9413 55.4147 90.396 53.332 90.396C51.1907 90.396 49.24 89.868 47.48 88.812C45.7493 87.756 44.3853 86.2747 43.388 84.368C42.3907 82.4613 41.892 80.2907 41.892 77.856ZM62.308 77.9C62.308 76.0813 61.9413 74.4973 61.208 73.148C60.4747 71.7987 59.4773 70.772 58.216 70.068C56.984 69.3347 55.62 68.968 54.124 68.968C52.628 68.968 51.264 69.32 50.032 70.024C48.8 70.728 47.8173 71.7547 47.084 73.104C46.3507 74.4533 45.984 76.0373 45.984 77.856C45.984 79.704 46.3507 81.3173 47.084 82.696C47.8173 84.0453 48.8 85.0867 50.032 85.82C51.264 86.524 52.628 86.876 54.124 86.876C55.62 86.876 56.984 86.524 58.216 85.82C59.4773 85.0867 60.4747 84.0453 61.208 82.696C61.9413 81.3173 62.308 79.7187 62.308 77.9ZM80.0584 90.396C78.2104 90.396 76.553 90.088 75.0864 89.472C73.6197 88.8267 72.461 87.9467 71.6104 86.832C70.7597 85.688 70.2904 84.3827 70.2024 82.916H74.3384C74.4557 84.1187 75.013 85.1013 76.0104 85.864C77.037 86.6267 78.3717 87.008 80.0144 87.008C81.5397 87.008 82.7424 86.6707 83.6224 85.996C84.5024 85.3213 84.9424 84.4707 84.9424 83.444C84.9424 82.388 84.473 81.6107 83.5344 81.112C82.5957 80.584 81.1437 80.0707 79.1784 79.572C77.389 79.1027 75.9224 78.6333 74.7784 78.164C73.6637 77.6653 72.6957 76.9467 71.8744 76.008C71.0824 75.04 70.6864 73.7787 70.6864 72.224C70.6864 70.992 71.053 69.8627 71.7864 68.836C72.5197 67.8093 73.561 67.0027 74.9104 66.416C76.2597 65.8 77.7997 65.492 79.5304 65.492C82.1997 65.492 84.3557 66.1667 85.9984 67.516C87.641 68.8653 88.521 70.7133 88.6384 73.06H84.6344C84.5464 71.7987 84.033 70.7867 83.0944 70.024C82.185 69.2613 80.953 68.88 79.3984 68.88C77.961 68.88 76.817 69.188 75.9664 69.804C75.1157 70.42 74.6904 71.2267 74.6904 72.224C74.6904 73.016 74.9397 73.676 75.4384 74.204C75.9664 74.7027 76.6117 75.1133 77.3744 75.436C78.1664 75.7293 79.2517 76.0667 80.6304 76.448C82.361 76.9173 83.769 77.3867 84.8544 77.856C85.9397 78.296 86.8637 78.9707 87.6264 79.88C88.4184 80.7893 88.829 81.9773 88.8584 83.444C88.8584 84.764 88.4917 85.952 87.7584 87.008C87.025 88.064 85.9837 88.9 84.6344 89.516C83.3144 90.1027 81.789 90.396 80.0584 90.396ZM91.4147 77.856C91.4147 75.392 91.9133 73.236 92.9107 71.388C93.908 69.5107 95.272 68.0587 97.0027 67.032C98.7627 66.0053 100.713 65.492 102.855 65.492C104.967 65.492 106.8 65.9467 108.355 66.856C109.909 67.7653 111.068 68.9093 111.831 70.288V65.888H115.879V90H111.831V85.512C111.039 86.92 109.851 88.0933 108.267 89.032C106.712 89.9413 104.893 90.396 102.811 90.396C100.669 90.396 98.7333 89.868 97.0027 88.812C95.272 87.756 93.908 86.2747 92.9107 84.368C91.9133 82.4613 91.4147 80.2907 91.4147 77.856ZM111.831 77.9C111.831 76.0813 111.464 74.4973 110.731 73.148C109.997 71.7987 109 70.772 107.739 70.068C106.507 69.3347 105.143 68.968 103.647 68.968C102.151 68.968 100.787 69.32 99.5547 70.024C98.3227 70.728 97.34 71.7547 96.6067 73.104C95.8733 74.4533 95.5067 76.0373 95.5067 77.856C95.5067 79.704 95.8733 81.3173 96.6067 82.696C97.34 84.0453 98.3227 85.0867 99.5547 85.82C100.787 86.524 102.151 86.876 103.647 86.876C105.143 86.876 106.507 86.524 107.739 85.82C109 85.0867 109.997 84.0453 110.731 82.696C111.464 81.3173 111.831 79.7187 111.831 77.9ZM125.049 57.44V90H121.045V57.44H125.049ZM152.273 77.02C152.273 77.7827 152.229 78.5893 152.141 79.44H132.869C133.016 81.816 133.822 83.6787 135.289 85.028C136.785 86.348 138.589 87.008 140.701 87.008C142.432 87.008 143.869 86.612 145.013 85.82C146.186 84.9987 147.008 83.9133 147.477 82.564H151.789C151.144 84.8813 149.853 86.7733 147.917 88.24C145.981 89.6773 143.576 90.396 140.701 90.396C138.413 90.396 136.36 89.8827 134.541 88.856C132.752 87.8293 131.344 86.3773 130.317 84.5C129.29 82.5933 128.777 80.3933 128.777 77.9C128.777 75.4067 129.276 73.2213 130.273 71.344C131.27 69.4667 132.664 68.0293 134.453 67.032C136.272 66.0053 138.354 65.492 140.701 65.492C142.989 65.492 145.013 65.9907 146.773 66.988C148.533 67.9853 149.882 69.364 150.821 71.124C151.789 72.8547 152.273 74.82 152.273 77.02ZM148.137 76.184C148.137 74.6587 147.8 73.3533 147.125 72.268C146.45 71.1533 145.526 70.3173 144.353 69.76C143.209 69.1733 141.933 68.88 140.525 68.88C138.501 68.88 136.77 69.5253 135.333 70.816C133.925 72.1067 133.118 73.896 132.913 76.184H148.137ZM167.926 65.448C169.745 65.448 171.388 65.844 172.854 66.636C174.321 67.3987 175.465 68.5573 176.286 70.112C177.137 71.6667 177.562 73.5587 177.562 75.788V90H173.602V76.36C173.602 73.9547 173.001 72.1213 171.798 70.86C170.596 69.5693 168.953 68.924 166.87 68.924C164.758 68.924 163.072 69.584 161.81 70.904C160.578 72.224 159.962 74.1453 159.962 76.668V90H155.958V57.44H159.962V69.32C160.754 68.088 161.84 67.1347 163.218 66.46C164.626 65.7853 166.196 65.448 167.926 65.448ZM186.507 70.332C187.299 68.9533 188.472 67.8093 190.027 66.9C191.611 65.9613 193.444 65.492 195.527 65.492C197.668 65.492 199.604 66.0053 201.335 67.032C203.095 68.0587 204.474 69.5107 205.471 71.388C206.468 73.236 206.967 75.392 206.967 77.856C206.967 80.2907 206.468 82.4613 205.471 84.368C204.474 86.2747 203.095 87.756 201.335 88.812C199.604 89.868 197.668 90.396 195.527 90.396C193.474 90.396 191.655 89.9413 190.071 89.032C188.516 88.0933 187.328 86.9347 186.507 85.556V101.44H182.503V65.888H186.507V70.332ZM202.875 77.856C202.875 76.0373 202.508 74.4533 201.775 73.104C201.042 71.7547 200.044 70.728 198.783 70.024C197.551 69.32 196.187 68.968 194.691 68.968C193.224 68.968 191.86 69.3347 190.599 70.068C189.367 70.772 188.37 71.8133 187.607 73.192C186.874 74.5413 186.507 76.1107 186.507 77.9C186.507 79.7187 186.874 81.3173 187.607 82.696C188.37 84.0453 189.367 85.0867 190.599 85.82C191.86 86.524 193.224 86.876 194.691 86.876C196.187 86.876 197.551 86.524 198.783 85.82C200.044 85.0867 201.042 84.0453 201.775 82.696C202.508 81.3173 202.875 79.704 202.875 77.856ZM221.153 90.396C218.895 90.396 216.841 89.8827 214.993 88.856C213.175 87.8293 211.737 86.3773 210.681 84.5C209.655 82.5933 209.141 80.3933 209.141 77.9C209.141 75.436 209.669 73.2653 210.725 71.388C211.811 69.4813 213.277 68.0293 215.125 67.032C216.973 66.0053 219.041 65.492 221.329 65.492C223.617 65.492 225.685 66.0053 227.533 67.032C229.381 68.0293 230.833 69.4667 231.889 71.344C232.975 73.2213 233.517 75.4067 233.517 77.9C233.517 80.3933 232.96 82.5933 231.845 84.5C230.76 86.3773 229.279 87.8293 227.401 88.856C225.524 89.8827 223.441 90.396 221.153 90.396ZM221.153 86.876C222.591 86.876 223.94 86.5387 225.201 85.864C226.463 85.1893 227.475 84.1773 228.237 82.828C229.029 81.4787 229.425 79.836 229.425 77.9C229.425 75.964 229.044 74.3213 228.281 72.972C227.519 71.6227 226.521 70.6253 225.289 69.98C224.057 69.3053 222.723 68.968 221.285 68.968C219.819 68.968 218.469 69.3053 217.237 69.98C216.035 70.6253 215.067 71.6227 214.333 72.972C213.6 74.3213 213.233 75.964 213.233 77.9C213.233 79.8653 213.585 81.5227 214.289 82.872C215.023 84.2213 215.991 85.2333 217.193 85.908C218.396 86.5533 219.716 86.876 221.153 86.876ZM235.686 77.9C235.686 75.4067 236.184 73.236 237.182 71.388C238.179 69.5107 239.558 68.0587 241.318 67.032C243.107 66.0053 245.146 65.492 247.434 65.492C250.396 65.492 252.831 66.2107 254.738 67.648C256.674 69.0853 257.95 71.08 258.566 73.632H254.254C253.843 72.1653 253.036 71.0067 251.834 70.156C250.66 69.3053 249.194 68.88 247.434 68.88C245.146 68.88 243.298 69.672 241.89 71.256C240.482 72.8107 239.778 75.0253 239.778 77.9C239.778 80.804 240.482 83.048 241.89 84.632C243.298 86.216 245.146 87.008 247.434 87.008C249.194 87.008 250.66 86.5973 251.834 85.776C253.007 84.9547 253.814 83.7813 254.254 82.256H258.566C257.92 84.72 256.63 86.7 254.694 88.196C252.758 89.6627 250.338 90.396 247.434 90.396C245.146 90.396 243.107 89.8827 241.318 88.856C239.558 87.8293 238.179 86.3773 237.182 84.5C236.184 82.6227 235.686 80.4227 235.686 77.9ZM270.943 77.856C270.943 75.392 271.441 73.236 272.439 71.388C273.436 69.5107 274.8 68.0587 276.531 67.032C278.291 66.0053 280.256 65.492 282.427 65.492C284.509 65.492 286.328 65.9613 287.883 66.9C289.467 67.8093 290.625 68.9387 291.359 70.288V65.888H295.407V101.44H291.359V85.556C290.596 86.9053 289.423 88.0493 287.839 88.988C286.255 89.9267 284.407 90.396 282.295 90.396C280.183 90.396 278.261 89.868 276.531 88.812C274.8 87.756 273.436 86.2747 272.439 84.368C271.441 82.4613 270.943 80.2907 270.943 77.856ZM291.359 77.9C291.359 76.0813 290.992 74.4973 290.259 73.148C289.525 71.7987 288.528 70.772 287.267 70.068C286.035 69.3347 284.671 68.968 283.175 68.968C281.679 68.968 280.315 69.32 279.083 70.024C277.851 70.728 276.868 71.7547 276.135 73.104C275.401 74.4533 275.035 76.0373 275.035 77.856C275.035 79.704 275.401 81.3173 276.135 82.696C276.868 84.0453 277.851 85.0867 279.083 85.82C280.315 86.524 281.679 86.876 283.175 86.876C284.671 86.876 286.035 86.524 287.267 85.82C288.528 85.0867 289.525 84.0453 290.259 82.696C290.992 81.3173 291.359 79.7187 291.359 77.9ZM304.577 70.332C305.369 68.9533 306.542 67.8093 308.097 66.9C309.681 65.9613 311.514 65.492 313.597 65.492C315.738 65.492 317.674 66.0053 319.405 67.032C321.165 68.0587 322.544 69.5107 323.541 71.388C324.538 73.236 325.037 75.392 325.037 77.856C325.037 80.2907 324.538 82.4613 323.541 84.368C322.544 86.2747 321.165 87.756 319.405 88.812C317.674 89.868 315.738 90.396 313.597 90.396C311.544 90.396 309.725 89.9413 308.141 89.032C306.586 88.0933 305.398 86.9347 304.577 85.556V101.44H300.573V65.888H304.577V70.332ZM320.945 77.856C320.945 76.0373 320.578 74.4533 319.845 73.104C319.112 71.7547 318.114 70.728 316.853 70.024C315.621 69.32 314.257 68.968 312.761 68.968C311.294 68.968 309.93 69.3347 308.669 70.068C307.437 70.772 306.44 71.8133 305.677 73.192C304.944 74.5413 304.577 76.1107 304.577 77.9C304.577 79.7187 304.944 81.3173 305.677 82.696C306.44 84.0453 307.437 85.0867 308.669 85.82C309.93 86.524 311.294 86.876 312.761 86.876C314.257 86.876 315.621 86.524 316.853 85.82C318.114 85.0867 319.112 84.0453 319.845 82.696C320.578 81.3173 320.945 79.704 320.945 77.856ZM327.212 77.856C327.212 75.392 327.71 73.236 328.708 71.388C329.705 69.5107 331.069 68.0587 332.8 67.032C334.56 66.0053 336.525 65.492 338.696 65.492C340.573 65.492 342.318 65.932 343.932 66.812C345.545 67.6627 346.777 68.792 347.628 70.2V57.44H351.676V90H347.628V85.468C346.836 86.9053 345.662 88.0933 344.108 89.032C342.553 89.9413 340.734 90.396 338.652 90.396C336.51 90.396 334.56 89.868 332.8 88.812C331.069 87.756 329.705 86.2747 328.708 84.368C327.71 82.4613 327.212 80.2907 327.212 77.856ZM347.628 77.9C347.628 76.0813 347.261 74.4973 346.528 73.148C345.794 71.7987 344.797 70.772 343.536 70.068C342.304 69.3347 340.94 68.968 339.444 68.968C337.948 68.968 336.584 69.32 335.352 70.024C334.12 70.728 333.137 71.7547 332.404 73.104C331.67 74.4533 331.304 76.0373 331.304 77.856C331.304 79.704 331.67 81.3173 332.404 82.696C333.137 84.0453 334.12 85.0867 335.352 85.82C336.584 86.524 337.948 86.876 339.444 86.876C340.94 86.876 342.304 86.524 343.536 85.82C344.797 85.0867 345.794 84.0453 346.528 82.696C347.261 81.3173 347.628 79.7187 347.628 77.9ZM358.998 61.972C358.235 61.972 357.59 61.708 357.062 61.18C356.563 60.652 356.314 60.0067 356.314 59.244C356.314 58.4813 356.563 57.836 357.062 57.308C357.59 56.78 358.235 56.516 358.998 56.516C359.761 56.516 360.391 56.78 360.89 57.308C361.418 57.836 361.682 58.4813 361.682 59.244C361.682 60.0067 361.418 60.652 360.89 61.18C360.391 61.708 359.761 61.972 358.998 61.972ZM360.978 95.236C360.978 97.3773 360.435 98.9467 359.35 99.944C358.265 100.941 356.681 101.44 354.598 101.44H352.266V98.052H353.938C355.053 98.052 355.83 97.832 356.27 97.392C356.739 96.952 356.974 96.204 356.974 95.148V65.888H360.978V95.236ZM364.66 77.9C364.66 75.4067 365.159 73.236 366.156 71.388C367.153 69.5107 368.532 68.0587 370.292 67.032C372.081 66.0053 374.12 65.492 376.408 65.492C379.371 65.492 381.805 66.2107 383.712 67.648C385.648 69.0853 386.924 71.08 387.54 73.632H383.228C382.817 72.1653 382.011 71.0067 380.808 70.156C379.635 69.3053 378.168 68.88 376.408 68.88C374.12 68.88 372.272 69.672 370.864 71.256C369.456 72.8107 368.752 75.0253 368.752 77.9C368.752 80.804 369.456 83.048 370.864 84.632C372.272 86.216 374.12 87.008 376.408 87.008C378.168 87.008 379.635 86.5973 380.808 85.776C381.981 84.9547 382.788 83.7813 383.228 82.256H387.54C386.895 84.72 385.604 86.7 383.668 88.196C381.732 89.6627 379.312 90.396 376.408 90.396C374.12 90.396 372.081 89.8827 370.292 88.856C368.532 87.8293 367.153 86.3773 366.156 84.5C365.159 82.6227 364.66 80.4227 364.66 77.9ZM412.667 65.888V90H408.663V86.436C407.9 87.668 406.829 88.636 405.451 89.34C404.101 90.0147 402.605 90.352 400.963 90.352C399.085 90.352 397.399 89.9707 395.903 89.208C394.407 88.416 393.219 87.2427 392.339 85.688C391.488 84.1333 391.063 82.2413 391.063 80.012V65.888H395.023V79.484C395.023 81.86 395.624 83.6933 396.827 84.984C398.029 86.2453 399.672 86.876 401.755 86.876C403.896 86.876 405.583 86.216 406.815 84.896C408.047 83.576 408.663 81.6547 408.663 79.132V65.888H412.667ZM426.363 90.396C424.515 90.396 422.858 90.088 421.391 89.472C419.924 88.8267 418.766 87.9467 417.915 86.832C417.064 85.688 416.595 84.3827 416.507 82.916H420.643C420.76 84.1187 421.318 85.1013 422.315 85.864C423.342 86.6267 424.676 87.008 426.319 87.008C427.844 87.008 429.047 86.6707 429.927 85.996C430.807 85.3213 431.247 84.4707 431.247 83.444C431.247 82.388 430.778 81.6107 429.839 81.112C428.9 80.584 427.448 80.0707 425.483 79.572C423.694 79.1027 422.227 78.6333 421.083 78.164C419.968 77.6653 419 76.9467 418.179 76.008C417.387 75.04 416.991 73.7787 416.991 72.224C416.991 70.992 417.358 69.8627 418.091 68.836C418.824 67.8093 419.866 67.0027 421.215 66.416C422.564 65.8 424.104 65.492 425.835 65.492C428.504 65.492 430.66 66.1667 432.303 67.516C433.946 68.8653 434.826 70.7133 434.943 73.06H430.939C430.851 71.7987 430.338 70.7867 429.399 70.024C428.49 69.2613 427.258 68.88 425.703 68.88C424.266 68.88 423.122 69.188 422.271 69.804C421.42 70.42 420.995 71.2267 420.995 72.224C420.995 73.016 421.244 73.676 421.743 74.204C422.271 74.7027 422.916 75.1133 423.679 75.436C424.471 75.7293 425.556 76.0667 426.935 76.448C428.666 76.9173 430.074 77.3867 431.159 77.856C432.244 78.296 433.168 78.9707 433.931 79.88C434.723 80.7893 435.134 81.9773 435.163 83.444C435.163 84.764 434.796 85.952 434.063 87.008C433.33 88.064 432.288 88.9 430.939 89.516C429.619 90.1027 428.094 90.396 426.363 90.396ZM441.283 61.972C440.521 61.972 439.875 61.708 439.347 61.18C438.819 60.652 438.555 60.0067 438.555 59.244C438.555 58.4813 438.819 57.836 439.347 57.308C439.875 56.78 440.521 56.516 441.283 56.516C442.017 56.516 442.633 56.78 443.131 57.308C443.659 57.836 443.923 58.4813 443.923 59.244C443.923 60.0067 443.659 60.652 443.131 61.18C442.633 61.708 442.017 61.972 441.283 61.972ZM443.219 65.888V90H439.215V65.888H443.219ZM315.665 131.856C315.665 129.392 316.164 127.236 317.161 125.388C318.159 123.511 319.523 122.059 321.253 121.032C323.013 120.005 324.964 119.492 327.105 119.492C329.217 119.492 331.051 119.947 332.605 120.856C334.16 121.765 335.319 122.909 336.081 124.288V119.888H340.129V144H336.081V139.512C335.289 140.92 334.101 142.093 332.517 143.032C330.963 143.941 329.144 144.396 327.061 144.396C324.92 144.396 322.984 143.868 321.253 142.812C319.523 141.756 318.159 140.275 317.161 138.368C316.164 136.461 315.665 134.291 315.665 131.856ZM336.081 131.9C336.081 130.081 335.715 128.497 334.981 127.148C334.248 125.799 333.251 124.772 331.989 124.068C330.757 123.335 329.393 122.968 327.897 122.968C326.401 122.968 325.037 123.32 323.805 124.024C322.573 124.728 321.591 125.755 320.857 127.104C320.124 128.453 319.757 130.037 319.757 131.856C319.757 133.704 320.124 135.317 320.857 136.696C321.591 138.045 322.573 139.087 323.805 139.82C325.037 140.524 326.401 140.876 327.897 140.876C329.393 140.876 330.757 140.524 331.989 139.82C333.251 139.087 334.248 138.045 334.981 136.696C335.715 135.317 336.081 133.719 336.081 131.9ZM374.292 119.448C376.169 119.448 377.841 119.844 379.308 120.636C380.774 121.399 381.933 122.557 382.784 124.112C383.634 125.667 384.06 127.559 384.06 129.788V144H380.1V130.36C380.1 127.955 379.498 126.121 378.296 124.86C377.122 123.569 375.524 122.924 373.5 122.924C371.417 122.924 369.76 123.599 368.528 124.948C367.296 126.268 366.68 128.189 366.68 130.712V144H362.72V130.36C362.72 127.955 362.118 126.121 360.916 124.86C359.742 123.569 358.144 122.924 356.12 122.924C354.037 122.924 352.38 123.599 351.148 124.948C349.916 126.268 349.3 128.189 349.3 130.712V144H345.296V119.888H349.3V123.364C350.092 122.103 351.148 121.135 352.468 120.46C353.817 119.785 355.298 119.448 356.912 119.448C358.936 119.448 360.725 119.903 362.28 120.812C363.834 121.721 364.993 123.056 365.756 124.816C366.43 123.115 367.545 121.795 369.1 120.856C370.654 119.917 372.385 119.448 374.292 119.448ZM387.532 131.9C387.532 129.407 388.03 127.236 389.028 125.388C390.025 123.511 391.404 122.059 393.164 121.032C394.953 120.005 396.992 119.492 399.28 119.492C402.242 119.492 404.677 120.211 406.584 121.648C408.52 123.085 409.796 125.08 410.412 127.632H406.1C405.689 126.165 404.882 125.007 403.68 124.156C402.506 123.305 401.04 122.88 399.28 122.88C396.992 122.88 395.144 123.672 393.736 125.256C392.328 126.811 391.624 129.025 391.624 131.9C391.624 134.804 392.328 137.048 393.736 138.632C395.144 140.216 396.992 141.008 399.28 141.008C401.04 141.008 402.506 140.597 403.68 139.776C404.853 138.955 405.66 137.781 406.1 136.256H410.412C409.766 138.72 408.476 140.7 406.54 142.196C404.604 143.663 402.184 144.396 399.28 144.396C396.992 144.396 394.953 143.883 393.164 142.856C391.404 141.829 390.025 140.377 389.028 138.5C388.03 136.623 387.532 134.423 387.532 131.9ZM427.618 144L418.158 133.352V144H414.154V111.44H418.158V130.58L427.442 119.888H433.03L421.678 131.9L433.074 144H427.618ZM437.267 115.972C436.504 115.972 435.859 115.708 435.331 115.18C434.803 114.652 434.539 114.007 434.539 113.244C434.539 112.481 434.803 111.836 435.331 111.308C435.859 110.78 436.504 110.516 437.267 110.516C438 110.516 438.616 110.78 439.115 111.308C439.643 111.836 439.907 112.481 439.907 113.244C439.907 114.007 439.643 114.652 439.115 115.18C438.616 115.708 438 115.972 437.267 115.972ZM439.203 119.888V144H435.199V119.888H439.203ZM459.442 123.188V137.4C459.442 138.573 459.691 139.409 460.19 139.908C460.688 140.377 461.554 140.612 462.786 140.612H465.734V144H462.126C459.896 144 458.224 143.487 457.11 142.46C455.995 141.433 455.438 139.747 455.438 137.4V123.188H452.314V119.888H455.438V113.816H459.442V119.888H465.734V123.188H459.442ZM467.489 131.9C467.489 129.407 467.988 127.236 468.985 125.388C469.982 123.511 471.361 122.059 473.121 121.032C474.91 120.005 476.949 119.492 479.237 119.492C482.2 119.492 484.634 120.211 486.541 121.648C488.477 123.085 489.753 125.08 490.369 127.632H486.057C485.646 126.165 484.84 125.007 483.637 124.156C482.464 123.305 480.997 122.88 479.237 122.88C476.949 122.88 475.101 123.672 473.693 125.256C472.285 126.811 471.581 129.025 471.581 131.9C471.581 134.804 472.285 137.048 473.693 138.632C475.101 140.216 476.949 141.008 479.237 141.008C480.997 141.008 482.464 140.597 483.637 139.776C484.81 138.955 485.617 137.781 486.057 136.256H490.369C489.724 138.72 488.433 140.7 486.497 142.196C484.561 143.663 482.141 144.396 479.237 144.396C476.949 144.396 474.91 143.883 473.121 142.856C471.361 141.829 469.982 140.377 468.985 138.5C467.988 136.623 467.489 134.423 467.489 131.9ZM496.179 115.972C495.417 115.972 494.771 115.708 494.243 115.18C493.715 114.652 493.451 114.007 493.451 113.244C493.451 112.481 493.715 111.836 494.243 111.308C494.771 110.78 495.417 110.516 496.179 110.516C496.913 110.516 497.529 110.78 498.027 111.308C498.555 111.836 498.819 112.481 498.819 113.244C498.819 114.007 498.555 114.652 498.027 115.18C497.529 115.708 496.913 115.972 496.179 115.972ZM498.115 119.888V144H494.111V119.888H498.115ZM511.876 144.396C510.028 144.396 508.37 144.088 506.904 143.472C505.437 142.827 504.278 141.947 503.428 140.832C502.577 139.688 502.108 138.383 502.02 136.916H506.156C506.273 138.119 506.83 139.101 507.828 139.864C508.854 140.627 510.189 141.008 511.832 141.008C513.357 141.008 514.56 140.671 515.44 139.996C516.32 139.321 516.76 138.471 516.76 137.444C516.76 136.388 516.29 135.611 515.352 135.112C514.413 134.584 512.961 134.071 510.996 133.572C509.206 133.103 507.74 132.633 506.596 132.164C505.481 131.665 504.513 130.947 503.692 130.008C502.9 129.04 502.504 127.779 502.504 126.224C502.504 124.992 502.87 123.863 503.604 122.836C504.337 121.809 505.378 121.003 506.728 120.416C508.077 119.8 509.617 119.492 511.348 119.492C514.017 119.492 516.173 120.167 517.816 121.516C519.458 122.865 520.338 124.713 520.456 127.06H516.452C516.364 125.799 515.85 124.787 514.912 124.024C514.002 123.261 512.77 122.88 511.216 122.88C509.778 122.88 508.634 123.188 507.784 123.804C506.933 124.42 506.508 125.227 506.508 126.224C506.508 127.016 506.757 127.676 507.256 128.204C507.784 128.703 508.429 129.113 509.192 129.436C509.984 129.729 511.069 130.067 512.448 130.448C514.178 130.917 515.586 131.387 516.672 131.856C517.757 132.296 518.681 132.971 519.444 133.88C520.236 134.789 520.646 135.977 520.676 137.444C520.676 138.764 520.309 139.952 519.576 141.008C518.842 142.064 517.801 142.9 516.452 143.516C515.132 144.103 513.606 144.396 511.876 144.396ZM41.892 185.856C41.892 183.392 42.3907 181.236 43.388 179.388C44.3853 177.511 45.7493 176.059 47.48 175.032C49.24 174.005 51.1907 173.492 53.332 173.492C55.444 173.492 57.2773 173.947 58.832 174.856C60.3867 175.765 61.5453 176.909 62.308 178.288V173.888H66.356V198H62.308V193.512C61.516 194.92 60.328 196.093 58.744 197.032C57.1893 197.941 55.3707 198.396 53.288 198.396C51.1467 198.396 49.2107 197.868 47.48 196.812C45.7493 195.756 44.3853 194.275 43.388 192.368C42.3907 190.461 41.892 188.291 41.892 185.856ZM62.308 185.9C62.308 184.081 61.9413 182.497 61.208 181.148C60.4747 179.799 59.4773 178.772 58.216 178.068C56.984 177.335 55.62 176.968 54.124 176.968C52.628 176.968 51.264 177.32 50.032 178.024C48.8 178.728 47.8173 179.755 47.084 181.104C46.3507 182.453 45.984 184.037 45.984 185.856C45.984 187.704 46.3507 189.317 47.084 190.696C47.8173 192.045 48.8 193.087 50.032 193.82C51.264 194.524 52.628 194.876 54.124 194.876C55.62 194.876 56.984 194.524 58.216 193.82C59.4773 193.087 60.4747 192.045 61.208 190.696C61.9413 189.317 62.308 187.719 62.308 185.9ZM100.518 173.448C102.396 173.448 104.068 173.844 105.534 174.636C107.001 175.399 108.16 176.557 109.01 178.112C109.861 179.667 110.286 181.559 110.286 183.788V198H106.326V184.36C106.326 181.955 105.725 180.121 104.522 178.86C103.349 177.569 101.75 176.924 99.7264 176.924C97.6437 176.924 95.9864 177.599 94.7544 178.948C93.5224 180.268 92.9064 182.189 92.9064 184.712V198H88.9464V184.36C88.9464 181.955 88.345 180.121 87.1424 178.86C85.969 177.569 84.3704 176.924 82.3464 176.924C80.2637 176.924 78.6064 177.599 77.3744 178.948C76.1424 180.268 75.5264 182.189 75.5264 184.712V198H71.5224V173.888H75.5264V177.364C76.3184 176.103 77.3744 175.135 78.6944 174.46C80.0437 173.785 81.525 173.448 83.1384 173.448C85.1624 173.448 86.9517 173.903 88.5064 174.812C90.061 175.721 91.2197 177.056 91.9824 178.816C92.657 177.115 93.7717 175.795 95.3264 174.856C96.881 173.917 98.6117 173.448 100.518 173.448ZM123.79 198.396C121.942 198.396 120.285 198.088 118.818 197.472C117.352 196.827 116.193 195.947 115.342 194.832C114.492 193.688 114.022 192.383 113.934 190.916H118.07C118.188 192.119 118.745 193.101 119.742 193.864C120.769 194.627 122.104 195.008 123.746 195.008C125.272 195.008 126.474 194.671 127.354 193.996C128.234 193.321 128.674 192.471 128.674 191.444C128.674 190.388 128.205 189.611 127.266 189.112C126.328 188.584 124.876 188.071 122.91 187.572C121.121 187.103 119.654 186.633 118.51 186.164C117.396 185.665 116.428 184.947 115.606 184.008C114.814 183.04 114.418 181.779 114.418 180.224C114.418 178.992 114.785 177.863 115.518 176.836C116.252 175.809 117.293 175.003 118.642 174.416C119.992 173.8 121.532 173.492 123.262 173.492C125.932 173.492 128.088 174.167 129.73 175.516C131.373 176.865 132.253 178.713 132.37 181.06H128.366C128.278 179.799 127.765 178.787 126.826 178.024C125.917 177.261 124.685 176.88 123.13 176.88C121.693 176.88 120.549 177.188 119.698 177.804C118.848 178.42 118.422 179.227 118.422 180.224C118.422 181.016 118.672 181.676 119.17 182.204C119.698 182.703 120.344 183.113 121.106 183.436C121.898 183.729 122.984 184.067 124.362 184.448C126.093 184.917 127.501 185.387 128.586 185.856C129.672 186.296 130.596 186.971 131.358 187.88C132.15 188.789 132.561 189.977 132.59 191.444C132.59 192.764 132.224 193.952 131.49 195.008C130.757 196.064 129.716 196.9 128.366 197.516C127.046 198.103 125.521 198.396 123.79 198.396ZM148.391 173.448C151.324 173.448 153.7 174.343 155.519 176.132C157.337 177.892 158.247 180.444 158.247 183.788V198H154.287V184.36C154.287 181.955 153.685 180.121 152.483 178.86C151.28 177.569 149.637 176.924 147.555 176.924C145.443 176.924 143.756 177.584 142.495 178.904C141.263 180.224 140.647 182.145 140.647 184.668V198H136.643V173.888H140.647V177.32C141.439 176.088 142.509 175.135 143.859 174.46C145.237 173.785 146.748 173.448 148.391 173.448ZM161.691 185.856C161.691 183.392 162.19 181.236 163.187 179.388C164.185 177.511 165.549 176.059 167.279 175.032C169.039 174.005 171.005 173.492 173.175 173.492C175.053 173.492 176.798 173.932 178.411 174.812C180.025 175.663 181.257 176.792 182.107 178.2V165.44H186.155V198H182.107V193.468C181.315 194.905 180.142 196.093 178.587 197.032C177.033 197.941 175.214 198.396 173.131 198.396C170.99 198.396 169.039 197.868 167.279 196.812C165.549 195.756 164.185 194.275 163.187 192.368C162.19 190.461 161.691 188.291 161.691 185.856ZM182.107 185.9C182.107 184.081 181.741 182.497 181.007 181.148C180.274 179.799 179.277 178.772 178.015 178.068C176.783 177.335 175.419 176.968 173.923 176.968C172.427 176.968 171.063 177.32 169.831 178.024C168.599 178.728 167.617 179.755 166.883 181.104C166.15 182.453 165.783 184.037 165.783 185.856C165.783 187.704 166.15 189.317 166.883 190.696C167.617 192.045 168.599 193.087 169.831 193.82C171.063 194.524 172.427 194.876 173.923 194.876C175.419 194.876 176.783 194.524 178.015 193.82C179.277 193.087 180.274 192.045 181.007 190.696C181.741 189.317 182.107 187.719 182.107 185.9ZM195.326 178.376C196.147 176.939 197.35 175.765 198.934 174.856C200.518 173.947 202.322 173.492 204.346 173.492C206.516 173.492 208.467 174.005 210.198 175.032C211.928 176.059 213.292 177.511 214.29 179.388C215.287 181.236 215.786 183.392 215.786 185.856C215.786 188.291 215.287 190.461 214.29 192.368C213.292 194.275 211.914 195.756 210.154 196.812C208.423 197.868 206.487 198.396 204.346 198.396C202.263 198.396 200.43 197.941 198.846 197.032C197.291 196.123 196.118 194.964 195.326 193.556V198H191.322V165.44H195.326V178.376ZM211.694 185.856C211.694 184.037 211.327 182.453 210.594 181.104C209.86 179.755 208.863 178.728 207.602 178.024C206.37 177.32 205.006 176.968 203.51 176.968C202.043 176.968 200.679 177.335 199.418 178.068C198.186 178.772 197.188 179.813 196.426 181.192C195.692 182.541 195.326 184.111 195.326 185.9C195.326 187.719 195.692 189.317 196.426 190.696C197.188 192.045 198.186 193.087 199.418 193.82C200.679 194.524 202.043 194.876 203.51 194.876C205.006 194.876 206.37 194.524 207.602 193.82C208.863 193.087 209.86 192.045 210.594 190.696C211.327 189.317 211.694 187.704 211.694 185.856ZM217.96 185.9C217.96 183.407 218.459 181.236 219.456 179.388C220.453 177.511 221.832 176.059 223.592 175.032C225.381 174.005 227.42 173.492 229.708 173.492C232.671 173.492 235.105 174.211 237.012 175.648C238.948 177.085 240.224 179.08 240.84 181.632H236.528C236.117 180.165 235.311 179.007 234.108 178.156C232.935 177.305 231.468 176.88 229.708 176.88C227.42 176.88 225.572 177.672 224.164 179.256C222.756 180.811 222.052 183.025 222.052 185.9C222.052 188.804 222.756 191.048 224.164 192.632C225.572 194.216 227.42 195.008 229.708 195.008C231.468 195.008 232.935 194.597 234.108 193.776C235.281 192.955 236.088 191.781 236.528 190.256H240.84C240.195 192.72 238.904 194.7 236.968 196.196C235.032 197.663 232.612 198.396 229.708 198.396C227.42 198.396 225.381 197.883 223.592 196.856C221.832 195.829 220.453 194.377 219.456 192.5C218.459 190.623 217.96 188.423 217.96 185.9ZM246.739 169.972C245.976 169.972 245.331 169.708 244.803 169.18C244.304 168.652 244.055 168.007 244.055 167.244C244.055 166.481 244.304 165.836 244.803 165.308C245.331 164.78 245.976 164.516 246.739 164.516C247.501 164.516 248.132 164.78 248.631 165.308C249.159 165.836 249.423 166.481 249.423 167.244C249.423 168.007 249.159 168.652 248.631 169.18C248.132 169.708 247.501 169.972 246.739 169.972ZM248.719 203.236C248.719 205.377 248.176 206.947 247.091 207.944C246.005 208.941 244.421 209.44 242.339 209.44H240.007V206.052H241.679C242.793 206.052 243.571 205.832 244.011 205.392C244.48 204.952 244.715 204.204 244.715 203.148V173.888H248.719V203.236ZM258.781 177.188V191.4C258.781 192.573 259.03 193.409 259.529 193.908C260.027 194.377 260.893 194.612 262.125 194.612H265.073V198H261.465C259.235 198 257.563 197.487 256.449 196.46C255.334 195.433 254.777 193.747 254.777 191.4V177.188H251.653V173.888H254.777V167.816H258.781V173.888H265.073V177.188H258.781ZM282.458 178.332C283.25 176.953 284.424 175.809 285.978 174.9C287.562 173.961 289.396 173.492 291.478 173.492C293.62 173.492 295.556 174.005 297.286 175.032C299.046 176.059 300.425 177.511 301.422 179.388C302.42 181.236 302.918 183.392 302.918 185.856C302.918 188.291 302.42 190.461 301.422 192.368C300.425 194.275 299.046 195.756 297.286 196.812C295.556 197.868 293.62 198.396 291.478 198.396C289.425 198.396 287.606 197.941 286.022 197.032C284.468 196.093 283.28 194.935 282.458 193.556V209.44H278.454V173.888H282.458V178.332ZM298.826 185.856C298.826 184.037 298.46 182.453 297.726 181.104C296.993 179.755 295.996 178.728 294.734 178.024C293.502 177.32 292.138 176.968 290.642 176.968C289.176 176.968 287.812 177.335 286.55 178.068C285.318 178.772 284.321 179.813 283.558 181.192C282.825 182.541 282.458 184.111 282.458 185.9C282.458 187.719 282.825 189.317 283.558 190.696C284.321 192.045 285.318 193.087 286.55 193.82C287.812 194.524 289.176 194.876 290.642 194.876C292.138 194.876 293.502 194.524 294.734 193.82C295.996 193.087 296.993 192.045 297.726 190.696C298.46 189.317 298.826 187.704 298.826 185.856ZM328.589 185.02C328.589 185.783 328.545 186.589 328.457 187.44H309.185C309.331 189.816 310.138 191.679 311.605 193.028C313.101 194.348 314.905 195.008 317.017 195.008C318.747 195.008 320.185 194.612 321.329 193.82C322.502 192.999 323.323 191.913 323.793 190.564H328.105C327.459 192.881 326.169 194.773 324.233 196.24C322.297 197.677 319.891 198.396 317.017 198.396C314.729 198.396 312.675 197.883 310.857 196.856C309.067 195.829 307.659 194.377 306.633 192.5C305.606 190.593 305.093 188.393 305.093 185.9C305.093 183.407 305.591 181.221 306.589 179.344C307.586 177.467 308.979 176.029 310.769 175.032C312.587 174.005 314.67 173.492 317.017 173.492C319.305 173.492 321.329 173.991 323.089 174.988C324.849 175.985 326.198 177.364 327.137 179.124C328.105 180.855 328.589 182.82 328.589 185.02ZM324.453 184.184C324.453 182.659 324.115 181.353 323.441 180.268C322.766 179.153 321.842 178.317 320.669 177.76C319.525 177.173 318.249 176.88 316.841 176.88C314.817 176.88 313.086 177.525 311.649 178.816C310.241 180.107 309.434 181.896 309.229 184.184H324.453ZM342.79 198.396C340.531 198.396 338.478 197.883 336.63 196.856C334.811 195.829 333.374 194.377 332.318 192.5C331.291 190.593 330.778 188.393 330.778 185.9C330.778 183.436 331.306 181.265 332.362 179.388C333.447 177.481 334.914 176.029 336.762 175.032C338.61 174.005 340.678 173.492 342.966 173.492C345.254 173.492 347.322 174.005 349.17 175.032C351.018 176.029 352.47 177.467 353.526 179.344C354.611 181.221 355.154 183.407 355.154 185.9C355.154 188.393 354.597 190.593 353.482 192.5C352.397 194.377 350.915 195.829 349.038 196.856C347.161 197.883 345.078 198.396 342.79 198.396ZM342.79 194.876C344.227 194.876 345.577 194.539 346.838 193.864C348.099 193.189 349.111 192.177 349.874 190.828C350.666 189.479 351.062 187.836 351.062 185.9C351.062 183.964 350.681 182.321 349.918 180.972C349.155 179.623 348.158 178.625 346.926 177.98C345.694 177.305 344.359 176.968 342.922 176.968C341.455 176.968 340.106 177.305 338.874 177.98C337.671 178.625 336.703 179.623 335.97 180.972C335.237 182.321 334.87 183.964 334.87 185.9C334.87 187.865 335.222 189.523 335.926 190.872C336.659 192.221 337.627 193.233 338.83 193.908C340.033 194.553 341.353 194.876 342.79 194.876ZM380.818 185.02C380.818 185.783 380.774 186.589 380.686 187.44H361.414C361.561 189.816 362.368 191.679 363.834 193.028C365.33 194.348 367.134 195.008 369.246 195.008C370.977 195.008 372.414 194.612 373.558 193.82C374.732 192.999 375.553 191.913 376.022 190.564H380.334C379.689 192.881 378.398 194.773 376.462 196.24C374.526 197.677 372.121 198.396 369.246 198.396C366.958 198.396 364.905 197.883 363.086 196.856C361.297 195.829 359.889 194.377 358.862 192.5C357.836 190.593 357.322 188.393 357.322 185.9C357.322 183.407 357.821 181.221 358.818 179.344C359.816 177.467 361.209 176.029 362.998 175.032C364.817 174.005 366.9 173.492 369.246 173.492C371.534 173.492 373.558 173.991 375.318 174.988C377.078 175.985 378.428 177.364 379.366 179.124C380.334 180.855 380.818 182.82 380.818 185.02ZM376.682 184.184C376.682 182.659 376.345 181.353 375.67 180.268C374.996 179.153 374.072 178.317 372.898 177.76C371.754 177.173 370.478 176.88 369.07 176.88C367.046 176.88 365.316 177.525 363.878 178.816C362.47 180.107 361.664 181.896 361.458 184.184H376.682ZM407.218 198L401.498 189.024L395.998 198H391.818L399.606 186.032L391.818 173.888H396.35L402.07 182.82L407.526 173.888H411.706L403.962 185.812L411.75 198H407.218ZM412.593 185.856C412.593 183.392 413.091 181.236 414.089 179.388C415.086 177.511 416.45 176.059 418.181 175.032C419.941 174.005 421.891 173.492 424.033 173.492C426.145 173.492 427.978 173.947 429.533 174.856C431.087 175.765 432.246 176.909 433.009 178.288V173.888H437.057V198H433.009V193.512C432.217 194.92 431.029 196.093 429.445 197.032C427.89 197.941 426.071 198.396 423.989 198.396C421.847 198.396 419.911 197.868 418.181 196.812C416.45 195.756 415.086 194.275 414.089 192.368C413.091 190.461 412.593 188.291 412.593 185.856ZM433.009 185.9C433.009 184.081 432.642 182.497 431.909 181.148C431.175 179.799 430.178 178.772 428.917 178.068C427.685 177.335 426.321 176.968 424.825 176.968C423.329 176.968 421.965 177.32 420.733 178.024C419.501 178.728 418.518 179.755 417.785 181.104C417.051 182.453 416.685 184.037 416.685 185.856C416.685 187.704 417.051 189.317 417.785 190.696C418.518 192.045 419.501 193.087 420.733 193.82C421.965 194.524 423.329 194.876 424.825 194.876C426.321 194.876 427.685 194.524 428.917 193.82C430.178 193.087 431.175 192.045 431.909 190.696C432.642 189.317 433.009 187.719 433.009 185.9ZM450.759 198.396C448.911 198.396 447.254 198.088 445.787 197.472C444.32 196.827 443.162 195.947 442.311 194.832C441.46 193.688 440.991 192.383 440.903 190.916H445.039C445.156 192.119 445.714 193.101 446.711 193.864C447.738 194.627 449.072 195.008 450.715 195.008C452.24 195.008 453.443 194.671 454.323 193.996C455.203 193.321 455.643 192.471 455.643 191.444C455.643 190.388 455.174 189.611 454.235 189.112C453.296 188.584 451.844 188.071 449.879 187.572C448.09 187.103 446.623 186.633 445.479 186.164C444.364 185.665 443.396 184.947 442.575 184.008C441.783 183.04 441.387 181.779 441.387 180.224C441.387 178.992 441.754 177.863 442.487 176.836C443.22 175.809 444.262 175.003 445.611 174.416C446.96 173.8 448.5 173.492 450.231 173.492C452.9 173.492 455.056 174.167 456.699 175.516C458.342 176.865 459.222 178.713 459.339 181.06H455.335C455.247 179.799 454.734 178.787 453.795 178.024C452.886 177.261 451.654 176.88 450.099 176.88C448.662 176.88 447.518 177.188 446.667 177.804C445.816 178.42 445.391 179.227 445.391 180.224C445.391 181.016 445.64 181.676 446.139 182.204C446.667 182.703 447.312 183.113 448.075 183.436C448.867 183.729 449.952 184.067 451.331 184.448C453.062 184.917 454.47 185.387 455.555 185.856C456.64 186.296 457.564 186.971 458.327 187.88C459.119 188.789 459.53 189.977 459.559 191.444C459.559 192.764 459.192 193.952 458.459 195.008C457.726 196.064 456.684 196.9 455.335 197.516C454.015 198.103 452.49 198.396 450.759 198.396ZM475.359 173.448C478.293 173.448 480.669 174.343 482.487 176.132C484.306 177.892 485.215 180.444 485.215 183.788V198H481.255V184.36C481.255 181.955 480.654 180.121 479.451 178.86C478.249 177.569 476.606 176.924 474.523 176.924C472.411 176.924 470.725 177.584 469.463 178.904C468.231 180.224 467.615 182.145 467.615 184.668V198H463.611V173.888H467.615V177.32C468.407 176.088 469.478 175.135 470.827 174.46C472.206 173.785 473.717 173.448 475.359 173.448ZM488.66 185.856C488.66 183.392 489.159 181.236 490.156 179.388C491.153 177.511 492.517 176.059 494.248 175.032C496.008 174.005 497.959 173.492 500.1 173.492C502.212 173.492 504.045 173.947 505.6 174.856C507.155 175.765 508.313 176.909 509.076 178.288V173.888H513.124V198H509.076V193.512C508.284 194.92 507.096 196.093 505.512 197.032C503.957 197.941 502.139 198.396 500.056 198.396C497.915 198.396 495.979 197.868 494.248 196.812C492.517 195.756 491.153 194.275 490.156 192.368C489.159 190.461 488.66 188.291 488.66 185.856ZM509.076 185.9C509.076 184.081 508.709 182.497 507.976 181.148C507.243 179.799 506.245 178.772 504.984 178.068C503.752 177.335 502.388 176.968 500.892 176.968C499.396 176.968 498.032 177.32 496.8 178.024C495.568 178.728 494.585 179.755 493.852 181.104C493.119 182.453 492.752 184.037 492.752 185.856C492.752 187.704 493.119 189.317 493.852 190.696C494.585 192.045 495.568 193.087 496.8 193.82C498.032 194.524 499.396 194.876 500.892 194.876C502.388 194.876 503.752 194.524 504.984 193.82C506.245 193.087 507.243 192.045 507.976 190.696C508.709 189.317 509.076 187.719 509.076 185.9ZM41.892 239.856C41.892 237.392 42.3907 235.236 43.388 233.388C44.3853 231.511 45.7493 230.059 47.48 229.032C49.24 228.005 51.2053 227.492 53.376 227.492C55.4587 227.492 57.2773 227.961 58.832 228.9C60.416 229.809 61.5747 230.939 62.308 232.288V227.888H66.356V263.44H62.308V247.556C61.5453 248.905 60.372 250.049 58.788 250.988C57.204 251.927 55.356 252.396 53.244 252.396C51.132 252.396 49.2107 251.868 47.48 250.812C45.7493 249.756 44.3853 248.275 43.388 246.368C42.3907 244.461 41.892 242.291 41.892 239.856ZM62.308 239.9C62.308 238.081 61.9413 236.497 61.208 235.148C60.4747 233.799 59.4773 232.772 58.216 232.068C56.984 231.335 55.62 230.968 54.124 230.968C52.628 230.968 51.264 231.32 50.032 232.024C48.8 232.728 47.8173 233.755 47.084 235.104C46.3507 236.453 45.984 238.037 45.984 239.856C45.984 241.704 46.3507 243.317 47.084 244.696C47.8173 246.045 48.8 247.087 50.032 247.82C51.264 248.524 52.628 248.876 54.124 248.876C55.62 248.876 56.984 248.524 58.216 247.82C59.4773 247.087 60.4747 246.045 61.208 244.696C61.9413 243.317 62.308 241.719 62.308 239.9ZM103.642 227.888L96.1184 252H91.9824L86.1744 232.86L80.3664 252H76.2304L68.6624 227.888H72.7544L78.2984 248.128L84.2824 227.888H88.3744L94.2264 248.172L99.6824 227.888H103.642ZM110.02 232.332C110.812 230.953 111.985 229.809 113.54 228.9C115.124 227.961 116.957 227.492 119.04 227.492C121.181 227.492 123.117 228.005 124.848 229.032C126.608 230.059 127.987 231.511 128.984 233.388C129.981 235.236 130.48 237.392 130.48 239.856C130.48 242.291 129.981 244.461 128.984 246.368C127.987 248.275 126.608 249.756 124.848 250.812C123.117 251.868 121.181 252.396 119.04 252.396C116.987 252.396 115.168 251.941 113.584 251.032C112.029 250.093 110.841 248.935 110.02 247.556V263.44H106.016V227.888H110.02V232.332ZM126.388 239.856C126.388 238.037 126.021 236.453 125.288 235.104C124.555 233.755 123.557 232.728 122.296 232.024C121.064 231.32 119.7 230.968 118.204 230.968C116.737 230.968 115.373 231.335 114.112 232.068C112.88 232.772 111.883 233.813 111.12 235.192C110.387 236.541 110.02 238.111 110.02 239.9C110.02 241.719 110.387 243.317 111.12 244.696C111.883 246.045 112.88 247.087 114.112 247.82C115.373 248.524 116.737 248.876 118.204 248.876C119.7 248.876 121.064 248.524 122.296 247.82C123.557 247.087 124.555 246.045 125.288 244.696C126.021 243.317 126.388 241.704 126.388 239.856ZM156.15 239.02C156.15 239.783 156.106 240.589 156.018 241.44H136.746C136.893 243.816 137.7 245.679 139.166 247.028C140.662 248.348 142.466 249.008 144.578 249.008C146.309 249.008 147.746 248.612 148.89 247.82C150.064 246.999 150.885 245.913 151.354 244.564H155.666C155.021 246.881 153.73 248.773 151.794 250.24C149.858 251.677 147.453 252.396 144.578 252.396C142.29 252.396 140.237 251.883 138.418 250.856C136.629 249.829 135.221 248.377 134.194 246.5C133.168 244.593 132.654 242.393 132.654 239.9C132.654 237.407 133.153 235.221 134.15 233.344C135.148 231.467 136.541 230.029 138.33 229.032C140.149 228.005 142.232 227.492 144.578 227.492C146.866 227.492 148.89 227.991 150.65 228.988C152.41 229.985 153.76 231.364 154.698 233.124C155.666 234.855 156.15 236.82 156.15 239.02ZM152.014 238.184C152.014 236.659 151.677 235.353 151.002 234.268C150.328 233.153 149.404 232.317 148.23 231.76C147.086 231.173 145.81 230.88 144.402 230.88C142.378 230.88 140.648 231.525 139.21 232.816C137.802 234.107 136.996 235.896 136.79 238.184H152.014ZM170.352 252.396C168.093 252.396 166.04 251.883 164.192 250.856C162.373 249.829 160.936 248.377 159.88 246.5C158.853 244.593 158.34 242.393 158.34 239.9C158.34 237.436 158.868 235.265 159.924 233.388C161.009 231.481 162.476 230.029 164.324 229.032C166.172 228.005 168.24 227.492 170.528 227.492C172.816 227.492 174.884 228.005 176.732 229.032C178.58 230.029 180.032 231.467 181.088 233.344C182.173 235.221 182.716 237.407 182.716 239.9C182.716 242.393 182.158 244.593 181.044 246.5C179.958 248.377 178.477 249.829 176.6 250.856C174.722 251.883 172.64 252.396 170.352 252.396ZM170.352 248.876C171.789 248.876 173.138 248.539 174.4 247.864C175.661 247.189 176.673 246.177 177.436 244.828C178.228 243.479 178.624 241.836 178.624 239.9C178.624 237.964 178.242 236.321 177.48 234.972C176.717 233.623 175.72 232.625 174.488 231.98C173.256 231.305 171.921 230.968 170.484 230.968C169.017 230.968 167.668 231.305 166.436 231.98C165.233 232.625 164.265 233.623 163.532 234.972C162.798 236.321 162.432 237.964 162.432 239.9C162.432 241.865 162.784 243.523 163.488 244.872C164.221 246.221 165.189 247.233 166.392 247.908C167.594 248.553 168.914 248.876 170.352 248.876ZM188.448 223.972C187.686 223.972 187.04 223.708 186.512 223.18C185.984 222.652 185.72 222.007 185.72 221.244C185.72 220.481 185.984 219.836 186.512 219.308C187.04 218.78 187.686 218.516 188.448 218.516C189.182 218.516 189.798 218.78 190.296 219.308C190.824 219.836 191.088 220.481 191.088 221.244C191.088 222.007 190.824 222.652 190.296 223.18C189.798 223.708 189.182 223.972 188.448 223.972ZM190.384 227.888V252H186.38V227.888H190.384ZM199.612 231.804C200.316 230.425 201.314 229.355 202.604 228.592C203.924 227.829 205.523 227.448 207.4 227.448V231.584H206.344C201.856 231.584 199.612 234.019 199.612 238.888V252H195.608V227.888H199.612V231.804ZM222.17 227.448C225.104 227.448 227.48 228.343 229.298 230.132C231.117 231.892 232.026 234.444 232.026 237.788V252H228.066V238.36C228.066 235.955 227.465 234.121 226.262 232.86C225.06 231.569 223.417 230.924 221.334 230.924C219.222 230.924 217.536 231.584 216.274 232.904C215.042 234.224 214.426 236.145 214.426 238.668V252H210.422V227.888H214.426V231.32C215.218 230.088 216.289 229.135 217.638 228.46C219.017 227.785 220.528 227.448 222.17 227.448ZM246.779 231.188H241.719V252H237.715V231.188H234.591V227.888H237.715V226.172C237.715 223.473 238.404 221.508 239.783 220.276C241.191 219.015 243.435 218.384 246.515 218.384V221.728C244.755 221.728 243.508 222.08 242.775 222.784C242.071 223.459 241.719 224.588 241.719 226.172V227.888H246.779V231.188ZM258.383 252.396C256.535 252.396 254.878 252.088 253.411 251.472C251.945 250.827 250.786 249.947 249.935 248.832C249.085 247.688 248.615 246.383 248.527 244.916H252.663C252.781 246.119 253.338 247.101 254.335 247.864C255.362 248.627 256.697 249.008 258.339 249.008C259.865 249.008 261.067 248.671 261.947 247.996C262.827 247.321 263.267 246.471 263.267 245.444C263.267 244.388 262.798 243.611 261.859 243.112C260.921 242.584 259.469 242.071 257.503 241.572C255.714 241.103 254.247 240.633 253.103 240.164C251.989 239.665 251.021 238.947 250.199 238.008C249.407 237.04 249.011 235.779 249.011 234.224C249.011 232.992 249.378 231.863 250.111 230.836C250.845 229.809 251.886 229.003 253.235 228.416C254.585 227.8 256.125 227.492 257.855 227.492C260.525 227.492 262.681 228.167 264.323 229.516C265.966 230.865 266.846 232.713 266.963 235.06H262.959C262.871 233.799 262.358 232.787 261.419 232.024C260.51 231.261 259.278 230.88 257.723 230.88C256.286 230.88 255.142 231.188 254.291 231.804C253.441 232.42 253.015 233.227 253.015 234.224C253.015 235.016 253.265 235.676 253.763 236.204C254.291 236.703 254.937 237.113 255.699 237.436C256.491 237.729 257.577 238.067 258.955 238.448C260.686 238.917 262.094 239.387 263.179 239.856C264.265 240.296 265.189 240.971 265.951 241.88C266.743 242.789 267.154 243.977 267.183 245.444C267.183 246.764 266.817 247.952 266.083 249.008C265.35 250.064 264.309 250.9 262.959 251.516C261.639 252.103 260.114 252.396 258.383 252.396ZM289.902 252.396C288.054 252.396 286.397 252.088 284.93 251.472C283.463 250.827 282.305 249.947 281.454 248.832C280.603 247.688 280.134 246.383 280.046 244.916H284.182C284.299 246.119 284.857 247.101 285.854 247.864C286.881 248.627 288.215 249.008 289.858 249.008C291.383 249.008 292.586 248.671 293.466 247.996C294.346 247.321 294.786 246.471 294.786 245.444C294.786 244.388 294.317 243.611 293.378 243.112C292.439 242.584 290.987 242.071 289.022 241.572C287.233 241.103 285.766 240.633 284.622 240.164C283.507 239.665 282.539 238.947 281.718 238.008C280.926 237.04 280.53 235.779 280.53 234.224C280.53 232.992 280.897 231.863 281.63 230.836C282.363 229.809 283.405 229.003 284.754 228.416C286.103 227.8 287.643 227.492 289.374 227.492C292.043 227.492 294.199 228.167 295.842 229.516C297.485 230.865 298.365 232.713 298.482 235.06H294.478C294.39 233.799 293.877 232.787 292.938 232.024C292.029 231.261 290.797 230.88 289.242 230.88C287.805 230.88 286.661 231.188 285.81 231.804C284.959 232.42 284.534 233.227 284.534 234.224C284.534 235.016 284.783 235.676 285.282 236.204C285.81 236.703 286.455 237.113 287.218 237.436C288.01 237.729 289.095 238.067 290.474 238.448C292.205 238.917 293.613 239.387 294.698 239.856C295.783 240.296 296.707 240.971 297.47 241.88C298.262 242.789 298.673 243.977 298.702 245.444C298.702 246.764 298.335 247.952 297.602 249.008C296.869 250.064 295.827 250.9 294.478 251.516C293.158 252.103 291.633 252.396 289.902 252.396ZM301.258 239.856C301.258 237.392 301.757 235.236 302.754 233.388C303.752 231.511 305.116 230.059 306.846 229.032C308.606 228.005 310.557 227.492 312.698 227.492C314.81 227.492 316.644 227.947 318.198 228.856C319.753 229.765 320.912 230.909 321.674 232.288V227.888H325.722V252H321.674V247.512C320.882 248.92 319.694 250.093 318.11 251.032C316.556 251.941 314.737 252.396 312.654 252.396C310.513 252.396 308.577 251.868 306.846 250.812C305.116 249.756 303.752 248.275 302.754 246.368C301.757 244.461 301.258 242.291 301.258 239.856ZM321.674 239.9C321.674 238.081 321.308 236.497 320.574 235.148C319.841 233.799 318.844 232.772 317.582 232.068C316.35 231.335 314.986 230.968 313.49 230.968C311.994 230.968 310.63 231.32 309.398 232.024C308.166 232.728 307.184 233.755 306.45 235.104C305.717 236.453 305.35 238.037 305.35 239.856C305.35 241.704 305.717 243.317 306.45 244.696C307.184 246.045 308.166 247.087 309.398 247.82C310.63 248.524 311.994 248.876 313.49 248.876C314.986 248.876 316.35 248.524 317.582 247.82C318.844 247.087 319.841 246.045 320.574 244.696C321.308 243.317 321.674 241.719 321.674 239.9ZM329.393 239.856C329.393 237.392 329.891 235.236 330.889 233.388C331.886 231.511 333.25 230.059 334.981 229.032C336.741 228.005 338.706 227.492 340.877 227.492C342.754 227.492 344.499 227.932 346.113 228.812C347.726 229.663 348.958 230.792 349.809 232.2V219.44H353.857V252H349.809V247.468C349.017 248.905 347.843 250.093 346.289 251.032C344.734 251.941 342.915 252.396 340.833 252.396C338.691 252.396 336.741 251.868 334.981 250.812C333.25 249.756 331.886 248.275 330.889 246.368C329.891 244.461 329.393 242.291 329.393 239.856ZM349.809 239.9C349.809 238.081 349.442 236.497 348.709 235.148C347.975 233.799 346.978 232.772 345.717 232.068C344.485 231.335 343.121 230.968 341.625 230.968C340.129 230.968 338.765 231.32 337.533 232.024C336.301 232.728 335.318 233.755 334.585 235.104C333.851 236.453 333.485 238.037 333.485 239.856C333.485 241.704 333.851 243.317 334.585 244.696C335.318 246.045 336.301 247.087 337.533 247.82C338.765 248.524 340.129 248.876 341.625 248.876C343.121 248.876 344.485 248.524 345.717 247.82C346.978 247.087 347.975 246.045 348.709 244.696C349.442 243.317 349.809 241.719 349.809 239.9ZM369.539 252.396C367.28 252.396 365.227 251.883 363.379 250.856C361.56 249.829 360.123 248.377 359.067 246.5C358.04 244.593 357.527 242.393 357.527 239.9C357.527 237.436 358.055 235.265 359.111 233.388C360.196 231.481 361.663 230.029 363.511 229.032C365.359 228.005 367.427 227.492 369.715 227.492C372.003 227.492 374.071 228.005 375.919 229.032C377.767 230.029 379.219 231.467 380.275 233.344C381.36 235.221 381.903 237.407 381.903 239.9C381.903 242.393 381.346 244.593 380.231 246.5C379.146 248.377 377.664 249.829 375.787 250.856C373.91 251.883 371.827 252.396 369.539 252.396ZM369.539 248.876C370.976 248.876 372.326 248.539 373.587 247.864C374.848 247.189 375.86 246.177 376.623 244.828C377.415 243.479 377.811 241.836 377.811 239.9C377.811 237.964 377.43 236.321 376.667 234.972C375.904 233.623 374.907 232.625 373.675 231.98C372.443 231.305 371.108 230.968 369.671 230.968C368.204 230.968 366.855 231.305 365.623 231.98C364.42 232.625 363.452 233.623 362.719 234.972C361.986 236.321 361.619 237.964 361.619 239.9C361.619 241.865 361.971 243.523 362.675 244.872C363.408 246.221 364.376 247.233 365.579 247.908C366.782 248.553 368.102 248.876 369.539 248.876ZM389.572 232.332C390.364 230.953 391.537 229.809 393.092 228.9C394.676 227.961 396.509 227.492 398.592 227.492C400.733 227.492 402.669 228.005 404.4 229.032C406.16 230.059 407.538 231.511 408.536 233.388C409.533 235.236 410.032 237.392 410.032 239.856C410.032 242.291 409.533 244.461 408.536 246.368C407.538 248.275 406.16 249.756 404.4 250.812C402.669 251.868 400.733 252.396 398.592 252.396C396.538 252.396 394.72 251.941 393.136 251.032C391.581 250.093 390.393 248.935 389.572 247.556V263.44H385.568V227.888H389.572V232.332ZM405.94 239.856C405.94 238.037 405.573 236.453 404.84 235.104C404.106 233.755 403.109 232.728 401.848 232.024C400.616 231.32 399.252 230.968 397.756 230.968C396.289 230.968 394.925 231.335 393.664 232.068C392.432 232.772 391.434 233.813 390.672 235.192C389.938 236.541 389.572 238.111 389.572 239.9C389.572 241.719 389.938 243.317 390.672 244.696C391.434 246.045 392.432 247.087 393.664 247.82C394.925 248.524 396.289 248.876 397.756 248.876C399.252 248.876 400.616 248.524 401.848 247.82C403.109 247.087 404.106 246.045 404.84 244.696C405.573 243.317 405.94 241.704 405.94 239.856ZM412.206 239.9C412.206 237.407 412.705 235.236 413.702 233.388C414.699 231.511 416.078 230.059 417.838 229.032C419.627 228.005 421.666 227.492 423.954 227.492C426.917 227.492 429.351 228.211 431.258 229.648C433.194 231.085 434.47 233.08 435.086 235.632H430.774C430.363 234.165 429.557 233.007 428.354 232.156C427.181 231.305 425.714 230.88 423.954 230.88C421.666 230.88 419.818 231.672 418.41 233.256C417.002 234.811 416.298 237.025 416.298 239.9C416.298 242.804 417.002 245.048 418.41 246.632C419.818 248.216 421.666 249.008 423.954 249.008C425.714 249.008 427.181 248.597 428.354 247.776C429.527 246.955 430.334 245.781 430.774 244.256H435.086C434.441 246.72 433.15 248.7 431.214 250.196C429.278 251.663 426.858 252.396 423.954 252.396C421.666 252.396 419.627 251.883 417.838 250.856C416.078 249.829 414.699 248.377 413.702 246.5C412.705 244.623 412.206 242.423 412.206 239.9ZM450.577 227.448C453.51 227.448 455.886 228.343 457.705 230.132C459.523 231.892 460.433 234.444 460.433 237.788V252H456.473V238.36C456.473 235.955 455.871 234.121 454.669 232.86C453.466 231.569 451.823 230.924 449.741 230.924C447.629 230.924 445.942 231.584 444.681 232.904C443.449 234.224 442.833 236.145 442.833 238.668V252H438.829V227.888H442.833V231.32C443.625 230.088 444.695 229.135 446.045 228.46C447.423 227.785 448.934 227.448 450.577 227.448ZM494.369 227.448C496.247 227.448 497.919 227.844 499.385 228.636C500.852 229.399 502.011 230.557 502.861 232.112C503.712 233.667 504.137 235.559 504.137 237.788V252H500.177V238.36C500.177 235.955 499.576 234.121 498.373 232.86C497.2 231.569 495.601 230.924 493.577 230.924C491.495 230.924 489.837 231.599 488.605 232.948C487.373 234.268 486.757 236.189 486.757 238.712V252H482.797V238.36C482.797 235.955 482.196 234.121 480.993 232.86C479.82 231.569 478.221 230.924 476.197 230.924C474.115 230.924 472.457 231.599 471.225 232.948C469.993 234.268 469.377 236.189 469.377 238.712V252H465.373V227.888H469.377V231.364C470.169 230.103 471.225 229.135 472.545 228.46C473.895 227.785 475.376 227.448 476.989 227.448C479.013 227.448 480.803 227.903 482.357 228.812C483.912 229.721 485.071 231.056 485.833 232.816C486.508 231.115 487.623 229.795 489.177 228.856C490.732 227.917 492.463 227.448 494.369 227.448ZM41.892 293.856C41.892 291.392 42.3907 289.236 43.388 287.388C44.3853 285.511 45.7493 284.059 47.48 283.032C49.24 282.005 51.1907 281.492 53.332 281.492C55.444 281.492 57.2773 281.947 58.832 282.856C60.3867 283.765 61.5453 284.909 62.308 286.288V281.888H66.356V306H62.308V301.512C61.516 302.92 60.328 304.093 58.744 305.032C57.1893 305.941 55.3707 306.396 53.288 306.396C51.1467 306.396 49.2107 305.868 47.48 304.812C45.7493 303.756 44.3853 302.275 43.388 300.368C42.3907 298.461 41.892 296.291 41.892 293.856ZM62.308 293.9C62.308 292.081 61.9413 290.497 61.208 289.148C60.4747 287.799 59.4773 286.772 58.216 286.068C56.984 285.335 55.62 284.968 54.124 284.968C52.628 284.968 51.264 285.32 50.032 286.024C48.8 286.728 47.8173 287.755 47.084 289.104C46.3507 290.453 45.984 292.037 45.984 293.856C45.984 295.704 46.3507 297.317 47.084 298.696C47.8173 300.045 48.8 301.087 50.032 301.82C51.264 302.524 52.628 302.876 54.124 302.876C55.62 302.876 56.984 302.524 58.216 301.82C59.4773 301.087 60.4747 300.045 61.208 298.696C61.9413 297.317 62.308 295.719 62.308 293.9ZM82.0384 306.396C79.7797 306.396 77.7264 305.883 75.8784 304.856C74.0597 303.829 72.6224 302.377 71.5664 300.5C70.5397 298.593 70.0264 296.393 70.0264 293.9C70.0264 291.436 70.5544 289.265 71.6104 287.388C72.6957 285.481 74.1624 284.029 76.0104 283.032C77.8584 282.005 79.9264 281.492 82.2144 281.492C84.5024 281.492 86.5704 282.005 88.4184 283.032C90.2664 284.029 91.7184 285.467 92.7744 287.344C93.8597 289.221 94.4024 291.407 94.4024 293.9C94.4024 296.393 93.845 298.593 92.7304 300.5C91.645 302.377 90.1637 303.829 88.2864 304.856C86.409 305.883 84.3264 306.396 82.0384 306.396ZM82.0384 302.876C83.4757 302.876 84.825 302.539 86.0864 301.864C87.3477 301.189 88.3597 300.177 89.1224 298.828C89.9144 297.479 90.3104 295.836 90.3104 293.9C90.3104 291.964 89.929 290.321 89.1664 288.972C88.4037 287.623 87.4064 286.625 86.1744 285.98C84.9424 285.305 83.6077 284.968 82.1704 284.968C80.7037 284.968 79.3544 285.305 78.1224 285.98C76.9197 286.625 75.9517 287.623 75.2184 288.972C74.485 290.321 74.1184 291.964 74.1184 293.9C74.1184 295.865 74.4704 297.523 75.1744 298.872C75.9077 300.221 76.8757 301.233 78.0784 301.908C79.281 302.553 80.601 302.876 82.0384 302.876ZM96.5709 293.856C96.5709 291.392 97.0696 289.236 98.0669 287.388C99.0642 285.511 100.428 284.059 102.159 283.032C103.919 282.005 105.884 281.492 108.055 281.492C109.932 281.492 111.678 281.932 113.291 282.812C114.904 283.663 116.136 284.792 116.987 286.2V273.44H121.035V306H116.987V301.468C116.195 302.905 115.022 304.093 113.467 305.032C111.912 305.941 110.094 306.396 108.011 306.396C105.87 306.396 103.919 305.868 102.159 304.812C100.428 303.756 99.0642 302.275 98.0669 300.368C97.0696 298.461 96.5709 296.291 96.5709 293.856ZM116.987 293.9C116.987 292.081 116.62 290.497 115.887 289.148C115.154 287.799 114.156 286.772 112.895 286.068C111.663 285.335 110.299 284.968 108.803 284.968C107.307 284.968 105.943 285.32 104.711 286.024C103.479 286.728 102.496 287.755 101.763 289.104C101.03 290.453 100.663 292.037 100.663 293.856C100.663 295.704 101.03 297.317 101.763 298.696C102.496 300.045 103.479 301.087 104.711 301.82C105.943 302.524 107.307 302.876 108.803 302.876C110.299 302.876 111.663 302.524 112.895 301.82C114.156 301.087 115.154 300.045 115.887 298.696C116.62 297.317 116.987 295.719 116.987 293.9ZM134.737 306.396C132.889 306.396 131.232 306.088 129.765 305.472C128.299 304.827 127.14 303.947 126.289 302.832C125.439 301.688 124.969 300.383 124.881 298.916H129.017C129.135 300.119 129.692 301.101 130.689 301.864C131.716 302.627 133.051 303.008 134.693 303.008C136.219 303.008 137.421 302.671 138.301 301.996C139.181 301.321 139.621 300.471 139.621 299.444C139.621 298.388 139.152 297.611 138.213 297.112C137.275 296.584 135.823 296.071 133.857 295.572C132.068 295.103 130.601 294.633 129.457 294.164C128.343 293.665 127.375 292.947 126.553 292.008C125.761 291.04 125.365 289.779 125.365 288.224C125.365 286.992 125.732 285.863 126.465 284.836C127.199 283.809 128.24 283.003 129.589 282.416C130.939 281.8 132.479 281.492 134.209 281.492C136.879 281.492 139.035 282.167 140.677 283.516C142.32 284.865 143.2 286.713 143.317 289.06H139.313C139.225 287.799 138.712 286.787 137.773 286.024C136.864 285.261 135.632 284.88 134.077 284.88C132.64 284.88 131.496 285.188 130.645 285.804C129.795 286.42 129.369 287.227 129.369 288.224C129.369 289.016 129.619 289.676 130.117 290.204C130.645 290.703 131.291 291.113 132.053 291.436C132.845 291.729 133.931 292.067 135.309 292.448C137.04 292.917 138.448 293.387 139.533 293.856C140.619 294.296 141.543 294.971 142.305 295.88C143.097 296.789 143.508 297.977 143.537 299.444C143.537 300.764 143.171 301.952 142.437 303.008C141.704 304.064 140.663 304.9 139.313 305.516C137.993 306.103 136.468 306.396 134.737 306.396ZM176.586 281.448C178.463 281.448 180.135 281.844 181.602 282.636C183.068 283.399 184.227 284.557 185.078 286.112C185.928 287.667 186.354 289.559 186.354 291.788V306H182.394V292.36C182.394 289.955 181.792 288.121 180.59 286.86C179.416 285.569 177.818 284.924 175.794 284.924C173.711 284.924 172.054 285.599 170.822 286.948C169.59 288.268 168.974 290.189 168.974 292.712V306H165.014V292.36C165.014 289.955 164.412 288.121 163.21 286.86C162.036 285.569 160.438 284.924 158.414 284.924C156.331 284.924 154.674 285.599 153.442 286.948C152.21 288.268 151.594 290.189 151.594 292.712V306H147.59V281.888H151.594V285.364C152.386 284.103 153.442 283.135 154.762 282.46C156.111 281.785 157.592 281.448 159.206 281.448C161.23 281.448 163.019 281.903 164.574 282.812C166.128 283.721 167.287 285.056 168.05 286.816C168.724 285.115 169.839 283.795 171.394 282.856C172.948 281.917 174.679 281.448 176.586 281.448ZM189.826 293.9C189.826 291.407 190.324 289.236 191.322 287.388C192.319 285.511 193.698 284.059 195.458 283.032C197.247 282.005 199.286 281.492 201.574 281.492C204.536 281.492 206.971 282.211 208.878 283.648C210.814 285.085 212.09 287.08 212.706 289.632H208.394C207.983 288.165 207.176 287.007 205.974 286.156C204.8 285.305 203.334 284.88 201.574 284.88C199.286 284.88 197.438 285.672 196.03 287.256C194.622 288.811 193.918 291.025 193.918 293.9C193.918 296.804 194.622 299.048 196.03 300.632C197.438 302.216 199.286 303.008 201.574 303.008C203.334 303.008 204.8 302.597 205.974 301.776C207.147 300.955 207.954 299.781 208.394 298.256H212.706C212.06 300.72 210.77 302.7 208.834 304.196C206.898 305.663 204.478 306.396 201.574 306.396C199.286 306.396 197.247 305.883 195.458 304.856C193.698 303.829 192.319 302.377 191.322 300.5C190.324 298.623 189.826 296.423 189.826 293.9ZM217.724 306.264C216.961 306.264 216.316 306 215.788 305.472C215.26 304.944 214.996 304.299 214.996 303.536C214.996 302.773 215.26 302.128 215.788 301.6C216.316 301.072 216.961 300.808 217.724 300.808C218.457 300.808 219.073 301.072 219.572 301.6C220.1 302.128 220.364 302.773 220.364 303.536C220.364 304.299 220.1 304.944 219.572 305.472C219.073 306 218.457 306.264 217.724 306.264Z" fill="#DFDFDF"/>
<path d="M72.384 119.448C74.2613 119.448 75.9333 119.844 77.4 120.636C78.8667 121.399 80.0253 122.557 80.876 124.112C81.7267 125.667 82.152 127.559 82.152 129.788V144H78.192V130.36C78.192 127.955 77.5907 126.121 76.388 124.86C75.2147 123.569 73.616 122.924 71.592 122.924C69.5093 122.924 67.852 123.599 66.62 124.948C65.388 126.268 64.772 128.189 64.772 130.712V144H60.812V130.36C60.812 127.955 60.2107 126.121 59.008 124.86C57.8347 123.569 56.236 122.924 54.212 122.924C52.1293 122.924 50.472 123.599 49.24 124.948C48.008 126.268 47.392 128.189 47.392 130.712V144H43.388V119.888H47.392V123.364C48.184 122.103 49.24 121.135 50.56 120.46C51.9093 119.785 53.3907 119.448 55.004 119.448C57.028 119.448 58.8173 119.903 60.372 120.812C61.9267 121.721 63.0853 123.056 63.848 124.816C64.5227 123.115 65.6373 121.795 67.192 120.856C68.7467 119.917 70.4773 119.448 72.384 119.448ZM91.124 124.376C91.9454 122.939 93.148 121.765 94.732 120.856C96.316 119.947 98.12 119.492 100.144 119.492C102.315 119.492 104.265 120.005 105.996 121.032C107.727 122.059 109.091 123.511 110.088 125.388C111.085 127.236 111.584 129.392 111.584 131.856C111.584 134.291 111.085 136.461 110.088 138.368C109.091 140.275 107.712 141.756 105.952 142.812C104.221 143.868 102.285 144.396 100.144 144.396C98.0614 144.396 96.228 143.941 94.644 143.032C93.0894 142.123 91.916 140.964 91.124 139.556V144H87.12V111.44H91.124V124.376ZM107.492 131.856C107.492 130.037 107.125 128.453 106.392 127.104C105.659 125.755 104.661 124.728 103.4 124.024C102.168 123.32 100.804 122.968 99.308 122.968C97.8414 122.968 96.4774 123.335 95.216 124.068C93.984 124.772 92.9867 125.813 92.224 127.192C91.4907 128.541 91.124 130.111 91.124 131.9C91.124 133.719 91.4907 135.317 92.224 136.696C92.9867 138.045 93.984 139.087 95.216 139.82C96.4774 140.524 97.8414 140.876 99.308 140.876C100.804 140.876 102.168 140.524 103.4 139.82C104.661 139.087 105.659 138.045 106.392 136.696C107.125 135.317 107.492 133.704 107.492 131.856ZM119.258 111.44V144H115.254V111.44H119.258ZM126.551 115.972C125.788 115.972 125.143 115.708 124.615 115.18C124.087 114.652 123.823 114.007 123.823 113.244C123.823 112.481 124.087 111.836 124.615 111.308C125.143 110.78 125.788 110.516 126.551 110.516C127.284 110.516 127.9 110.78 128.399 111.308C128.927 111.836 129.191 112.481 129.191 113.244C129.191 114.007 128.927 114.652 128.399 115.18C127.9 115.708 127.284 115.972 126.551 115.972ZM128.487 119.888V144H124.483V119.888H128.487ZM137.715 124.376C138.536 122.939 139.739 121.765 141.323 120.856C142.907 119.947 144.711 119.492 146.735 119.492C148.905 119.492 150.856 120.005 152.587 121.032C154.317 122.059 155.681 123.511 156.679 125.388C157.676 127.236 158.175 129.392 158.175 131.856C158.175 134.291 157.676 136.461 156.679 138.368C155.681 140.275 154.303 141.756 152.543 142.812C150.812 143.868 148.876 144.396 146.735 144.396C144.652 144.396 142.819 143.941 141.235 143.032C139.68 142.123 138.507 140.964 137.715 139.556V144H133.711V111.44H137.715V124.376ZM154.083 131.856C154.083 130.037 153.716 128.453 152.983 127.104C152.249 125.755 151.252 124.728 149.991 124.024C148.759 123.32 147.395 122.968 145.899 122.968C144.432 122.968 143.068 123.335 141.807 124.068C140.575 124.772 139.577 125.813 138.815 127.192C138.081 128.541 137.715 130.111 137.715 131.9C137.715 133.719 138.081 135.317 138.815 136.696C139.577 138.045 140.575 139.087 141.807 139.82C143.068 140.524 144.432 140.876 145.899 140.876C147.395 140.876 148.759 140.524 149.991 139.82C151.252 139.087 152.249 138.045 152.983 136.696C153.716 135.317 154.083 133.704 154.083 131.856ZM170.381 144.396C168.533 144.396 166.876 144.088 165.409 143.472C163.942 142.827 162.784 141.947 161.933 140.832C161.082 139.688 160.613 138.383 160.525 136.916H164.661C164.778 138.119 165.336 139.101 166.333 139.864C167.36 140.627 168.694 141.008 170.337 141.008C171.862 141.008 173.065 140.671 173.945 139.996C174.825 139.321 175.265 138.471 175.265 137.444C175.265 136.388 174.796 135.611 173.857 135.112C172.918 134.584 171.466 134.071 169.501 133.572C167.712 133.103 166.245 132.633 165.101 132.164C163.986 131.665 163.018 130.947 162.197 130.008C161.405 129.04 161.009 127.779 161.009 126.224C161.009 124.992 161.376 123.863 162.109 122.836C162.842 121.809 163.884 121.003 165.233 120.416C166.582 119.8 168.122 119.492 169.853 119.492C172.522 119.492 174.678 120.167 176.321 121.516C177.964 122.865 178.844 124.713 178.961 127.06H174.957C174.869 125.799 174.356 124.787 173.417 124.024C172.508 123.261 171.276 122.88 169.721 122.88C168.284 122.88 167.14 123.188 166.289 123.804C165.438 124.42 165.013 125.227 165.013 126.224C165.013 127.016 165.262 127.676 165.761 128.204C166.289 128.703 166.934 129.113 167.697 129.436C168.489 129.729 169.574 130.067 170.953 130.448C172.684 130.917 174.092 131.387 175.177 131.856C176.262 132.296 177.186 132.971 177.949 133.88C178.741 134.789 179.152 135.977 179.181 137.444C179.181 138.764 178.814 139.952 178.081 141.008C177.348 142.064 176.306 142.9 174.957 143.516C173.637 144.103 172.112 144.396 170.381 144.396ZM185.301 115.972C184.539 115.972 183.893 115.708 183.365 115.18C182.837 114.652 182.573 114.007 182.573 113.244C182.573 112.481 182.837 111.836 183.365 111.308C183.893 110.78 184.539 110.516 185.301 110.516C186.035 110.516 186.651 110.78 187.149 111.308C187.677 111.836 187.941 112.481 187.941 113.244C187.941 114.007 187.677 114.652 187.149 115.18C186.651 115.708 186.035 115.972 185.301 115.972ZM187.237 119.888V144H183.233V119.888H187.237ZM197.345 123.188V137.4C197.345 138.573 197.595 139.409 198.093 139.908C198.592 140.377 199.457 140.612 200.689 140.612H203.637V144H200.029C197.8 144 196.128 143.487 195.013 142.46C193.899 141.433 193.341 139.747 193.341 137.4V123.188H190.217V119.888H193.341V113.816H197.345V119.888H203.637V123.188H197.345ZM228.273 119.888V144H224.269V140.436C223.506 141.668 222.435 142.636 221.057 143.34C219.707 144.015 218.211 144.352 216.569 144.352C214.691 144.352 213.005 143.971 211.509 143.208C210.013 142.416 208.825 141.243 207.945 139.688C207.094 138.133 206.669 136.241 206.669 134.012V119.888H210.629V133.484C210.629 135.86 211.23 137.693 212.433 138.984C213.635 140.245 215.278 140.876 217.361 140.876C219.502 140.876 221.189 140.216 222.421 138.896C223.653 137.576 224.269 135.655 224.269 133.132V119.888H228.273ZM237.437 111.44V144H233.433V111.44H237.437ZM246.665 123.804C247.369 122.425 248.367 121.355 249.657 120.592C250.977 119.829 252.576 119.448 254.453 119.448V123.584H253.397C248.909 123.584 246.665 126.019 246.665 130.888V144H242.661V119.888H246.665V123.804ZM270.939 144L261.479 133.352V144H257.475V111.44H261.479V130.58L270.763 119.888H276.351L264.999 131.9L276.395 144H270.939ZM287.056 144.396C285.208 144.396 283.551 144.088 282.084 143.472C280.617 142.827 279.459 141.947 278.608 140.832C277.757 139.688 277.288 138.383 277.2 136.916H281.336C281.453 138.119 282.011 139.101 283.008 139.864C284.035 140.627 285.369 141.008 287.012 141.008C288.537 141.008 289.74 140.671 290.62 139.996C291.5 139.321 291.94 138.471 291.94 137.444C291.94 136.388 291.471 135.611 290.532 135.112C289.593 134.584 288.141 134.071 286.176 133.572C284.387 133.103 282.92 132.633 281.776 132.164C280.661 131.665 279.693 130.947 278.872 130.008C278.08 129.04 277.684 127.779 277.684 126.224C277.684 124.992 278.051 123.863 278.784 122.836C279.517 121.809 280.559 121.003 281.908 120.416C283.257 119.8 284.797 119.492 286.528 119.492C289.197 119.492 291.353 120.167 292.996 121.516C294.639 122.865 295.519 124.713 295.636 127.06H291.632C291.544 125.799 291.031 124.787 290.092 124.024C289.183 123.261 287.951 122.88 286.396 122.88C284.959 122.88 283.815 123.188 282.964 123.804C282.113 124.42 281.688 125.227 281.688 126.224C281.688 127.016 281.937 127.676 282.436 128.204C282.964 128.703 283.609 129.113 284.372 129.436C285.164 129.729 286.249 130.067 287.628 130.448C289.359 130.917 290.767 131.387 291.852 131.856C292.937 132.296 293.861 132.971 294.624 133.88C295.416 134.789 295.827 135.977 295.856 137.444C295.856 138.764 295.489 139.952 294.756 141.008C294.023 142.064 292.981 142.9 291.632 143.516C290.312 144.103 288.787 144.396 287.056 144.396ZM304.044 138.456L299.116 150.292H296.432L299.644 138.456H304.044Z" fill="#EBFF5E"/>
</svg>
