<svg width="16" height="14" viewBox="0 0 16 14" fill="none" xmlns="http://www.w3.org/2000/svg">
<path d="M5.30005 0.699951C4.80299 0.699951 4.40005 1.10289 4.40005 1.59995C4.40005 2.09701 4.80299 2.49995 5.30005 2.49995H10.7C11.1971 2.49995 11.6 2.09701 11.6 1.59995C11.6 1.10289 11.1971 0.699951 10.7 0.699951H5.30005Z" fill="#645D74"/>
<path d="M2.60005 4.29995C2.60005 3.8029 3.00299 3.39995 3.50005 3.39995H12.5C12.9971 3.39995 13.4 3.8029 13.4 4.29995C13.4 4.79701 12.9971 5.19995 12.5 5.19995H3.50005C3.00299 5.19995 2.60005 4.79701 2.60005 4.29995Z" fill="#645D74"/>
<path d="M0.800049 7.89995C0.800049 6.90584 1.60594 6.09995 2.60005 6.09995H13.4C14.3942 6.09995 15.2 6.90584 15.2 7.89995V11.5C15.2 12.4941 14.3942 13.3 13.4 13.3H2.60005C1.60594 13.3 0.800049 12.4941 0.800049 11.5V7.89995Z" fill="#645D74"/>
</svg>
