<svg width="20" height="20" viewBox="0 0 20 20" fill="none" xmlns="http://www.w3.org/2000/svg">
<path d="M18.75 11.25H16.25V3.75H3.75V11.25H1.25V3.75C1.25198 3.08757 1.51601 2.45283 1.98442 1.98442C2.45283 1.51601 3.08757 1.25198 3.75 1.25H16.25C16.9124 1.25198 17.5472 1.51601 18.0156 1.98442C18.484 2.45283 18.748 3.08757 18.75 3.75V11.25Z" fill="white"/>
<path d="M17.5 17.5H2.5C1.83757 17.498 1.20283 17.234 0.734419 16.7656C0.266006 16.2972 0.00197841 15.6624 0 15L0 13.75H20V15C19.998 15.6624 19.734 16.2972 19.2656 16.7656C18.7972 17.234 18.1624 17.498 17.5 17.5Z" fill="white"/>
<path d="M8.75 6.25L12.5 8.75L8.75 11.25V6.25Z" fill="white"/>
</svg>
