<svg class="w-full" xmlns="http://www.w3.org/2000/svg" viewBox="0 0 112 25.93">
    <path d="M87.14,17.88c2.89,0,5.23-2.3,5.23-5.13s-2.35-5.13-5.23-5.13-5.23,2.3-5.23,5.13,2.35,5.13,5.23,5.13ZM92.38,0h2.48V20.33h-2.48v-2.03c-1.43,1.3-3.28,2.01-5.23,2.01-4.25,0-7.71-3.39-7.71-7.56s3.46-7.56,7.71-7.56c1.96,0,3.8,.71,5.23,2.01V0ZM35.71,17.79c2.89,0,5.23-2.3,5.23-5.13s-2.35-5.13-5.23-5.13-5.23,2.3-5.23,5.13,2.35,5.13,5.23,5.13Zm-5.23-10.68c1.43-1.3,3.28-2.01,5.23-2.01,4.25,0,7.71,3.39,7.71,7.56s-3.46,7.56-7.71,7.56c-1.96,0-3.8-.71-5.23-2.01v7.2h-2.48V5.08h2.48v2.03Zm17.68,4.37c.56-2.3,2.64-3.95,5.01-3.95s4.3,1.61,4.82,3.95h-9.83Zm5.01-6.4c-4.19,0-7.6,3.42-7.6,7.62s3.41,7.62,7.6,7.62c2.35,0,4.5-.88,5.91-2.42l.73-.8,.09-.1-.1-.1-1.59-1.47-.1-.09-.09,.1-.73,.8c-.93,1.02-2.47,1.63-4.11,1.63-2.37,0-4.45-1.65-5.01-3.95h12.41v-1.23c0-4.27-3.25-7.62-7.4-7.62Zm56.35,7.62c0,2.85-2.35,5.17-5.23,5.17s-5.23-2.32-5.23-5.17,2.35-5.17,5.23-5.17,5.23,2.32,5.23,5.17Zm-5.23-7.62c-4.25,0-7.71,3.42-7.71,7.62s3.46,7.62,7.71,7.62,7.71-3.42,7.71-7.62-3.46-7.62-7.71-7.62Zm-34.5,0c-1.72,0-3.36,.66-4.66,1.85v-1.85h-2.41v15.24h2.41v-7.78c0-2.78,2.09-5.03,4.66-5.03s4.66,2.26,4.66,5.03v7.78h2.41v-7.78c0-4.12-3.17-7.46-7.07-7.46Z" fill="#fff" fill-rule="evenodd"></path>
    <path d="M0,14.52H11.67v11.41l11.67-11.41V3.11H11.67L0,14.52Z" fill="#ff4876" fill-rule="evenodd"></path>
</svg>