<svg width="112" height="112" viewBox="0 0 112 112" fill="none" xmlns="http://www.w3.org/2000/svg">
<circle cx="56" cy="56" r="53.5" fill="#72E4FC" stroke="white" stroke-width="5"/>
<g clip-path="url(#clip0_285_1050)">
<path d="M73.6262 56.0005C73.6262 55.3077 73.2784 54.6575 72.6922 54.2601L50.8172 39.3851C50.1522 38.9303 49.2772 38.8793 48.5531 39.2406C47.829 39.6082 47.3762 40.3328 47.3762 41.1255V70.8776C47.3762 71.6702 47.829 72.397 48.5531 72.7625C49.2772 73.1237 50.15 73.0727 50.8172 72.618L72.6922 57.743C73.2784 57.3477 73.6262 56.6975 73.6262 56.0047C73.6262 56.0026 73.6262 56.0026 73.6262 56.0005C73.6262 56.0026 73.6262 56.0026 73.6262 56.0005Z" fill="#060606"/>
</g>
<defs>
<clipPath id="clip0_285_1050">
<rect width="35" height="34" fill="white" transform="translate(43 39)"/>
</clipPath>
</defs>
</svg>
