<svg width="20" height="20" viewBox="0 0 20 20" fill="none" xmlns="http://www.w3.org/2000/svg">
<g clip-path="url(#clip0_285_466)">
<path d="M15.8141 11.1275L17.3303 9.53997C18.0826 8.78336 18.564 7.79946 18.6996 6.74114C18.8352 5.68282 18.6175 4.60934 18.0803 3.68747L19.6316 2.13622C19.7585 2.02308 19.861 1.88523 19.9328 1.7311C20.0046 1.57698 20.0443 1.40982 20.0493 1.23985C20.0543 1.06989 20.0245 0.900691 19.9619 0.742613C19.8992 0.584535 19.805 0.4409 19.6849 0.320494C19.5649 0.200089 19.4215 0.105446 19.2636 0.0423548C19.1057 -0.0207364 18.9366 -0.0509489 18.7666 -0.0464343C18.5966 -0.0419197 18.4294 -0.00277306 18.275 0.0686108C18.1207 0.139995 17.9826 0.242115 17.8691 0.368723L16.3178 1.91997C15.3959 1.38277 14.3225 1.16506 13.2641 1.30069C12.2058 1.43631 11.2219 1.91767 10.4653 2.66997L8.91406 4.22622L15.8141 11.1275Z" fill="white"/>
<path d="M11.9122 11.9187L10.5872 10.5938L8.24973 12.9375L7.07473 11.7625L9.41224 9.41875L8.08723 8.09375L5.74973 10.4375L4.18849 8.88125L2.67224 10.4688C1.91993 11.2254 1.43857 12.2093 1.30295 13.2676C1.16733 14.3259 1.38503 15.3994 1.92224 16.3212L0.365985 17.8725C0.246598 17.9878 0.15137 18.1257 0.0858585 18.2782C0.0203473 18.4308 -0.0141355 18.5948 -0.0155778 18.7607C-0.0170201 18.9267 0.0146071 19.0913 0.0774582 19.2449C0.140309 19.3986 0.233126 19.5381 0.350492 19.6555C0.467857 19.7729 0.607422 19.8657 0.761043 19.9285C0.914663 19.9914 1.07926 20.023 1.24524 20.0216C1.41121 20.0201 1.57524 19.9856 1.72774 19.9201C1.88025 19.8546 2.01818 19.7594 2.13349 19.64L3.68474 18.0887C4.6066 18.626 5.68009 18.8437 6.7384 18.708C7.79672 18.5724 8.78062 18.0911 9.53724 17.3388L11.0885 15.7875L9.56849 14.2625L11.9122 11.9187Z" fill="white"/>
</g>
<defs>
<clipPath id="clip0_285_466">
<rect width="20" height="20" fill="white"/>
</clipPath>
</defs>
</svg>
