<svg width="608" height="373" viewBox="0 0 608 373" fill="none" xmlns="http://www.w3.org/2000/svg">
<rect x="1.46899" y="0.75" width="605.781" height="371.272" rx="13.5524" fill="black"/>
<g clip-path="url(#clip0_95_1423)">
<rect x="18.719" y="18" width="571.281" height="336.772" rx="8" fill="black"/>
<g opacity="0.9">
<rect x="18.719" y="18" width="571.281" height="416.612" rx="8" fill="white"/>
<rect x="40.8204" y="40.1014" width="16.5761" height="16.5761" rx="8.28804" fill="#A1A5C2"/>
<rect x="61.2643" y="45.6268" width="45.8605" height="5.52536" rx="2.76268" fill="#C4C7DA"/>
<rect x="40.8204" y="66.6232" width="80.6703" height="255.272" rx="8.84058" fill="white"/>
<rect x="54.0813" y="79.884" width="9.94565" height="9.94565" rx="4.97283" fill="#E2E3E9"/>
<rect x="67.8948" y="82.0942" width="40.3351" height="5.52536" rx="2.76268" fill="#E2E3E9"/>
<rect x="54.0813" y="104.196" width="9.94565" height="9.94565" rx="4.97283" fill="#E2E3E9"/>
<rect x="67.8948" y="106.406" width="23.7591" height="5.52536" rx="2.76268" fill="#E2E3E9"/>
<rect x="54.0813" y="128.507" width="9.94565" height="9.94565" rx="4.97283" fill="#E2E3E9"/>
<rect x="67.8948" y="130.717" width="40.3351" height="5.52536" rx="2.76268" fill="#E2E3E9"/>
<rect x="54.0813" y="152.819" width="9.94565" height="9.94565" rx="4.97283" fill="#E2E3E9"/>
<rect x="67.8948" y="155.029" width="32.0471" height="5.52536" rx="2.76268" fill="#E2E3E9"/>
<rect x="54.0813" y="177.13" width="9.94565" height="9.94565" rx="4.97283" fill="#E2E3E9"/>
<rect x="67.8948" y="179.341" width="23.7591" height="5.52536" rx="2.76268" fill="#E2E3E9"/>
<rect x="54.0813" y="201.442" width="9.94565" height="9.94565" rx="4.97283" fill="#E2E3E9"/>
<rect x="67.8948" y="203.652" width="40.3351" height="5.52536" rx="2.76268" fill="#E2E3E9"/>
<rect x="54.0813" y="225.754" width="9.94565" height="9.94565" rx="4.97283" fill="#E2E3E9"/>
<rect x="67.8948" y="227.964" width="32.0471" height="5.52536" rx="2.76268" fill="#E2E3E9"/>
<rect x="54.0813" y="250.065" width="9.94565" height="9.94565" rx="4.97283" fill="#E2E3E9"/>
<rect x="67.8948" y="252.275" width="40.3351" height="5.52536" rx="2.76268" fill="#E2E3E9"/>
<rect x="54.0813" y="274.377" width="9.94565" height="9.94565" rx="4.97283" fill="#E2E3E9"/>
<rect x="67.8948" y="276.587" width="23.7591" height="5.52536" rx="2.76268" fill="#E2E3E9"/>
<rect x="54.0813" y="298.688" width="9.94565" height="9.94565" rx="4.97283" fill="#E2E3E9"/>
<rect x="67.8948" y="300.898" width="40.3351" height="5.52536" rx="2.76268" fill="#E2E3E9"/>
<rect x="145.802" y="40.1014" width="90.0634" height="13.8134" rx="4.42029" fill="#A1A5C2"/>
<rect x="348.542" y="40.1014" width="166.313" height="21.5489" rx="4.42029" fill="#E2E3E9"/>
<rect x="521.486" y="40.1014" width="46.413" height="21.5489" rx="4.42029" fill="#A1A5C2"/>
<rect x="146.355" y="79.8841" width="134.437" height="90.6159" rx="8.28804" fill="#E2E3E9"/>
<rect x="159.063" y="92.5924" width="16.5761" height="16.5761" rx="8.28804" fill="#A1A5C2"/>
<rect x="179.507" y="98.1178" width="18.2337" height="5.52536" rx="2.76268" fill="white"/>
<rect x="159.063" y="119.114" width="56.3587" height="13.8134" rx="4.42029" fill="white"/>
<rect x="159.063" y="137.348" width="46.413" height="7.18297" rx="3.59149" fill="white"/>
<rect x="146.355" y="79.8841" width="134.437" height="90.6159" rx="8.28804" stroke="#E2E3E9" stroke-width="1.10507"/>
<rect x="289.632" y="79.8841" width="134.437" height="90.6159" rx="8.28804" fill="white"/>
<rect x="302.341" y="92.5924" width="16.5761" height="16.5761" rx="8.28804" fill="#A1A5C2"/>
<rect x="322.784" y="98.1178" width="18.2337" height="5.52536" rx="2.76268" fill="#E2E3E9"/>
<rect x="302.341" y="119.114" width="56.3587" height="13.8134" rx="4.42029" fill="#E2E3E9"/>
<rect x="302.341" y="137.348" width="46.413" height="7.18297" rx="3.59149" fill="#E2E3E9"/>
<rect x="289.632" y="79.8841" width="134.437" height="90.6159" rx="8.28804" stroke="#E2E3E9" stroke-width="1.10507"/>
<rect x="432.909" y="79.8841" width="134.437" height="90.6159" rx="8.28804" fill="white"/>
<rect x="445.618" y="92.5924" width="16.5761" height="16.5761" rx="8.28804" fill="#A1A5C2"/>
<rect x="466.062" y="98.1178" width="18.2337" height="5.52536" rx="2.76268" fill="#E2E3E9"/>
<rect x="445.618" y="119.114" width="56.3587" height="13.8134" rx="4.42029" fill="#E2E3E9"/>
<rect x="445.618" y="137.348" width="46.413" height="7.18297" rx="3.59149" fill="#E2E3E9"/>
<rect x="432.909" y="79.8841" width="134.437" height="90.6159" rx="8.28804" stroke="#E2E3E9" stroke-width="1.10507"/>
<rect x="146.355" y="180.446" width="278.256" height="127.636" rx="8.28804" fill="white"/>
<rect x="159.063" y="193.154" width="90.0634" height="7.18297" rx="3.59149" fill="#A1A5C2"/>
<rect x="159.063" y="210.283" width="56.3587" height="13.8134" rx="4.42029" fill="#E2E3E9"/>
<rect x="225.368" y="210.283" width="186.535" height="7.18297" rx="3.59149" fill="#E2E3E9"/>
<rect x="159.063" y="234.042" width="56.3587" height="13.8134" rx="4.42029" fill="#E2E3E9"/>
<rect x="225.368" y="234.042" width="186.535" height="7.18297" rx="3.59149" fill="#E2E3E9"/>
<rect x="159.063" y="257.801" width="56.3587" height="13.8134" rx="4.42029" fill="#E2E3E9"/>
<rect x="225.368" y="257.801" width="186.535" height="7.18297" rx="3.59149" fill="#E2E3E9"/>
<rect x="159.063" y="281.56" width="56.3587" height="13.8134" rx="4.42029" fill="#E2E3E9"/>
<rect x="225.368" y="281.56" width="186.535" height="7.18297" rx="3.59149" fill="#E2E3E9"/>
<rect x="146.355" y="180.446" width="278.256" height="127.636" rx="8.28804" stroke="#E2E3E9" stroke-width="1.10507"/>
<rect x="146.355" y="318.027" width="278.256" height="92.8261" rx="8.28804" fill="white"/>
<rect x="159.063" y="330.736" width="112.165" height="7.18297" rx="3.59149" fill="#A1A5C2"/>
<rect x="159.063" y="347.864" width="16.5761" height="16.5761" rx="8.28804" fill="#E2E3E9"/>
<rect x="180.06" y="347.864" width="56.6528" height="16.5761" rx="4.42029" fill="#E2E3E9"/>
<rect x="246.658" y="347.864" width="16.5761" height="16.5761" rx="8.28804" fill="#E2E3E9"/>
<rect x="267.655" y="347.864" width="56.6528" height="16.5761" rx="4.42029" fill="#E2E3E9"/>
<rect x="334.253" y="347.864" width="16.5761" height="16.5761" rx="8.28804" fill="#E2E3E9"/>
<rect x="355.249" y="347.864" width="56.6528" height="16.5761" rx="4.42029" fill="#E2E3E9"/>
<rect x="146.355" y="318.027" width="278.256" height="92.8261" rx="8.28804" stroke="#E2E3E9" stroke-width="1.10507"/>
<rect x="433.451" y="180.446" width="133.895" height="230.895" rx="8.28804" fill="white"/>
<rect x="446.159" y="193.154" width="46.413" height="7.18297" rx="3.59149" fill="#A1A5C2"/>
<circle cx="490.362" cy="254.486" r="38.4013" stroke="#E2E3E9" stroke-width="11.6033"/>
<circle cx="490.086" cy="254.762" r="28.7319" stroke="#A1A5C2" stroke-width="11.6033"/>
<rect x="478.207" y="251.723" width="24.3116" height="7.18297" rx="3.59149" fill="#E2E3E9"/>
<rect x="446.159" y="308.634" width="108.478" height="10.4982" rx="4.42029" fill="#E2E3E9"/>
<rect x="446.159" y="323.553" width="46.413" height="7.18297" rx="3.59149" fill="#E2E3E9"/>
<rect x="446.159" y="340.681" width="108.478" height="10.4982" rx="4.42029" fill="#E2E3E9"/>
<rect x="433.451" y="180.446" width="133.895" height="230.895" rx="8.28804" stroke="#E2E3E9" stroke-width="1.10507"/>
</g>
</g>
<rect x="1.46899" y="0.75" width="605.781" height="371.272" rx="13.5524" stroke="#333333" stroke-width="1.5"/>
<defs>
<clipPath id="clip0_95_1423">
<rect x="18.719" y="18" width="571.281" height="336.772" rx="8" fill="white"/>
</clipPath>
</defs>
</svg>
