<svg width="592" height="366" viewBox="0 0 592 366" fill="none" xmlns="http://www.w3.org/2000/svg">
<rect x="0.5" y="0.5" width="591" height="365" rx="11.5" fill="#6C37F4" stroke="#0D0225"/>
<path d="M67.016 59.332V90H63.012V76.096H47.392V90H43.388V59.332H47.392V72.796H63.012V59.332H67.016ZM74.3208 61.972C73.5582 61.972 72.9128 61.708 72.3848 61.18C71.8568 60.652 71.5928 60.0067 71.5928 59.244C71.5928 58.4813 71.8568 57.836 72.3848 57.308C72.9128 56.78 73.5582 56.516 74.3208 56.516C75.0542 56.516 75.6702 56.78 76.1688 57.308C76.6968 57.836 76.9608 58.4813 76.9608 59.244C76.9608 60.0067 76.6968 60.652 76.1688 61.18C75.6702 61.708 75.0542 61.972 74.3208 61.972ZM76.2568 65.888V90H72.2528V65.888H76.2568ZM91.425 65.492C93.5076 65.492 95.3263 65.9467 96.881 66.856C98.465 67.7653 99.6383 68.9093 100.401 70.288V65.888H104.449V90.528C104.449 92.728 103.98 94.6787 103.041 96.38C102.102 98.1107 100.753 99.46 98.993 100.428C97.2623 101.396 95.2383 101.88 92.921 101.88C89.753 101.88 87.113 101.132 85.001 99.636C82.889 98.14 81.6423 96.1013 81.261 93.52H85.221C85.661 94.9867 86.5703 96.16 87.949 97.04C89.3276 97.9493 90.985 98.404 92.921 98.404C95.121 98.404 96.9103 97.7147 98.289 96.336C99.697 94.9573 100.401 93.0213 100.401 90.528V85.468C99.609 86.876 98.4356 88.0493 96.881 88.988C95.3263 89.9267 93.5076 90.396 91.425 90.396C89.2836 90.396 87.333 89.868 85.573 88.812C83.8423 87.756 82.4783 86.2747 81.481 84.368C80.4836 82.4613 79.985 80.2907 79.985 77.856C79.985 75.392 80.4836 73.236 81.481 71.388C82.4783 69.5107 83.8423 68.0587 85.573 67.032C87.333 66.0053 89.2836 65.492 91.425 65.492ZM100.401 77.9C100.401 76.0813 100.034 74.4973 99.301 73.148C98.5676 71.7987 97.5703 70.772 96.309 70.068C95.077 69.3347 93.713 68.968 92.217 68.968C90.721 68.968 89.357 69.32 88.125 70.024C86.893 70.728 85.9103 71.7547 85.177 73.104C84.4436 74.4533 84.077 76.0373 84.077 77.856C84.077 79.704 84.4436 81.3173 85.177 82.696C85.9103 84.0453 86.893 85.0867 88.125 85.82C89.357 86.524 90.721 86.876 92.217 86.876C93.713 86.876 95.077 86.524 96.309 85.82C97.5703 85.0867 98.5676 84.0453 99.301 82.696C100.034 81.3173 100.401 79.7187 100.401 77.9ZM121.583 65.448C123.402 65.448 125.045 65.844 126.511 66.636C127.978 67.3987 129.122 68.5573 129.943 70.112C130.794 71.6667 131.219 73.5587 131.219 75.788V90H127.259V76.36C127.259 73.9547 126.658 72.1213 125.455 70.86C124.253 69.5693 122.61 68.924 120.527 68.924C118.415 68.924 116.729 69.584 115.467 70.904C114.235 72.224 113.619 74.1453 113.619 76.668V90H109.615V57.44H113.619V69.32C114.411 68.088 115.497 67.1347 116.875 66.46C118.283 65.7853 119.853 65.448 121.583 65.448ZM140.164 57.44V90H136.16V57.44H140.164ZM147.456 61.972C146.693 61.972 146.048 61.708 145.52 61.18C144.992 60.652 144.728 60.0067 144.728 59.244C144.728 58.4813 144.992 57.836 145.52 57.308C146.048 56.78 146.693 56.516 147.456 56.516C148.189 56.516 148.805 56.78 149.304 57.308C149.832 57.836 150.096 58.4813 150.096 59.244C150.096 60.0067 149.832 60.652 149.304 61.18C148.805 61.708 148.189 61.972 147.456 61.972ZM149.392 65.888V90H145.388V65.888H149.392ZM164.56 65.492C166.643 65.492 168.461 65.9467 170.016 66.856C171.6 67.7653 172.773 68.9093 173.536 70.288V65.888H177.584V90.528C177.584 92.728 177.115 94.6787 176.176 96.38C175.237 98.1107 173.888 99.46 172.128 100.428C170.397 101.396 168.373 101.88 166.056 101.88C162.888 101.88 160.248 101.132 158.136 99.636C156.024 98.14 154.777 96.1013 154.396 93.52H158.356C158.796 94.9867 159.705 96.16 161.084 97.04C162.463 97.9493 164.12 98.404 166.056 98.404C168.256 98.404 170.045 97.7147 171.424 96.336C172.832 94.9573 173.536 93.0213 173.536 90.528V85.468C172.744 86.876 171.571 88.0493 170.016 88.988C168.461 89.9267 166.643 90.396 164.56 90.396C162.419 90.396 160.468 89.868 158.708 88.812C156.977 87.756 155.613 86.2747 154.616 84.368C153.619 82.4613 153.12 80.2907 153.12 77.856C153.12 75.392 153.619 73.236 154.616 71.388C155.613 69.5107 156.977 68.0587 158.708 67.032C160.468 66.0053 162.419 65.492 164.56 65.492ZM173.536 77.9C173.536 76.0813 173.169 74.4973 172.436 73.148C171.703 71.7987 170.705 70.772 169.444 70.068C168.212 69.3347 166.848 68.968 165.352 68.968C163.856 68.968 162.492 69.32 161.26 70.024C160.028 70.728 159.045 71.7547 158.312 73.104C157.579 74.4533 157.212 76.0373 157.212 77.856C157.212 79.704 157.579 81.3173 158.312 82.696C159.045 84.0453 160.028 85.0867 161.26 85.82C162.492 86.524 163.856 86.876 165.352 86.876C166.848 86.876 168.212 86.524 169.444 85.82C170.705 85.0867 171.703 84.0453 172.436 82.696C173.169 81.3173 173.536 79.7187 173.536 77.9ZM194.719 65.448C196.537 65.448 198.18 65.844 199.647 66.636C201.113 67.3987 202.257 68.5573 203.079 70.112C203.929 71.6667 204.355 73.5587 204.355 75.788V90H200.395V76.36C200.395 73.9547 199.793 72.1213 198.591 70.86C197.388 69.5693 195.745 68.924 193.663 68.924C191.551 68.924 189.864 69.584 188.603 70.904C187.371 72.224 186.755 74.1453 186.755 76.668V90H182.751V57.44H186.755V69.32C187.547 68.088 188.632 67.1347 190.011 66.46C191.419 65.7853 192.988 65.448 194.719 65.448ZM214.179 69.188V83.4C214.179 84.5733 214.428 85.4093 214.927 85.908C215.426 86.3773 216.291 86.612 217.523 86.612H220.471V90H216.863C214.634 90 212.962 89.4867 211.847 88.46C210.732 87.4333 210.175 85.7467 210.175 83.4V69.188H207.051V65.888H210.175V59.816H214.179V65.888H220.471V69.188H214.179ZM235.921 61.972C235.158 61.972 234.513 61.708 233.985 61.18C233.457 60.652 233.193 60.0067 233.193 59.244C233.193 58.4813 233.457 57.836 233.985 57.308C234.513 56.78 235.158 56.516 235.921 56.516C236.654 56.516 237.27 56.78 237.769 57.308C238.297 57.836 238.561 58.4813 238.561 59.244C238.561 60.0067 238.297 60.652 237.769 61.18C237.27 61.708 236.654 61.972 235.921 61.972ZM237.857 65.888V90H233.853V65.888H237.857ZM254.829 65.448C257.762 65.448 260.138 66.3427 261.957 68.132C263.776 69.892 264.685 72.444 264.685 75.788V90H260.725V76.36C260.725 73.9547 260.124 72.1213 258.921 70.86C257.718 69.5693 256.076 68.924 253.993 68.924C251.881 68.924 250.194 69.584 248.933 70.904C247.701 72.224 247.085 74.1453 247.085 76.668V90H243.081V65.888H247.085V69.32C247.877 68.088 248.948 67.1347 250.297 66.46C251.676 65.7853 253.186 65.448 254.829 65.448ZM268.13 77.9C268.13 75.4067 268.628 73.236 269.626 71.388C270.623 69.5107 272.002 68.0587 273.762 67.032C275.551 66.0053 277.59 65.492 279.878 65.492C282.84 65.492 285.275 66.2107 287.182 67.648C289.118 69.0853 290.394 71.08 291.01 73.632H286.698C286.287 72.1653 285.48 71.0067 284.278 70.156C283.104 69.3053 281.638 68.88 279.878 68.88C277.59 68.88 275.742 69.672 274.334 71.256C272.926 72.8107 272.222 75.0253 272.222 77.9C272.222 80.804 272.926 83.048 274.334 84.632C275.742 86.216 277.59 87.008 279.878 87.008C281.638 87.008 283.104 86.5973 284.278 85.776C285.451 84.9547 286.258 83.7813 286.698 82.256H291.01C290.364 84.72 289.074 86.7 287.138 88.196C285.202 89.6627 282.782 90.396 279.878 90.396C277.59 90.396 275.551 89.8827 273.762 88.856C272.002 87.8293 270.623 86.3773 269.626 84.5C268.628 82.6227 268.13 80.4227 268.13 77.9ZM298.756 57.44V90H294.752V57.44H298.756ZM325.364 65.888V90H321.36V86.436C320.598 87.668 319.527 88.636 318.148 89.34C316.799 90.0147 315.303 90.352 313.66 90.352C311.783 90.352 310.096 89.9707 308.6 89.208C307.104 88.416 305.916 87.2427 305.036 85.688C304.186 84.1333 303.76 82.2413 303.76 80.012V65.888H307.72V79.484C307.72 81.86 308.322 83.6933 309.524 84.984C310.727 86.2453 312.37 86.876 314.452 86.876C316.594 86.876 318.28 86.216 319.512 84.896C320.744 83.576 321.36 81.6547 321.36 79.132V65.888H325.364ZM329.029 77.856C329.029 75.392 329.527 73.236 330.525 71.388C331.522 69.5107 332.886 68.0587 334.617 67.032C336.377 66.0053 338.342 65.492 340.513 65.492C342.39 65.492 344.135 65.932 345.749 66.812C347.362 67.6627 348.594 68.792 349.445 70.2V57.44H353.493V90H349.445V85.468C348.653 86.9053 347.479 88.0933 345.925 89.032C344.37 89.9413 342.551 90.396 340.469 90.396C338.327 90.396 336.377 89.868 334.617 88.812C332.886 87.756 331.522 86.2747 330.525 84.368C329.527 82.4613 329.029 80.2907 329.029 77.856ZM349.445 77.9C349.445 76.0813 349.078 74.4973 348.345 73.148C347.611 71.7987 346.614 70.772 345.353 70.068C344.121 69.3347 342.757 68.968 341.261 68.968C339.765 68.968 338.401 69.32 337.169 70.024C335.937 70.728 334.954 71.7547 334.221 73.104C333.487 74.4533 333.121 76.0373 333.121 77.856C333.121 79.704 333.487 81.3173 334.221 82.696C334.954 84.0453 335.937 85.0867 337.169 85.82C338.401 86.524 339.765 86.876 341.261 86.876C342.757 86.876 344.121 86.524 345.353 85.82C346.614 85.0867 347.611 84.0453 348.345 82.696C349.078 81.3173 349.445 79.7187 349.445 77.9ZM380.659 77.02C380.659 77.7827 380.615 78.5893 380.527 79.44H361.255C361.402 81.816 362.208 83.6787 363.675 85.028C365.171 86.348 366.975 87.008 369.087 87.008C370.818 87.008 372.255 86.612 373.399 85.82C374.572 84.9987 375.394 83.9133 375.863 82.564H380.175C379.53 84.8813 378.239 86.7733 376.303 88.24C374.367 89.6773 371.962 90.396 369.087 90.396C366.799 90.396 364.746 89.8827 362.927 88.856C361.138 87.8293 359.73 86.3773 358.703 84.5C357.676 82.5933 357.163 80.3933 357.163 77.9C357.163 75.4067 357.662 73.2213 358.659 71.344C359.656 69.4667 361.05 68.0293 362.839 67.032C364.658 66.0053 366.74 65.492 369.087 65.492C371.375 65.492 373.399 65.9907 375.159 66.988C376.919 67.9853 378.268 69.364 379.207 71.124C380.175 72.8547 380.659 74.82 380.659 77.02ZM376.523 76.184C376.523 74.6587 376.186 73.3533 375.511 72.268C374.836 71.1533 373.912 70.3173 372.739 69.76C371.595 69.1733 370.319 68.88 368.911 68.88C366.887 68.88 365.156 69.5253 363.719 70.816C362.311 72.1067 361.504 73.896 361.299 76.184H376.523ZM392.88 90.396C391.032 90.396 389.375 90.088 387.908 89.472C386.442 88.8267 385.283 87.9467 384.432 86.832C383.582 85.688 383.112 84.3827 383.024 82.916H387.16C387.278 84.1187 387.835 85.1013 388.832 85.864C389.859 86.6267 391.194 87.008 392.836 87.008C394.362 87.008 395.564 86.6707 396.444 85.996C397.324 85.3213 397.764 84.4707 397.764 83.444C397.764 82.388 397.295 81.6107 396.356 81.112C395.418 80.584 393.966 80.0707 392 79.572C390.211 79.1027 388.744 78.6333 387.6 78.164C386.486 77.6653 385.518 76.9467 384.696 76.008C383.904 75.04 383.508 73.7787 383.508 72.224C383.508 70.992 383.875 69.8627 384.608 68.836C385.342 67.8093 386.383 67.0027 387.732 66.416C389.082 65.8 390.622 65.492 392.352 65.492C395.022 65.492 397.178 66.1667 398.82 67.516C400.463 68.8653 401.343 70.7133 401.46 73.06H397.456C397.368 71.7987 396.855 70.7867 395.916 70.024C395.007 69.2613 393.775 68.88 392.22 68.88C390.783 68.88 389.639 69.188 388.788 69.804C387.938 70.42 387.512 71.2267 387.512 72.224C387.512 73.016 387.762 73.676 388.26 74.204C388.788 74.7027 389.434 75.1133 390.196 75.436C390.988 75.7293 392.074 76.0667 393.452 76.448C395.183 76.9173 396.591 77.3867 397.676 77.856C398.762 78.296 399.686 78.9707 400.448 79.88C401.24 80.7893 401.651 81.9773 401.68 83.444C401.68 84.764 401.314 85.952 400.58 87.008C399.847 88.064 398.806 88.9 397.456 89.516C396.136 90.1027 394.611 90.396 392.88 90.396ZM339.613 119.888L332.089 144H327.953L322.145 124.86L316.337 144H312.201L304.633 119.888H308.725L314.269 140.128L320.253 119.888H324.345L330.197 140.172L335.653 119.888H339.613ZM353.955 119.448C355.774 119.448 357.417 119.844 358.883 120.636C360.35 121.399 361.494 122.557 362.315 124.112C363.166 125.667 363.591 127.559 363.591 129.788V144H359.631V130.36C359.631 127.955 359.03 126.121 357.827 124.86C356.625 123.569 354.982 122.924 352.899 122.924C350.787 122.924 349.101 123.584 347.839 124.904C346.607 126.224 345.991 128.145 345.991 130.668V144H341.987V111.44H345.991V123.32C346.783 122.088 347.869 121.135 349.247 120.46C350.655 119.785 352.225 119.448 353.955 119.448ZM390.532 131.02C390.532 131.783 390.488 132.589 390.4 133.44H371.128C371.274 135.816 372.081 137.679 373.548 139.028C375.044 140.348 376.848 141.008 378.96 141.008C380.69 141.008 382.128 140.612 383.272 139.82C384.445 138.999 385.266 137.913 385.736 136.564H390.048C389.402 138.881 388.112 140.773 386.176 142.24C384.24 143.677 381.834 144.396 378.96 144.396C376.672 144.396 374.618 143.883 372.8 142.856C371.01 141.829 369.602 140.377 368.576 138.5C367.549 136.593 367.036 134.393 367.036 131.9C367.036 129.407 367.534 127.221 368.532 125.344C369.529 123.467 370.922 122.029 372.712 121.032C374.53 120.005 376.613 119.492 378.96 119.492C381.248 119.492 383.272 119.991 385.032 120.988C386.792 121.985 388.141 123.364 389.08 125.124C390.048 126.855 390.532 128.82 390.532 131.02ZM386.396 130.184C386.396 128.659 386.058 127.353 385.384 126.268C384.709 125.153 383.785 124.317 382.612 123.76C381.468 123.173 380.192 122.88 378.784 122.88C376.76 122.88 375.029 123.525 373.592 124.816C372.184 126.107 371.377 127.896 371.172 130.184H386.396ZM398.221 123.804C398.925 122.425 399.922 121.355 401.213 120.592C402.533 119.829 404.132 119.448 406.009 119.448V123.584H404.953C400.465 123.584 398.221 126.019 398.221 130.888V144H394.217V119.888H398.221V123.804ZM431.031 131.02C431.031 131.783 430.987 132.589 430.899 133.44H411.627C411.774 135.816 412.58 137.679 414.047 139.028C415.543 140.348 417.347 141.008 419.459 141.008C421.19 141.008 422.627 140.612 423.771 139.82C424.944 138.999 425.766 137.913 426.235 136.564H430.547C429.902 138.881 428.611 140.773 426.675 142.24C424.739 143.677 422.334 144.396 419.459 144.396C417.171 144.396 415.118 143.883 413.299 142.856C411.51 141.829 410.102 140.377 409.075 138.5C408.048 136.593 407.535 134.393 407.535 131.9C407.535 129.407 408.034 127.221 409.031 125.344C410.028 123.467 411.422 122.029 413.211 121.032C415.03 120.005 417.112 119.492 419.459 119.492C421.747 119.492 423.771 119.991 425.531 120.988C427.291 121.985 428.64 123.364 429.579 125.124C430.547 126.855 431.031 128.82 431.031 131.02ZM426.895 130.184C426.895 128.659 426.558 127.353 425.883 126.268C425.208 125.153 424.284 124.317 423.111 123.76C421.967 123.173 420.691 122.88 419.283 122.88C417.259 122.88 415.528 123.525 414.091 124.816C412.683 126.107 411.876 127.896 411.671 130.184H426.895ZM465.615 119.888L451.095 155.352H446.959L451.711 143.736L441.987 119.888H446.431L453.999 139.424L461.479 119.888H465.615ZM478.556 144.396C476.297 144.396 474.244 143.883 472.396 142.856C470.577 141.829 469.14 140.377 468.084 138.5C467.057 136.593 466.544 134.393 466.544 131.9C466.544 129.436 467.072 127.265 468.128 125.388C469.213 123.481 470.68 122.029 472.528 121.032C474.376 120.005 476.444 119.492 478.732 119.492C481.02 119.492 483.088 120.005 484.936 121.032C486.784 122.029 488.236 123.467 489.292 125.344C490.377 127.221 490.92 129.407 490.92 131.9C490.92 134.393 490.362 136.593 489.248 138.5C488.162 140.377 486.681 141.829 484.804 142.856C482.926 143.883 480.844 144.396 478.556 144.396ZM478.556 140.876C479.993 140.876 481.342 140.539 482.604 139.864C483.865 139.189 484.877 138.177 485.64 136.828C486.432 135.479 486.828 133.836 486.828 131.9C486.828 129.964 486.446 128.321 485.684 126.972C484.921 125.623 483.924 124.625 482.692 123.98C481.46 123.305 480.125 122.968 478.688 122.968C477.221 122.968 475.872 123.305 474.64 123.98C473.437 124.625 472.469 125.623 471.736 126.972C471.002 128.321 470.636 129.964 470.636 131.9C470.636 133.865 470.988 135.523 471.692 136.872C472.425 138.221 473.393 139.233 474.596 139.908C475.798 140.553 477.118 140.876 478.556 140.876ZM515.968 119.888V144H511.964V140.436C511.201 141.668 510.131 142.636 508.752 143.34C507.403 144.015 505.907 144.352 504.264 144.352C502.387 144.352 500.7 143.971 499.204 143.208C497.708 142.416 496.52 141.243 495.64 139.688C494.789 138.133 494.364 136.241 494.364 134.012V119.888H498.324V133.484C498.324 135.86 498.925 137.693 500.128 138.984C501.331 140.245 502.973 140.876 505.056 140.876C507.197 140.876 508.884 140.216 510.116 138.896C511.348 137.576 511.964 135.655 511.964 133.132V119.888H515.968ZM525.133 123.804C525.837 122.425 526.834 121.355 528.125 120.592C529.445 119.829 531.043 119.448 532.921 119.448V123.584H531.865C527.377 123.584 525.133 126.019 525.133 130.888V144H521.129V119.888H525.133V123.804ZM41.892 185.9C41.892 183.407 42.3907 181.236 43.388 179.388C44.3853 177.511 45.764 176.059 47.524 175.032C49.3133 174.005 51.352 173.492 53.64 173.492C56.6027 173.492 59.0373 174.211 60.944 175.648C62.88 177.085 64.156 179.08 64.772 181.632H60.46C60.0493 180.165 59.2427 179.007 58.04 178.156C56.8667 177.305 55.4 176.88 53.64 176.88C51.352 176.88 49.504 177.672 48.096 179.256C46.688 180.811 45.984 183.025 45.984 185.9C45.984 188.804 46.688 191.048 48.096 192.632C49.504 194.216 51.352 195.008 53.64 195.008C55.4 195.008 56.8667 194.597 58.04 193.776C59.2133 192.955 60.02 191.781 60.46 190.256H64.772C64.1267 192.72 62.836 194.7 60.9 196.196C58.964 197.663 56.544 198.396 53.64 198.396C51.352 198.396 49.3133 197.883 47.524 196.856C45.764 195.829 44.3853 194.377 43.388 192.5C42.3907 190.623 41.892 188.423 41.892 185.9ZM89.8986 173.888V198H85.8946V194.436C85.1319 195.668 84.0612 196.636 82.6826 197.34C81.3332 198.015 79.8372 198.352 78.1946 198.352C76.3172 198.352 74.6306 197.971 73.1346 197.208C71.6386 196.416 70.4506 195.243 69.5706 193.688C68.7199 192.133 68.2946 190.241 68.2946 188.012V173.888H72.2546V187.484C72.2546 189.86 72.8559 191.693 74.0586 192.984C75.2612 194.245 76.9039 194.876 78.9866 194.876C81.1279 194.876 82.8146 194.216 84.0466 192.896C85.2786 191.576 85.8946 189.655 85.8946 187.132V173.888H89.8986ZM103.595 198.396C101.747 198.396 100.09 198.088 98.6231 197.472C97.1564 196.827 95.9978 195.947 95.1471 194.832C94.2964 193.688 93.8271 192.383 93.7391 190.916H97.8751C97.9924 192.119 98.5498 193.101 99.5471 193.864C100.574 194.627 101.908 195.008 103.551 195.008C105.076 195.008 106.279 194.671 107.159 193.996C108.039 193.321 108.479 192.471 108.479 191.444C108.479 190.388 108.01 189.611 107.071 189.112C106.132 188.584 104.68 188.071 102.715 187.572C100.926 187.103 99.4591 186.633 98.3151 186.164C97.2004 185.665 96.2324 184.947 95.4111 184.008C94.6191 183.04 94.2231 181.779 94.2231 180.224C94.2231 178.992 94.5898 177.863 95.3231 176.836C96.0564 175.809 97.0978 175.003 98.4471 174.416C99.7964 173.8 101.336 173.492 103.067 173.492C105.736 173.492 107.892 174.167 109.535 175.516C111.178 176.865 112.058 178.713 112.175 181.06H108.171C108.083 179.799 107.57 178.787 106.631 178.024C105.722 177.261 104.49 176.88 102.935 176.88C101.498 176.88 100.354 177.188 99.5031 177.804C98.6524 178.42 98.2271 179.227 98.2271 180.224C98.2271 181.016 98.4764 181.676 98.9751 182.204C99.5031 182.703 100.148 183.113 100.911 183.436C101.703 183.729 102.788 184.067 104.167 184.448C105.898 184.917 107.306 185.387 108.391 185.856C109.476 186.296 110.4 186.971 111.163 187.88C111.955 188.789 112.366 189.977 112.395 191.444C112.395 192.764 112.028 193.952 111.295 195.008C110.562 196.064 109.52 196.9 108.171 197.516C106.851 198.103 105.326 198.396 103.595 198.396ZM121.331 177.188V191.4C121.331 192.573 121.581 193.409 122.079 193.908C122.578 194.377 123.443 194.612 124.675 194.612H127.623V198H124.015C121.786 198 120.114 197.487 118.999 196.46C117.885 195.433 117.327 193.747 117.327 191.4V177.188H114.203V173.888H117.327V167.816H121.331V173.888H127.623V177.188H121.331ZM141.391 198.396C139.132 198.396 137.079 197.883 135.231 196.856C133.412 195.829 131.975 194.377 130.919 192.5C129.892 190.593 129.379 188.393 129.379 185.9C129.379 183.436 129.907 181.265 130.963 179.388C132.048 177.481 133.515 176.029 135.363 175.032C137.211 174.005 139.279 173.492 141.567 173.492C143.855 173.492 145.923 174.005 147.771 175.032C149.619 176.029 151.071 177.467 152.127 179.344C153.212 181.221 153.755 183.407 153.755 185.9C153.755 188.393 153.197 190.593 152.083 192.5C150.997 194.377 149.516 195.829 147.639 196.856C145.761 197.883 143.679 198.396 141.391 198.396ZM141.391 194.876C142.828 194.876 144.177 194.539 145.439 193.864C146.7 193.189 147.712 192.177 148.475 190.828C149.267 189.479 149.663 187.836 149.663 185.9C149.663 183.964 149.281 182.321 148.519 180.972C147.756 179.623 146.759 178.625 145.527 177.98C144.295 177.305 142.96 176.968 141.523 176.968C140.056 176.968 138.707 177.305 137.475 177.98C136.272 178.625 135.304 179.623 134.571 180.972C133.837 182.321 133.471 183.964 133.471 185.9C133.471 187.865 133.823 189.523 134.527 190.872C135.26 192.221 136.228 193.233 137.431 193.908C138.633 194.553 139.953 194.876 141.391 194.876ZM186.415 173.448C188.293 173.448 189.965 173.844 191.431 174.636C192.898 175.399 194.057 176.557 194.907 178.112C195.758 179.667 196.183 181.559 196.183 183.788V198H192.223V184.36C192.223 181.955 191.622 180.121 190.419 178.86C189.246 177.569 187.647 176.924 185.623 176.924C183.541 176.924 181.883 177.599 180.651 178.948C179.419 180.268 178.803 182.189 178.803 184.712V198H174.843V184.36C174.843 181.955 174.242 180.121 173.039 178.86C171.866 177.569 170.267 176.924 168.243 176.924C166.161 176.924 164.503 177.599 163.271 178.948C162.039 180.268 161.423 182.189 161.423 184.712V198H157.419V173.888H161.423V177.364C162.215 176.103 163.271 175.135 164.591 174.46C165.941 173.785 167.422 173.448 169.035 173.448C171.059 173.448 172.849 173.903 174.403 174.812C175.958 175.721 177.117 177.056 177.879 178.816C178.554 177.115 179.669 175.795 181.223 174.856C182.778 173.917 184.509 173.448 186.415 173.448ZM223.151 185.02C223.151 185.783 223.107 186.589 223.019 187.44H203.747C203.894 189.816 204.701 191.679 206.167 193.028C207.663 194.348 209.467 195.008 211.579 195.008C213.31 195.008 214.747 194.612 215.891 193.82C217.065 192.999 217.886 191.913 218.355 190.564H222.667C222.022 192.881 220.731 194.773 218.795 196.24C216.859 197.677 214.454 198.396 211.579 198.396C209.291 198.396 207.238 197.883 205.419 196.856C203.63 195.829 202.222 194.377 201.195 192.5C200.169 190.593 199.655 188.393 199.655 185.9C199.655 183.407 200.154 181.221 201.151 179.344C202.149 177.467 203.542 176.029 205.331 175.032C207.15 174.005 209.233 173.492 211.579 173.492C213.867 173.492 215.891 173.991 217.651 174.988C219.411 175.985 220.761 177.364 221.699 179.124C222.667 180.855 223.151 182.82 223.151 185.02ZM219.015 184.184C219.015 182.659 218.678 181.353 218.003 180.268C217.329 179.153 216.405 178.317 215.231 177.76C214.087 177.173 212.811 176.88 211.403 176.88C209.379 176.88 207.649 177.525 206.211 178.816C204.803 180.107 203.997 181.896 203.791 184.184H219.015ZM230.84 177.804C231.544 176.425 232.542 175.355 233.832 174.592C235.152 173.829 236.751 173.448 238.628 173.448V177.584H237.572C233.084 177.584 230.84 180.019 230.84 184.888V198H226.836V173.888H230.84V177.804ZM242.266 167.332H246.71L242.486 177.32H239.67L242.266 167.332ZM258.212 198.396C256.364 198.396 254.706 198.088 253.24 197.472C251.773 196.827 250.614 195.947 249.764 194.832C248.913 193.688 248.444 192.383 248.356 190.916H252.492C252.609 192.119 253.166 193.101 254.164 193.864C255.19 194.627 256.525 195.008 258.168 195.008C259.693 195.008 260.896 194.671 261.776 193.996C262.656 193.321 263.096 192.471 263.096 191.444C263.096 190.388 262.626 189.611 261.688 189.112C260.749 188.584 259.297 188.071 257.332 187.572C255.542 187.103 254.076 186.633 252.932 186.164C251.817 185.665 250.849 184.947 250.028 184.008C249.236 183.04 248.84 181.779 248.84 180.224C248.84 178.992 249.206 177.863 249.94 176.836C250.673 175.809 251.714 175.003 253.064 174.416C254.413 173.8 255.953 173.492 257.684 173.492C260.353 173.492 262.509 174.167 264.152 175.516C265.794 176.865 266.674 178.713 266.792 181.06H262.788C262.7 179.799 262.186 178.787 261.248 178.024C260.338 177.261 259.106 176.88 257.552 176.88C256.114 176.88 254.97 177.188 254.12 177.804C253.269 178.42 252.844 179.227 252.844 180.224C252.844 181.016 253.093 181.676 253.592 182.204C254.12 182.703 254.765 183.113 255.528 183.436C256.32 183.729 257.405 184.067 258.784 184.448C260.514 184.917 261.922 185.387 263.008 185.856C264.093 186.296 265.017 186.971 265.78 187.88C266.572 188.789 266.982 189.977 267.012 191.444C267.012 192.764 266.645 193.952 265.912 195.008C265.178 196.064 264.137 196.9 262.788 197.516C261.468 198.103 259.942 198.396 258.212 198.396ZM279.698 185.856C279.698 183.392 280.197 181.236 281.194 179.388C282.192 177.511 283.556 176.059 285.286 175.032C287.046 174.005 289.012 173.492 291.182 173.492C293.06 173.492 294.805 173.932 296.418 174.812C298.032 175.663 299.264 176.792 300.114 178.2V165.44H304.162V198H300.114V193.468C299.322 194.905 298.149 196.093 296.594 197.032C295.04 197.941 293.221 198.396 291.138 198.396C288.997 198.396 287.046 197.868 285.286 196.812C283.556 195.756 282.192 194.275 281.194 192.368C280.197 190.461 279.698 188.291 279.698 185.856ZM300.114 185.9C300.114 184.081 299.748 182.497 299.014 181.148C298.281 179.799 297.284 178.772 296.022 178.068C294.79 177.335 293.426 176.968 291.93 176.968C290.434 176.968 289.07 177.32 287.838 178.024C286.606 178.728 285.624 179.755 284.89 181.104C284.157 182.453 283.79 184.037 283.79 185.856C283.79 187.704 284.157 189.317 284.89 190.696C285.624 192.045 286.606 193.087 287.838 193.82C289.07 194.524 290.434 194.876 291.93 194.876C293.426 194.876 294.79 194.524 296.022 193.82C297.284 193.087 298.281 192.045 299.014 190.696C299.748 189.317 300.114 187.719 300.114 185.9ZM307.833 185.856C307.833 183.392 308.331 181.236 309.329 179.388C310.326 177.511 311.69 176.059 313.421 175.032C315.181 174.005 317.131 173.492 319.273 173.492C321.385 173.492 323.218 173.947 324.773 174.856C326.327 175.765 327.486 176.909 328.249 178.288V173.888H332.297V198H328.249V193.512C327.457 194.92 326.269 196.093 324.685 197.032C323.13 197.941 321.311 198.396 319.229 198.396C317.087 198.396 315.151 197.868 313.421 196.812C311.69 195.756 310.326 194.275 309.329 192.368C308.331 190.461 307.833 188.291 307.833 185.856ZM328.249 185.9C328.249 184.081 327.882 182.497 327.149 181.148C326.415 179.799 325.418 178.772 324.157 178.068C322.925 177.335 321.561 176.968 320.065 176.968C318.569 176.968 317.205 177.32 315.973 178.024C314.741 178.728 313.758 179.755 313.025 181.104C312.291 182.453 311.925 184.037 311.925 185.856C311.925 187.704 312.291 189.317 313.025 190.696C313.758 192.045 314.741 193.087 315.973 193.82C317.205 194.524 318.569 194.876 320.065 194.876C321.561 194.876 322.925 194.524 324.157 193.82C325.418 193.087 326.415 192.045 327.149 190.696C327.882 189.317 328.249 187.719 328.249 185.9ZM342.347 177.188V191.4C342.347 192.573 342.596 193.409 343.095 193.908C343.594 194.377 344.459 194.612 345.691 194.612H348.639V198H345.031C342.802 198 341.13 197.487 340.015 196.46C338.9 195.433 338.343 193.747 338.343 191.4V177.188H335.219V173.888H338.343V167.816H342.347V173.888H348.639V177.188H342.347ZM350.394 185.856C350.394 183.392 350.893 181.236 351.89 179.388C352.888 177.511 354.252 176.059 355.982 175.032C357.742 174.005 359.693 173.492 361.834 173.492C363.946 173.492 365.78 173.947 367.334 174.856C368.889 175.765 370.048 176.909 370.81 178.288V173.888H374.858V198H370.81V193.512C370.018 194.92 368.83 196.093 367.246 197.032C365.692 197.941 363.873 198.396 361.79 198.396C359.649 198.396 357.713 197.868 355.982 196.812C354.252 195.756 352.888 194.275 351.89 192.368C350.893 190.461 350.394 188.291 350.394 185.856ZM370.81 185.9C370.81 184.081 370.444 182.497 369.71 181.148C368.977 179.799 367.98 178.772 366.718 178.068C365.486 177.335 364.122 176.968 362.626 176.968C361.13 176.968 359.766 177.32 358.534 178.024C357.302 178.728 356.32 179.755 355.586 181.104C354.853 182.453 354.486 184.037 354.486 185.856C354.486 187.704 354.853 189.317 355.586 190.696C356.32 192.045 357.302 193.087 358.534 193.82C359.766 194.524 361.13 194.876 362.626 194.876C364.122 194.876 365.486 194.524 366.718 193.82C367.98 193.087 368.977 192.045 369.71 190.696C370.444 189.317 370.81 187.719 370.81 185.9ZM388.659 185.9C388.659 183.407 389.158 181.236 390.155 179.388C391.153 177.511 392.531 176.059 394.291 175.032C396.081 174.005 398.119 173.492 400.407 173.492C403.37 173.492 405.805 174.211 407.711 175.648C409.647 177.085 410.923 179.08 411.539 181.632H407.227C406.817 180.165 406.01 179.007 404.807 178.156C403.634 177.305 402.167 176.88 400.407 176.88C398.119 176.88 396.271 177.672 394.863 179.256C393.455 180.811 392.751 183.025 392.751 185.9C392.751 188.804 393.455 191.048 394.863 192.632C396.271 194.216 398.119 195.008 400.407 195.008C402.167 195.008 403.634 194.597 404.807 193.776C405.981 192.955 406.787 191.781 407.227 190.256H411.539C410.894 192.72 409.603 194.7 407.667 196.196C405.731 197.663 403.311 198.396 400.407 198.396C398.119 198.396 396.081 197.883 394.291 196.856C392.531 195.829 391.153 194.377 390.155 192.5C389.158 190.623 388.659 188.423 388.659 185.9ZM413.786 185.856C413.786 183.392 414.284 181.236 415.282 179.388C416.279 177.511 417.643 176.059 419.374 175.032C421.134 174.005 423.084 173.492 425.226 173.492C427.338 173.492 429.171 173.947 430.726 174.856C432.28 175.765 433.439 176.909 434.202 178.288V173.888H438.25V198H434.202V193.512C433.41 194.92 432.222 196.093 430.638 197.032C429.083 197.941 427.264 198.396 425.182 198.396C423.04 198.396 421.104 197.868 419.374 196.812C417.643 195.756 416.279 194.275 415.282 192.368C414.284 190.461 413.786 188.291 413.786 185.856ZM434.202 185.9C434.202 184.081 433.835 182.497 433.102 181.148C432.368 179.799 431.371 178.772 430.11 178.068C428.878 177.335 427.514 176.968 426.018 176.968C424.522 176.968 423.158 177.32 421.926 178.024C420.694 178.728 419.711 179.755 418.978 181.104C418.244 182.453 417.878 184.037 417.878 185.856C417.878 187.704 418.244 189.317 418.978 190.696C419.711 192.045 420.694 193.087 421.926 193.82C423.158 194.524 424.522 194.876 426.018 194.876C427.514 194.876 428.878 194.524 430.11 193.82C431.371 193.087 432.368 192.045 433.102 190.696C433.835 189.317 434.202 187.719 434.202 185.9ZM455.164 173.448C458.097 173.448 460.473 174.343 462.292 176.132C464.111 177.892 465.02 180.444 465.02 183.788V198H461.06V184.36C461.06 181.955 460.459 180.121 459.256 178.86C458.053 177.569 456.411 176.924 454.328 176.924C452.216 176.924 450.529 177.584 449.268 178.904C448.036 180.224 447.42 182.145 447.42 184.668V198H443.416V173.888H447.42V177.32C448.212 176.088 449.283 175.135 450.632 174.46C452.011 173.785 453.521 173.448 455.164 173.448ZM484.095 178.376C484.916 176.939 486.119 175.765 487.703 174.856C489.287 173.947 491.091 173.492 493.115 173.492C495.286 173.492 497.236 174.005 498.967 175.032C500.698 176.059 502.062 177.511 503.059 179.388C504.056 181.236 504.555 183.392 504.555 185.856C504.555 188.291 504.056 190.461 503.059 192.368C502.062 194.275 500.683 195.756 498.923 196.812C497.192 197.868 495.256 198.396 493.115 198.396C491.032 198.396 489.199 197.941 487.615 197.032C486.06 196.123 484.887 194.964 484.095 193.556V198H480.091V165.44H484.095V178.376ZM500.463 185.856C500.463 184.037 500.096 182.453 499.363 181.104C498.63 179.755 497.632 178.728 496.371 178.024C495.139 177.32 493.775 176.968 492.279 176.968C490.812 176.968 489.448 177.335 488.187 178.068C486.955 178.772 485.958 179.813 485.195 181.192C484.462 182.541 484.095 184.111 484.095 185.9C484.095 187.719 484.462 189.317 485.195 190.696C485.958 192.045 486.955 193.087 488.187 193.82C489.448 194.524 490.812 194.876 492.279 194.876C493.775 194.876 495.139 194.524 496.371 193.82C497.632 193.087 498.63 192.045 499.363 190.696C500.096 189.317 500.463 187.704 500.463 185.856ZM530.225 185.02C530.225 185.783 530.181 186.589 530.093 187.44H510.821C510.968 189.816 511.775 191.679 513.241 193.028C514.737 194.348 516.541 195.008 518.653 195.008C520.384 195.008 521.821 194.612 522.965 193.82C524.139 192.999 524.96 191.913 525.429 190.564H529.741C529.096 192.881 527.805 194.773 525.869 196.24C523.933 197.677 521.528 198.396 518.653 198.396C516.365 198.396 514.312 197.883 512.493 196.856C510.704 195.829 509.296 194.377 508.269 192.5C507.243 190.593 506.729 188.393 506.729 185.9C506.729 183.407 507.228 181.221 508.225 179.344C509.223 177.467 510.616 176.029 512.405 175.032C514.224 174.005 516.307 173.492 518.653 173.492C520.941 173.492 522.965 173.991 524.725 174.988C526.485 175.985 527.835 177.364 528.773 179.124C529.741 180.855 530.225 182.82 530.225 185.02ZM526.089 184.184C526.089 182.659 525.752 181.353 525.077 180.268C524.403 179.153 523.479 178.317 522.305 177.76C521.161 177.173 519.885 176.88 518.477 176.88C516.453 176.88 514.723 177.525 513.285 178.816C511.877 180.107 511.071 181.896 510.865 184.184H526.089ZM53.904 252.396C51.6453 252.396 49.592 251.883 47.744 250.856C45.9253 249.829 44.488 248.377 43.432 246.5C42.4053 244.593 41.892 242.393 41.892 239.9C41.892 237.436 42.42 235.265 43.476 233.388C44.5613 231.481 46.028 230.029 47.876 229.032C49.724 228.005 51.792 227.492 54.08 227.492C56.368 227.492 58.436 228.005 60.284 229.032C62.132 230.029 63.584 231.467 64.64 233.344C65.7253 235.221 66.268 237.407 66.268 239.9C66.268 242.393 65.7107 244.593 64.596 246.5C63.5107 248.377 62.0293 249.829 60.152 250.856C58.2747 251.883 56.192 252.396 53.904 252.396ZM53.904 248.876C55.3413 248.876 56.6907 248.539 57.952 247.864C59.2133 247.189 60.2253 246.177 60.988 244.828C61.78 243.479 62.176 241.836 62.176 239.9C62.176 237.964 61.7947 236.321 61.032 234.972C60.2693 233.623 59.272 232.625 58.04 231.98C56.808 231.305 55.4733 230.968 54.036 230.968C52.5693 230.968 51.22 231.305 49.988 231.98C48.7853 232.625 47.8173 233.623 47.084 234.972C46.3507 236.321 45.984 237.964 45.984 239.9C45.984 241.865 46.336 243.523 47.04 244.872C47.7733 246.221 48.7413 247.233 49.944 247.908C51.1467 248.553 52.4667 248.876 53.904 248.876ZM73.9365 232.376C74.7579 230.939 75.9605 229.765 77.5445 228.856C79.1285 227.947 80.9325 227.492 82.9565 227.492C85.1272 227.492 87.0779 228.005 88.8085 229.032C90.5392 230.059 91.9032 231.511 92.9005 233.388C93.8979 235.236 94.3965 237.392 94.3965 239.856C94.3965 242.291 93.8979 244.461 92.9005 246.368C91.9032 248.275 90.5245 249.756 88.7645 250.812C87.0339 251.868 85.0979 252.396 82.9565 252.396C80.8739 252.396 79.0405 251.941 77.4565 251.032C75.9019 250.123 74.7285 248.964 73.9365 247.556V252H69.9325V219.44H73.9365V232.376ZM90.3045 239.856C90.3045 238.037 89.9379 236.453 89.2045 235.104C88.4712 233.755 87.4739 232.728 86.2125 232.024C84.9805 231.32 83.6165 230.968 82.1205 230.968C80.6539 230.968 79.2899 231.335 78.0285 232.068C76.7965 232.772 75.7992 233.813 75.0365 235.192C74.3032 236.541 73.9365 238.111 73.9365 239.9C73.9365 241.719 74.3032 243.317 75.0365 244.696C75.7992 246.045 76.7965 247.087 78.0285 247.82C79.2899 248.524 80.6539 248.876 82.1205 248.876C83.6165 248.876 84.9805 248.524 86.2125 247.82C87.4739 247.087 88.4712 246.045 89.2045 244.696C89.9379 243.317 90.3045 241.704 90.3045 239.856ZM107.879 231.188H102.819V252H98.8149V231.188H95.6909V227.888H98.8149V226.172C98.8149 223.473 99.5042 221.508 100.883 220.276C102.291 219.015 104.535 218.384 107.615 218.384V221.728C105.855 221.728 104.608 222.08 103.875 222.784C103.171 223.459 102.819 224.588 102.819 226.172V227.888H107.879V231.188ZM132.331 227.888V252H128.327V248.436C127.565 249.668 126.494 250.636 125.115 251.34C123.766 252.015 122.27 252.352 120.627 252.352C118.75 252.352 117.063 251.971 115.567 251.208C114.071 250.416 112.883 249.243 112.003 247.688C111.153 246.133 110.727 244.241 110.727 242.012V227.888H114.687V241.484C114.687 243.86 115.289 245.693 116.491 246.984C117.694 248.245 119.337 248.876 121.419 248.876C123.561 248.876 125.247 248.216 126.479 246.896C127.711 245.576 128.327 243.655 128.327 241.132V227.888H132.331ZM146.028 252.396C144.18 252.396 142.523 252.088 141.056 251.472C139.589 250.827 138.431 249.947 137.58 248.832C136.729 247.688 136.26 246.383 136.172 244.916H140.308C140.425 246.119 140.983 247.101 141.98 247.864C143.007 248.627 144.341 249.008 145.984 249.008C147.509 249.008 148.712 248.671 149.592 247.996C150.472 247.321 150.912 246.471 150.912 245.444C150.912 244.388 150.443 243.611 149.504 243.112C148.565 242.584 147.113 242.071 145.148 241.572C143.359 241.103 141.892 240.633 140.748 240.164C139.633 239.665 138.665 238.947 137.844 238.008C137.052 237.04 136.656 235.779 136.656 234.224C136.656 232.992 137.023 231.863 137.756 230.836C138.489 229.809 139.531 229.003 140.88 228.416C142.229 227.8 143.769 227.492 145.5 227.492C148.169 227.492 150.325 228.167 151.968 229.516C153.611 230.865 154.491 232.713 154.608 235.06H150.604C150.516 233.799 150.003 232.787 149.064 232.024C148.155 231.261 146.923 230.88 145.368 230.88C143.931 230.88 142.787 231.188 141.936 231.804C141.085 232.42 140.66 233.227 140.66 234.224C140.66 235.016 140.909 235.676 141.408 236.204C141.936 236.703 142.581 237.113 143.344 237.436C144.136 237.729 145.221 238.067 146.6 238.448C148.331 238.917 149.739 239.387 150.824 239.856C151.909 240.296 152.833 240.971 153.596 241.88C154.388 242.789 154.799 243.977 154.828 245.444C154.828 246.764 154.461 247.952 153.728 249.008C152.995 250.064 151.953 250.9 150.604 251.516C149.284 252.103 147.759 252.396 146.028 252.396ZM157.384 239.9C157.384 237.407 157.883 235.236 158.88 233.388C159.878 231.511 161.256 230.059 163.016 229.032C164.806 228.005 166.844 227.492 169.132 227.492C172.095 227.492 174.53 228.211 176.436 229.648C178.372 231.085 179.648 233.08 180.264 235.632H175.952C175.542 234.165 174.735 233.007 173.532 232.156C172.359 231.305 170.892 230.88 169.132 230.88C166.844 230.88 164.996 231.672 163.588 233.256C162.18 234.811 161.476 237.025 161.476 239.9C161.476 242.804 162.18 245.048 163.588 246.632C164.996 248.216 166.844 249.008 169.132 249.008C170.892 249.008 172.359 248.597 173.532 247.776C174.706 246.955 175.512 245.781 175.952 244.256H180.264C179.619 246.72 178.328 248.7 176.392 250.196C174.456 251.663 172.036 252.396 169.132 252.396C166.844 252.396 164.806 251.883 163.016 250.856C161.256 249.829 159.878 248.377 158.88 246.5C157.883 244.623 157.384 242.423 157.384 239.9ZM182.511 239.856C182.511 237.392 183.009 235.236 184.007 233.388C185.004 231.511 186.368 230.059 188.099 229.032C189.859 228.005 191.809 227.492 193.951 227.492C196.063 227.492 197.896 227.947 199.451 228.856C201.005 229.765 202.164 230.909 202.927 232.288V227.888H206.975V252H202.927V247.512C202.135 248.92 200.947 250.093 199.363 251.032C197.808 251.941 195.989 252.396 193.907 252.396C191.765 252.396 189.829 251.868 188.099 250.812C186.368 249.756 185.004 248.275 184.007 246.368C183.009 244.461 182.511 242.291 182.511 239.856ZM202.927 239.9C202.927 238.081 202.56 236.497 201.827 235.148C201.093 233.799 200.096 232.772 198.835 232.068C197.603 231.335 196.239 230.968 194.743 230.968C193.247 230.968 191.883 231.32 190.651 232.024C189.419 232.728 188.436 233.755 187.703 235.104C186.969 236.453 186.603 238.037 186.603 239.856C186.603 241.704 186.969 243.317 187.703 244.696C188.436 246.045 189.419 247.087 190.651 247.82C191.883 248.524 193.247 248.876 194.743 248.876C196.239 248.876 197.603 248.524 198.835 247.82C200.096 247.087 201.093 246.045 201.827 244.696C202.56 243.317 202.927 241.719 202.927 239.9ZM217.025 231.188V245.4C217.025 246.573 217.274 247.409 217.773 247.908C218.272 248.377 219.137 248.612 220.369 248.612H223.317V252H219.709C217.48 252 215.808 251.487 214.693 250.46C213.578 249.433 213.021 247.747 213.021 245.4V231.188H209.897V227.888H213.021V221.816H217.025V227.888H223.317V231.188H217.025ZM248.568 239.02C248.568 239.783 248.524 240.589 248.436 241.44H229.164C229.311 243.816 230.118 245.679 231.584 247.028C233.08 248.348 234.884 249.008 236.996 249.008C238.727 249.008 240.164 248.612 241.308 247.82C242.482 246.999 243.303 245.913 243.772 244.564H248.084C247.439 246.881 246.148 248.773 244.212 250.24C242.276 251.677 239.871 252.396 236.996 252.396C234.708 252.396 232.655 251.883 230.836 250.856C229.047 249.829 227.639 248.377 226.612 246.5C225.586 244.593 225.072 242.393 225.072 239.9C225.072 237.407 225.571 235.221 226.568 233.344C227.566 231.467 228.959 230.029 230.748 229.032C232.567 228.005 234.65 227.492 236.996 227.492C239.284 227.492 241.308 227.991 243.068 228.988C244.828 229.985 246.178 231.364 247.116 233.124C248.084 234.855 248.568 236.82 248.568 239.02ZM244.432 238.184C244.432 236.659 244.095 235.353 243.42 234.268C242.746 233.153 241.822 232.317 240.648 231.76C239.504 231.173 238.228 230.88 236.82 230.88C234.796 230.88 233.066 231.525 231.628 232.816C230.22 234.107 229.414 235.896 229.208 238.184H244.432ZM250.758 239.856C250.758 237.392 251.256 235.236 252.254 233.388C253.251 231.511 254.615 230.059 256.346 229.032C258.106 228.005 260.071 227.492 262.242 227.492C264.119 227.492 265.864 227.932 267.478 228.812C269.091 229.663 270.323 230.792 271.174 232.2V219.44H275.222V252H271.174V247.468C270.382 248.905 269.208 250.093 267.654 251.032C266.099 251.941 264.28 252.396 262.198 252.396C260.056 252.396 258.106 251.868 256.346 250.812C254.615 249.756 253.251 248.275 252.254 246.368C251.256 244.461 250.758 242.291 250.758 239.856ZM271.174 239.9C271.174 238.081 270.807 236.497 270.074 235.148C269.34 233.799 268.343 232.772 267.082 232.068C265.85 231.335 264.486 230.968 262.99 230.968C261.494 230.968 260.13 231.32 258.898 232.024C257.666 232.728 256.683 233.755 255.95 235.104C255.216 236.453 254.85 238.037 254.85 239.856C254.85 241.704 255.216 243.317 255.95 244.696C256.683 246.045 257.666 247.087 258.898 247.82C260.13 248.524 261.494 248.876 262.99 248.876C264.486 248.876 265.85 248.524 267.082 247.82C268.343 247.087 269.34 246.045 270.074 244.696C270.807 243.317 271.174 241.719 271.174 239.9ZM300.33 231.188H295.27V252H291.266V231.188H288.142V227.888H291.266V226.172C291.266 223.473 291.956 221.508 293.334 220.276C294.742 219.015 296.986 218.384 300.066 218.384V221.728C298.306 221.728 297.06 222.08 296.326 222.784C295.622 223.459 295.27 224.588 295.27 226.172V227.888H300.33V231.188ZM313.915 252.396C311.656 252.396 309.603 251.883 307.755 250.856C305.936 249.829 304.499 248.377 303.443 246.5C302.416 244.593 301.903 242.393 301.903 239.9C301.903 237.436 302.431 235.265 303.487 233.388C304.572 231.481 306.039 230.029 307.887 229.032C309.735 228.005 311.803 227.492 314.091 227.492C316.379 227.492 318.447 228.005 320.295 229.032C322.143 230.029 323.595 231.467 324.651 233.344C325.736 235.221 326.279 237.407 326.279 239.9C326.279 242.393 325.722 244.593 324.607 246.5C323.522 248.377 322.04 249.829 320.163 250.856C318.286 251.883 316.203 252.396 313.915 252.396ZM313.915 248.876C315.352 248.876 316.702 248.539 317.963 247.864C319.224 247.189 320.236 246.177 320.999 244.828C321.791 243.479 322.187 241.836 322.187 239.9C322.187 237.964 321.806 236.321 321.043 234.972C320.28 233.623 319.283 232.625 318.051 231.98C316.819 231.305 315.484 230.968 314.047 230.968C312.58 230.968 311.231 231.305 309.999 231.98C308.796 232.625 307.828 233.623 307.095 234.972C306.362 236.321 305.995 237.964 305.995 239.9C305.995 241.865 306.347 243.523 307.051 244.872C307.784 246.221 308.752 247.233 309.955 247.908C311.158 248.553 312.478 248.876 313.915 248.876ZM333.947 231.804C334.651 230.425 335.649 229.355 336.939 228.592C338.259 227.829 339.858 227.448 341.735 227.448V231.584H340.679C336.191 231.584 333.947 234.019 333.947 238.888V252H329.943V227.888H333.947V231.804ZM363.424 252.396C361.576 252.396 359.919 252.088 358.452 251.472C356.985 250.827 355.827 249.947 354.976 248.832C354.125 247.688 353.656 246.383 353.568 244.916H357.704C357.821 246.119 358.379 247.101 359.376 247.864C360.403 248.627 361.737 249.008 363.38 249.008C364.905 249.008 366.108 248.671 366.988 247.996C367.868 247.321 368.308 246.471 368.308 245.444C368.308 244.388 367.839 243.611 366.9 243.112C365.961 242.584 364.509 242.071 362.544 241.572C360.755 241.103 359.288 240.633 358.144 240.164C357.029 239.665 356.061 238.947 355.24 238.008C354.448 237.04 354.052 235.779 354.052 234.224C354.052 232.992 354.419 231.863 355.152 230.836C355.885 229.809 356.927 229.003 358.276 228.416C359.625 227.8 361.165 227.492 362.896 227.492C365.565 227.492 367.721 228.167 369.364 229.516C371.007 230.865 371.887 232.713 372.004 235.06H368C367.912 233.799 367.399 232.787 366.46 232.024C365.551 231.261 364.319 230.88 362.764 230.88C361.327 230.88 360.183 231.188 359.332 231.804C358.481 232.42 358.056 233.227 358.056 234.224C358.056 235.016 358.305 235.676 358.804 236.204C359.332 236.703 359.977 237.113 360.74 237.436C361.532 237.729 362.617 238.067 363.996 238.448C365.727 238.917 367.135 239.387 368.22 239.856C369.305 240.296 370.229 240.971 370.992 241.88C371.784 242.789 372.195 243.977 372.224 245.444C372.224 246.764 371.857 247.952 371.124 249.008C370.391 250.064 369.349 250.9 368 251.516C366.68 252.103 365.155 252.396 363.424 252.396ZM398.276 239.02C398.276 239.783 398.232 240.589 398.144 241.44H378.872C379.019 243.816 379.826 245.679 381.292 247.028C382.788 248.348 384.592 249.008 386.704 249.008C388.435 249.008 389.872 248.612 391.016 247.82C392.19 246.999 393.011 245.913 393.48 244.564H397.792C397.147 246.881 395.856 248.773 393.92 250.24C391.984 251.677 389.579 252.396 386.704 252.396C384.416 252.396 382.363 251.883 380.544 250.856C378.755 249.829 377.347 248.377 376.32 246.5C375.294 244.593 374.78 242.393 374.78 239.9C374.78 237.407 375.279 235.221 376.276 233.344C377.274 231.467 378.667 230.029 380.456 229.032C382.275 228.005 384.358 227.492 386.704 227.492C388.992 227.492 391.016 227.991 392.776 228.988C394.536 229.985 395.886 231.364 396.824 233.124C397.792 234.855 398.276 236.82 398.276 239.02ZM394.14 238.184C394.14 236.659 393.803 235.353 393.128 234.268C392.454 233.153 391.53 232.317 390.356 231.76C389.212 231.173 387.936 230.88 386.528 230.88C384.504 230.88 382.774 231.525 381.336 232.816C379.928 234.107 379.122 235.896 378.916 238.184H394.14ZM400.465 239.9C400.465 237.407 400.964 235.236 401.961 233.388C402.959 231.511 404.337 230.059 406.097 229.032C407.887 228.005 409.925 227.492 412.213 227.492C415.176 227.492 417.611 228.211 419.517 229.648C421.453 231.085 422.729 233.08 423.345 235.632H419.033C418.623 234.165 417.816 233.007 416.613 232.156C415.44 231.305 413.973 230.88 412.213 230.88C409.925 230.88 408.077 231.672 406.669 233.256C405.261 234.811 404.557 237.025 404.557 239.9C404.557 242.804 405.261 245.048 406.669 246.632C408.077 248.216 409.925 249.008 412.213 249.008C413.973 249.008 415.44 248.597 416.613 247.776C417.787 246.955 418.593 245.781 419.033 244.256H423.345C422.7 246.72 421.409 248.7 419.473 250.196C417.537 251.663 415.117 252.396 412.213 252.396C409.925 252.396 407.887 251.883 406.097 250.856C404.337 249.829 402.959 248.377 401.961 246.5C400.964 244.623 400.465 242.423 400.465 239.9ZM448.472 227.888V252H444.468V248.436C443.705 249.668 442.635 250.636 441.256 251.34C439.907 252.015 438.411 252.352 436.768 252.352C434.891 252.352 433.204 251.971 431.708 251.208C430.212 250.416 429.024 249.243 428.144 247.688C427.293 246.133 426.868 244.241 426.868 242.012V227.888H430.828V241.484C430.828 243.86 431.429 245.693 432.632 246.984C433.835 248.245 435.477 248.876 437.56 248.876C439.701 248.876 441.388 248.216 442.62 246.896C443.852 245.576 444.468 243.655 444.468 241.132V227.888H448.472ZM457.637 231.804C458.341 230.425 459.338 229.355 460.629 228.592C461.949 227.829 463.547 227.448 465.425 227.448V231.584H464.369C459.881 231.584 457.637 234.019 457.637 238.888V252H453.633V227.888H457.637V231.804ZM470.515 223.972C469.752 223.972 469.107 223.708 468.579 223.18C468.051 222.652 467.787 222.007 467.787 221.244C467.787 220.481 468.051 219.836 468.579 219.308C469.107 218.78 469.752 218.516 470.515 218.516C471.248 218.516 471.864 218.78 472.363 219.308C472.891 219.836 473.155 220.481 473.155 221.244C473.155 222.007 472.891 222.652 472.363 223.18C471.864 223.708 471.248 223.972 470.515 223.972ZM472.451 227.888V252H468.447V227.888H472.451ZM482.559 231.188V245.4C482.559 246.573 482.808 247.409 483.307 247.908C483.805 248.377 484.671 248.612 485.903 248.612H488.851V252H485.243C483.013 252 481.341 251.487 480.227 250.46C479.112 249.433 478.555 247.747 478.555 245.4V231.188H475.431V227.888H478.555V221.816H482.559V227.888H488.851V231.188H482.559ZM512.87 227.888L498.35 263.352H494.214L498.966 251.736L489.242 227.888H493.686L501.254 247.424L508.734 227.888H512.87ZM47.392 285.804C48.096 284.425 49.0933 283.355 50.384 282.592C51.704 281.829 53.3027 281.448 55.18 281.448V285.584H54.124C49.636 285.584 47.392 288.019 47.392 292.888V306H43.388V281.888H47.392V285.804ZM80.2021 293.02C80.2021 293.783 80.1581 294.589 80.0701 295.44H60.7981C60.9447 297.816 61.7514 299.679 63.2181 301.028C64.7141 302.348 66.5181 303.008 68.6301 303.008C70.3607 303.008 71.7981 302.612 72.9421 301.82C74.1154 300.999 74.9367 299.913 75.4061 298.564H79.7181C79.0727 300.881 77.7821 302.773 75.8461 304.24C73.9101 305.677 71.5047 306.396 68.6301 306.396C66.3421 306.396 64.2887 305.883 62.4701 304.856C60.6807 303.829 59.2727 302.377 58.2461 300.5C57.2194 298.593 56.7061 296.393 56.7061 293.9C56.7061 291.407 57.2047 289.221 58.2021 287.344C59.1994 285.467 60.5927 284.029 62.3821 283.032C64.2007 282.005 66.2834 281.492 68.6301 281.492C70.9181 281.492 72.9421 281.991 74.7021 282.988C76.4621 283.985 77.8114 285.364 78.7501 287.124C79.7181 288.855 80.2021 290.82 80.2021 293.02ZM76.0661 292.184C76.0661 290.659 75.7287 289.353 75.0541 288.268C74.3794 287.153 73.4554 286.317 72.2821 285.76C71.1381 285.173 69.8621 284.88 68.4541 284.88C66.4301 284.88 64.6994 285.525 63.2621 286.816C61.8541 288.107 61.0474 289.896 60.8421 292.184H76.0661ZM82.3912 293.856C82.3912 291.392 82.8899 289.236 83.8872 287.388C84.8846 285.511 86.2486 284.059 87.9792 283.032C89.7392 282.005 91.6899 281.492 93.8312 281.492C95.9432 281.492 97.7766 281.947 99.3312 282.856C100.886 283.765 102.045 284.909 102.807 286.288V281.888H106.855V306H102.807V301.512C102.015 302.92 100.827 304.093 99.2432 305.032C97.6886 305.941 95.8699 306.396 93.7872 306.396C91.6459 306.396 89.7099 305.868 87.9792 304.812C86.2486 303.756 84.8846 302.275 83.8872 300.368C82.8899 298.461 82.3912 296.291 82.3912 293.856ZM102.807 293.9C102.807 292.081 102.441 290.497 101.707 289.148C100.974 287.799 99.9766 286.772 98.7152 286.068C97.4832 285.335 96.1192 284.968 94.6232 284.968C93.1272 284.968 91.7632 285.32 90.5312 286.024C89.2992 286.728 88.3166 287.755 87.5832 289.104C86.8499 290.453 86.4832 292.037 86.4832 293.856C86.4832 295.704 86.8499 297.317 87.5832 298.696C88.3166 300.045 89.2992 301.087 90.5312 301.82C91.7632 302.524 93.1272 302.876 94.6232 302.876C96.1192 302.876 97.4832 302.524 98.7152 301.82C99.9766 301.087 100.974 300.045 101.707 298.696C102.441 297.317 102.807 295.719 102.807 293.9ZM120.558 306.396C118.71 306.396 117.052 306.088 115.586 305.472C114.119 304.827 112.96 303.947 112.11 302.832C111.259 301.688 110.79 300.383 110.702 298.916H114.838C114.955 300.119 115.512 301.101 116.51 301.864C117.536 302.627 118.871 303.008 120.514 303.008C122.039 303.008 123.242 302.671 124.122 301.996C125.002 301.321 125.442 300.471 125.442 299.444C125.442 298.388 124.972 297.611 124.034 297.112C123.095 296.584 121.643 296.071 119.678 295.572C117.888 295.103 116.422 294.633 115.278 294.164C114.163 293.665 113.195 292.947 112.374 292.008C111.582 291.04 111.186 289.779 111.186 288.224C111.186 286.992 111.552 285.863 112.286 284.836C113.019 283.809 114.06 283.003 115.41 282.416C116.759 281.8 118.299 281.492 120.03 281.492C122.699 281.492 124.855 282.167 126.498 283.516C128.14 284.865 129.02 286.713 129.138 289.06H125.134C125.046 287.799 124.532 286.787 123.594 286.024C122.684 285.261 121.452 284.88 119.898 284.88C118.46 284.88 117.316 285.188 116.466 285.804C115.615 286.42 115.19 287.227 115.19 288.224C115.19 289.016 115.439 289.676 115.938 290.204C116.466 290.703 117.111 291.113 117.874 291.436C118.666 291.729 119.751 292.067 121.13 292.448C122.86 292.917 124.268 293.387 125.354 293.856C126.439 294.296 127.363 294.971 128.126 295.88C128.918 296.789 129.328 297.977 129.358 299.444C129.358 300.764 128.991 301.952 128.258 303.008C127.524 304.064 126.483 304.9 125.134 305.516C123.814 306.103 122.288 306.396 120.558 306.396ZM143.926 306.396C141.667 306.396 139.614 305.883 137.766 304.856C135.947 303.829 134.51 302.377 133.454 300.5C132.427 298.593 131.914 296.393 131.914 293.9C131.914 291.436 132.442 289.265 133.498 287.388C134.583 285.481 136.05 284.029 137.898 283.032C139.746 282.005 141.814 281.492 144.102 281.492C146.39 281.492 148.458 282.005 150.306 283.032C152.154 284.029 153.606 285.467 154.662 287.344C155.747 289.221 156.29 291.407 156.29 293.9C156.29 296.393 155.733 298.593 154.618 300.5C153.533 302.377 152.051 303.829 150.174 304.856C148.297 305.883 146.214 306.396 143.926 306.396ZM143.926 302.876C145.363 302.876 146.713 302.539 147.974 301.864C149.235 301.189 150.247 300.177 151.01 298.828C151.802 297.479 152.198 295.836 152.198 293.9C152.198 291.964 151.817 290.321 151.054 288.972C150.291 287.623 149.294 286.625 148.062 285.98C146.83 285.305 145.495 284.968 144.058 284.968C142.591 284.968 141.242 285.305 140.01 285.98C138.807 286.625 137.839 287.623 137.106 288.972C136.373 290.321 136.006 291.964 136.006 293.9C136.006 295.865 136.358 297.523 137.062 298.872C137.795 300.221 138.763 301.233 139.966 301.908C141.169 302.553 142.489 302.876 143.926 302.876ZM171.702 281.448C174.636 281.448 177.012 282.343 178.83 284.132C180.649 285.892 181.558 288.444 181.558 291.788V306H177.598V292.36C177.598 289.955 176.997 288.121 175.794 286.86C174.592 285.569 172.949 284.924 170.866 284.924C168.754 284.924 167.068 285.584 165.806 286.904C164.574 288.224 163.958 290.145 163.958 292.668V306H159.954V281.888H163.958V285.32C164.75 284.088 165.821 283.135 167.17 282.46C168.549 281.785 170.06 281.448 171.702 281.448ZM195.035 306.396C193.187 306.396 191.53 306.088 190.063 305.472C188.596 304.827 187.438 303.947 186.587 302.832C185.736 301.688 185.267 300.383 185.179 298.916H189.315C189.432 300.119 189.99 301.101 190.987 301.864C192.014 302.627 193.348 303.008 194.991 303.008C196.516 303.008 197.719 302.671 198.599 301.996C199.479 301.321 199.919 300.471 199.919 299.444C199.919 298.388 199.45 297.611 198.511 297.112C197.572 296.584 196.12 296.071 194.155 295.572C192.366 295.103 190.899 294.633 189.755 294.164C188.64 293.665 187.672 292.947 186.851 292.008C186.059 291.04 185.663 289.779 185.663 288.224C185.663 286.992 186.03 285.863 186.763 284.836C187.496 283.809 188.538 283.003 189.887 282.416C191.236 281.8 192.776 281.492 194.507 281.492C197.176 281.492 199.332 282.167 200.975 283.516C202.618 284.865 203.498 286.713 203.615 289.06H199.611C199.523 287.799 199.01 286.787 198.071 286.024C197.162 285.261 195.93 284.88 194.375 284.88C192.938 284.88 191.794 285.188 190.943 285.804C190.092 286.42 189.667 287.227 189.667 288.224C189.667 289.016 189.916 289.676 190.415 290.204C190.943 290.703 191.588 291.113 192.351 291.436C193.143 291.729 194.228 292.067 195.607 292.448C197.338 292.917 198.746 293.387 199.831 293.856C200.916 294.296 201.84 294.971 202.603 295.88C203.395 296.789 203.806 297.977 203.835 299.444C203.835 300.764 203.468 301.952 202.735 303.008C202.002 304.064 200.96 304.9 199.611 305.516C198.291 306.103 196.766 306.396 195.035 306.396ZM209.163 306.264C208.401 306.264 207.755 306 207.227 305.472C206.699 304.944 206.435 304.299 206.435 303.536C206.435 302.773 206.699 302.128 207.227 301.6C207.755 301.072 208.401 300.808 209.163 300.808C209.897 300.808 210.513 301.072 211.011 301.6C211.539 302.128 211.803 302.773 211.803 303.536C211.803 304.299 211.539 304.944 211.011 305.472C210.513 306 209.897 306.264 209.163 306.264Z" fill="#DFDFDF"/>
<path d="M51.924 144.396C50.076 144.396 48.4187 144.088 46.952 143.472C45.4853 142.827 44.3267 141.947 43.476 140.832C42.6253 139.688 42.156 138.383 42.068 136.916H46.204C46.3213 138.119 46.8787 139.101 47.876 139.864C48.9027 140.627 50.2373 141.008 51.88 141.008C53.4053 141.008 54.608 140.671 55.488 139.996C56.368 139.321 56.808 138.471 56.808 137.444C56.808 136.388 56.3387 135.611 55.4 135.112C54.4613 134.584 53.0093 134.071 51.044 133.572C49.2547 133.103 47.788 132.633 46.644 132.164C45.5293 131.665 44.5613 130.947 43.74 130.008C42.948 129.04 42.552 127.779 42.552 126.224C42.552 124.992 42.9187 123.863 43.652 122.836C44.3853 121.809 45.4267 121.003 46.776 120.416C48.1253 119.8 49.6653 119.492 51.396 119.492C54.0653 119.492 56.2213 120.167 57.864 121.516C59.5067 122.865 60.3867 124.713 60.504 127.06H56.5C56.412 125.799 55.8987 124.787 54.96 124.024C54.0507 123.261 52.8187 122.88 51.264 122.88C49.8267 122.88 48.6827 123.188 47.832 123.804C46.9813 124.42 46.556 125.227 46.556 126.224C46.556 127.016 46.8053 127.676 47.304 128.204C47.832 128.703 48.4773 129.113 49.24 129.436C50.032 129.729 51.1173 130.067 52.496 130.448C54.2267 130.917 55.6347 131.387 56.72 131.856C57.8053 132.296 58.7293 132.971 59.492 133.88C60.284 134.789 60.6947 135.977 60.724 137.444C60.724 138.764 60.3573 139.952 59.624 141.008C58.8907 142.064 57.8493 142.9 56.5 143.516C55.18 144.103 53.6547 144.396 51.924 144.396ZM69.6603 123.188V137.4C69.6603 138.573 69.9096 139.409 70.4083 139.908C70.9069 140.377 71.7723 140.612 73.0043 140.612H75.9523V144H72.3443C70.1149 144 68.4429 143.487 67.3283 142.46C66.2136 141.433 65.6563 139.747 65.6563 137.4V123.188H62.5323V119.888H65.6563V113.816H69.6603V119.888H75.9523V123.188H69.6603ZM83.2076 123.804C83.9116 122.425 84.909 121.355 86.1996 120.592C87.5196 119.829 89.1183 119.448 90.9956 119.448V123.584H89.9396C85.4516 123.584 83.2076 126.019 83.2076 130.888V144H79.2036V119.888H83.2076V123.804ZM96.0857 115.972C95.323 115.972 94.6777 115.708 94.1497 115.18C93.6217 114.652 93.3577 114.007 93.3577 113.244C93.3577 112.481 93.6217 111.836 94.1497 111.308C94.6777 110.78 95.323 110.516 96.0857 110.516C96.819 110.516 97.435 110.78 97.9337 111.308C98.4617 111.836 98.7257 112.481 98.7257 113.244C98.7257 114.007 98.4617 114.652 97.9337 115.18C97.435 115.708 96.819 115.972 96.0857 115.972ZM98.0217 119.888V144H94.0177V119.888H98.0217ZM101.75 131.9C101.75 129.407 102.248 127.236 103.246 125.388C104.243 123.511 105.622 122.059 107.382 121.032C109.171 120.005 111.21 119.492 113.498 119.492C116.46 119.492 118.895 120.211 120.802 121.648C122.738 123.085 124.014 125.08 124.63 127.632H120.318C119.907 126.165 119.1 125.007 117.898 124.156C116.724 123.305 115.258 122.88 113.498 122.88C111.21 122.88 109.362 123.672 107.954 125.256C106.546 126.811 105.842 129.025 105.842 131.9C105.842 134.804 106.546 137.048 107.954 138.632C109.362 140.216 111.21 141.008 113.498 141.008C115.258 141.008 116.724 140.597 117.898 139.776C119.071 138.955 119.878 137.781 120.318 136.256H124.63C123.984 138.72 122.694 140.7 120.758 142.196C118.822 143.663 116.402 144.396 113.498 144.396C111.21 144.396 109.171 143.883 107.382 142.856C105.622 141.829 104.243 140.377 103.246 138.5C102.248 136.623 101.75 134.423 101.75 131.9ZM133.256 123.188V137.4C133.256 138.573 133.506 139.409 134.004 139.908C134.503 140.377 135.368 140.612 136.6 140.612H139.548V144H135.94C133.711 144 132.039 143.487 130.924 142.46C129.81 141.433 129.252 139.747 129.252 137.4V123.188H126.128V119.888H129.252V113.816H133.256V119.888H139.548V123.188H133.256ZM163.304 122.308C163.304 124.86 162.424 126.987 160.664 128.688C158.933 130.36 156.278 131.196 152.7 131.196H146.804V144H142.8V113.332H152.7C156.161 113.332 158.786 114.168 160.576 115.84C162.394 117.512 163.304 119.668 163.304 122.308ZM152.7 127.896C154.929 127.896 156.572 127.412 157.628 126.444C158.684 125.476 159.212 124.097 159.212 122.308C159.212 118.524 157.041 116.632 152.7 116.632H146.804V127.896H152.7ZM170.684 123.804C171.388 122.425 172.386 121.355 173.676 120.592C174.996 119.829 176.595 119.448 178.472 119.448V123.584H177.416C172.928 123.584 170.684 126.019 170.684 130.888V144H166.68V119.888H170.684V123.804ZM183.562 115.972C182.8 115.972 182.154 115.708 181.626 115.18C181.098 114.652 180.834 114.007 180.834 113.244C180.834 112.481 181.098 111.836 181.626 111.308C182.154 110.78 182.8 110.516 183.562 110.516C184.296 110.516 184.912 110.78 185.41 111.308C185.938 111.836 186.202 112.481 186.202 113.244C186.202 114.007 185.938 114.652 185.41 115.18C184.912 115.708 184.296 115.972 183.562 115.972ZM185.498 119.888V144H181.494V119.888H185.498ZM199.698 140.304L207.178 119.888H211.446L201.986 144H197.322L187.862 119.888H192.174L199.698 140.304ZM212.29 131.856C212.29 129.392 212.789 127.236 213.786 125.388C214.784 123.511 216.148 122.059 217.878 121.032C219.638 120.005 221.589 119.492 223.73 119.492C225.842 119.492 227.676 119.947 229.23 120.856C230.785 121.765 231.944 122.909 232.706 124.288V119.888H236.754V144H232.706V139.512C231.914 140.92 230.726 142.093 229.142 143.032C227.588 143.941 225.769 144.396 223.686 144.396C221.545 144.396 219.609 143.868 217.878 142.812C216.148 141.756 214.784 140.275 213.786 138.368C212.789 136.461 212.29 134.291 212.29 131.856ZM232.706 131.9C232.706 130.081 232.34 128.497 231.606 127.148C230.873 125.799 229.876 124.772 228.614 124.068C227.382 123.335 226.018 122.968 224.522 122.968C223.026 122.968 221.662 123.32 220.43 124.024C219.198 124.728 218.216 125.755 217.482 127.104C216.749 128.453 216.382 130.037 216.382 131.856C216.382 133.704 216.749 135.317 217.482 136.696C218.216 138.045 219.198 139.087 220.43 139.82C221.662 140.524 223.026 140.876 224.522 140.876C226.018 140.876 227.382 140.524 228.614 139.82C229.876 139.087 230.873 138.045 231.606 136.696C232.34 135.317 232.706 133.719 232.706 131.9ZM240.425 131.9C240.425 129.407 240.923 127.236 241.921 125.388C242.918 123.511 244.297 122.059 246.057 121.032C247.846 120.005 249.885 119.492 252.173 119.492C255.135 119.492 257.57 120.211 259.477 121.648C261.413 123.085 262.689 125.08 263.305 127.632H258.993C258.582 126.165 257.775 125.007 256.573 124.156C255.399 123.305 253.933 122.88 252.173 122.88C249.885 122.88 248.037 123.672 246.629 125.256C245.221 126.811 244.517 129.025 244.517 131.9C244.517 134.804 245.221 137.048 246.629 138.632C248.037 140.216 249.885 141.008 252.173 141.008C253.933 141.008 255.399 140.597 256.573 139.776C257.746 138.955 258.553 137.781 258.993 136.256H263.305C262.659 138.72 261.369 140.7 259.433 142.196C257.497 143.663 255.077 144.396 252.173 144.396C249.885 144.396 247.846 143.883 246.057 142.856C244.297 141.829 242.918 140.377 241.921 138.5C240.923 136.623 240.425 134.423 240.425 131.9ZM287.815 119.888L273.295 155.352H269.159L273.911 143.736L264.187 119.888H268.631L276.199 139.424L283.679 119.888H287.815ZM294.376 138.456L289.448 150.292H286.764L289.976 138.456H294.376Z" fill="#EBFF5E"/>
</svg>
