<svg width="16" height="16" viewBox="0 0 16 16" fill="none" xmlns="http://www.w3.org/2000/svg">
<g clip-path="url(#clip0_463_1269)">
<path d="M15 3.001C13.25 3.001 10.455 1.593 8.6 0.201C8.245 -0.067 7.755 -0.067 7.4 0.201C5.545 1.593 2.75 3.001 1 3.001C0.448 3.001 0 3.448 0 4.001C0 9.585 2.701 13.818 7.606 15.92C7.732 15.974 7.866 16.001 8 16.001C8.134 16.001 8.268 15.974 8.394 15.92C13.299 13.818 16 9.585 16 4.001C16 3.448 15.552 3.001 15 3.001ZM8 13.905V8.001H2.616C2.298 7.049 2.095 6.02 2.027 4.908C3.955 4.583 6.236 3.446 8 2.231V8.001H13.384C12.506 10.635 10.694 12.644 8 13.905Z" fill="white"/>
</g>
<defs>
<clipPath id="clip0_463_1269">
<rect width="16" height="16" fill="white"/>
</clipPath>
</defs>
</svg>
