<?xml version="1.0" encoding="UTF-8"?>
<svg id="Layer_2" data-name="Layer 2" xmlns="http://www.w3.org/2000/svg" viewBox="0 0 786.89 285.97">
  <defs>
    <style>
      .cls-1 {
        fill: #dce0df;
      }

      .cls-2 {
        fill: #ca2031;
      }

      .cls-2, .cls-3, .cls-4, .cls-5 {
        fill-rule: evenodd;
      }

      .cls-3 {
        fill: #009b50;
      }

      .cls-4 {
        fill: #ffcd23;
      }

      .cls-5 {
        fill: #0078b7;
      }
    </style>
  </defs>
  <g id="Layer_1-2" data-name="Layer 1">
    <g>
      <g>
        <path class="cls-1" d="m16.36,251.84c4.44,12.36,15.4,18.73,28.58,18.73,9.99,0,20.51-5.26,20.51-16.58,0-11.99-11.85-14.14-25.02-16.51-16.81-3.04-35.24-6.59-35.24-31.54,0-20.8,18.66-31.39,37.39-31.39,17.32,0,32.65,7.11,39.39,23.99l-15.4,6.96c-4.59-9.55-13.25-15.33-24.21-15.33-8.81,0-17.62,3.7-17.62,14.29,0,11.7,10.96,13.77,24.14,16.14,17.03,3.04,36.57,6.44,36.57,31.76,0,21.99-20.51,33.61-40.5,33.61s-39.02-6.96-44.94-27.1l16.36-7.03Z"/>
        <path class="cls-1" d="m111.5,171.65c6.15,0,11.03,4.52,11.03,10.81s-4.74,10.74-10.96,10.74-11.33-4.59-11.33-10.81,5.11-10.74,11.25-10.74Zm-9.55,33.69h18.95v79.14h-18.95v-79.14Z"/>
        <path class="cls-1" d="m182.5,283.89c-4.07,1.18-8.29,1.92-13.03,1.92-15.1,0-24.06-7.85-24.06-23.62v-43.09h-10.66v-13.92h10.66v-16.36l18.95-8.22v24.58h17.47v13.92h-17.47v41.39c0,6.22,2.67,10.07,9.62,10.07,2.67,0,5.63-.59,8.51-1.55v14.88Z"/>
        <path class="cls-1" d="m267.65,267.23c-6.59,13.99-20.8,18.73-35.39,18.73-25.02,0-40.79-16.73-40.79-41.39,0-23.25,16.07-41.09,39.91-41.09,25.62,0,38.13,14.96,38.13,45.53h-58.71c0,13.4,7.77,23.17,22.21,23.17,8.59,0,15.7-3.48,19.84-11.55l14.81,6.59Zm-17.03-30.65c-.59-11.99-7.85-19.32-19.03-19.32-11.92,0-18.88,8.37-20.51,19.32h39.53Z"/>
        <path class="cls-1" d="m276.61,276.41l41.31-38.65c8.44-7.92,16.73-18.73,16.73-31.02,0-10.22-5.7-16.14-15.7-16.14-12.81,0-19.25,9.92-22.21,20.51l-16.14-6.96c4.74-19.4,18.81-29.61,38.57-29.61s36.28,10.66,36.28,31.54c0,16.29-9.7,29.84-21.1,39.76l-25.84,22.58h47.68v16.07h-79.59v-8.07Z"/>
        <path class="cls-1" d="m365.38,253.69l48.27-77.59h26.43v70.19h14.51v15.33h-14.51v22.88h-20.43v-22.88h-54.27v-7.92Zm54.64-7.4v-54.56l-32.58,54.56h32.58Z"/>
        <path class="cls-1" d="m489.77,243.84l-25.84-38.65h21.92l16.51,25.47,16.29-25.47h19.77l-25.69,37.31,28.43,41.98h-22.06l-18.36-28.5-18.95,28.5h-19.77l27.76-40.65Z"/>
        <path class="cls-1" d="m596.53,192.9h-52.49v-16.81h76.92v8.29l-39.98,100.1h-21.62l37.17-91.58Z"/>
      </g>
      <g>
        <path class="cls-4" d="m749.85,3.9c46.25,32.16,26.95,106.79-22.48,114.86h0c63.48.05,84.09-86.02,22.48-114.86"/>
        <path class="cls-5" d="m700.59,3.42c55.15-8.12,77.76,60,53.63,91.49,39.93-40.24,7.98-111.31-53.63-91.49"/>
        <path class="cls-3" d="m668.03,36.66c27.19-40.27,83.68-15.35,89.34,25.35,6.49-50.3-59.82-78.18-89.34-25.35"/>
        <path class="cls-2" d="m666.7,66.77c6.61-41.8,61.01-46.18,80.61-16.82-16.02-41.6-79.55-36.51-80.61,16.82"/>
        <g>
          <path class="cls-1" d="m0,44.51h22.12l18.43,48.37,17.98-48.37h21.71v73.92h-16.66v-51.91l-20.45,51.91h-7.57l-20.55-51.91v51.91H0V44.51Z"/>
          <path class="cls-1" d="m125.37,111.91c-3.84,5.71-9.54,7.67-15.96,7.67-10.5,0-18.38-5.25-18.38-16.06,0-13.73,12.82-17.42,24.49-17.42h9.69c0-7.27-.71-12.17-9.19-12.17-4.75,0-9.44,2.17-11.06,6.97l-11.46-5c3.53-9.74,14.49-12.82,24.24-12.82,13.08,0,22.27,5.6,22.27,20.1v35.24h-14.64v-6.51Zm-5.91-16.96c-5.35,0-13.78.4-13.78,7.67,0,4.8,3.58,6.51,7.93,6.51,5.86,0,11.61-3.08,11.61-9.64v-4.54h-5.76Z"/>
          <path class="cls-1" d="m152.93,64.35h15v8.58c3.48-6.66,10.86-9.85,18.28-9.85,12.62,0,18.03,9.14,18.03,20.9v34.44h-15v-32.26c0-6.72-3.03-10.86-10-10.86-7.42,0-11.31,4.75-11.31,11.92v31.2h-15v-54.08Z"/>
          <path class="cls-1" d="m248.01,111.91c-3.84,5.71-9.54,7.67-15.96,7.67-10.5,0-18.38-5.25-18.38-16.06,0-13.73,12.82-17.42,24.49-17.42h9.69c0-7.27-.71-12.17-9.19-12.17-4.75,0-9.44,2.17-11.06,6.97l-11.46-5c3.53-9.74,14.49-12.82,24.24-12.82,13.08,0,22.27,5.6,22.27,20.1v35.24h-14.64v-6.51Zm-5.91-16.96c-5.35,0-13.78.4-13.78,7.67,0,4.8,3.58,6.51,7.93,6.51,5.86,0,11.61-3.08,11.61-9.64v-4.54h-5.76Z"/>
          <path class="cls-1" d="m286.03,120.19c2.27,5.5,8.03,7.22,13.63,7.22,8.73,0,13.58-4.19,13.58-13.23v-8.18c-3.53,6.06-10.35,10.05-17.37,10.05-15.35,0-23.58-12.22-23.58-26.56s9.04-26.41,24.19-26.41c7.02,0,13.08,2.68,16.76,9.34v-8.08h14.9v49.83c0,17.62-12.62,24.19-28.48,24.19-10.15,0-21.36-2.68-25.4-13.03l11.76-5.15Zm27.62-30.8c0-8.43-4.09-14.9-13.13-14.9s-12.93,7.12-12.93,15.7c0,7.83,4.29,14.59,13.08,14.59s12.98-7.07,12.98-15.4Z"/>
          <path class="cls-1" d="m390.9,106.86c-4.19,9.75-14.84,12.72-24.08,12.72-17.87,0-28.73-11.06-28.73-28.38,0-16.21,11.51-28.12,27.92-28.12,10.5,0,19.94,4.85,23.98,14.74,2.27,5.55,2.27,11.26,2.27,16.91h-38.98c.4,8.33,4.59,14.19,13.43,14.19,5.86,0,10.3-1.51,13.13-6.97l11.06,4.9Zm-13.23-21.31c-.4-7.42-3.99-12.12-11.46-12.12s-11.76,5.15-12.72,12.12h24.19Z"/>
          <path class="cls-1" d="m404.02,44.51h46.86v9.19h-35.39v22.52h28.88v9.04h-28.88v23.98h37.16v9.19h-48.62V44.51Z"/>
          <path class="cls-1" d="m464.51,64.3h10.75v8.58c3.23-6.72,10.4-9.59,17.72-9.59,13.13,0,19.29,9.34,19.29,21.81v33.32h-10.75v-33.02c0-8.33-3.94-13.08-12.22-13.08-8.74,0-14.04,5.3-14.04,13.78v32.31h-10.75v-54.13Z"/>
          <path class="cls-1" d="m533.93,121.4c2.83,6.31,9.85,8.38,16.21,8.38,9.95,0,16.86-5.05,16.86-15.5v-7.98c-3.79,6.36-11.41,10.15-18.73,10.15-15.2,0-24.18-11.97-24.18-26.1s9.79-27.06,24.74-27.06c7.32,0,14.39,2.93,18.18,9.39v-8.38h10.65v50.29c0,16.46-12.37,23.68-27.77,23.68-10,0-19.84-3.03-24.44-13.13l8.48-3.74Zm33.38-32.01c0-9.95-5.5-17.62-16.01-17.62-11.06,0-16.26,8.48-16.26,18.63,0,9.14,6.01,17.57,15.7,17.57,10.7,0,16.56-8.33,16.56-18.58Z"/>
          <path class="cls-1" d="m597.25,42.23c3.58,0,6.67,2.78,6.67,6.51s-3.03,6.51-6.67,6.51-6.66-2.88-6.66-6.51,3.03-6.51,6.66-6.51Zm-5.2,22.22h10.65v53.98h-10.65v-53.98Z"/>
          <path class="cls-1" d="m619.11,64.3h10.75v8.58c3.23-6.72,10.4-9.59,17.72-9.59,13.13,0,19.29,9.34,19.29,21.81v33.32h-10.75v-33.02c0-8.33-3.94-13.08-12.22-13.08-8.74,0-14.04,5.3-14.04,13.78v32.31h-10.75v-54.13Z"/>
          <path class="cls-1" d="m728.72,106.31c-4.75,9.19-13.23,13.13-22.92,13.13-17.07,0-27.11-12.12-27.11-27.87s10.2-28.28,26.15-28.28c18.93,0,24.94,13.43,24.94,30.29h-40.14c0,9.95,5.3,17.52,15.65,17.52,6.61,0,11.66-3.13,14.54-8.58l8.89,3.79Zm-9.59-20.4c-.56-8.73-5.1-14.44-13.89-14.44s-14.09,6.31-15.3,14.44h29.18Z"/>
        </g>
      </g>
    </g>
  </g>
</svg>