<svg width="399" height="150" viewBox="0 0 399 150" fill="none" xmlns="http://www.w3.org/2000/svg">
<path d="M44.2762 53.4251C27.6572 49.7261 19.0859 43.3566 19.0859 34.3105C19.0859 25.0072 28.0453 17.8726 40.1215 17.8726C52.4563 17.8726 61.8037 25.6454 61.8037 35.8409V36.603H78.8138V35.8378C78.8138 17.1074 62.3242 2.96194 40.3801 2.96194C29.8624 2.96194 20.127 6.14977 13.1141 12.0081C5.97185 18.0027 2.07895 26.2836 2.07895 35.3328C2.07895 43.8709 5.45447 51.1326 12.0762 56.8639C18.048 61.9632 26.3575 65.7861 37.0046 68.0786C54.9233 72.0316 64.0088 78.6551 64.0088 87.8314C64.0088 97.7697 54.1441 105.289 41.03 105.289C27.5279 105.289 17.2688 96.8775 17.2688 85.7929V85.0277H0V85.7929C0 105.416 17.5275 120.196 40.6388 120.196C51.6771 120.196 61.933 116.881 69.334 110.766C76.8642 104.523 81.019 95.9884 81.019 86.428C81.019 69.9901 68.6841 58.9055 44.2762 53.4251V53.4251ZM139.709 30.6146C126.466 30.6146 114.648 36.476 106.988 46.7985V32.6531H90.8869V149.119H107.118V104.774C114.781 115.097 126.466 120.958 139.838 120.958C165.029 120.958 183.985 101.59 183.985 75.8515C183.856 50.1103 164.896 30.6115 139.709 30.6115V30.6146ZM166.975 79.1601C165.675 92.9245 154.511 104.009 140.488 105.412C131.4 106.305 122.961 103.755 116.727 98.1477C110.493 92.5403 106.988 84.6405 106.988 75.8484C106.988 58.9024 119.844 46.1603 136.983 46.1603C145.81 46.1603 153.732 49.4752 159.445 55.5906C165.155 61.706 167.884 70.1171 166.975 79.1632V79.1601ZM382.769 32.6531V46.7985C375.109 36.476 363.295 30.7416 349.919 30.7416C324.861 30.7416 305.905 49.7292 305.905 75.0863C305.905 100.316 324.861 119.428 349.919 119.428C363.295 119.428 375.109 113.697 382.769 103.501V105.67C382.769 123.251 371.605 134.592 354.203 134.592C342.518 134.592 332.65 129.496 328.108 121.085L327.846 120.704H311.097L311.489 121.85C314.473 130.261 319.927 137.269 327.199 142.111C334.6 146.953 343.947 149.5 354.203 149.5C367.45 149.5 378.614 145.423 386.665 137.523C394.716 129.747 399 118.793 399 105.924V32.65H382.769V32.6531ZM373.68 96.7474C366.8 103.247 356.932 105.921 346.673 104.139C334.338 102.101 324.732 92.2863 323.044 79.8014C321.615 69.7329 324.732 60.1756 331.483 53.549C337.067 48.1988 344.597 45.2681 352.907 45.2681C354.853 45.2681 356.67 45.3951 358.62 45.7793C370.955 47.6907 380.823 57.7561 382.381 70.2441C383.807 80.5635 380.693 90.2478 373.68 96.7474ZM288.119 0.796445C286.145 0.357242 284.091 0.406739 282.142 0.940482C280.192 1.47423 278.409 2.47547 276.951 3.85416C274.093 6.65784 272.926 10.7348 273.834 14.8149C274.743 19.0188 278.377 22.5877 282.664 23.4799C283.573 23.734 284.481 23.734 285.39 23.734C288.507 23.734 291.62 22.5877 293.829 20.2952C296.687 17.4884 297.854 13.4115 296.945 9.33451C296.037 5.25755 292.529 1.81568 288.115 0.796445H288.119ZM277.339 103.501H263.316C253.316 103.501 247.347 96.8744 247.347 85.7898C247.347 74.9592 252.669 61.9601 263.575 46.2904L263.708 46.0333V41.5722L217.223 35.0726C217.223 31.2528 215.147 27.5569 211.769 25.7724C207.614 23.4799 203.071 23.4799 199.308 25.6454C195.67 27.6839 193.462 31.6338 193.462 35.7139C193.453 38.0053 194.141 40.2472 195.436 42.1532C196.731 44.0592 198.576 45.5428 200.733 46.4144L186.32 118.793H202.421L215.797 49.9832L240.855 54.1872C234.104 66.037 230.728 77.1247 230.728 87.0631C230.728 105.412 242.022 117.516 260.329 118.663V118.793H293.441V32.9071H277.21V103.501H277.339V103.501Z" fill="#ffffff"/>
</svg>
