<svg width="20" height="20" viewBox="0 0 20 20" fill="none" xmlns="http://www.w3.org/2000/svg">
<path d="M15.875 0.375C15.375 -0.125 14.625 -0.125 14.125 0.375C13.625 0.875 13.625 1.625 14.125 2.125L15.125 3.125L14 4.25C12.5 3.125 10.75 2.5 8.75 2.5C3.875 2.5 0 6.375 0 11.25C0 16.125 3.875 20 8.75 20C13.625 20 17.5 16.125 17.5 11.25C17.5 9.25 16.875 7.5 15.75 6L16.875 4.875L17.875 5.875C18.125 6.125 18.375 6.25 18.75 6.25C19.125 6.25 19.375 6.125 19.625 5.875C20.125 5.375 20.125 4.625 19.625 4.125L15.875 0.375ZM8.75 17.5C5.25 17.5 2.5 14.75 2.5 11.25C2.5 7.75 5.25 5 8.75 5C12.25 5 15 7.75 15 11.25C15 14.75 12.25 17.5 8.75 17.5Z" fill="white"/>
<path d="M10 7.5H7.5V12.5H12.5V10H10V7.5Z" fill="white"/>
</svg>
