<svg width="16" height="16" viewBox="0 0 16 16" fill="none" xmlns="http://www.w3.org/2000/svg">
<g clip-path="url(#clip0_463_1277)">
<path d="M7 16.0002H1C0.448 16.0002 0 15.5532 0 15.0002V6.00025C0 5.73425 0.105 5.48025 0.293 5.29325L5.293 0.29325C5.684 -0.09775 6.316 -0.09775 6.707 0.29325L11.707 5.29325C12.098 5.68425 12.098 6.31625 11.707 6.70725C11.316 7.09825 10.684 7.09825 10.293 6.70725L6 2.41425L2 6.41425V14.0002H7C7.552 14.0002 8 14.4473 8 15.0002C8 15.5532 7.552 16.0002 7 16.0002Z" fill="white"/>
<path d="M15.361 9.63095C14.388 8.66995 12.764 8.82695 12 9.96395C11.235 8.82595 9.611 8.67095 8.639 9.63095C7.787 10.473 7.787 11.838 8.639 12.679L12 16L15.361 12.679C16.213 11.838 16.213 10.473 15.361 9.63095Z" fill="white"/>
</g>
<defs>
<clipPath id="clip0_463_1277">
<rect width="16" height="16" fill="white"/>
</clipPath>
</defs>
</svg>
