<svg width="23" height="23" viewBox="0 0 23 23" fill="none" xmlns="http://www.w3.org/2000/svg">
<path d="M22.9676 11.4715C22.9676 17.8067 17.8316 22.9428 11.496 22.9428C5.16029 22.9428 0.0244141 17.8067 0.0244141 11.4715C0.0244141 5.13595 5.16036 0 11.496 0C17.8317 0 22.9676 5.13595 22.9676 11.4715Z" fill="#645D74"/>
<path d="M3.69547 9.93962C2.84919 9.93962 2.16357 10.6253 2.16357 11.4715C2.16357 12.3173 2.84919 13.0029 3.69547 13.0029C4.54128 13.0029 5.22689 12.3173 5.22689 11.4715C5.22689 10.6253 4.54128 9.93962 3.69547 9.93962ZM14.6308 16.9006C13.8982 17.3237 13.647 18.2599 14.0702 18.992C14.4929 19.7246 15.429 19.9757 16.1616 19.5526C16.8941 19.13 17.1453 18.1938 16.7222 17.4612C16.2995 16.7291 15.3628 16.478 14.6308 16.9006ZM7.02224 11.4715C7.02224 9.95797 7.77402 8.6208 8.92436 7.81108L7.80464 5.93567C6.46464 6.83138 5.46762 8.20012 5.05328 9.80317C5.53675 10.1977 5.8462 10.7982 5.8462 11.4714C5.8462 12.1442 5.53675 12.7448 5.05328 13.1393C5.46708 14.7428 6.4641 16.1116 7.80464 17.0074L8.92436 15.1315C7.77402 14.3222 7.02224 12.9851 7.02224 11.4715ZM11.4958 6.99751C13.8329 6.99751 15.7503 8.78942 15.9516 11.0746L18.1339 11.0425C18.0266 9.35538 17.2895 7.84082 16.1571 6.72711C15.5747 6.94713 14.9021 6.91347 14.3207 6.57832C13.7382 6.24222 13.3731 5.67525 13.2732 5.05978C12.7072 4.90357 12.1115 4.81804 11.4956 4.81804C10.4369 4.81804 9.43589 5.06672 8.54712 5.50662L9.61132 7.41367C10.1838 7.14725 10.8225 6.99751 11.4958 6.99751ZM11.4958 15.9451C10.8225 15.9451 10.1838 15.7952 9.61139 15.5289L8.54719 17.4359C9.43596 17.8763 10.437 18.1251 11.4958 18.1251C12.1116 18.1251 12.7074 18.0395 13.2733 17.8828C13.3731 17.2673 13.7384 16.7009 14.3207 16.3642C14.9025 16.0285 15.5748 15.9954 16.1572 16.2155C17.2896 15.1017 18.0266 13.5872 18.134 11.9001L15.9511 11.8679C15.7503 14.1537 13.8329 15.9451 11.4958 15.9451ZM14.6302 6.04149C15.3628 6.46453 16.2991 6.21396 16.7217 5.4814C17.1448 4.74884 16.8942 3.81258 16.1616 3.38941C15.429 2.96678 14.4929 3.21789 14.0696 3.95045C13.647 4.6826 13.8982 5.61886 14.6302 6.04149Z" fill="#070114"/>
</svg>
