<svg width="20" height="20" viewBox="0 0 20 20" fill="none" xmlns="http://www.w3.org/2000/svg">
<path d="M17.7062 1.26688L10.2063 0.0168764C10.0697 -0.00562547 9.93033 -0.00562547 9.79375 0.0168764L2.29375 1.26688C2.0021 1.31567 1.7372 1.46627 1.5461 1.69193C1.355 1.91758 1.25009 2.20368 1.25 2.49938V11.2494C1.25 17.4994 10 19.9994 10 19.9994C10 19.9994 18.75 17.4994 18.75 11.2494V2.49938C18.7499 2.20368 18.645 1.91758 18.4539 1.69193C18.2628 1.46627 17.9979 1.31567 17.7062 1.26688ZM8.83125 14.3506L4.11625 9.63313L5.88375 7.86563L8.66625 10.6481L14.0413 4.19813L15.9613 5.80063L8.83125 14.3506Z" fill="white"/>
</svg>
