<!-- This file will be used as your app's favicon. Replace it with your own! -->
<svg
  xmlns="http://www.w3.org/2000/svg"
  fill-rule="evenodd"
  stroke-linejoin="round"
  stroke-miterlimit="2"
  clip-rule="evenodd"
  viewBox="0 0 4818 4818"
>
  <g fill-rule="nonzero">
    <path
      fill="url(#_Linear1)"
      d="M2495 4088s-297-92-296-448c1-734 1455-901 1454-2144-1-937-866-1243-1331-1392 0 0 296 91 296 447-2 735-1456 901-1455 2145 1 936 866 1243 1332 1392z"
    />
    <path
      fill="url(#_Linear2)"
      d="M2522 3988l-7-2-9-4c-12-4 24 11 17 7l-6-3c-24-11-48-24-70-39l-9-7c-16-12 12 10 6 5l-21-18c-15-13-29-27-42-42l-9-12c0 1 16 22 6 9l-4-6-19-28-18-32-7-15c-5-10 4 12 4 11l-4-11c-9-26-17-53-22-80l-4-20 1 7-1-11a778 778 0 011-115c2-20-2 14-2 10l4-24c6-31 15-63 26-93l5-10c5-13-12 26-5 9l11-22 23-43c17-28 36-55 56-83-4 6-17 22-6 9l9-11 16-20c11-14 23-26 36-39 51-55 107-105 164-153l93-75 49-38 24-19 12-8c8-7-14 10-12 8l8-5c73-57 147-113 219-171 138-112 272-231 383-370 127-156 227-331 282-526 66-229 73-478 25-711-45-221-152-424-302-591a1709 1709 0 00-476-361c-159-84-327-150-497-207L2349 5l-55 199 8 2 9 4c12 4-24-11-18-7l7 3c24 11 47 24 69 39l10 7c16 12-12-10-6-5l21 18c15 13 29 27 42 42l9 12c0-1-16-22-6-9l4 6 19 28 18 32 7 15-5-11 4 11c10 26 17 53 23 80l4 20-1-7 1 11a778 778 0 01-1 115c-2 20 2-14 2-10l-4 24c-7 31-15 63-27 93l-4 10 4-9-10 22-23 43c-17 28-37 55-56 82l6-8-9 11-16 20-36 39c-51 55-107 105-165 153l-92 75-49 37-24 20-12 8 12-8-8 5c-73 57-147 113-219 171a2506 2506 0 00-384 370 1486 1486 0 00-281 526c-66 229-74 478-26 711 46 221 153 424 303 591 133 149 300 267 476 361 159 84 327 150 497 207l101 33c51 16 115-19 127-72 12-56-18-109-73-127a5290 5290 0 01-334-119l-14-5c-4-2-23-10-6-3s0 0-4-2l-17-7-62-28a2236 2236 0 01-365-216c-12-9-7-5 3 3l-16-13-28-23a1610 1610 0 01-158-155l-23-29-11-13 7 9-7-9-44-62c-28-43-53-88-76-135l-16-36c-5-10 5 12 4 11l-4-9-8-20a1368 1368 0 01-65-245l-2-13-1-11-5-45a1459 1459 0 012-266l5-40-2 12 2-9 3-21a1226 1226 0 0181-286c6-16-10 23-1 2l6-15 15-31c40-84 90-162 146-236 11-15-8 9-4 4l10-12 22-28 44-51a2347 2347 0 01290-273l101-82 50-39 24-18c5-4-21 16-6 4l16-12c70-55 142-109 211-165 118-97 232-201 317-329a671 671 0 00109-466 552 552 0 00-314-432c-16-7-33-15-50-20-52-16-115 19-127 72-13 56 17 109 72 127a5290 5290 0 01334 119l14 5 7 3c-17-7 0 0 4 2l17 7 61 28a2236 2236 0 01366 216c12 9 7 5-3-3l15 13 29 23a1611 1611 0 01157 155 641 641 0 0135 42l44 62c28 43 53 88 75 135l17 36-4-11 3 9c3 7 5 14 9 20a1368 1368 0 0165 245l2 13 1 11 5 45a1458 1458 0 01-2 266l-5 40 1-12-1 9-3 21a1227 1227 0 01-81 286c-6 16 10-23 1-2l-7 14a1397 1397 0 01-160 267c-12 16 8-9 4-3l-10 12-23 28-43 51a2347 2347 0 01-290 273l-101 82-51 39-23 18 5-4-15 12c-71 55-142 109-211 165-118 97-232 201-317 329a671 671 0 00-110 466 552 552 0 00315 432c16 7 33 15 50 20 51 16 115-19 127-72 12-56-17-110-73-127z"
    />
    <g>
      <path
        fill="url(#_Linear3)"
        d="M4142 4764H674c-92 0-168-75-168-168 0-92 76-167 168-167h3469c92 0 167 75 167 167 0 93-75 168-168 168z"
      />
      <path
        fill="url(#_Linear4)"
        d="M4142 4713H675c-79-1-138-79-111-155 18-50 65-77 117-77h3381c51 0 109-9 152 24 87 68 35 206-72 208-66 1-66 104 0 103 144-3 257-148 208-289a224 224 0 00-211-149H681c-76 0-146 34-189 98a221 221 0 00123 332c48 14 105 8 155 8h3372c66 0 66-103 0-103z"
      />
    </g>
  </g>
  <defs>
    <linearGradient
      id="_Linear1"
      x1="0"
      x2="1"
      y1="0"
      y2="0"
      gradientTransform="translate(1163 104) scale(2489.32)"
      gradientUnits="userSpaceOnUse"
    >
      <stop offset="0" stop-color="rgb(219, 67, 36)"></stop>
      <stop offset="1" stop-color="rgb(250, 147, 78)"></stop>
    </linearGradient>
    <linearGradient
      id="_Linear2"
      x1="0"
      x2="1"
      y1="0"
      y2="0"
      gradientTransform="translate(1061) scale(2695.56)"
      gradientUnits="userSpaceOnUse"
    >
      <stop offset="0" stop-color="rgb(219, 67, 36)"></stop>
      <stop offset="1" stop-color="rgb(250, 147, 78)"></stop>
    </linearGradient>
    <linearGradient
      id="_Linear3"
      x1="0"
      x2="1"
      y1="0"
      y2="0"
      gradientTransform="translate(506 4429) scale(3804.02)"
      gradientUnits="userSpaceOnUse"
    >
      <stop offset="0" stop-color="rgb(219, 67, 36)"></stop>
      <stop offset="1" stop-color="rgb(250, 147, 78)"></stop>
    </linearGradient>
    <linearGradient
      id="_Linear4"
      x1="0"
      x2="1"
      y1="0"
      y2="0"
      gradientTransform="translate(456 4377) scale(3906.12)"
      gradientUnits="userSpaceOnUse"
    >
      <stop offset="0" stop-color="rgb(219, 67, 36)"></stop>
      <stop offset="1" stop-color="rgb(250, 147, 78)"></stop>
    </linearGradient>
  </defs>
</svg>