<svg width="194" height="26" viewBox="0 0 194 26" fill="none" xmlns="http://www.w3.org/2000/svg">
<rect x="0.5" y="0.5" width="193" height="25" rx="12.5" fill="black"/>
<path d="M15.502 18.098C14.5873 18.098 13.7473 17.8833 12.982 17.454C12.2167 17.0247 11.61 16.432 11.162 15.676C10.714 14.9107 10.49 14.0473 10.49 13.086C10.49 12.134 10.714 11.28 11.162 10.524C11.61 9.75867 12.2167 9.16133 12.982 8.732C13.7473 8.30267 14.5873 8.088 15.502 8.088C16.426 8.088 17.266 8.30267 18.022 8.732C18.7873 9.16133 19.3893 9.75867 19.828 10.524C20.276 11.28 20.5 12.134 20.5 13.086C20.5 14.0473 20.276 14.9107 19.828 15.676C19.3893 16.432 18.7873 17.0247 18.022 17.454C17.2567 17.8833 16.4167 18.098 15.502 18.098ZM15.502 16.348C16.09 16.348 16.608 16.2173 17.056 15.956C17.504 15.6853 17.854 15.3027 18.106 14.808C18.358 14.3133 18.484 13.7393 18.484 13.086C18.484 12.4327 18.358 11.8633 18.106 11.378C17.854 10.8833 17.504 10.5053 17.056 10.244C16.608 9.98267 16.09 9.852 15.502 9.852C14.914 9.852 14.3913 9.98267 13.934 10.244C13.486 10.5053 13.136 10.8833 12.884 11.378C12.632 11.8633 12.506 12.4327 12.506 13.086C12.506 13.7393 12.632 14.3133 12.884 14.808C13.136 15.3027 13.486 15.6853 13.934 15.956C14.3913 16.2173 14.914 16.348 15.502 16.348ZM21.4542 14.122C21.4542 13.3193 21.6175 12.6193 21.9442 12.022C22.2709 11.4153 22.7235 10.9487 23.3022 10.622C23.8809 10.286 24.5435 10.118 25.2902 10.118C26.2515 10.118 27.0449 10.3607 27.6702 10.846C28.3049 11.322 28.7295 11.994 28.9442 12.862H26.8302C26.7182 12.526 26.5269 12.2647 26.2562 12.078C25.9949 11.882 25.6682 11.784 25.2762 11.784C24.7162 11.784 24.2729 11.9893 23.9462 12.4C23.6195 12.8013 23.4562 13.3753 23.4562 14.122C23.4562 14.8593 23.6195 15.4333 23.9462 15.844C24.2729 16.2453 24.7162 16.446 25.2762 16.446C26.0695 16.446 26.5875 16.0913 26.8302 15.382H28.9442C28.7295 16.222 28.3049 16.8893 27.6702 17.384C27.0355 17.8787 26.2422 18.126 25.2902 18.126C24.5435 18.126 23.8809 17.9627 23.3022 17.636C22.7235 17.3 22.2709 16.8333 21.9442 16.236C21.6175 15.6293 21.4542 14.9247 21.4542 14.122ZM32.6621 11.854V15.606C32.6621 15.8673 32.7227 16.0587 32.8441 16.18C32.9747 16.292 33.1894 16.348 33.4881 16.348H34.3981V18H33.1661C31.5141 18 30.6881 17.1973 30.6881 15.592V11.854H29.7641V10.244H30.6881V8.326H32.6621V10.244H34.3981V11.854H32.6621ZM39.2518 18.126C38.5051 18.126 37.8331 17.9627 37.2358 17.636C36.6385 17.3 36.1671 16.8287 35.8218 16.222C35.4858 15.6153 35.3178 14.9153 35.3178 14.122C35.3178 13.3287 35.4905 12.6287 35.8358 12.022C36.1905 11.4153 36.6711 10.9487 37.2778 10.622C37.8845 10.286 38.5611 10.118 39.3078 10.118C40.0545 10.118 40.7311 10.286 41.3378 10.622C41.9445 10.9487 42.4205 11.4153 42.7658 12.022C43.1205 12.6287 43.2978 13.3287 43.2978 14.122C43.2978 14.9153 43.1158 15.6153 42.7518 16.222C42.3971 16.8287 41.9118 17.3 41.2958 17.636C40.6891 17.9627 40.0078 18.126 39.2518 18.126ZM39.2518 16.418C39.6065 16.418 39.9378 16.334 40.2458 16.166C40.5631 15.9887 40.8151 15.7273 41.0018 15.382C41.1885 15.0367 41.2818 14.6167 41.2818 14.122C41.2818 13.3847 41.0858 12.82 40.6938 12.428C40.3111 12.0267 39.8398 11.826 39.2798 11.826C38.7198 11.826 38.2485 12.0267 37.8658 12.428C37.4925 12.82 37.3058 13.3847 37.3058 14.122C37.3058 14.8593 37.4878 15.4287 37.8518 15.83C38.2251 16.222 38.6918 16.418 39.2518 16.418ZM46.6955 11.378C46.9475 11.0047 47.2929 10.7013 47.7315 10.468C48.1795 10.2347 48.6882 10.118 49.2575 10.118C49.9202 10.118 50.5175 10.2813 51.0495 10.608C51.5909 10.9347 52.0155 11.4013 52.3235 12.008C52.6409 12.6053 52.7995 13.3007 52.7995 14.094C52.7995 14.8873 52.6409 15.592 52.3235 16.208C52.0155 16.8147 51.5909 17.286 51.0495 17.622C50.5175 17.958 49.9202 18.126 49.2575 18.126C48.6789 18.126 48.1702 18.014 47.7315 17.79C47.3022 17.5567 46.9569 17.258 46.6955 16.894V18H44.7355V7.64H46.6955V11.378ZM50.7975 14.094C50.7975 13.6273 50.6995 13.226 50.5035 12.89C50.3169 12.5447 50.0649 12.2833 49.7475 12.106C49.4395 11.9287 49.1035 11.84 48.7395 11.84C48.3849 11.84 48.0489 11.9333 47.7315 12.12C47.4235 12.2973 47.1715 12.5587 46.9755 12.904C46.7889 13.2493 46.6955 13.6553 46.6955 14.122C46.6955 14.5887 46.7889 14.9947 46.9755 15.34C47.1715 15.6853 47.4235 15.9513 47.7315 16.138C48.0489 16.3153 48.3849 16.404 48.7395 16.404C49.1035 16.404 49.4395 16.3107 49.7475 16.124C50.0649 15.9373 50.3169 15.6713 50.5035 15.326C50.6995 14.9807 50.7975 14.57 50.7975 14.094ZM61.4338 13.954C61.4338 14.234 61.4151 14.486 61.3778 14.71H55.7078C55.7545 15.27 55.9505 15.7087 56.2958 16.026C56.6411 16.3433 57.0658 16.502 57.5698 16.502C58.2978 16.502 58.8158 16.1893 59.1238 15.564H61.2378C61.0138 16.3107 60.5845 16.9267 59.9498 17.412C59.3151 17.888 58.5358 18.126 57.6118 18.126C56.8651 18.126 56.1931 17.9627 55.5958 17.636C55.0078 17.3 54.5458 16.8287 54.2098 16.222C53.8831 15.6153 53.7198 14.9153 53.7198 14.122C53.7198 13.3193 53.8831 12.6147 54.2098 12.008C54.5365 11.4013 54.9938 10.9347 55.5818 10.608C56.1698 10.2813 56.8465 10.118 57.6118 10.118C58.3491 10.118 59.0071 10.2767 59.5858 10.594C60.1738 10.9113 60.6265 11.364 60.9438 11.952C61.2705 12.5307 61.4338 13.198 61.4338 13.954ZM59.4038 13.394C59.3945 12.89 59.2125 12.4887 58.8578 12.19C58.5031 11.882 58.0691 11.728 57.5558 11.728C57.0705 11.728 56.6598 11.8773 56.3238 12.176C55.9971 12.4653 55.7965 12.8713 55.7218 13.394H59.4038ZM64.8244 11.448C65.0764 11.0373 65.4031 10.7153 65.8044 10.482C66.2151 10.2487 66.6818 10.132 67.2044 10.132V12.19H66.6864C66.0704 12.19 65.6038 12.3347 65.2864 12.624C64.9784 12.9133 64.8244 13.4173 64.8244 14.136V18H62.8644V10.244H64.8244V11.448ZM71.3985 9.6V7.794H74.7725V18H72.7565V9.6H71.3985ZM82.0008 10.342C81.9075 9.95 81.7441 9.656 81.5108 9.46C81.2868 9.264 80.9601 9.166 80.5308 9.166C79.8868 9.166 79.4108 9.42733 79.1028 9.95C78.8041 10.4633 78.6501 11.3033 78.6408 12.47C78.8648 12.0967 79.1915 11.8073 79.6208 11.602C80.0501 11.3873 80.5168 11.28 81.0208 11.28C81.6275 11.28 82.1641 11.4107 82.6308 11.672C83.0975 11.9333 83.4615 12.316 83.7228 12.82C83.9841 13.3147 84.1148 13.912 84.1148 14.612C84.1148 15.2747 83.9795 15.8673 83.7088 16.39C83.4475 16.9033 83.0601 17.3047 82.5468 17.594C82.0335 17.8833 81.4221 18.028 80.7128 18.028C79.7421 18.028 78.9768 17.8133 78.4168 17.384C77.8661 16.9547 77.4788 16.3573 77.2548 15.592C77.0401 14.8173 76.9328 13.8653 76.9328 12.736C76.9328 11.028 77.2268 9.74 77.8148 8.872C78.4028 7.99467 79.3315 7.556 80.6008 7.556C81.5808 7.556 82.3415 7.822 82.8828 8.354C83.4241 8.886 83.7368 9.54867 83.8208 10.342H82.0008ZM80.5728 12.89C80.0781 12.89 79.6628 13.0347 79.3268 13.324C78.9908 13.6133 78.8228 14.0333 78.8228 14.584C78.8228 15.1347 78.9768 15.5687 79.2848 15.886C79.6021 16.2033 80.0455 16.362 80.6148 16.362C81.1188 16.362 81.5155 16.208 81.8048 15.9C82.1035 15.592 82.2528 15.1767 82.2528 14.654C82.2528 14.1127 82.1081 13.6833 81.8188 13.366C81.5388 13.0487 81.1235 12.89 80.5728 12.89ZM88.1699 11.854V15.606C88.1699 15.8673 88.2305 16.0587 88.3519 16.18C88.4825 16.292 88.6972 16.348 88.9959 16.348H89.9059V18H88.6739C87.0219 18 86.1959 17.1973 86.1959 15.592V11.854H85.2719V10.244H86.1959V8.326H88.1699V10.244H89.9059V11.854H88.1699ZM95.6836 10.132C96.2716 10.132 96.7943 10.2627 97.2516 10.524C97.7089 10.776 98.0636 11.154 98.3156 11.658C98.5769 12.1527 98.7076 12.75 98.7076 13.45V18H96.7476V13.716C96.7476 13.1 96.5936 12.6287 96.2856 12.302C95.9776 11.966 95.5576 11.798 95.0256 11.798C94.4843 11.798 94.0549 11.966 93.7376 12.302C93.4296 12.6287 93.2756 13.1 93.2756 13.716V18H91.3156V7.64H93.2756V11.21C93.5276 10.874 93.8636 10.6127 94.2836 10.426C94.7036 10.23 95.1703 10.132 95.6836 10.132ZM109.871 12.176V13.828H103.935V12.176H109.871ZM115.797 15.788C116.693 15.0413 117.407 14.4207 117.939 13.926C118.471 13.422 118.915 12.8993 119.269 12.358C119.624 11.8167 119.801 11.2847 119.801 10.762C119.801 10.286 119.689 9.91267 119.465 9.642C119.241 9.37133 118.896 9.236 118.429 9.236C117.963 9.236 117.603 9.39467 117.351 9.712C117.099 10.02 116.969 10.4447 116.959 10.986H115.055C115.093 9.866 115.424 9.01667 116.049 8.438C116.684 7.85933 117.487 7.57 118.457 7.57C119.521 7.57 120.338 7.85467 120.907 8.424C121.477 8.984 121.761 9.726 121.761 10.65C121.761 11.378 121.565 12.0733 121.173 12.736C120.781 13.3987 120.333 13.9773 119.829 14.472C119.325 14.9573 118.667 15.5453 117.855 16.236H121.985V17.86H115.069V16.404L115.797 15.788ZM123.221 12.764C123.221 11.1493 123.51 9.88467 124.089 8.97C124.677 8.05533 125.647 7.598 127.001 7.598C128.354 7.598 129.32 8.05533 129.899 8.97C130.487 9.88467 130.781 11.1493 130.781 12.764C130.781 14.388 130.487 15.662 129.899 16.586C129.32 17.51 128.354 17.972 127.001 17.972C125.647 17.972 124.677 17.51 124.089 16.586C123.51 15.662 123.221 14.388 123.221 12.764ZM128.849 12.764C128.849 12.0733 128.802 11.4947 128.709 11.028C128.625 10.552 128.447 10.1647 128.177 9.866C127.915 9.56733 127.523 9.418 127.001 9.418C126.478 9.418 126.081 9.56733 125.811 9.866C125.549 10.1647 125.372 10.552 125.279 11.028C125.195 11.4947 125.153 12.0733 125.153 12.764C125.153 13.4733 125.195 14.0707 125.279 14.556C125.363 15.032 125.54 15.4193 125.811 15.718C126.081 16.0073 126.478 16.152 127.001 16.152C127.523 16.152 127.92 16.0073 128.191 15.718C128.461 15.4193 128.639 15.032 128.723 14.556C128.807 14.0707 128.849 13.4733 128.849 12.764ZM134.777 11.854V15.606C134.777 15.8673 134.838 16.0587 134.959 16.18C135.09 16.292 135.305 16.348 135.603 16.348H136.513V18H135.281C133.629 18 132.803 17.1973 132.803 15.592V11.854H131.879V10.244H132.803V8.326H134.777V10.244H136.513V11.854H134.777ZM142.291 10.132C142.879 10.132 143.402 10.2627 143.859 10.524C144.316 10.776 144.671 11.154 144.923 11.658C145.184 12.1527 145.315 12.75 145.315 13.45V18H143.355V13.716C143.355 13.1 143.201 12.6287 142.893 12.302C142.585 11.966 142.165 11.798 141.633 11.798C141.092 11.798 140.662 11.966 140.345 12.302C140.037 12.6287 139.883 13.1 139.883 13.716V18H137.923V7.64H139.883V11.21C140.135 10.874 140.471 10.6127 140.891 10.426C141.311 10.23 141.778 10.132 142.291 10.132ZM150.907 15.788C151.803 15.0413 152.517 14.4207 153.049 13.926C153.581 13.422 154.024 12.8993 154.379 12.358C154.733 11.8167 154.911 11.2847 154.911 10.762C154.911 10.286 154.799 9.91267 154.575 9.642C154.351 9.37133 154.005 9.236 153.539 9.236C153.072 9.236 152.713 9.39467 152.461 9.712C152.209 10.02 152.078 10.4447 152.069 10.986H150.165C150.202 9.866 150.533 9.01667 151.159 8.438C151.793 7.85933 152.596 7.57 153.567 7.57C154.631 7.57 155.447 7.85467 156.017 8.424C156.586 8.984 156.871 9.726 156.871 10.65C156.871 11.378 156.675 12.0733 156.283 12.736C155.891 13.3987 155.443 13.9773 154.939 14.472C154.435 14.9573 153.777 15.5453 152.965 16.236H157.095V17.86H150.179V16.404L150.907 15.788ZM158.33 12.764C158.33 11.1493 158.619 9.88467 159.198 8.97C159.786 8.05533 160.757 7.598 162.11 7.598C163.463 7.598 164.429 8.05533 165.008 8.97C165.596 9.88467 165.89 11.1493 165.89 12.764C165.89 14.388 165.596 15.662 165.008 16.586C164.429 17.51 163.463 17.972 162.11 17.972C160.757 17.972 159.786 17.51 159.198 16.586C158.619 15.662 158.33 14.388 158.33 12.764ZM163.958 12.764C163.958 12.0733 163.911 11.4947 163.818 11.028C163.734 10.552 163.557 10.1647 163.286 9.866C163.025 9.56733 162.633 9.418 162.11 9.418C161.587 9.418 161.191 9.56733 160.92 9.866C160.659 10.1647 160.481 10.552 160.388 11.028C160.304 11.4947 160.262 12.0733 160.262 12.764C160.262 13.4733 160.304 14.0707 160.388 14.556C160.472 15.032 160.649 15.4193 160.92 15.718C161.191 16.0073 161.587 16.152 162.11 16.152C162.633 16.152 163.029 16.0073 163.3 15.718C163.571 15.4193 163.748 15.032 163.832 14.556C163.916 14.0707 163.958 13.4733 163.958 12.764ZM167.997 15.788C168.893 15.0413 169.607 14.4207 170.139 13.926C170.671 13.422 171.114 12.8993 171.469 12.358C171.823 11.8167 172.001 11.2847 172.001 10.762C172.001 10.286 171.889 9.91267 171.665 9.642C171.441 9.37133 171.095 9.236 170.629 9.236C170.162 9.236 169.803 9.39467 169.551 9.712C169.299 10.02 169.168 10.4447 169.159 10.986H167.255C167.292 9.866 167.623 9.01667 168.249 8.438C168.883 7.85933 169.686 7.57 170.657 7.57C171.721 7.57 172.537 7.85467 173.107 8.424C173.676 8.984 173.961 9.726 173.961 10.65C173.961 11.378 173.765 12.0733 173.373 12.736C172.981 13.3987 172.533 13.9773 172.029 14.472C171.525 14.9573 170.867 15.5453 170.055 16.236H174.185V17.86H167.269V16.404L167.997 15.788ZM175.448 10.482C175.494 9.54867 175.821 8.83 176.428 8.326C177.044 7.81267 177.851 7.556 178.85 7.556C179.531 7.556 180.114 7.67733 180.6 7.92C181.085 8.15333 181.449 8.47533 181.692 8.886C181.944 9.28733 182.07 9.74467 182.07 10.258C182.07 10.846 181.916 11.3453 181.608 11.756C181.309 12.1573 180.95 12.428 180.53 12.568V12.624C181.071 12.792 181.491 13.0907 181.79 13.52C182.098 13.9493 182.252 14.5 182.252 15.172C182.252 15.732 182.121 16.2313 181.86 16.67C181.608 17.1087 181.23 17.454 180.726 17.706C180.231 17.9487 179.634 18.07 178.934 18.07C177.879 18.07 177.02 17.804 176.358 17.272C175.695 16.74 175.345 15.956 175.308 14.92H177.212C177.23 15.3773 177.384 15.746 177.674 16.026C177.972 16.2967 178.378 16.432 178.892 16.432C179.368 16.432 179.732 16.3013 179.984 16.04C180.245 15.7693 180.376 15.424 180.376 15.004C180.376 14.444 180.198 14.0427 179.844 13.8C179.489 13.5573 178.938 13.436 178.192 13.436H177.786V11.826H178.192C179.517 11.826 180.18 11.3827 180.18 10.496C180.18 10.0947 180.058 9.782 179.816 9.558C179.582 9.334 179.242 9.222 178.794 9.222C178.355 9.222 178.014 9.34333 177.772 9.586C177.538 9.81933 177.403 10.118 177.366 10.482H175.448Z" fill="#EDEDEF"/>
<rect x="0.5" y="0.5" width="193" height="25" rx="12.5" stroke="url(#paint0_radial_6507_182541)"/>
<defs>
<radialGradient id="paint0_radial_6507_182541" cx="0" cy="0" r="1" gradientUnits="userSpaceOnUse" gradientTransform="translate(177.738 -1.59657) rotate(154.425) scale(24.9447 29.1515)">
<stop stop-color="#AFAFAF"/>
<stop offset="1" stop-color="#AFAFAF" stop-opacity="0.31"/>
</radialGradient>
</defs>
</svg>
