<svg width="291" height="448" viewBox="0 0 291 448" fill="none" xmlns="http://www.w3.org/2000/svg">
<g clip-path="url(#clip0_6603_23116)">
<rect width="291" height="448" fill="black"/>
<g opacity="0.4">
<rect x="7.57397" y="4.63647" width="1.74125" height="1.74125" rx="0.870624" fill="#34343A"/>
<rect x="22.3748" y="4.63647" width="1.74125" height="1.74125" rx="0.870624" fill="#34343A"/>
<rect x="37.1753" y="4.63647" width="1.74125" height="1.74125" rx="0.870624" fill="#34343A"/>
<rect x="51.9758" y="4.63647" width="1.74125" height="1.74125" rx="0.870624" fill="#34343A"/>
<rect x="66.7764" y="4.63647" width="1.74125" height="1.74125" rx="0.870624" fill="#34343A"/>
<rect x="81.5771" y="4.63647" width="1.74125" height="1.74125" rx="0.870624" fill="#34343A"/>
<rect x="96.3777" y="4.63647" width="1.74125" height="1.74125" rx="0.870624" fill="#34343A"/>
<rect x="111.178" y="4.63647" width="1.74125" height="1.74125" rx="0.870624" fill="#34343A"/>
<rect x="125.979" y="4.63647" width="1.74125" height="1.74125" rx="0.870624" fill="#34343A"/>
<rect x="140.78" y="4.63647" width="1.74125" height="1.74125" rx="0.870624" fill="#34343A"/>
<rect x="155.58" y="4.63647" width="1.74125" height="1.74125" rx="0.870624" fill="#34343A"/>
<rect x="170.381" y="4.63647" width="1.74125" height="1.74125" rx="0.870624" fill="#34343A"/>
<rect x="185.181" y="4.63647" width="1.74125" height="1.74125" rx="0.870624" fill="#34343A"/>
<rect x="199.982" y="4.63647" width="1.74125" height="1.74125" rx="0.870624" fill="#34343A"/>
<rect x="214.782" y="4.63647" width="1.74125" height="1.74125" rx="0.870624" fill="#34343A"/>
<rect x="229.583" y="4.63647" width="1.74125" height="1.74125" rx="0.870624" fill="#34343A"/>
<rect x="244.384" y="4.63647" width="1.74125" height="1.74125" rx="0.870624" fill="#34343A"/>
<rect x="259.184" y="4.63647" width="1.74125" height="1.74125" rx="0.870624" fill="#34343A"/>
<rect x="273.985" y="4.63647" width="1.74125" height="1.74125" rx="0.870624" fill="#34343A"/>
<rect x="288.786" y="4.63647" width="1.74125" height="1.74125" rx="0.870624" fill="#34343A"/>
<rect x="7.57397" y="19.4371" width="1.74125" height="1.74125" rx="0.870624" fill="#34343A"/>
<rect x="22.3748" y="19.4371" width="1.74125" height="1.74125" rx="0.870624" fill="#34343A"/>
<rect x="37.1753" y="19.4371" width="1.74125" height="1.74125" rx="0.870624" fill="#34343A"/>
<rect x="51.9758" y="19.4371" width="1.74125" height="1.74125" rx="0.870624" fill="#34343A"/>
<rect x="66.7764" y="19.4371" width="1.74125" height="1.74125" rx="0.870624" fill="#34343A"/>
<rect x="81.5771" y="19.4371" width="1.74125" height="1.74125" rx="0.870624" fill="#34343A"/>
<rect x="96.3777" y="19.4371" width="1.74125" height="1.74125" rx="0.870624" fill="#34343A"/>
<rect x="111.178" y="19.4371" width="1.74125" height="1.74125" rx="0.870624" fill="#34343A"/>
<rect x="125.979" y="19.4371" width="1.74125" height="1.74125" rx="0.870624" fill="#34343A"/>
<rect x="140.78" y="19.4371" width="1.74125" height="1.74125" rx="0.870624" fill="#34343A"/>
<rect x="155.58" y="19.4371" width="1.74125" height="1.74125" rx="0.870624" fill="#34343A"/>
<rect x="170.381" y="19.4371" width="1.74125" height="1.74125" rx="0.870624" fill="#34343A"/>
<rect x="185.181" y="19.4371" width="1.74125" height="1.74125" rx="0.870624" fill="#34343A"/>
<rect x="199.982" y="19.4371" width="1.74125" height="1.74125" rx="0.870624" fill="#34343A"/>
<rect x="214.782" y="19.4371" width="1.74125" height="1.74125" rx="0.870624" fill="#34343A"/>
<rect x="229.583" y="19.4371" width="1.74125" height="1.74125" rx="0.870624" fill="#34343A"/>
<rect x="244.384" y="19.4371" width="1.74125" height="1.74125" rx="0.870624" fill="#34343A"/>
<rect x="259.184" y="19.4371" width="1.74125" height="1.74125" rx="0.870624" fill="#34343A"/>
<rect x="273.985" y="19.4371" width="1.74125" height="1.74125" rx="0.870624" fill="#34343A"/>
<rect x="288.786" y="19.4371" width="1.74125" height="1.74125" rx="0.870624" fill="#34343A"/>
<rect x="7.57397" y="34.2378" width="1.74125" height="1.74125" rx="0.870624" fill="#34343A"/>
<rect x="22.3748" y="34.2378" width="1.74125" height="1.74125" rx="0.870624" fill="#34343A"/>
<rect x="37.1753" y="34.2378" width="1.74125" height="1.74125" rx="0.870624" fill="#34343A"/>
<rect x="51.9758" y="34.2378" width="1.74125" height="1.74125" rx="0.870624" fill="#34343A"/>
<rect x="66.7764" y="34.2378" width="1.74125" height="1.74125" rx="0.870624" fill="#34343A"/>
<rect x="81.5771" y="34.2378" width="1.74125" height="1.74125" rx="0.870624" fill="#34343A"/>
<rect x="96.3777" y="34.2378" width="1.74125" height="1.74125" rx="0.870624" fill="#34343A"/>
<rect x="111.178" y="34.2378" width="1.74125" height="1.74125" rx="0.870624" fill="#34343A"/>
<rect x="125.979" y="34.2378" width="1.74125" height="1.74125" rx="0.870624" fill="#34343A"/>
<rect x="140.78" y="34.2378" width="1.74125" height="1.74125" rx="0.870624" fill="#34343A"/>
<rect x="155.58" y="34.2378" width="1.74125" height="1.74125" rx="0.870624" fill="#34343A"/>
<rect x="170.381" y="34.2378" width="1.74125" height="1.74125" rx="0.870624" fill="#34343A"/>
<rect x="185.181" y="34.2378" width="1.74125" height="1.74125" rx="0.870624" fill="#34343A"/>
<rect x="199.982" y="34.2378" width="1.74125" height="1.74125" rx="0.870624" fill="#34343A"/>
<rect x="214.782" y="34.2378" width="1.74125" height="1.74125" rx="0.870624" fill="#34343A"/>
<rect x="229.583" y="34.2378" width="1.74125" height="1.74125" rx="0.870624" fill="#34343A"/>
<rect x="244.384" y="34.2378" width="1.74125" height="1.74125" rx="0.870624" fill="#34343A"/>
<rect x="259.184" y="34.2378" width="1.74125" height="1.74125" rx="0.870624" fill="#34343A"/>
<rect x="273.985" y="34.2378" width="1.74125" height="1.74125" rx="0.870624" fill="#34343A"/>
<rect x="288.786" y="34.2378" width="1.74125" height="1.74125" rx="0.870624" fill="#34343A"/>
<rect x="7.57397" y="49.0383" width="1.74125" height="1.74125" rx="0.870624" fill="#34343A"/>
<rect x="22.3748" y="49.0383" width="1.74125" height="1.74125" rx="0.870624" fill="#34343A"/>
<rect x="37.1753" y="49.0383" width="1.74125" height="1.74125" rx="0.870624" fill="#34343A"/>
<rect x="51.9758" y="49.0383" width="1.74125" height="1.74125" rx="0.870624" fill="#34343A"/>
<rect x="66.7764" y="49.0383" width="1.74125" height="1.74125" rx="0.870624" fill="#34343A"/>
<rect x="81.5771" y="49.0383" width="1.74125" height="1.74125" rx="0.870624" fill="#34343A"/>
<rect x="96.3777" y="49.0383" width="1.74125" height="1.74125" rx="0.870624" fill="#34343A"/>
<rect x="111.178" y="49.0383" width="1.74125" height="1.74125" rx="0.870624" fill="#34343A"/>
<rect x="125.979" y="49.0383" width="1.74125" height="1.74125" rx="0.870624" fill="#34343A"/>
<rect x="140.78" y="49.0383" width="1.74125" height="1.74125" rx="0.870624" fill="#34343A"/>
<rect x="155.58" y="49.0383" width="1.74125" height="1.74125" rx="0.870624" fill="#34343A"/>
<rect x="170.381" y="49.0383" width="1.74125" height="1.74125" rx="0.870624" fill="#34343A"/>
<rect x="185.181" y="49.0383" width="1.74125" height="1.74125" rx="0.870624" fill="#34343A"/>
<rect x="199.982" y="49.0383" width="1.74125" height="1.74125" rx="0.870624" fill="#34343A"/>
<rect x="214.782" y="49.0383" width="1.74125" height="1.74125" rx="0.870624" fill="#34343A"/>
<rect x="229.583" y="49.0383" width="1.74125" height="1.74125" rx="0.870624" fill="#34343A"/>
<rect x="244.384" y="49.0383" width="1.74125" height="1.74125" rx="0.870624" fill="#34343A"/>
<rect x="259.184" y="49.0383" width="1.74125" height="1.74125" rx="0.870624" fill="#34343A"/>
<rect x="273.985" y="49.0383" width="1.74125" height="1.74125" rx="0.870624" fill="#34343A"/>
<rect x="288.786" y="49.0383" width="1.74125" height="1.74125" rx="0.870624" fill="#34343A"/>
<rect x="7.57397" y="63.839" width="1.74125" height="1.74125" rx="0.870624" fill="#34343A"/>
<rect x="22.3748" y="63.839" width="1.74125" height="1.74125" rx="0.870624" fill="#34343A"/>
<rect x="37.1753" y="63.839" width="1.74125" height="1.74125" rx="0.870624" fill="#34343A"/>
<rect x="51.9758" y="63.839" width="1.74125" height="1.74125" rx="0.870624" fill="#34343A"/>
<rect x="66.7764" y="63.839" width="1.74125" height="1.74125" rx="0.870624" fill="#34343A"/>
<rect x="81.5771" y="63.839" width="1.74125" height="1.74125" rx="0.870624" fill="#34343A"/>
<rect x="96.3777" y="63.839" width="1.74125" height="1.74125" rx="0.870624" fill="#34343A"/>
<rect x="111.178" y="63.839" width="1.74125" height="1.74125" rx="0.870624" fill="#34343A"/>
<rect x="125.979" y="63.839" width="1.74125" height="1.74125" rx="0.870624" fill="#34343A"/>
<rect x="140.78" y="63.839" width="1.74125" height="1.74125" rx="0.870624" fill="#34343A"/>
<rect x="155.58" y="63.839" width="1.74125" height="1.74125" rx="0.870624" fill="#34343A"/>
<rect x="170.381" y="63.839" width="1.74125" height="1.74125" rx="0.870624" fill="#34343A"/>
<rect x="185.181" y="63.839" width="1.74125" height="1.74125" rx="0.870624" fill="#34343A"/>
<rect x="199.982" y="63.839" width="1.74125" height="1.74125" rx="0.870624" fill="#34343A"/>
<rect x="214.782" y="63.839" width="1.74125" height="1.74125" rx="0.870624" fill="#34343A"/>
<rect x="229.583" y="63.839" width="1.74125" height="1.74125" rx="0.870624" fill="#34343A"/>
<rect x="244.384" y="63.839" width="1.74125" height="1.74125" rx="0.870624" fill="#34343A"/>
<rect x="259.184" y="63.839" width="1.74125" height="1.74125" rx="0.870624" fill="#34343A"/>
<rect x="273.985" y="63.839" width="1.74125" height="1.74125" rx="0.870624" fill="#34343A"/>
<rect x="288.786" y="63.839" width="1.74125" height="1.74125" rx="0.870624" fill="#34343A"/>
<rect x="7.57397" y="78.6395" width="1.74125" height="1.74125" rx="0.870624" fill="#34343A"/>
<rect x="22.3748" y="78.6395" width="1.74125" height="1.74125" rx="0.870624" fill="#34343A"/>
<rect x="37.1753" y="78.6395" width="1.74125" height="1.74125" rx="0.870624" fill="#34343A"/>
<rect x="51.9758" y="78.6395" width="1.74125" height="1.74125" rx="0.870624" fill="#34343A"/>
<rect x="66.7764" y="78.6395" width="1.74125" height="1.74125" rx="0.870624" fill="#34343A"/>
<rect x="81.5771" y="78.6395" width="1.74125" height="1.74125" rx="0.870624" fill="#34343A"/>
<rect x="96.3777" y="78.6395" width="1.74125" height="1.74125" rx="0.870624" fill="#34343A"/>
<rect x="111.178" y="78.6395" width="1.74125" height="1.74125" rx="0.870624" fill="#34343A"/>
<rect x="125.979" y="78.6395" width="1.74125" height="1.74125" rx="0.870624" fill="#34343A"/>
<rect x="140.78" y="78.6395" width="1.74125" height="1.74125" rx="0.870624" fill="#34343A"/>
<rect x="155.58" y="78.6395" width="1.74125" height="1.74125" rx="0.870624" fill="#34343A"/>
<rect x="170.381" y="78.6395" width="1.74125" height="1.74125" rx="0.870624" fill="#34343A"/>
<rect x="185.181" y="78.6395" width="1.74125" height="1.74125" rx="0.870624" fill="#34343A"/>
<rect x="199.982" y="78.6395" width="1.74125" height="1.74125" rx="0.870624" fill="#34343A"/>
<rect x="214.782" y="78.6395" width="1.74125" height="1.74125" rx="0.870624" fill="#34343A"/>
<rect x="229.583" y="78.6395" width="1.74125" height="1.74125" rx="0.870624" fill="#34343A"/>
<rect x="244.384" y="78.6395" width="1.74125" height="1.74125" rx="0.870624" fill="#34343A"/>
<rect x="259.184" y="78.6395" width="1.74125" height="1.74125" rx="0.870624" fill="#34343A"/>
<rect x="273.985" y="78.6395" width="1.74125" height="1.74125" rx="0.870624" fill="#34343A"/>
<rect x="288.786" y="78.6395" width="1.74125" height="1.74125" rx="0.870624" fill="#34343A"/>
<rect x="7.57397" y="93.4402" width="1.74125" height="1.74125" rx="0.870624" fill="#34343A"/>
<rect x="22.3748" y="93.4402" width="1.74125" height="1.74125" rx="0.870624" fill="#34343A"/>
<rect x="37.1753" y="93.4402" width="1.74125" height="1.74125" rx="0.870624" fill="#34343A"/>
<rect x="51.9758" y="93.4402" width="1.74125" height="1.74125" rx="0.870624" fill="#34343A"/>
<rect x="66.7764" y="93.4402" width="1.74125" height="1.74125" rx="0.870624" fill="#34343A"/>
<rect x="81.5771" y="93.4402" width="1.74125" height="1.74125" rx="0.870624" fill="#34343A"/>
<rect x="96.3777" y="93.4402" width="1.74125" height="1.74125" rx="0.870624" fill="#34343A"/>
<rect x="111.178" y="93.4402" width="1.74125" height="1.74125" rx="0.870624" fill="#34343A"/>
<rect x="125.979" y="93.4402" width="1.74125" height="1.74125" rx="0.870624" fill="#34343A"/>
<rect x="140.78" y="93.4402" width="1.74125" height="1.74125" rx="0.870624" fill="#34343A"/>
<rect x="155.58" y="93.4402" width="1.74125" height="1.74125" rx="0.870624" fill="#34343A"/>
<rect x="170.381" y="93.4402" width="1.74125" height="1.74125" rx="0.870624" fill="#34343A"/>
<rect x="185.181" y="93.4402" width="1.74125" height="1.74125" rx="0.870624" fill="#34343A"/>
<rect x="199.982" y="93.4402" width="1.74125" height="1.74125" rx="0.870624" fill="#34343A"/>
<rect x="214.782" y="93.4402" width="1.74125" height="1.74125" rx="0.870624" fill="#34343A"/>
<rect x="229.583" y="93.4402" width="1.74125" height="1.74125" rx="0.870624" fill="#34343A"/>
<rect x="244.384" y="93.4402" width="1.74125" height="1.74125" rx="0.870624" fill="#34343A"/>
<rect x="259.184" y="93.4402" width="1.74125" height="1.74125" rx="0.870624" fill="#34343A"/>
<rect x="273.985" y="93.4402" width="1.74125" height="1.74125" rx="0.870624" fill="#34343A"/>
<rect x="288.786" y="93.4402" width="1.74125" height="1.74125" rx="0.870624" fill="#34343A"/>
<rect x="7.57397" y="108.241" width="1.74125" height="1.74125" rx="0.870624" fill="#34343A"/>
<rect x="22.3748" y="108.241" width="1.74125" height="1.74125" rx="0.870624" fill="#34343A"/>
<rect x="37.1753" y="108.241" width="1.74125" height="1.74125" rx="0.870624" fill="#34343A"/>
<rect x="51.9758" y="108.241" width="1.74125" height="1.74125" rx="0.870624" fill="#34343A"/>
<rect x="66.7764" y="108.241" width="1.74125" height="1.74125" rx="0.870624" fill="#34343A"/>
<rect x="81.5771" y="108.241" width="1.74125" height="1.74125" rx="0.870624" fill="#34343A"/>
<rect x="96.3777" y="108.241" width="1.74125" height="1.74125" rx="0.870624" fill="#34343A"/>
<rect x="111.178" y="108.241" width="1.74125" height="1.74125" rx="0.870624" fill="#34343A"/>
<rect x="125.979" y="108.241" width="1.74125" height="1.74125" rx="0.870624" fill="#34343A"/>
<rect x="140.78" y="108.241" width="1.74125" height="1.74125" rx="0.870624" fill="#34343A"/>
<rect x="155.58" y="108.241" width="1.74125" height="1.74125" rx="0.870624" fill="#34343A"/>
<rect x="170.381" y="108.241" width="1.74125" height="1.74125" rx="0.870624" fill="#34343A"/>
<rect x="185.181" y="108.241" width="1.74125" height="1.74125" rx="0.870624" fill="#34343A"/>
<rect x="199.982" y="108.241" width="1.74125" height="1.74125" rx="0.870624" fill="#34343A"/>
<rect x="214.782" y="108.241" width="1.74125" height="1.74125" rx="0.870624" fill="#34343A"/>
<rect x="229.583" y="108.241" width="1.74125" height="1.74125" rx="0.870624" fill="#34343A"/>
<rect x="244.384" y="108.241" width="1.74125" height="1.74125" rx="0.870624" fill="#34343A"/>
<rect x="259.184" y="108.241" width="1.74125" height="1.74125" rx="0.870624" fill="#34343A"/>
<rect x="273.985" y="108.241" width="1.74125" height="1.74125" rx="0.870624" fill="#34343A"/>
<rect x="288.786" y="108.241" width="1.74125" height="1.74125" rx="0.870624" fill="#34343A"/>
<rect x="7.57397" y="123.041" width="1.74125" height="1.74125" rx="0.870624" fill="#34343A"/>
<rect x="22.3748" y="123.041" width="1.74125" height="1.74125" rx="0.870624" fill="#34343A"/>
<rect x="37.1753" y="123.041" width="1.74125" height="1.74125" rx="0.870624" fill="#34343A"/>
<rect x="51.9758" y="123.041" width="1.74125" height="1.74125" rx="0.870624" fill="#34343A"/>
<rect x="66.7764" y="123.041" width="1.74125" height="1.74125" rx="0.870624" fill="#34343A"/>
<rect x="81.5771" y="123.041" width="1.74125" height="1.74125" rx="0.870624" fill="#34343A"/>
<rect x="96.3777" y="123.041" width="1.74125" height="1.74125" rx="0.870624" fill="#34343A"/>
<rect x="111.178" y="123.041" width="1.74125" height="1.74125" rx="0.870624" fill="#34343A"/>
<rect x="125.979" y="123.041" width="1.74125" height="1.74125" rx="0.870624" fill="#34343A"/>
<rect x="140.78" y="123.041" width="1.74125" height="1.74125" rx="0.870624" fill="#34343A"/>
<rect x="155.58" y="123.041" width="1.74125" height="1.74125" rx="0.870624" fill="#34343A"/>
<rect x="170.381" y="123.041" width="1.74125" height="1.74125" rx="0.870624" fill="#34343A"/>
<rect x="185.181" y="123.041" width="1.74125" height="1.74125" rx="0.870624" fill="#34343A"/>
<rect x="199.982" y="123.041" width="1.74125" height="1.74125" rx="0.870624" fill="#34343A"/>
<rect x="214.782" y="123.041" width="1.74125" height="1.74125" rx="0.870624" fill="#34343A"/>
<rect x="229.583" y="123.041" width="1.74125" height="1.74125" rx="0.870624" fill="#34343A"/>
<rect x="244.384" y="123.041" width="1.74125" height="1.74125" rx="0.870624" fill="#34343A"/>
<rect x="259.184" y="123.041" width="1.74125" height="1.74125" rx="0.870624" fill="#34343A"/>
<rect x="273.985" y="123.041" width="1.74125" height="1.74125" rx="0.870624" fill="#34343A"/>
<rect x="288.786" y="123.041" width="1.74125" height="1.74125" rx="0.870624" fill="#34343A"/>
<rect x="7.57397" y="137.842" width="1.74125" height="1.74125" rx="0.870624" fill="#34343A"/>
<rect x="22.3748" y="137.842" width="1.74125" height="1.74125" rx="0.870624" fill="#34343A"/>
<rect x="37.1753" y="137.842" width="1.74125" height="1.74125" rx="0.870624" fill="#34343A"/>
<rect x="51.9758" y="137.842" width="1.74125" height="1.74125" rx="0.870624" fill="#34343A"/>
<rect x="66.7764" y="137.842" width="1.74125" height="1.74125" rx="0.870624" fill="#34343A"/>
<rect x="81.5771" y="137.842" width="1.74125" height="1.74125" rx="0.870624" fill="#34343A"/>
<rect x="96.3777" y="137.842" width="1.74125" height="1.74125" rx="0.870624" fill="#34343A"/>
<rect x="111.178" y="137.842" width="1.74125" height="1.74125" rx="0.870624" fill="#34343A"/>
<rect x="125.979" y="137.842" width="1.74125" height="1.74125" rx="0.870624" fill="#34343A"/>
<rect x="140.78" y="137.842" width="1.74125" height="1.74125" rx="0.870624" fill="#34343A"/>
<rect x="155.58" y="137.842" width="1.74125" height="1.74125" rx="0.870624" fill="#34343A"/>
<rect x="170.381" y="137.842" width="1.74125" height="1.74125" rx="0.870624" fill="#34343A"/>
<rect x="185.181" y="137.842" width="1.74125" height="1.74125" rx="0.870624" fill="#34343A"/>
<rect x="199.982" y="137.842" width="1.74125" height="1.74125" rx="0.870624" fill="#34343A"/>
<rect x="214.782" y="137.842" width="1.74125" height="1.74125" rx="0.870624" fill="#34343A"/>
<rect x="229.583" y="137.842" width="1.74125" height="1.74125" rx="0.870624" fill="#34343A"/>
<rect x="244.384" y="137.842" width="1.74125" height="1.74125" rx="0.870624" fill="#34343A"/>
<rect x="259.184" y="137.842" width="1.74125" height="1.74125" rx="0.870624" fill="#34343A"/>
<rect x="273.985" y="137.842" width="1.74125" height="1.74125" rx="0.870624" fill="#34343A"/>
<rect x="288.786" y="137.842" width="1.74125" height="1.74125" rx="0.870624" fill="#34343A"/>
<rect x="7.57397" y="152.643" width="1.74125" height="1.74125" rx="0.870624" fill="#34343A"/>
<rect x="22.3748" y="152.643" width="1.74125" height="1.74125" rx="0.870624" fill="#34343A"/>
<rect x="37.1753" y="152.643" width="1.74125" height="1.74125" rx="0.870624" fill="#34343A"/>
<rect x="51.9758" y="152.643" width="1.74125" height="1.74125" rx="0.870624" fill="#34343A"/>
<rect x="66.7764" y="152.643" width="1.74125" height="1.74125" rx="0.870624" fill="#34343A"/>
<rect x="81.5771" y="152.643" width="1.74125" height="1.74125" rx="0.870624" fill="#34343A"/>
<rect x="96.3777" y="152.643" width="1.74125" height="1.74125" rx="0.870624" fill="#34343A"/>
<rect x="111.178" y="152.643" width="1.74125" height="1.74125" rx="0.870624" fill="#34343A"/>
<rect x="125.979" y="152.643" width="1.74125" height="1.74125" rx="0.870624" fill="#34343A"/>
<rect x="140.78" y="152.643" width="1.74125" height="1.74125" rx="0.870624" fill="#34343A"/>
<rect x="155.58" y="152.643" width="1.74125" height="1.74125" rx="0.870624" fill="#34343A"/>
<rect x="170.381" y="152.643" width="1.74125" height="1.74125" rx="0.870624" fill="#34343A"/>
<rect x="185.181" y="152.643" width="1.74125" height="1.74125" rx="0.870624" fill="#34343A"/>
<rect x="199.982" y="152.643" width="1.74125" height="1.74125" rx="0.870624" fill="#34343A"/>
<rect x="214.782" y="152.643" width="1.74125" height="1.74125" rx="0.870624" fill="#34343A"/>
<rect x="229.583" y="152.643" width="1.74125" height="1.74125" rx="0.870624" fill="#34343A"/>
<rect x="244.384" y="152.643" width="1.74125" height="1.74125" rx="0.870624" fill="#34343A"/>
<rect x="259.184" y="152.643" width="1.74125" height="1.74125" rx="0.870624" fill="#34343A"/>
<rect x="273.985" y="152.643" width="1.74125" height="1.74125" rx="0.870624" fill="#34343A"/>
<rect x="288.786" y="152.643" width="1.74125" height="1.74125" rx="0.870624" fill="#34343A"/>
<rect x="7.57397" y="167.443" width="1.74125" height="1.74125" rx="0.870624" fill="#34343A"/>
<rect x="22.3748" y="167.443" width="1.74125" height="1.74125" rx="0.870624" fill="#34343A"/>
<rect x="37.1753" y="167.443" width="1.74125" height="1.74125" rx="0.870624" fill="#34343A"/>
<rect x="51.9758" y="167.443" width="1.74125" height="1.74125" rx="0.870624" fill="#34343A"/>
<rect x="66.7764" y="167.443" width="1.74125" height="1.74125" rx="0.870624" fill="#34343A"/>
<rect x="81.5771" y="167.443" width="1.74125" height="1.74125" rx="0.870624" fill="#34343A"/>
<rect x="96.3777" y="167.443" width="1.74125" height="1.74125" rx="0.870624" fill="#34343A"/>
<rect x="111.178" y="167.443" width="1.74125" height="1.74125" rx="0.870624" fill="#34343A"/>
<rect x="125.979" y="167.443" width="1.74125" height="1.74125" rx="0.870624" fill="#34343A"/>
<rect x="140.78" y="167.443" width="1.74125" height="1.74125" rx="0.870624" fill="#34343A"/>
<rect x="155.58" y="167.443" width="1.74125" height="1.74125" rx="0.870624" fill="#34343A"/>
<rect x="170.381" y="167.443" width="1.74125" height="1.74125" rx="0.870624" fill="#34343A"/>
<rect x="185.181" y="167.443" width="1.74125" height="1.74125" rx="0.870624" fill="#34343A"/>
<rect x="199.982" y="167.443" width="1.74125" height="1.74125" rx="0.870624" fill="#34343A"/>
<rect x="214.782" y="167.443" width="1.74125" height="1.74125" rx="0.870624" fill="#34343A"/>
<rect x="229.583" y="167.443" width="1.74125" height="1.74125" rx="0.870624" fill="#34343A"/>
<rect x="244.384" y="167.443" width="1.74125" height="1.74125" rx="0.870624" fill="#34343A"/>
<rect x="259.184" y="167.443" width="1.74125" height="1.74125" rx="0.870624" fill="#34343A"/>
<rect x="273.985" y="167.443" width="1.74125" height="1.74125" rx="0.870624" fill="#34343A"/>
<rect x="288.786" y="167.443" width="1.74125" height="1.74125" rx="0.870624" fill="#34343A"/>
<rect x="7.57397" y="182.244" width="1.74125" height="1.74125" rx="0.870624" fill="#34343A"/>
<rect x="22.3748" y="182.244" width="1.74125" height="1.74125" rx="0.870624" fill="#34343A"/>
<rect x="37.1753" y="182.244" width="1.74125" height="1.74125" rx="0.870624" fill="#34343A"/>
<rect x="51.9758" y="182.244" width="1.74125" height="1.74125" rx="0.870624" fill="#34343A"/>
<rect x="66.7764" y="182.244" width="1.74125" height="1.74125" rx="0.870624" fill="#34343A"/>
<rect x="81.5771" y="182.244" width="1.74125" height="1.74125" rx="0.870624" fill="#34343A"/>
<rect x="96.3777" y="182.244" width="1.74125" height="1.74125" rx="0.870624" fill="#34343A"/>
<rect x="111.178" y="182.244" width="1.74125" height="1.74125" rx="0.870624" fill="#34343A"/>
<rect x="125.979" y="182.244" width="1.74125" height="1.74125" rx="0.870624" fill="#34343A"/>
<rect x="140.78" y="182.244" width="1.74125" height="1.74125" rx="0.870624" fill="#34343A"/>
<rect x="155.58" y="182.244" width="1.74125" height="1.74125" rx="0.870624" fill="#34343A"/>
<rect x="170.381" y="182.244" width="1.74125" height="1.74125" rx="0.870624" fill="#34343A"/>
<rect x="185.181" y="182.244" width="1.74125" height="1.74125" rx="0.870624" fill="#34343A"/>
<rect x="199.982" y="182.244" width="1.74125" height="1.74125" rx="0.870624" fill="#34343A"/>
<rect x="214.782" y="182.244" width="1.74125" height="1.74125" rx="0.870624" fill="#34343A"/>
<rect x="229.583" y="182.244" width="1.74125" height="1.74125" rx="0.870624" fill="#34343A"/>
<rect x="244.384" y="182.244" width="1.74125" height="1.74125" rx="0.870624" fill="#34343A"/>
<rect x="259.184" y="182.244" width="1.74125" height="1.74125" rx="0.870624" fill="#34343A"/>
<rect x="273.985" y="182.244" width="1.74125" height="1.74125" rx="0.870624" fill="#34343A"/>
<rect x="288.786" y="182.244" width="1.74125" height="1.74125" rx="0.870624" fill="#34343A"/>
<rect x="7.57397" y="197.044" width="1.74125" height="1.74125" rx="0.870624" fill="#34343A"/>
<rect x="22.3748" y="197.044" width="1.74125" height="1.74125" rx="0.870624" fill="#34343A"/>
<rect x="37.1753" y="197.044" width="1.74125" height="1.74125" rx="0.870624" fill="#34343A"/>
<rect x="51.9758" y="197.044" width="1.74125" height="1.74125" rx="0.870624" fill="#34343A"/>
<rect x="66.7764" y="197.044" width="1.74125" height="1.74125" rx="0.870624" fill="#34343A"/>
<rect x="81.5771" y="197.044" width="1.74125" height="1.74125" rx="0.870624" fill="#34343A"/>
<rect x="96.3777" y="197.044" width="1.74125" height="1.74125" rx="0.870624" fill="#34343A"/>
<rect x="111.178" y="197.044" width="1.74125" height="1.74125" rx="0.870624" fill="#34343A"/>
<rect x="125.979" y="197.044" width="1.74125" height="1.74125" rx="0.870624" fill="#34343A"/>
<rect x="140.78" y="197.044" width="1.74125" height="1.74125" rx="0.870624" fill="#34343A"/>
<rect x="155.58" y="197.044" width="1.74125" height="1.74125" rx="0.870624" fill="#34343A"/>
<rect x="170.381" y="197.044" width="1.74125" height="1.74125" rx="0.870624" fill="#34343A"/>
<rect x="185.181" y="197.044" width="1.74125" height="1.74125" rx="0.870624" fill="#34343A"/>
<rect x="199.982" y="197.044" width="1.74125" height="1.74125" rx="0.870624" fill="#34343A"/>
<rect x="214.782" y="197.044" width="1.74125" height="1.74125" rx="0.870624" fill="#34343A"/>
<rect x="229.583" y="197.044" width="1.74125" height="1.74125" rx="0.870624" fill="#34343A"/>
<rect x="244.384" y="197.044" width="1.74125" height="1.74125" rx="0.870624" fill="#34343A"/>
<rect x="259.184" y="197.044" width="1.74125" height="1.74125" rx="0.870624" fill="#34343A"/>
<rect x="273.985" y="197.044" width="1.74125" height="1.74125" rx="0.870624" fill="#34343A"/>
<rect x="288.786" y="197.044" width="1.74125" height="1.74125" rx="0.870624" fill="#34343A"/>
<rect x="7.57397" y="211.845" width="1.74125" height="1.74125" rx="0.870624" fill="#34343A"/>
<rect x="22.3748" y="211.845" width="1.74125" height="1.74125" rx="0.870624" fill="#34343A"/>
<rect x="37.1753" y="211.845" width="1.74125" height="1.74125" rx="0.870624" fill="#34343A"/>
<rect x="51.9758" y="211.845" width="1.74125" height="1.74125" rx="0.870624" fill="#34343A"/>
<rect x="66.7764" y="211.845" width="1.74125" height="1.74125" rx="0.870624" fill="#34343A"/>
<rect x="81.5771" y="211.845" width="1.74125" height="1.74125" rx="0.870624" fill="#34343A"/>
<rect x="96.3777" y="211.845" width="1.74125" height="1.74125" rx="0.870624" fill="#34343A"/>
<rect x="111.178" y="211.845" width="1.74125" height="1.74125" rx="0.870624" fill="#34343A"/>
<rect x="125.979" y="211.845" width="1.74125" height="1.74125" rx="0.870624" fill="#34343A"/>
<rect x="140.78" y="211.845" width="1.74125" height="1.74125" rx="0.870624" fill="#34343A"/>
<rect x="155.58" y="211.845" width="1.74125" height="1.74125" rx="0.870624" fill="#34343A"/>
<rect x="170.381" y="211.845" width="1.74125" height="1.74125" rx="0.870624" fill="#34343A"/>
<rect x="185.181" y="211.845" width="1.74125" height="1.74125" rx="0.870624" fill="#34343A"/>
<rect x="199.982" y="211.845" width="1.74125" height="1.74125" rx="0.870624" fill="#34343A"/>
<rect x="214.782" y="211.845" width="1.74125" height="1.74125" rx="0.870624" fill="#34343A"/>
<rect x="229.583" y="211.845" width="1.74125" height="1.74125" rx="0.870624" fill="#34343A"/>
<rect x="244.384" y="211.845" width="1.74125" height="1.74125" rx="0.870624" fill="#34343A"/>
<rect x="259.184" y="211.845" width="1.74125" height="1.74125" rx="0.870624" fill="#34343A"/>
<rect x="273.985" y="211.845" width="1.74125" height="1.74125" rx="0.870624" fill="#34343A"/>
<rect x="288.786" y="211.845" width="1.74125" height="1.74125" rx="0.870624" fill="#34343A"/>
<rect x="7.57397" y="226.646" width="1.74125" height="1.74125" rx="0.870624" fill="#34343A"/>
<rect x="22.3748" y="226.646" width="1.74125" height="1.74125" rx="0.870624" fill="#34343A"/>
<rect x="37.1753" y="226.646" width="1.74125" height="1.74125" rx="0.870624" fill="#34343A"/>
<rect x="51.9758" y="226.646" width="1.74125" height="1.74125" rx="0.870624" fill="#34343A"/>
<rect x="66.7764" y="226.646" width="1.74125" height="1.74125" rx="0.870624" fill="#34343A"/>
<rect x="81.5771" y="226.646" width="1.74125" height="1.74125" rx="0.870624" fill="#34343A"/>
<rect x="96.3777" y="226.646" width="1.74125" height="1.74125" rx="0.870624" fill="#34343A"/>
<rect x="111.178" y="226.646" width="1.74125" height="1.74125" rx="0.870624" fill="#34343A"/>
<rect x="125.979" y="226.646" width="1.74125" height="1.74125" rx="0.870624" fill="#34343A"/>
<rect x="140.78" y="226.646" width="1.74125" height="1.74125" rx="0.870624" fill="#34343A"/>
<rect x="155.58" y="226.646" width="1.74125" height="1.74125" rx="0.870624" fill="#34343A"/>
<rect x="170.381" y="226.646" width="1.74125" height="1.74125" rx="0.870624" fill="#34343A"/>
<rect x="185.181" y="226.646" width="1.74125" height="1.74125" rx="0.870624" fill="#34343A"/>
<rect x="199.982" y="226.646" width="1.74125" height="1.74125" rx="0.870624" fill="#34343A"/>
<rect x="214.782" y="226.646" width="1.74125" height="1.74125" rx="0.870624" fill="#34343A"/>
<rect x="229.583" y="226.646" width="1.74125" height="1.74125" rx="0.870624" fill="#34343A"/>
<rect x="244.384" y="226.646" width="1.74125" height="1.74125" rx="0.870624" fill="#34343A"/>
<rect x="259.184" y="226.646" width="1.74125" height="1.74125" rx="0.870624" fill="#34343A"/>
<rect x="273.985" y="226.646" width="1.74125" height="1.74125" rx="0.870624" fill="#34343A"/>
<rect x="288.786" y="226.646" width="1.74125" height="1.74125" rx="0.870624" fill="#34343A"/>
<rect x="7.57397" y="241.446" width="1.74125" height="1.74125" rx="0.870624" fill="#34343A"/>
<rect x="22.3748" y="241.446" width="1.74125" height="1.74125" rx="0.870624" fill="#34343A"/>
<rect x="37.1753" y="241.446" width="1.74125" height="1.74125" rx="0.870624" fill="#34343A"/>
<rect x="51.9758" y="241.446" width="1.74125" height="1.74125" rx="0.870624" fill="#34343A"/>
<rect x="66.7764" y="241.446" width="1.74125" height="1.74125" rx="0.870624" fill="#34343A"/>
<rect x="81.5771" y="241.446" width="1.74125" height="1.74125" rx="0.870624" fill="#34343A"/>
<rect x="96.3777" y="241.446" width="1.74125" height="1.74125" rx="0.870624" fill="#34343A"/>
<rect x="111.178" y="241.446" width="1.74125" height="1.74125" rx="0.870624" fill="#34343A"/>
<rect x="125.979" y="241.446" width="1.74125" height="1.74125" rx="0.870624" fill="#34343A"/>
<rect x="140.78" y="241.446" width="1.74125" height="1.74125" rx="0.870624" fill="#34343A"/>
<rect x="155.58" y="241.446" width="1.74125" height="1.74125" rx="0.870624" fill="#34343A"/>
<rect x="170.381" y="241.446" width="1.74125" height="1.74125" rx="0.870624" fill="#34343A"/>
<rect x="185.181" y="241.446" width="1.74125" height="1.74125" rx="0.870624" fill="#34343A"/>
<rect x="199.982" y="241.446" width="1.74125" height="1.74125" rx="0.870624" fill="#34343A"/>
<rect x="214.782" y="241.446" width="1.74125" height="1.74125" rx="0.870624" fill="#34343A"/>
<rect x="229.583" y="241.446" width="1.74125" height="1.74125" rx="0.870624" fill="#34343A"/>
<rect x="244.384" y="241.446" width="1.74125" height="1.74125" rx="0.870624" fill="#34343A"/>
<rect x="259.184" y="241.446" width="1.74125" height="1.74125" rx="0.870624" fill="#34343A"/>
<rect x="273.985" y="241.446" width="1.74125" height="1.74125" rx="0.870624" fill="#34343A"/>
<rect x="288.786" y="241.446" width="1.74125" height="1.74125" rx="0.870624" fill="#34343A"/>
<rect x="7.57397" y="256.247" width="1.74125" height="1.74125" rx="0.870624" fill="#34343A"/>
<rect x="22.3748" y="256.247" width="1.74125" height="1.74125" rx="0.870624" fill="#34343A"/>
<rect x="37.1753" y="256.247" width="1.74125" height="1.74125" rx="0.870624" fill="#34343A"/>
<rect x="51.9758" y="256.247" width="1.74125" height="1.74125" rx="0.870624" fill="#34343A"/>
<rect x="66.7764" y="256.247" width="1.74125" height="1.74125" rx="0.870624" fill="#34343A"/>
<rect x="81.5771" y="256.247" width="1.74125" height="1.74125" rx="0.870624" fill="#34343A"/>
<rect x="96.3777" y="256.247" width="1.74125" height="1.74125" rx="0.870624" fill="#34343A"/>
<rect x="111.178" y="256.247" width="1.74125" height="1.74125" rx="0.870624" fill="#34343A"/>
<rect x="125.979" y="256.247" width="1.74125" height="1.74125" rx="0.870624" fill="#34343A"/>
<rect x="140.78" y="256.247" width="1.74125" height="1.74125" rx="0.870624" fill="#34343A"/>
<rect x="155.58" y="256.247" width="1.74125" height="1.74125" rx="0.870624" fill="#34343A"/>
<rect x="170.381" y="256.247" width="1.74125" height="1.74125" rx="0.870624" fill="#34343A"/>
<rect x="185.181" y="256.247" width="1.74125" height="1.74125" rx="0.870624" fill="#34343A"/>
<rect x="199.982" y="256.247" width="1.74125" height="1.74125" rx="0.870624" fill="#34343A"/>
<rect x="214.782" y="256.247" width="1.74125" height="1.74125" rx="0.870624" fill="#34343A"/>
<rect x="229.583" y="256.247" width="1.74125" height="1.74125" rx="0.870624" fill="#34343A"/>
<rect x="244.384" y="256.247" width="1.74125" height="1.74125" rx="0.870624" fill="#34343A"/>
<rect x="259.184" y="256.247" width="1.74125" height="1.74125" rx="0.870624" fill="#34343A"/>
<rect x="273.985" y="256.247" width="1.74125" height="1.74125" rx="0.870624" fill="#34343A"/>
<rect x="288.786" y="256.247" width="1.74125" height="1.74125" rx="0.870624" fill="#34343A"/>
<rect x="7.57397" y="271.047" width="1.74125" height="1.74125" rx="0.870624" fill="#34343A"/>
<rect x="22.3748" y="271.047" width="1.74125" height="1.74125" rx="0.870624" fill="#34343A"/>
<rect x="37.1753" y="271.047" width="1.74125" height="1.74125" rx="0.870624" fill="#34343A"/>
<rect x="51.9758" y="271.047" width="1.74125" height="1.74125" rx="0.870624" fill="#34343A"/>
<rect x="66.7764" y="271.047" width="1.74125" height="1.74125" rx="0.870624" fill="#34343A"/>
<rect x="81.5771" y="271.047" width="1.74125" height="1.74125" rx="0.870624" fill="#34343A"/>
<rect x="96.3777" y="271.047" width="1.74125" height="1.74125" rx="0.870624" fill="#34343A"/>
<rect x="111.178" y="271.047" width="1.74125" height="1.74125" rx="0.870624" fill="#34343A"/>
<rect x="125.979" y="271.047" width="1.74125" height="1.74125" rx="0.870624" fill="#34343A"/>
<rect x="140.78" y="271.047" width="1.74125" height="1.74125" rx="0.870624" fill="#34343A"/>
<rect x="155.58" y="271.047" width="1.74125" height="1.74125" rx="0.870624" fill="#34343A"/>
<rect x="170.381" y="271.047" width="1.74125" height="1.74125" rx="0.870624" fill="#34343A"/>
<rect x="185.181" y="271.047" width="1.74125" height="1.74125" rx="0.870624" fill="#34343A"/>
<rect x="199.982" y="271.047" width="1.74125" height="1.74125" rx="0.870624" fill="#34343A"/>
<rect x="214.782" y="271.047" width="1.74125" height="1.74125" rx="0.870624" fill="#34343A"/>
<rect x="229.583" y="271.047" width="1.74125" height="1.74125" rx="0.870624" fill="#34343A"/>
<rect x="244.384" y="271.047" width="1.74125" height="1.74125" rx="0.870624" fill="#34343A"/>
<rect x="259.184" y="271.047" width="1.74125" height="1.74125" rx="0.870624" fill="#34343A"/>
<rect x="273.985" y="271.047" width="1.74125" height="1.74125" rx="0.870624" fill="#34343A"/>
<rect x="288.786" y="271.047" width="1.74125" height="1.74125" rx="0.870624" fill="#34343A"/>
<rect x="7.57397" y="285.848" width="1.74125" height="1.74125" rx="0.870624" fill="#34343A"/>
<rect x="22.3748" y="285.848" width="1.74125" height="1.74125" rx="0.870624" fill="#34343A"/>
<rect x="37.1753" y="285.848" width="1.74125" height="1.74125" rx="0.870624" fill="#34343A"/>
<rect x="51.9758" y="285.848" width="1.74125" height="1.74125" rx="0.870624" fill="#34343A"/>
<rect x="66.7764" y="285.848" width="1.74125" height="1.74125" rx="0.870624" fill="#34343A"/>
<rect x="81.5771" y="285.848" width="1.74125" height="1.74125" rx="0.870624" fill="#34343A"/>
<rect x="96.3777" y="285.848" width="1.74125" height="1.74125" rx="0.870624" fill="#34343A"/>
<rect x="111.178" y="285.848" width="1.74125" height="1.74125" rx="0.870624" fill="#34343A"/>
<rect x="125.979" y="285.848" width="1.74125" height="1.74125" rx="0.870624" fill="#34343A"/>
<rect x="140.78" y="285.848" width="1.74125" height="1.74125" rx="0.870624" fill="#34343A"/>
<rect x="155.58" y="285.848" width="1.74125" height="1.74125" rx="0.870624" fill="#34343A"/>
<rect x="170.381" y="285.848" width="1.74125" height="1.74125" rx="0.870624" fill="#34343A"/>
<rect x="185.181" y="285.848" width="1.74125" height="1.74125" rx="0.870624" fill="#34343A"/>
<rect x="199.982" y="285.848" width="1.74125" height="1.74125" rx="0.870624" fill="#34343A"/>
<rect x="214.782" y="285.848" width="1.74125" height="1.74125" rx="0.870624" fill="#34343A"/>
<rect x="229.583" y="285.848" width="1.74125" height="1.74125" rx="0.870624" fill="#34343A"/>
<rect x="244.384" y="285.848" width="1.74125" height="1.74125" rx="0.870624" fill="#34343A"/>
<rect x="259.184" y="285.848" width="1.74125" height="1.74125" rx="0.870624" fill="#34343A"/>
<rect x="273.985" y="285.848" width="1.74125" height="1.74125" rx="0.870624" fill="#34343A"/>
<rect x="288.786" y="285.848" width="1.74125" height="1.74125" rx="0.870624" fill="#34343A"/>
<rect x="7.57397" y="300.649" width="1.74125" height="1.74125" rx="0.870624" fill="#34343A"/>
<rect x="22.3748" y="300.649" width="1.74125" height="1.74125" rx="0.870624" fill="#34343A"/>
<rect x="37.1753" y="300.649" width="1.74125" height="1.74125" rx="0.870624" fill="#34343A"/>
<rect x="51.9758" y="300.649" width="1.74125" height="1.74125" rx="0.870624" fill="#34343A"/>
<rect x="66.7764" y="300.649" width="1.74125" height="1.74125" rx="0.870624" fill="#34343A"/>
<rect x="81.5771" y="300.649" width="1.74125" height="1.74125" rx="0.870624" fill="#34343A"/>
<rect x="96.3777" y="300.649" width="1.74125" height="1.74125" rx="0.870624" fill="#34343A"/>
<rect x="111.178" y="300.649" width="1.74125" height="1.74125" rx="0.870624" fill="#34343A"/>
<rect x="125.979" y="300.649" width="1.74125" height="1.74125" rx="0.870624" fill="#34343A"/>
<rect x="140.78" y="300.649" width="1.74125" height="1.74125" rx="0.870624" fill="#34343A"/>
<rect x="155.58" y="300.649" width="1.74125" height="1.74125" rx="0.870624" fill="#34343A"/>
<rect x="170.381" y="300.649" width="1.74125" height="1.74125" rx="0.870624" fill="#34343A"/>
<rect x="185.181" y="300.649" width="1.74125" height="1.74125" rx="0.870624" fill="#34343A"/>
<rect x="199.982" y="300.649" width="1.74125" height="1.74125" rx="0.870624" fill="#34343A"/>
<rect x="214.782" y="300.649" width="1.74125" height="1.74125" rx="0.870624" fill="#34343A"/>
<rect x="229.583" y="300.649" width="1.74125" height="1.74125" rx="0.870624" fill="#34343A"/>
<rect x="244.384" y="300.649" width="1.74125" height="1.74125" rx="0.870624" fill="#34343A"/>
<rect x="259.184" y="300.649" width="1.74125" height="1.74125" rx="0.870624" fill="#34343A"/>
<rect x="273.985" y="300.649" width="1.74125" height="1.74125" rx="0.870624" fill="#34343A"/>
<rect x="288.786" y="300.649" width="1.74125" height="1.74125" rx="0.870624" fill="#34343A"/>
<rect x="7.57397" y="315.449" width="1.74125" height="1.74125" rx="0.870624" fill="#34343A"/>
<rect x="22.3748" y="315.449" width="1.74125" height="1.74125" rx="0.870624" fill="#34343A"/>
<rect x="37.1753" y="315.449" width="1.74125" height="1.74125" rx="0.870624" fill="#34343A"/>
<rect x="51.9758" y="315.449" width="1.74125" height="1.74125" rx="0.870624" fill="#34343A"/>
<rect x="66.7764" y="315.449" width="1.74125" height="1.74125" rx="0.870624" fill="#34343A"/>
<rect x="81.5771" y="315.449" width="1.74125" height="1.74125" rx="0.870624" fill="#34343A"/>
<rect x="96.3777" y="315.449" width="1.74125" height="1.74125" rx="0.870624" fill="#34343A"/>
<rect x="111.178" y="315.449" width="1.74125" height="1.74125" rx="0.870624" fill="#34343A"/>
<rect x="125.979" y="315.449" width="1.74125" height="1.74125" rx="0.870624" fill="#34343A"/>
<rect x="140.78" y="315.449" width="1.74125" height="1.74125" rx="0.870624" fill="#34343A"/>
<rect x="155.58" y="315.449" width="1.74125" height="1.74125" rx="0.870624" fill="#34343A"/>
<rect x="170.381" y="315.449" width="1.74125" height="1.74125" rx="0.870624" fill="#34343A"/>
<rect x="185.181" y="315.449" width="1.74125" height="1.74125" rx="0.870624" fill="#34343A"/>
<rect x="199.982" y="315.449" width="1.74125" height="1.74125" rx="0.870624" fill="#34343A"/>
<rect x="214.782" y="315.449" width="1.74125" height="1.74125" rx="0.870624" fill="#34343A"/>
<rect x="229.583" y="315.449" width="1.74125" height="1.74125" rx="0.870624" fill="#34343A"/>
<rect x="244.384" y="315.449" width="1.74125" height="1.74125" rx="0.870624" fill="#34343A"/>
<rect x="259.184" y="315.449" width="1.74125" height="1.74125" rx="0.870624" fill="#34343A"/>
<rect x="273.985" y="315.449" width="1.74125" height="1.74125" rx="0.870624" fill="#34343A"/>
<rect x="288.786" y="315.449" width="1.74125" height="1.74125" rx="0.870624" fill="#34343A"/>
<rect x="7.57397" y="330.25" width="1.74125" height="1.74125" rx="0.870624" fill="#34343A"/>
<rect x="22.3748" y="330.25" width="1.74125" height="1.74125" rx="0.870624" fill="#34343A"/>
<rect x="37.1753" y="330.25" width="1.74125" height="1.74125" rx="0.870624" fill="#34343A"/>
<rect x="51.9758" y="330.25" width="1.74125" height="1.74125" rx="0.870624" fill="#34343A"/>
<rect x="66.7764" y="330.25" width="1.74125" height="1.74125" rx="0.870624" fill="#34343A"/>
<rect x="81.5771" y="330.25" width="1.74125" height="1.74125" rx="0.870624" fill="#34343A"/>
<rect x="96.3777" y="330.25" width="1.74125" height="1.74125" rx="0.870624" fill="#34343A"/>
<rect x="111.178" y="330.25" width="1.74125" height="1.74125" rx="0.870624" fill="#34343A"/>
<rect x="125.979" y="330.25" width="1.74125" height="1.74125" rx="0.870624" fill="#34343A"/>
<rect x="140.78" y="330.25" width="1.74125" height="1.74125" rx="0.870624" fill="#34343A"/>
<rect x="155.58" y="330.25" width="1.74125" height="1.74125" rx="0.870624" fill="#34343A"/>
<rect x="170.381" y="330.25" width="1.74125" height="1.74125" rx="0.870624" fill="#34343A"/>
<rect x="185.181" y="330.25" width="1.74125" height="1.74125" rx="0.870624" fill="#34343A"/>
<rect x="199.982" y="330.25" width="1.74125" height="1.74125" rx="0.870624" fill="#34343A"/>
<rect x="214.782" y="330.25" width="1.74125" height="1.74125" rx="0.870624" fill="#34343A"/>
<rect x="229.583" y="330.25" width="1.74125" height="1.74125" rx="0.870624" fill="#34343A"/>
<rect x="244.384" y="330.25" width="1.74125" height="1.74125" rx="0.870624" fill="#34343A"/>
<rect x="259.184" y="330.25" width="1.74125" height="1.74125" rx="0.870624" fill="#34343A"/>
<rect x="273.985" y="330.25" width="1.74125" height="1.74125" rx="0.870624" fill="#34343A"/>
<rect x="288.786" y="330.25" width="1.74125" height="1.74125" rx="0.870624" fill="#34343A"/>
<rect x="7.57397" y="345.051" width="1.74125" height="1.74125" rx="0.870624" fill="#34343A"/>
<rect x="22.3748" y="345.051" width="1.74125" height="1.74125" rx="0.870624" fill="#34343A"/>
<rect x="37.1753" y="345.051" width="1.74125" height="1.74125" rx="0.870624" fill="#34343A"/>
<rect x="51.9758" y="345.051" width="1.74125" height="1.74125" rx="0.870624" fill="#34343A"/>
<rect x="66.7764" y="345.051" width="1.74125" height="1.74125" rx="0.870624" fill="#34343A"/>
<rect x="81.5771" y="345.051" width="1.74125" height="1.74125" rx="0.870624" fill="#34343A"/>
<rect x="96.3777" y="345.051" width="1.74125" height="1.74125" rx="0.870624" fill="#34343A"/>
<rect x="111.178" y="345.051" width="1.74125" height="1.74125" rx="0.870624" fill="#34343A"/>
<rect x="125.979" y="345.051" width="1.74125" height="1.74125" rx="0.870624" fill="#34343A"/>
<rect x="140.78" y="345.051" width="1.74125" height="1.74125" rx="0.870624" fill="#34343A"/>
<rect x="155.58" y="345.051" width="1.74125" height="1.74125" rx="0.870624" fill="#34343A"/>
<rect x="170.381" y="345.051" width="1.74125" height="1.74125" rx="0.870624" fill="#34343A"/>
<rect x="185.181" y="345.051" width="1.74125" height="1.74125" rx="0.870624" fill="#34343A"/>
<rect x="199.982" y="345.051" width="1.74125" height="1.74125" rx="0.870624" fill="#34343A"/>
<rect x="214.782" y="345.051" width="1.74125" height="1.74125" rx="0.870624" fill="#34343A"/>
<rect x="229.583" y="345.051" width="1.74125" height="1.74125" rx="0.870624" fill="#34343A"/>
<rect x="244.384" y="345.051" width="1.74125" height="1.74125" rx="0.870624" fill="#34343A"/>
<rect x="259.184" y="345.051" width="1.74125" height="1.74125" rx="0.870624" fill="#34343A"/>
<rect x="273.985" y="345.051" width="1.74125" height="1.74125" rx="0.870624" fill="#34343A"/>
<rect x="288.786" y="345.051" width="1.74125" height="1.74125" rx="0.870624" fill="#34343A"/>
<rect x="7.57397" y="359.851" width="1.74125" height="1.74125" rx="0.870624" fill="#34343A"/>
<rect x="22.3748" y="359.851" width="1.74125" height="1.74125" rx="0.870624" fill="#34343A"/>
<rect x="37.1753" y="359.851" width="1.74125" height="1.74125" rx="0.870624" fill="#34343A"/>
<rect x="51.9758" y="359.851" width="1.74125" height="1.74125" rx="0.870624" fill="#34343A"/>
<rect x="66.7764" y="359.851" width="1.74125" height="1.74125" rx="0.870624" fill="#34343A"/>
<rect x="81.5771" y="359.851" width="1.74125" height="1.74125" rx="0.870624" fill="#34343A"/>
<rect x="96.3777" y="359.851" width="1.74125" height="1.74125" rx="0.870624" fill="#34343A"/>
<rect x="111.178" y="359.851" width="1.74125" height="1.74125" rx="0.870624" fill="#34343A"/>
<rect x="125.979" y="359.851" width="1.74125" height="1.74125" rx="0.870624" fill="#34343A"/>
<rect x="140.78" y="359.851" width="1.74125" height="1.74125" rx="0.870624" fill="#34343A"/>
<rect x="155.58" y="359.851" width="1.74125" height="1.74125" rx="0.870624" fill="#34343A"/>
<rect x="170.381" y="359.851" width="1.74125" height="1.74125" rx="0.870624" fill="#34343A"/>
<rect x="185.181" y="359.851" width="1.74125" height="1.74125" rx="0.870624" fill="#34343A"/>
<rect x="199.982" y="359.851" width="1.74125" height="1.74125" rx="0.870624" fill="#34343A"/>
<rect x="214.782" y="359.851" width="1.74125" height="1.74125" rx="0.870624" fill="#34343A"/>
<rect x="229.583" y="359.851" width="1.74125" height="1.74125" rx="0.870624" fill="#34343A"/>
<rect x="244.384" y="359.851" width="1.74125" height="1.74125" rx="0.870624" fill="#34343A"/>
<rect x="259.184" y="359.851" width="1.74125" height="1.74125" rx="0.870624" fill="#34343A"/>
<rect x="273.985" y="359.851" width="1.74125" height="1.74125" rx="0.870624" fill="#34343A"/>
<rect x="288.786" y="359.851" width="1.74125" height="1.74125" rx="0.870624" fill="#34343A"/>
<rect x="7.57397" y="374.652" width="1.74125" height="1.74125" rx="0.870624" fill="#34343A"/>
<rect x="22.3748" y="374.652" width="1.74125" height="1.74125" rx="0.870624" fill="#34343A"/>
<rect x="37.1753" y="374.652" width="1.74125" height="1.74125" rx="0.870624" fill="#34343A"/>
<rect x="51.9758" y="374.652" width="1.74125" height="1.74125" rx="0.870624" fill="#34343A"/>
<rect x="66.7764" y="374.652" width="1.74125" height="1.74125" rx="0.870624" fill="#34343A"/>
<rect x="81.5771" y="374.652" width="1.74125" height="1.74125" rx="0.870624" fill="#34343A"/>
<rect x="96.3777" y="374.652" width="1.74125" height="1.74125" rx="0.870624" fill="#34343A"/>
<rect x="111.178" y="374.652" width="1.74125" height="1.74125" rx="0.870624" fill="#34343A"/>
<rect x="125.979" y="374.652" width="1.74125" height="1.74125" rx="0.870624" fill="#34343A"/>
<rect x="140.78" y="374.652" width="1.74125" height="1.74125" rx="0.870624" fill="#34343A"/>
<rect x="155.58" y="374.652" width="1.74125" height="1.74125" rx="0.870624" fill="#34343A"/>
<rect x="170.381" y="374.652" width="1.74125" height="1.74125" rx="0.870624" fill="#34343A"/>
<rect x="185.181" y="374.652" width="1.74125" height="1.74125" rx="0.870624" fill="#34343A"/>
<rect x="199.982" y="374.652" width="1.74125" height="1.74125" rx="0.870624" fill="#34343A"/>
<rect x="214.782" y="374.652" width="1.74125" height="1.74125" rx="0.870624" fill="#34343A"/>
<rect x="229.583" y="374.652" width="1.74125" height="1.74125" rx="0.870624" fill="#34343A"/>
<rect x="244.384" y="374.652" width="1.74125" height="1.74125" rx="0.870624" fill="#34343A"/>
<rect x="259.184" y="374.652" width="1.74125" height="1.74125" rx="0.870624" fill="#34343A"/>
<rect x="273.985" y="374.652" width="1.74125" height="1.74125" rx="0.870624" fill="#34343A"/>
<rect x="288.786" y="374.652" width="1.74125" height="1.74125" rx="0.870624" fill="#34343A"/>
<rect x="7.57397" y="389.452" width="1.74125" height="1.74125" rx="0.870624" fill="#34343A"/>
<rect x="22.3748" y="389.452" width="1.74125" height="1.74125" rx="0.870624" fill="#34343A"/>
<rect x="37.1753" y="389.452" width="1.74125" height="1.74125" rx="0.870624" fill="#34343A"/>
<rect x="51.9758" y="389.452" width="1.74125" height="1.74125" rx="0.870624" fill="#34343A"/>
<rect x="66.7764" y="389.452" width="1.74125" height="1.74125" rx="0.870624" fill="#34343A"/>
<rect x="81.5771" y="389.452" width="1.74125" height="1.74125" rx="0.870624" fill="#34343A"/>
<rect x="96.3777" y="389.452" width="1.74125" height="1.74125" rx="0.870624" fill="#34343A"/>
<rect x="111.178" y="389.452" width="1.74125" height="1.74125" rx="0.870624" fill="#34343A"/>
<rect x="125.979" y="389.452" width="1.74125" height="1.74125" rx="0.870624" fill="#34343A"/>
<rect x="140.78" y="389.452" width="1.74125" height="1.74125" rx="0.870624" fill="#34343A"/>
<rect x="155.58" y="389.452" width="1.74125" height="1.74125" rx="0.870624" fill="#34343A"/>
<rect x="170.381" y="389.452" width="1.74125" height="1.74125" rx="0.870624" fill="#34343A"/>
<rect x="185.181" y="389.452" width="1.74125" height="1.74125" rx="0.870624" fill="#34343A"/>
<rect x="199.982" y="389.452" width="1.74125" height="1.74125" rx="0.870624" fill="#34343A"/>
<rect x="214.782" y="389.452" width="1.74125" height="1.74125" rx="0.870624" fill="#34343A"/>
<rect x="229.583" y="389.452" width="1.74125" height="1.74125" rx="0.870624" fill="#34343A"/>
<rect x="244.384" y="389.452" width="1.74125" height="1.74125" rx="0.870624" fill="#34343A"/>
<rect x="259.184" y="389.452" width="1.74125" height="1.74125" rx="0.870624" fill="#34343A"/>
<rect x="273.985" y="389.452" width="1.74125" height="1.74125" rx="0.870624" fill="#34343A"/>
<rect x="288.786" y="389.452" width="1.74125" height="1.74125" rx="0.870624" fill="#34343A"/>
<rect x="7.57397" y="404.253" width="1.74125" height="1.74125" rx="0.870624" fill="#34343A"/>
<rect x="22.3748" y="404.253" width="1.74125" height="1.74125" rx="0.870624" fill="#34343A"/>
<rect x="37.1753" y="404.253" width="1.74125" height="1.74125" rx="0.870624" fill="#34343A"/>
<rect x="51.9758" y="404.253" width="1.74125" height="1.74125" rx="0.870624" fill="#34343A"/>
<rect x="66.7764" y="404.253" width="1.74125" height="1.74125" rx="0.870624" fill="#34343A"/>
<rect x="81.5771" y="404.253" width="1.74125" height="1.74125" rx="0.870624" fill="#34343A"/>
<rect x="96.3777" y="404.253" width="1.74125" height="1.74125" rx="0.870624" fill="#34343A"/>
<rect x="111.178" y="404.253" width="1.74125" height="1.74125" rx="0.870624" fill="#34343A"/>
<rect x="125.979" y="404.253" width="1.74125" height="1.74125" rx="0.870624" fill="#34343A"/>
<rect x="140.78" y="404.253" width="1.74125" height="1.74125" rx="0.870624" fill="#34343A"/>
<rect x="155.58" y="404.253" width="1.74125" height="1.74125" rx="0.870624" fill="#34343A"/>
<rect x="170.381" y="404.253" width="1.74125" height="1.74125" rx="0.870624" fill="#34343A"/>
<rect x="185.181" y="404.253" width="1.74125" height="1.74125" rx="0.870624" fill="#34343A"/>
<rect x="199.982" y="404.253" width="1.74125" height="1.74125" rx="0.870624" fill="#34343A"/>
<rect x="214.782" y="404.253" width="1.74125" height="1.74125" rx="0.870624" fill="#34343A"/>
<rect x="229.583" y="404.253" width="1.74125" height="1.74125" rx="0.870624" fill="#34343A"/>
<rect x="244.384" y="404.253" width="1.74125" height="1.74125" rx="0.870624" fill="#34343A"/>
<rect x="259.184" y="404.253" width="1.74125" height="1.74125" rx="0.870624" fill="#34343A"/>
<rect x="273.985" y="404.253" width="1.74125" height="1.74125" rx="0.870624" fill="#34343A"/>
<rect x="288.786" y="404.253" width="1.74125" height="1.74125" rx="0.870624" fill="#34343A"/>
<rect x="7.57397" y="419.053" width="1.74125" height="1.74125" rx="0.870624" fill="#34343A"/>
<rect x="22.3748" y="419.053" width="1.74125" height="1.74125" rx="0.870624" fill="#34343A"/>
<rect x="37.1753" y="419.053" width="1.74125" height="1.74125" rx="0.870624" fill="#34343A"/>
<rect x="51.9758" y="419.053" width="1.74125" height="1.74125" rx="0.870624" fill="#34343A"/>
<rect x="66.7764" y="419.053" width="1.74125" height="1.74125" rx="0.870624" fill="#34343A"/>
<rect x="81.5771" y="419.053" width="1.74125" height="1.74125" rx="0.870624" fill="#34343A"/>
<rect x="96.3777" y="419.053" width="1.74125" height="1.74125" rx="0.870624" fill="#34343A"/>
<rect x="111.178" y="419.053" width="1.74125" height="1.74125" rx="0.870624" fill="#34343A"/>
<rect x="125.979" y="419.053" width="1.74125" height="1.74125" rx="0.870624" fill="#34343A"/>
<rect x="140.78" y="419.053" width="1.74125" height="1.74125" rx="0.870624" fill="#34343A"/>
<rect x="155.58" y="419.053" width="1.74125" height="1.74125" rx="0.870624" fill="#34343A"/>
<rect x="170.381" y="419.053" width="1.74125" height="1.74125" rx="0.870624" fill="#34343A"/>
<rect x="185.181" y="419.053" width="1.74125" height="1.74125" rx="0.870624" fill="#34343A"/>
<rect x="199.982" y="419.053" width="1.74125" height="1.74125" rx="0.870624" fill="#34343A"/>
<rect x="214.782" y="419.053" width="1.74125" height="1.74125" rx="0.870624" fill="#34343A"/>
<rect x="229.583" y="419.053" width="1.74125" height="1.74125" rx="0.870624" fill="#34343A"/>
<rect x="244.384" y="419.053" width="1.74125" height="1.74125" rx="0.870624" fill="#34343A"/>
<rect x="259.184" y="419.053" width="1.74125" height="1.74125" rx="0.870624" fill="#34343A"/>
<rect x="273.985" y="419.053" width="1.74125" height="1.74125" rx="0.870624" fill="#34343A"/>
<rect x="288.786" y="419.053" width="1.74125" height="1.74125" rx="0.870624" fill="#34343A"/>
<rect x="7.57397" y="433.854" width="1.74125" height="1.74125" rx="0.870624" fill="#34343A"/>
<rect x="22.3748" y="433.854" width="1.74125" height="1.74125" rx="0.870624" fill="#34343A"/>
<rect x="37.1753" y="433.854" width="1.74125" height="1.74125" rx="0.870624" fill="#34343A"/>
<rect x="51.9758" y="433.854" width="1.74125" height="1.74125" rx="0.870624" fill="#34343A"/>
<rect x="66.7764" y="433.854" width="1.74125" height="1.74125" rx="0.870624" fill="#34343A"/>
<rect x="81.5771" y="433.854" width="1.74125" height="1.74125" rx="0.870624" fill="#34343A"/>
<rect x="96.3777" y="433.854" width="1.74125" height="1.74125" rx="0.870624" fill="#34343A"/>
<rect x="111.178" y="433.854" width="1.74125" height="1.74125" rx="0.870624" fill="#34343A"/>
<rect x="125.979" y="433.854" width="1.74125" height="1.74125" rx="0.870624" fill="#34343A"/>
<rect x="140.78" y="433.854" width="1.74125" height="1.74125" rx="0.870624" fill="#34343A"/>
<rect x="155.58" y="433.854" width="1.74125" height="1.74125" rx="0.870624" fill="#34343A"/>
<rect x="170.381" y="433.854" width="1.74125" height="1.74125" rx="0.870624" fill="#34343A"/>
<rect x="185.181" y="433.854" width="1.74125" height="1.74125" rx="0.870624" fill="#34343A"/>
<rect x="199.982" y="433.854" width="1.74125" height="1.74125" rx="0.870624" fill="#34343A"/>
<rect x="214.782" y="433.854" width="1.74125" height="1.74125" rx="0.870624" fill="#34343A"/>
<rect x="229.583" y="433.854" width="1.74125" height="1.74125" rx="0.870624" fill="#34343A"/>
<rect x="244.384" y="433.854" width="1.74125" height="1.74125" rx="0.870624" fill="#34343A"/>
<rect x="259.184" y="433.854" width="1.74125" height="1.74125" rx="0.870624" fill="#34343A"/>
<rect x="273.985" y="433.854" width="1.74125" height="1.74125" rx="0.870624" fill="#34343A"/>
<rect x="288.786" y="433.854" width="1.74125" height="1.74125" rx="0.870624" fill="#34343A"/>
</g>
<rect x="1" width="290" height="448" fill="url(#paint0_radial_6603_23116)" fill-opacity="0.6"/>
<path d="M1 0H291V448H1V0Z" fill="url(#paint1_linear_6603_23116)"/>
<circle cx="30.9146" cy="199.558" r="1.55814" fill="#1C1C1F"/>
<circle cx="45.4573" cy="199.558" r="1.55814" fill="#1C1C1F"/>
<circle cx="52.7285" cy="199.558" r="1.55814" fill="#1C1C1F"/>
<circle cx="23.6436" cy="206.829" r="1.55814" fill="#1C1C1F"/>
<circle cx="30.9146" cy="206.829" r="1.55814" fill="#1C1C1F"/>
<circle cx="38.1861" cy="206.829" r="1.55814" fill="#504F57"/>
<circle cx="45.4573" cy="206.829" r="1.55814" fill="#1C1C1F"/>
<circle cx="16.3721" cy="214.101" r="1.55814" fill="#1C1C1F"/>
<circle cx="23.6436" cy="214.101" r="1.55814" fill="#1C1C1F"/>
<circle cx="30.9146" cy="214.101" r="1.55814" fill="#1C1C1F"/>
<circle cx="38.1861" cy="214.101" r="1.55814" fill="#1C1C1F"/>
<circle cx="16.3721" cy="221.372" r="1.55814" fill="#1C1C1F"/>
<circle cx="23.6436" cy="221.372" r="1.55814" fill="#504F57"/>
<circle cx="30.9146" cy="221.372" r="1.55814" fill="#1C1C1F"/>
<circle cx="9.10086" cy="228.643" r="1.55814" fill="#1C1C1F"/>
<circle cx="16.3721" cy="228.643" r="1.55814" fill="#1C1C1F"/>
<circle cx="23.6436" cy="228.643" r="1.55814" fill="#1C1C1F"/>
<circle cx="30.9146" cy="228.643" r="1.55814" fill="#1C1C1F"/>
<circle cx="60" cy="228.643" r="1.55814" fill="#1C1C1F"/>
<circle cx="67.2713" cy="228.643" r="1.55814" fill="#1C1C1F"/>
<circle cx="74.5428" cy="228.643" r="1.55814" fill="#1C1C1F"/>
<circle cx="81.814" cy="228.643" r="1.55814" fill="#1C1C1F"/>
<circle cx="96.3565" cy="228.643" r="1.55814" fill="#1C1C1F"/>
<circle cx="103.628" cy="228.643" r="1.55814" fill="#1C1C1F"/>
<circle cx="118.17" cy="228.643" r="1.55814" fill="#1C1C1F"/>
<circle cx="9.10086" cy="235.915" r="1.55814" fill="#1C1C1F"/>
<circle cx="16.3721" cy="235.915" r="1.55814" fill="#1C1C1F"/>
<circle cx="45.4573" cy="235.915" r="1.55814" fill="#1C1C1F"/>
<circle cx="52.7285" cy="235.915" r="1.55814" fill="#1C1C1F"/>
<circle cx="60" cy="235.915" r="1.55814" fill="#1C1C1F"/>
<circle cx="67.2713" cy="235.915" r="1.55814" fill="#504F57"/>
<circle cx="74.5428" cy="235.915" r="1.55814" fill="#1C1C1F"/>
<circle cx="81.814" cy="235.915" r="1.55814" fill="#1C1C1F"/>
<circle cx="89.0852" cy="235.915" r="1.55814" fill="#1C1C1F"/>
<circle cx="96.3565" cy="235.915" r="1.55814" fill="#1C1C1F"/>
<circle cx="103.628" cy="235.915" r="1.55814" fill="#1C1C1F"/>
<circle cx="110.899" cy="235.915" r="1.55814" fill="#1C1C1F"/>
<circle cx="118.17" cy="235.915" r="1.55814" fill="#1C1C1F"/>
<circle cx="16.3721" cy="243.186" r="1.55814" fill="#1C1C1F"/>
<circle cx="23.6436" cy="243.186" r="1.55814" fill="#1C1C1F"/>
<circle cx="45.4573" cy="243.186" r="1.55814" fill="#1C1C1F"/>
<circle cx="52.7285" cy="243.186" r="1.55814" fill="#1C1C1F"/>
<circle cx="60" cy="243.186" r="1.55814" fill="#1C1C1F"/>
<circle cx="67.2713" cy="243.186" r="1.55814" fill="#1C1C1F"/>
<circle cx="74.5428" cy="243.186" r="1.55814" fill="#1C1C1F"/>
<circle cx="81.814" cy="243.186" r="1.55814" fill="#1C1C1F"/>
<circle cx="89.0852" cy="243.186" r="1.55814" fill="#504F57"/>
<circle cx="96.3565" cy="243.186" r="1.55814" fill="#1C1C1F"/>
<circle cx="103.628" cy="243.186" r="1.55814" fill="#1C1C1F"/>
<circle cx="110.899" cy="243.186" r="1.55814" fill="#1C1C1F"/>
<circle cx="16.3721" cy="250.457" r="1.55814" fill="#1C1C1F"/>
<circle cx="23.6436" cy="250.457" r="1.55814" fill="#1C1C1F"/>
<circle cx="30.9146" cy="250.457" r="1.55814" fill="#1C1C1F"/>
<circle cx="38.1861" cy="250.457" r="1.55814" fill="#1C1C1F"/>
<circle cx="45.4573" cy="250.457" r="1.55814" fill="#1C1C1F"/>
<circle cx="52.7285" cy="250.457" r="1.55814" fill="#1C1C1F"/>
<circle cx="60" cy="250.457" r="1.55814" fill="#1C1C1F"/>
<circle cx="67.2713" cy="250.457" r="1.55814" fill="#1C1C1F"/>
<circle cx="74.5428" cy="250.457" r="1.55814" fill="#1C1C1F"/>
<circle cx="81.814" cy="250.457" r="1.55814" fill="#1C1C1F"/>
<circle cx="89.0852" cy="250.457" r="1.55814" fill="#1C1C1F"/>
<circle cx="96.3565" cy="250.457" r="1.55814" fill="#1C1C1F"/>
<circle cx="103.628" cy="250.457" r="1.55814" fill="#1C1C1F"/>
<circle cx="23.6436" cy="257.729" r="1.55814" fill="#1C1C1F"/>
<circle cx="30.9146" cy="257.729" r="1.55814" fill="#1C1C1F"/>
<circle cx="38.1861" cy="257.729" r="1.55814" fill="#1C1C1F"/>
<circle cx="96.3565" cy="257.729" r="1.55814" fill="#1C1C1F"/>
<circle cx="103.628" cy="257.729" r="1.55814" fill="#1C1C1F"/>
<circle cx="177.016" cy="185.628" r="1.62791" fill="#1C1C1F"/>
<circle cx="184.612" cy="185.628" r="1.62791" fill="#1C1C1F"/>
<circle cx="192.209" cy="185.628" r="1.62791" fill="#1C1C1F"/>
<circle cx="199.806" cy="185.628" r="1.62791" fill="#1C1C1F"/>
<circle cx="207.403" cy="185.628" r="1.62791" fill="#1C1C1F"/>
<circle cx="222.597" cy="185.628" r="1.62791" fill="#1C1C1F"/>
<circle cx="230.194" cy="185.628" r="1.62791" fill="#1C1C1F"/>
<circle cx="177.016" cy="193.225" r="1.62791" fill="#504F57"/>
<circle cx="184.612" cy="193.225" r="1.62791" fill="#1C1C1F"/>
<circle cx="215" cy="193.225" r="1.62791" fill="#1C1C1F"/>
<circle cx="222.597" cy="193.225" r="1.62791" fill="#1C1C1F"/>
<circle cx="230.194" cy="193.225" r="1.62791" fill="#1C1C1F"/>
<circle cx="245.388" cy="193.225" r="1.62791" fill="#1C1C1F"/>
<circle cx="252.985" cy="193.225" r="1.62791" fill="#1C1C1F"/>
<circle cx="268.178" cy="193.225" r="1.62791" fill="#1C1C1F"/>
<circle cx="169.419" cy="200.822" r="1.62791" fill="#1C1C1F"/>
<circle cx="177.016" cy="200.822" r="1.62791" fill="#1C1C1F"/>
<circle cx="184.612" cy="200.822" r="1.62791" fill="#1C1C1F"/>
<circle cx="192.209" cy="200.822" r="1.62791" fill="#1C1C1F"/>
<circle cx="199.806" cy="200.822" r="1.62791" fill="#1C1C1F"/>
<circle cx="207.403" cy="200.822" r="1.62791" fill="#1C1C1F"/>
<circle cx="215" cy="200.822" r="1.62791" fill="#1C1C1F"/>
<circle cx="222.597" cy="200.822" r="1.62791" fill="#1C1C1F"/>
<circle cx="230.194" cy="200.822" r="1.62791" fill="#1C1C1F"/>
<circle cx="237.791" cy="200.822" r="1.62791" fill="#1C1C1F"/>
<circle cx="245.388" cy="200.822" r="1.62791" fill="#1C1C1F"/>
<circle cx="252.985" cy="200.822" r="1.62791" fill="#504F57"/>
<circle cx="260.582" cy="200.822" r="1.62791" fill="#1C1C1F"/>
<circle cx="268.178" cy="200.822" r="1.62791" fill="#1C1C1F"/>
<circle cx="275.775" cy="200.822" r="1.62791" fill="#1C1C1F"/>
<circle cx="268.178" cy="208.419" r="1.62791" fill="#1C1C1F"/>
<circle cx="275.775" cy="208.419" r="1.62791" fill="#1C1C1F"/>
<circle cx="268.178" cy="216.015" r="1.62791" fill="#1C1C1F"/>
<circle cx="268.178" cy="223.612" r="1.62791" fill="#1C1C1F"/>
<circle cx="275.775" cy="223.612" r="1.62791" fill="#1C1C1F"/>
<circle cx="154.225" cy="231.209" r="1.62791" fill="#1C1C1F"/>
<circle cx="161.822" cy="231.209" r="1.62791" fill="#1C1C1F"/>
<circle cx="169.419" cy="231.209" r="1.62791" fill="#1C1C1F"/>
<circle cx="177.016" cy="231.209" r="1.62791" fill="#1C1C1F"/>
<circle cx="184.612" cy="231.209" r="1.62791" fill="#1C1C1F"/>
<circle cx="192.209" cy="231.209" r="1.62791" fill="#1C1C1F"/>
<circle cx="199.806" cy="231.209" r="1.62791" fill="#1C1C1F"/>
<circle cx="207.403" cy="231.209" r="1.62791" fill="#1C1C1F"/>
<circle cx="215" cy="231.209" r="1.62791" fill="#1C1C1F"/>
<circle cx="222.597" cy="231.209" r="1.62791" fill="#1C1C1F"/>
<circle cx="230.194" cy="231.209" r="1.62791" fill="#1C1C1F"/>
<circle cx="237.791" cy="231.209" r="1.62791" fill="#1C1C1F"/>
<circle cx="245.388" cy="231.209" r="1.62791" fill="#1C1C1F"/>
<circle cx="252.985" cy="231.209" r="1.62791" fill="#1C1C1F"/>
<circle cx="260.582" cy="231.209" r="1.62791" fill="#1C1C1F"/>
<circle cx="268.178" cy="231.209" r="1.62791" fill="#1C1C1F"/>
<circle cx="275.775" cy="231.209" r="1.62791" fill="#1C1C1F"/>
<circle cx="283.372" cy="231.209" r="1.62791" fill="#504F57"/>
<circle cx="161.822" cy="238.806" r="1.62791" fill="#1C1C1F"/>
<circle cx="169.419" cy="238.806" r="1.62791" fill="#1C1C1F"/>
<circle cx="177.016" cy="238.806" r="1.62791" fill="#1C1C1F"/>
<circle cx="184.612" cy="238.806" r="1.62791" fill="#1C1C1F"/>
<circle cx="192.209" cy="238.806" r="1.62791" fill="#1C1C1F"/>
<circle cx="207.403" cy="238.806" r="1.62791" fill="#1C1C1F"/>
<circle cx="215" cy="238.806" r="1.62791" fill="#1C1C1F"/>
<circle cx="222.597" cy="238.806" r="1.62791" fill="#504F57"/>
<circle cx="230.194" cy="238.806" r="1.62791" fill="#1C1C1F"/>
<circle cx="237.791" cy="238.806" r="1.62791" fill="#1C1C1F"/>
<circle cx="245.388" cy="238.806" r="1.62791" fill="#1C1C1F"/>
<circle cx="252.985" cy="238.806" r="1.62791" fill="#1C1C1F"/>
<circle cx="260.582" cy="238.806" r="1.62791" fill="#1C1C1F"/>
<circle cx="268.178" cy="238.806" r="1.62791" fill="#1C1C1F"/>
<circle cx="275.775" cy="238.806" r="1.62791" fill="#1C1C1F"/>
<circle cx="161.822" cy="246.403" r="1.62791" fill="#1C1C1F"/>
<circle cx="177.016" cy="246.403" r="1.62791" fill="#1C1C1F"/>
<circle cx="184.612" cy="246.403" r="1.62791" fill="#1C1C1F"/>
<circle cx="215" cy="246.403" r="1.62791" fill="#1C1C1F"/>
<circle cx="222.597" cy="246.403" r="1.62791" fill="#1C1C1F"/>
<circle cx="237.791" cy="246.403" r="1.62791" fill="#1C1C1F"/>
<circle cx="245.388" cy="246.403" r="1.62791" fill="#1C1C1F"/>
<circle cx="252.985" cy="246.403" r="1.62791" fill="#1C1C1F"/>
<circle cx="245.388" cy="254" r="1.62791" fill="#1C1C1F"/>
<circle cx="252.985" cy="254" r="1.62791" fill="#1C1C1F"/>
<path d="M69.0774 207.758C65.4453 211.391 65.4453 217.286 69.0774 220.918C72.7095 224.551 78.6053 224.551 82.2374 220.918C85.8695 217.286 85.8695 211.391 82.2374 207.758C78.6053 204.126 72.7095 204.126 69.0774 207.758ZM78.9287 217.61C77.1376 219.401 74.2021 219.401 72.4109 217.61C70.6198 215.819 70.6198 212.883 72.4109 211.092C74.2021 209.301 77.1376 209.301 78.9287 211.092C80.7199 212.883 80.7199 215.819 78.9287 217.61ZM87.7353 209.649H91.641V211.614C92.5863 210.321 93.9048 209.375 95.9198 209.375C99.129 209.375 102.189 211.888 102.189 216.49V216.54C102.189 221.142 99.1787 223.655 95.9198 223.655C93.8302 223.655 92.5614 222.71 91.641 221.59V227.486H87.7353V209.649ZM98.2832 216.565V216.515C98.2832 214.227 96.7408 212.709 94.9248 212.709C93.1087 212.709 91.5912 214.227 91.5912 216.515V216.565C91.5912 218.854 93.1087 220.371 94.9248 220.371C96.7408 220.346 98.2832 218.879 98.2832 216.565ZM104.95 216.59V216.54C104.95 212.634 107.736 209.4 111.717 209.4C116.294 209.4 118.384 212.958 118.384 216.839C118.384 217.137 118.359 217.51 118.334 217.859H108.806C109.179 219.625 110.423 220.545 112.165 220.545C113.458 220.545 114.404 220.147 115.498 219.152L117.712 221.118C116.443 222.71 114.603 223.68 112.115 223.68C107.985 223.655 104.95 220.769 104.95 216.59ZM114.603 215.421C114.379 213.679 113.359 212.51 111.717 212.51C110.1 212.51 109.055 213.654 108.756 215.421H114.603ZM121.17 209.649H125.15V211.639C126.071 210.47 127.24 209.4 129.255 209.4C132.265 209.4 134.007 211.391 134.007 214.6V223.655H130.026V215.844C130.026 213.953 129.131 213.008 127.613 213.008C126.096 213.008 125.126 213.978 125.126 215.844V223.655H121.145V209.649H121.17ZM82.0881 162.009L76.3913 167.706C75.2718 168.826 75.2718 170.642 76.3913 171.761L98.6563 194.026C99.7758 195.146 101.592 195.146 102.711 194.026L108.408 188.329C109.528 187.21 109.528 185.394 108.408 184.274L86.1431 162.009C85.0236 160.89 83.2076 160.89 82.0881 162.009ZM42.1603 234.825C43.1803 233.805 43.1803 232.163 42.1603 231.143L39.2497 228.232C38.2297 227.212 36.5878 227.212 35.5679 228.232L29.5974 234.203L27.9555 232.561C27.0599 231.665 25.5673 231.665 24.6717 232.561C23.7761 233.457 23.7761 234.949 24.6717 235.845L34.5479 245.721C35.4435 246.617 36.9361 246.617 37.8317 245.721C38.7273 244.825 38.7273 243.333 37.8317 242.437L36.1898 240.795L42.1603 234.825Z" fill="#EDEDEF" fill-opacity="0.72"/>
<path d="M72.3114 178.354L59.6489 191.016C58.5294 192.136 58.5294 194.001 59.6489 195.121L67.4603 202.932C72.983 198.952 80.7447 199.45 85.7201 204.425L92.0389 198.106C93.1584 196.987 93.1584 195.121 92.0389 194.001L76.4161 178.379C75.2717 177.234 73.4308 177.234 72.3114 178.354ZM64.1765 206.241L59.5494 201.614C58.4797 200.544 56.6885 200.544 55.6188 201.614L39.3243 217.908C38.2545 218.978 38.2545 220.769 39.3243 221.839L48.5537 231.068C49.6234 232.138 51.4146 232.138 52.4843 231.068L62.9576 220.595C60.7684 215.993 61.1664 210.47 64.1765 206.241ZM141.37 208.803H135.698V205.022H151.147V208.803H145.475V223.655H141.37V208.803ZM151.172 216.565V216.515C151.172 212.61 153.958 209.376 157.939 209.376C162.516 209.376 164.606 212.933 164.606 216.814C164.606 217.112 164.581 217.485 164.556 217.834H155.028C155.401 219.6 156.645 220.52 158.386 220.52C159.68 220.52 160.625 220.122 161.72 219.127L163.934 221.093C162.665 222.685 160.824 223.655 158.337 223.655C154.207 223.655 151.172 220.769 151.172 216.565ZM160.824 215.421C160.6 213.679 159.58 212.51 157.939 212.51C156.321 212.51 155.277 213.654 154.978 215.421H160.824ZM167.367 205.022H171.248V223.655H167.367V205.022ZM174.009 216.59V216.54C174.009 212.634 176.795 209.4 180.776 209.4C185.353 209.4 187.443 212.958 187.443 216.839C187.443 217.137 187.418 217.51 187.393 217.859H177.865C178.238 219.625 179.482 220.545 181.224 220.545C182.517 220.545 183.462 220.147 184.557 219.152L186.771 221.118C185.502 222.71 183.661 223.68 181.174 223.68C177.069 223.655 174.009 220.769 174.009 216.59ZM183.686 215.446C183.462 213.704 182.443 212.535 180.801 212.535C179.184 212.535 178.139 213.679 177.84 215.446H183.686ZM190.229 209.649H194.209V211.639C195.13 210.47 196.324 209.4 198.339 209.4C200.155 209.4 201.548 210.221 202.27 211.614C203.489 210.172 204.956 209.4 206.872 209.4C209.832 209.4 211.599 211.167 211.599 214.55V223.655H207.618V215.844C207.618 213.953 206.772 213.008 205.305 213.008C203.812 213.008 202.892 213.978 202.892 215.844V223.655H198.911V215.844C198.911 213.953 198.065 213.008 196.598 213.008C195.105 213.008 194.185 213.978 194.185 215.844V223.655H190.204V209.649H190.229ZM214.36 216.565V216.515C214.36 212.61 217.146 209.376 221.126 209.376C225.704 209.376 227.794 212.933 227.794 216.814C227.794 217.112 227.769 217.485 227.744 217.834H218.216C218.589 219.6 219.833 220.52 221.574 220.52C222.868 220.52 223.813 220.122 224.908 219.127L227.122 221.093C225.853 222.685 224.012 223.655 221.524 223.655C217.395 223.655 214.36 220.769 214.36 216.565ZM224.012 215.421C223.788 213.679 222.768 212.51 221.126 212.51C219.509 212.51 218.465 213.654 218.166 215.421H224.012ZM231.003 219.426V212.734H229.311V209.301H231.003V205.694H235.008V209.301H238.341V212.734H235.033V218.754C235.033 219.675 235.431 220.122 236.326 220.122C237.073 220.122 237.72 219.948 238.292 219.625V222.834C237.446 223.332 236.476 223.655 235.132 223.655C232.669 223.655 231.003 222.685 231.003 219.426ZM241.352 209.55H245.382V212.411C246.203 210.445 247.521 209.177 249.909 209.276V213.505H249.685C246.999 213.505 245.357 215.122 245.357 218.53V223.779H241.327V209.55H241.352ZM262.721 209.4H267L261.427 224.277C260.308 227.237 259.114 228.332 256.651 228.332C255.158 228.332 254.064 227.959 252.994 227.337L254.362 224.352C254.91 224.675 255.581 224.924 256.129 224.924C256.825 224.924 257.223 224.7 257.571 223.978L251.875 209.4H256.228L259.537 219.277L262.721 209.4Z" fill="#EDEDEF"/>
</g>
<defs>
<radialGradient id="paint0_radial_6603_23116" cx="0" cy="0" r="1" gradientUnits="userSpaceOnUse" gradientTransform="translate(132.598 -1.13478e-05) rotate(79.691) scale(253.086 542.111)">
<stop stop-color="#6D6D6D" stop-opacity="0.31"/>
<stop offset="1" stop-opacity="0"/>
</radialGradient>
<linearGradient id="paint1_linear_6603_23116" x1="145.67" y1="369.5" x2="168.291" y2="9.9231" gradientUnits="userSpaceOnUse">
<stop/>
<stop offset="1" stop-opacity="0"/>
</linearGradient>
<clipPath id="clip0_6603_23116">
<rect width="291" height="448" fill="white"/>
</clipPath>
</defs>
</svg>
