<svg width="135" height="135" viewBox="0 0 135 135" fill="none" xmlns="http://www.w3.org/2000/svg">
<rect x="0.5" y="0.5" width="134" height="134" rx="7.5" fill="#30294E"/>
<g clip-path="url(#clip0_5869_50551)">
<path d="M67.37 23.0449L25.5303 37.7694L32.1421 92.5861L67.4142 111.972L102.869 92.3234L109.478 37.5086L67.37 23.0449Z" fill="#B3B3B3"/>
<path d="M105.304 40.6765L67.272 27.707V107.34L99.1446 89.7007L105.304 40.6765Z" fill="#A6120D"/>
<path d="M30.2251 40.9105L35.8909 89.9354L67.2714 107.341V27.7061L30.2254 40.9102L30.2251 40.9105Z" fill="#DD1B16"/>
<path d="M77.7414 70.1004L67.2724 74.9961H56.2382L51.0513 87.9698L41.4038 88.1481L67.2724 30.5996L77.7414 70.1007V70.1004ZM76.7294 67.6357L67.342 49.0513L59.6416 67.3158H67.272L76.7294 67.636V67.6357Z" fill="#F2F2F2"/>
<path d="M67.272 30.5986L67.3413 49.0507L76.0785 67.3294H67.2918L67.272 74.9836L79.4222 74.9951L85.1008 88.1494L94.3321 88.3204L67.272 30.5986Z" fill="#B3B3B3"/>
</g>
<rect x="0.5" y="0.5" width="134" height="134" rx="7.5" stroke="#30294E"/>
<defs>
<clipPath id="clip0_5869_50551">
<rect width="84.5" height="89.135" fill="white" transform="translate(25.25 22.9326)"/>
</clipPath>
</defs>
</svg>
