<svg width="135" height="135" viewBox="0 0 135 135" fill="none" xmlns="http://www.w3.org/2000/svg">
<rect x="0.5" y="0.5" width="134" height="134" rx="7.5" fill="#30294E"/>
<path d="M107.785 39.7587C105.67 39.7587 103.959 38.0446 103.959 35.9328C103.959 33.818 105.67 32.1069 107.785 32.1069C109.897 32.1069 111.611 33.818 111.611 35.9328C111.611 38.0446 109.897 39.7587 107.785 39.7587ZM69.7878 105.127C67.673 105.127 65.9619 103.413 65.9619 101.301C65.9619 99.1867 67.673 97.4756 69.7878 97.4756C71.8996 97.4756 73.6107 99.1867 73.6107 101.301C73.6107 103.413 71.8996 105.127 69.7878 105.127ZM107.785 28.9287C103.917 28.9287 100.781 32.0647 100.781 35.9328C100.781 36.7582 100.988 37.5264 101.251 38.2615L68.393 94.5775C65.2178 95.2433 62.7837 97.9275 62.7837 101.301C62.7837 105.17 65.9197 108.306 69.7878 108.306C73.6529 108.306 76.7889 105.17 76.7889 101.301C76.7889 100.524 76.581 99.8133 76.3491 99.1144L109.372 42.6146C112.451 41.8765 114.789 39.2375 114.789 35.9328C114.789 32.0647 111.653 28.9287 107.785 28.9287Z" fill="#55B5AA"/>
<path d="M79.1266 39.7587C77.0118 39.7587 75.3007 38.0446 75.3007 35.9328C75.3007 33.818 77.0118 32.1069 79.1266 32.1069C81.2384 32.1069 82.9495 33.818 82.9495 35.9328C82.9495 38.0446 81.2384 39.7587 79.1266 39.7587ZM41.1267 105.127C39.0149 105.127 37.3008 103.413 37.3008 101.301C37.3008 99.1867 39.0149 97.4756 41.1267 97.4756C43.2415 97.4756 44.9526 99.1867 44.9526 101.301C44.9526 103.413 43.2415 105.127 41.1267 105.127ZM79.1266 28.9287C75.2555 28.9287 72.1225 32.0647 72.1225 35.9328C72.1225 36.7582 72.3304 37.5264 72.5925 38.2615L39.7349 94.5775C36.5567 95.2433 34.1226 97.9275 34.1226 101.301C34.1226 105.17 37.2586 108.306 41.1267 108.306C44.9947 108.306 48.1308 105.17 48.1308 101.301C48.1308 100.524 47.9229 99.8133 47.6909 99.1144L80.7142 42.6146C83.793 41.8765 86.1307 39.2375 86.1307 35.9328C86.1307 32.0647 82.9917 28.9287 79.1266 28.9287Z" fill="#62879E"/>
<path d="M26.7932 51.4682C28.905 51.4682 30.6191 53.1824 30.6191 55.2941C30.6191 57.4059 28.905 59.12 26.7932 59.12C24.6784 59.12 22.9673 57.4059 22.9673 55.2941C22.9673 53.1824 24.6784 51.4682 26.7932 51.4682ZM26.7932 62.2983C30.6613 62.2983 33.7973 59.1622 33.7973 55.2941C33.7973 54.5199 33.5864 53.806 33.3545 53.1071C32.4266 50.3265 29.884 48.29 26.7932 48.29C26.2991 48.29 25.8653 48.4738 25.3984 48.5732C22.2232 49.236 19.7891 51.9201 19.7891 55.2941C19.7891 59.1622 22.9251 62.2983 26.7932 62.2983Z" fill="#62879E"/>
<path d="M22.9673 79.7678C22.9673 77.653 24.6814 75.9419 26.7932 75.9419C28.905 75.9419 30.6191 77.653 30.6191 79.7678C30.6191 81.8796 28.905 83.5907 26.7932 83.5907C24.6814 83.5907 22.9673 81.8796 22.9673 79.7678ZM33.7973 79.7678C33.7973 78.9905 33.5864 78.2796 33.3545 77.5807C32.4266 74.8001 29.887 72.7637 26.7932 72.7637C26.2991 72.7637 25.8653 72.9474 25.3984 73.0438C22.2232 73.7096 19.7891 76.3938 19.7891 79.7678C19.7891 83.6328 22.9251 86.7719 26.7932 86.7719C30.6613 86.7719 33.7973 83.6328 33.7973 79.7678Z" fill="#62879E"/>
<rect x="0.5" y="0.5" width="134" height="134" rx="7.5" stroke="#30294E"/>
</svg>
