<svg width="135" height="135" viewBox="0 0 135 135" fill="none" xmlns="http://www.w3.org/2000/svg">
<rect x="0.5" y="0.5" width="134" height="134" rx="7.5" fill="#30294E"/>
<path fill-rule="evenodd" clip-rule="evenodd" d="M39 39C39 33.7533 43.2533 29.5 48.5 29.5H70.2825C72.802 29.5 75.2184 30.5009 77 32.2825L93.2175 48.5C94.9991 50.2816 96 52.698 96 55.2175V96C96 101.247 91.7467 105.5 86.5 105.5H48.5C43.2533 105.5 39 101.247 39 96V39ZM48.5 67.5C48.5 64.8766 50.6266 62.75 53.25 62.75H81.75C84.3734 62.75 86.5 64.8766 86.5 67.5C86.5 70.1234 84.3734 72.25 81.75 72.25H53.25C50.6266 72.25 48.5 70.1234 48.5 67.5ZM53.25 81.75C50.6266 81.75 48.5 83.8766 48.5 86.5C48.5 89.1234 50.6266 91.25 53.25 91.25H81.75C84.3734 91.25 86.5 89.1234 86.5 86.5C86.5 83.8766 84.3734 81.75 81.75 81.75H53.25Z" fill="#DFDFDF"/>
<rect x="0.5" y="0.5" width="134" height="134" rx="7.5" stroke="#30294E"/>
</svg>
