<svg width="135" height="135" viewBox="0 0 135 135" fill="none" xmlns="http://www.w3.org/2000/svg">
<rect x="0.5" y="0.5" width="134" height="134" rx="7.5" fill="#30294E"/>
<g clip-path="url(#clip0_5869_51948)">
<path d="M67.5 111.5C91.8005 111.5 111.5 91.8005 111.5 67.5C111.5 43.1995 91.8005 23.5 67.5 23.5C43.1995 23.5 23.5 43.1995 23.5 67.5C23.5 91.8005 43.1995 111.5 67.5 111.5Z" fill="#663399"/>
<path d="M42.9859 92.0146C36.3859 85.4146 32.9287 76.6146 32.9287 68.1289L67.1859 102.072C58.3859 101.757 49.5859 98.6146 42.9859 92.0146Z" fill="white"/>
<path d="M75.043 101.129L33.8716 59.9573C37.3287 44.5573 51.1573 32.9287 67.5002 32.9287C79.1287 32.9287 89.1859 38.5859 95.4716 47.0716L90.7573 51.1573C85.4144 43.9287 76.9287 39.2144 67.5002 39.2144C55.243 39.2144 44.8716 47.0716 40.7859 58.0716L76.9287 94.2144C86.043 91.0716 92.9573 83.2144 95.1573 73.7859H80.0716V67.5001H102.072C102.072 83.843 90.443 97.6716 75.043 101.129Z" fill="white"/>
</g>
<rect x="0.5" y="0.5" width="134" height="134" rx="7.5" stroke="#30294E"/>
<defs>
<clipPath id="clip0_5869_51948">
<rect width="88" height="88" fill="white" transform="translate(23.5 23.5)"/>
</clipPath>
</defs>
</svg>
