<svg width="135" height="135" viewBox="0 0 135 135" fill="none" xmlns="http://www.w3.org/2000/svg">
<rect x="0.5" y="0.5" width="134" height="134" rx="7.5" fill="#30294E"/>
<path d="M66.5036 56.6227C62.4565 57.6505 59.6942 58.4214 55.7114 59.4492C54.7478 59.7062 54.6836 59.7704 53.8485 58.8068C52.8849 57.7148 52.1783 57.0082 50.8293 56.3658C46.7822 54.3744 42.8636 54.9525 39.202 57.3293C34.8337 60.1559 32.5854 64.3314 32.6496 69.5348C32.7139 74.6739 36.247 78.9137 41.3219 79.6203C45.6901 80.1984 49.3518 78.6567 52.2425 75.3805C52.8207 74.6739 53.3346 73.903 53.977 73.0037C51.6644 73.0037 48.7736 73.0037 41.5788 73.0037C40.2298 73.0037 39.9086 72.1686 40.3583 71.0765C41.1934 69.0851 42.7351 65.7447 43.6345 64.0744C43.8272 63.689 44.2769 63.0466 45.2405 63.0466C48.5167 63.0466 60.5936 63.0466 68.6235 63.0466C68.495 64.7811 68.495 66.5155 68.238 68.25C67.5314 72.8752 65.797 77.115 62.9704 80.8408C58.3452 86.9435 52.3068 90.7336 44.6623 91.7615C38.3669 92.5966 32.5211 91.376 27.382 87.5217C22.6283 83.9243 19.9303 79.1706 19.2237 73.2606C18.3885 66.2586 20.4442 59.9632 24.684 54.4386C29.2449 48.4644 35.2834 44.6743 42.6709 43.3252C48.7094 42.2332 54.4909 42.9398 59.6942 46.473C63.0989 48.7213 65.54 51.8048 67.146 55.5307C67.5314 56.1088 67.2744 56.43 66.5036 56.6227Z" fill="#5DC9E1"/>
<path d="M87.7667 92.1468C81.921 92.0183 76.5891 90.3481 72.0924 86.4938C68.3023 83.2176 65.9254 79.042 65.1546 74.0956C63.9983 66.8366 65.9897 60.4127 70.3579 54.6954C75.0474 48.5285 80.7004 45.3165 88.3449 43.9675C94.8972 42.8112 101.064 43.4536 106.653 47.2437C111.728 50.7126 114.876 55.4021 115.711 61.569C116.803 70.2413 114.297 77.3076 108.323 83.346C104.083 87.65 98.8801 90.3481 92.9058 91.5686C91.1714 91.8898 89.4369 91.9541 87.7667 92.1468ZM103.056 66.1942C102.991 65.3591 102.991 64.7167 102.863 64.0743C101.707 57.7147 95.8608 54.1173 89.7581 55.5305C83.7839 56.8796 79.9295 60.6697 78.5163 66.7081C77.36 71.7188 79.8011 76.7937 84.4263 78.8493C87.9594 80.391 91.4926 80.1983 94.8972 78.4639C99.9721 75.8301 102.734 71.7188 103.056 66.1942Z" fill="#5DC9E1"/>
<rect x="0.5" y="0.5" width="134" height="134" rx="7.5" stroke="#30294E"/>
</svg>
