<svg width="24" height="24" viewBox="0 0 24 24" fill="none" xmlns="http://www.w3.org/2000/svg">
<g clip-path="url(#clip0_5931_62527)">
<path d="M24 0H0V24H24V0Z" fill="#FB651E"/>
<path d="M11.1912 13.57L7.07178 5.85303H8.95442L11.3776 10.7367C11.4149 10.8237 11.4584 10.9138 11.5081 11.007C11.5578 11.1002 11.6013 11.1965 11.6386 11.2959C11.6634 11.3332 11.6821 11.3674 11.6945 11.3984C11.7069 11.4295 11.7194 11.4575 11.7318 11.4823C11.7939 11.6066 11.8498 11.7277 11.8995 11.8458C11.9492 11.9638 11.9927 12.0726 12.03 12.172C12.1294 11.9607 12.2382 11.7339 12.3562 11.4916C12.4743 11.2493 12.5954 10.9977 12.7197 10.7367L15.1802 5.85303H16.9323L12.7756 13.6632V18.6401H11.1912V13.57Z" fill="white"/>
</g>
<defs>
<clipPath id="clip0_5931_62527">
<rect width="24" height="24" rx="4" fill="white"/>
</clipPath>
</defs>
</svg>
