<svg width="135" height="135" viewBox="0 0 135 135" fill="none" xmlns="http://www.w3.org/2000/svg">
<rect x="0.467573" y="0.467573" width="134.065" height="134.065" rx="7.53243" fill="#30294E"/>
<path d="M63.6171 21.3436C65.9846 20.003 69.0032 19.9971 71.3116 21.3436L106.659 41.2695C108.87 42.5124 110.349 44.9776 110.329 47.5257V87.478C110.343 90.1326 108.719 92.6511 106.387 93.8703L71.2287 113.704C70.0262 114.369 68.6677 114.699 67.2943 114.661C65.9209 114.623 64.5827 114.218 63.4188 113.488L52.8684 107.392C52.1493 106.963 51.3414 106.623 50.8323 105.927C51.2822 105.323 52.0812 105.246 52.7323 104.98C54.2002 104.512 55.5438 103.796 56.8933 103.039C57.2336 102.802 57.6509 102.891 57.9764 103.104L66.9731 108.306C67.6153 108.676 68.2663 108.188 68.8168 107.877L103.339 88.3954C103.765 88.1882 104.001 87.7384 103.966 87.2708V47.7033C104.013 47.1706 103.708 46.6852 103.226 46.4692L68.1568 26.7209C67.9547 26.5811 67.715 26.506 67.4692 26.5055C67.2235 26.5049 66.9834 26.579 66.7807 26.7179L31.7618 46.5076C31.2883 46.7237 30.9627 47.2031 31.0219 47.7358V87.3034C30.9805 87.771 31.2291 88.2119 31.6582 88.4132L41.0159 93.6957C42.7738 94.6427 44.9312 95.1754 46.8667 94.48C47.7137 94.1608 48.4428 93.5903 48.9564 92.845C49.47 92.0997 49.7436 91.2153 49.7403 90.3101L49.7492 50.9793C49.7078 50.3963 50.2582 49.9139 50.8235 49.9731H55.3218C55.9137 49.9583 56.3783 50.5857 56.2984 51.1717L56.2895 90.7511C56.2925 94.2669 54.8483 98.0905 51.5959 99.8158C47.5888 101.887 42.6347 101.452 38.675 99.4607L28.613 93.897C26.2454 92.7132 24.6562 90.1563 24.671 87.5046V47.5523C24.6808 46.2538 25.0378 44.9816 25.7049 43.8675C26.372 42.7534 27.325 41.838 28.465 41.2162L63.6171 21.3436ZM73.8093 49.038C78.9203 48.742 84.3923 48.8426 88.9912 51.3611C92.5514 53.2907 94.5253 57.3392 94.5905 61.2989C94.4898 61.8316 93.9335 62.1275 93.4244 62.089C91.9447 62.0861 90.4591 62.1098 88.9735 62.0802C88.3431 62.1038 87.9791 61.5238 87.8992 60.9674C87.473 59.0734 86.4402 57.2001 84.6586 56.2856C81.9241 54.9154 78.7516 54.9834 75.7685 55.013C73.5903 55.1314 71.2494 55.3179 69.4057 56.5963C67.9852 57.567 67.559 59.5558 68.0651 61.1006C68.5386 62.234 69.8496 62.5981 70.918 62.9354C77.0795 64.5454 83.6051 64.4151 89.6512 66.5075C92.1519 67.3716 94.5993 69.0526 95.4576 71.6717C96.5762 75.1815 96.0879 79.378 93.5931 82.1954C91.5689 84.5156 88.6213 85.7467 85.6767 86.4629C81.7613 87.3359 77.701 87.3566 73.7265 86.966C69.9887 86.5398 66.1 85.5573 63.2146 83.0122C60.7464 80.8696 59.5449 77.5313 59.6633 74.3115C59.6929 73.7669 60.2345 73.3881 60.7583 73.4325H65.1974C65.7952 73.3911 66.2332 73.906 66.2628 74.4683C66.538 76.244 67.2157 78.1676 68.7902 79.2034C71.8265 81.1626 75.6353 81.0264 79.1097 81.0826C81.9892 80.9554 85.2209 80.9169 87.5736 79.011C88.8166 77.9249 89.1806 76.1108 88.8462 74.5482C88.4822 73.2283 87.0705 72.6157 85.8868 72.1807C79.8051 70.2571 73.2056 70.9555 67.1832 68.7773C64.7387 67.9132 62.3741 66.2796 61.436 63.767C60.125 60.2157 60.7257 55.815 63.4869 53.0924C66.1504 50.3845 70.0568 49.3398 73.7561 48.9669L73.8093 49.038Z" fill="#8CC84B"/>
<rect x="0.467573" y="0.467573" width="134.065" height="134.065" rx="7.53243" stroke="#30294E" stroke-width="0.935145"/>
</svg>
