<svg width="135" height="135" viewBox="0 0 135 135" fill="none" xmlns="http://www.w3.org/2000/svg">
<rect x="0.5" y="0.5" width="134" height="134" rx="7.5" fill="#30294E"/>
<g clip-path="url(#clip0_5869_50543)">
<path d="M66.9633 21.7146C63.2452 21.7319 59.6945 22.049 56.5702 22.6018C47.3666 24.2278 45.6955 27.6311 45.6955 33.9074V42.1965H67.4449V44.9596H45.6955H37.5332C31.2122 44.9596 25.6774 48.7589 23.9461 55.9864C21.9492 64.2708 21.8606 69.4404 23.9461 78.0906C25.4922 84.5295 29.1843 89.1174 35.5053 89.1174H42.9832V79.1806C42.9832 72.0019 49.1944 65.6697 56.5702 65.6697H78.2942C84.3414 65.6697 89.1689 60.6906 89.1689 54.6175V33.9074C89.1689 28.0132 84.1965 23.5855 78.2942 22.6018C74.558 21.9799 70.6814 21.6973 66.9633 21.7146ZM55.2014 28.3814C57.4479 28.3814 59.2826 30.246 59.2826 32.5386C59.2825 34.8231 57.4479 36.6705 55.2014 36.6705C52.9468 36.6705 51.1202 34.8231 51.1202 32.5386C51.1202 30.246 52.9468 28.3814 55.2014 28.3814Z" fill="url(#paint0_linear_5869_50543)"/>
<path d="M91.882 44.96V54.6179C91.882 62.1056 85.5339 68.4077 78.295 68.4077H56.571C50.6204 68.4077 45.6963 73.5006 45.6963 79.4598V100.17C45.6963 106.064 50.8217 109.531 56.571 111.222C63.4556 113.246 70.0576 113.612 78.295 111.222C83.7705 109.637 89.1697 106.446 89.1697 100.17V91.8808H67.4457V89.1178H89.1697H100.044C106.365 89.1178 108.721 84.7088 110.919 78.091C113.19 71.2781 113.093 64.7264 110.919 55.9867C109.357 49.6942 106.373 44.96 100.044 44.96H91.882ZM79.6639 97.4069C81.9185 97.4069 83.745 99.2543 83.745 101.539C83.745 103.831 81.9185 105.696 79.6639 105.696C77.4173 105.696 75.5827 103.831 75.5827 101.539C75.5827 99.2543 77.4173 97.4069 79.6639 97.4069Z" fill="url(#paint1_linear_5869_50543)"/>
</g>
<rect x="0.5" y="0.5" width="134" height="134" rx="7.5" stroke="#30294E"/>
<defs>
<linearGradient id="paint0_linear_5869_50543" x1="22.415" y1="21.7139" x2="72.5667" y2="64.4501" gradientUnits="userSpaceOnUse">
<stop stop-color="#5A9FD4"/>
<stop offset="1" stop-color="#306998"/>
</linearGradient>
<linearGradient id="paint1_linear_5869_50543" x1="79.1412" y1="100.842" x2="61.1487" y2="75.629" gradientUnits="userSpaceOnUse">
<stop stop-color="#FFD43B"/>
<stop offset="1" stop-color="#FFE873"/>
</linearGradient>
<clipPath id="clip0_5869_50543">
<rect width="90.1704" height="91.5719" fill="white" transform="translate(22.415 21.7139)"/>
</clipPath>
</defs>
</svg>
