<svg width="135" height="135" viewBox="0 0 135 135" fill="none" xmlns="http://www.w3.org/2000/svg">
<rect x="0.5" y="0.5" width="134" height="134" rx="7.5" fill="#30294E"/>
<path d="M67.5006 75.6917C72.0247 75.6917 75.6922 72.0242 75.6922 67.5001C75.6922 62.9761 72.0247 59.3086 67.5006 59.3086C62.9766 59.3086 59.3091 62.9761 59.3091 67.5001C59.3091 72.0242 62.9766 75.6917 67.5006 75.6917Z" fill="#61DAFB"/>
<path d="M67.5 84.2831C91.7755 84.2831 111.455 76.7693 111.455 67.5004C111.455 58.2316 91.7755 50.7178 67.5 50.7178C43.2246 50.7178 23.5454 58.2316 23.5454 67.5004C23.5454 76.7693 43.2246 84.2831 67.5 84.2831Z" stroke="#61DAFB" stroke-width="3.99587"/>
<path d="M52.9675 75.8914C65.1052 96.9146 81.452 110.2 89.479 105.566C97.506 100.932 94.1736 80.1319 82.0359 59.1088C69.8982 38.0856 53.5514 24.7999 45.5244 29.4343C37.4973 34.0687 40.8297 54.8683 52.9675 75.8914Z" stroke="#61DAFB" stroke-width="3.99587"/>
<path d="M52.9674 59.1093C40.8297 80.1325 37.4973 100.932 45.5244 105.566C53.5514 110.201 69.8982 96.9151 82.0359 75.892C94.1736 54.8688 97.506 34.0692 89.479 29.4348C81.4519 24.8004 65.1052 38.0861 52.9674 59.1093Z" stroke="#61DAFB" stroke-width="3.99587"/>
<rect x="0.5" y="0.5" width="134" height="134" rx="7.5" stroke="#30294E"/>
</svg>
