<svg width="135" height="135" viewBox="0 0 135 135" fill="none" xmlns="http://www.w3.org/2000/svg">
<rect x="0.5" y="0.5" width="134" height="134" rx="7.5" fill="#30294E"/>
<g clip-path="url(#clip0_5869_50521)">
<path d="M101.43 33.0544C92.779 20.5935 75.556 16.9426 63.1745 24.8001L41.3481 38.7689C35.3955 42.4993 31.2683 48.6107 30.0778 55.5157C29.046 61.3097 29.919 67.2623 32.6969 72.4213C30.7921 75.2785 29.5222 78.4533 28.9666 81.7868C27.6967 88.8506 29.3635 96.1525 33.4906 101.946C42.2212 114.407 59.3648 118.058 71.7463 110.201L93.5727 96.3112C99.5254 92.5809 103.653 86.4695 104.843 79.5644C105.875 73.7705 105.002 67.8179 102.224 62.6589C104.129 59.8016 105.399 56.6269 105.954 53.2934C107.303 46.1502 105.637 38.8483 101.43 33.0544Z" fill="#FF3E00"/>
<path d="M61.0322 103.137C53.9684 104.963 46.5871 102.185 42.46 96.2322C39.9202 92.7399 38.9677 88.3747 39.682 84.0888C39.8408 83.3744 39.9995 82.7395 40.1583 82.0252L40.5551 80.7553L41.6663 81.549C44.2854 83.4538 47.1427 84.8824 50.2381 85.8349L51.0318 86.073L50.9524 86.8667C50.873 87.9778 51.1905 89.1684 51.8255 90.1208C53.0954 91.9463 55.3177 92.8193 57.4606 92.2637C57.9368 92.105 58.4131 91.9463 58.8099 91.7082L80.5569 77.8186C81.6681 77.1043 82.3824 76.0725 82.6205 74.8026C82.8586 73.5327 82.5411 72.1835 81.8268 71.1517C80.5569 69.3262 78.3346 68.5325 76.1916 69.0881C75.7154 69.2468 75.2392 69.4056 74.8424 69.6437L66.5087 74.9614C65.1594 75.8344 63.6514 76.4694 62.064 76.8662C55.0002 78.6917 47.6189 75.9138 43.4917 69.9611C41.0313 66.4689 39.9995 62.1036 40.7932 57.8177C41.5075 53.6906 44.0473 49.9602 47.6189 47.7379L69.4453 33.8484C70.7946 32.9753 72.3026 32.3404 73.8899 31.8642C80.9538 30.0387 88.335 32.8166 92.4622 38.7693C95.002 42.2615 95.9544 46.6267 95.2401 50.9127C95.0814 51.627 94.9226 52.2619 94.6845 52.9762L94.2877 54.2461L93.1765 53.4525C90.5574 51.5476 87.7001 50.119 84.6047 49.1665L83.811 48.9284L83.8904 48.1348C83.9698 47.0236 83.6523 45.8331 83.0173 44.8806C81.7474 43.0552 79.5251 42.2615 77.3822 42.8171C76.906 42.9758 76.4297 43.1345 76.0329 43.3726L54.2859 57.2622C53.1747 57.9765 52.4604 59.0083 52.2223 60.2782C51.9842 61.5481 52.3017 62.8973 53.016 63.9291C54.2859 65.7546 56.5082 66.5483 58.6512 65.9927C59.1274 65.834 59.6036 65.6752 60.0004 65.4371L68.3341 60.1194C69.6834 59.2464 71.1914 58.6114 72.7788 58.1352C79.8426 56.3097 87.2239 59.0876 91.3511 65.0403C93.8909 68.5325 94.8433 72.8978 94.129 77.1837C93.4146 81.3109 90.8748 85.0412 87.3033 87.2635L65.4769 101.153C64.1276 102.026 62.6196 102.661 61.0322 103.137Z" fill="white"/>
</g>
<rect x="0.5" y="0.5" width="134" height="134" rx="7.5" stroke="#30294E"/>
<defs>
<clipPath id="clip0_5869_50521">
<rect width="77.8607" height="93.655" fill="white" transform="translate(28.5698 20.6729)"/>
</clipPath>
</defs>
</svg>
