<svg width="24" height="24" viewBox="0 0 24 24" fill="none" xmlns="http://www.w3.org/2000/svg">
<path fill-rule="evenodd" clip-rule="evenodd" d="M6 3C6.55228 3 7 3.44772 7 4V13.1707C8.16519 13.5825 9 14.6938 9 16C9 17.3062 8.16519 18.4175 7 18.8293V20C7 20.5523 6.55228 21 6 21C5.44772 21 5 20.5523 5 20V18.8293C3.83481 18.4175 3 17.3062 3 16C3 14.6938 3.83481 13.5825 5 13.1707V4C5 3.44772 5.44772 3 6 3ZM12 3C12.5523 3 13 3.44772 13 4V5.17071C14.1652 5.58254 15 6.69378 15 8C15 9.30622 14.1652 10.4175 13 10.8293V20C13 20.5523 12.5523 21 12 21C11.4477 21 11 20.5523 11 20V10.8293C9.83481 10.4175 9 9.30622 9 8C9 6.69378 9.83481 5.58254 11 5.17071V4C11 3.44772 11.4477 3 12 3ZM18 3C18.5523 3 19 3.44772 19 4V13.1707C20.1652 13.5825 21 14.6938 21 16C21 17.3062 20.1652 18.4175 19 18.8293V20C19 20.5523 18.5523 21 18 21C17.4477 21 17 20.5523 17 20V18.8293C15.8348 18.4175 15 17.3062 15 16C15 14.6938 15.8348 13.5825 17 13.1707V4C17 3.44772 17.4477 3 18 3ZM12 7C11.4477 7 11 7.44772 11 8C11 8.55228 11.4477 9 12 9C12.5523 9 13 8.55228 13 8C13 7.44772 12.5523 7 12 7ZM6 15C5.44772 15 5 15.4477 5 16C5 16.5523 5.44772 17 6 17C6.55228 17 7 16.5523 7 16C7 15.4477 6.55228 15 6 15ZM18 15C17.4477 15 17 15.4477 17 16C17 16.5523 17.4477 17 18 17C18.5523 17 19 16.5523 19 16C19 15.4477 18.5523 15 18 15Z" fill="#6F6E77"/>
</svg>
