<svg width="24" height="24" viewBox="0 0 24 24" fill="none" xmlns="http://www.w3.org/2000/svg">
<path fill-rule="evenodd" clip-rule="evenodd" d="M2 6C2 4.34315 3.34315 3 5 3H19C20.6569 3 22 4.34315 22 6V14C22 15.6569 20.6569 17 19 17H16.4142L12.7071 20.7071C12.3166 21.0976 11.6834 21.0976 11.2929 20.7071L7.58579 17H5C3.34315 17 2 15.6569 2 14V6ZM5 5C4.44772 5 4 5.44772 4 6V14C4 14.5523 4.44772 15 5 15H8C8.26522 15 8.51957 15.1054 8.70711 15.2929L12 18.5858L15.2929 15.2929C15.4804 15.1054 15.7348 15 16 15H19C19.5523 15 20 14.5523 20 14V6C20 5.44772 19.5523 5 19 5H5ZM6 8C6 7.44772 6.44772 7 7 7H17C17.5523 7 18 7.44772 18 8C18 8.55228 17.5523 9 17 9H7C6.44772 9 6 8.55228 6 8ZM6 12C6 11.4477 6.44772 11 7 11H11C11.5523 11 12 11.4477 12 12C12 12.5523 11.5523 13 11 13H7C6.44772 13 6 12.5523 6 12Z" fill="#6F6E77"/>
</svg>
