<svg width="24" height="24" viewBox="0 0 24 24" fill="none" xmlns="http://www.w3.org/2000/svg">
<path fill-rule="evenodd" clip-rule="evenodd" d="M2 6C2 4.34315 3.34315 3 5 3H19C20.6569 3 22 4.34315 22 6C22 7.30622 21.1652 8.41746 20 8.82929V18C20 19.6569 18.6569 21 17 21H7C5.34315 21 4 19.6569 4 18L4 8.82929C2.83481 8.41746 2 7.30622 2 6ZM6 9V18C6 18.5523 6.44772 19 7 19H17C17.5523 19 18 18.5523 18 18V9H6ZM5 5C4.44772 5 4 5.44772 4 6C4 6.55228 4.44772 7 5 7H19C19.5523 7 20 6.55228 20 6C20 5.44772 19.5523 5 19 5H5ZM9 12C9 11.4477 9.44772 11 10 11H14C14.5523 11 15 11.4477 15 12C15 12.5523 14.5523 13 14 13H10C9.44772 13 9 12.5523 9 12Z" fill="#6F6E77"/>
</svg>
