<svg width="24" height="24" viewBox="0 0 24 24" fill="none" xmlns="http://www.w3.org/2000/svg">
<path fill-rule="evenodd" clip-rule="evenodd" d="M3 4C3 3.44772 3.44772 3 4 3H8C8.55228 3 9 3.44772 9 4C9 4.55228 8.55228 5 8 5H6.41421L9.70711 8.29289C10.0976 8.68342 10.0976 9.31658 9.70711 9.70711C9.31658 10.0976 8.68342 10.0976 8.29289 9.70711L5 6.41421V8C5 8.55228 4.55228 9 4 9C3.44772 9 3 8.55228 3 8V4ZM16 3H20C20.5523 3 21 3.44772 21 4V8C21 8.55228 20.5523 9 20 9C19.4477 9 19 8.55228 19 8V6.41421L15.7071 9.70711C15.3166 10.0976 14.6834 10.0976 14.2929 9.70711C13.9024 9.31658 13.9024 8.68342 14.2929 8.29289L17.5858 5H16C15.4477 5 15 4.55228 15 4C15 3.44772 15.4477 3 16 3ZM9.70711 14.2929C10.0976 14.6834 10.0976 15.3166 9.70711 15.7071L6.41421 19H8C8.55228 19 9 19.4477 9 20C9 20.5523 8.55228 21 8 21H4C3.44772 21 3 20.5523 3 20V16C3 15.4477 3.44772 15 4 15C4.55228 15 5 15.4477 5 16V17.5858L8.29289 14.2929C8.68342 13.9024 9.31658 13.9024 9.70711 14.2929ZM14.2929 14.2929C14.6834 13.9024 15.3166 13.9024 15.7071 14.2929L19 17.5858V16C19 15.4477 19.4477 15 20 15C20.5523 15 21 15.4477 21 16V20C21 20.5523 20.5523 21 20 21H16C15.4477 21 15 20.5523 15 20C15 19.4477 15.4477 19 16 19H17.5858L14.2929 15.7071C13.9024 15.3166 13.9024 14.6834 14.2929 14.2929Z" fill="#6F6E77"/>
</svg>
