<svg width="24" height="24" viewBox="0 0 24 24" fill="none" xmlns="http://www.w3.org/2000/svg">
<path fill-rule="evenodd" clip-rule="evenodd" d="M13.2929 4.29289C13.6834 3.90237 14.3166 3.90237 14.7071 4.29289L21.7071 11.2929C21.8946 11.4804 22 11.7348 22 12C22 12.2652 21.8946 12.5196 21.7071 12.7071L14.7071 19.7071C14.3166 20.0976 13.6834 20.0976 13.2929 19.7071C12.9024 19.3166 12.9024 18.6834 13.2929 18.2929L18.5858 13L3 13C2.44772 13 2 12.5523 2 12C2 11.4477 2.44772 11 3 11L18.5858 11L13.2929 5.70711C12.9024 5.31658 12.9024 4.68342 13.2929 4.29289Z" fill="#6F6E77"/>
</svg>
