<svg width="24" height="24" viewBox="0 0 24 24" fill="none" xmlns="http://www.w3.org/2000/svg">
<path fill-rule="evenodd" clip-rule="evenodd" d="M12.2929 6.29289C12.6834 5.90237 13.3166 5.90237 13.7071 6.29289L18.7071 11.2929C18.8946 11.4804 19 11.7348 19 12C19 12.2652 18.8946 12.5196 18.7071 12.7071L13.7071 17.7071C13.3166 18.0976 12.6834 18.0976 12.2929 17.7071C11.9024 17.3166 11.9024 16.6834 12.2929 16.2929L15.5858 13L6 13C5.44772 13 5 12.5523 5 12C5 11.4477 5.44772 11 6 11L15.5858 11L12.2929 7.70711C11.9024 7.31658 11.9024 6.68342 12.2929 6.29289Z" fill="#6F6E77"/>
</svg>
