<svg width="24" height="24" viewBox="0 0 24 24" fill="none" xmlns="http://www.w3.org/2000/svg">
<path fill-rule="evenodd" clip-rule="evenodd" d="M11.7071 6.29289C12.0976 6.68342 12.0976 7.31658 11.7071 7.70711L8.41421 11L18 11C18.5523 11 19 11.4477 19 12C19 12.5523 18.5523 13 18 13L8.41421 13L11.7071 16.2929C12.0976 16.6834 12.0976 17.3166 11.7071 17.7071C11.3166 18.0976 10.6834 18.0976 10.2929 17.7071L5.29289 12.7071C5.10536 12.5196 5 12.2652 5 12C5 11.7348 5.10536 11.4804 5.29289 11.2929L10.2929 6.29289C10.6834 5.90237 11.3166 5.90237 11.7071 6.29289Z" fill="#6F6E77"/>
</svg>
