<svg width="24" height="24" viewBox="0 0 24 24" fill="none" xmlns="http://www.w3.org/2000/svg">
<path fill-rule="evenodd" clip-rule="evenodd" d="M12 2C12.5523 2 13 2.44772 13 3V18.5858L18.2929 13.2929C18.6834 12.9024 19.3166 12.9024 19.7071 13.2929C20.0976 13.6834 20.0976 14.3166 19.7071 14.7071L12.7071 21.7071C12.5196 21.8946 12.2652 22 12 22C11.7348 22 11.4804 21.8946 11.2929 21.7071L4.29289 14.7071C3.90237 14.3166 3.90237 13.6834 4.29289 13.2929C4.68342 12.9024 5.31658 12.9024 5.70711 13.2929L11 18.5858L11 3C11 2.44772 11.4477 2 12 2Z" fill="#6F6E77"/>
</svg>
