<svg width="24" height="24" viewBox="0 0 24 24" fill="none" xmlns="http://www.w3.org/2000/svg">
<path fill-rule="evenodd" clip-rule="evenodd" d="M12 4C7.58172 4 4 7.58172 4 12C4 16.4183 7.58172 20 12 20C12.0178 20 12.0354 20.0005 12.053 20.0014C13.3945 19.9939 14.7525 19.6484 16 18.9282C16.4783 18.6521 17.0899 18.8159 17.366 19.2942C17.6422 19.7725 17.4783 20.3841 17 20.6603C15.4237 21.5703 13.6998 22.0031 11.999 22.0015C11.9798 22.0015 11.9607 22.0009 11.9418 21.9998C6.44572 21.9685 2 17.5034 2 12C2 6.47715 6.47715 2 12 2C17.5228 2 22 6.47715 22 12V13.5C22 15.433 20.433 17 18.5 17C17.2958 17 16.2336 16.3918 15.6038 15.4659C14.6942 16.4115 13.4158 17 12 17C9.23858 17 7 14.7614 7 12C7 9.23858 9.23858 7 12 7C14.7614 7 17 9.23858 17 12V13.5C17 14.3284 17.6716 15 18.5 15C19.3284 15 20 14.3284 20 13.5V12C20 7.58172 16.4183 4 12 4ZM15 12C15 10.3431 13.6569 9 12 9C10.3431 9 9 10.3431 9 12C9 13.6569 10.3431 15 12 15C13.6569 15 15 13.6569 15 12Z" fill="#6F6E77"/>
</svg>
