<svg width="24" height="24" viewBox="0 0 24 24" fill="none" xmlns="http://www.w3.org/2000/svg">
<path fill-rule="evenodd" clip-rule="evenodd" d="M8.70711 4.87868C9.26972 4.31607 10.0328 4 10.8284 4H19C20.6569 4 22 5.34315 22 7V17C22 18.6569 20.6569 20 19 20H10.8284C10.0328 20 9.26972 19.6839 8.70711 19.1213L2.29289 12.7071C2.10536 12.5196 2 12.2652 2 12C2 11.7348 2.10536 11.4804 2.29289 11.2929L8.70711 4.87868ZM10.8284 6C10.5632 6 10.3089 6.10536 10.1213 6.29289L4.41421 12L10.1213 17.7071C10.3089 17.8946 10.5632 18 10.8284 18H19C19.5523 18 20 17.5523 20 17V7C20 6.44772 19.5523 6 19 6H10.8284ZM11.2929 9.29289C11.6834 8.90237 12.3166 8.90237 12.7071 9.29289L14 10.5858L15.2929 9.29289C15.6834 8.90237 16.3166 8.90237 16.7071 9.29289C17.0976 9.68342 17.0976 10.3166 16.7071 10.7071L15.4142 12L16.7071 13.2929C17.0976 13.6834 17.0976 14.3166 16.7071 14.7071C16.3166 15.0976 15.6834 15.0976 15.2929 14.7071L14 13.4142L12.7071 14.7071C12.3166 15.0976 11.6834 15.0976 11.2929 14.7071C10.9024 14.3166 10.9024 13.6834 11.2929 13.2929L12.5858 12L11.2929 10.7071C10.9024 10.3166 10.9024 9.68342 11.2929 9.29289Z" fill="#6F6E77"/>
</svg>
