<svg width="24" height="24" viewBox="0 0 24 24" fill="none" xmlns="http://www.w3.org/2000/svg">
<path fill-rule="evenodd" clip-rule="evenodd" d="M7.09402 5.6798L18.3202 16.906C20.7627 13.7676 20.5416 9.22787 17.6569 6.34315C14.7721 3.45842 10.2324 3.23731 7.09402 5.6798ZM16.906 18.3202L5.6798 7.09402C3.23731 10.2324 3.45842 14.7721 6.34315 17.6569C9.22787 20.5416 13.7676 20.7627 16.906 18.3202ZM4.92893 4.92893C8.83418 1.02369 15.1658 1.02369 19.0711 4.92893C22.9763 8.83418 22.9763 15.1658 19.0711 19.0711C15.1658 22.9763 8.83418 22.9763 4.92893 19.0711C1.02369 15.1658 1.02369 8.83418 4.92893 4.92893Z" fill="#6F6E77"/>
</svg>
