<svg width="24" height="24" viewBox="0 0 24 24" fill="none" xmlns="http://www.w3.org/2000/svg">
<path fill-rule="evenodd" clip-rule="evenodd" d="M7.07591 3.61732C7.23069 3.24364 7.59533 3 7.99979 3H15.9998C16.4043 3 16.7689 3.24364 16.9237 3.61732C17.0785 3.99099 16.9929 4.42111 16.7069 4.70711L15.9998 5.41421V10.1716C15.9998 10.4368 16.1051 10.6911 16.2927 10.8787L20.1335 14.7195C20.134 14.72 20.1346 14.7206 20.1351 14.7211C20.1354 14.7214 20.1357 14.7217 20.136 14.722L21.2927 15.8787C23.1826 17.7686 21.8441 21 19.1714 21H4.82822C2.1555 21 0.817005 17.7686 2.7069 15.8787L3.53545 15.0501C3.53558 15.05 3.5357 15.0499 3.53582 15.0498C3.53603 15.0495 3.53624 15.0493 3.53645 15.0491L7.7069 10.8787C7.89443 10.6911 7.99979 10.4368 7.99979 10.1716V5.41421L7.29269 4.70711C7.00669 4.42111 6.92113 3.99099 7.07591 3.61732ZM9.99979 5V10.1716C9.99979 10.9672 9.68372 11.7303 9.12111 12.2929L7.02814 14.3859L8.17724 14.6157C9.26752 14.8337 10.3994 14.6822 11.3939 14.1849L11.7113 14.0262C13.0273 13.3682 14.5151 13.1426 15.9632 13.3776L14.8785 12.2929C14.3159 11.7303 13.9998 10.9672 13.9998 10.1716V5H9.99979ZM18.7198 16.1342C18.5803 15.9952 18.403 15.9004 18.2099 15.8618L15.8223 15.3843C14.7321 15.1663 13.6002 15.3178 12.6057 15.8151L12.2883 15.9738C10.896 16.6699 9.31141 16.8821 7.78501 16.5768L5.85326 16.1905C5.52565 16.125 5.18698 16.2274 4.95058 16.4634C4.9504 16.4636 4.95022 16.4638 4.95003 16.464L4.12111 17.2929C3.49115 17.9229 3.93731 19 4.82822 19H19.1714C20.0623 19 20.5084 17.9229 19.8785 17.2929L18.7209 16.1353C18.7205 16.1349 18.7201 16.1346 18.7198 16.1342Z" fill="#6F6E77"/>
</svg>
