<svg width="24" height="24" viewBox="0 0 24 24" fill="none" xmlns="http://www.w3.org/2000/svg">
<path fill-rule="evenodd" clip-rule="evenodd" d="M9.01847 4.66519C9.18496 3.16592 10.4563 2 12 2C13.5437 2 14.815 3.16592 14.9815 4.6652C17.3554 5.78439 19 8.19905 19 11V14.1585C19 14.4321 19.1087 14.6945 19.3022 14.888L20.7071 16.2929C20.9931 16.5789 21.0787 17.009 20.9239 17.3827C20.7691 17.7564 20.4045 18 20 18L16 18C16 20.2091 14.2091 22 12 22C9.79086 22 8 20.2091 8 18L4 18C3.59554 18 3.2309 17.7564 3.07612 17.3827C2.92134 17.009 3.00689 16.5789 3.29289 16.2929L4.69782 14.888C4.8913 14.6945 5 14.4321 5 14.1585V11C5 8.19905 6.64461 5.78439 9.01847 4.66519ZM10 18C10 19.1046 10.8954 20 12 20C13.1046 20 14 19.1046 14 18H10ZM12 4C11.4477 4 11 4.44772 11 5V5.34142C11 5.76523 10.7328 6.14302 10.3332 6.28426C8.38991 6.97113 7 8.82453 7 11V14.1585C7 14.8277 6.77869 15.4742 6.37661 16H17.6234C17.2213 15.4742 17 14.8277 17 14.1585V11C17 8.82453 15.6101 6.97113 13.6668 6.28426C13.2672 6.14302 13 5.76523 13 5.34142V5C13 4.44772 12.5523 4 12 4Z" fill="#6F6E77"/>
</svg>
