<svg width="24" height="24" viewBox="0 0 24 24" fill="none" xmlns="http://www.w3.org/2000/svg">
<path fill-rule="evenodd" clip-rule="evenodd" d="M6.99999 4C6.99999 2.34315 8.34314 1 9.99999 1H14C15.6568 1 17 2.34315 17 4V5H19C20.6568 5 22 6.34315 22 8V13.232C22.0003 13.2474 22.0003 13.2628 22 13.2782V18C22 19.6569 20.6568 21 19 21H4.99999C3.34314 21 1.99999 19.6569 1.99999 18V13.278C1.99964 13.2628 1.99964 13.2475 1.99999 13.2322V8C1.99999 6.34315 3.34314 5 4.99999 5H6.99999V4ZM4.99999 7C4.44771 7 3.99999 7.44772 3.99999 8V12.5708C6.49035 13.4948 9.18512 14 12 14C14.8149 14 17.5096 13.4948 20 12.5708V8C20 7.44772 19.5523 7 19 7H4.99999ZM15 5H8.99999V4C8.99999 3.44772 9.44771 3 9.99999 3H14C14.5523 3 15 3.44772 15 4V5ZM20 14.6923C17.4872 15.5405 14.7964 16 12 16C9.2036 16 6.51278 15.5405 3.99999 14.6923V18C3.99999 18.5523 4.44771 19 4.99999 19H19C19.5523 19 20 18.5523 20 18V14.6923ZM11 12C11 11.4477 11.4477 11 12 11H12.01C12.5623 11 13.01 11.4477 13.01 12C13.01 12.5523 12.5623 13 12.01 13H12C11.4477 13 11 12.5523 11 12Z" fill="#6F6E77"/>
</svg>
