<svg width="24" height="24" viewBox="0 0 24 24" fill="none" xmlns="http://www.w3.org/2000/svg">
<path fill-rule="evenodd" clip-rule="evenodd" d="M8 3C8 2.44772 8.44772 2 9 2H9.01C9.56228 2 10.01 2.44772 10.01 3C10.01 3.55228 9.56228 4 9.01 4H9C8.44772 4 8 3.55228 8 3ZM11 3C11 2.44772 11.4477 2 12 2H12.01C12.5623 2 13.01 2.44772 13.01 3C13.01 3.55228 12.5623 4 12.01 4H12C11.4477 4 11 3.55228 11 3ZM14 3C14 2.44772 14.4477 2 15 2H15.01C15.5623 2 16.01 2.44772 16.01 3C16.01 3.55228 15.5623 4 15.01 4H15C14.4477 4 14 3.55228 14 3ZM9 5C9.55228 5 10 5.44772 10 6V7H11V6C11 5.44772 11.4477 5 12 5C12.5523 5 13 5.44772 13 6V7H14V6C14 5.44772 14.4477 5 15 5C15.5523 5 16 5.44772 16 6V7C17.6569 7 19 8.34315 19 10V11C20.6569 11 22 12.3431 22 14V21C22 21.5523 21.5523 22 21 22H3C2.44772 22 2 21.5523 2 21V14C2 12.3431 3.34315 11 5 11V10C5 8.34315 6.34315 7 8 7V6C8 5.44772 8.44772 5 9 5ZM8 9C7.44772 9 7 9.44772 7 10V11H17V10C17 9.44772 16.5523 9 16 9H8ZM5 13C4.44772 13 4 13.4477 4 14V14.6833C4.36868 14.7866 4.72499 14.9481 5.0547 15.168C5.62713 15.5496 6.37287 15.5496 6.9453 15.168C8.18953 14.3385 9.81047 14.3385 11.0547 15.168C11.6271 15.5496 12.3729 15.5496 12.9453 15.168C14.1895 14.3385 15.8105 14.3385 17.0547 15.168C17.6271 15.5496 18.3729 15.5496 18.9453 15.168C19.275 14.9481 19.6313 14.7866 20 14.6833V14C20 13.4477 19.5523 13 19 13H5ZM20 16.8678C18.7633 17.6614 17.1714 17.6494 15.9453 16.8321C15.3729 16.4504 14.6271 16.4504 14.0547 16.8321C12.8105 17.6615 11.1895 17.6615 9.9453 16.8321C9.37287 16.4504 8.62713 16.4504 8.0547 16.8321C6.82863 17.6494 5.23675 17.6614 4 16.8678V20H20V16.8678Z" fill="#6F6E77"/>
</svg>
