<svg width="24" height="24" viewBox="0 0 24 24" fill="none" xmlns="http://www.w3.org/2000/svg">
<path fill-rule="evenodd" clip-rule="evenodd" d="M4 5C4 3.34315 5.34315 2 7 2H17C18.6569 2 20 3.34315 20 5V19C20 20.6569 18.6569 22 17 22H7C5.34315 22 4 20.6569 4 19V5ZM7 4C6.44772 4 6 4.44772 6 5V19C6 19.5523 6.44772 20 7 20H17C17.5523 20 18 19.5523 18 19V5C18 4.44772 17.5523 4 17 4H7ZM8 7C8 6.44772 8.44772 6 9 6H15C15.5523 6 16 6.44772 16 7C16 7.55228 15.5523 8 15 8H9C8.44772 8 8 7.55228 8 7ZM8 11C8 10.4477 8.44772 10 9 10H9.01C9.56229 10 10.01 10.4477 10.01 11C10.01 11.5523 9.56229 12 9.01 12H9C8.44772 12 8 11.5523 8 11ZM11 11C11 10.4477 11.4477 10 12 10H12.01C12.5623 10 13.01 10.4477 13.01 11C13.01 11.5523 12.5623 12 12.01 12H12C11.4477 12 11 11.5523 11 11ZM14 11C14 10.4477 14.4477 10 15 10H15.01C15.5623 10 16.01 10.4477 16.01 11C16.01 11.5523 15.5623 12 15.01 12H15C14.4477 12 14 11.5523 14 11ZM8 14C8 13.4477 8.44772 13 9 13H9.01C9.56229 13 10.01 13.4477 10.01 14C10.01 14.5523 9.56229 15 9.01 15H9C8.44772 15 8 14.5523 8 14ZM11 14C11 13.4477 11.4477 13 12 13H12.01C12.5623 13 13.01 13.4477 13.01 14C13.01 14.5523 12.5623 15 12.01 15H12C11.4477 15 11 14.5523 11 14ZM15 13C15.5523 13 16 13.4477 16 14V17C16 17.5523 15.5523 18 15 18C14.4477 18 14 17.5523 14 17V14C14 13.4477 14.4477 13 15 13ZM8 17C8 16.4477 8.44772 16 9 16H9.01C9.56229 16 10.01 16.4477 10.01 17C10.01 17.5523 9.56229 18 9.01 18H9C8.44772 18 8 17.5523 8 17ZM11 17C11 16.4477 11.4477 16 12 16H12.01C12.5623 16 13.01 16.4477 13.01 17C13.01 17.5523 12.5623 18 12.01 18H12C11.4477 18 11 17.5523 11 17Z" fill="#6F6E77"/>
</svg>
