<svg width="24" height="24" viewBox="0 0 24 24" fill="none" xmlns="http://www.w3.org/2000/svg">
<path fill-rule="evenodd" clip-rule="evenodd" d="M2 7C2 5.34315 3.34315 4 5 4H15C16.6569 4 18 5.34315 18 7V8H19C20.6569 8 22 9.34315 22 11V17C22 18.6569 20.6569 20 19 20H9C7.34315 20 6 18.6569 6 17V16H5C3.34315 16 2 14.6569 2 13V7ZM8 17C8 17.5523 8.44772 18 9 18H19C19.5523 18 20 17.5523 20 17V11C20 10.4477 19.5523 10 19 10H9C8.44772 10 8 10.4477 8 11V17ZM16 8H9C7.34315 8 6 9.34315 6 11V14H5C4.44772 14 4 13.5523 4 13V7C4 6.44772 4.44772 6 5 6H15C15.5523 6 16 6.44772 16 7V8ZM14 13C13.4477 13 13 13.4477 13 14C13 14.5523 13.4477 15 14 15C14.5523 15 15 14.5523 15 14C15 13.4477 14.5523 13 14 13ZM11 14C11 12.3431 12.3431 11 14 11C15.6569 11 17 12.3431 17 14C17 15.6569 15.6569 17 14 17C12.3431 17 11 15.6569 11 14Z" fill="#6F6E77"/>
</svg>
