<svg width="24" height="24" viewBox="0 0 24 24" fill="none" xmlns="http://www.w3.org/2000/svg">
<path fill-rule="evenodd" clip-rule="evenodd" d="M11.6671 2.31C11.879 2.49969 12 2.77059 12 3.05494V12H20.9451C21.2294 12 21.5003 12.1211 21.69 12.3329C21.8797 12.5447 21.9703 12.8273 21.939 13.1099C21.3862 18.1109 17.148 22 12 22C6.47715 22 2 17.5229 2 12C2 6.85205 5.88912 2.61382 10.8901 2.06099C11.1727 2.02975 11.4553 2.1203 11.6671 2.31ZM10 4.25183C6.54987 5.13961 4 8.27259 4 12C4 16.4183 7.58172 20 12 20C15.7274 20 18.8604 17.4501 19.7482 14H11C10.4477 14 10 13.5523 10 13V4.25183ZM14.4226 2.69584C14.6877 2.50841 15.0272 2.46129 15.3332 2.56947C18.1753 3.57398 20.4261 5.82475 21.4307 8.66674C21.5388 8.97281 21.4917 9.31234 21.3043 9.57739C21.1169 9.84243 20.8124 10 20.4878 10H15C14.4477 10 14 9.55229 14 9.00001V3.51231C14 3.18769 14.1576 2.88327 14.4226 2.69584ZM16 5.07026V8.00001H18.9298C18.2272 6.78574 17.2143 5.77286 16 5.07026Z" fill="#6F6E77"/>
</svg>
