<svg width="24" height="24" viewBox="0 0 24 24" fill="none" xmlns="http://www.w3.org/2000/svg">
<path fill-rule="evenodd" clip-rule="evenodd" d="M14 5C14 3.34315 15.3431 2 17 2H19C20.6569 2 22 3.34315 22 5V19C22 20.6569 20.6569 22 19 22H17C16.2316 22 15.5308 21.7111 15 21.2361C14.4692 21.7111 13.7684 22 13 22H11C10.2316 22 9.53076 21.7111 9 21.2361C8.46925 21.7111 7.76836 22 7 22H5C3.34315 22 2 20.6569 2 19V13C2 11.3431 3.34315 10 5 10H7C7.35064 10 7.68722 10.0602 8 10.1707V9C8 7.34315 9.34315 6 11 6H13C13.3506 6 13.6872 6.06015 14 6.17071V5ZM16 19C16 19.5523 16.4477 20 17 20H19C19.5523 20 20 19.5523 20 19V5C20 4.44772 19.5523 4 19 4H17C16.4477 4 16 4.44772 16 5V19ZM14 9C14 8.44772 13.5523 8 13 8H11C10.4477 8 10 8.44772 10 9V19C10 19.5523 10.4477 20 11 20H13C13.5523 20 14 19.5523 14 19V9ZM8 13C8 12.4477 7.55228 12 7 12H5C4.44772 12 4 12.4477 4 13V19C4 19.5523 4.44772 20 5 20H7C7.55228 20 8 19.5523 8 19V13Z" fill="#6F6E77"/>
</svg>
