<svg width="24" height="24" viewBox="0 0 24 24" fill="none" xmlns="http://www.w3.org/2000/svg">
<path fill-rule="evenodd" clip-rule="evenodd" d="M12 5C7.46776 5 4.00002 8.24148 4.00002 12C4.00002 13.3518 4.43801 14.619 5.20894 15.6991C5.40234 15.97 5.44822 16.3195 5.33133 16.6312L4.56804 18.6666L7.54857 18.0705C7.76062 18.0281 7.98071 18.0555 8.17583 18.1488C9.30816 18.6899 10.6098 19 12 19C16.5323 19 20 15.7585 20 12C20 8.24148 16.5323 5 12 5ZM2.00002 12C2.00002 6.92196 6.59115 3 12 3C17.4089 3 22 6.92196 22 12C22 17.078 17.4089 21 12 21C10.4348 21 8.94859 20.6761 7.62323 20.0952L3.19613 20.9806C2.84009 21.0518 2.47343 20.9244 2.23822 20.6478C2.003 20.3712 1.9362 19.9888 2.06369 19.6489L3.27874 16.4087C2.4678 15.1108 2.00002 13.6065 2.00002 12ZM7.00002 12C7.00002 11.4477 7.44773 11 8.00002 11H8.01002C8.5623 11 9.01002 11.4477 9.01002 12C9.01002 12.5523 8.5623 13 8.01002 13H8.00002C7.44773 13 7.00002 12.5523 7.00002 12ZM11 12C11 11.4477 11.4477 11 12 11H12.01C12.5623 11 13.01 11.4477 13.01 12C13.01 12.5523 12.5623 13 12.01 13H12C11.4477 13 11 12.5523 11 12ZM15 12C15 11.4477 15.4477 11 16 11H16.01C16.5623 11 17.01 11.4477 17.01 12C17.01 12.5523 16.5623 13 16.01 13H16C15.4477 13 15 12.5523 15 12Z" fill="#6F6E77"/>
</svg>
