<svg width="24" height="24" viewBox="0 0 24 24" fill="none" xmlns="http://www.w3.org/2000/svg">
<path fill-rule="evenodd" clip-rule="evenodd" d="M2 6C2 4.34315 3.34315 3 5 3H19C20.6569 3 22 4.34315 22 6V14C22 15.6569 20.6569 17 19 17H14.4142L9.70711 21.7071C9.42111 21.9931 8.99099 22.0787 8.61732 21.9239C8.24364 21.7691 8 21.4045 8 21V17H5C3.34315 17 2 15.6569 2 14V6ZM5 5C4.44772 5 4 5.44772 4 6V14C4 14.5523 4.44772 15 5 15H9C9.55228 15 10 15.4477 10 16V18.5858L13.2929 15.2929C13.4804 15.1054 13.7348 15 14 15H19C19.5523 15 20 14.5523 20 14V6C20 5.44772 19.5523 5 19 5H5ZM7 10C7 9.44772 7.44772 9 8 9H8.01C8.56228 9 9.01 9.44772 9.01 10C9.01 10.5523 8.56228 11 8.01 11H8C7.44772 11 7 10.5523 7 10ZM11 10C11 9.44772 11.4477 9 12 9H12.01C12.5623 9 13.01 9.44772 13.01 10C13.01 10.5523 12.5623 11 12.01 11H12C11.4477 11 11 10.5523 11 10ZM15 10C15 9.44772 15.4477 9 16 9H16.01C16.5623 9 17.01 9.44772 17.01 10C17.01 10.5523 16.5623 11 16.01 11H16C15.4477 11 15 10.5523 15 10Z" fill="#6F6E77"/>
</svg>
