<svg width="24" height="24" viewBox="0 0 24 24" fill="none" xmlns="http://www.w3.org/2000/svg">
<path fill-rule="evenodd" clip-rule="evenodd" d="M4.29289 4.29289C4.68342 3.90237 5.31658 3.90237 5.70711 4.29289L12 10.5858L18.2929 4.29289C18.6834 3.90237 19.3166 3.90237 19.7071 4.29289C20.0976 4.68342 20.0976 5.31658 19.7071 5.70711L12.7071 12.7071C12.5196 12.8946 12.2652 13 12 13C11.7348 13 11.4804 12.8946 11.2929 12.7071L4.29289 5.70711C3.90237 5.31658 3.90237 4.68342 4.29289 4.29289ZM4.29289 12.2929C4.68342 11.9024 5.31658 11.9024 5.70711 12.2929L12 18.5858L18.2929 12.2929C18.6834 11.9024 19.3166 11.9024 19.7071 12.2929C20.0976 12.6834 20.0976 13.3166 19.7071 13.7071L12.7071 20.7071C12.3166 21.0976 11.6834 21.0976 11.2929 20.7071L4.29289 13.7071C3.90237 13.3166 3.90237 12.6834 4.29289 12.2929Z" fill="#6F6E77"/>
</svg>
