<svg width="24" height="24" viewBox="0 0 24 24" fill="none" xmlns="http://www.w3.org/2000/svg">
<path fill-rule="evenodd" clip-rule="evenodd" d="M11.7071 4.29289C12.0976 4.68342 12.0976 5.31658 11.7071 5.70711L5.41421 12L11.7071 18.2929C12.0976 18.6834 12.0976 19.3166 11.7071 19.7071C11.3166 20.0976 10.6834 20.0976 10.2929 19.7071L3.29289 12.7071C2.90237 12.3166 2.90237 11.6834 3.29289 11.2929L10.2929 4.29289C10.6834 3.90237 11.3166 3.90237 11.7071 4.29289ZM19.7071 4.29289C20.0976 4.68342 20.0976 5.31658 19.7071 5.70711L13.4142 12L19.7071 18.2929C20.0976 18.6834 20.0976 19.3166 19.7071 19.7071C19.3166 20.0976 18.6834 20.0976 18.2929 19.7071L11.2929 12.7071C10.9024 12.3166 10.9024 11.6834 11.2929 11.2929L18.2929 4.29289C18.6834 3.90237 19.3166 3.90237 19.7071 4.29289Z" fill="#6F6E77"/>
</svg>
