<svg width="24" height="24" viewBox="0 0 24 24" fill="none" xmlns="http://www.w3.org/2000/svg">
<path fill-rule="evenodd" clip-rule="evenodd" d="M9 2C9.55228 2 10 2.44772 10 3V4H14V3C14 2.44772 14.4477 2 15 2C15.5523 2 16 2.44772 16 3V4H17C18.6569 4 20 5.34315 20 7V8H21C21.5523 8 22 8.44772 22 9C22 9.55228 21.5523 10 21 10H20V14H21C21.5523 14 22 14.4477 22 15C22 15.5523 21.5523 16 21 16H20V17C20 18.6569 18.6569 20 17 20H16V21C16 21.5523 15.5523 22 15 22C14.4477 22 14 21.5523 14 21V20H10V21C10 21.5523 9.55228 22 9 22C8.44772 22 8 21.5523 8 21V20H7C5.34315 20 4 18.6569 4 17V16H3C2.44772 16 2 15.5523 2 15C2 14.4477 2.44772 14 3 14H4V10H3C2.44772 10 2 9.55228 2 9C2 8.44772 2.44772 8 3 8H4V7C4 5.34315 5.34315 4 7 4H8V3C8 2.44772 8.44772 2 9 2ZM7 6C6.44772 6 6 6.44772 6 7V17C6 17.5523 6.44772 18 7 18H17C17.5523 18 18 17.5523 18 17V7C18 6.44772 17.5523 6 17 6H7ZM8 9C8 8.44772 8.44772 8 9 8H15C15.5523 8 16 8.44772 16 9V15C16 15.5523 15.5523 16 15 16H9C8.44772 16 8 15.5523 8 15V9ZM10 10V14H14V10H10Z" fill="#6F6E77"/>
</svg>
