<svg width="24" height="24" viewBox="0 0 24 24" fill="none" xmlns="http://www.w3.org/2000/svg">
<path fill-rule="evenodd" clip-rule="evenodd" d="M8.17071 4C8.58254 2.83481 9.69378 2 11 2H13C14.3062 2 15.4175 2.83481 15.8293 4H17C18.6569 4 20 5.34315 20 7V19C20 20.6569 18.6569 22 17 22H7C5.34315 22 4 20.6569 4 19V7C4 5.34315 5.34315 4 7 4H8.17071ZM8.17071 6H7C6.44772 6 6 6.44772 6 7V19C6 19.5523 6.44772 20 7 20H17C17.5523 20 18 19.5523 18 19V7C18 6.44772 17.5523 6 17 6H15.8293C15.4175 7.16519 14.3062 8 13 8H11C9.69378 8 8.58254 7.16519 8.17071 6ZM11 4C10.4477 4 10 4.44772 10 5C10 5.55228 10.4477 6 11 6H13C13.5523 6 14 5.55228 14 5C14 4.44772 13.5523 4 13 4H11ZM8 12C8 11.4477 8.44772 11 9 11H9.01C9.56228 11 10.01 11.4477 10.01 12C10.01 12.5523 9.56228 13 9.01 13H9C8.44772 13 8 12.5523 8 12ZM11 12C11 11.4477 11.4477 11 12 11H15C15.5523 11 16 11.4477 16 12C16 12.5523 15.5523 13 15 13H12C11.4477 13 11 12.5523 11 12ZM8 16C8 15.4477 8.44772 15 9 15H9.01C9.56228 15 10.01 15.4477 10.01 16C10.01 16.5523 9.56228 17 9.01 17H9C8.44772 17 8 16.5523 8 16ZM11 16C11 15.4477 11.4477 15 12 15H15C15.5523 15 16 15.4477 16 16C16 16.5523 15.5523 17 15 17H12C11.4477 17 11 16.5523 11 16Z" fill="#6F6E77"/>
</svg>
