<svg width="24" height="24" viewBox="0 0 24 24" fill="none" xmlns="http://www.w3.org/2000/svg">
<path fill-rule="evenodd" clip-rule="evenodd" d="M7.17071 4C7.58254 2.83481 8.69378 2 10 2H12C13.3062 2 14.4175 2.83481 14.8293 4H16C17.6569 4 19 5.34315 19 7V10C19 10.5523 18.5523 11 18 11C17.4477 11 17 10.5523 17 10V7C17 6.44772 16.5523 6 16 6H14.8293C14.4175 7.16519 13.3062 8 12 8H10C8.69378 8 7.58254 7.16519 7.17071 6H6C5.44772 6 5 6.44772 5 7V19C5 19.5523 5.44772 20 6 20H16C16.5523 20 17 19.5523 17 19V18C17 17.4477 17.4477 17 18 17C18.5523 17 19 17.4477 19 18V19C19 20.6569 17.6569 22 16 22H6C4.34315 22 3 20.6569 3 19V7C3 5.34315 4.34315 4 6 4H7.17071ZM10 4C9.44772 4 9 4.44772 9 5C9 5.55228 9.44772 6 10 6H12C12.5523 6 13 5.55228 13 5C13 4.44772 12.5523 4 12 4H10ZM13.7071 10.2929C14.0976 10.6834 14.0976 11.3166 13.7071 11.7071L12.4142 13H20C20.5523 13 21 13.4477 21 14C21 14.5523 20.5523 15 20 15H12.4142L13.7071 16.2929C14.0976 16.6834 14.0976 17.3166 13.7071 17.7071C13.3166 18.0976 12.6834 18.0976 12.2929 17.7071L9.29289 14.7071C8.90237 14.3166 8.90237 13.6834 9.29289 13.2929L12.2929 10.2929C12.6834 9.90237 13.3166 9.90237 13.7071 10.2929Z" fill="#6F6E77"/>
</svg>
