<svg width="24" height="24" viewBox="0 0 24 24" fill="none" xmlns="http://www.w3.org/2000/svg">
<path fill-rule="evenodd" clip-rule="evenodd" d="M11 3C8.79086 3 7 4.79086 7 7C7 7.30288 7.03348 7.59674 7.09656 7.87852C7.21716 8.41729 6.8783 8.95187 6.33958 9.07271C5.00015 9.37316 4 10.571 4 12C4 13.6569 5.34315 15 7 15C7.55228 15 8 15.4477 8 16C8 16.5523 7.55228 17 7 17C4.23858 17 2 14.7614 2 12C2 9.94357 3.24073 8.1787 5.01385 7.41034C5.00466 7.27465 5 7.13781 5 7C5 3.68629 7.68629 1 11 1C13.627 1 15.858 2.68745 16.6713 5.03713C19.669 5.37085 22 7.91321 22 11C22 13.9039 19.938 16.324 17.1989 16.88C16.6577 16.9899 16.1299 16.6402 16.02 16.0989C15.9101 15.5577 16.2598 15.0298 16.8011 14.92C18.6264 14.5494 20 12.934 20 11C20 8.79086 18.2091 7 16 7C15.9732 7 15.9465 7.00026 15.9198 7.00079C15.4368 7.01024 15.0161 6.67312 14.9201 6.19971C14.5499 4.37395 12.9343 3 11 3ZM12 9C12.5523 9 13 9.44772 13 10V19.5858L14.2929 18.2929C14.6834 17.9024 15.3166 17.9024 15.7071 18.2929C16.0976 18.6834 16.0976 19.3166 15.7071 19.7071L12.7071 22.7071C12.3166 23.0976 11.6834 23.0976 11.2929 22.7071L8.29289 19.7071C7.90237 19.3166 7.90237 18.6834 8.29289 18.2929C8.68342 17.9024 9.31658 17.9024 9.70711 18.2929L11 19.5858V10C11 9.44772 11.4477 9 12 9Z" fill="#6F6E77"/>
</svg>
