<svg width="24" height="24" viewBox="0 0 24 24" fill="none" xmlns="http://www.w3.org/2000/svg">
<path fill-rule="evenodd" clip-rule="evenodd" d="M9.35285 4.08139C10.0266 1.3062 13.9734 1.3062 14.6471 4.08139C14.7628 4.5579 15.3088 4.78402 15.7275 4.52888C18.1662 3.04293 20.9571 5.83376 19.4711 8.27251C19.216 8.69125 19.4421 9.23717 19.9186 9.35285C22.6938 10.0266 22.6938 13.9734 19.9186 14.6471C19.4421 14.7628 19.216 15.3088 19.4711 15.7275C20.9571 18.1662 18.1662 20.9571 15.7275 19.4711C15.3088 19.216 14.7628 19.4421 14.6471 19.9186C13.9734 22.6938 10.0266 22.6938 9.35285 19.9186C9.23717 19.4421 8.69125 19.216 8.27252 19.4711C5.83376 20.9571 3.04293 18.1662 4.52889 15.7275C4.78402 15.3088 4.5579 14.7628 4.08139 14.6471C1.3062 13.9734 1.3062 10.0266 4.08139 9.35285C4.5579 9.23717 4.78402 8.69125 4.52888 8.27251C3.04293 5.83376 5.83376 3.04293 8.27252 4.52888C8.69125 4.78402 9.23717 4.55789 9.35285 4.08139ZM12.7036 4.55323C12.5245 3.81559 11.4755 3.81559 11.2964 4.55322C10.8612 6.34596 8.80726 7.19673 7.23186 6.23681C6.58365 5.84185 5.84185 6.58365 6.23681 7.23185C7.19673 8.80726 6.34596 10.8612 4.55322 11.2964C3.81559 11.4755 3.81559 12.5245 4.55323 12.7036C6.34596 13.1388 7.19673 15.1927 6.23682 16.7681C5.84186 17.4164 6.58365 18.1581 7.23186 17.7632C8.80726 16.8033 10.8612 17.654 11.2964 19.4468C11.4755 20.1844 12.5245 20.1844 12.7036 19.4468C13.1388 17.654 15.1927 16.8033 16.7681 17.7632C17.4164 18.1581 18.1581 17.4164 17.7632 16.7681C16.8033 15.1927 17.654 13.1388 19.4468 12.7036C20.1844 12.5245 20.1844 11.4755 19.4468 11.2964C17.654 10.8612 16.8033 8.80726 17.7632 7.23185C18.1581 6.58364 17.4164 5.84185 16.7681 6.23682C15.1927 7.19673 13.1388 6.34596 12.7036 4.55323ZM12 10C10.8954 10 10 10.8954 10 12C10 13.1046 10.8954 14 12 14C13.1046 14 14 13.1046 14 12C14 10.8954 13.1046 10 12 10ZM8 12C8 9.79086 9.79086 8 12 8C14.2091 8 16 9.79086 16 12C16 14.2091 14.2091 16 12 16C9.79086 16 8 14.2091 8 12Z" fill="#6F6E77"/>
</svg>
