<svg width="24" height="24" viewBox="0 0 24 24" fill="none" xmlns="http://www.w3.org/2000/svg">
<path fill-rule="evenodd" clip-rule="evenodd" d="M6 5C6 3.34315 7.34315 2 9 2H15C16.6569 2 18 3.34315 18 5V6.17071C19.1652 6.58254 20 7.69378 20 9V10.1707C21.1652 10.5825 22 11.6938 22 13V19C22 20.6569 20.6569 22 19 22H5C3.34315 22 2 20.6569 2 19V13C2 11.6938 2.83481 10.5825 4 10.1707V9C4 7.69378 4.83481 6.58254 6 6.17071V5ZM8 6H16V5C16 4.44772 15.5523 4 15 4H9C8.44772 4 8 4.44772 8 5V6ZM6 10H18V9C18 8.44772 17.5523 8 17 8H7C6.44772 8 6 8.44772 6 9V10ZM5 12C4.44772 12 4 12.4477 4 13V19C4 19.5523 4.44772 20 5 20H19C19.5523 20 20 19.5523 20 19V13C20 12.4477 19.5523 12 19 12H5Z" fill="#6F6E77"/>
</svg>
