<svg width="24" height="24" viewBox="0 0 24 24" fill="none" xmlns="http://www.w3.org/2000/svg">
<path fill-rule="evenodd" clip-rule="evenodd" d="M2 5C2 3.34315 3.34315 2 5 2H9C10.6337 2 11.9625 3.30592 11.9992 4.93082C13.1742 3.80784 15.0372 3.82396 16.1924 4.97918L19.0208 7.80761C20.176 8.96284 20.1922 10.8258 19.0692 12.0008C20.6941 12.0375 22 13.3663 22 15V19C22 20.6569 20.6569 22 19 22H7C4.23858 22 2 19.7614 2 17V5ZM11.0711 20H19C19.5523 20 20 19.5523 20 19V15C20 14.4477 19.5523 14 19 14H17.0711L11.0711 20ZM15.9493 12.2934C15.9496 12.2931 15.9499 12.2927 15.9502 12.2924L17.6066 10.636C17.9971 10.2455 17.9971 9.61235 17.6066 9.22183L14.7782 6.3934C14.3876 6.00287 13.7545 6.00287 13.364 6.3934L12 7.75736V16.2426L15.9493 12.2934ZM9.12271 19.1199C9.66479 18.5771 10 17.8277 10 17V5C10 4.44772 9.55228 4 9 4H5C4.44772 4 4 4.44772 4 5V17C4 18.6569 5.34315 20 7 20C7.82843 20 8.57843 19.6642 9.12132 19.1213C9.12178 19.1209 9.12225 19.1204 9.12271 19.1199ZM6 17C6 16.4477 6.44772 16 7 16H7.01C7.56228 16 8.01 16.4477 8.01 17C8.01 17.5523 7.56228 18 7.01 18H7C6.44772 18 6 17.5523 6 17Z" fill="#6F6E77"/>
</svg>
