<svg width="24" height="24" viewBox="0 0 24 24" fill="none" xmlns="http://www.w3.org/2000/svg">
<path fill-rule="evenodd" clip-rule="evenodd" d="M2 8C2 5.79086 3.79086 4 6 4H18C20.2091 4 22 5.79086 22 8V16C22 18.2091 20.2091 20 18 20H6C3.79086 20 2 18.2091 2 16V8ZM4 11V16C4 17.1046 4.89543 18 6 18H18C19.1046 18 20 17.1046 20 16V11H4ZM20 9H4V8C4 6.89543 4.89543 6 6 6H18C19.1046 6 20 6.89543 20 8V9ZM6 15C6 14.4477 6.44772 14 7 14H8C8.55228 14 9 14.4477 9 15C9 15.5523 8.55228 16 8 16H7C6.44772 16 6 15.5523 6 15ZM11 15C11 14.4477 11.4477 14 12 14H13C13.5523 14 14 14.4477 14 15C14 15.5523 13.5523 16 13 16H12C11.4477 16 11 15.5523 11 15Z" fill="#6F6E77"/>
</svg>
