<svg width="24" height="24" viewBox="0 0 24 24" fill="none" xmlns="http://www.w3.org/2000/svg">
<path fill-rule="evenodd" clip-rule="evenodd" d="M11.5528 2.10557C11.8343 1.96481 12.1657 1.96481 12.4472 2.10557L14.4472 3.10557C14.9412 3.35256 15.1414 3.95324 14.8944 4.44721C14.6474 4.94119 14.0468 5.14142 13.5528 4.89443L12 4.11803L10.4472 4.89443C9.95324 5.14142 9.35256 4.94119 9.10557 4.44721C8.85858 3.95324 9.05881 3.35256 9.55279 3.10557L11.5528 2.10557ZM6.89443 5.55279C7.14142 6.04676 6.94119 6.64744 6.44721 6.89443L6.23607 7L6.44721 7.10557C6.94119 7.35256 7.14142 7.95324 6.89443 8.44721C6.64744 8.94119 6.04676 9.14142 5.55279 8.89443L5 8.61803V9.5C5 10.0523 4.55228 10.5 4 10.5C3.44772 10.5 3 10.0523 3 9.5V7C3 6.62123 3.214 6.27496 3.55279 6.10557L5.55279 5.10557C6.04676 4.85858 6.64744 5.05881 6.89443 5.55279ZM17.1056 5.55279C17.3526 5.05881 17.9532 4.85858 18.4472 5.10557L20.4472 6.10557C20.786 6.27496 21 6.62123 21 7V9.5C21 10.0523 20.5523 10.5 20 10.5C19.4477 10.5 19 10.0523 19 9.5V8.61803L18.4472 8.89443C17.9532 9.14142 17.3526 8.94119 17.1056 8.44721C16.8586 7.95324 17.0588 7.35256 17.5528 7.10557L17.7639 7L17.5528 6.89443C17.0588 6.64744 16.8586 6.04676 17.1056 5.55279ZM9.10557 9.55279C9.35256 9.05881 9.95324 8.85858 10.4472 9.10557L12 9.88197L13.5528 9.10557C14.0468 8.85858 14.6474 9.05881 14.8944 9.55279C15.1414 10.0468 14.9412 10.6474 14.4472 10.8944L13 11.618V13.5C13 14.0523 12.5523 14.5 12 14.5C11.4477 14.5 11 14.0523 11 13.5V11.618L9.55279 10.8944C9.05881 10.6474 8.85858 10.0468 9.10557 9.55279ZM4 13.5C4.55228 13.5 5 13.9477 5 14.5V16.382L6.44721 17.1056C6.94119 17.3526 7.14142 17.9532 6.89443 18.4472C6.64744 18.9412 6.04676 19.1414 5.55279 18.8944L3.55279 17.8944C3.214 17.725 3 17.3788 3 17V14.5C3 13.9477 3.44772 13.5 4 13.5ZM20 13.5C20.5523 13.5 21 13.9477 21 14.5V17C21 17.3788 20.786 17.725 20.4472 17.8944L18.4472 18.8944C17.9532 19.1414 17.3526 18.9412 17.1056 18.4472C16.8586 17.9532 17.0588 17.3526 17.5528 17.1056L19 16.382V14.5C19 13.9477 19.4477 13.5 20 13.5ZM12 17.5C12.5523 17.5 13 17.9477 13 18.5V19.382L13.5528 19.1056C14.0468 18.8586 14.6474 19.0588 14.8944 19.5528C15.1414 20.0468 14.9412 20.6474 14.4472 20.8944L12.4472 21.8944C12.1657 22.0352 11.8343 22.0352 11.5528 21.8944L9.55279 20.8944C9.05881 20.6474 8.85858 20.0468 9.10557 19.5528C9.35256 19.0588 9.95324 18.8586 10.4472 19.1056L11 19.382V18.5C11 17.9477 11.4477 17.5 12 17.5Z" fill="#6F6E77"/>
</svg>
