<svg width="24" height="24" viewBox="0 0 24 24" fill="none" xmlns="http://www.w3.org/2000/svg">
<path fill-rule="evenodd" clip-rule="evenodd" d="M12 4C7.58172 4 4 7.58172 4 12C4 16.4183 7.58172 20 12 20C16.4183 20 20 16.4183 20 12C20 7.58172 16.4183 4 12 4ZM2 12C2 6.47715 6.47715 2 12 2C17.5228 2 22 6.47715 22 12C22 17.5228 17.5228 22 12 22C6.47715 22 2 17.5228 2 12ZM8 8C8 7.44772 8.44772 7 9 7H15C15.5523 7 16 7.44772 16 8C16 8.55228 15.5523 9 15 9H13.4649C13.6439 9.30951 13.7827 9.64523 13.874 10H15C15.5523 10 16 10.4477 16 11C16 11.5523 15.5523 12 15 12H13.874C13.5316 13.3302 12.5222 14.3926 11.2236 14.8094L12.7071 16.2929C13.0976 16.6834 13.0976 17.3166 12.7071 17.7071C12.3166 18.0976 11.6834 18.0976 11.2929 17.7071L8.29289 14.7071C8.0069 14.4211 7.92134 13.991 8.07612 13.6173C8.2309 13.2436 8.59554 13 9 13H10C10.7403 13 11.3866 12.5978 11.7324 12H9C8.44772 12 8 11.5523 8 11C8 10.4477 8.44772 10 9 10H11.7324C11.3866 9.4022 10.7403 9 10 9H9C8.44772 9 8 8.55228 8 8Z" fill="#6F6E77"/>
</svg>
