<svg width="24" height="24" viewBox="0 0 24 24" fill="none" xmlns="http://www.w3.org/2000/svg">
<path fill-rule="evenodd" clip-rule="evenodd" d="M12 4C7.58172 4 4 7.58172 4 12C4 16.4183 7.58172 20 12 20C16.4183 20 20 16.4183 20 12C20 7.58172 16.4183 4 12 4ZM2 12C2 6.47715 6.47715 2 12 2C17.5228 2 22 6.47715 22 12C22 17.5228 17.5228 22 12 22C6.47715 22 2 17.5228 2 12ZM8 7C8 6.44772 8.44772 6 9 6C10.6569 6 12 7.34315 12 9V10H15C15.5523 10 16 10.4477 16 11C16 11.5523 15.5523 12 15 12H12V15C12 15.5523 12.4477 16 13 16C13.5523 16 14 15.5523 14 15V14C14 13.4477 14.4477 13 15 13C15.5523 13 16 13.4477 16 14V15C16 16.6569 14.6569 18 13 18C11.3431 18 10 16.6569 10 15V12H9C8.44772 12 8 11.5523 8 11C8 10.4477 8.44772 10 9 10H10V9C10 8.44772 9.55228 8 9 8C8.44772 8 8 7.55228 8 7Z" fill="#6F6E77"/>
</svg>
