<svg width="24" height="24" viewBox="0 0 24 24" fill="none" xmlns="http://www.w3.org/2000/svg">
<path fill-rule="evenodd" clip-rule="evenodd" d="M12 4C7.58172 4 4 7.58172 4 12C4 16.4183 7.58172 20 12 20C16.4183 20 20 16.4183 20 12C20 7.58172 16.4183 4 12 4ZM2 12C2 6.47715 6.47715 2 12 2C17.5228 2 22 6.47715 22 12C22 17.5228 17.5228 22 12 22C6.47715 22 2 17.5228 2 12ZM12 8C11.6962 8 11.2079 8.1927 10.7362 8.97896C10.6393 9.14047 10.5511 9.31488 10.4722 9.5H12C12.5523 9.5 13 9.94772 13 10.5C13 11.0523 12.5523 11.5 12 11.5H10.017C10.0057 11.665 10 11.8319 10 12C10 12.1681 10.0057 12.335 10.017 12.5H12C12.5523 12.5 13 12.9477 13 13.5C13 14.0523 12.5523 14.5 12 14.5H10.4722C10.5511 14.6851 10.6393 14.8595 10.7362 15.021C11.2079 15.8073 11.6962 16 12 16C12.3038 16 12.7921 15.8073 13.2638 15.021C13.548 14.5475 14.1622 14.3939 14.6358 14.678C15.1094 14.9622 15.263 15.5764 14.9788 16.05C14.279 17.2164 13.2317 18 12 18C10.7683 18 9.721 17.2164 9.02119 16.05C8.73632 15.5753 8.51422 15.0506 8.35097 14.5H8C7.44772 14.5 7 14.0523 7 13.5C7 12.9477 7.44772 12.5 8 12.5H8.01337C8.00443 12.333 8 12.1661 8 12C8 11.8339 8.00443 11.667 8.01337 11.5H8C7.44772 11.5 7 11.0523 7 10.5C7 9.94772 7.44772 9.5 8 9.5H8.35097C8.51422 8.94939 8.73632 8.42475 9.02119 7.94997C9.721 6.78361 10.7683 6 12 6C13.2317 6 14.279 6.78361 14.9788 7.94997C15.263 8.42355 15.1094 9.03781 14.6358 9.32196C14.1622 9.60611 13.548 9.45254 13.2638 8.97896C12.7921 8.1927 12.3038 8 12 8Z" fill="#6F6E77"/>
</svg>
