<svg width="24" height="24" viewBox="0 0 24 24" fill="none" xmlns="http://www.w3.org/2000/svg">
<path fill-rule="evenodd" clip-rule="evenodd" d="M12 4C7.58172 4 4 7.58172 4 12C4 16.4183 7.58172 20 12 20C16.4183 20 20 16.4183 20 12C20 7.58172 16.4183 4 12 4ZM2 12C2 6.47715 6.47715 2 12 2C17.5228 2 22 6.47715 22 12C22 17.5228 17.5228 22 12 22C6.47715 22 2 17.5228 2 12ZM8.4855 7.14251C8.95908 6.85836 9.57334 7.01192 9.85749 7.4855L11.9662 11H12.0338L14.1425 7.4855C14.4267 7.01192 15.0409 6.85836 15.5145 7.14251C15.9881 7.42666 16.1416 8.04092 15.8575 8.5145L14.3662 11H15C15.5523 11 16 11.4477 16 12C16 12.5523 15.5523 13 15 13H13.1662L13 13.277V14H15C15.5523 14 16 14.4477 16 15C16 15.5523 15.5523 16 15 16H13V17C13 17.5523 12.5523 18 12 18C11.4477 18 11 17.5523 11 17V16H9C8.44772 16 8 15.5523 8 15C8 14.4477 8.44772 14 9 14H11V13.277L10.8338 13H9C8.44772 13 8 12.5523 8 12C8 11.4477 8.44772 11 9 11H9.63381L8.14251 8.5145C7.85836 8.04092 8.01192 7.42666 8.4855 7.14251Z" fill="#6F6E77"/>
</svg>
