<svg width="24" height="24" viewBox="0 0 24 24" fill="none" xmlns="http://www.w3.org/2000/svg">
<path fill-rule="evenodd" clip-rule="evenodd" d="M12 4C7.58172 4 4 7.58172 4 12C4 16.4183 7.58172 20 12 20C16.4183 20 20 16.4183 20 12C20 7.58172 16.4183 4 12 4ZM2 12C2 6.47715 6.47715 2 12 2C17.5228 2 22 6.47715 22 12C22 17.5228 17.5228 22 12 22C6.47715 22 2 17.5228 2 12ZM10 9C10 7.34315 11.3431 6 13 6C14.6569 6 16 7.34315 16 9C16 9.55228 15.5523 10 15 10C14.4477 10 14 9.55228 14 9C14 8.44772 13.5523 8 13 8C12.4477 8 12 8.44772 12 9V11H13C13.5523 11 14 11.4477 14 12C14 12.5523 13.5523 13 13 13H12V14C12 14.3506 11.9398 14.6872 11.8293 15H15C15.5523 15 16 15.4477 16 16C16 16.5523 15.5523 17 15 17H9C8.44772 17 8 16.5523 8 16C8 15.4477 8.44772 15 9 15C9.55228 15 10 14.5523 10 14V13H9C8.44772 13 8 12.5523 8 12C8 11.4477 8.44772 11 9 11H10V9Z" fill="#6F6E77"/>
</svg>
