<svg width="24" height="24" viewBox="0 0 24 24" fill="none" xmlns="http://www.w3.org/2000/svg">
<path fill-rule="evenodd" clip-rule="evenodd" d="M6.79036 5.066C5.44895 5.73671 5 6.47826 5 7C5 7.52174 5.44895 8.26329 6.79036 8.934C8.07196 9.5748 9.91244 10 12 10C14.0876 10 15.928 9.5748 17.2096 8.934C18.5511 8.26329 19 7.52174 19 7C19 6.47826 18.5511 5.73671 17.2096 5.066C15.928 4.4252 14.0876 4 12 4C9.91244 4 8.07196 4.4252 6.79036 5.066ZM19 10.2006C18.7158 10.3936 18.4141 10.5678 18.1041 10.7229C16.4902 11.5298 14.3307 12 12 12C9.66928 12 7.50977 11.5298 5.89593 10.7229C5.58585 10.5678 5.28422 10.3936 5 10.2006V12C5 12.5217 5.44895 13.2633 6.79036 13.934C8.07196 14.5748 9.91244 15 12 15C14.0876 15 15.928 14.5748 17.2096 13.934C18.5511 13.2633 19 12.5217 19 12V10.2006ZM21 7C21 5.3126 19.6581 4.05416 18.1041 3.27715C16.4902 2.47023 14.3307 2 12 2C9.66928 2 7.50977 2.47023 5.89593 3.27715C4.34191 4.05416 3 5.3126 3 7V17C3 18.6874 4.34191 19.9458 5.89593 20.7229C7.50977 21.5298 9.66928 22 12 22C14.3307 22 16.4902 21.5298 18.1041 20.7229C19.6581 19.9458 21 18.6874 21 17V7ZM19 15.2006C18.7158 15.3936 18.4141 15.5678 18.1041 15.7229C16.4902 16.5298 14.3307 17 12 17C9.66928 17 7.50977 16.5298 5.89593 15.7229C5.58585 15.5678 5.28422 15.3936 5 15.2006V17C5 17.5217 5.44895 18.2633 6.79036 18.934C8.07196 19.5748 9.91244 20 12 20C14.0876 20 15.928 19.5748 17.2096 18.934C18.5511 18.2633 19 17.5217 19 17V15.2006Z" fill="#6F6E77"/>
</svg>
