<svg width="24" height="24" viewBox="0 0 24 24" fill="none" xmlns="http://www.w3.org/2000/svg">
<path fill-rule="evenodd" clip-rule="evenodd" d="M7 4C6.44772 4 6 4.44772 6 5V19C6 19.5523 6.44772 20 7 20H17C17.5523 20 18 19.5523 18 19L18 9.41421L12.5858 4H7ZM4 5C4 3.34315 5.34315 2 7 2H12.5858C13.1162 2 13.6249 2.21071 14 2.58579L19.4142 8C19.7893 8.37507 20 8.88378 20 9.41421V19C20 20.6569 18.6569 22 17 22H7C5.34315 22 4 20.6569 4 19V5ZM12 9C12.5523 9 13 9.44772 13 10V13.5858L14.2929 12.2929C14.6834 11.9024 15.3166 11.9024 15.7071 12.2929C16.0976 12.6834 16.0976 13.3166 15.7071 13.7071L12.7071 16.7071C12.3166 17.0976 11.6834 17.0976 11.2929 16.7071L8.29289 13.7071C7.90237 13.3166 7.90237 12.6834 8.29289 12.2929C8.68342 11.9024 9.31658 11.9024 9.70711 12.2929L11 13.5858V10C11 9.44772 11.4477 9 12 9Z" fill="#6F6E77"/>
</svg>
