<svg width="24" height="24" viewBox="0 0 24 24" fill="none" xmlns="http://www.w3.org/2000/svg">
<path fill-rule="evenodd" clip-rule="evenodd" d="M7 4C6.44772 4 6 4.44772 6 5V19C6 19.5523 6.44772 20 7 20H17C17.5523 20 18 19.5523 18 19L18 9.41421L12.5858 4H7ZM4 5C4 3.34315 5.34315 2 7 2H12.5858C13.1162 2 13.6249 2.21071 14 2.58579L19.4142 8C19.7893 8.37507 20 8.88378 20 9.41421V19C20 20.6569 18.6569 22 17 22H7C5.34315 22 4 20.6569 4 19V5ZM15 10C15.5523 10 16 10.4477 16 11V17C16 17.5523 15.5523 18 15 18C14.4477 18 14 17.5523 14 17V11C14 10.4477 14.4477 10 15 10ZM12 12C12.5523 12 13 12.4477 13 13V17C13 17.5523 12.5523 18 12 18C11.4477 18 11 17.5523 11 17V13C11 12.4477 11.4477 12 12 12ZM9 14C9.55228 14 10 14.4477 10 15V17C10 17.5523 9.55228 18 9 18C8.44772 18 8 17.5523 8 17V15C8 14.4477 8.44772 14 9 14Z" fill="#6F6E77"/>
</svg>
