<svg width="24" height="24" viewBox="0 0 24 24" fill="none" xmlns="http://www.w3.org/2000/svg">
<path fill-rule="evenodd" clip-rule="evenodd" d="M10 4C9.44772 4 9 4.44772 9 5V15C9 15.5523 9.44772 16 10 16H18C18.5523 16 19 15.5523 19 15V8.41421L14.5858 4H10ZM7 5C7 3.34315 8.34315 2 10 2H14.5858C15.1162 2 15.6249 2.21071 16 2.58579L20.4142 7C20.7893 7.37507 21 7.88378 21 8.41421V15C21 16.6569 19.6569 18 18 18H17V19C17 20.6569 15.6569 22 14 22H6C4.34315 22 3 20.6569 3 19V9C3 7.34315 4.34315 6 6 6H7V5ZM7 8H6C5.44772 8 5 8.44772 5 9V19C5 19.5523 5.44772 20 6 20H14C14.5523 20 15 19.5523 15 19V18H10C8.34315 18 7 16.6569 7 15V8Z" fill="#6F6E77"/>
</svg>
