<svg width="24" height="24" viewBox="0 0 24 24" fill="none" xmlns="http://www.w3.org/2000/svg">
<path fill-rule="evenodd" clip-rule="evenodd" d="M7 4C6.44772 4 6 4.44772 6 5V16C6 16.5523 5.55228 17 5 17C4.44772 17 4 16.5523 4 16V5C4 3.34315 5.34315 2 7 2H12.5858C13.1162 2 13.6249 2.21071 14 2.58579L19.4142 8C19.7893 8.37507 20 8.88378 20 9.41421V19C20 20.6569 18.6569 22 17 22H10C9.44772 22 9 21.5523 9 21C9 20.4477 9.44772 20 10 20H17C17.5523 20 18 19.5523 18 19L18 9.41421L12.5858 4H7ZM12 12C10.8954 12 10 12.8954 10 14C10 14.5526 10.2228 15.0512 10.5858 15.4142C10.9488 15.7772 11.4474 16 12 16C13.1046 16 14 15.1046 14 14C14 12.8954 13.1046 12 12 12ZM8 14C8 11.7909 9.79086 10 12 10C14.2091 10 16 11.7909 16 14C16 16.2091 14.2091 18 12 18C11.2586 18 10.5636 17.7977 9.96818 17.446L5.70711 21.7071C5.31658 22.0976 4.68342 22.0976 4.29289 21.7071C3.90237 21.3166 3.90237 20.6834 4.29289 20.2929L8.55397 16.0318C8.20229 15.4364 8 14.7414 8 14Z" fill="#6F6E77"/>
</svg>
