<svg width="24" height="24" viewBox="0 0 24 24" fill="none" xmlns="http://www.w3.org/2000/svg">
<path fill-rule="evenodd" clip-rule="evenodd" d="M3 6C3 4.34315 4.34315 3 6 3H14C15.6569 3 17 4.34315 17 6V7H18C19.6569 7 21 8.34315 21 10V18C21 19.6569 19.6569 21 18 21H10C8.34315 21 7 19.6569 7 18V17H6C4.34315 17 3 15.6569 3 14V6ZM9 18C9 18.5523 9.44772 19 10 19H18C18.5523 19 19 18.5523 19 18V10C19 9.44772 18.5523 9 18 9H10C9.44772 9 9 9.44772 9 10V18ZM15 7H10C8.34315 7 7 8.34315 7 10V15H6C5.44772 15 5 14.5523 5 14V6C5 5.44772 5.44772 5 6 5H14C14.5523 5 15 5.44772 15 6V7Z" fill="#6F6E77"/>
</svg>
