<svg width="24" height="24" viewBox="0 0 24 24" fill="none" xmlns="http://www.w3.org/2000/svg">
<path fill-rule="evenodd" clip-rule="evenodd" d="M12 4C7.58172 4 4 7.58172 4 12C4 16.4183 7.58172 20 12 20C16.4183 20 20 16.4183 20 12C20 7.58172 16.4183 4 12 4ZM2 12C2 6.47715 6.47715 2 12 2C17.5228 2 22 6.47715 22 12C22 17.5228 17.5228 22 12 22C6.47715 22 2 17.5228 2 12ZM8 10C8 9.44772 8.44772 9 9 9H9.01C9.56228 9 10.01 9.44772 10.01 10C10.01 10.5523 9.56228 11 9.01 11H9C8.44772 11 8 10.5523 8 10ZM14 10C14 9.44772 14.4477 9 15 9H15.01C15.5623 9 16.01 9.44772 16.01 10C16.01 10.5523 15.5623 11 15.01 11H15C14.4477 11 14 10.5523 14 10ZM14.1214 16.8787C12.9498 15.7072 11.0503 15.7072 9.87874 16.8787C9.48821 17.2693 8.85505 17.2693 8.46452 16.8787C8.074 16.4882 8.074 15.855 8.46452 15.4645C10.4171 13.5119 13.583 13.5119 15.5356 15.4645C15.9261 15.855 15.9261 16.4882 15.5356 16.8787C15.1451 17.2693 14.5119 17.2693 14.1214 16.8787Z" fill="#6F6E77"/>
</svg>
