<svg width="24" height="24" viewBox="0 0 24 24" fill="none" xmlns="http://www.w3.org/2000/svg">
<path fill-rule="evenodd" clip-rule="evenodd" d="M9.40195 3.5C10.5567 1.5 13.4434 1.5 14.5981 3.5L21.5263 15.5C22.681 17.5 21.2376 20 18.9282 20H5.07183C2.76243 20 1.31905 17.5 2.47375 15.5L9.40195 3.5ZM12.8661 4.5C12.4812 3.83333 11.5189 3.83333 11.134 4.5L4.2058 16.5C3.8209 17.1667 4.30203 18 5.07183 18H18.9282C19.698 18 20.1792 17.1667 19.7943 16.5L12.8661 4.5ZM12 8C12.5523 8 13 8.44771 13 9V11C13 11.5523 12.5523 12 12 12C11.4477 12 11 11.5523 11 11V9C11 8.44771 11.4477 8 12 8ZM11 15C11 14.4477 11.4477 14 12 14H12.01C12.5623 14 13.01 14.4477 13.01 15C13.01 15.5523 12.5623 16 12.01 16H12C11.4477 16 11 15.5523 11 15Z" fill="#6F6E77"/>
</svg>
