<svg width="24" height="24" viewBox="0 0 24 24" fill="none" xmlns="http://www.w3.org/2000/svg">
<path fill-rule="evenodd" clip-rule="evenodd" d="M6 5C4.89543 5 4 5.89543 4 7V17C4 18.1046 4.89543 19 6 19H10C11.1046 19 12 18.1046 12 17V16C12 15.4477 12.4477 15 13 15C13.5523 15 14 15.4477 14 16V17C14 19.2091 12.2091 21 10 21H6C3.79086 21 2 19.2091 2 17V7C2 4.79086 3.79086 3 6 3H10C12.2091 3 14 4.79086 14 7V8C14 8.55228 13.5523 9 13 9C12.4477 9 12 8.55228 12 8V7C12 5.89543 11.1046 5 10 5H6ZM16.2929 7.29289C16.6834 6.90237 17.3166 6.90237 17.7071 7.29289L21.7071 11.2929C22.0976 11.6834 22.0976 12.3166 21.7071 12.7071L17.7071 16.7071C17.3166 17.0976 16.6834 17.0976 16.2929 16.7071C15.9024 16.3166 15.9024 15.6834 16.2929 15.2929L18.5858 13L7 13C6.44772 13 6 12.5523 6 12C6 11.4477 6.44772 11 7 11L18.5858 11L16.2929 8.70711C15.9024 8.31658 15.9024 7.68342 16.2929 7.29289Z" fill="#6F6E77"/>
</svg>
