<svg width="24" height="24" viewBox="0 0 24 24" fill="none" xmlns="http://www.w3.org/2000/svg">
<path fill-rule="evenodd" clip-rule="evenodd" d="M2.29289 2.29289C2.68342 1.90237 3.31658 1.90237 3.70711 2.29289L6.7474 5.33319C8.30897 4.483 10.0994 4 12.0004 4C16.9274 4 21.0953 7.23846 22.4967 11.7004C22.558 11.8955 22.558 12.1046 22.4967 12.2997C21.844 14.3778 20.5924 16.1885 18.9452 17.531L21.7071 20.2929C22.0976 20.6834 22.0976 21.3166 21.7071 21.7071C21.3166 22.0976 20.6834 22.0976 20.2929 21.7071L2.29289 3.70711C1.90237 3.31658 1.90237 2.68342 2.29289 2.29289ZM8.23644 6.82223L9.96818 8.55397C10.5636 8.20229 11.2586 8 12 8C14.2091 8 16 9.79086 16 12C16 12.7414 15.7977 13.4364 15.446 14.0318L17.522 16.1078C18.869 15.0598 19.9097 13.6379 20.4886 12C19.2529 8.50345 15.9178 6 12.0004 6C10.6555 6 9.38102 6.29444 8.23644 6.82223ZM13.9324 12.5182C13.9765 12.353 14 12.1793 14 12C14 10.8954 13.1046 10 12 10C11.8207 10 11.647 10.0235 11.4818 10.0676L13.9324 12.5182ZM4.62488 8.17378C5.06528 8.50706 5.15211 9.13424 4.81884 9.57463C4.26624 10.3048 3.82282 11.1213 3.51228 12C4.74799 15.4965 8.08311 18 12.0005 18C12.5783 18 13.1425 17.9457 13.6886 17.8421C14.2312 17.7392 14.7545 18.0957 14.8574 18.6383C14.9603 19.1809 14.6038 19.7042 14.0612 19.8071C13.3929 19.9338 12.7039 20 12.0005 20C7.07353 20 2.9056 16.7615 1.5042 12.2996C1.44293 12.1045 1.44294 11.8954 1.5042 11.7003C1.88612 10.4844 2.4731 9.36002 3.22403 8.36773C3.55731 7.92734 4.18449 7.8405 4.62488 8.17378Z" fill="#6F6E77"/>
</svg>
