<svg width="24" height="24" viewBox="0 0 24 24" fill="none" xmlns="http://www.w3.org/2000/svg">
<path fill-rule="evenodd" clip-rule="evenodd" d="M7.49929 3.20465C8.82409 2.4383 10.3624 2 12 2C16.9706 2 21 6.02944 21 11C21 13.5667 20.6416 16.0513 19.9715 18.4057C19.8203 18.9369 19.2671 19.2449 18.7359 19.0938C18.2047 18.9426 17.8967 18.3894 18.0479 17.8582C18.6678 15.6801 19 13.3797 19 11C19 7.13401 15.866 4 12 4C10.7233 4 9.52933 4.34086 8.50074 4.93586C8.02268 5.21241 7.41095 5.04904 7.13441 4.57098C6.85786 4.09292 7.02123 3.4812 7.49929 3.20465ZM5.571 6.13439C6.04906 6.41094 6.21242 7.02267 5.93588 7.50073C5.34087 8.52931 5.00001 9.72333 5.00001 11C5.00001 12.7193 4.60486 14.3491 3.89949 15.8011C3.65816 16.2979 3.05981 16.5049 2.56305 16.2636C2.06628 16.0223 1.85921 15.4239 2.10054 14.9272C2.67648 13.7416 3.00001 12.41 3.00001 11C3.00001 9.36237 3.43831 7.82407 4.20467 6.49927C4.48121 6.02121 5.09294 5.85785 5.571 6.13439ZM6.99992 11C6.99992 8.23858 9.2385 6 11.9999 6C14.7613 6 16.9999 8.23858 16.9999 11C16.9999 12.0625 16.9276 13.1092 16.7874 14.1353C16.7127 14.6825 16.2085 15.0655 15.6613 14.9908C15.1141 14.9161 14.7311 14.4119 14.8058 13.8647C14.9338 12.9279 14.9999 11.9716 14.9999 11C14.9999 9.34315 13.6568 8 11.9999 8C10.3431 8 8.99992 9.34315 8.99992 11C8.99992 13.9356 8.15966 16.6658 6.70777 18.9738C6.69374 18.9961 6.68005 19.0185 6.66669 19.041C6.38468 19.5159 5.77112 19.6722 5.29626 19.3902C4.82141 19.1081 4.66508 18.4946 4.9471 18.0197C4.96916 17.9826 4.99175 17.9456 5.01486 17.9089L5.86132 18.4413L5.01487 17.9089C6.27196 15.9105 6.99992 13.5479 6.99992 11ZM11.9999 10C12.5522 10 12.9999 10.4477 12.9999 11C12.9999 14.7111 11.9349 18.1765 10.0935 21.1037C9.79946 21.5712 9.1821 21.7117 8.71462 21.4177C8.24714 21.1236 8.10656 20.5062 8.40063 20.0387C10.0473 17.4211 10.9999 14.3233 10.9999 11C10.9999 10.4477 11.4476 10 11.9999 10ZM15.443 16.0378C15.9744 16.1882 16.2833 16.7409 16.1329 17.2723C15.7373 18.6704 15.2129 20.0149 14.5733 21.2915C14.3259 21.7853 13.7251 21.9851 13.2313 21.7377C12.7375 21.4903 12.5378 20.8895 12.7852 20.3957C13.369 19.2304 13.8475 18.0034 14.2085 16.7277C14.3589 16.1963 14.9116 15.8874 15.443 16.0378Z" fill="#6F6E77"/>
</svg>
