<svg width="24" height="24" viewBox="0 0 24 24" fill="none" xmlns="http://www.w3.org/2000/svg">
<path fill-rule="evenodd" clip-rule="evenodd" d="M11.359 2.22087C11.7558 1.90164 12.3291 1.93158 12.6905 2.29042C13.6213 3.21466 14.5746 3.86276 15.5402 4.49971C15.602 4.54051 15.6641 4.58139 15.7265 4.62242C16.6162 5.20796 17.5514 5.82345 18.364 6.63603C20.1211 8.3932 21 10.6983 21 13C21 15.3018 20.1211 17.6068 18.364 19.364C14.8492 22.8787 9.15076 22.8787 5.63604 19.364C3.87888 17.6068 3 15.3018 3 13C3 10.6983 3.87887 8.3932 5.63604 6.63603C5.87411 6.39796 6.216 6.29567 6.5457 6.36387C6.87288 6.43154 7.14447 6.65809 7.26987 6.96741L7.27031 6.96843L7.27078 6.96966L7.27165 6.97182M7.26987 6.96741L7.27031 6.96843C7.27195 6.97225 7.27607 6.98173 7.28282 6.99632C7.29634 7.02553 7.32028 7.07498 7.35582 7.14042C7.42709 7.27166 7.5437 7.46487 7.71461 7.68735C7.82939 7.83675 7.96796 7.99852 8.13318 8.16337C8.03442 8.83175 8.00004 9.45714 8.00004 9.99996H9.00004L9.44726 9.10553C8.89045 8.82713 8.45976 8.48922 8.13318 8.16337C8.42007 6.2218 9.25022 3.91749 11.359 2.22087M11.982 4.36037C10.3794 6.05118 10 8.32092 10 9.99996C10 10.3465 9.82059 10.6684 9.52578 10.8506C9.23096 11.0328 8.86282 11.0494 8.55283 10.8944C7.46888 10.3524 6.7207 9.64194 6.22996 9.03443C5.40989 10.2244 5 11.6112 5 13C5 14.793 5.68322 16.5827 7.05025 17.9497C9.78392 20.6834 14.2161 20.6834 16.9497 17.9497C18.3168 16.5827 19 14.793 19 13C19 11.207 18.3168 9.41728 16.9497 8.05025C16.2864 7.38693 15.5121 6.87653 14.5787 6.26137C14.5325 6.2309 14.4859 6.20018 14.4389 6.16917C13.6739 5.6645 12.8323 5.09984 11.982 4.36037ZM7.27245 6.97383C7.27245 6.97383 7.27245 6.97383 7.27245 6.97383ZM11.0673 10.6796C11.2052 10.2717 11.5888 9.99793 12.0194 10C13.0351 10.0049 14.0525 10.3956 14.8284 11.1715C15.6093 11.9524 16 12.9778 16 14C16 15.0221 15.6093 16.0475 14.8284 16.8284C13.2663 18.3905 10.7337 18.3905 9.17157 16.8284C8.39073 16.0475 8.00001 15.0221 8 14C7.99999 13.4477 8.44769 13 8.99997 13L10.2825 13L11.0673 10.6796ZM12.6907 12.1222L11.9472 14.3203C11.8099 14.7265 11.4288 14.9999 11 14.9999L10.2671 15C10.3528 15.148 10.459 15.2874 10.5858 15.4142C11.3668 16.1952 12.6332 16.1952 13.4142 15.4142C13.8049 15.0235 14 14.5134 14 14C14 13.4866 13.8049 12.9765 13.4142 12.5857C13.202 12.3736 12.9546 12.2191 12.6907 12.1222Z" fill="#6F6E77"/>
</svg>
