<svg width="24" height="24" viewBox="0 0 24 24" fill="none" xmlns="http://www.w3.org/2000/svg">
<path fill-rule="evenodd" clip-rule="evenodd" d="M5 6C4.44772 6 4 6.44772 4 7V17C4 17.5523 4.44772 18 5 18H19C19.5523 18 20 17.5523 20 17V9C20 8.44772 19.5523 8 19 8H13C12.7348 8 12.4804 7.89464 12.2929 7.70711L10.5858 6H5ZM2 7C2 5.34315 3.34315 4 5 4H11C11.2652 4 11.5196 4.10536 11.7071 4.29289L13.4142 6H19C20.6569 6 22 7.34315 22 9V17C22 18.6569 20.6569 20 19 20H5C3.34315 20 2 18.6569 2 17V7ZM12 9C12.5523 9 13 9.44772 13 10V12H15C15.5523 12 16 12.4477 16 13C16 13.5523 15.5523 14 15 14H13V16C13 16.5523 12.5523 17 12 17C11.4477 17 11 16.5523 11 16V14H9C8.44772 14 8 13.5523 8 13C8 12.4477 8.44772 12 9 12H11V10C11 9.44772 11.4477 9 12 9Z" fill="#6F6E77"/>
</svg>
