<svg width="24" height="24" viewBox="0 0 24 24" fill="none" xmlns="http://www.w3.org/2000/svg">
<path fill-rule="evenodd" clip-rule="evenodd" d="M11.5 4C11.2239 4 11 4.22386 11 4.5V11C11 11.5523 10.5523 12 10 12C9.44772 12 9 11.5523 9 11V5.5C9 5.22386 8.77614 5 8.5 5C8.22386 5 8 5.22386 8 5.5V14C8 14.5523 7.55228 15 7 15C6.44772 15 6 14.5523 6 14V11.5C6 11.2239 5.77614 11 5.5 11C5.22386 11 5 11.2239 5 11.5V13.5C5 17.0899 7.91015 20 11.5 20C15.0899 20 18 17.0899 18 13.5V8.5C18 8.22386 17.7761 8 17.5 8C17.2239 8 17 8.22386 17 8.5V11C17 11.5523 16.5523 12 16 12C15.4477 12 15 11.5523 15 11V5.5C15 5.22386 14.7761 5 14.5 5C14.2239 5 14 5.22386 14 5.5V11C14 11.5523 13.5523 12 13 12C12.4477 12 12 11.5523 12 11V4.5C12 4.22386 11.7761 4 11.5 4ZM13.6123 3.16218C13.8882 3.05738 14.1874 3 14.5 3C15.8807 3 17 4.11929 17 5.5V6.05001C17.1616 6.01721 17.3288 6 17.5 6C18.8807 6 20 7.11929 20 8.5V13.5C20 18.1944 16.1944 22 11.5 22C6.80558 22 3 18.1944 3 13.5V11.5C3 10.1193 4.11929 9 5.5 9C5.67123 9 5.83845 9.01722 6 9.05001V5.5C6 4.11929 7.11929 3 8.5 3C8.81262 3 9.11183 3.05738 9.38769 3.16218C9.83104 2.46363 10.6114 2 11.5 2C12.3886 2 13.169 2.46363 13.6123 3.16218Z" fill="#6F6E77"/>
</svg>
