<svg width="24" height="24" viewBox="0 0 24 24" fill="none" xmlns="http://www.w3.org/2000/svg">
<path fill-rule="evenodd" clip-rule="evenodd" d="M14.0252 7.0251C14.0251 7.02511 14.0251 7.02512 14.0251 7.02513L12.7072 8.34317C12.5197 8.53072 12.2653 8.63609 12.0001 8.63609C11.7348 8.6361 11.4805 8.53074 11.2929 8.3432L9.97487 7.02513C8.60804 5.65829 6.39196 5.65829 5.02513 7.02513C3.65829 8.39196 3.65829 10.608 5.02513 11.9749L12 18.9498L18.9749 11.9749L19.682 12.682L18.9749 11.9749C20.3417 10.608 20.3417 8.39196 18.9749 7.02513C17.608 5.6583 15.392 5.65829 14.0252 7.0251ZM12.6109 5.61091C14.7588 3.46303 18.2412 3.46303 20.3891 5.61091C22.537 7.7588 22.537 11.2412 20.3891 13.3891L12.7072 21.0711C12.5196 21.2587 12.2653 21.364 12.0001 21.364C11.7348 21.364 11.4805 21.2587 11.2929 21.0711L3.61091 13.3891C1.46303 11.2412 1.46303 7.7588 3.61091 5.61091C5.7588 3.46303 9.2412 3.46303 11.3891 5.61091L12 6.22185L12.6109 5.61094L12.6109 5.61091Z" fill="#6F6E77"/>
</svg>
