<svg width="24" height="24" viewBox="0 0 24 24" fill="none" xmlns="http://www.w3.org/2000/svg">
<path fill-rule="evenodd" clip-rule="evenodd" d="M11.2929 2.29289C11.6834 1.90237 12.3166 1.90237 12.7071 2.29289L21.7071 11.2929C22.0976 11.6834 22.0976 12.3166 21.7071 12.7071C21.3166 13.0976 20.6834 13.0976 20.2929 12.7071L20 12.4142V20C20 21.1046 19.1046 22 18 22H6C4.89543 22 4 21.1046 4 20V12.4142L3.70711 12.7071C3.31658 13.0976 2.68342 13.0976 2.29289 12.7071C1.90237 12.3166 1.90237 11.6834 2.29289 11.2929L11.2929 2.29289ZM6 10.4142V20H9V16C9 14.8954 9.89543 14 11 14H13C14.1046 14 15 14.8954 15 16V20H18V10.4142L12 4.41421L6 10.4142ZM13 20V16H11V20H13Z" fill="#6F6E77"/>
</svg>
