<svg width="24" height="24" viewBox="0 0 24 24" fill="none" xmlns="http://www.w3.org/2000/svg">
<path fill-rule="evenodd" clip-rule="evenodd" d="M9 4C7.34315 4 6 5.34315 6 7C6 8.65685 7.34315 10 9 10C10.6569 10 12 8.65685 12 7C12 5.34315 10.6569 4 9 4ZM4 7C4 4.23858 6.23858 2 9 2C11.7614 2 14 4.23858 14 7C14 9.76142 11.7614 12 9 12C6.23858 12 4 9.76142 4 7ZM14 12C14 11.4477 14.4477 11 15 11H21C21.5523 11 22 11.4477 22 12C22 12.5523 21.5523 13 21 13H15C14.4477 13 14 12.5523 14 12ZM9 15C6.23858 15 4 17.2386 4 20H14C14 17.2386 11.7614 15 9 15ZM2 20C2 16.134 5.13401 13 9 13C12.866 13 16 16.134 16 20V21C16 21.5523 15.5523 22 15 22H3C2.44772 22 2 21.5523 2 21V20Z" fill="#6F6E77"/>
</svg>
