<svg width="24" height="24" viewBox="0 0 24 24" fill="none" xmlns="http://www.w3.org/2000/svg">
<path fill-rule="evenodd" clip-rule="evenodd" d="M9 5C9 3.34315 10.3431 2 12 2C13.6569 2 15 3.34315 15 5H19C20.6569 5 22 6.34315 22 8V17C22 18.6569 20.6569 20 19 20H5C3.34315 20 2 18.6569 2 17V8C2 6.34315 3.34315 5 5 5H9ZM9.17071 7H5C4.44772 7 4 7.44772 4 8V17C4 17.5523 4.44772 18 5 18H19C19.5523 18 20 17.5523 20 17V8C20 7.44771 19.5523 7 19 7H14.8293C14.4175 8.16519 13.3062 9 12 9C10.6938 9 9.58254 8.16519 9.17071 7ZM12 4C11.4477 4 11 4.44772 11 5V6C11 6.55228 11.4477 7 12 7C12.5523 7 13 6.55228 13 6V5C13 4.44772 12.5523 4 12 4ZM9 11C8.44772 11 8 11.4477 8 12C8 12.5523 8.44772 13 9 13C9.55228 13 10 12.5523 10 12C10 11.4477 9.55228 11 9 11ZM11.4002 13.8C11.7768 13.2986 12 12.6754 12 12C12 10.3431 10.6569 9 9 9C7.34315 9 6 10.3431 6 12C6 12.6754 6.22316 13.2986 6.59976 13.8C5.9753 14.2692 5.49285 14.9169 5.22781 15.6668C5.04377 16.1875 5.31669 16.7588 5.83741 16.9428C6.35812 17.1269 6.92945 16.854 7.11349 16.3332C7.38852 15.5551 8.13073 15 9 15C9.86923 15 10.6114 15.5551 10.8864 16.3332C11.0704 16.854 11.6418 17.1269 12.1625 16.9428C12.6832 16.7588 12.9561 16.1875 12.7721 15.6668C12.5071 14.9169 12.0246 14.2693 11.4002 13.8ZM14 11C14 10.4477 14.4477 10 15 10H18C18.5523 10 19 10.4477 19 11C19 11.5523 18.5523 12 18 12H15C14.4477 12 14 11.5523 14 11ZM14 15C14 14.4477 14.4477 14 15 14H17C17.5523 14 18 14.4477 18 15C18 15.5523 17.5523 16 17 16H15C14.4477 16 14 15.5523 14 15Z" fill="#6F6E77"/>
</svg>
