<svg width="24" height="24" viewBox="0 0 24 24" fill="none" xmlns="http://www.w3.org/2000/svg">
<path fill-rule="evenodd" clip-rule="evenodd" d="M3 6C3 4.34315 4.34315 3 6 3H18C19.6569 3 21 4.34315 21 6V18C21 19.6569 19.6569 21 18 21H6C4.34315 21 3 19.6569 3 18V6ZM6 5C5.44772 5 5 5.44772 5 6V12H6.58579C7.11622 12 7.62493 12.2107 8 12.5858L10.4142 15H13.5858L16 12.5858C16.3751 12.2107 16.8838 12 17.4142 12H19V6C19 5.44772 18.5523 5 18 5H6ZM19 14H17.4142L15 16.4142C14.6249 16.7893 14.1162 17 13.5858 17H10.4142C9.88378 17 9.37507 16.7893 9 16.4142L6.58579 14H5V18C5 18.5523 5.44772 19 6 19H18C18.5523 19 19 18.5523 19 18V14Z" fill="#6F6E77"/>
</svg>
