<svg width="24" height="24" viewBox="0 0 24 24" fill="none" xmlns="http://www.w3.org/2000/svg">
<path fill-rule="evenodd" clip-rule="evenodd" d="M12 2C12.5523 2 13 2.44772 13 3V8.58579L14.2929 7.29289C14.6834 6.90237 15.3166 6.90237 15.7071 7.29289C16.0976 7.68342 16.0976 8.31658 15.7071 8.70711L12.7071 11.7071C12.3166 12.0976 11.6834 12.0976 11.2929 11.7071L8.29289 8.70711C7.90237 8.31658 7.90237 7.68342 8.29289 7.29289C8.68342 6.90237 9.31658 6.90237 9.70711 7.29289L11 8.58579V3C11 2.44772 11.4477 2 12 2ZM6 5C5.44772 5 5 5.44772 5 6V12H6.58579C7.11622 12 7.62493 12.2107 8 12.5858L10.4142 15H13.5858L16 12.5858C16.3751 12.2107 16.8838 12 17.4142 12H19V6C19 5.44772 18.5523 5 18 5H16C15.4477 5 15 4.55228 15 4C15 3.44772 15.4477 3 16 3H18C19.6569 3 21 4.34315 21 6V18C21 19.6569 19.6569 21 18 21H6C4.34315 21 3 19.6569 3 18V6C3 4.34315 4.34315 3 6 3H8C8.55228 3 9 3.44772 9 4C9 4.55228 8.55228 5 8 5H6ZM5 14V18C5 18.5523 5.44772 19 6 19H18C18.5523 19 19 18.5523 19 18V14H17.4142L15 16.4142C14.6249 16.7893 14.1162 17 13.5858 17H10.4142C9.88378 17 9.37507 16.7893 9 16.4142L6.58579 14H5Z" fill="#6F6E77"/>
</svg>
