<svg width="24" height="24" viewBox="0 0 24 24" fill="none" xmlns="http://www.w3.org/2000/svg">
<path fill-rule="evenodd" clip-rule="evenodd" d="M15 4C12.2386 4 10 6.23858 10 9C10 9.50683 10.0751 9.99431 10.2141 10.4529C10.3211 10.8059 10.225 11.1892 9.96418 11.45L4 17.4142L4 20H6V19C6 18.4477 6.44772 18 7 18H8V17C8 16.4477 8.44772 16 9 16H10.5858L12.55 14.0358C12.8108 13.775 13.1941 13.6789 13.5471 13.7859C14.0057 13.9249 14.4932 14 15 14C17.7614 14 20 11.7614 20 9C20 6.23858 17.7614 4 15 4ZM8 20V21C8 21.5523 7.55228 22 7 22H4C2.89543 22 2 21.1046 2 20V17.4142C2 16.8838 2.21071 16.3751 2.58579 16L8.14801 10.4378C8.05092 9.97307 8 9.49204 8 9C8 5.13401 11.134 2 15 2C18.866 2 22 5.13401 22 9C22 12.866 18.866 16 15 16C14.508 16 14.0269 15.9491 13.5622 15.852L11.7071 17.7071C11.5196 17.8946 11.2652 18 11 18H10V19C10 19.5523 9.55228 20 9 20H8ZM14 7C14 6.44772 14.4477 6 15 6C16.6569 6 18 7.34315 18 9C18 9.55228 17.5523 10 17 10C16.4477 10 16 9.55228 16 9C16 8.44772 15.5523 8 15 8C14.4477 8 14 7.55228 14 7Z" fill="#6F6E77"/>
</svg>
