<svg width="24" height="24" viewBox="0 0 24 24" fill="none" xmlns="http://www.w3.org/2000/svg">
<path fill-rule="evenodd" clip-rule="evenodd" d="M11.5939 2.08619C11.8524 1.97127 12.1476 1.97127 12.4061 2.08619L21.4061 6.08619C21.9108 6.31049 22.1381 6.90145 21.9138 7.40614C21.6895 7.91082 21.0986 8.13812 20.5939 7.91381L12 4.09432L3.40614 7.91381C2.90146 8.13812 2.3105 7.91082 2.08619 7.40614C1.86189 6.90145 2.08918 6.31049 2.59387 6.08619L11.5939 2.08619ZM2.00001 10C2.00001 9.44772 2.44772 9 3.00001 9H21C21.5523 9 22 9.44772 22 10C22 10.5523 21.5523 11 21 11V20C21.5523 20 22 20.4477 22 21C22 21.5523 21.5523 22 21 22H3.00001C2.44772 22 2.00001 21.5523 2.00001 21C2.00001 20.4477 2.44772 20 3.00001 20V11C2.44772 11 2.00001 10.5523 2.00001 10ZM5.00001 11V20H19V11H5.00001ZM8.00001 13C8.55229 13 9.00001 13.4477 9.00001 14V17C9.00001 17.5523 8.55229 18 8.00001 18C7.44772 18 7.00001 17.5523 7.00001 17V14C7.00001 13.4477 7.44772 13 8.00001 13ZM12 13C12.5523 13 13 13.4477 13 14V17C13 17.5523 12.5523 18 12 18C11.4477 18 11 17.5523 11 17V14C11 13.4477 11.4477 13 12 13ZM16 13C16.5523 13 17 13.4477 17 14V17C17 17.5523 16.5523 18 16 18C15.4477 18 15 17.5523 15 17V14C15 13.4477 15.4477 13 16 13Z" fill="#6F6E77"/>
</svg>
