<svg width="24" height="24" viewBox="0 0 24 24" fill="none" xmlns="http://www.w3.org/2000/svg">
<path fill-rule="evenodd" clip-rule="evenodd" d="M19.1213 4.87868C17.9497 3.70711 16.0503 3.70711 14.8787 4.87868L13.7791 5.97829C13.3885 6.36881 12.7554 6.36881 12.3649 5.97829C11.9743 5.58777 11.9743 4.9546 12.3649 4.56408L13.4645 3.46447C15.4171 1.51184 18.5829 1.51184 20.5355 3.46447C22.4882 5.41709 22.4882 8.58291 20.5355 10.5355L16.5355 14.5355C14.5829 16.4882 11.4171 16.4882 9.46447 14.5355C9.07394 14.145 9.07394 13.5118 9.46447 13.1213C9.85499 12.7308 10.4882 12.7308 10.8787 13.1213C12.0503 14.2929 13.9497 14.2929 15.1213 13.1213L19.1213 9.12132C20.2929 7.94975 20.2929 6.05025 19.1213 4.87868ZM13.1213 10.8787C11.9497 9.70711 10.0503 9.70711 8.87868 10.8787L4.87868 14.8787C3.70711 16.0503 3.70711 17.9497 4.87868 19.1213C6.05025 20.2929 7.94975 20.2929 9.12132 19.1213L10.2229 18.0198C10.6134 17.6292 11.2466 17.6292 11.6371 18.0198C12.0276 18.4103 12.0276 19.0434 11.6371 19.434L10.5355 20.5355C8.58291 22.4882 5.41709 22.4882 3.46447 20.5355C1.51184 18.5829 1.51184 15.4171 3.46447 13.4645L7.46447 9.46447C9.41709 7.51184 12.5829 7.51184 14.5355 9.46447C14.9261 9.85499 14.9261 10.4882 14.5355 10.8787C14.145 11.2692 13.5118 11.2692 13.1213 10.8787Z" fill="#6F6E77"/>
</svg>
