<svg width="24" height="24" viewBox="0 0 24 24" fill="none" xmlns="http://www.w3.org/2000/svg">
<path fill-rule="evenodd" clip-rule="evenodd" d="M6 5C4.89543 5 4 5.89543 4 7V17C4 18.1046 4.89543 19 6 19H13C14.1046 19 15 18.1046 15 17V16C15 15.4477 15.4477 15 16 15C16.5523 15 17 15.4477 17 16V17C17 19.2091 15.2091 21 13 21H6C3.79086 21 2 19.2091 2 17V7C2 4.79086 3.79086 3 6 3H13C15.2091 3 17 4.79086 17 7V8C17 8.55228 16.5523 9 16 9C15.4477 9 15 8.55228 15 8V7C15 5.89543 14.1046 5 13 5H6ZM11.7071 7.29289C12.0976 7.68342 12.0976 8.31658 11.7071 8.70711L9.41421 11L21 11C21.5523 11 22 11.4477 22 12C22 12.5523 21.5523 13 21 13L9.41421 13L11.7071 15.2929C12.0976 15.6834 12.0976 16.3166 11.7071 16.7071C11.3166 17.0976 10.6834 17.0976 10.2929 16.7071L6.29289 12.7071C5.90237 12.3166 5.90237 11.6834 6.29289 11.2929L10.2929 7.29289C10.6834 6.90237 11.3166 6.90237 11.7071 7.29289Z" fill="#6F6E77"/>
</svg>
