<svg width="24" height="24" viewBox="0 0 24 24" fill="none" xmlns="http://www.w3.org/2000/svg">
<path fill-rule="evenodd" clip-rule="evenodd" d="M12.5547 4.57164C12.2188 4.3477 11.7812 4.3477 11.4453 4.57164L4.44531 9.2383C4.31928 9.32232 4.21606 9.43236 4.14083 9.55868L11.4453 14.4283C11.7812 14.6523 12.2188 14.6523 12.5547 14.4283L19.8592 9.55868C19.784 9.43236 19.6807 9.32232 19.5547 9.2383L12.5547 4.57164ZM21.9952 9.89959C21.9418 8.96178 21.4512 8.0989 20.6641 7.5742L13.6641 2.90754C12.6564 2.23574 11.3436 2.23574 10.3359 2.90754L3.33591 7.5742C2.54887 8.0989 2.05823 8.96178 2.00487 9.8996C2.0006 9.94228 1.9991 9.98506 2.00032 10.0277C2.00012 10.0419 2.00001 10.0561 2.00001 10.0704V19C2.00001 20.6568 3.34316 22 5.00001 22H19C20.6569 22 22 20.6568 22 19V10.0704C22 10.0561 21.9999 10.0419 21.9997 10.0277C22.0009 9.98506 21.9994 9.94228 21.9952 9.89959ZM20 11.8685L16.0528 14.5L20 17.1315V11.8685ZM19.8879 19.4604L14.25 15.7018L13.6641 16.0924C12.6564 16.7642 11.3436 16.7642 10.3359 16.0924L9.75001 15.7018L4.1121 19.4604C4.27868 19.781 4.61378 20 5.00001 20H19C19.3863 20 19.7213 19.781 19.8879 19.4604ZM4.00001 17.1315L7.94724 14.5L4.00001 11.8685V17.1315Z" fill="#6F6E77"/>
</svg>
