<svg width="24" height="24" viewBox="0 0 24 24" fill="none" xmlns="http://www.w3.org/2000/svg">
<path fill-rule="evenodd" clip-rule="evenodd" d="M2.00001 7C2.00001 5.34315 3.34316 4 5.00001 4H19C20.6569 4 22 5.34315 22 7V7.98448C22.0002 7.99422 22.0002 8.00395 22 8.01368V17C22 18.6569 20.6569 20 19 20H5.00001C3.34316 20 2.00001 18.6569 2.00001 17V8.01367C1.99987 8.00395 1.99987 7.99422 2.00001 7.98449V7ZM4.00001 9.86852V17C4.00001 17.5523 4.44773 18 5.00001 18H19C19.5523 18 20 17.5523 20 17V9.86852L13.6641 14.0925C12.6564 14.7642 11.3436 14.7642 10.3359 14.0925L4.00001 9.86852ZM20 7.46482L12.5547 12.4283C12.2188 12.6523 11.7812 12.6523 11.4453 12.4283L4.00001 7.46482V7C4.00001 6.44772 4.44773 6 5.00001 6H19C19.5523 6 20 6.44772 20 7V7.46482Z" fill="#6F6E77"/>
</svg>
