<svg width="24" height="24" viewBox="0 0 24 24" fill="none" xmlns="http://www.w3.org/2000/svg">
<path fill-rule="evenodd" clip-rule="evenodd" d="M14.5528 3.10557C14.8343 2.96481 15.1657 2.96481 15.4472 3.10557L20.8944 5.82918C21.572 6.16796 22 6.86049 22 7.61803V18.382C22 19.8687 20.4354 20.8357 19.1056 20.1708L15 18.118L9.44721 20.8944C9.16569 21.0352 8.83431 21.0352 8.55279 20.8944L3.10557 18.1708C2.428 17.832 2 17.1395 2 16.382V5.61803C2 4.13127 3.56462 3.16428 4.89443 3.82918L9 5.88197L14.5528 3.10557ZM8 7.61803L4 5.61803V16.382L8 18.382V7.61803ZM10 18.382L14 16.382V5.61803L10 7.61803V18.382ZM16 5.61803V16.382L20 18.382V7.61803L16 5.61803Z" fill="#6F6E77"/>
</svg>
