<svg width="24" height="24" viewBox="0 0 24 24" fill="none" xmlns="http://www.w3.org/2000/svg">
<path fill-rule="evenodd" clip-rule="evenodd" d="M8 5C8 2.79086 9.79086 1 12 1C14.2091 1 16 2.79086 16 5V11C16 13.2091 14.2091 15 12 15C9.79086 15 8 13.2091 8 11V5ZM12 3C10.8954 3 10 3.89543 10 5V11C10 12.1046 10.8954 13 12 13C13.1046 13 14 12.1046 14 11V5C14 3.89543 13.1046 3 12 3ZM5 10C5.55228 10 6 10.4477 6 11C6 14.3137 8.68629 17 12 17C15.3137 17 18 14.3137 18 11C18 10.4477 18.4477 10 19 10C19.5523 10 20 10.4477 20 11C20 15.0796 16.9463 18.446 13 18.9381V21H16C16.5523 21 17 21.4477 17 22C17 22.5523 16.5523 23 16 23H8C7.44772 23 7 22.5523 7 22C7 21.4477 7.44772 21 8 21H11V18.9381C7.05369 18.446 4 15.0796 4 11C4 10.4477 4.44772 10 5 10Z" fill="#6F6E77"/>
</svg>
