<svg width="24" height="24" viewBox="0 0 24 24" fill="none" xmlns="http://www.w3.org/2000/svg">
<path fill-rule="evenodd" clip-rule="evenodd" d="M9.35292 2.93876C9.6362 3.22204 9.72307 3.64704 9.57369 4.01876C9.20396 4.93879 9 5.94438 9 7.00006C9 11.4183 12.5817 15.0001 17 15.0001C18.0557 15.0001 19.0613 14.7961 19.9813 14.4264C20.353 14.277 20.778 14.3639 21.0613 14.6471C21.3446 14.9304 21.4314 15.3554 21.2821 15.7271C19.8051 19.4024 16.2071 22.0001 12 22.0001C6.47715 22.0001 2 17.5229 2 12.0001C2 7.79294 4.59771 4.19496 8.27293 2.71799C8.64465 2.56861 9.06964 2.65549 9.35292 2.93876ZM7.08558 5.68677C5.20699 7.1513 4 9.43543 4 12.0001C4 16.4183 7.58172 20.0001 12 20.0001C14.5646 20.0001 16.8488 18.7931 18.3133 16.9145C17.8833 16.9709 17.4449 17.0001 17 17.0001C11.4772 17.0001 7 12.5229 7 7.00006C7 6.55516 7.02911 6.11677 7.08558 5.68677Z" fill="#6F6E77"/>
</svg>
