<svg width="24" height="24" viewBox="0 0 24 24" fill="none" xmlns="http://www.w3.org/2000/svg">
<path fill-rule="evenodd" clip-rule="evenodd" d="M21.6154 2.2118C21.8581 2.40131 22 2.69207 22 3.00001V6.97909C22.0003 6.99358 22.0003 7.00803 22 7.02244V16C22 16.9907 21.3977 17.7652 20.676 18.2463C19.9474 18.732 18.9983 19 18 19C17.0017 19 16.0526 18.7321 15.324 18.2463C14.6023 17.7652 14 16.9907 14 16C14 15.0093 14.6023 14.2349 15.324 13.7537C16.0526 13.268 17.0017 13 18 13C18.7125 13 19.3999 13.1365 20 13.3913V8.28079L10 10.7808V19C10 19.9907 9.3977 20.7652 8.67602 21.2463C7.94735 21.7321 6.99832 22 6 22C5.00168 22 4.05265 21.7321 3.32398 21.2463C2.6023 20.7652 2 19.9907 2 19C2 18.0093 2.6023 17.2349 3.32398 16.7537C4.05265 16.268 5.00168 16 6 16C6.7125 16 7.3999 16.1365 8 16.3913V10.0209C7.99969 10.0064 7.99969 9.99199 8 9.97759V6.00001C8 5.54114 8.3123 5.14116 8.75747 5.02987L20.7575 2.02987C21.0562 1.95518 21.3727 2.0223 21.6154 2.2118ZM10 8.71923L20 6.21923V4.28079L10 6.78079V8.71923ZM8 19C8 18.8861 7.93073 18.6606 7.56662 18.4178C7.2095 18.1798 6.65854 18 6 18C5.34146 18 4.7905 18.1798 4.43338 18.4178C4.06927 18.6606 4 18.8861 4 19C4 19.1139 4.06927 19.3394 4.43338 19.5822C4.7905 19.8203 5.34146 20 6 20C6.65854 20 7.2095 19.8203 7.56662 19.5822C7.93073 19.3394 8 19.1139 8 19ZM20 16C20 15.8861 19.9307 15.6606 19.5666 15.4178C19.2095 15.1798 18.6585 15 18 15C17.3415 15 16.7905 15.1798 16.4334 15.4178C16.0693 15.6606 16 15.8861 16 16C16 16.1139 16.0693 16.3394 16.4334 16.5822C16.7905 16.8203 17.3415 17 18 17C18.6585 17 19.2095 16.8203 19.5666 16.5822C19.9307 16.3394 20 16.1139 20 16Z" fill="#6F6E77"/>
</svg>
