<svg width="24" height="24" viewBox="0 0 24 24" fill="none" xmlns="http://www.w3.org/2000/svg">
<path fill-rule="evenodd" clip-rule="evenodd" d="M4 5C4 3.34315 5.34315 2 7 2H17C18.6569 2 20 3.34315 20 5V20L21 20C21.5523 20 22 20.4477 22 21C22 21.5522 21.5523 22 21 22H2.99999C2.4477 22 1.99999 21.5522 2 21C2.00001 20.4477 2.44773 20 3.00001 20L4 20V5ZM6 20H9V16C9 14.8954 9.89543 14 11 14H13C14.1046 14 15 14.8954 15 16V20H18V5C18 4.44772 17.5523 4 17 4H7C6.44772 4 6 4.44772 6 5V20ZM13 20V16H11V20H13ZM8 6.99998C8 6.44769 8.44772 5.99998 9 5.99998H10C10.5523 5.99998 11 6.44769 11 6.99998C11 7.55226 10.5523 7.99998 10 7.99998H9C8.44772 7.99998 8 7.55226 8 6.99998ZM13 6.99998C13 6.44769 13.4477 5.99998 14 5.99998H15C15.5523 5.99998 16 6.44769 16 6.99998C16 7.55226 15.5523 7.99998 15 7.99998H14C13.4477 7.99998 13 7.55226 13 6.99998ZM8 11C8 10.4477 8.44772 9.99998 9 9.99998H10C10.5523 9.99998 11 10.4477 11 11C11 11.5523 10.5523 12 10 12H9C8.44772 12 8 11.5523 8 11ZM13 11C13 10.4477 13.4477 9.99998 14 9.99998H15C15.5523 9.99998 16 10.4477 16 11C16 11.5523 15.5523 12 15 12H14C13.4477 12 13 11.5523 13 11Z" fill="#6F6E77"/>
</svg>
