<svg width="24" height="24" viewBox="0 0 24 24" fill="none" xmlns="http://www.w3.org/2000/svg">
<path fill-rule="evenodd" clip-rule="evenodd" d="M12.883 4.87435L6.46453 11.4645C4.51191 13.4171 4.51184 16.5829 6.46447 18.5355C8.41709 20.4882 11.5829 20.4882 13.5355 18.5355L13.5364 18.5347L19.7937 12.2921C20.1847 11.902 20.8179 11.9027 21.2079 12.2937C21.598 12.6847 21.5973 13.3179 21.2063 13.7079L14.9497 19.9497C14.9496 19.9499 14.9499 19.9496 14.9497 19.9497C12.216 22.683 7.78377 22.6833 5.05025 19.9497C2.3182 17.2177 2.31658 12.7892 5.0454 10.0551L11.4644 3.4644C13.417 1.51178 16.5829 1.51184 18.5355 3.46447C20.4865 5.41545 20.4882 8.57761 18.5404 10.5306L12.1214 17.1214C10.9498 18.293 9.05025 18.2929 7.87868 17.1213C6.70711 15.9497 6.70711 14.0503 7.87868 12.8787L14.4645 6.29289C14.855 5.90237 15.4882 5.90237 15.8787 6.29289C16.2692 6.68342 16.2692 7.31658 15.8787 7.70711L9.29289 14.2929C8.90237 14.6834 8.90237 15.3166 9.29289 15.7071C9.68212 16.0963 10.3124 16.0976 10.7032 15.711L17.1213 9.12126C18.2928 7.94969 18.2929 6.05025 17.1213 4.87868C15.9512 3.70855 14.0549 3.70711 12.883 4.87435Z" fill="#6F6E77"/>
</svg>
