<svg width="24" height="24" viewBox="0 0 24 24" fill="none" xmlns="http://www.w3.org/2000/svg">
<path fill-rule="evenodd" clip-rule="evenodd" d="M12 2C12.3788 2 12.725 2.214 12.8944 2.55279L21.8944 20.5528C22.0669 20.8978 22.0256 21.3113 21.7882 21.6154C21.5508 21.9195 21.1597 22.0599 20.7831 21.9762L12 20.0244L3.21692 21.9762C2.84034 22.0599 2.4492 21.9195 2.21179 21.6154C1.97438 21.3113 1.93304 20.8978 2.10557 20.5528L11.1056 2.55279C11.275 2.214 11.6212 2 12 2ZM13 18.1978L19.166 19.568L12 5.23607L4.834 19.568L11 18.1978V11C11 10.4477 11.4477 10 12 10C12.5523 10 13 10.4477 13 11V18.1978Z" fill="#6F6E77"/>
</svg>
