<svg width="24" height="24" viewBox="0 0 24 24" fill="none" xmlns="http://www.w3.org/2000/svg">
<path fill-rule="evenodd" clip-rule="evenodd" d="M19.5607 4.43934C18.9749 3.85355 18.0251 3.85355 17.4393 4.43934L16.6465 5.23223L18.7678 7.35355L19.5607 6.56066C20.1465 5.97487 20.1465 5.02513 19.5607 4.43934ZM20.9749 7.97487C22.3417 6.60804 22.3417 4.39196 20.9749 3.02513C19.608 1.65829 17.392 1.65829 16.0251 3.02513L14.5253 4.52494L2.29295 16.7573C2.10542 16.9448 2.00006 17.1992 2.00006 17.4644V21.0355C2.00006 21.5878 2.44778 22.0355 3.00006 22.0355H6.50006C6.76528 22.0355 7.01963 21.9301 7.20717 21.7426L20.9749 7.97487ZM17.3536 8.76777L15.2322 6.64645L4.00006 17.8786V20.0355H6.08585L17.3536 8.76777Z" fill="#6F6E77"/>
</svg>
