<svg width="24" height="24" viewBox="0 0 24 24" fill="none" xmlns="http://www.w3.org/2000/svg">
<path fill-rule="evenodd" clip-rule="evenodd" d="M19.7071 4.29289C19.3166 3.90237 18.6834 3.90237 18.2929 4.29289L10 12.5858L10 14H11.4142L19.7071 5.70711C20.0976 5.31658 20.0976 4.68342 19.7071 4.29289ZM16.8787 2.87868C18.0503 1.70711 19.9497 1.70711 21.1213 2.87868C22.2929 4.05025 22.2929 5.94975 21.1213 7.12132L12.5355 15.7071C12.348 15.8946 12.0936 16 11.8284 16H9C8.44772 16 8 15.5523 8 15L8 12.1716C8 11.9064 8.10536 11.652 8.29289 11.4645L16.8787 2.87868ZM6 6C5.44772 6 5 6.44772 5 7V18C5 18.5523 5.44772 19 6 19H17C17.5523 19 18 18.5523 18 18V13C18 12.4477 18.4477 12 19 12C19.5523 12 20 12.4477 20 13V18C20 19.6569 18.6569 21 17 21H6C4.34315 21 3 19.6569 3 18V7C3 5.34315 4.34315 4 6 4H11C11.5523 4 12 4.44772 12 5C12 5.55229 11.5523 6 11 6H6Z" fill="#6F6E77"/>
</svg>
