<svg width="24" height="24" viewBox="0 0 24 24" fill="none" xmlns="http://www.w3.org/2000/svg">
<path fill-rule="evenodd" clip-rule="evenodd" d="M2 5C2 3.34315 3.34315 2 5 2H8.27924C9.1401 2 9.90438 2.55086 10.1766 3.36755L11.6744 7.86098C11.9892 8.80521 11.5617 9.83718 10.6715 10.2823L9.31494 10.9606C10.2016 12.5092 11.4908 13.7984 13.0394 14.6851L13.7177 13.3285C14.1628 12.4383 15.1948 12.0108 16.139 12.3256L20.6325 13.8234C21.4491 14.0956 22 14.8599 22 15.7208V19C22 20.6569 20.6569 22 19 22H18C9.16344 22 2 14.8366 2 6V5ZM5 4C4.44772 4 4 4.44772 4 5V6C4 13.732 10.268 20 18 20H19C19.5523 20 20 19.5523 20 19V15.7208L15.5066 14.2229L14.3779 16.4802C14.1379 16.9602 13.5618 17.1652 13.0725 16.9446C10.4054 15.7421 8.25786 13.5946 7.05538 10.9275C6.83479 10.4383 7.03975 9.86209 7.51979 9.62207L9.77705 8.49344L8.27924 4H5ZM16 4C15.4477 4 15 3.55228 15 3C15 2.44772 15.4477 2 16 2H21C21.5523 2 22 2.44772 22 3V8C22 8.55228 21.5523 9 21 9C20.4477 9 20 8.55228 20 8V5.41421L15.7071 9.70711C15.3166 10.0976 14.6834 10.0976 14.2929 9.70711C13.9024 9.31658 13.9024 8.68342 14.2929 8.29289L18.5858 4H16Z" fill="#6F6E77"/>
</svg>
