<svg width="24" height="24" viewBox="0 0 24 24" fill="none" xmlns="http://www.w3.org/2000/svg">
<path fill-rule="evenodd" clip-rule="evenodd" d="M3 6C3 4.34315 4.34315 3 6 3H18C19.6569 3 21 4.34315 21 6V13.999C21 13.9997 21 14.0003 21 14.001V18C21 19.6569 19.6569 21 18 21H6C4.34315 21 3 19.6569 3 18V16.0002C3 16.0001 3 15.9999 3 15.9998V6ZM5 16.4142V18C5 18.5523 5.44772 19 6 19H18C18.5523 19 19 18.5523 19 18V14.4142L17.7071 13.1213C17.3166 12.7308 16.6834 12.7308 16.2929 13.1213L15.4142 14L16.7071 15.2929C17.0976 15.6834 17.0976 16.3166 16.7071 16.7071C16.3166 17.0976 15.6834 17.0976 15.2929 16.7071L13.2933 14.7075C13.2932 14.7074 13.293 14.7072 13.2929 14.7071C13.2928 14.707 13.2926 14.7068 13.2925 14.7067L10.7071 12.1213C10.3166 11.7308 9.68342 11.7308 9.29289 12.1213L5 16.4142ZM14 12.5858L12.1213 10.7071C10.9497 9.53553 9.05025 9.53553 7.87868 10.7071L5 13.5858V6C5 5.44772 5.44772 5 6 5H18C18.5523 5 19 5.44772 19 6V11.5922C17.8221 10.5369 16.0106 10.5752 14.8787 11.7071L14 12.5858ZM13 8C13 7.44772 13.4477 7 14 7H14.01C14.5623 7 15.01 7.44772 15.01 8C15.01 8.55228 14.5623 9 14.01 9H14C13.4477 9 13 8.55228 13 8Z" fill="#6F6E77"/>
</svg>
