<svg width="24" height="24" viewBox="0 0 24 24" fill="none" xmlns="http://www.w3.org/2000/svg">
<path fill-rule="evenodd" clip-rule="evenodd" d="M12 4C7.58172 4 4 7.58172 4 12C4 16.4183 7.58172 20 12 20C16.4183 20 20 16.4183 20 12C20 7.58172 16.4183 4 12 4ZM2 12C2 6.47715 6.47715 2 12 2C17.5228 2 22 6.47715 22 12C22 17.5228 17.5228 22 12 22C6.47715 22 2 17.5228 2 12ZM9 9.86852C9 8.27113 10.7803 7.31834 12.1094 8.20442L15.3066 10.3359C16.4941 11.1275 16.4941 12.8725 15.3066 13.6641L12.1094 15.7956C10.7803 16.6817 9 15.7289 9 14.1315V9.86852ZM14.1972 12L11 9.86852V14.1315L14.1972 12Z" fill="#6F6E77"/>
</svg>
