<svg width="24" height="24" viewBox="0 0 24 24" fill="none" xmlns="http://www.w3.org/2000/svg">
<path fill-rule="evenodd" clip-rule="evenodd" d="M2 4C2 3.44772 2.44772 3 3 3H21C21.5523 3 22 3.44772 22 4C22 4.55228 21.5523 5 21 5V16C21 17.1046 20.1046 18 19 18H14.4142L16.7071 20.2929C17.0976 20.6834 17.0976 21.3166 16.7071 21.7071C16.3166 22.0976 15.6834 22.0976 15.2929 21.7071L12 18.4142L8.70711 21.7071C8.31658 22.0976 7.68342 22.0976 7.29289 21.7071C6.90237 21.3166 6.90237 20.6834 7.29289 20.2929L9.58579 18H5C3.89543 18 3 17.1046 3 16V5C2.44772 5 2 4.55228 2 4ZM5 5V16H11.9993C11.9998 16 12.0002 16 12.0007 16H19V5H5ZM17.7071 7.29289C18.0976 7.68342 18.0976 8.31658 17.7071 8.70711L13.7071 12.7071C13.3166 13.0976 12.6834 13.0976 12.2929 12.7071L10 10.4142L7.70711 12.7071C7.31658 13.0976 6.68342 13.0976 6.29289 12.7071C5.90237 12.3166 5.90237 11.6834 6.29289 11.2929L9.29289 8.29289C9.68342 7.90237 10.3166 7.90237 10.7071 8.29289L13 10.5858L16.2929 7.29289C16.6834 6.90237 17.3166 6.90237 17.7071 7.29289Z" fill="#6F6E77"/>
</svg>
