<svg width="24" height="24" viewBox="0 0 24 24" fill="none" xmlns="http://www.w3.org/2000/svg">
<path fill-rule="evenodd" clip-rule="evenodd" d="M6 5C6 3.34315 7.34315 2 9 2H15C16.6569 2 18 3.34315 18 5V8H19C20.6569 8 22 9.34315 22 11V15C22 16.6569 20.6569 18 19 18H18V19C18 20.6569 16.6569 22 15 22H9C7.34315 22 6 20.6569 6 19V18H5C3.34315 18 2 16.6569 2 15V11C2 9.34315 3.34315 8 5 8H6V5ZM8 8H16V5C16 4.44772 15.5523 4 15 4H9C8.44772 4 8 4.44772 8 5V8ZM5 10C4.44772 10 4 10.4477 4 11V15C4 15.5523 4.44772 16 5 16H6V15C6 13.3431 7.34315 12 9 12H15C16.6569 12 18 13.3431 18 15V16H19C19.5523 16 20 15.5523 20 15V11C20 10.4477 19.5523 10 19 10H5ZM16 15C16 14.4477 15.5523 14 15 14H9C8.44772 14 8 14.4477 8 15V19C8 19.5523 8.44772 20 9 20H15C15.5523 20 16 19.5523 16 19V15Z" fill="#6F6E77"/>
</svg>
