<svg width="24" height="24" viewBox="0 0 24 24" fill="none" xmlns="http://www.w3.org/2000/svg">
<path fill-rule="evenodd" clip-rule="evenodd" d="M3 5C3 3.89543 3.89543 3 5 3H7C8.10457 3 9 3.89543 9 5V7C9 8.10457 8.10457 9 7 9H5C3.89543 9 3 8.10457 3 7V5ZM7 5H5V7H7V5ZM12 3C12.5523 3 13 3.44772 13 4V5C13 5.55228 12.5523 6 12 6C11.4477 6 11 5.55228 11 5V4C11 3.44772 11.4477 3 12 3ZM15 5C15 3.89543 15.8954 3 17 3H19C20.1046 3 21 3.89543 21 5V7C21 8.10457 20.1046 9 19 9H17C15.8954 9 15 8.10457 15 7V5ZM19 5H17V7H19V5ZM12 8C12.5523 8 13 8.44772 13 9V11H16.01C16.5623 11 17.01 11.4477 17.01 12C17.01 12.5523 16.5623 13 16.01 13H12C11.4477 13 11 12.5523 11 12V9C11 8.44772 11.4477 8 12 8ZM3 12C3 11.4477 3.44772 11 4 11H8C8.55228 11 9 11.4477 9 12C9 12.5523 8.55228 13 8 13H4C3.44772 13 3 12.5523 3 12ZM19 12C19 11.4477 19.4477 11 20 11H20.01C20.5623 11 21.01 11.4477 21.01 12C21.01 12.5523 20.5623 13 20.01 13H20C19.4477 13 19 12.5523 19 12ZM3 17C3 15.8954 3.89543 15 5 15H7C8.10457 15 9 15.8954 9 17V19C9 20.1046 8.10457 21 7 21H5C3.89543 21 3 20.1046 3 19V17ZM7 17H5V19H7V17ZM11 16C11 15.4477 11.4477 15 12 15H14C14.5523 15 15 15.4477 15 16C15 16.5523 14.5523 17 14 17H13V20C13 20.5523 12.5523 21 12 21C11.4477 21 11 20.5523 11 20V16ZM17 16C17 15.4477 17.4477 15 18 15H20C20.5523 15 21 15.4477 21 16C21 16.5523 20.5523 17 20 17H18C17.4477 17 17 16.5523 17 16ZM15 20C15 19.4477 15.4477 19 16 19H20C20.5523 19 21 19.4477 21 20C21 20.5523 20.5523 21 20 21H16C15.4477 21 15 20.5523 15 20Z" fill="#6F6E77"/>
</svg>
