<svg width="24" height="24" viewBox="0 0 24 24" fill="none" xmlns="http://www.w3.org/2000/svg">
<path fill-rule="evenodd" clip-rule="evenodd" d="M12 4C7.58172 4 4 7.58172 4 12C4 16.4183 7.58172 20 12 20C16.4183 20 20 16.4183 20 12C20 7.58172 16.4183 4 12 4ZM2 12C2 6.47715 6.47715 2 12 2C17.5228 2 22 6.47715 22 12C22 17.5228 17.5228 22 12 22C6.47715 22 2 17.5228 2 12ZM12.0001 8C10.5283 8 9.47159 8.70623 9.13224 9.4263C8.89681 9.92589 8.30095 10.14 7.80136 9.90458C7.30178 9.66914 7.08764 9.07329 7.32308 8.5737C8.08197 6.96338 9.98852 6 12.0001 6C13.3001 6 14.5155 6.39395 15.4285 7.07868C16.3418 7.76364 17.0001 8.78625 17.0001 10C17.0001 12.0693 15.166 13.5082 13.1827 13.8887C13.11 13.9026 13.0522 13.9386 13.0206 13.972C13.0064 13.9871 13.0014 13.9974 13.0002 14.0001C13.0002 14.0003 13.0001 14.0004 13.0001 14.0005C12.9998 14.5526 12.5522 15 12.0001 15C11.4478 15 11.0001 14.5523 11.0001 14C11.0001 12.8579 11.9097 12.0964 12.8059 11.9245C14.2788 11.6419 15.0001 10.7295 15.0001 10C15.0001 9.5569 14.7629 9.0795 14.2285 8.67868C13.6937 8.27763 12.9092 8 12.0001 8ZM11 17C11 16.4477 11.4477 16 12 16H12.01C12.5623 16 13.01 16.4477 13.01 17C13.01 17.5523 12.5623 18 12.01 18H12C11.4477 18 11 17.5523 11 17Z" fill="#6F6E77"/>
</svg>
