<svg width="24" height="24" viewBox="0 0 24 24" fill="none" xmlns="http://www.w3.org/2000/svg">
<path fill-rule="evenodd" clip-rule="evenodd" d="M3 5C3 3.34315 4.34315 2 6 2H18C19.6569 2 21 3.34315 21 5V21C21 21.3466 20.8205 21.6684 20.5257 21.8507C20.2309 22.0329 19.8628 22.0494 19.5528 21.8944L16 20.118L12.4472 21.8944C12.1657 22.0352 11.8343 22.0352 11.5528 21.8944L8 20.118L4.44721 21.8944C4.13723 22.0494 3.76909 22.0329 3.47427 21.8507C3.17945 21.6684 3 21.3466 3 21V5ZM6 4C5.44772 4 5 4.44772 5 5V19.382L7.55279 18.1056C7.83431 17.9648 8.16569 17.9648 8.44721 18.1056L12 19.882L15.5528 18.1056C15.8343 17.9648 16.1657 17.9648 16.4472 18.1056L19 19.382V5C19 4.44772 18.5523 4 18 4H6ZM11.7071 6.29289C12.0976 6.68342 12.0976 7.31658 11.7071 7.70711L10.4142 9H12C14.7614 9 17 11.2386 17 14V15C17 15.5523 16.5523 16 16 16C15.4477 16 15 15.5523 15 15V14C15 12.3431 13.6569 11 12 11H10.4142L11.7071 12.2929C12.0976 12.6834 12.0976 13.3166 11.7071 13.7071C11.3166 14.0976 10.6834 14.0976 10.2929 13.7071L7.29289 10.7071C6.90237 10.3166 6.90237 9.68342 7.29289 9.29289L10.2929 6.29289C10.6834 5.90237 11.3166 5.90237 11.7071 6.29289Z" fill="#6F6E77"/>
</svg>
