<svg width="24" height="24" viewBox="0 0 24 24" fill="none" xmlns="http://www.w3.org/2000/svg">
<path fill-rule="evenodd" clip-rule="evenodd" d="M4 3C4.55228 3 5 3.44772 5 4V6.34298C6.64938 4.30446 9.17168 3 12 3C16.5903 3 20.3767 6.43564 20.9304 10.8763C20.9988 11.4243 20.6099 11.924 20.0618 11.9923C19.5138 12.0607 19.0141 11.6718 18.9458 11.1237C18.5153 7.67174 15.5689 5 12 5C9.62231 5 7.51998 6.18566 6.25442 8H9C9.55228 8 10 8.44772 10 9C10 9.55228 9.55228 10 9 10H4C3.44772 10 3 9.55228 3 9V4C3 3.44772 3.44772 3 4 3ZM3.93815 12.0077C4.48619 11.9393 4.98587 12.3282 5.05421 12.8763C5.48467 16.3283 8.43109 19 12 19C14.3777 19 16.48 17.8143 17.7456 16H15C14.4477 16 14 15.5523 14 15C14 14.4477 14.4477 14 15 14H20C20.5523 14 21 14.4477 21 15V20C21 20.5523 20.5523 21 20 21C19.4477 21 19 20.5523 19 20V17.657C17.3506 19.6955 14.8283 21 12 21C7.40967 21 3.62332 17.5644 3.06958 13.1237C3.00124 12.5757 3.39011 12.076 3.93815 12.0077Z" fill="#6F6E77"/>
</svg>
