<svg width="24" height="24" viewBox="0 0 24 24" fill="none" xmlns="http://www.w3.org/2000/svg">
<path fill-rule="evenodd" clip-rule="evenodd" d="M9.70711 3.29289C10.0976 3.68342 10.0976 4.31658 9.70711 4.70711L5.41421 9H13C17.9706 9 22 13.0294 22 18V20C22 20.5523 21.5523 21 21 21C20.4477 21 20 20.5523 20 20V18C20 14.134 16.866 11 13 11H5.41421L9.70711 15.2929C10.0976 15.6834 10.0976 16.3166 9.70711 16.7071C9.31658 17.0976 8.68342 17.0976 8.29289 16.7071L2.29289 10.7071C1.90237 10.3166 1.90237 9.68342 2.29289 9.29289L8.29289 3.29289C8.68342 2.90237 9.31658 2.90237 9.70711 3.29289Z" fill="#6F6E77"/>
</svg>
