<svg width="24" height="24" viewBox="0 0 24 24" fill="none" xmlns="http://www.w3.org/2000/svg">
<path fill-rule="evenodd" clip-rule="evenodd" d="M5 5C5 4.44772 5.44772 4 6 4C13.732 4 20 10.268 20 18C20 18.5523 19.5523 19 19 19C18.4477 19 18 18.5523 18 18C18 11.3726 12.6274 6 6 6C5.44772 6 5 5.55228 5 5ZM5 11C5 10.4477 5.44772 10 6 10C10.4183 10 14 13.5817 14 18C14 18.5523 13.5523 19 13 19C12.4477 19 12 18.5523 12 18C12 14.6863 9.31371 12 6 12C5.44772 12 5 11.5523 5 11ZM4 18C4 16.8954 4.89543 16 6 16C7.10457 16 8 16.8954 8 18C8 19.1046 7.10457 20 6 20C4.89543 20 4 19.1046 4 18Z" fill="#6F6E77"/>
</svg>
