<svg width="24" height="24" viewBox="0 0 24 24" fill="none" xmlns="http://www.w3.org/2000/svg">
<path fill-rule="evenodd" clip-rule="evenodd" d="M14 2C14.5523 2 15 2.44772 15 3L15 9.58579L16.2929 8.29289C16.6834 7.90237 17.3166 7.90237 17.7071 8.29289C18.0976 8.68342 18.0976 9.31658 17.7071 9.70711L14.7071 12.7071C14.3166 13.0976 13.6834 13.0976 13.2929 12.7071L10.2929 9.70711C9.90237 9.31658 9.90237 8.68342 10.2929 8.29289C10.6834 7.90237 11.3166 7.90237 11.7071 8.29289L13 9.58579L13 3C13 2.44772 13.4477 2 14 2ZM6 7C6 5.34315 7.34315 4 9 4H10C10.5523 4 11 4.44772 11 5C11 5.55228 10.5523 6 10 6H9C8.44772 6 8 6.44772 8 7V14C8 14.5523 8.44772 15 9 15H19C19.5523 15 20 14.5523 20 14V7C20 6.44772 19.5523 6 19 6H18C17.4477 6 17 5.55228 17 5C17 4.44772 17.4477 4 18 4H19C20.6569 4 22 5.34315 22 7V14C22 15.6569 20.6569 17 19 17H18V18C18 19.6569 16.6569 21 15 21H5C3.34315 21 2 19.6569 2 18V11C2 9.34315 3.34315 8 5 8H6V7ZM6 10H5C4.44772 10 4 10.4477 4 11V18C4 18.5523 4.44772 19 5 19H15C15.5523 19 16 18.5523 16 18V17H9C7.34315 17 6 15.6569 6 14V10Z" fill="#6F6E77"/>
</svg>
