<svg width="24" height="24" viewBox="0 0 24 24" fill="none" xmlns="http://www.w3.org/2000/svg">
<path fill-rule="evenodd" clip-rule="evenodd" d="M12 3C12.5523 3 13 3.44772 13 4L13 11.5858L14.2929 10.2929C14.6834 9.90237 15.3166 9.90237 15.7071 10.2929C16.0976 10.6834 16.0976 11.3166 15.7071 11.7071L12.7071 14.7071C12.3166 15.0976 11.6834 15.0976 11.2929 14.7071L8.29289 11.7071C7.90237 11.3166 7.90237 10.6834 8.29289 10.2929C8.68342 9.90237 9.31658 9.90237 9.70711 10.2929L11 11.5858L11 4C11 3.44772 11.4477 3 12 3ZM2 9C2 7.34315 3.34315 6 5 6H8C8.55228 6 9 6.44772 9 7C9 7.55228 8.55228 8 8 8H5C4.44772 8 4 8.44772 4 9V18C4 18.5523 4.44772 19 5 19H19C19.5523 19 20 18.5523 20 18V9C20 8.44772 19.5523 8 19 8H16C15.4477 8 15 7.55228 15 7C15 6.44772 15.4477 6 16 6H19C20.6569 6 22 7.34315 22 9V18C22 19.6569 20.6569 21 19 21H5C3.34315 21 2 19.6569 2 18V9Z" fill="#6F6E77"/>
</svg>
