<svg width="24" height="24" viewBox="0 0 24 24" fill="none" xmlns="http://www.w3.org/2000/svg">
<path fill-rule="evenodd" clip-rule="evenodd" d="M12 2C12.5523 2 13 2.44772 13 3V4.27924L18 5.94591L20.6838 5.05132C21.2077 4.87667 21.774 5.15983 21.9487 5.68377C22.1233 6.20772 21.8402 6.77404 21.3162 6.94868L19.2649 7.63245L21.9326 15.6354C22.0925 16.043 21.9694 16.5231 21.6023 16.7992C19.4738 18.4003 16.5274 18.4003 14.3989 16.7991C14.0553 16.5407 13.9154 16.0916 14.0513 15.6838L16.7351 7.63246L13 6.38743V20H15C15.5523 20 16 20.4477 16 21C16 21.5523 15.5523 22 15 22H9C8.44771 22 8 21.5523 8 21C8 20.4477 8.44771 20 9 20H11V6.38743L7.26491 7.63245L9.93262 15.6354C10.0925 16.0431 9.96934 16.5231 9.60233 16.7992C7.47378 18.4003 4.52739 18.4003 2.39885 16.7991C2.0553 16.5407 1.91537 16.0916 2.05131 15.6838L4.73509 7.63246L2.68377 6.94868C2.15983 6.77404 1.87667 6.20772 2.05131 5.68377C2.22596 5.15983 2.79228 4.87667 3.31622 5.05132L6 5.94591L11 4.27924V3C11 2.44772 11.4477 2 12 2ZM6.00001 10.1623L4.19692 15.5715C5.32715 16.1427 6.67296 16.1429 7.8033 15.572L6.00001 10.1623ZM18 10.1623L16.1969 15.5715C17.3271 16.1427 18.673 16.1429 19.8033 15.572L18 10.1623Z" fill="#6F6E77"/>
</svg>
