<svg width="24" height="24" viewBox="0 0 24 24" fill="none" xmlns="http://www.w3.org/2000/svg">
<path fill-rule="evenodd" clip-rule="evenodd" d="M7 5C5.89543 5 5 5.89543 5 7C5 8.10457 5.89543 9 7 9C7.55256 9 8.05119 8.77724 8.41421 8.41421C8.77724 8.05119 9 7.55256 9 7C9 5.89543 8.10457 5 7 5ZM3 7C3 4.79086 4.79086 3 7 3C9.20914 3 11 4.79086 11 7C11 7.74138 10.7977 8.43638 10.446 9.03182L12 10.5858L18.2929 4.29289C18.6834 3.90237 19.3166 3.90237 19.7071 4.29289C20.0976 4.68342 20.0976 5.31658 19.7071 5.70711L10.446 14.9682C10.7977 15.5636 11 16.2586 11 17C11 19.2091 9.20914 21 7 21C4.79086 21 3 19.2091 3 17C3 14.7909 4.79086 13 7 13C7.74138 13 8.43638 13.2023 9.03182 13.554L10.5858 12L9.03182 10.446C8.43638 10.7977 7.74138 11 7 11C4.79086 11 3 9.20914 3 7ZM7 15C5.89543 15 5 15.8954 5 17C5 18.1046 5.89543 19 7 19C8.10457 19 9 18.1046 9 17C9 16.4474 8.77724 15.9488 8.41421 15.5858C8.05119 15.2228 7.55256 15 7 15ZM13.4142 13.4142C13.8047 13.0237 14.4379 13.0237 14.8284 13.4142L19.7071 18.2929C20.0976 18.6834 20.0976 19.3166 19.7071 19.7071C19.3166 20.0976 18.6834 20.0976 18.2929 19.7071L13.4142 14.8284C13.0237 14.4379 13.0237 13.8047 13.4142 13.4142Z" fill="#6F6E77"/>
</svg>
