<svg width="24" height="24" viewBox="0 0 24 24" fill="none" xmlns="http://www.w3.org/2000/svg">
<path fill-rule="evenodd" clip-rule="evenodd" d="M12 4C7.58172 4 4 7.58172 4 12C4 16.4183 7.58172 20 12 20C16.4183 20 20 16.4183 20 12C20 7.58172 16.4183 4 12 4ZM2 12C2 6.47715 6.47715 2 12 2C17.5228 2 22 6.47715 22 12C22 17.5228 17.5228 22 12 22C6.47715 22 2 17.5228 2 12ZM13 9C11.8954 9 11 9.89543 11 11C11 11.5526 11.2228 12.0512 11.5858 12.4142C11.9488 12.7772 12.4474 13 13 13C14.1046 13 15 12.1046 15 11C15 9.89543 14.1046 9 13 9ZM9 11C9 8.79086 10.7909 7 13 7C15.2091 7 17 8.79086 17 11C17 13.2091 15.2091 15 13 15C12.2586 15 11.5636 14.7977 10.9682 14.446L8.70711 16.7071C8.31658 17.0976 7.68342 17.0976 7.29289 16.7071C6.90237 16.3166 6.90237 15.6834 7.29289 15.2929L9.55397 13.0318C9.20229 12.4364 9 11.7414 9 11Z" fill="#6F6E77"/>
</svg>
