<svg width="24" height="24" viewBox="0 0 24 24" fill="none" xmlns="http://www.w3.org/2000/svg">
<path fill-rule="evenodd" clip-rule="evenodd" d="M2 6C2 4.34315 3.34315 3 5 3H19C20.6569 3 22 4.34315 22 6V10C22 10.7684 21.7111 11.4692 21.2361 12C21.7111 12.5308 22 13.2316 22 14V18C22 19.6569 20.6569 21 19 21H5C3.34315 21 2 19.6569 2 18V14C2 13.2316 2.28885 12.5308 2.7639 12C2.28885 11.4692 2 10.7684 2 10V6ZM5 13C4.44772 13 4 13.4477 4 14V18C4 18.5523 4.44772 19 5 19H19C19.5523 19 20 18.5523 20 18V14C20 13.4477 19.5523 13 19 13H5ZM19 11C19.5523 11 20 10.5523 20 10V6C20 5.44772 19.5523 5 19 5H5C4.44772 5 4 5.44772 4 6V10C4 10.5523 4.44772 11 5 11H19ZM16 8C16 7.44772 16.4477 7 17 7H17.01C17.5623 7 18.01 7.44772 18.01 8C18.01 8.55228 17.5623 9 17.01 9H17C16.4477 9 16 8.55228 16 8ZM16 16C16 15.4477 16.4477 15 17 15H17.01C17.5623 15 18.01 15.4477 18.01 16C18.01 16.5523 17.5623 17 17.01 17H17C16.4477 17 16 16.5523 16 16Z" fill="#6F6E77"/>
</svg>
