<svg width="24" height="24" viewBox="0 0 24 24" fill="none" xmlns="http://www.w3.org/2000/svg">
<path fill-rule="evenodd" clip-rule="evenodd" d="M11.333 2.1992C11.7127 1.85938 12.2872 1.85938 12.6669 2.19921C14.6136 3.94165 17.182 4.99997 20 4.99997C20.1903 4.99997 20.3794 4.99515 20.5672 4.98562C21.0414 4.96157 21.467 5.27418 21.586 5.73376C21.8564 6.77849 22 7.87321 22 9.00001C22 15.0589 17.856 20.1473 12.2493 21.5904C12.0858 21.6325 11.9143 21.6325 11.7507 21.5904C6.14397 20.1473 2 15.0589 2 9.00001C2 7.87317 2.14361 6.77839 2.41403 5.73363C2.53299 5.27406 2.95867 4.96145 3.43278 4.9855C3.62057 4.99503 3.80968 4.99985 4 4.99985C6.81791 4.99985 9.38626 3.94157 11.333 2.1992ZM4.18146 6.99861C4.06234 7.64701 4 8.31585 4 9.00001C4 14.034 7.38244 18.2805 12 19.5862C16.6176 18.2805 20 14.034 20 9.00001C20 8.31589 19.9377 7.64709 19.8186 6.99873C16.8723 6.95839 14.1613 5.93698 11.9999 4.24752C9.83862 5.93691 7.12763 6.95826 4.18146 6.99861ZM12 8.00001C12.5523 8.00001 13 8.44773 13 9.00001V11C13 11.5523 12.5523 12 12 12C11.4477 12 11 11.5523 11 11V9.00001C11 8.44773 11.4477 8.00001 12 8.00001ZM11 15C11 14.4477 11.4477 14 12 14H12.01C12.5623 14 13.01 14.4477 13.01 15C13.01 15.5523 12.5623 16 12.01 16H12C11.4477 16 11 15.5523 11 15Z" fill="#6F6E77"/>
</svg>
