<svg width="24" height="24" viewBox="0 0 24 24" fill="none" xmlns="http://www.w3.org/2000/svg">
<path fill-rule="evenodd" clip-rule="evenodd" d="M7 7C7 4.23858 9.23858 2 12 2C14.7614 2 17 4.23858 17 7V8H19C19.5201 8 19.9534 8.39866 19.9965 8.91695L20.9965 20.917C21.0198 21.1956 20.9252 21.4713 20.7359 21.6771C20.5465 21.8829 20.2797 22 20 22H4C3.72035 22 3.45348 21.8829 3.26412 21.6771C3.07477 21.4713 2.98023 21.1956 3.00346 20.917L4.00346 8.91695C4.04665 8.39866 4.47991 8 5 8H7V7ZM7 10V11C7 11.5523 7.44772 12 8 12C8.55229 12 9 11.5523 9 11V10H15V11C15 11.5523 15.4477 12 16 12C16.5523 12 17 11.5523 17 11V10H18.0799L18.9132 20H5.0868L5.92014 10H7ZM15 8H9V7C9 5.34315 10.3431 4 12 4C13.6569 4 15 5.34315 15 7V8Z" fill="#6F6E77"/>
</svg>
