<svg width="24" height="24" viewBox="0 0 24 24" fill="none" xmlns="http://www.w3.org/2000/svg">
<path fill-rule="evenodd" clip-rule="evenodd" d="M5 2C5.55228 2 6 2.44772 6 3V4H7C7.55228 4 8 4.44772 8 5C8 5.55228 7.55228 6 7 6H6V7C6 7.55228 5.55228 8 5 8C4.44772 8 4 7.55228 4 7V6H3C2.44772 6 2 5.55228 2 5C2 4.44772 2.44772 4 3 4H4V3C4 2.44772 4.44772 2 5 2ZM13 2C13.4304 2 13.8126 2.27543 13.9487 2.68377L16.0835 9.08833L21.3511 11.0637C21.7414 11.21 22 11.5832 22 12C22 12.4168 21.7414 12.79 21.3511 12.9363L16.0835 14.9117L13.9487 21.3162C13.8126 21.7246 13.4304 22 13 22C12.5696 22 12.1874 21.7246 12.0513 21.3162L9.91647 14.9117L4.64888 12.9363C4.25857 12.79 4 12.4168 4 12C4 11.5832 4.25857 11.21 4.64888 11.0637L9.91647 9.08833L12.0513 2.68377C12.1874 2.27543 12.5696 2 13 2ZM13 6.16228L11.663 10.1734C11.5675 10.4596 11.348 10.6875 11.0654 10.7935L7.848 12L11.0654 13.2065C11.348 13.3125 11.5675 13.5404 11.663 13.8266L13 17.8377L14.337 13.8266C14.4325 13.5404 14.652 13.3125 14.9346 13.2065L18.152 12L14.9346 10.7935C14.652 10.6875 14.4325 10.4596 14.337 10.1734L13 6.16228ZM6 16C6.55228 16 7 16.4477 7 17V18H8C8.55228 18 9 18.4477 9 19C9 19.5523 8.55228 20 8 20H7V21C7 21.5523 6.55228 22 6 22C5.44772 22 5 21.5523 5 21V20H4C3.44772 20 3 19.5523 3 19C3 18.4477 3.44772 18 4 18H5V17C5 16.4477 5.44772 16 6 16Z" fill="#6F6E77"/>
</svg>
