<svg width="24" height="24" viewBox="0 0 24 24" fill="none" xmlns="http://www.w3.org/2000/svg">
<path fill-rule="evenodd" clip-rule="evenodd" d="M18.3514 2.06378C18.7416 2.21023 19 2.58327 19 3V6.12602C20.7252 6.57006 22 8.13616 22 10C22 11.8638 20.7252 13.4299 19 13.874V17C19 17.4167 18.7416 17.7898 18.3514 17.9362C17.9613 18.0827 17.5212 17.9718 17.247 17.658C16.634 16.9565 15.5484 16.2834 14.0587 15.7864C13.4275 15.5758 12.7368 15.4014 12 15.2708V19.2402C12 20.7644 10.7644 22 9.24018 22C8.07384 22 7.03342 21.2668 6.64114 20.1684L6.63872 20.1616L4.62855 14.4027C3.06483 13.5587 2 11.9047 2 10C2 7.23858 4.23857 5 6.99999 5H8.83208C9.53626 5 10.2202 4.96175 10.876 4.8898C10.8846 4.88873 10.8933 4.88777 10.902 4.88692C12.0562 4.75858 13.1228 4.52583 14.0587 4.21361C15.5484 3.71662 16.634 3.04348 17.247 2.34199C17.5212 2.02819 17.9613 1.91733 18.3514 2.06378ZM10 6.96787C9.61591 6.98913 9.22622 7 8.83208 7H6.99999C5.34314 7 4 8.34314 4 10C4 11.2392 4.75153 12.3051 5.82767 12.7626C6.1865 12.9151 6.58204 13 6.99998 13L8.83209 13C9.22623 13 9.61591 13.0109 10 13.0321V6.96787ZM12 13.243V6.75698C12.9581 6.60585 13.8624 6.38744 14.6916 6.11082C15.5313 5.83069 16.3125 5.48454 17 5.0758L17 14.9242C16.3125 14.5155 15.5313 14.1693 14.6916 13.8892C13.8624 13.6126 12.9581 13.3941 12 13.243ZM19 11.7324C19.5978 11.3866 20 10.7403 20 10C20 9.25972 19.5978 8.61337 19 8.26756V11.7324ZM10 15.0355C9.61804 15.0121 9.22827 15 8.83208 15L6.99997 15C6.98507 15 6.97019 14.9999 6.95532 14.9998L8.52462 19.4957C8.52495 19.4966 8.52527 19.4975 8.52559 19.4984C8.63432 19.7993 8.92002 20 9.24018 20C9.65982 20 10 19.6598 10 19.2402V15.0355Z" fill="#6F6E77"/>
</svg>
