<svg width="24" height="24" viewBox="0 0 24 24" fill="none" xmlns="http://www.w3.org/2000/svg">
<path fill-rule="evenodd" clip-rule="evenodd" d="M10.0979 2.61758C10.6967 0.775053 13.3034 0.775059 13.9021 2.61758L15.4209 7.29149L20.3354 7.29168C22.2728 7.29175 23.0783 9.77085 21.511 10.9097L17.5352 13.7985L19.0537 18.4725C19.6523 20.3151 17.5434 21.8472 15.976 20.7085L12 17.82L8.02399 20.7085C6.45658 21.8472 4.34774 20.3151 4.94635 18.4725L6.46483 13.7985L2.48903 10.9097C0.921705 9.77085 1.72722 7.29175 3.66459 7.29168L8.57908 7.29149L10.0979 2.61758ZM12 3.23569L10.4812 7.9096C10.2134 8.73358 9.44555 9.29146 8.57916 9.29149L3.66466 9.29168L7.64047 12.1805C8.34138 12.6898 8.63467 13.5924 8.36697 14.4164L6.84848 19.0905L10.8245 16.202C11.5255 15.6927 12.4746 15.6927 13.1755 16.202L17.1515 19.0905L15.6331 14.4164C15.3654 13.5924 15.6587 12.6898 16.3596 12.1805L20.3354 9.29168L15.4209 9.29149C14.5545 9.29146 13.7866 8.73358 13.5189 7.9096L12 3.23569Z" fill="#6F6E77"/>
</svg>
