<svg width="24" height="24" viewBox="0 0 24 24" fill="none" xmlns="http://www.w3.org/2000/svg">
<path fill-rule="evenodd" clip-rule="evenodd" d="M6.34315 4.92894C6.73367 5.31946 6.73367 5.95263 6.34315 6.34315C3.21895 9.46735 3.21895 14.5327 6.34315 17.6569C6.73367 18.0474 6.73367 18.6806 6.34315 19.0711C5.95262 19.4616 5.31946 19.4616 4.92893 19.0711C1.02369 15.1658 1.02369 8.83418 4.92893 4.92894C5.31946 4.53842 5.95262 4.53842 6.34315 4.92894ZM17.6569 4.92894C18.0474 4.53842 18.6805 4.53842 19.0711 4.92894C22.9763 8.83418 22.9763 15.1658 19.0711 19.0711C18.6805 19.4616 18.0474 19.4616 17.6569 19.0711C17.2663 18.6806 17.2663 18.0474 17.6569 17.6569C20.781 14.5327 20.781 9.46735 17.6569 6.34315C17.2663 5.95263 17.2663 5.31946 17.6569 4.92894ZM9.17157 7.75737C9.5621 8.14789 9.5621 8.78106 9.17157 9.17158C7.60948 10.7337 7.60948 13.2663 9.17157 14.8284C9.5621 15.219 9.5621 15.8521 9.17157 16.2426C8.78105 16.6332 8.14788 16.6332 7.75736 16.2426C5.41421 13.8995 5.41421 10.1005 7.75736 7.75737C8.14788 7.36684 8.78105 7.36684 9.17157 7.75737ZM14.8284 7.75737C15.219 7.36684 15.8521 7.36684 16.2426 7.75737C18.5858 10.1005 18.5858 13.8995 16.2426 16.2426C15.8521 16.6332 15.219 16.6332 14.8284 16.2426C14.4379 15.8521 14.4379 15.219 14.8284 14.8284C16.3905 13.2663 16.3905 10.7337 14.8284 9.17158C14.4379 8.78106 14.4379 8.14789 14.8284 7.75737ZM10 12C10 10.8954 10.8954 10 12 10C13.1046 10 14 10.8954 14 12C14 13.1046 13.1046 14 12 14C10.8954 14 10 13.1046 10 12Z" fill="#6F6E77"/>
</svg>
