<svg width="24" height="24" viewBox="0 0 24 24" fill="none" xmlns="http://www.w3.org/2000/svg">
<path fill-rule="evenodd" clip-rule="evenodd" d="M2.29289 2.29289C2.68342 1.90237 3.31658 1.90237 3.70711 2.29289L11.4821 10.0679C11.6474 10.0237 11.821 10 12 10C13.1046 10 14 10.8954 14 12C14 12.179 13.9764 12.3526 13.9321 12.5179L15.4464 14.0322C16.3524 12.4983 16.1464 10.4895 14.8284 9.17158C14.4379 8.78106 14.4379 8.14789 14.8284 7.75737C15.219 7.36684 15.8521 7.36684 16.2426 7.75737C18.3449 9.85959 18.561 13.1337 16.8911 15.4769L18.3202 16.906C20.7627 13.7676 20.5416 9.22788 17.6569 6.34315C17.2663 5.95263 17.2663 5.31946 17.6569 4.92894C18.0474 4.53842 18.6805 4.53842 19.0711 4.92894C22.7377 8.59554 22.9617 14.401 19.7433 18.3291L21.7071 20.2929C22.0976 20.6834 22.0976 21.3166 21.7071 21.7071C21.3166 22.0976 20.6834 22.0976 20.2929 21.7071L2.29289 3.70711C1.90237 3.31658 1.90237 2.68342 2.29289 2.29289ZM3.78767 8.17807C4.31118 8.354 4.59296 8.921 4.41704 9.44452C3.47919 12.2354 4.1231 15.4368 6.34315 17.6569C6.73367 18.0474 6.73367 18.6806 6.34315 19.0711C5.95262 19.4616 5.31946 19.4616 4.92893 19.0711C2.15154 16.2937 1.35084 12.2902 2.52122 8.80744C2.69714 8.28393 3.26415 8.00215 3.78767 8.17807ZM6.90932 11.7167C7.45612 11.6391 7.96233 12.0194 8.03998 12.5662C8.15753 13.394 8.5339 14.1908 9.17157 14.8284C9.5621 15.219 9.5621 15.8521 9.17157 16.2427C8.78105 16.6332 8.14788 16.6332 7.75736 16.2427C6.80287 15.2882 6.23621 14.0894 6.05984 12.8473C5.9822 12.3005 6.36252 11.7943 6.90932 11.7167Z" fill="#6F6E77"/>
</svg>
