<svg width="24" height="24" viewBox="0 0 24 24" fill="none" xmlns="http://www.w3.org/2000/svg">
<path fill-rule="evenodd" clip-rule="evenodd" d="M5.68014 7.09436C4.62708 8.44904 4 10.1513 4 12C4 13.8487 4.62708 15.551 5.68014 16.9056L7.8284 14.7574C7.30488 13.967 7 13.0191 7 12C7 10.9809 7.30488 10.033 7.8284 9.24261L5.68014 7.09436ZM7.09436 5.68014L9.24261 7.8284C10.033 7.30488 10.9809 7 12 7C13.0191 7 13.967 7.30488 14.7574 7.8284L16.9056 5.68014C15.551 4.62708 13.8487 4 12 4C10.1513 4 8.44904 4.62708 7.09436 5.68014ZM18.3199 7.09436L16.1716 9.24261C16.6951 10.033 17 10.9809 17 12C17 13.0191 16.6951 13.967 16.1716 14.7574L18.3199 16.9056C19.3729 15.551 20 13.8487 20 12C20 10.1513 19.3729 8.44904 18.3199 7.09436ZM16.9056 18.3199L14.7574 16.1716C13.967 16.6951 13.0191 17 12 17C10.9809 17 10.033 16.6951 9.24261 16.1716L7.09436 18.3199C8.44904 19.3729 10.1513 20 12 20C13.8487 20 15.551 19.3729 16.9056 18.3199ZM2 12C2 6.47715 6.47715 2 12 2C17.5228 2 22 6.47715 22 12C22 17.5228 17.5228 22 12 22C6.47715 22 2 17.5228 2 12ZM9 12C9 13.6569 10.3431 15 12 15C13.6569 15 15 13.6569 15 12C15 10.3431 13.6569 9 12 9C10.3431 9 9 10.3431 9 12Z" fill="#6F6E77"/>
</svg>
