<svg width="24" height="24" viewBox="0 0 24 24" fill="none" xmlns="http://www.w3.org/2000/svg">
<path fill-rule="evenodd" clip-rule="evenodd" d="M6.29289 3.29289C6.68342 2.90237 7.31658 2.90237 7.70711 3.29289L11.7071 7.29289C12.0976 7.68342 12.0976 8.31658 11.7071 8.70711C11.3166 9.09763 10.6834 9.09763 10.2929 8.70711L8 6.41421V16C8 16.5523 7.55228 17 7 17C6.44772 17 6 16.5523 6 16V6.41421L3.70711 8.70711C3.31658 9.09763 2.68342 9.09763 2.29289 8.70711C1.90237 8.31658 1.90237 7.68342 2.29289 7.29289L6.29289 3.29289ZM16 17.5858V8C16 7.44772 16.4477 7 17 7C17.5523 7 18 7.44772 18 8V17.5858L20.2929 15.2929C20.6834 14.9024 21.3166 14.9024 21.7071 15.2929C22.0976 15.6834 22.0976 16.3166 21.7071 16.7071L17.7071 20.7071C17.3166 21.0976 16.6834 21.0976 16.2929 20.7071L12.2929 16.7071C11.9024 16.3166 11.9024 15.6834 12.2929 15.2929C12.6834 14.9024 13.3166 14.9024 13.7071 15.2929L16 17.5858Z" fill="#6F6E77"/>
</svg>
