<svg width="24" height="24" viewBox="0 0 24 24" fill="none" xmlns="http://www.w3.org/2000/svg">
<path fill-rule="evenodd" clip-rule="evenodd" d="M7 4C5.34315 4 4 5.34315 4 7V12C4 12.2985 4.12956 12.5656 4.33882 12.7503L4.36217 12.7709L11.3584 19.7671C11.5326 19.9131 11.755 20 12 20C12.245 20 12.4674 19.9131 12.6416 19.7671L19.6158 12.7929C19.6305 12.7782 19.6456 12.764 19.6612 12.7503C19.8704 12.5656 20 12.2985 20 12C20 11.755 19.9131 11.5326 19.7671 11.3584L12.7929 4.38419C12.7782 4.36952 12.764 4.35438 12.7503 4.33882C12.5656 4.12956 12.2985 4 12 4H7ZM2 7C2 4.23858 4.23858 2 7 2H12C12.8838 2 13.6793 2.3834 14.2269 2.98978L21.2071 9.96998C21.2218 9.98466 21.236 9.99979 21.2497 10.0154C21.716 10.5436 22 11.2398 22 12C22 12.8838 21.6166 13.6793 21.0102 14.2269L14.03 21.2071C14.0153 21.2218 14.0002 21.236 13.9846 21.2497C13.4564 21.716 12.7602 22 12 22C11.2398 22 10.5436 21.716 10.0154 21.2497C9.99979 21.236 9.98466 21.2218 9.96998 21.2071L2.98978 14.2269C2.3834 13.6793 2 12.8838 2 12V7ZM6 7C6 6.44772 6.44772 6 7 6H7.01C7.56228 6 8.01 6.44772 8.01 7C8.01 7.55228 7.56228 8 7.01 8H7C6.44772 8 6 7.55228 6 7Z" fill="#6F6E77"/>
</svg>
