<svg width="24" height="24" viewBox="0 0 24 24" fill="none" xmlns="http://www.w3.org/2000/svg">
<path fill-rule="evenodd" clip-rule="evenodd" d="M3 5C3 3.89543 3.89543 3 5 3H19C20.1046 3 21 3.89543 21 5V7C21 8.10457 20.1046 9 19 9H5C3.89543 9 3 8.10457 3 7V5ZM19 5H5V7H19V5ZM3 13C3 11.8954 3.89543 11 5 11H11C12.1046 11 13 11.8954 13 13V19C13 20.1046 12.1046 21 11 21H5C3.89543 21 3 20.1046 3 19V13ZM11 13H5V19H11V13ZM15 13C15 11.8954 15.8954 11 17 11H19C20.1046 11 21 11.8954 21 13V19C21 20.1046 20.1046 21 19 21H17C15.8954 21 15 20.1046 15 19V13ZM19 13H17V19H19V13Z" fill="#6F6E77"/>
</svg>
