<svg width="24" height="24" viewBox="0 0 24 24" fill="none" xmlns="http://www.w3.org/2000/svg">
<path fill-rule="evenodd" clip-rule="evenodd" d="M10 3.90453C10 2.85269 10.8527 2 11.9045 2H12C13.6569 2 15 3.34315 15 5V9H18.7639C20.9941 9 22.4446 11.3469 21.4472 13.3416L17.9472 20.3416C17.439 21.358 16.4002 22 15.2639 22H11.2462C11.0009 22 10.7566 21.9699 10.5186 21.9104L6.87689 21H5C3.34315 21 2 19.6569 2 18V12C2 10.3431 3.34315 9 5 9H7.13148L9.56029 5.35679C9.847 4.92672 10 4.42141 10 3.90453ZM6 11H5C4.44772 11 4 11.4477 4 12V18C4 18.5523 4.44771 19 5 19H6V11ZM8 19.2192V11.3028L11.2244 6.46619C11.7125 5.73409 11.9809 4.87837 11.999 4C12.5513 4 13 4.44772 13 5V9H12C11.4477 9 11 9.44772 11 10C11 10.5523 11.4477 11 12 11H18.7639C19.5073 11 19.9908 11.7823 19.6584 12.4472L16.1584 19.4472C15.989 19.786 15.6427 20 15.2639 20H11.2462C11.1644 20 11.083 19.99 11.0037 19.9701L8 19.2192Z" fill="#6F6E77"/>
</svg>
