<svg width="24" height="24" viewBox="0 0 24 24" fill="none" xmlns="http://www.w3.org/2000/svg">
<path fill-rule="evenodd" clip-rule="evenodd" d="M8.73607 4C8.3573 4 8.01104 4.214 7.84164 4.55279L4.34164 11.5528C4.00919 12.2177 4.49269 13 5.23607 13H12C12.5523 13 13 13.4477 13 14C13 14.5523 12.5523 15 12 15H11V19C11 19.5523 11.4477 20 12 20C12.0182 19.1216 12.2875 18.2659 12.7756 17.5338L16 12.6972V4.78078L12.9963 4.02986C12.917 4.01003 12.8356 4 12.7538 4H8.73607ZM18 5V13H19C19.5523 13 20 12.5523 20 12V6C20 5.44772 19.5523 5 19 5H18ZM16.8685 15L14.4397 18.6432C14.153 19.0733 14 19.5786 14 20.0955C14 21.1473 13.1473 22 12.0955 22H12C10.3431 22 9 20.6569 9 19V15H5.23607C3.00593 15 1.55544 12.6531 2.55279 10.6584L6.05279 3.65836C6.56097 2.64201 7.59975 2 8.73607 2H12.7538C12.9991 2 13.2434 2.03008 13.4814 2.08957L17.1231 3H19C20.6569 3 22 4.34314 22 6V12C22 13.6569 20.6569 15 19 15H16.8685Z" fill="#6F6E77"/>
</svg>
