<svg width="24" height="24" viewBox="0 0 24 24" fill="none" xmlns="http://www.w3.org/2000/svg">
<path fill-rule="evenodd" clip-rule="evenodd" d="M2 7C2 5.34315 3.34315 4 5 4H19C20.6569 4 22 5.34315 22 7V10C22 10.5523 21.5523 11 21 11C20.4477 11 20 11.4477 20 12C20 12.5523 20.4477 13 21 13C21.5523 13 22 13.4477 22 14V17C22 18.6569 20.6569 20 19 20H5C3.34315 20 2 18.6569 2 17V14C2 13.4477 2.44772 13 3 13C3.55228 13 4 12.5523 4 12C4 11.4477 3.55228 11 3 11C2.44772 11 2 10.5523 2 10V7ZM16 18V17C16 16.4477 15.5523 16 15 16C14.4477 16 14 16.4477 14 17V18H5C4.44772 18 4 17.5523 4 17V14.8293C5.16519 14.4175 6 13.3062 6 12C6 10.6938 5.16519 9.58254 4 9.17071V7C4 6.44772 4.44772 6 5 6H14V7C14 7.55228 14.4477 8 15 8C15.5523 8 16 7.55228 16 7V6H19C19.5523 6 20 6.44772 20 7V9.17071C18.8348 9.58254 18 10.6938 18 12C18 13.3062 18.8348 14.4175 20 14.8293V17C20 17.5523 19.5523 18 19 18H16ZM15 10C15.5523 10 16 10.4477 16 11V13C16 13.5523 15.5523 14 15 14C14.4477 14 14 13.5523 14 13V11C14 10.4477 14.4477 10 15 10Z" fill="#6F6E77"/>
</svg>
