<svg width="24" height="24" viewBox="0 0 24 24" fill="none" xmlns="http://www.w3.org/2000/svg">
<path fill-rule="evenodd" clip-rule="evenodd" d="M2 6C2 4.89543 2.89543 4 4 4H12C13.1046 4 14 4.89543 14 6H16.5858C17.1162 6 17.6249 6.21071 18 6.58579L17.2929 7.29289L18 6.58579L21.4142 10C21.7893 10.3751 22 10.8838 22 11.4142V16C22 17.1046 21.1046 18 20 18H19.8293C19.4175 19.1652 18.3062 20 17 20C15.6938 20 14.5825 19.1652 14.1707 18H14C13.6357 18 13.2942 17.9026 13 17.7324C12.7058 17.9026 12.3643 18 12 18H9.82929C9.41746 19.1652 8.30622 20 7 20C5.69378 20 4.58254 19.1652 4.17071 18H4C2.89543 18 2 17.1046 2 16V6ZM4.17071 16C4.58254 14.8348 5.69378 14 7 14C8.30622 14 9.41746 14.8348 9.82929 16H12L12 8C12 7.99907 12 7.99814 12 7.99721L12 8M12 7.99721L12 6L4 6V16H4.17071M14 16H14.1707C14.5825 14.8348 15.6938 14 17 14C18.3062 14 19.4175 14.8348 19.8293 16H20L20 11.4142L16.5858 8H14L14 16ZM7 16C6.44772 16 6 16.4477 6 17C6 17.5523 6.44772 18 7 18C7.55228 18 8 17.5523 8 17C8 16.4477 7.55228 16 7 16ZM17 16C16.4477 16 16 16.4477 16 17C16 17.5523 16.4477 18 17 18C17.5523 18 18 17.5523 18 17C18 16.4477 17.5523 16 17 16Z" fill="#6F6E77"/>
</svg>
