<svg width="24" height="24" viewBox="0 0 24 24" fill="none" xmlns="http://www.w3.org/2000/svg">
<path fill-rule="evenodd" clip-rule="evenodd" d="M12 5C10.8954 5 10 5.89543 10 7C10 8.10457 10.8954 9 12 9C13.1046 9 14 8.10457 14 7C14 5.89543 13.1046 5 12 5ZM8 7C8 4.79086 9.79086 3 12 3C14.2091 3 16 4.79086 16 7C16 9.20914 14.2091 11 12 11C9.79086 11 8 9.20914 8 7ZM5 9C4.44772 9 4 9.44772 4 10C4 10.5523 4.44772 11 5 11C5.55228 11 6 10.5523 6 10C6 9.44772 5.55228 9 5 9ZM2 10C2 8.34315 3.34315 7 5 7C6.65685 7 8 8.34315 8 10C8 11.6569 6.65685 13 5 13C3.34315 13 2 11.6569 2 10ZM19 9C18.4477 9 18 9.44772 18 10C18 10.5523 18.4477 11 19 11C19.5523 11 20 10.5523 20 10C20 9.44772 19.5523 9 19 9ZM16 10C16 8.34315 17.3431 7 19 7C20.6569 7 22 8.34315 22 10C22 11.6569 20.6569 13 19 13C17.3431 13 16 11.6569 16 10ZM12 14C10.3174 14 8.87516 15.0392 8.28463 16.5145C8.10133 16.9725 8 17.4732 8 18V19H16V18C16 17.4732 15.8987 16.9725 15.7154 16.5145C15.1248 15.0392 13.6826 14 12 14ZM18 19H21V18C21 16.8954 20.1046 16 19 16C18.5439 16 18.1237 16.1521 17.7867 16.4097C17.9259 16.917 18 17.4504 18 18V19ZM16.9286 14.5777C15.8455 13.0206 14.0427 12 12 12C9.9573 12 8.15455 13.0206 7.07138 14.5777C6.46741 14.2114 5.75829 14 5 14C2.79086 14 1 15.7909 1 18V20C1 20.5523 1.44772 21 2 21H22C22.5523 21 23 20.5523 23 20V18C23 15.7909 21.2091 14 19 14C18.2417 14 17.5326 14.2114 16.9286 14.5777ZM6.21328 16.4097C5.87632 16.1521 5.45607 16 5 16C3.89543 16 3 16.8954 3 18V19H6V18C6 17.4504 6.07414 16.917 6.21328 16.4097Z" fill="#6F6E77"/>
</svg>
