<svg width="24" height="24" viewBox="0 0 24 24" fill="none" xmlns="http://www.w3.org/2000/svg">
<path fill-rule="evenodd" clip-rule="evenodd" d="M9 4C7.34315 4 6 5.34315 6 7C6 8.65685 7.34315 10 9 10C9.89152 10 10.6922 9.61112 11.2417 8.99374C11.2468 8.98776 11.2521 8.98183 11.2574 8.97595C11.7198 8.44816 12 7.7568 12 7C12 6.24318 11.7198 5.55182 11.2574 5.02402C11.2521 5.01816 11.2469 5.01225 11.2417 5.00629C10.6922 4.38889 9.89153 4 9 4ZM12.0001 2.99971C11.1644 2.37197 10.1257 2 9 2C6.23858 2 4 4.23858 4 7C4 9.76142 6.23858 12 9 12C10.1257 12 11.1644 11.628 12.0001 11.0003C12.8354 11.6274 13.8745 12 15 12C17.7614 12 20 9.76142 20 7C20 4.23858 17.7614 2 15 2C13.8745 2 12.8354 2.37258 12.0001 2.99971ZM13.3338 4.50468C13.7575 5.23905 14 6.09121 14 7C14 7.90879 13.7575 8.76095 13.3338 9.49532C13.8107 9.81456 14.3834 10 15 10C16.6569 10 18 8.65685 18 7C18 5.34314 16.6569 4 15 4C14.3834 4 13.8107 4.18544 13.3338 4.50468ZM9 15C6.23858 15 4 17.2386 4 20H14C14 17.2386 11.7614 15 9 15ZM16 20H20C20 17.2386 17.7614 15 15 15C14.6568 15 14.3221 15.0344 13.999 15.1C15.2368 16.3626 16 18.0922 16 20ZM12.0003 13.6738C11.091 13.2417 10.0737 13 9 13C5.13401 13 2 16.134 2 20V21C2 21.5523 2.44772 22 3 22H21C21.5523 22 22 21.5523 22 21V20C22 16.134 18.866 13 15 13C13.928 13 12.9103 13.2416 12.0003 13.6738Z" fill="#6F6E77"/>
</svg>
