<svg width="24" height="24" viewBox="0 0 24 24" fill="none" xmlns="http://www.w3.org/2000/svg">
<path fill-rule="evenodd" clip-rule="evenodd" d="M12 4C7.58172 4 4 7.58172 4 12C4 13.6797 4.51765 15.2385 5.40212 16.5255C7.39411 15.5484 9.6342 15 12 15C14.3658 15 16.6059 15.5484 18.5979 16.5255C19.4824 15.2384 20 13.6797 20 12C20 7.58172 16.4183 4 12 4ZM19.6542 18.4356C21.1181 16.6964 22 14.4512 22 12C22 6.47715 17.5228 2 12 2C6.47715 2 2 6.47715 2 12C2 14.4512 2.88193 16.6964 4.34577 18.4356C4.35369 18.4454 4.36176 18.4549 4.36998 18.4643C6.20429 20.6272 8.94183 22 12 22C15.0582 22 17.7957 20.6272 19.63 18.4643C19.6382 18.4549 19.6463 18.4454 19.6542 18.4356ZM17.1986 18.0808C15.6074 17.3858 13.8497 17 12 17C10.1503 17 8.39259 17.3858 6.80137 18.0808C8.19961 19.2774 10.0154 20 12 20C13.9846 20 15.8004 19.2774 17.1986 18.0808ZM12 8C10.8954 8 10 8.89543 10 10C10 11.1046 10.8954 12 12 12C13.1046 12 14 11.1046 14 10C14 8.89543 13.1046 8 12 8ZM8 10C8 7.79086 9.79086 6 12 6C14.2091 6 16 7.79086 16 10C16 12.2091 14.2091 14 12 14C9.79086 14 8 12.2091 8 10Z" fill="#6F6E77"/>
</svg>
