<svg width="24" height="24" viewBox="0 0 24 24" fill="none" xmlns="http://www.w3.org/2000/svg">
<path fill-rule="evenodd" clip-rule="evenodd" d="M18.555 3.10449C19.0496 2.85871 19.6498 3.0604 19.8956 3.55497C21.1604 6.10008 21.8711 8.96848 21.8711 12C21.8711 15.0315 21.1604 17.8999 19.8956 20.445C19.6498 20.9396 19.0496 21.1413 18.555 20.8955C18.0604 20.6497 17.8588 20.0496 18.1045 19.555C19.235 17.2802 19.8711 14.7158 19.8711 12C19.8711 9.28417 19.235 6.71977 18.1045 4.44504C17.8588 3.95046 18.0604 3.35028 18.555 3.10449ZM5.31607 3.10449C5.81065 3.35028 6.01234 3.95046 5.76655 4.44504C4.63611 6.71977 4 9.28417 4 12C4 14.7158 4.63611 17.2802 5.76655 19.555C6.01234 20.0496 5.81065 20.6497 5.31607 20.8955C4.82149 21.1413 4.22131 20.9396 3.97552 20.445C2.71072 17.8999 2 15.0315 2 12C2 8.96848 2.71071 6.10008 3.97552 3.55497C4.22131 3.0604 4.82149 2.85871 5.31607 3.10449ZM8 9.00001C8 8.44772 8.44772 8.00001 9 8.00001H10.2457C11.1387 8.00001 11.9234 8.59196 12.1687 9.45056L12.4507 10.4376L13.6421 9.04763C14.212 8.38269 15.0441 8.00001 15.9199 8.00001H16C16.5523 8.00001 17 8.44772 17 9.00001C17 9.55229 16.5523 10 16 10H15.9199C15.6279 10 15.3506 10.1276 15.1606 10.3492L13.1093 12.7424L13.7543 15H15C15.5523 15 16 15.4477 16 16C16 16.5523 15.5523 17 15 17H13.7543C12.8613 17 12.0766 16.4081 11.8313 15.5494L11.5493 14.5625L10.3579 15.9524C9.78795 16.6173 8.9559 17 8.08013 17H8C7.44772 17 7 16.5523 7 16C7 15.4477 7.44772 15 8 15H8.08013C8.37206 15 8.64941 14.8724 8.83939 14.6508L10.8907 12.2576L10.2457 10H9C8.44772 10 8 9.55229 8 9.00001Z" fill="#6F6E77"/>
</svg>
