<svg width="24" height="24" viewBox="0 0 24 24" fill="none" xmlns="http://www.w3.org/2000/svg">
<path fill-rule="evenodd" clip-rule="evenodd" d="M2 8C2 6.34315 3.34315 5 5 5H13C14.6569 5 16 6.34315 16 8V8.38197L19.1056 6.82918C20.4354 6.16428 22 7.13127 22 8.61803V15.382C22 16.8687 20.4354 17.8357 19.1056 17.1708L16 15.618V16C16 17.6569 14.6569 19 13 19H5C3.34315 19 2 17.6569 2 16V8ZM14 13.9783C13.9997 13.9923 13.9997 14.0062 14 14.0201V16C14 16.5523 13.5523 17 13 17H5C4.44772 17 4 16.5523 4 16V8C4 7.44772 4.44772 7 5 7H13C13.5523 7 14 7.44772 14 8V9.97988C13.9997 9.99379 13.9997 10.0077 14 10.0217V13.9783ZM16 13.382L20 15.382L20 8.61803L16 10.618V13.382Z" fill="#6F6E77"/>
</svg>
