<svg width="24" height="24" viewBox="0 0 24 24" fill="none" xmlns="http://www.w3.org/2000/svg">
<path fill-rule="evenodd" clip-rule="evenodd" d="M3 6C3 4.34315 4.34315 3 6 3H8C9.65685 3 11 4.34315 11 6V8C11 9.65685 9.65685 11 8 11H6C4.34315 11 3 9.65685 3 8V6ZM6 5C5.44772 5 5 5.44772 5 6V8C5 8.55228 5.44772 9 6 9H8C8.55228 9 9 8.55228 9 8V6C9 5.44772 8.55228 5 8 5H6ZM13 6C13 4.34315 14.3431 3 16 3H18C19.6569 3 21 4.34315 21 6V8C21 9.65685 19.6569 11 18 11H16C14.3431 11 13 9.65685 13 8V6ZM16 5C15.4477 5 15 5.44772 15 6V8C15 8.55228 15.4477 9 16 9H18C18.5523 9 19 8.55228 19 8V6C19 5.44772 18.5523 5 18 5H16ZM3 16C3 14.3431 4.34315 13 6 13H8C9.65685 13 11 14.3431 11 16V18C11 19.6569 9.65685 21 8 21H6C4.34315 21 3 19.6569 3 18V16ZM6 15C5.44772 15 5 15.4477 5 16V18C5 18.5523 5.44772 19 6 19H8C8.55228 19 9 18.5523 9 18V16C9 15.4477 8.55228 15 8 15H6ZM13 16C13 14.3431 14.3431 13 16 13H18C19.6569 13 21 14.3431 21 16V18C21 19.6569 19.6569 21 18 21H16C14.3431 21 13 19.6569 13 18V16ZM16 15C15.4477 15 15 15.4477 15 16V18C15 18.5523 15.4477 19 16 19H18C18.5523 19 19 18.5523 19 18V16C19 15.4477 18.5523 15 18 15H16Z" fill="#6F6E77"/>
</svg>
