<svg width="24" height="24" viewBox="0 0 24 24" fill="none" xmlns="http://www.w3.org/2000/svg">
<path fill-rule="evenodd" clip-rule="evenodd" d="M2 7C2 5.34315 3.34315 4 5 4H7C7.76835 4 8.46924 4.28885 9 4.76389C9.53076 4.28885 10.2316 4 11 4H13C13.7684 4 14.4692 4.28885 15 4.7639C15.5308 4.28885 16.2316 4 17 4H19C20.6569 4 22 5.34315 22 7V17C22 18.6569 20.6569 20 19 20H17C16.2316 20 15.5308 19.7111 15 19.2361C14.4692 19.7111 13.7684 20 13 20H11C10.2316 20 9.53076 19.7111 9 19.2361C8.46925 19.7111 7.76836 20 7 20H5C3.34315 20 2 18.6569 2 17V7ZM10 17C10 17.5523 10.4477 18 11 18H13C13.5523 18 14 17.5523 14 17V7C14 6.44772 13.5523 6 13 6H11C10.4477 6 10 6.44772 10 7V17ZM8 7C8 6.44772 7.55228 6 7 6H5C4.44772 6 4 6.44772 4 7V17C4 17.5523 4.44772 18 5 18H7C7.55228 18 8 17.5523 8 17V7ZM16 7V17C16 17.5523 16.4477 18 17 18H19C19.5523 18 20 17.5523 20 17V7C20 6.44772 19.5523 6 19 6H17C16.4477 6 16 6.44772 16 7Z" fill="#6F6E77"/>
</svg>
