<svg width="24" height="24" viewBox="0 0 24 24" fill="none" xmlns="http://www.w3.org/2000/svg">
<path fill-rule="evenodd" clip-rule="evenodd" d="M9.58579 3.58583C10.8457 2.3259 13 3.21823 13 5.00004V19C13 20.7818 10.8457 21.6742 9.58579 20.4143L5.17157 16H4C2.89543 16 2 15.1046 2 14V10C2 8.89547 2.89543 8.00004 4 8.00004H5.17157L9.58579 3.58583ZM11 5.00004L6.29289 9.70715C6.10536 9.89469 5.851 10 5.58579 10H4V14H5.58579C5.851 14 6.10536 14.1054 6.29289 14.2929L11 19V5.00004ZM17.6569 4.92887C18.0474 4.53835 18.6806 4.53835 19.0711 4.92887C22.9764 8.83411 22.9764 15.1658 19.0711 19.071C18.6806 19.4615 18.0474 19.4615 17.6569 19.071C17.2664 18.6805 17.2664 18.0473 17.6569 17.6568C20.7811 14.5326 20.7811 9.46728 17.6569 6.34308C17.2664 5.95256 17.2664 5.31939 17.6569 4.92887ZM14.8284 7.75736C15.2189 7.36684 15.8521 7.36684 16.2426 7.75736C18.5858 10.1005 18.5858 13.8995 16.2426 16.2426C15.8521 16.6332 15.2189 16.6332 14.8284 16.2426C14.4379 15.8521 14.4379 15.219 14.8284 14.8284C16.3905 13.2663 16.3905 10.7337 14.8284 9.17157C14.4379 8.78105 14.4379 8.14789 14.8284 7.75736Z" fill="#6F6E77"/>
</svg>
