<svg width="24" height="24" viewBox="0 0 24 24" fill="none" xmlns="http://www.w3.org/2000/svg">
<path fill-rule="evenodd" clip-rule="evenodd" d="M21.8997 10.1005C16.4323 4.63316 7.568 4.63316 2.10066 10.1005C1.71014 10.491 1.07697 10.491 0.686448 10.1005C0.295924 9.70998 0.295924 9.07681 0.686448 8.68629C6.93484 2.4379 17.0655 2.4379 23.3139 8.68629C23.7044 9.07682 23.7044 9.70998 23.3139 10.1005C22.9233 10.491 22.2902 10.491 21.8997 10.1005ZM18.3642 13.6361C14.8494 10.1213 9.15095 10.1213 5.63623 13.6361C5.24571 14.0266 4.61254 14.0266 4.22202 13.6361C3.8315 13.2455 3.8315 12.6124 4.22202 12.2218C8.51779 7.92607 15.4826 7.92607 19.7784 12.2218C20.1689 12.6124 20.1689 13.2455 19.7784 13.6361C19.3878 14.0266 18.7547 14.0266 18.3642 13.6361ZM15.1821 17.111C13.4248 15.3536 10.5755 15.3536 8.81818 17.111C8.42765 17.5015 7.79449 17.5015 7.40396 17.111C7.01344 16.7204 7.01344 16.0873 7.40396 15.6968C9.94237 13.1584 14.0579 13.1584 16.5963 15.6968C16.9869 16.0873 16.9869 16.7204 16.5963 17.111C16.2058 17.5015 15.5727 17.5015 15.1821 17.111ZM11.0002 20C11.0002 19.4477 11.4479 19 12.0002 19H12.0102C12.5624 19 13.0102 19.4477 13.0102 20C13.0102 20.5523 12.5624 21 12.0102 21H12.0002C11.4479 21 11.0002 20.5523 11.0002 20Z" fill="#6F6E77"/>
</svg>
