<svg viewBox="0 0 101.4 33.5" xmlns="http://www.w3.org/2000/svg"><path d="m94.7 10.6-5.6-1.3-1-.4-25.7.2v12.4l32.3.1z" fill="#fff"/><path d="m84.2 20.4a2.85546 2.85546 0 0 0 -.3-2.6 3.09428 3.09428 0 0 0 -2.1-1.1l-17.4-.2c-.1 0-.2-.1-.3-.1a.1875.1875 0 0 1 0-.3c.1-.2.2-.3.4-.3l17.5-.2a6.29223 6.29223 0 0 0 5.1-3.8l1-2.6c0-.1.1-.2 0-.3a11.39646 11.39646 0 0 0 -21.9-1.2 5.45941 5.45941 0 0 0 -3.6-1 5.20936 5.20936 0 0 0 -4.6 4.6 5.46262 5.46262 0 0 0 .1 1.8 7.30177 7.30177 0 0 0 -7.1 7.3 4.102 4.102 0 0 0 .1 1.1.3193.3193 0 0 0 .3.3h32.1c.2 0 .4-.1.4-.3z" fill="#f48120"/><path d="m89.7 9.2h-.5c-.1 0-.2.1-.3.2l-.7 2.4a2.85546 2.85546 0 0 0 .3 2.6 3.09428 3.09428 0 0 0 2.1 1.1l3.7.2c.1 0 .2.1.3.1a.1875.1875 0 0 1 0 .3c-.1.2-.2.3-.4.3l-3.8.2a6.29223 6.29223 0 0 0 -5.1 3.8l-.2.9c-.1.1 0 .3.2.3h13.2a.26517.26517 0 0 0 .3-.3 10.87184 10.87184 0 0 0 .4-2.6 9.56045 9.56045 0 0 0 -9.5-9.5" fill="#faad3f"/><path d="m100.5 27.2a.9.9 0 1 1 .9-.9.89626.89626 0 0 1 -.9.9m0-1.6a.7.7 0 1 0 .7.7.68354.68354 0 0 0 -.7-.7m.4 1.2h-.2l-.2-.3h-.2v.3h-.2v-.9h.5a.26517.26517 0 0 1 .3.3c0 .1-.1.2-.2.3zm-.3-.5c.1 0 .1 0 .1-.1a.09794.09794 0 0 0 -.1-.1h-.3v.3h.3zm-89.7-.9h2.2v6h3.8v1.9h-6zm8.3 3.9a4.10491 4.10491 0 0 1 4.3-4.1 4.02 4.02 0 0 1 4.2 4.1 4.10491 4.10491 0 0 1 -4.3 4.1 4.07888 4.07888 0 0 1 -4.2-4.1m6.3 0a2.05565 2.05565 0 0 0 -2-2.2 2.1025 2.1025 0 0 0 0 4.2c1.2.2 2-.8 2-2m4.9.5v-4.4h2.2v4.4c0 1.1.6 1.7 1.5 1.7a1.39926 1.39926 0 0 0 1.5-1.6v-4.5h2.2v4.4c0 2.6-1.5 3.7-3.7 3.7-2.3-.1-3.7-1.2-3.7-3.7m10.7-4.4h3.1c2.8 0 4.5 1.6 4.5 3.9s-1.7 4-4.5 4h-3v-7.9zm3.1 5.9a2.00909 2.00909 0 1 0 0-4h-.9v4zm7.6-5.9h6.3v1.9h-4.1v1.3h3.7v1.8h-3.7v2.9h-2.2zm9.4 0h2.2v6h3.8v1.9h-6zm11.7-.1h2.2l3.4 8h-2.4l-.6-1.4h-3.1l-.6 1.4h-2.3zm2 4.9-.9-2.2-.9 2.2zm6.4-4.8h3.7a3.41818 3.41818 0 0 1 2.6.9 2.62373 2.62373 0 0 1 -.9 4.2l1.9 2.8h-2.5l-1.6-2.4h-1v2.4h-2.2zm3.6 3.8c.7 0 1.2-.4 1.2-.9 0-.6-.5-.9-1.2-.9h-1.4v1.9h1.4zm6.5-3.8h6.4v1.8h-4.2v1.2h3.8v1.8h-3.8v1.2h4.3v1.9h-6.5zm-85.3 4.9a1.97548 1.97548 0 0 1 -1.8 1.2 2.1025 2.1025 0 0 1 0-4.2 2.0977 2.0977 0 0 1 1.9 1.3h2.3a4.13459 4.13459 0 0 0 -4.2-3.3 4.1651 4.1651 0 0 0 -4.3 4.1 4.07888 4.07888 0 0 0 4.2 4.1 4.31812 4.31812 0 0 0 4.2-3.2z" fill="#404041"/></svg>