<svg xmlns="http://www.w3.org/2000/svg" viewBox="0 0 80 80"><defs><style>.b{fill:#fff}</style></defs><path fill="#092e20" d="M0-.11h80.11V80H0z"/><path class="b" d="M13.8 28.24h3.79v17.54a25 25 0 01-4.92.52c-4.63 0-7-2.09-7-6.1s2.56-6.38 6.52-6.38a6 6 0 011.65.2v-5.78zm0 8.83a3.69 3.69 0 00-1.28-.2c-1.92 0-3 1.18-3 3.25s1.06 3.13 3 3.13a9.45 9.45 0 001.31-.1z"/><path class="b" d="M23.61 34.09v8.79c0 3-.22 4.47-.88 5.73a6.08 6.08 0 01-3.1 2.8l-3.52-1.67a5.5 5.5 0 003-2.53c.54-1.09.72-2.34.72-5.64v-7.48zm-3.78-5.83h3.78v3.89h-3.78zM25.9 35a11.38 11.38 0 015-1.14c1.94 0 3.22.52 3.79 1.53a5.81 5.81 0 01.42 2.88v7.7a42.84 42.84 0 01-5.41.42c-3.18 0-4.61-1.11-4.61-3.57 0-2.66 1.9-3.89 6.55-4.28v-.84c0-.69-.35-.93-1.31-.93a10 10 0 00-4.45 1.15V35zm5.93 6c-2.51.25-3.32.64-3.32 1.63 0 .73.47 1.08 1.5 1.08a10.7 10.7 0 001.82-.17V41zM37 34.68a22.79 22.79 0 016-.86 5.68 5.68 0 014.18 1.31c.79.81 1 1.69 1 3.59v7.43h-3.83v-7.28c0-1.45-.49-2-1.84-2a5.74 5.74 0 00-1.75.27v9H37V34.68zm12.61 13.54a8.73 8.73 0 004.06 1c2.49 0 3.55-1 3.55-3.42v-.07a5.19 5.19 0 01-2.46.52c-3.33 0-5.44-2.19-5.44-5.66 0-4.31 3.12-6.74 8.66-6.74a23.82 23.82 0 014.94.54l-1.29 2.73c-1-.19-.09 0-.85-.1v6.61c0 3.25-.28 4.78-1.09 6-1.18 1.85-3.22 2.76-6.12 2.76a11 11 0 01-4.09-.74v-3.43zm7.53-11.32h-.39a4.08 4.08 0 00-2.19.54 2.94 2.94 0 00-1.38 2.78c0 1.89.94 3 2.61 3a4.67 4.67 0 001.43-.22v-6.1zm11.66-3.13c3.79 0 6.11 2.39 6.11 6.25s-2.42 6.45-6.25 6.45-6.13-2.39-6.13-6.23 2.41-6.47 6.27-6.47zm-.07 9.65c1.45 0 2.31-1.21 2.31-3.3s-.83-3.3-2.28-3.3-2.37 1.21-2.37 3.3.86 3.3 2.34 3.3z"/></svg>