<svg enable-background="new 0 0 800 300" viewBox="0 0 800 300" xmlns="http://www.w3.org/2000/svg"><g fill="#333"><path d="m241.8 69.6h111.7c1.9 0 3.3 1.7 3 3.5l-4.7 27.9c-.2 1.4-1.5 2.5-3 2.5h-71c-1.5 0-2.7 1.1-3 2.5l-4.8 29.4c-.3 1.8 1.1 3.5 3 3.5h61.5c1.9 0 3.3 1.7 3 3.5l-4.7 28c-.2 1.4-1.5 2.5-3 2.5h-63.5c-1.5 0-2.7 1.1-3 2.5l-10.6 64.3c-.2 1.4-1.5 2.5-3 2.5h-35.6c-1.9 0-3.3-1.7-3-3.5l27.7-166.7c.3-1.4 1.5-2.4 3-2.4z"/><path d="m361.5 112.7h35.1c1.9 0 3.3 1.7 3 3.5l-20.5 123.5c-.2 1.4-1.5 2.5-3 2.5h-35.1c-1.9 0-3.3-1.7-3-3.5l20.5-123.5c.3-1.4 1.6-2.5 3-2.5zm2.5-34.9c1.7-10.8 12.4-19.6 24-19.6s19.9 8.8 18.4 19.6-12.2 19.7-23.9 19.7-20.1-8.9-18.5-19.7z"/><path d="m424.2 69.6h35.1c1.9 0 3.3 1.7 3 3.5l-10.1 61.8h.9c6.7-11.9 20.1-23.8 40.6-23.8 27.1 0 48 20.8 40.4 66.5-7.3 44.1-34.2 66.5-62.9 66.5-19.1 0-28.9-10.4-32.2-22.1-.1-.4-.5-.7-1-.7-.5 0-.9.4-1 .8l-2.8 17.6c-.2 1.5-1.5 2.5-3 2.5h-34.7c-1.9 0-3.3-1.7-3-3.5l27.6-166.6c.3-1.5 1.6-2.5 3.1-2.5zm38.1 142.4c15.2 0 26-13.6 29.3-34.5s-2.7-34.2-18-34.2c-15.1 0-26.1 13.1-29.5 34.2-3.4 21 3.1 34.5 18.2 34.5z"/><path d="m538.8 178c6.7-40.1 36.3-66.9 75.3-66.9 36.8 0 58.7 23.5 51.6 66.1l-1.4 8.7c-.1.9-.9 1.5-1.8 1.5h-83.1c-.9 0-1.7.6-1.8 1.5-2.6 16.4 5.1 26 21.2 26 10.3 0 19.3-4.2 24.2-12.3.3-.6 1-.9 1.6-.9l33.9 1c1.3 0 2.1 1.3 1.6 2.5-9.9 24.1-34 39.4-67.1 39.4-40.5.1-61.2-25.2-54.2-66.6zm89.2-14.5c.9 0 1.7-.7 1.8-1.7 1.2-12.4-6.6-21-19.5-21-12.5 0-23.6 8.7-27.4 20.3-.4 1.2.5 2.4 1.8 2.4z"/><path d="m688.3 112.7h33.9c1.9 0 3.3 1.7 3 3.5l-3.4 20.1h1.3c7.7-17.1 20.4-25.3 34.5-25.3 2.8 0 5.6.3 8.4.8 1.6.3 2.7 1.8 2.4 3.5l-5 29.8c-.3 1.7-1.9 2.8-3.6 2.4-3.8-.9-8.9-1.3-12.9-1.3-14.6 0-27.2 10.4-29.9 25.8l-11.2 67.8c-.2 1.4-1.5 2.5-3 2.5h-35.1c-1.9 0-3.3-1.7-3-3.5l20.6-123.5c.3-1.5 1.6-2.6 3-2.6z"/></g><path d="m210.2 115.4h-129.4c-1 0-1.9.5-2.5 1.3l-6.5 9.3c-1.4 2 0 4.7 2.5 4.7l134.4-.1c1.5 0 2.7-1.1 3-2.5l1.5-9.2c.3-1.8-1.1-3.5-3-3.5z" fill="#00acd7"/><path d="m205.5 147.1h-169c-1 0-1.9.5-2.4 1.2l-6.7 9.2c-1.4 2 0 4.8 2.4 4.8l174.2-.1c1.5 0 2.7-1.1 3-2.5l1.5-9.1c.2-1.9-1.2-3.5-3-3.5z" fill="#00acd7"/><path d="m200.7 178.7h-69.2c-1 0-2 .5-2.5 1.4l-6.1 9.3c-1.3 2 .1 4.6 2.5 4.6l73.8-.1c1.5 0 2.7-1.1 3-2.5l1.5-9.2c.3-1.8-1.1-3.5-3-3.5z" fill="#00acd7"/></svg>