<svg viewBox="0 0 80 80" xmlns="http://www.w3.org/2000/svg" xmlns:xlink="http://www.w3.org/1999/xlink"><linearGradient id="a" gradientUnits="userSpaceOnUse" x1="70.29" x2="53.41" y1="87.14" y2="57.34"><stop offset="0" stop-color="#f68f71"/><stop offset=".41" stop-color="#dc5242"/><stop offset=".99" stop-color="#a72c32"/><stop offset="1" stop-color="#a72c32"/></linearGradient><linearGradient id="b" gradientUnits="userSpaceOnUse" x1="78.69" x2="56.94" y1="62.11" y2="47.52"><stop offset="0" stop-color="#9b3f34"/><stop offset=".99" stop-color="#a23e36"/><stop offset="1" stop-color="#a23e36"/></linearGradient><linearGradient id="c" x1="61.29" x2="39.54" xlink:href="#b" y1="88.05" y2="73.45"/><linearGradient id="d" gradientUnits="userSpaceOnUse" x1="15.62" x2="19" y1="51.55" y2="73.46"><stop offset="0" stop-color="#fff"/><stop offset=".23" stop-color="#e28b6f"/><stop offset=".46" stop-color="#da6144"/><stop offset=".99" stop-color="#a60003"/><stop offset="1" stop-color="#a60003"/></linearGradient><linearGradient id="e" gradientUnits="userSpaceOnUse" x1="38.82" x2="40.06" y1="31.08" y2="53.45"><stop offset="0" stop-color="#fff"/><stop offset=".23" stop-color="#e08a6d"/><stop offset=".56" stop-color="#c14435"/><stop offset=".99" stop-color="#b13430"/><stop offset="1" stop-color="#b13430"/></linearGradient><linearGradient id="f" gradientUnits="userSpaceOnUse" x1="59.4" x2="63.12" y1="10.42" y2="26.44"><stop offset="0" stop-color="#fff"/><stop offset=".18" stop-color="#df8063"/><stop offset=".4" stop-color="#c94d37"/><stop offset=".99" stop-color="#b13430"/><stop offset="1" stop-color="#b13430"/></linearGradient><linearGradient id="g" gradientUnits="userSpaceOnUse" x1="48.04" x2="64.07" y1="4.77" y2="-3.24"><stop offset="0" stop-color="#fff"/><stop offset=".54" stop-color="#c94838"/><stop offset=".99" stop-color="#c12d2f"/><stop offset="1" stop-color="#c12d2f"/></linearGradient><linearGradient id="h" gradientUnits="userSpaceOnUse" x1="1.58" x2="2.9" y1="45.96" y2="59.17"><stop offset="0" stop-color="#fff"/><stop offset=".31" stop-color="#da6548"/><stop offset=".99" stop-color="#c14433"/><stop offset="1" stop-color="#c14433"/></linearGradient><linearGradient id="i" gradientUnits="userSpaceOnUse" x1="-7.49" x2="54.52" y1="62.74" y2="-1.02"><stop offset="0" stop-color="#bd0012"/><stop offset=".07" stop-color="#fff"/><stop offset=".17" stop-color="#fff"/><stop offset=".27" stop-color="#c95841"/><stop offset=".33" stop-color="#983734"/><stop offset=".46" stop-color="#ae4231"/><stop offset=".72" stop-color="#b93e2f"/><stop offset=".99" stop-color="#de4e2b"/><stop offset="1" stop-color="#de4e2b"/></linearGradient><linearGradient id="j" gradientUnits="userSpaceOnUse" x1="40" x2="21.33" y1="69.17" y2="64.56"><stop offset="0" stop-color="#9f3633"/><stop offset=".54" stop-color="#a73532"/><stop offset=".99" stop-color="#b13439"/><stop offset="1" stop-color="#b13439"/></linearGradient><linearGradient id="k" gradientUnits="userSpaceOnUse" x1="72.08" x2="55.49" y1="46.75" y2="31.88"><stop offset="0" stop-color="#923c36"/><stop offset=".99" stop-color="#aa3531"/><stop offset="1" stop-color="#aa3531"/></linearGradient><linearGradient id="l" gradientUnits="userSpaceOnUse" x1="78.18" x2="69.91" y1="19.47" y2="10.63"><stop offset="0" stop-color="#8d3e36"/><stop offset=".99" stop-color="#aa3e37"/><stop offset="1" stop-color="#aa3e37"/></linearGradient><linearGradient id="m" gradientUnits="userSpaceOnUse" x1="10.77" x2="4.03" y1="79.79" y2="56.94"><stop offset="0" stop-color="#994939"/><stop offset=".43" stop-color="#aa3a36"/><stop offset=".99" stop-color="#b83936"/><stop offset="1" stop-color="#b83936"/></linearGradient><linearGradient id="n" gradientUnits="userSpaceOnUse" x1="62.44" x2="77.54" y1="4.07" y2="10.73"><stop offset="0" stop-color="#b9392f"/><stop offset=".44" stop-color="#a23a36"/><stop offset=".99" stop-color="#8d463a"/><stop offset="1" stop-color="#8d463a"/></linearGradient><radialGradient id="o" cx="58.08" cy="32.17" gradientUnits="userSpaceOnUse" r="20.33"><stop offset="0" stop-color="#b13430"/><stop offset=".99" stop-color="#923934"/><stop offset="1" stop-color="#923934"/></radialGradient><radialGradient id="p" cx="29.92" cy="58.96" gradientUnits="userSpaceOnUse" r="27.03"><stop offset="0" stop-color="#ae3531"/><stop offset=".99" stop-color="#953a36"/><stop offset="1" stop-color="#953a36"/></radialGradient><g fill-rule="evenodd"><path d="m16.3 79.89 59.14-4.01 4.56-59.64-18.02 36.53z" fill="url(#a)"/><path d="m56.61 59.03 18.93 16.8-5.08-35.08z" fill="url(#b)"/><path d="m16.5 79.81 59.11-3.98-37.24-2.92z" fill="url(#c)"/><path d="m5.39 53.72 11.16 26.1 9.31-30.48z" fill="url(#d)"/><path d="m23.55 48.57 33.06 10.56-8.56-33.52z" fill="url(#e)"/><path d="m48.45 28.01 29.61-1.93-23.16-18.91z" fill="url(#f)"/><path d="m45.02.32 22.21.1-13.62 7.53z" fill="url(#g)"/><path d="m1.09 41.14-1.09 22.8 5.71-10.4z" fill="url(#h)"/><path d="m.78 40.75 4.65 13.17 20.17-4.52 23.04-21.4 6.5-20.65-10.24-7.24-17.4 6.51c-5.5 5.1-16.12 15.19-16.5 15.38s-7 12.76-10.22 18.75z" fill="#fff"/><path d="m17.09 17.09c11.91-11.78 27.2-18.74 33.08-12.81s-.36 20.34-12.24 32.12-27.01 19.13-32.93 13.19.2-20.72 12.09-32.5z" fill="url(#i)"/><path d="m16.55 79.81 9.24-30.58 30.65 9.85c-11.08 10.4-23.44 19.18-39.89 20.73z" fill="url(#j)"/><path d="m48.68 27.93 7.87 31.17c9.26-9.74 17.57-20.2 21.64-33.1z" fill="url(#k)"/><path d="m78.11 26.11c3.15-9.5 3.89-23.11-10.98-25.67l-12.13 6.73z" fill="url(#l)"/><path d="m0 63.81c.44 15.68 11.75 15.92 16.57 16l-11.13-26z" fill="#aa3e35"/><path d="m48.72 28c7.12 4.37 21.46 13.15 21.75 13.31.45.26 6.18-9.66 7.48-15.26z" fill="url(#o)"/><path d="m25.77 49.23 12.34 23.77a79.82 79.82 0 0 0 18.24-13.9z" fill="url(#p)"/><path d="m5.39 53.89-1.75 20.82c3.3 4.5 7.84 4.9 12.6 4.55-3.44-8.58-10.32-25.72-10.85-25.37z" fill="url(#m)"/><path d="m54.87 7.22 24.52 3.44c-1.31-5.54-5.33-9.12-12.18-10.24z" fill="url(#n)"/></g></svg>