<svg xmlns="http://www.w3.org/2000/svg" viewBox="0 0 80 80"><defs><style>.a{fill:#2dbcaf}</style></defs><path class="a" d="M6 34.11c-.16 0-.2-.08-.12-.2l.82-1a.55.55 0 01.43-.2h13.9c.16 0 .2.12.12.24l-.66 1a.6.6 0 01-.39.23zM.16 37.69c-.16 0-.2-.08-.12-.2l.82-1.05a.56.56 0 01.43-.19h17.76c.15 0 .23.11.19.23l-.31.94a.34.34 0 01-.35.23zm9.42 3.58c-.15 0-.19-.11-.11-.23l.54-1a.51.51 0 01.39-.24h7.79c.16 0 .23.12.23.27l-.07.94a.3.3 0 01-.28.27zM50 33.4c-2.45.63-4.13 1.1-6.54 1.72-.59.15-.62.19-1.13-.39a5.18 5.18 0 00-1.83-1.48 6.77 6.77 0 00-7 .58 8.29 8.29 0 00-4 7.4 6.1 6.1 0 005.25 6.12 7.22 7.22 0 006.63-2.57c.35-.43.66-.9 1.05-1.44H34.9c-.82 0-1-.51-.74-1.17.51-1.21 1.44-3.23 2-4.25a1 1 0 011-.62H51.3c-.08 1.05-.08 2.1-.24 3.15a16.56 16.56 0 01-3.19 7.64 16.21 16.21 0 01-11.1 6.62 13.78 13.78 0 01-10.48-2.57 12.24 12.24 0 01-4.95-8.65 15.33 15.33 0 013.32-11.41 17.28 17.28 0 0110.9-6.74 13.43 13.43 0 0110.32 1.91 12.13 12.13 0 014.52 5.49c.24.35.08.55-.4.66z"/><path class="a" d="M62.91 54.94a14.61 14.61 0 01-9.51-3.42A12.24 12.24 0 0149.19 44a14.86 14.86 0 013.16-11.76 16.33 16.33 0 0110.91-6.51c4-.7 7.71-.31 11.1 2a12.14 12.14 0 015.49 8.68 15.06 15.06 0 01-4.48 13.21 17.85 17.85 0 01-9.35 5c-1.02.17-2.1.21-3.11.32zm9.27-15.73a10.94 10.94 0 00-.12-1.29 6.43 6.43 0 00-8-5.18 8.5 8.5 0 00-6.81 6.78 6.41 6.41 0 003.58 7.36 7.13 7.13 0 006.35-.23 8.54 8.54 0 005-7.44z"/></svg>