<svg xmlns="http://www.w3.org/2000/svg" width="0.78em" height="1em" viewBox="0 0 256 330"><path fill="#ff5b11" d="M134.129.029q1.315-.17 2.319.662a1256 1256 0 0 1 69.573 93.427q24.141 36.346 41.082 76.862q27.055 72.162-28.16 125.564q-48.313 40.83-111.318 31.805q-75.312-15.355-102.373-87.133Q-1.796 217.85.614 193.51q4.014-41.896 19.878-80.838q6.61-15.888 17.228-29.154a382 382 0 0 1 16.565 21.203q3.66 3.825 7.62 7.289Q92.138 52.013 134.13.029" opacity="0.993"/><path fill="#ff9758" d="M129.49 53.7q36.47 42.3 65.93 90.114a187.3 187.3 0 0 1 15.24 33.13q12.507 49.206-26.836 81.169q-38.05 26.774-83.488 15.902q-48.999-15.205-56.653-65.929q-1.857-15.993 3.314-31.142a225.4 225.4 0 0 1 17.89-35.78l19.878-29.155a5510 5510 0 0 0 44.726-58.31"/></svg>
