<svg width="367" height="91" viewBox="0 0 367 91" fill="none" xmlns="http://www.w3.org/2000/svg">
<path d="M23.8909 24.54C26.7109 24.54 29.1109 25.05 31.0909 26.07C33.1309 27.03 34.7809 28.32 36.0409 29.94C37.3609 31.56 38.3209 33.42 38.9209 35.52C39.5209 37.62 39.8209 39.78 39.8209 42V69H29.0209V45.24C29.0209 43.98 28.9309 42.69 28.7509 41.37C28.5709 39.99 28.1809 38.76 27.5809 37.68C27.0409 36.54 26.2309 35.61 25.1509 34.89C24.1309 34.17 22.7509 33.81 21.0109 33.81C19.2709 33.81 17.7709 34.14 16.5109 34.8C15.2509 35.46 14.2009 36.36 13.3609 37.5C12.5209 38.58 11.8909 39.81 11.4709 41.19C11.0509 42.57 10.8409 43.98 10.8409 45.42V69H0.0408595V0.959996H10.8409V31.83H11.0209C11.4409 30.93 12.0409 30.06 12.8209 29.22C13.6609 28.32 14.6209 27.54 15.7009 26.88C16.7809 26.16 18.0109 25.59 19.3909 25.17C20.7709 24.75 22.2709 24.54 23.8909 24.54ZM52.5995 25.8H63.3995V69H52.5995V25.8ZM51.0695 11.13C51.0695 9.39 51.6995 7.89 52.9595 6.63C54.2795 5.31 55.9295 4.65 57.9095 4.65C59.8895 4.65 61.5395 5.28 62.8595 6.54C64.2395 7.74 64.9295 9.27 64.9295 11.13C64.9295 12.99 64.2395 14.55 62.8595 15.81C61.5395 17.01 59.8895 17.61 57.9095 17.61C55.9295 17.61 54.2795 16.98 52.9595 15.72C51.6995 14.4 51.0695 12.87 51.0695 11.13ZM120.421 25.8V65.13C120.421 69.03 119.941 72.54 118.981 75.66C118.021 78.84 116.521 81.51 114.481 83.67C112.501 85.89 109.981 87.6 106.921 88.8C103.861 90 100.231 90.6 96.0315 90.6C94.2915 90.6 92.4315 90.45 90.4515 90.15C88.5315 89.85 86.6115 89.4 84.6915 88.8C82.8315 88.2 81.0315 87.45 79.2915 86.55C77.5515 85.65 75.9915 84.63 74.6115 83.49L80.8215 75.12C82.9215 77.1 85.2915 78.6 87.9315 79.62C90.5715 80.7 93.2415 81.24 95.9415 81.24C98.5215 81.24 100.681 80.85 102.421 80.07C104.221 79.35 105.631 78.33 106.651 77.01C107.731 75.69 108.481 74.13 108.901 72.33C109.381 70.53 109.621 68.55 109.621 66.39V63.24H109.441C107.881 65.34 105.871 66.96 103.411 68.1C101.011 69.18 98.3115 69.72 95.3115 69.72C92.0715 69.72 89.1315 69.12 86.4915 67.92C83.8515 66.72 81.6015 65.1 79.7415 63.06C77.9415 61.02 76.5315 58.65 75.5115 55.95C74.4915 53.19 73.9815 50.28 73.9815 47.22C73.9815 44.1 74.4615 41.16 75.4215 38.4C76.4415 35.64 77.8515 33.24 79.6515 31.2C81.5115 29.16 83.7315 27.54 86.3115 26.34C88.9515 25.14 91.8915 24.54 95.1315 24.54C98.1915 24.54 101.041 25.17 103.681 26.43C106.321 27.69 108.421 29.64 109.981 32.28H110.161V25.8H120.421ZM97.3815 33.36C95.4015 33.36 93.6315 33.72 92.0715 34.44C90.5715 35.16 89.2815 36.15 88.2015 37.41C87.1815 38.61 86.3715 40.05 85.7715 41.73C85.2315 43.41 84.9615 45.21 84.9615 47.13C84.9615 48.87 85.2315 50.55 85.7715 52.17C86.3715 53.79 87.1815 55.26 88.2015 56.58C89.2815 57.84 90.5715 58.86 92.0715 59.64C93.6315 60.42 95.3715 60.81 97.2915 60.81C99.2715 60.81 101.041 60.45 102.601 59.73C104.221 58.95 105.571 57.93 106.651 56.67C107.791 55.41 108.661 53.97 109.261 52.35C109.861 50.67 110.161 48.93 110.161 47.13C110.161 45.27 109.861 43.5 109.261 41.82C108.661 40.14 107.791 38.67 106.651 37.41C105.571 36.15 104.251 35.16 102.691 34.44C101.131 33.72 99.3615 33.36 97.3815 33.36ZM157.397 24.54C160.217 24.54 162.617 25.05 164.597 26.07C166.637 27.03 168.287 28.32 169.547 29.94C170.867 31.56 171.827 33.42 172.427 35.52C173.027 37.62 173.327 39.78 173.327 42V69H162.527V45.24C162.527 43.98 162.437 42.69 162.257 41.37C162.077 39.99 161.687 38.76 161.087 37.68C160.547 36.54 159.737 35.61 158.657 34.89C157.637 34.17 156.257 33.81 154.517 33.81C152.777 33.81 151.277 34.14 150.017 34.8C148.757 35.46 147.707 36.36 146.867 37.5C146.027 38.58 145.397 39.81 144.977 41.19C144.557 42.57 144.347 43.98 144.347 45.42V69H133.547V0.959996H144.347V31.83H144.527C144.947 30.93 145.547 30.06 146.327 29.22C147.167 28.32 148.127 27.54 149.207 26.88C150.287 26.16 151.517 25.59 152.897 25.17C154.277 24.75 155.777 24.54 157.397 24.54ZM186.105 0.959996H196.905V69H186.105V0.959996ZM210.187 25.8H220.987V69H210.187V25.8ZM208.657 11.13C208.657 9.39 209.287 7.89 210.547 6.63C211.867 5.31 213.517 4.65 215.497 4.65C217.477 4.65 219.127 5.28 220.447 6.54C221.827 7.74 222.517 9.27 222.517 11.13C222.517 12.99 221.827 14.55 220.447 15.81C219.127 17.01 217.477 17.61 215.497 17.61C213.517 17.61 211.867 16.98 210.547 15.72C209.287 14.4 208.657 12.87 208.657 11.13ZM278.009 25.8V65.13C278.009 69.03 277.529 72.54 276.569 75.66C275.609 78.84 274.109 81.51 272.069 83.67C270.089 85.89 267.569 87.6 264.509 88.8C261.449 90 257.819 90.6 253.619 90.6C251.879 90.6 250.019 90.45 248.039 90.15C246.119 89.85 244.199 89.4 242.279 88.8C240.419 88.2 238.619 87.45 236.879 86.55C235.139 85.65 233.579 84.63 232.199 83.49L238.409 75.12C240.509 77.1 242.879 78.6 245.519 79.62C248.159 80.7 250.829 81.24 253.529 81.24C256.109 81.24 258.269 80.85 260.009 80.07C261.809 79.35 263.219 78.33 264.239 77.01C265.319 75.69 266.069 74.13 266.489 72.33C266.969 70.53 267.209 68.55 267.209 66.39V63.24H267.029C265.469 65.34 263.459 66.96 260.999 68.1C258.599 69.18 255.899 69.72 252.899 69.72C249.659 69.72 246.719 69.12 244.079 67.92C241.439 66.72 239.189 65.1 237.329 63.06C235.529 61.02 234.119 58.65 233.099 55.95C232.079 53.19 231.569 50.28 231.569 47.22C231.569 44.1 232.049 41.16 233.009 38.4C234.029 35.64 235.439 33.24 237.239 31.2C239.099 29.16 241.319 27.54 243.899 26.34C246.539 25.14 249.479 24.54 252.719 24.54C255.779 24.54 258.629 25.17 261.269 26.43C263.909 27.69 266.009 29.64 267.569 32.28H267.749V25.8H278.009ZM254.969 33.36C252.989 33.36 251.219 33.72 249.659 34.44C248.159 35.16 246.869 36.15 245.789 37.41C244.769 38.61 243.959 40.05 243.359 41.73C242.819 43.41 242.549 45.21 242.549 47.13C242.549 48.87 242.819 50.55 243.359 52.17C243.959 53.79 244.769 55.26 245.789 56.58C246.869 57.84 248.159 58.86 249.659 59.64C251.219 60.42 252.959 60.81 254.879 60.81C256.859 60.81 258.629 60.45 260.189 59.73C261.809 58.95 263.159 57.93 264.239 56.67C265.379 55.41 266.249 53.97 266.849 52.35C267.449 50.67 267.749 48.93 267.749 47.13C267.749 45.27 267.449 43.5 266.849 41.82C266.249 40.14 265.379 38.67 264.239 37.41C263.159 36.15 261.839 35.16 260.279 34.44C258.719 33.72 256.949 33.36 254.969 33.36ZM314.985 24.54C317.805 24.54 320.205 25.05 322.185 26.07C324.225 27.03 325.875 28.32 327.135 29.94C328.455 31.56 329.415 33.42 330.015 35.52C330.615 37.62 330.915 39.78 330.915 42V69H320.115V45.24C320.115 43.98 320.025 42.69 319.845 41.37C319.665 39.99 319.275 38.76 318.675 37.68C318.135 36.54 317.325 35.61 316.245 34.89C315.225 34.17 313.845 33.81 312.105 33.81C310.365 33.81 308.865 34.14 307.605 34.8C306.345 35.46 305.295 36.36 304.455 37.5C303.615 38.58 302.985 39.81 302.565 41.19C302.145 42.57 301.935 43.98 301.935 45.42V69H291.135V0.959996H301.935V31.83H302.115C302.535 30.93 303.135 30.06 303.915 29.22C304.755 28.32 305.715 27.54 306.795 26.88C307.875 26.16 309.105 25.59 310.485 25.17C311.865 24.75 313.365 24.54 314.985 24.54ZM337.303 34.44V25.8H344.863V13.29H355.483V25.8H366.283V34.44H355.483V54.51C355.483 56.43 355.813 58.02 356.473 59.28C357.193 60.54 358.753 61.17 361.153 61.17C361.873 61.17 362.653 61.11 363.493 60.99C364.333 60.81 365.083 60.57 365.743 60.27L366.103 68.73C365.143 69.09 364.003 69.36 362.683 69.54C361.363 69.78 360.103 69.9 358.903 69.9C356.023 69.9 353.683 69.51 351.883 68.73C350.083 67.89 348.643 66.78 347.563 65.4C346.543 63.96 345.823 62.34 345.403 60.54C345.043 58.68 344.863 56.7 344.863 54.6V34.44H337.303Z" fill="white"/>
</svg>
