<svg width="377" height="96" viewBox="0 0 377 96" fill="current" xmlns="http://www.w3.org/2000/svg">
<circle cx="80.2861" cy="47.7007" r="26.197" fill="current"/>
<circle cx="73.868" cy="39.1863" r="5.89433" fill="black"/>
<path d="M42.6329 48.5063C42.6329 51.1392 42.3291 53.9072 41.7215 56.8101C41.1814 59.7131 40.135 62.4135 38.5823 64.9114C37.0295 67.4093 34.8354 69.4684 32 71.0886C29.1646 72.7089 25.519 73.519 21.0633 73.519C15.2574 73.519 10.5992 72.0675 7.08861 69.1646C3.64557 66.2616 1.2827 62.4473 0 57.7215L11.7468 54.3797C12.3544 56.7426 13.4684 58.6329 15.0886 60.0506C16.7089 61.4008 18.6329 62.0759 20.8608 62.0759C22.6835 62.0759 24.1688 61.7384 25.3165 61.0633C26.5316 60.3882 27.443 59.443 28.0506 58.2278C28.7257 56.9451 29.1983 55.4599 29.4684 53.7721C29.7384 52.0169 29.8734 50.1266 29.8734 48.1013V0H42.6329V48.5063Z" fill="current"/>
<path d="M163.382 71.6962H151.838V63.8987H151.635C150.555 66.3291 148.665 68.4894 145.964 70.3797C143.331 72.2025 140.192 73.1139 136.547 73.1139C133.374 73.1139 130.64 72.5738 128.344 71.4937C126.116 70.346 124.26 68.8608 122.775 67.038C121.357 65.2152 120.31 63.1224 119.635 60.7595C118.96 58.3966 118.623 55.9662 118.623 53.4684V23.0886H130.775V50.0253C130.775 51.443 130.876 52.9283 131.078 54.481C131.281 56.0338 131.72 57.4515 132.395 58.7342C133.07 59.9494 133.981 60.962 135.129 61.7721C136.344 62.5823 137.931 62.9873 139.888 62.9873C141.779 62.9873 143.433 62.616 144.85 61.8734C146.336 61.0633 147.517 60.0506 148.395 58.8354C149.34 57.6203 150.049 56.2363 150.521 54.6835C150.994 53.0633 151.23 51.443 151.23 49.8228V23.0886H163.382V71.6962Z" fill="current"/>
<path d="M177.968 23.0886H189.613V31.1899H189.816C191.166 28.3544 193.056 26.0591 195.487 24.3038C197.917 22.5485 200.752 21.6709 203.993 21.6709C204.465 21.6709 204.972 21.7046 205.512 21.7721C206.052 21.7721 206.525 21.8397 206.93 21.9747V33.1139C206.119 32.9114 205.411 32.7764 204.803 32.7089C204.263 32.6413 203.723 32.6076 203.183 32.6076C200.415 32.6076 198.187 33.1139 196.499 34.1266C194.811 35.1392 193.495 36.3544 192.55 37.7721C191.605 39.1899 190.963 40.6413 190.626 42.1266C190.288 43.6118 190.119 44.7932 190.119 45.6709V71.6962H177.968V23.0886Z" fill="current"/>
<path d="M214.854 23.0886H226.399V30.8861H226.601C227.681 28.4557 229.538 26.3291 232.171 24.5063C234.871 22.616 238.044 21.6709 241.69 21.6709C244.863 21.6709 247.563 22.2447 249.791 23.3924C252.087 24.4726 253.943 25.924 255.361 27.7468C256.846 29.5696 257.926 31.6624 258.601 34.0253C259.276 36.3882 259.614 38.8186 259.614 41.3165V71.6962H247.462V44.7595C247.462 43.3418 247.361 41.8565 247.158 40.3038C246.956 38.7511 246.517 37.3671 245.842 36.1519C245.167 34.8692 244.222 33.8228 243.006 33.0127C241.859 32.2025 240.306 31.7975 238.348 31.7975C236.39 31.7975 234.703 32.2025 233.285 33.0127C231.867 33.7553 230.686 34.7342 229.741 35.9494C228.863 37.1646 228.188 38.5823 227.715 40.2025C227.243 41.7553 227.006 43.3418 227.006 44.962V71.6962H214.854V23.0886Z" fill="current"/>
<path d="M308.022 42.5316C308.022 40.9789 307.786 39.4937 307.313 38.0759C306.908 36.6582 306.233 35.4093 305.288 34.3291C304.343 33.2489 303.128 32.4051 301.642 31.7975C300.225 31.1224 298.537 30.7848 296.579 30.7848C292.934 30.7848 289.828 31.8987 287.263 34.1266C284.765 36.2869 283.381 39.0886 283.111 42.5316H308.022ZM320.174 48C320.174 48.5401 320.174 49.0802 320.174 49.6203C320.174 50.1603 320.14 50.7004 320.073 51.2405H283.111C283.246 52.9958 283.685 54.616 284.427 56.1013C285.237 57.519 286.284 58.7679 287.566 59.8481C288.849 60.8608 290.301 61.6709 291.921 62.2785C293.541 62.8861 295.229 63.1899 296.984 63.1899C300.022 63.1899 302.588 62.6498 304.68 61.5696C306.773 60.4219 308.495 58.8692 309.845 56.9114L317.946 63.3924C313.153 69.8734 306.199 73.1139 297.085 73.1139C293.305 73.1139 289.828 72.5401 286.655 71.3924C283.482 70.1772 280.714 68.4894 278.351 66.3291C276.056 64.1688 274.233 61.5359 272.883 58.4304C271.6 55.2574 270.959 51.6793 270.959 47.6962C270.959 43.7806 271.6 40.2363 272.883 37.0633C274.233 33.8228 276.056 31.0886 278.351 28.8608C280.647 26.5654 283.347 24.8101 286.453 23.5949C289.626 22.3122 293.035 21.6709 296.68 21.6709C300.056 21.6709 303.161 22.2447 305.997 23.3924C308.9 24.4726 311.398 26.1266 313.491 28.3544C315.583 30.5148 317.204 33.2489 318.351 36.557C319.566 39.7975 320.174 43.6118 320.174 48Z" fill="current"/>
<path d="M324.652 23.0886H338.12L351.69 58.4304H351.892L363.943 23.0886H376.601L353.614 82.1266C352.736 84.3544 351.791 86.3122 350.778 88C349.766 89.7553 348.551 91.2067 347.133 92.3544C345.715 93.5696 344.027 94.481 342.07 95.0886C340.179 95.6962 337.884 96 335.184 96C334.171 96 333.124 95.9325 332.044 95.7975C331.032 95.7299 329.985 95.5612 328.905 95.2911L329.918 84.7595C330.728 85.0295 331.504 85.1983 332.247 85.2658C333.057 85.4008 333.8 85.4683 334.475 85.4683C335.757 85.4683 336.838 85.2996 337.715 84.962C338.593 84.692 339.335 84.2194 339.943 83.5443C340.551 82.9367 341.091 82.1603 341.563 81.2152C342.036 80.27 342.542 79.1561 343.082 77.8734L345.513 71.6962L324.652 23.0886Z" fill="current"/>
</svg>
