<?xml version="1.0" standalone="no"?>
<!DOCTYPE svg PUBLIC "-//W3C//DTD SVG 20010904//EN"
 "http://www.w3.org/TR/2001/REC-SVG-20010904/DTD/svg10.dtd">
<svg version="1.0" xmlns="http://www.w3.org/2000/svg"
 width="700.000000pt" height="700.000000pt" viewBox="0 0 700.000000 700.000000"
 preserveAspectRatio="xMidYMid meet">
<metadata>
Created by potrace 1.14, written by Peter Selinger 2001-2017
</metadata>
<g transform="translate(0.000000,700.000000) scale(0.100000,-0.100000)"
fill="#000000" stroke="none">
<path d="M3275 6994 c-594 -48 -1090 -205 -1588 -501 -383 -229 -768 -585
-1035 -959 -349 -490 -560 -1046 -634 -1669 -7 -62 -13 -220 -13 -365 0 -410
50 -725 171 -1095 257 -781 795 -1460 1499 -1891 439 -269 911 -429 1460 -496
134 -16 591 -16 730 0 530 62 1000 219 1431 479 252 152 436 295 652 507 588
577 935 1292 1034 2131 19 167 16 597 -6 770 -90 706 -357 1324 -801 1850
-119 141 -349 366 -490 478 -501 401 -1097 653 -1743 738 -151 19 -541 33
-667 23z m1559 -1968 c59 -25 110 -70 142 -128 l29 -53 7 -1290 c5 -861 4
-1307 -3 -1341 -20 -100 -101 -188 -201 -214 -20 -6 -125 -9 -234 -8 l-197 3
-532 1520 -532 1520 631 6 c769 7 841 6 890 -15z m-1715 -1498 c277 -832 506
-1518 508 -1524 6 -16 -1373 -29 -1444 -14 -102 22 -183 100 -209 201 -19 71
-21 2606 -3 2659 28 82 113 160 194 179 22 5 132 9 245 10 l205 1 504 -1512z"/>
</g>
</svg>
