<svg width="64" height="64" viewBox="0 0 64 64" fill="none" xmlns="http://www.w3.org/2000/svg">
<rect x="1.28662" y="1.37622" width="61.25" height="61.2503" rx="10.625" fill="white"/>
<path fill-rule="evenodd" clip-rule="evenodd" d="M32.1562 13.2512L51.9838 47.7341H12.3286L32.1562 13.2512Z" fill="black"/>
<rect x="1.28662" y="1.37622" width="61.25" height="61.2503" rx="10.625" stroke="url(#paint0_linear_6032_61100)" stroke-width="1.25"/>
<rect x="2.05897" y="2.14857" width="59.7053" height="59.7056" rx="9.46064" fill="#170A33"/>
<rect x="2.05897" y="2.14857" width="59.7053" height="59.7056" rx="9.46064" fill="url(#paint1_linear_6032_61100)" fill-opacity="0.4"/>
<path fill-rule="evenodd" clip-rule="evenodd" d="M34.4103 15.1654C35.188 15.4106 35.7168 16.1318 35.7168 16.9472V26.2883L43.1897 26.2883C43.8863 26.2883 44.5251 26.6759 44.8468 27.2938C45.1685 27.9117 45.1197 28.6572 44.7202 29.2279L31.6427 47.9101C31.1751 48.5781 30.3282 48.8657 29.5505 48.6205C28.7728 48.3754 28.2439 47.6542 28.2439 46.8387L28.2439 37.4976H20.7711C20.0744 37.4976 19.4357 37.1101 19.114 36.4922C18.7923 35.8743 18.8411 35.1287 19.2406 34.5581L32.3181 15.8759C32.7857 15.2078 33.6326 14.9203 34.4103 15.1654Z" fill="url(#paint2_radial_6032_61100)"/>
<g opacity="0.4" filter="url(#filter0_f_6032_61100)">
<path fill-rule="evenodd" clip-rule="evenodd" d="M34.4102 15.1652C35.1879 15.4103 35.7168 16.1315 35.7168 16.947V26.2881L43.1897 26.2881C43.8863 26.2881 44.525 26.6757 44.8467 27.2936C45.1684 27.9114 45.1196 28.657 44.7202 29.2277L31.6426 47.9099C31.175 48.5779 30.3282 48.8655 29.5505 48.6203C28.7728 48.3752 28.2439 47.654 28.2439 46.8386L28.2439 37.4974H20.7711C20.0744 37.4974 19.4357 37.1099 19.114 36.492C18.7923 35.8741 18.8411 35.1285 19.2406 34.5579L32.3181 15.8756C32.7857 15.2076 33.6325 14.92 34.4102 15.1652Z" fill="url(#paint3_radial_6032_61100)"/>
</g>
<rect x="2.05897" y="2.14857" width="59.7053" height="59.7056" rx="9.46064" stroke="url(#paint4_linear_6032_61100)" stroke-width="0.294693"/>
<defs>
<filter id="filter0_f_6032_61100" x="8.3004" y="4.47618" width="47.3601" height="54.8333" filterUnits="userSpaceOnUse" color-interpolation-filters="sRGB">
<feFlood flood-opacity="0" result="BackgroundImageFix"/>
<feBlend mode="normal" in="SourceGraphic" in2="BackgroundImageFix" result="shape"/>
<feGaussianBlur stdDeviation="5.30121" result="effect1_foregroundBlur_6032_61100"/>
</filter>
<linearGradient id="paint0_linear_6032_61100" x1="1.91162" y1="2.00122" x2="52.2235" y2="2.81477" gradientUnits="userSpaceOnUse">
<stop stop-color="#30294E"/>
<stop offset="0.5" stop-color="#9479D9"/>
<stop offset="1" stop-color="#30294E"/>
</linearGradient>
<linearGradient id="paint1_linear_6032_61100" x1="172.221" y1="-437.542" x2="239.323" y2="-410.01" gradientUnits="userSpaceOnUse">
<stop stop-color="#30294E"/>
<stop offset="0.369792" stop-color="#30294E" stop-opacity="0.41"/>
<stop offset="0.666667" stop-color="#30294E"/>
<stop offset="1" stop-color="#30294E" stop-opacity="0.33"/>
</linearGradient>
<radialGradient id="paint2_radial_6032_61100" cx="0" cy="0" r="1" gradientUnits="userSpaceOnUse" gradientTransform="translate(26.2483 21.399) rotate(70.0838) scale(33.1851 27.174)">
<stop stop-color="#9479D9"/>
<stop offset="1" stop-color="#201245"/>
</radialGradient>
<radialGradient id="paint3_radial_6032_61100" cx="0" cy="0" r="1" gradientUnits="userSpaceOnUse" gradientTransform="translate(26.2483 21.3988) rotate(78.1455) scale(27.9033 21.7023)">
<stop stop-color="#9479D9"/>
<stop offset="1" stop-color="#201245"/>
</radialGradient>
<linearGradient id="paint4_linear_6032_61100" x1="1.91162" y1="2.00122" x2="52.2235" y2="2.81477" gradientUnits="userSpaceOnUse">
<stop stop-color="#30294E"/>
<stop offset="0.5" stop-color="#9479D9"/>
<stop offset="1" stop-color="#30294E"/>
</linearGradient>
</defs>
</svg>
