<svg width="392" height="219" viewBox="0 0 392 219" fill="none" xmlns="http://www.w3.org/2000/svg">
<g clip-path="url(#clip0_6115_16173)">
<rect width="392.667" height="219" transform="translate(-1)" fill="url(#paint0_linear_6115_16173)" fill-opacity="0.4"/>
<g opacity="0.2">
<rect opacity="0.2" x="171.929" y="244.357" width="56.6429" height="56.6429" transform="rotate(-90 171.929 244.357)" stroke="url(#paint1_linear_6115_16173)" stroke-width="1.61955"/>
<rect opacity="0.2" x="115.286" y="244.357" width="56.6429" height="56.6429" transform="rotate(-90 115.286 244.357)" stroke="url(#paint2_linear_6115_16173)" stroke-width="1.61955"/>
<rect opacity="0.2" x="58.6431" y="244.357" width="56.6429" height="56.6429" transform="rotate(-90 58.6431 244.357)" stroke="url(#paint3_linear_6115_16173)" stroke-width="1.61955"/>
<rect opacity="0.2" x="2" y="244.357" width="56.6429" height="56.6429" transform="rotate(-90 2 244.357)" stroke="url(#paint4_linear_6115_16173)" stroke-width="1.61955"/>
<rect opacity="0.2" x="228.571" y="244.357" width="56.6429" height="56.6429" transform="rotate(-90 228.571 244.357)" stroke="url(#paint5_linear_6115_16173)" stroke-width="1.61955"/>
<rect opacity="0.2" x="285.214" y="244.357" width="56.6429" height="56.6429" transform="rotate(-90 285.214 244.357)" stroke="url(#paint6_linear_6115_16173)" stroke-width="1.61955"/>
<rect opacity="0.2" x="341.857" y="244.357" width="56.6429" height="56.6429" transform="rotate(-90 341.857 244.357)" stroke="url(#paint7_linear_6115_16173)" stroke-width="1.61955"/>
<rect opacity="0.2" x="171.929" y="187.714" width="56.6429" height="56.6429" transform="rotate(-90 171.929 187.714)" stroke="url(#paint8_linear_6115_16173)" stroke-width="1.61955"/>
<rect opacity="0.2" x="115.286" y="187.714" width="56.6429" height="56.6429" transform="rotate(-90 115.286 187.714)" stroke="url(#paint9_linear_6115_16173)" stroke-width="1.61955"/>
<rect opacity="0.2" x="58.6431" y="187.714" width="56.6429" height="56.6429" transform="rotate(-90 58.6431 187.714)" stroke="url(#paint10_linear_6115_16173)" stroke-width="1.61955"/>
<rect opacity="0.2" x="2" y="187.714" width="56.6429" height="56.6429" transform="rotate(-90 2 187.714)" stroke="url(#paint11_linear_6115_16173)" stroke-width="1.61955"/>
<rect opacity="0.2" x="228.571" y="187.714" width="56.6429" height="56.6429" transform="rotate(-90 228.571 187.714)" stroke="url(#paint12_linear_6115_16173)" stroke-width="1.61955"/>
<rect opacity="0.2" x="285.214" y="187.714" width="56.6429" height="56.6429" transform="rotate(-90 285.214 187.714)" stroke="url(#paint13_linear_6115_16173)" stroke-width="1.61955"/>
<rect opacity="0.2" x="341.857" y="187.714" width="56.6429" height="56.6429" transform="rotate(-90 341.857 187.714)" stroke="url(#paint14_linear_6115_16173)" stroke-width="1.61955"/>
<rect opacity="0.2" x="171.929" y="131.072" width="56.6429" height="56.6429" transform="rotate(-90 171.929 131.072)" stroke="url(#paint15_linear_6115_16173)" stroke-width="1.61955"/>
<rect opacity="0.2" x="115.286" y="131.072" width="56.6429" height="56.6429" transform="rotate(-90 115.286 131.072)" stroke="url(#paint16_linear_6115_16173)" stroke-width="1.61955"/>
<rect opacity="0.2" x="58.6431" y="131.072" width="56.6429" height="56.6429" transform="rotate(-90 58.6431 131.072)" stroke="url(#paint17_linear_6115_16173)" stroke-width="1.61955"/>
<rect opacity="0.2" x="2" y="131.072" width="56.6429" height="56.6429" transform="rotate(-90 2 131.072)" stroke="url(#paint18_linear_6115_16173)" stroke-width="1.61955"/>
<rect opacity="0.2" x="228.571" y="131.072" width="56.6429" height="56.6429" transform="rotate(-90 228.571 131.072)" stroke="url(#paint19_linear_6115_16173)" stroke-width="1.61955"/>
<rect opacity="0.2" x="285.214" y="131.072" width="56.6429" height="56.6429" transform="rotate(-90 285.214 131.072)" stroke="url(#paint20_linear_6115_16173)" stroke-width="1.61955"/>
<rect opacity="0.2" x="341.857" y="131.072" width="56.6429" height="56.6429" transform="rotate(-90 341.857 131.072)" stroke="url(#paint21_linear_6115_16173)" stroke-width="1.61955"/>
<rect opacity="0.7" x="171.929" y="74.4286" width="56.6429" height="56.6429" transform="rotate(-90 171.929 74.4286)" stroke="url(#paint22_linear_6115_16173)" stroke-width="1.61955"/>
<rect opacity="0.7" x="115.286" y="74.4286" width="56.6429" height="56.6429" transform="rotate(-90 115.286 74.4286)" stroke="url(#paint23_linear_6115_16173)" stroke-width="1.61955"/>
<rect opacity="0.7" x="58.6431" y="74.4286" width="56.6429" height="56.6429" transform="rotate(-90 58.6431 74.4286)" stroke="url(#paint24_linear_6115_16173)" stroke-width="1.61955"/>
<rect opacity="0.7" x="2" y="74.4286" width="56.6429" height="56.6429" transform="rotate(-90 2 74.4286)" stroke="url(#paint25_linear_6115_16173)" stroke-width="1.61955"/>
<rect opacity="0.7" x="228.571" y="74.4286" width="56.6429" height="56.6429" transform="rotate(-90 228.571 74.4286)" stroke="url(#paint26_linear_6115_16173)" stroke-width="1.61955"/>
<rect opacity="0.7" x="285.214" y="74.4286" width="56.6429" height="56.6429" transform="rotate(-90 285.214 74.4286)" stroke="url(#paint27_linear_6115_16173)" stroke-width="1.61955"/>
<rect opacity="0.7" x="341.857" y="74.4286" width="56.6429" height="56.6429" transform="rotate(-90 341.857 74.4286)" stroke="url(#paint28_linear_6115_16173)" stroke-width="1.61955"/>
<rect opacity="0.2" x="171.929" y="17.7856" width="56.6429" height="56.6429" transform="rotate(-90 171.929 17.7856)" stroke="url(#paint29_linear_6115_16173)" stroke-width="1.61955"/>
<rect opacity="0.2" x="115.286" y="17.7856" width="56.6429" height="56.6429" transform="rotate(-90 115.286 17.7856)" stroke="url(#paint30_linear_6115_16173)" stroke-width="1.61955"/>
<rect opacity="0.2" x="58.6431" y="17.7856" width="56.6429" height="56.6429" transform="rotate(-90 58.6431 17.7856)" stroke="url(#paint31_linear_6115_16173)" stroke-width="1.61955"/>
<rect opacity="0.2" x="2" y="17.7856" width="56.6429" height="56.6429" transform="rotate(-90 2 17.7856)" stroke="url(#paint32_linear_6115_16173)" stroke-width="1.61955"/>
<rect opacity="0.2" x="228.571" y="17.7856" width="56.6429" height="56.6429" transform="rotate(-90 228.571 17.7856)" stroke="url(#paint33_linear_6115_16173)" stroke-width="1.61955"/>
<rect opacity="0.2" x="285.214" y="17.7856" width="56.6429" height="56.6429" transform="rotate(-90 285.214 17.7856)" stroke="url(#paint34_linear_6115_16173)" stroke-width="1.61955"/>
<rect opacity="0.2" x="341.857" y="17.7856" width="56.6429" height="56.6429" transform="rotate(-90 341.857 17.7856)" stroke="url(#paint35_linear_6115_16173)" stroke-width="1.61955"/>
</g>
<rect x="2" width="390" height="219" fill="url(#paint36_linear_6115_16173)"/>
<g opacity="0.08" filter="url(#filter0_f_6115_16173)">
<path d="M485.182 -134.817C499.307 -145.639 519.348 -143.934 531.442 -130.883L610.783 -45.2626C626.307 -28.5108 621.549 -1.56854 601.227 8.85319L11.4585 311.305C-3.67562 319.066 -22.2265 314.167 -31.5546 299.945V299.945C-41.1165 285.367 -37.8064 265.88 -23.967 255.277L485.182 -134.817Z" fill="url(#paint37_linear_6115_16173)"/>
</g>
</g>
<defs>
<filter id="filter0_f_6115_16173" x="-157.303" y="-262.221" width="897.576" height="697.492" filterUnits="userSpaceOnUse" color-interpolation-filters="sRGB">
<feFlood flood-opacity="0" result="BackgroundImageFix"/>
<feBlend mode="normal" in="SourceGraphic" in2="BackgroundImageFix" result="shape"/>
<feGaussianBlur stdDeviation="60.1472" result="effect1_foregroundBlur_6115_16173"/>
</filter>
<linearGradient id="paint0_linear_6115_16173" x1="1114.58" y1="-1604.33" x2="1447.48" y2="-1359.42" gradientUnits="userSpaceOnUse">
<stop stop-color="#30294E"/>
<stop offset="0.369792" stop-color="#30294E" stop-opacity="0.41"/>
<stop offset="0.666667" stop-color="#30294E"/>
<stop offset="1" stop-color="#30294E" stop-opacity="0.33"/>
</linearGradient>
<linearGradient id="paint1_linear_6115_16173" x1="171.929" y1="244.357" x2="219.426" y2="245.125" gradientUnits="userSpaceOnUse">
<stop stop-color="#30294E"/>
<stop offset="0.5" stop-color="#9479D9"/>
<stop offset="1" stop-color="#30294E"/>
</linearGradient>
<linearGradient id="paint2_linear_6115_16173" x1="115.286" y1="244.357" x2="162.783" y2="245.125" gradientUnits="userSpaceOnUse">
<stop stop-color="#30294E"/>
<stop offset="0.5" stop-color="#9479D9"/>
<stop offset="1" stop-color="#30294E"/>
</linearGradient>
<linearGradient id="paint3_linear_6115_16173" x1="58.6431" y1="244.357" x2="106.14" y2="245.125" gradientUnits="userSpaceOnUse">
<stop stop-color="#30294E"/>
<stop offset="0.5" stop-color="#9479D9"/>
<stop offset="1" stop-color="#30294E"/>
</linearGradient>
<linearGradient id="paint4_linear_6115_16173" x1="2" y1="244.357" x2="49.4968" y2="245.125" gradientUnits="userSpaceOnUse">
<stop stop-color="#30294E"/>
<stop offset="0.5" stop-color="#9479D9"/>
<stop offset="1" stop-color="#30294E"/>
</linearGradient>
<linearGradient id="paint5_linear_6115_16173" x1="228.571" y1="244.357" x2="276.068" y2="245.125" gradientUnits="userSpaceOnUse">
<stop stop-color="#30294E"/>
<stop offset="0.5" stop-color="#9479D9"/>
<stop offset="1" stop-color="#30294E"/>
</linearGradient>
<linearGradient id="paint6_linear_6115_16173" x1="285.214" y1="244.357" x2="332.711" y2="245.125" gradientUnits="userSpaceOnUse">
<stop stop-color="#30294E"/>
<stop offset="0.5" stop-color="#9479D9"/>
<stop offset="1" stop-color="#30294E"/>
</linearGradient>
<linearGradient id="paint7_linear_6115_16173" x1="341.857" y1="244.357" x2="389.354" y2="245.125" gradientUnits="userSpaceOnUse">
<stop stop-color="#30294E"/>
<stop offset="0.5" stop-color="#9479D9"/>
<stop offset="1" stop-color="#30294E"/>
</linearGradient>
<linearGradient id="paint8_linear_6115_16173" x1="171.929" y1="187.714" x2="219.426" y2="188.483" gradientUnits="userSpaceOnUse">
<stop stop-color="#30294E"/>
<stop offset="0.5" stop-color="#9479D9"/>
<stop offset="1" stop-color="#30294E"/>
</linearGradient>
<linearGradient id="paint9_linear_6115_16173" x1="115.286" y1="187.714" x2="162.783" y2="188.482" gradientUnits="userSpaceOnUse">
<stop stop-color="#30294E"/>
<stop offset="0.5" stop-color="#9479D9"/>
<stop offset="1" stop-color="#30294E"/>
</linearGradient>
<linearGradient id="paint10_linear_6115_16173" x1="58.6431" y1="187.714" x2="106.14" y2="188.482" gradientUnits="userSpaceOnUse">
<stop stop-color="#30294E"/>
<stop offset="0.5" stop-color="#9479D9"/>
<stop offset="1" stop-color="#30294E"/>
</linearGradient>
<linearGradient id="paint11_linear_6115_16173" x1="2" y1="187.714" x2="49.4968" y2="188.483" gradientUnits="userSpaceOnUse">
<stop stop-color="#30294E"/>
<stop offset="0.5" stop-color="#9479D9"/>
<stop offset="1" stop-color="#30294E"/>
</linearGradient>
<linearGradient id="paint12_linear_6115_16173" x1="228.571" y1="187.714" x2="276.068" y2="188.483" gradientUnits="userSpaceOnUse">
<stop stop-color="#30294E"/>
<stop offset="0.5" stop-color="#9479D9"/>
<stop offset="1" stop-color="#30294E"/>
</linearGradient>
<linearGradient id="paint13_linear_6115_16173" x1="285.214" y1="187.714" x2="332.711" y2="188.483" gradientUnits="userSpaceOnUse">
<stop stop-color="#30294E"/>
<stop offset="0.5" stop-color="#9479D9"/>
<stop offset="1" stop-color="#30294E"/>
</linearGradient>
<linearGradient id="paint14_linear_6115_16173" x1="341.857" y1="187.714" x2="389.354" y2="188.483" gradientUnits="userSpaceOnUse">
<stop stop-color="#30294E"/>
<stop offset="0.5" stop-color="#9479D9"/>
<stop offset="1" stop-color="#30294E"/>
</linearGradient>
<linearGradient id="paint15_linear_6115_16173" x1="171.929" y1="131.072" x2="219.426" y2="131.84" gradientUnits="userSpaceOnUse">
<stop stop-color="#30294E"/>
<stop offset="0.5" stop-color="#9479D9"/>
<stop offset="1" stop-color="#30294E"/>
</linearGradient>
<linearGradient id="paint16_linear_6115_16173" x1="115.286" y1="131.072" x2="162.783" y2="131.84" gradientUnits="userSpaceOnUse">
<stop stop-color="#30294E"/>
<stop offset="0.5" stop-color="#9479D9"/>
<stop offset="1" stop-color="#30294E"/>
</linearGradient>
<linearGradient id="paint17_linear_6115_16173" x1="58.6431" y1="131.072" x2="106.14" y2="131.84" gradientUnits="userSpaceOnUse">
<stop stop-color="#30294E"/>
<stop offset="0.5" stop-color="#9479D9"/>
<stop offset="1" stop-color="#30294E"/>
</linearGradient>
<linearGradient id="paint18_linear_6115_16173" x1="2" y1="131.072" x2="49.4968" y2="131.84" gradientUnits="userSpaceOnUse">
<stop stop-color="#30294E"/>
<stop offset="0.5" stop-color="#9479D9"/>
<stop offset="1" stop-color="#30294E"/>
</linearGradient>
<linearGradient id="paint19_linear_6115_16173" x1="228.571" y1="131.072" x2="276.068" y2="131.84" gradientUnits="userSpaceOnUse">
<stop stop-color="#30294E"/>
<stop offset="0.5" stop-color="#9479D9"/>
<stop offset="1" stop-color="#30294E"/>
</linearGradient>
<linearGradient id="paint20_linear_6115_16173" x1="285.214" y1="131.072" x2="332.711" y2="131.84" gradientUnits="userSpaceOnUse">
<stop stop-color="#30294E"/>
<stop offset="0.5" stop-color="#9479D9"/>
<stop offset="1" stop-color="#30294E"/>
</linearGradient>
<linearGradient id="paint21_linear_6115_16173" x1="341.857" y1="131.072" x2="389.354" y2="131.84" gradientUnits="userSpaceOnUse">
<stop stop-color="#30294E"/>
<stop offset="0.5" stop-color="#9479D9"/>
<stop offset="1" stop-color="#30294E"/>
</linearGradient>
<linearGradient id="paint22_linear_6115_16173" x1="171.929" y1="74.4286" x2="219.426" y2="75.1966" gradientUnits="userSpaceOnUse">
<stop stop-color="#30294E"/>
<stop offset="0.5" stop-color="#9479D9"/>
<stop offset="1" stop-color="#30294E"/>
</linearGradient>
<linearGradient id="paint23_linear_6115_16173" x1="115.286" y1="74.4286" x2="162.783" y2="75.1966" gradientUnits="userSpaceOnUse">
<stop stop-color="#30294E"/>
<stop offset="0.5" stop-color="#9479D9"/>
<stop offset="1" stop-color="#30294E"/>
</linearGradient>
<linearGradient id="paint24_linear_6115_16173" x1="58.6431" y1="74.4286" x2="106.14" y2="75.1966" gradientUnits="userSpaceOnUse">
<stop stop-color="#30294E"/>
<stop offset="0.5" stop-color="#9479D9"/>
<stop offset="1" stop-color="#30294E"/>
</linearGradient>
<linearGradient id="paint25_linear_6115_16173" x1="2" y1="74.4286" x2="49.4968" y2="75.1966" gradientUnits="userSpaceOnUse">
<stop stop-color="#30294E"/>
<stop offset="0.5" stop-color="#9479D9"/>
<stop offset="1" stop-color="#30294E"/>
</linearGradient>
<linearGradient id="paint26_linear_6115_16173" x1="228.571" y1="74.4286" x2="276.068" y2="75.1966" gradientUnits="userSpaceOnUse">
<stop stop-color="#30294E"/>
<stop offset="0.5" stop-color="#9479D9"/>
<stop offset="1" stop-color="#30294E"/>
</linearGradient>
<linearGradient id="paint27_linear_6115_16173" x1="285.214" y1="74.4286" x2="332.711" y2="75.1966" gradientUnits="userSpaceOnUse">
<stop stop-color="#30294E"/>
<stop offset="0.5" stop-color="#9479D9"/>
<stop offset="1" stop-color="#30294E"/>
</linearGradient>
<linearGradient id="paint28_linear_6115_16173" x1="341.857" y1="74.4286" x2="389.354" y2="75.1966" gradientUnits="userSpaceOnUse">
<stop stop-color="#30294E"/>
<stop offset="0.5" stop-color="#9479D9"/>
<stop offset="1" stop-color="#30294E"/>
</linearGradient>
<linearGradient id="paint29_linear_6115_16173" x1="171.929" y1="17.7856" x2="219.426" y2="18.5537" gradientUnits="userSpaceOnUse">
<stop stop-color="#30294E"/>
<stop offset="0.5" stop-color="#9479D9"/>
<stop offset="1" stop-color="#30294E"/>
</linearGradient>
<linearGradient id="paint30_linear_6115_16173" x1="115.286" y1="17.7856" x2="162.783" y2="18.5537" gradientUnits="userSpaceOnUse">
<stop stop-color="#30294E"/>
<stop offset="0.5" stop-color="#9479D9"/>
<stop offset="1" stop-color="#30294E"/>
</linearGradient>
<linearGradient id="paint31_linear_6115_16173" x1="58.6431" y1="17.7856" x2="106.14" y2="18.5537" gradientUnits="userSpaceOnUse">
<stop stop-color="#30294E"/>
<stop offset="0.5" stop-color="#9479D9"/>
<stop offset="1" stop-color="#30294E"/>
</linearGradient>
<linearGradient id="paint32_linear_6115_16173" x1="2" y1="17.7856" x2="49.4968" y2="18.5537" gradientUnits="userSpaceOnUse">
<stop stop-color="#30294E"/>
<stop offset="0.5" stop-color="#9479D9"/>
<stop offset="1" stop-color="#30294E"/>
</linearGradient>
<linearGradient id="paint33_linear_6115_16173" x1="228.571" y1="17.7856" x2="276.068" y2="18.5537" gradientUnits="userSpaceOnUse">
<stop stop-color="#30294E"/>
<stop offset="0.5" stop-color="#9479D9"/>
<stop offset="1" stop-color="#30294E"/>
</linearGradient>
<linearGradient id="paint34_linear_6115_16173" x1="285.214" y1="17.7856" x2="332.711" y2="18.5537" gradientUnits="userSpaceOnUse">
<stop stop-color="#30294E"/>
<stop offset="0.5" stop-color="#9479D9"/>
<stop offset="1" stop-color="#30294E"/>
</linearGradient>
<linearGradient id="paint35_linear_6115_16173" x1="341.857" y1="17.7856" x2="389.354" y2="18.5537" gradientUnits="userSpaceOnUse">
<stop stop-color="#30294E"/>
<stop offset="0.5" stop-color="#9479D9"/>
<stop offset="1" stop-color="#30294E"/>
</linearGradient>
<linearGradient id="paint36_linear_6115_16173" x1="163.187" y1="3.51605" x2="170.511" y2="241.176" gradientUnits="userSpaceOnUse">
<stop stop-color="#0D0225" stop-opacity="0"/>
<stop offset="0.701752" stop-color="#0D0225"/>
<stop offset="1" stop-color="#180E2E"/>
</linearGradient>
<linearGradient id="paint37_linear_6115_16173" x1="589.343" y1="-91.7229" x2="-24.411" y2="310.836" gradientUnits="userSpaceOnUse">
<stop stop-color="#9D97AA"/>
<stop offset="1" stop-color="#9D97AA" stop-opacity="0.47"/>
</linearGradient>
<clipPath id="clip0_6115_16173">
<rect width="392.667" height="219" fill="white" transform="translate(-1)"/>
</clipPath>
</defs>
</svg>
