<svg width="291" height="448" viewBox="0 0 291 448" fill="none" xmlns="http://www.w3.org/2000/svg">
<g clip-path="url(#clip0_6094_15264)">
<rect width="291" height="448" fill="url(#paint0_linear_6094_15264)" fill-opacity="0.4"/>
<g opacity="0.2">
<rect x="172.929" y="414.286" width="56.6429" height="56.6429" transform="rotate(-90 172.929 414.286)" stroke="url(#paint1_linear_6094_15264)" stroke-width="1.61955"/>
<rect x="116.286" y="414.286" width="56.6429" height="56.6429" transform="rotate(-90 116.286 414.286)" stroke="url(#paint2_linear_6094_15264)" stroke-width="1.61955"/>
<rect x="59.6431" y="414.286" width="56.6429" height="56.6429" transform="rotate(-90 59.6431 414.286)" stroke="url(#paint3_linear_6094_15264)" stroke-width="1.61955"/>
<rect x="3" y="414.286" width="56.6429" height="56.6429" transform="rotate(-90 3 414.286)" stroke="url(#paint4_linear_6094_15264)" stroke-width="1.61955"/>
<rect opacity="0.2" x="229.571" y="414.286" width="56.6429" height="56.6429" transform="rotate(-90 229.571 414.286)" stroke="url(#paint5_linear_6094_15264)" stroke-width="1.61955"/>
<rect opacity="0.2" x="286.214" y="414.286" width="56.6429" height="56.6429" transform="rotate(-90 286.214 414.286)" stroke="url(#paint6_linear_6094_15264)" stroke-width="1.61955"/>
<rect opacity="0.4" x="172.929" y="357.643" width="56.6429" height="56.6429" transform="rotate(-90 172.929 357.643)" stroke="url(#paint7_linear_6094_15264)" stroke-width="1.61955"/>
<rect opacity="0.4" x="116.286" y="357.643" width="56.6429" height="56.6429" transform="rotate(-90 116.286 357.643)" stroke="url(#paint8_linear_6094_15264)" stroke-width="1.61955"/>
<rect opacity="0.4" x="59.6431" y="357.643" width="56.6429" height="56.6429" transform="rotate(-90 59.6431 357.643)" stroke="url(#paint9_linear_6094_15264)" stroke-width="1.61955"/>
<rect opacity="0.4" x="3" y="357.643" width="56.6429" height="56.6429" transform="rotate(-90 3 357.643)" stroke="url(#paint10_linear_6094_15264)" stroke-width="1.61955"/>
<rect opacity="0.4" x="229.571" y="357.643" width="56.6429" height="56.6429" transform="rotate(-90 229.571 357.643)" stroke="url(#paint11_linear_6094_15264)" stroke-width="1.61955"/>
<rect opacity="0.4" x="286.214" y="357.643" width="56.6429" height="56.6429" transform="rotate(-90 286.214 357.643)" stroke="url(#paint12_linear_6094_15264)" stroke-width="1.61955"/>
<rect opacity="0.2" x="172.929" y="301" width="56.6429" height="56.6429" transform="rotate(-90 172.929 301)" stroke="url(#paint13_linear_6094_15264)" stroke-width="1.61955"/>
<rect opacity="0.2" x="116.286" y="301" width="56.6429" height="56.6429" transform="rotate(-90 116.286 301)" stroke="url(#paint14_linear_6094_15264)" stroke-width="1.61955"/>
<rect opacity="0.2" x="59.6431" y="301" width="56.6429" height="56.6429" transform="rotate(-90 59.6431 301)" stroke="url(#paint15_linear_6094_15264)" stroke-width="1.61955"/>
<rect opacity="0.2" x="3" y="301" width="56.6429" height="56.6429" transform="rotate(-90 3 301)" stroke="url(#paint16_linear_6094_15264)" stroke-width="1.61955"/>
<rect opacity="0.2" x="229.571" y="301" width="56.6429" height="56.6429" transform="rotate(-90 229.571 301)" stroke="url(#paint17_linear_6094_15264)" stroke-width="1.61955"/>
<rect opacity="0.2" x="286.214" y="301" width="56.6429" height="56.6429" transform="rotate(-90 286.214 301)" stroke="url(#paint18_linear_6094_15264)" stroke-width="1.61955"/>
<rect opacity="0.2" x="172.929" y="244.357" width="56.6429" height="56.6429" transform="rotate(-90 172.929 244.357)" stroke="url(#paint19_linear_6094_15264)" stroke-width="1.61955"/>
<rect opacity="0.2" x="116.286" y="244.357" width="56.6429" height="56.6429" transform="rotate(-90 116.286 244.357)" stroke="url(#paint20_linear_6094_15264)" stroke-width="1.61955"/>
<rect opacity="0.2" x="59.6431" y="244.357" width="56.6429" height="56.6429" transform="rotate(-90 59.6431 244.357)" stroke="url(#paint21_linear_6094_15264)" stroke-width="1.61955"/>
<rect opacity="0.2" x="3" y="244.357" width="56.6429" height="56.6429" transform="rotate(-90 3 244.357)" stroke="url(#paint22_linear_6094_15264)" stroke-width="1.61955"/>
<rect opacity="0.2" x="229.571" y="244.357" width="56.6429" height="56.6429" transform="rotate(-90 229.571 244.357)" stroke="url(#paint23_linear_6094_15264)" stroke-width="1.61955"/>
<rect opacity="0.2" x="286.214" y="244.357" width="56.6429" height="56.6429" transform="rotate(-90 286.214 244.357)" stroke="url(#paint24_linear_6094_15264)" stroke-width="1.61955"/>
<rect opacity="0.2" x="172.929" y="187.715" width="56.6429" height="56.6429" transform="rotate(-90 172.929 187.715)" stroke="url(#paint25_linear_6094_15264)" stroke-width="1.61955"/>
<rect opacity="0.2" x="116.286" y="187.714" width="56.6429" height="56.6429" transform="rotate(-90 116.286 187.714)" stroke="url(#paint26_linear_6094_15264)" stroke-width="1.61955"/>
<rect opacity="0.2" x="59.6431" y="187.714" width="56.6429" height="56.6429" transform="rotate(-90 59.6431 187.714)" stroke="url(#paint27_linear_6094_15264)" stroke-width="1.61955"/>
<rect opacity="0.2" x="3" y="187.714" width="56.6429" height="56.6429" transform="rotate(-90 3 187.714)" stroke="url(#paint28_linear_6094_15264)" stroke-width="1.61955"/>
<rect opacity="0.2" x="229.571" y="187.715" width="56.6429" height="56.6429" transform="rotate(-90 229.571 187.715)" stroke="url(#paint29_linear_6094_15264)" stroke-width="1.61955"/>
<rect opacity="0.2" x="286.214" y="187.715" width="56.6429" height="56.6429" transform="rotate(-90 286.214 187.715)" stroke="url(#paint30_linear_6094_15264)" stroke-width="1.61955"/>
<rect opacity="0.2" x="172.929" y="131.072" width="56.6429" height="56.6429" transform="rotate(-90 172.929 131.072)" stroke="url(#paint31_linear_6094_15264)" stroke-width="1.61955"/>
<rect opacity="0.2" x="116.286" y="131.072" width="56.6429" height="56.6429" transform="rotate(-90 116.286 131.072)" stroke="url(#paint32_linear_6094_15264)" stroke-width="1.61955"/>
<rect opacity="0.2" x="59.6431" y="131.072" width="56.6429" height="56.6429" transform="rotate(-90 59.6431 131.072)" stroke="url(#paint33_linear_6094_15264)" stroke-width="1.61955"/>
<rect opacity="0.2" x="3" y="131.072" width="56.6429" height="56.6429" transform="rotate(-90 3 131.072)" stroke="url(#paint34_linear_6094_15264)" stroke-width="1.61955"/>
<rect opacity="0.2" x="229.571" y="131.072" width="56.6429" height="56.6429" transform="rotate(-90 229.571 131.072)" stroke="url(#paint35_linear_6094_15264)" stroke-width="1.61955"/>
<rect opacity="0.2" x="286.214" y="131.072" width="56.6429" height="56.6429" transform="rotate(-90 286.214 131.072)" stroke="url(#paint36_linear_6094_15264)" stroke-width="1.61955"/>
<rect opacity="0.7" x="172.929" y="74.4287" width="56.6429" height="56.6429" transform="rotate(-90 172.929 74.4287)" stroke="url(#paint37_linear_6094_15264)" stroke-width="1.61955"/>
<rect opacity="0.7" x="116.286" y="74.4287" width="56.6429" height="56.6429" transform="rotate(-90 116.286 74.4287)" stroke="url(#paint38_linear_6094_15264)" stroke-width="1.61955"/>
<rect opacity="0.7" x="59.6431" y="74.4287" width="56.6429" height="56.6429" transform="rotate(-90 59.6431 74.4287)" stroke="url(#paint39_linear_6094_15264)" stroke-width="1.61955"/>
<rect opacity="0.7" x="3" y="74.4287" width="56.6429" height="56.6429" transform="rotate(-90 3 74.4287)" stroke="url(#paint40_linear_6094_15264)" stroke-width="1.61955"/>
<rect opacity="0.7" x="229.571" y="74.4287" width="56.6429" height="56.6429" transform="rotate(-90 229.571 74.4287)" stroke="url(#paint41_linear_6094_15264)" stroke-width="1.61955"/>
<rect opacity="0.7" x="286.214" y="74.4287" width="56.6429" height="56.6429" transform="rotate(-90 286.214 74.4287)" stroke="url(#paint42_linear_6094_15264)" stroke-width="1.61955"/>
<rect opacity="0.2" x="172.929" y="17.7856" width="56.6429" height="56.6429" transform="rotate(-90 172.929 17.7856)" stroke="url(#paint43_linear_6094_15264)" stroke-width="1.61955"/>
<rect opacity="0.2" x="116.286" y="17.7856" width="56.6429" height="56.6429" transform="rotate(-90 116.286 17.7856)" stroke="url(#paint44_linear_6094_15264)" stroke-width="1.61955"/>
<rect opacity="0.2" x="59.6431" y="17.7856" width="56.6429" height="56.6429" transform="rotate(-90 59.6431 17.7856)" stroke="url(#paint45_linear_6094_15264)" stroke-width="1.61955"/>
<rect opacity="0.2" x="3" y="17.7856" width="56.6429" height="56.6429" transform="rotate(-90 3 17.7856)" stroke="url(#paint46_linear_6094_15264)" stroke-width="1.61955"/>
<rect opacity="0.2" x="229.571" y="17.7856" width="56.6429" height="56.6429" transform="rotate(-90 229.571 17.7856)" stroke="url(#paint47_linear_6094_15264)" stroke-width="1.61955"/>
<rect opacity="0.2" x="286.214" y="17.7856" width="56.6429" height="56.6429" transform="rotate(-90 286.214 17.7856)" stroke="url(#paint48_linear_6094_15264)" stroke-width="1.61955"/>
</g>
<rect x="3" width="288" height="448" fill="url(#paint49_linear_6094_15264)"/>
<g opacity="0.08" filter="url(#filter0_f_6094_15264)">
<path d="M486.182 -134.817C500.307 -145.639 520.348 -143.934 532.442 -130.883L611.783 -45.2626C627.307 -28.5108 622.549 -1.56854 602.227 8.85319L12.4585 311.305C-2.67562 319.066 -21.2265 314.167 -30.5546 299.945V299.945C-40.1165 285.367 -36.8064 265.88 -22.967 255.277L486.182 -134.817Z" fill="url(#paint50_linear_6094_15264)"/>
</g>
</g>
<defs>
<filter id="filter0_f_6094_15264" x="-156.303" y="-262.221" width="897.576" height="697.492" filterUnits="userSpaceOnUse" color-interpolation-filters="sRGB">
<feFlood flood-opacity="0" result="BackgroundImageFix"/>
<feBlend mode="normal" in="SourceGraphic" in2="BackgroundImageFix" result="shape"/>
<feGaussianBlur stdDeviation="60.1472" result="effect1_foregroundBlur_6094_15264"/>
</filter>
<linearGradient id="paint0_linear_6094_15264" x1="826.001" y1="-3281.91" x2="1181.02" y2="-3187.29" gradientUnits="userSpaceOnUse">
<stop stop-color="#30294E"/>
<stop offset="0.369792" stop-color="#30294E" stop-opacity="0.41"/>
<stop offset="0.666667" stop-color="#30294E"/>
<stop offset="1" stop-color="#30294E" stop-opacity="0.33"/>
</linearGradient>
<linearGradient id="paint1_linear_6094_15264" x1="172.929" y1="414.286" x2="220.426" y2="415.054" gradientUnits="userSpaceOnUse">
<stop stop-color="#30294E"/>
<stop offset="0.5" stop-color="#9479D9"/>
<stop offset="1" stop-color="#30294E"/>
</linearGradient>
<linearGradient id="paint2_linear_6094_15264" x1="116.286" y1="414.286" x2="163.783" y2="415.054" gradientUnits="userSpaceOnUse">
<stop stop-color="#30294E"/>
<stop offset="0.5" stop-color="#9479D9"/>
<stop offset="1" stop-color="#30294E"/>
</linearGradient>
<linearGradient id="paint3_linear_6094_15264" x1="59.6431" y1="414.286" x2="107.14" y2="415.054" gradientUnits="userSpaceOnUse">
<stop stop-color="#30294E"/>
<stop offset="0.5" stop-color="#9479D9"/>
<stop offset="1" stop-color="#30294E"/>
</linearGradient>
<linearGradient id="paint4_linear_6094_15264" x1="3" y1="414.286" x2="50.4968" y2="415.054" gradientUnits="userSpaceOnUse">
<stop stop-color="#30294E"/>
<stop offset="0.5" stop-color="#9479D9"/>
<stop offset="1" stop-color="#30294E"/>
</linearGradient>
<linearGradient id="paint5_linear_6094_15264" x1="229.571" y1="414.286" x2="277.068" y2="415.054" gradientUnits="userSpaceOnUse">
<stop stop-color="#30294E"/>
<stop offset="0.5" stop-color="#9479D9"/>
<stop offset="1" stop-color="#30294E"/>
</linearGradient>
<linearGradient id="paint6_linear_6094_15264" x1="286.214" y1="414.286" x2="333.711" y2="415.054" gradientUnits="userSpaceOnUse">
<stop stop-color="#30294E"/>
<stop offset="0.5" stop-color="#9479D9"/>
<stop offset="1" stop-color="#30294E"/>
</linearGradient>
<linearGradient id="paint7_linear_6094_15264" x1="172.929" y1="357.643" x2="220.426" y2="358.411" gradientUnits="userSpaceOnUse">
<stop stop-color="#30294E"/>
<stop offset="0.5" stop-color="#9479D9"/>
<stop offset="1" stop-color="#30294E"/>
</linearGradient>
<linearGradient id="paint8_linear_6094_15264" x1="116.286" y1="357.643" x2="163.783" y2="358.411" gradientUnits="userSpaceOnUse">
<stop stop-color="#30294E"/>
<stop offset="0.5" stop-color="#9479D9"/>
<stop offset="1" stop-color="#30294E"/>
</linearGradient>
<linearGradient id="paint9_linear_6094_15264" x1="59.6431" y1="357.643" x2="107.14" y2="358.411" gradientUnits="userSpaceOnUse">
<stop stop-color="#30294E"/>
<stop offset="0.5" stop-color="#9479D9"/>
<stop offset="1" stop-color="#30294E"/>
</linearGradient>
<linearGradient id="paint10_linear_6094_15264" x1="3" y1="357.643" x2="50.4968" y2="358.411" gradientUnits="userSpaceOnUse">
<stop stop-color="#30294E"/>
<stop offset="0.5" stop-color="#9479D9"/>
<stop offset="1" stop-color="#30294E"/>
</linearGradient>
<linearGradient id="paint11_linear_6094_15264" x1="229.571" y1="357.643" x2="277.068" y2="358.411" gradientUnits="userSpaceOnUse">
<stop stop-color="#30294E"/>
<stop offset="0.5" stop-color="#9479D9"/>
<stop offset="1" stop-color="#30294E"/>
</linearGradient>
<linearGradient id="paint12_linear_6094_15264" x1="286.214" y1="357.643" x2="333.711" y2="358.411" gradientUnits="userSpaceOnUse">
<stop stop-color="#30294E"/>
<stop offset="0.5" stop-color="#9479D9"/>
<stop offset="1" stop-color="#30294E"/>
</linearGradient>
<linearGradient id="paint13_linear_6094_15264" x1="172.929" y1="301" x2="220.426" y2="301.768" gradientUnits="userSpaceOnUse">
<stop stop-color="#30294E"/>
<stop offset="0.5" stop-color="#9479D9"/>
<stop offset="1" stop-color="#30294E"/>
</linearGradient>
<linearGradient id="paint14_linear_6094_15264" x1="116.286" y1="301" x2="163.783" y2="301.768" gradientUnits="userSpaceOnUse">
<stop stop-color="#30294E"/>
<stop offset="0.5" stop-color="#9479D9"/>
<stop offset="1" stop-color="#30294E"/>
</linearGradient>
<linearGradient id="paint15_linear_6094_15264" x1="59.6431" y1="301" x2="107.14" y2="301.768" gradientUnits="userSpaceOnUse">
<stop stop-color="#30294E"/>
<stop offset="0.5" stop-color="#9479D9"/>
<stop offset="1" stop-color="#30294E"/>
</linearGradient>
<linearGradient id="paint16_linear_6094_15264" x1="3" y1="301" x2="50.4968" y2="301.768" gradientUnits="userSpaceOnUse">
<stop stop-color="#30294E"/>
<stop offset="0.5" stop-color="#9479D9"/>
<stop offset="1" stop-color="#30294E"/>
</linearGradient>
<linearGradient id="paint17_linear_6094_15264" x1="229.571" y1="301" x2="277.068" y2="301.768" gradientUnits="userSpaceOnUse">
<stop stop-color="#30294E"/>
<stop offset="0.5" stop-color="#9479D9"/>
<stop offset="1" stop-color="#30294E"/>
</linearGradient>
<linearGradient id="paint18_linear_6094_15264" x1="286.214" y1="301" x2="333.711" y2="301.768" gradientUnits="userSpaceOnUse">
<stop stop-color="#30294E"/>
<stop offset="0.5" stop-color="#9479D9"/>
<stop offset="1" stop-color="#30294E"/>
</linearGradient>
<linearGradient id="paint19_linear_6094_15264" x1="172.929" y1="244.357" x2="220.426" y2="245.125" gradientUnits="userSpaceOnUse">
<stop stop-color="#30294E"/>
<stop offset="0.5" stop-color="#9479D9"/>
<stop offset="1" stop-color="#30294E"/>
</linearGradient>
<linearGradient id="paint20_linear_6094_15264" x1="116.286" y1="244.357" x2="163.783" y2="245.125" gradientUnits="userSpaceOnUse">
<stop stop-color="#30294E"/>
<stop offset="0.5" stop-color="#9479D9"/>
<stop offset="1" stop-color="#30294E"/>
</linearGradient>
<linearGradient id="paint21_linear_6094_15264" x1="59.6431" y1="244.357" x2="107.14" y2="245.125" gradientUnits="userSpaceOnUse">
<stop stop-color="#30294E"/>
<stop offset="0.5" stop-color="#9479D9"/>
<stop offset="1" stop-color="#30294E"/>
</linearGradient>
<linearGradient id="paint22_linear_6094_15264" x1="3" y1="244.357" x2="50.4968" y2="245.125" gradientUnits="userSpaceOnUse">
<stop stop-color="#30294E"/>
<stop offset="0.5" stop-color="#9479D9"/>
<stop offset="1" stop-color="#30294E"/>
</linearGradient>
<linearGradient id="paint23_linear_6094_15264" x1="229.571" y1="244.357" x2="277.068" y2="245.125" gradientUnits="userSpaceOnUse">
<stop stop-color="#30294E"/>
<stop offset="0.5" stop-color="#9479D9"/>
<stop offset="1" stop-color="#30294E"/>
</linearGradient>
<linearGradient id="paint24_linear_6094_15264" x1="286.214" y1="244.357" x2="333.711" y2="245.125" gradientUnits="userSpaceOnUse">
<stop stop-color="#30294E"/>
<stop offset="0.5" stop-color="#9479D9"/>
<stop offset="1" stop-color="#30294E"/>
</linearGradient>
<linearGradient id="paint25_linear_6094_15264" x1="172.929" y1="187.715" x2="220.426" y2="188.483" gradientUnits="userSpaceOnUse">
<stop stop-color="#30294E"/>
<stop offset="0.5" stop-color="#9479D9"/>
<stop offset="1" stop-color="#30294E"/>
</linearGradient>
<linearGradient id="paint26_linear_6094_15264" x1="116.286" y1="187.714" x2="163.783" y2="188.482" gradientUnits="userSpaceOnUse">
<stop stop-color="#30294E"/>
<stop offset="0.5" stop-color="#9479D9"/>
<stop offset="1" stop-color="#30294E"/>
</linearGradient>
<linearGradient id="paint27_linear_6094_15264" x1="59.6431" y1="187.714" x2="107.14" y2="188.482" gradientUnits="userSpaceOnUse">
<stop stop-color="#30294E"/>
<stop offset="0.5" stop-color="#9479D9"/>
<stop offset="1" stop-color="#30294E"/>
</linearGradient>
<linearGradient id="paint28_linear_6094_15264" x1="3" y1="187.714" x2="50.4968" y2="188.482" gradientUnits="userSpaceOnUse">
<stop stop-color="#30294E"/>
<stop offset="0.5" stop-color="#9479D9"/>
<stop offset="1" stop-color="#30294E"/>
</linearGradient>
<linearGradient id="paint29_linear_6094_15264" x1="229.571" y1="187.715" x2="277.068" y2="188.483" gradientUnits="userSpaceOnUse">
<stop stop-color="#30294E"/>
<stop offset="0.5" stop-color="#9479D9"/>
<stop offset="1" stop-color="#30294E"/>
</linearGradient>
<linearGradient id="paint30_linear_6094_15264" x1="286.214" y1="187.715" x2="333.711" y2="188.483" gradientUnits="userSpaceOnUse">
<stop stop-color="#30294E"/>
<stop offset="0.5" stop-color="#9479D9"/>
<stop offset="1" stop-color="#30294E"/>
</linearGradient>
<linearGradient id="paint31_linear_6094_15264" x1="172.929" y1="131.072" x2="220.426" y2="131.84" gradientUnits="userSpaceOnUse">
<stop stop-color="#30294E"/>
<stop offset="0.5" stop-color="#9479D9"/>
<stop offset="1" stop-color="#30294E"/>
</linearGradient>
<linearGradient id="paint32_linear_6094_15264" x1="116.286" y1="131.072" x2="163.783" y2="131.84" gradientUnits="userSpaceOnUse">
<stop stop-color="#30294E"/>
<stop offset="0.5" stop-color="#9479D9"/>
<stop offset="1" stop-color="#30294E"/>
</linearGradient>
<linearGradient id="paint33_linear_6094_15264" x1="59.6431" y1="131.072" x2="107.14" y2="131.84" gradientUnits="userSpaceOnUse">
<stop stop-color="#30294E"/>
<stop offset="0.5" stop-color="#9479D9"/>
<stop offset="1" stop-color="#30294E"/>
</linearGradient>
<linearGradient id="paint34_linear_6094_15264" x1="3" y1="131.072" x2="50.4968" y2="131.84" gradientUnits="userSpaceOnUse">
<stop stop-color="#30294E"/>
<stop offset="0.5" stop-color="#9479D9"/>
<stop offset="1" stop-color="#30294E"/>
</linearGradient>
<linearGradient id="paint35_linear_6094_15264" x1="229.571" y1="131.072" x2="277.068" y2="131.84" gradientUnits="userSpaceOnUse">
<stop stop-color="#30294E"/>
<stop offset="0.5" stop-color="#9479D9"/>
<stop offset="1" stop-color="#30294E"/>
</linearGradient>
<linearGradient id="paint36_linear_6094_15264" x1="286.214" y1="131.072" x2="333.711" y2="131.84" gradientUnits="userSpaceOnUse">
<stop stop-color="#30294E"/>
<stop offset="0.5" stop-color="#9479D9"/>
<stop offset="1" stop-color="#30294E"/>
</linearGradient>
<linearGradient id="paint37_linear_6094_15264" x1="172.929" y1="74.4287" x2="220.426" y2="75.1967" gradientUnits="userSpaceOnUse">
<stop stop-color="#30294E"/>
<stop offset="0.5" stop-color="#9479D9"/>
<stop offset="1" stop-color="#30294E"/>
</linearGradient>
<linearGradient id="paint38_linear_6094_15264" x1="116.286" y1="74.4287" x2="163.783" y2="75.1967" gradientUnits="userSpaceOnUse">
<stop stop-color="#30294E"/>
<stop offset="0.5" stop-color="#9479D9"/>
<stop offset="1" stop-color="#30294E"/>
</linearGradient>
<linearGradient id="paint39_linear_6094_15264" x1="59.6431" y1="74.4287" x2="107.14" y2="75.1967" gradientUnits="userSpaceOnUse">
<stop stop-color="#30294E"/>
<stop offset="0.5" stop-color="#9479D9"/>
<stop offset="1" stop-color="#30294E"/>
</linearGradient>
<linearGradient id="paint40_linear_6094_15264" x1="3" y1="74.4287" x2="50.4968" y2="75.1967" gradientUnits="userSpaceOnUse">
<stop stop-color="#30294E"/>
<stop offset="0.5" stop-color="#9479D9"/>
<stop offset="1" stop-color="#30294E"/>
</linearGradient>
<linearGradient id="paint41_linear_6094_15264" x1="229.571" y1="74.4287" x2="277.068" y2="75.1967" gradientUnits="userSpaceOnUse">
<stop stop-color="#30294E"/>
<stop offset="0.5" stop-color="#9479D9"/>
<stop offset="1" stop-color="#30294E"/>
</linearGradient>
<linearGradient id="paint42_linear_6094_15264" x1="286.214" y1="74.4287" x2="333.711" y2="75.1967" gradientUnits="userSpaceOnUse">
<stop stop-color="#30294E"/>
<stop offset="0.5" stop-color="#9479D9"/>
<stop offset="1" stop-color="#30294E"/>
</linearGradient>
<linearGradient id="paint43_linear_6094_15264" x1="172.929" y1="17.7856" x2="220.426" y2="18.5537" gradientUnits="userSpaceOnUse">
<stop stop-color="#30294E"/>
<stop offset="0.5" stop-color="#9479D9"/>
<stop offset="1" stop-color="#30294E"/>
</linearGradient>
<linearGradient id="paint44_linear_6094_15264" x1="116.286" y1="17.7856" x2="163.783" y2="18.5537" gradientUnits="userSpaceOnUse">
<stop stop-color="#30294E"/>
<stop offset="0.5" stop-color="#9479D9"/>
<stop offset="1" stop-color="#30294E"/>
</linearGradient>
<linearGradient id="paint45_linear_6094_15264" x1="59.6431" y1="17.7856" x2="107.14" y2="18.5537" gradientUnits="userSpaceOnUse">
<stop stop-color="#30294E"/>
<stop offset="0.5" stop-color="#9479D9"/>
<stop offset="1" stop-color="#30294E"/>
</linearGradient>
<linearGradient id="paint46_linear_6094_15264" x1="3" y1="17.7856" x2="50.4968" y2="18.5537" gradientUnits="userSpaceOnUse">
<stop stop-color="#30294E"/>
<stop offset="0.5" stop-color="#9479D9"/>
<stop offset="1" stop-color="#30294E"/>
</linearGradient>
<linearGradient id="paint47_linear_6094_15264" x1="229.571" y1="17.7856" x2="277.068" y2="18.5537" gradientUnits="userSpaceOnUse">
<stop stop-color="#30294E"/>
<stop offset="0.5" stop-color="#9479D9"/>
<stop offset="1" stop-color="#30294E"/>
</linearGradient>
<linearGradient id="paint48_linear_6094_15264" x1="286.214" y1="17.7856" x2="333.711" y2="18.5537" gradientUnits="userSpaceOnUse">
<stop stop-color="#30294E"/>
<stop offset="0.5" stop-color="#9479D9"/>
<stop offset="1" stop-color="#30294E"/>
</linearGradient>
<linearGradient id="paint49_linear_6094_15264" x1="122.03" y1="7.19266" x2="163.274" y2="490.305" gradientUnits="userSpaceOnUse">
<stop stop-color="#0D0225" stop-opacity="0"/>
<stop offset="0.701752" stop-color="#0D0225"/>
<stop offset="1" stop-color="#180E2E"/>
</linearGradient>
<linearGradient id="paint50_linear_6094_15264" x1="590.343" y1="-91.7229" x2="-23.411" y2="310.836" gradientUnits="userSpaceOnUse">
<stop stop-color="#9D97AA"/>
<stop offset="1" stop-color="#9D97AA" stop-opacity="0.47"/>
</linearGradient>
<clipPath id="clip0_6094_15264">
<rect width="291" height="448" fill="white"/>
</clipPath>
</defs>
</svg>
