<svg height="2500" preserveAspectRatio="xMidYMid" viewBox="0 0 256 310" width="2065" xmlns="http://www.w3.org/2000/svg"><path d="m0 245.262 16.322 8.161 2.678-4.755v-189.335l-2.678-3.494-16.322 8.161z" fill="#9d5025"/><path d="m47.678 63.57-31.356-7.731v197.584l31.356-7.302z" fill="#f68536"/><path d="m143.893 78.604 22.335-11.597 74.309 28.778-19.758 2.577z" fill="#6b3a19"/><path d="m144.752 230.658 21.906 11.597 74.308-28.778-19.758-2.578z" fill="#fbbf93"/><path d="m150.336 198.872 39.087 5.155 2.244-4.027v-90l-2.244-4.765-39.087 5.154zm-114.685-152.912 24.054-12.027 2.628 5.067v231l-2.628 5.329-24.054-12.027z" fill="#9d5025"/><path d="m108.671 259.007-48.966 15.892v-240.966l48.966 15.893z" fill="#f68536"/><path d="m89.772 289.933 38.228 19.329 4-4.595v-299l-4-5.667-38.228 19.329zm130.147-191.571 19.759-2.577 1.697 2.465v112.75l-1.697 2.906-19.759-2.577z" fill="#9d5025"/><g fill="#f68536"><path d="m189.423 105.235v99.221l40.805-49.825z"/><path d="m239.678 55.839-111.678-55.839v309.262l128-64v-181.262zm0 158.217-73.45 21.936v-162.722l73.45 21.936z"/></g></svg>