<svg width="2500" height="1650" viewBox="0 0 256 169" xmlns="http://www.w3.org/2000/svg" preserveAspectRatio="xMidYMid"><path d="M152 95.2c-6.4 0-12 3.999-15.2 9.6H42.4c-16 0-28.8-13.6-28.8-29.6s12.8-29.6 28.8-29.6H56c0-3.2 1.6-6.4 2.4-9.6.8-.8.8-2.4 1.6-3.2 6.4-12 19.2-20 33.6-20 12.8 0 24 6.4 31.2 16 4-1.6 8-3.2 12.8-4C128.8 9.6 112.8 0 93.6 0c-21.6 0-40 13.6-48 32.8h-3.2C19.2 32.8 0 52 0 76c0 24 19.2 42.4 42.4 42.4h95.2c2.4 5.6 8 9.6 15.2 9.6 8.801 0 16-7.2 16-16.8 0-9.6-7.2-16-16.8-16zm52.8-32.801c-9.6-19.2-29.6-32.8-52-32.8-28 0-51.2 20-56.8 46.4-13.6 1.6-25.6 8.8-32.8 19.2h69.6c4.8-6.4 12.001-9.6 20-9.6 14.4 0 25.6 12 25.6 26.4 0 14.4-12 26.4-25.6 26.4-8 0-15.2-4-20-9.6H55.2c3.2 22.4 22.4 40 44.8 40h104c28.8 0 52-23.2 52-52.8 0-29.6-23.2-52.8-51.2-53.6z" fill="#008CDB"/></svg>