<svg fill="none" xmlns="http://www.w3.org/2000/svg" viewBox="-1.737632930899128 -0.12848120864691026 353.7036015327837 381.0954812086469"><g fill="#2dd0ed"><path d="M124.561 82.06c-49.756-9.062-89.097.425-104.776 27.579-11.7 20.263-8.36 47.133 8.106 75.854a5.102 5.102 0 0 0 6.967 1.89 5.107 5.107 0 0 0 1.89-6.968c-14.834-25.869-17.725-49.058-8.125-65.674 13.023-22.558 48.11-31.02 94.106-22.641a5.105 5.105 0 0 0 5.976-6.103 5.105 5.105 0 0 0-4.149-3.936zM53.765 220.4c20.117 22.11 46.255 42.847 76.064 60.059 72.173 41.67 149.009 52.808 186.875 26.987a5.103 5.103 0 0 0-5.747-8.432c-33.892 23.11-106.88 12.529-176.025-27.393-28.921-16.699-54.229-36.777-73.618-58.086a5.108 5.108 0 0 0-5.538-1.437 5.103 5.103 0 0 0-2.011 8.302z"/><path d="M304.629 214.194c32.578-38.486 43.955-77.197 28.31-104.297-11.513-19.94-35.854-30.468-68.198-30.888a5.106 5.106 0 0 0-5.171 5.034 5.092 5.092 0 0 0 3.087 4.756 5.104 5.104 0 0 0 1.948.415c29.091.376 50.063 9.448 59.497 25.786 12.993 22.51 2.851 57.031-27.261 92.603a5.098 5.098 0 0 0 .535 7.264 5.11 5.11 0 0 0 7.253-.673zM220.903 83.76c-29.458 6.313-60.81 18.652-90.918 36.035C55.474 162.813 6.87 226.24 13.623 272.236a5.102 5.102 0 1 0 10.093-1.484c-5.991-40.835 40.078-100.962 111.367-142.119 29.209-16.865 59.57-28.809 87.959-34.898a5.104 5.104 0 0 0-2.139-9.975z"/><path d="M100.195 304.121c17.041 47.559 44.903 76.846 76.241 76.846 22.851 0 43.994-15.576 60.483-43.003a5.109 5.109 0 0 0 .68-3.919 5.1 5.1 0 0 0-8.096-2.877c-.54.419-.99.941-1.324 1.537-14.82 24.649-33.023 38.062-51.743 38.062-26.026 0-50.884-26.123-66.631-70.088a5.115 5.115 0 0 0-2.611-2.972 5.12 5.12 0 0 0-1.953-.505 5.109 5.109 0 0 0-5.375 4.929 5.105 5.105 0 0 0 .334 1.99zm155.596-9.307c8.818-28.173 13.55-60.683 13.55-94.56 0-84.522-29.58-157.388-71.719-176.099a5.103 5.103 0 0 0-4.141 9.326c37.583 16.69 65.66 85.84 65.66 166.773 0 32.861-4.59 64.346-13.086 91.514a5.092 5.092 0 0 0 .28 3.953 5.103 5.103 0 0 0 9.456-.907zm96.089-4.995a24.419 24.419 0 1 0-48.837.001 24.419 24.419 0 0 0 48.837-.001zm-10.205 0a14.217 14.217 0 0 1-14.214 14.214 14.213 14.213 0 1 1 14.214-14.214zM25.059 314.238a24.416 24.416 0 0 0 24.419-24.419 24.417 24.417 0 0 0-24.42-24.419A24.417 24.417 0 0 0 .64 289.819a24.417 24.417 0 0 0 24.419 24.419zm0-10.205a14.217 14.217 0 1 1 0-28.434 14.217 14.217 0 0 1 0 28.434z"/><path d="M176.436 49.063a24.415 24.415 0 0 0 22.56-15.075A24.422 24.422 0 0 0 176.436.225a24.417 24.417 0 0 0-17.267 41.685 24.418 24.418 0 0 0 17.267 7.152zm0-10.206a14.217 14.217 0 0 1-13.132-8.774 14.201 14.201 0 0 1 0-10.879 14.207 14.207 0 0 1 7.692-7.692 14.216 14.216 0 1 1 5.44 27.35zm3.73 178.672a17.677 17.677 0 0 1-13.306-2.421 17.67 17.67 0 0 1 5.845-32.125 17.674 17.674 0 0 1 20.738 13.597 17.674 17.674 0 0 1-13.277 20.944z"/></g></svg>