<?xml version="1.0" encoding="utf-8"?>
<!-- Generator: Adobe Illustrator 23.0.1, SVG Export Plug-In . SVG Version: 6.00 Build 0)  -->
<svg version="1.1" id="Layer_1" xmlns="http://www.w3.org/2000/svg" xmlns:xlink="http://www.w3.org/1999/xlink" x="0px" y="0px"
	 viewBox="0 0 800 300" style="enable-background:new 0 0 800 300;" xml:space="preserve">
<style type="text/css">
	.st0{fill:#333333;}
	.st1{fill:#00ACD7;}
</style>
<g>
	<path class="st0" d="M241.8,69.6h111.7c1.9,0,3.3,1.7,3,3.5l-4.7,27.9c-0.2,1.4-1.5,2.5-3,2.5h-71c-1.5,0-2.7,1.1-3,2.5l-4.8,29.4
		c-0.3,1.8,1.1,3.5,3,3.5h61.5c1.9,0,3.3,1.7,3,3.5l-4.7,28c-0.2,1.4-1.5,2.5-3,2.5h-63.5c-1.5,0-2.7,1.1-3,2.5l-10.6,64.3
		c-0.2,1.4-1.5,2.5-3,2.5h-35.6c-1.9,0-3.3-1.7-3-3.5l27.7-166.7C239.1,70.6,240.3,69.6,241.8,69.6z"/>
	<path class="st0" d="M361.5,112.7h35.1c1.9,0,3.3,1.7,3,3.5l-20.5,123.5c-0.2,1.4-1.5,2.5-3,2.5H341c-1.9,0-3.3-1.7-3-3.5
		l20.5-123.5C358.8,113.8,360.1,112.7,361.5,112.7z M364,77.8c1.7-10.8,12.4-19.6,24-19.6s19.9,8.8,18.4,19.6s-12.2,19.7-23.9,19.7
		S362.4,88.6,364,77.8z"/>
	<path class="st0" d="M424.2,69.6h35.1c1.9,0,3.3,1.7,3,3.5l-10.1,61.8h0.9c6.7-11.9,20.1-23.8,40.6-23.8c27.1,0,48,20.8,40.4,66.5
		c-7.3,44.1-34.2,66.5-62.9,66.5c-19.1,0-28.9-10.4-32.2-22.1c-0.1-0.4-0.5-0.7-1-0.7l0,0c-0.5,0-0.9,0.4-1,0.8l-2.8,17.6
		c-0.2,1.5-1.5,2.5-3,2.5h-34.7c-1.9,0-3.3-1.7-3-3.5l27.6-166.6C421.4,70.6,422.7,69.6,424.2,69.6z M462.3,212
		c15.2,0,26-13.6,29.3-34.5s-2.7-34.2-18-34.2c-15.1,0-26.1,13.1-29.5,34.2C440.7,198.5,447.2,212,462.3,212z"/>
	<path class="st0" d="M538.8,178c6.7-40.1,36.3-66.9,75.3-66.9c36.8,0,58.7,23.5,51.6,66.1l-1.4,8.7c-0.1,0.9-0.9,1.5-1.8,1.5h-83.1
		c-0.9,0-1.7,0.6-1.8,1.5l0,0c-2.6,16.4,5.1,26,21.2,26c10.3,0,19.3-4.2,24.2-12.3c0.3-0.6,1-0.9,1.6-0.9l33.9,1
		c1.3,0,2.1,1.3,1.6,2.5c-9.9,24.1-34,39.4-67.1,39.4C552.5,244.7,531.8,219.4,538.8,178L538.8,178z M628,163.5
		c0.9,0,1.7-0.7,1.8-1.7c1.2-12.4-6.6-21-19.5-21c-12.5,0-23.6,8.7-27.4,20.3c-0.4,1.2,0.5,2.4,1.8,2.4H628z"/>
	<path class="st0" d="M688.3,112.7h33.9c1.9,0,3.3,1.7,3,3.5l-3.4,20.1h1.3c7.7-17.1,20.4-25.3,34.5-25.3c2.8,0,5.6,0.3,8.4,0.8
		c1.6,0.3,2.7,1.8,2.4,3.5l-5,29.8c-0.3,1.7-1.9,2.8-3.6,2.4c-3.8-0.9-8.9-1.3-12.9-1.3c-14.6,0-27.2,10.4-29.9,25.8l-11.2,67.8
		c-0.2,1.4-1.5,2.5-3,2.5h-35.1c-1.9,0-3.3-1.7-3-3.5l20.6-123.5C685.6,113.8,686.9,112.7,688.3,112.7z"/>
</g>
<path class="st1" d="M210.2,115.4H80.8c-1,0-1.9,0.5-2.5,1.3l-6.5,9.3c-1.4,2,0,4.7,2.5,4.7l134.4-0.1c1.5,0,2.7-1.1,3-2.5l1.5-9.2
	C213.5,117.1,212.1,115.4,210.2,115.4z"/>
<path class="st1" d="M205.5,147.1h-169c-1,0-1.9,0.5-2.4,1.2l-6.7,9.2c-1.4,2,0,4.8,2.4,4.8l174.2-0.1c1.5,0,2.7-1.1,3-2.5l1.5-9.1
	C208.7,148.7,207.3,147.1,205.5,147.1z"/>
<path class="st1" d="M200.7,178.7h-69.2c-1,0-2,0.5-2.5,1.4l-6.1,9.3c-1.3,2,0.1,4.6,2.5,4.6l73.8-0.1c1.5,0,2.7-1.1,3-2.5l1.5-9.2
	C204,180.4,202.6,178.7,200.7,178.7z"/>
</svg>
