<svg viewBox="0 0 114 156" xmlns="http://www.w3.org/2000/svg" fill-rule="evenodd" clip-rule="evenodd" stroke-linejoin="round" stroke-miterlimit="2"><path d="M75.955 11.741h10.953c9.742 0 17.652 7.909 17.652 17.651v38.513c0 9.742-7.91 17.652-17.652 17.652h-.863c-5.014-.785-7.189-2.288-8.869-3.559l-13.925-11.45a1.966 1.966 0 00-2.465 0l-4.525 3.72L43.52 63.791a1.962 1.962 0 00-2.464 0L23.354 79.363c-3.562 2.898-5.919 2.363-7.447 2.195-3.947-3.24-6.467-8.154-6.467-13.653V29.392c0-9.742 7.91-17.651 17.653-17.651h10.928l-.019.044-.369 1.074-.114.368-.496 2.2-.069.386-.217 2.203-.029.605-.005.212.021 1.01.05.592.122.927.157.834.185.769.241.831.626 1.761.206.529 1.089 2.3.385.707 1.259 2.162.482.78 1.758 2.588.253.343 2.287 2.976.739.916 2.612 3.053.536.588 2.153 2.316.852.882 1.409 1.4-.283.236-.176.159c-.478.446-.932.92-1.357 1.418-.205.241-.4.49-.584.746a9.709 9.709 0 00-.755 1.233 7.435 7.435 0 00-.302.684 6.357 6.357 0 00-.409 1.861l-.008.55c.02.776.178 1.542.467 2.263.292.73.719 1.4 1.258 1.973.392.417.838.781 1.327 1.08.415.255.859.464 1.32.624a7.403 7.403 0 003.119.355h.006a7.041 7.041 0 002.572-.764c.345-.183.674-.395.982-.636a6.299 6.299 0 001.981-2.634c.325-.81.483-1.676.47-2.547l-.026-.455a6.413 6.413 0 00-.426-1.753 7.592 7.592 0 00-.33-.716 9.936 9.936 0 00-.777-1.229 12.31 12.31 0 00-.41-.525 16.945 16.945 0 00-1.515-1.587l-.381-.325.645-.637 2.773-2.896.96-1.053 1.491-1.678.969-1.134 1.384-1.684.936-1.178 1.375-1.838.694-.951.985-1.473.82-1.255 1.546-2.691.883-1.765.026-.055.677-1.638.023-.065.728-2.273.077-.331.316-1.81.062-.49.018-.3.022-1.133-.006-.211-.058-1.015-.071-.788-.36-2.272a.726.726 0 00-.02-.09l-.462-1.68-.158-.467-.208-.516zm5.207 48.027a4.26 4.26 0 00-4.182 4.182 4.262 4.262 0 004.182 4.181 4.264 4.264 0 004.183-4.181c-.032-2.282-1.901-4.15-4.183-4.182z" fill="url(#_Radial1)"/><path d="M51.762 146.242l-8.394-17.971c-.702-1.497-1.119-2.044-1.82-2.679l-.683-.615c-.544-.528-.902-1.017-.902-1.597 0-.831.658-1.531 1.857-1.531h7.288c1.144 0 1.857.595 1.857 1.484 0 .496-.228.868-.516 1.232-.342.434-.787.856-.787 1.626 0 .482.14.963.411 1.578l5.01 11.732 4.494-11.437c.276-.76.465-1.43.465-1.967 0-.835-.454-1.175-.803-1.548-.305-.324-.549-.667-.549-1.216 0-.897.731-1.484 1.713-1.484h4.488c1.259 0 1.857.652 1.857 1.484 0 .533-.307 1.026-.911 1.559l-.634.521c-.884.722-1.294 1.767-1.758 2.848l-6.806 16.395c-.804 1.917-2.001 4.578-3.83 6.762-1.857 2.217-4.362 3.941-7.755 3.941-2.84 0-4.56-1.356-4.56-3.31 0-1.791 1.324-3.217 3.064-3.217.953 0 1.449.449 1.951.912.416.382.837.774 1.669.774.771 0 1.49-.326 2.141-.853.995-.805 1.828-2.071 2.443-3.423zm49.329-.064c3.778 0 6.874-1.295 9.289-3.879 2.413-2.58 3.62-5.685 3.62-9.316 0-3.544-1.147-6.456-3.432-8.738-2.285-2.281-5.25-3.426-8.899-3.426-3.841 0-6.983 1.247-9.43 3.732-2.448 2.488-3.672 5.501-3.672 9.04 0 3.509 1.168 6.482 3.5 8.921 2.335 2.441 5.341 3.666 9.024 3.666zm-31.952-.282c2.184 0 3.738-1.471 3.738-3.591 0-2.071-1.604-3.545-3.738-3.545-2.236 0-3.836 1.476-3.836 3.545 0 2.118 1.601 3.591 3.836 3.591zm7.78-3.361l.532-.562c.632-.615.836-1.235.836-2.947v-10.119c0-1.479-.202-2.14-.829-2.705l-.626-.561c-.613-.541-.814-.878-.814-1.418 0-.768.595-1.398 1.554-1.617l4.247-1.031c.406-.098.865-.194 1.22-.194.489 0 .888.161 1.169.44s.446.681.446 1.184v16.021c0 1.616.196 2.367.871 2.934.011.01.021.02.03.031l.475.553c.597.58.844.965.844 1.494 0 .944-.712 1.484-1.856 1.484h-7.192c-1.09 0-1.808-.537-1.808-1.484 0-.532.247-.92.901-1.503zm-48.073.001l.532-.563c.633-.615.836-1.235.836-2.947v-21.127c0-1.433-.152-2.136-.822-2.701l-.642-.621c-.554-.538-.756-.872-.756-1.409 0-.77.599-1.397 1.505-1.617l4.199-1.03c.407-.099.864-.195 1.22-.195.485 0 .896.146 1.189.423.293.278.475.691.475 1.248v27.029c0 1.619.201 2.328.878 2.941l.542.573c.6.584.8.966.8 1.498 0 .392-.119.708-.332.95-.301.339-.805.534-1.476.534h-7.192c-.671 0-1.175-.195-1.476-.534-.213-.242-.332-.558-.332-.95 0-.532.198-.918.852-1.502zm-19.582-10.88v7.276c0 1.097.217 2.109 1.12 2.942l.584.567c.655.635.854 1.015.854 1.597 0 .889-.713 1.484-1.857 1.484H1.856c-1.144 0-1.856-.595-1.856-1.484 0-.69.202-1.017.857-1.6l.581-.565c.678-.614 1.12-1.45 1.12-2.941v-19.44c0-1.184-.262-2.153-1.121-2.943l-.584-.567c-.602-.583-.853-.966-.853-1.55 0-.941.714-1.53 1.856-1.53h21.72c.83 0 1.559.185 2.026.642.324.318.531.766.554 1.388l.338 5.014c.034.627-.151 1.149-.513 1.472-.249.221-.584.354-1.006.354-.531 0-.939-.201-1.303-.547-.327-.312-.618-.749-.947-1.264-.793-1.268-1.163-1.724-2.008-2.316-1.177-.869-2.97-1.167-6.36-1.167-1.956 0-3.19.085-3.968.286-.503.13-.793.298-.949.546-.159.253-.176.573-.176.964v9.852h5.093c1.219 0 2.076-.22 3.069-1.578l.006-.007c.398-.507.686-.88.96-1.128.32-.289.626-.425 1.033-.425a1.491 1.491 0 011.471 1.484v6.792c0 .91-.709 1.531-1.471 1.531-.378 0-.686-.135-1.006-.418-.276-.242-.565-.605-.94-1.09-1.086-1.407-1.854-1.631-3.122-1.631H9.264zm86.057-.172c0-2.437.531-4.188 1.631-5.242 1.087-1.04 2.255-1.566 3.511-1.566 1.727 0 3.283.967 4.687 2.867 1.435 1.944 2.144 4.57 2.144 7.876 0 2.439-.532 4.207-1.634 5.29-1.086 1.069-2.253 1.611-3.508 1.611-1.727 0-3.283-.974-4.687-2.89-1.435-1.959-2.144-4.61-2.144-7.946zm-14.212-13.179c2.189 0 3.738-1.232 3.738-3.357 0-2.076-1.547-3.311-3.738-3.311-2.242 0-3.788 1.236-3.788 3.311 0 2.074 1.547 3.357 3.788 3.357zM50.734 84.053l-.738.621a3.875 3.875 0 01-2.422.883H27.093a17.585 17.585 0 01-11.186-3.999c1.528.167 3.885.703 7.447-2.195l17.702-15.572a1.962 1.962 0 012.464 0l12.741 10.477 4.525-3.72a1.966 1.966 0 012.465 0l13.925 11.45c1.68 1.271 3.855 2.774 8.869 3.559h-9.264a3.936 3.936 0 01-2.274-.758l-.162-.125-.688-.571a1.321 1.321 0 00-.182-.185c-.779-.652-10.645-8.826-10.645-8.826a1.16 1.16 0 00-1.484.003s.025.03-10.472 8.823a1.383 1.383 0 00-.14.135zm30.428-24.285a4.26 4.26 0 00-4.182 4.182 4.262 4.262 0 004.182 4.181 4.264 4.264 0 004.183-4.181c-.032-2.282-1.901-4.15-4.183-4.182zM54.125 47.097l-1.409-1.4-.852-.882-2.153-2.316-.536-.588-2.612-3.053-.739-.916-2.287-2.976-.253-.343-1.758-2.588-.482-.78-1.259-2.162-.385-.707-1.089-2.3-.206-.529-.626-1.761-.241-.831-.185-.769-.157-.834-.122-.927-.05-.592-.021-1.01.005-.212.029-.605.217-2.203.069-.386.496-2.2.114-.368.369-1.074.118-.278.586-1.289.407-.767.566-.933.565-.832.402-.529.463-.558.51-.561.436-.439 1.064-.936.777-.636c.019-.016.039-.03.058-.044l.92-.622.731-.466 1.388-.731c.021-.013.045-.023.067-.033l1.969-.817.182-.069L50.96.733l.739-.165.999-.201.662-.101L54.376.14l.693-.061 1.375-.073.539-.006 1.021.021.265.015 1.478.123 1.956.275.226.048 1.932.481.568.169.63.218.768.29.608.258.892.42.562.289 1.01.593.376.232 1.378 1.005.395.343.96.875.048.047.814.874.281.316.955 1.27.195.303.759 1.282.228.439.428.956.447 1.115.158.467.462 1.68c.008.03.015.06.02.09l.36 2.272.071.788.058 1.015.006.211-.022 1.133-.018.3-.062.49-.316 1.81-.077.331-.728 2.273a1.242 1.242 0 01-.023.065l-.677 1.638-.026.055-.883 1.765-1.546 2.691-.82 1.255-.985 1.473-.694.951-1.375 1.838-.936 1.177-1.384 1.685-.969 1.134-1.491 1.678-.96 1.053-2.773 2.896-.645.637.381.325a16.823 16.823 0 011.515 1.587c.142.171.278.346.41.525.289.39.548.801.777 1.229.122.232.232.472.33.716a6.44 6.44 0 01.426 1.753l.026.455a6.571 6.571 0 01-.47 2.547 6.299 6.299 0 01-1.981 2.634 6.645 6.645 0 01-.982.636 7.041 7.041 0 01-2.572.764h-.006a7.403 7.403 0 01-3.119-.355 6.78 6.78 0 01-1.32-.624 6.385 6.385 0 01-1.327-1.08 6.29 6.29 0 01-1.258-1.973 6.534 6.534 0 01-.467-2.263l.008-.55c.042-.637.18-1.265.409-1.861.089-.234.19-.462.302-.684.221-.43.473-.841.755-1.233.184-.256.38-.505.584-.746a17.31 17.31 0 011.357-1.418l.176-.159.283-.236z" fill="#24175b"/><path d="M49.996 84.674l11.35-9.579a1.16 1.16 0 011.484-.003l11.515 9.582c.7.57 1.575.882 2.478.883H47.532c.899 0 1.77-.312 2.464-.883zm7.065-34.194l.111.032c.036.018.066.043.099.065l.092.082a12.562 12.562 0 011.105 1.158c.18.216.348.443.501.68.066.104.127.209.185.32.05.095.095.193.135.293.069.173.121.356.138.543l-.004.35a1.999 1.999 0 01-.946 1.556 2.726 2.726 0 01-1.152.379l-.432.012-.365-.032a2.785 2.785 0 01-.502-.122 2.388 2.388 0 01-.475-.222l-.285-.209a1.963 1.963 0 01-.649-1.112 2.713 2.713 0 01-.033-.22l-.011-.334c.006-.09.02-.179.04-.268a2.75 2.75 0 01.212-.563c.117-.226.25-.442.398-.648a11.703 11.703 0 011.371-1.517l.14-.126c.097-.065.099-.065.21-.097h.117zm-.717-46.518l.045-.003v39.006l-.097-.179a108.905 108.905 0 01-3.584-7.262 77.727 77.727 0 01-2.432-6.088 48 48 0 01-1.465-5.013c-.308-1.347-.545-2.714-.642-4.095-.037-.59-.048-1.18-.034-1.771.01-.514.031-1.027.063-1.54.051-.808.133-1.613.251-2.412.094-.63.21-1.256.354-1.876.113-.493.245-.981.396-1.462.218-.695.478-1.374.782-2.037.111-.239.231-.476.356-.709.753-1.395 1.775-2.68 3.113-3.539a6.498 6.498 0 012.894-1.02zm5.058.099l2.624.748a16.07 16.07 0 013.46 1.763 13.88 13.88 0 013.722 3.712 14.085 14.085 0 011.441 2.779 16.258 16.258 0 011.003 4.498c.035.403.055.808.063 1.212.009.375.007.752-.023 1.127-.075.84-.233 1.671-.472 2.479a19.491 19.491 0 01-.68 1.951 28.003 28.003 0 01-1.08 2.333c-.874 1.689-1.881 3.305-2.959 4.868a75.421 75.421 0 01-4.267 5.568 105.724 105.724 0 01-5.118 5.673 108.358 108.358 0 003.369-6.893 85.84 85.84 0 001.638-3.947 61.629 61.629 0 001.526-4.439c.336-1.122.633-2.257.877-3.404.21-.983.374-1.977.476-2.977a19.66 19.66 0 00.096-2.509 35.717 35.717 0 00-.056-1.535c-.123-2.058-.436-4.109-1.036-6.082a17.864 17.864 0 00-.827-2.192c-.768-1.672-1.84-3.236-3.291-4.378l-.486-.355z" fill="#fff"/><defs><radialGradient id="_Radial1" cx="0" cy="0" r="1" gradientUnits="userSpaceOnUse" gradientTransform="translate(59.944 48.327) scale(68.9056)"><stop offset="0" stop-color="#ba7bf0"/><stop offset=".45" stop-color="#996bec"/><stop offset="1" stop-color="#5046e4"/></radialGradient></defs></svg>