<svg viewBox="0 0 31.92 31.43" xmlns="http://www.w3.org/2000/svg"><path d="m31.95 0c-5.673 0-10.27 4.598-10.27 10.27 0 .5862.06001 1.157.1543 1.717l-19.74 11.39c-1.239.5653-2.1 1.816-2.1 3.266v65.51h.01562c.001603 1.235.6446 2.437 1.793 3.096l20.03 11.56c-.09429.5594-.1543 1.131-.1543 1.717 0 5.673 4.598 10.27 10.27 10.27 5.674 0 10.27-4.6 10.27-10.27 0-5.673-4.598-10.27-10.27-10.27-2.492 0-4.774.8879-6.553 2.363l-18.22-10.52v-61.4l18.22-10.52c1.778 1.475 4.061 2.363 6.553 2.363 5.674 0 10.27-4.6 10.27-10.27 0-5.673-4.598-10.27-10.27-10.27zm56.73 0c-5.673 0-10.27 4.598-10.27 10.27 0 5.673 4.598 10.27 10.27 10.27 2.492 0 4.776-.8879 6.555-2.363l18.22 10.52v61.4l-18.22 10.52c-1.778-1.474-4.062-2.361-6.553-2.361-5.673 0-10.27 4.598-10.27 10.27 0 5.673 4.598 10.27 10.27 10.27 5.675 0 10.27-4.6 10.27-10.27 0-.5862-.06002-1.157-.1543-1.717l19.74-11.39c1.239-.5653 2.1-1.814 2.1-3.264v-65.51h-.01562c-.00133-1.236-.6437-2.438-1.793-3.098l-20.03-11.56c.09428-.5594.1543-1.131.1543-1.717 0-5.673-4.597-10.27-10.27-10.27zm-28.37 20.76c-5.675 0-10.27 4.598-10.27 10.27 0 1.524.3402 2.967.9355 4.268l-14.76 14.76c-1.301-.5953-2.742-.9355-4.266-.9355-5.673 0-10.27 4.598-10.27 10.27 0 5.673 4.598 10.27 10.27 10.27 1.524 0 2.963-.3406 4.264-.9355l14.77 14.77c-.5953 1.301-.9355 2.742-.9355 4.266 0 5.673 4.599 10.27 10.27 10.27 5.672 0 10.27-4.596 10.27-10.27 0-1.524-.3401-2.965-.9355-4.266l15.63-15.63c.5748.0998 1.162.1621 1.766.1621 5.675 0 10.27-4.598 10.27-10.27 0-5.675-4.599-10.27-10.27-10.27-1.524 0-2.965.3404-4.266.9355l-13.13-13.13c.5954-1.301.9355-2.743.9355-4.268 0-5.673-4.599-10.27-10.27-10.27zm-4.266 19.61c1.3.5949 2.742.9355 4.266.9355 1.523 0 2.964-.3408 4.264-.9355l13.13 13.13c-.5948 1.3-.9355 2.742-.9355 4.266 0 2.377.8147 4.558 2.17 6.299l-14.36 14.37c-1.3-.5947-2.741-.9336-4.264-.9336-1.524 0-2.965.3388-4.266.9336l-14.77-14.77c.5949-1.3.9355-2.74.9355-4.264 0-1.523-.3389-2.964-.9336-4.264l14.76-14.77z" transform="scale(.2646)"/></svg>