<svg height="220" viewBox="0 0 692.76264 220" width="692.76263" xmlns="http://www.w3.org/2000/svg" xmlns:xlink="http://www.w3.org/1999/xlink"><clipPath id="a"><path d="m0 319h657.706v-319h-657.706z"/></clipPath><clipPath id="b"><path d="m423.64 242h164.999v-164.9995h-164.999z"/></clipPath><clipPath id="c"><path d="m558.674 82.142c6.855-6.855 17.969-6.855 24.824 0 6.854 6.855 6.854 17.969 0 24.823l-129.893 129.893c-6.855 6.855-17.969 6.855-24.824 0s-6.855-17.969 0-24.823z"/></clipPath><linearGradient id="d"><stop offset="0" stop-color="#ff4e00"/><stop offset="1" stop-color="#ff1791"/></linearGradient><linearGradient id="e" gradientTransform="matrix(528.38055 0 0 -528.38055 63.801212 159.5)" gradientUnits="userSpaceOnUse" spreadMethod="pad" x1="0" x2="1" xlink:href="#d" y1="0" y2="0"/><clipPath id="f"><path d="m558.674 236.858-129.893-129.892c-6.855-6.855-6.855-17.969 0-24.825 6.855-6.854 17.969-6.854 24.823 0l129.894 129.894c6.854 6.855 6.854 17.968 0 24.823-3.428 3.428-7.92 5.142-12.412 5.142-4.493 0-8.985-1.714-12.412-5.142"/></clipPath><linearGradient id="g" gradientTransform="matrix(523.66766 0 0 -523.66766 67.896934 159.5)" gradientUnits="userSpaceOnUse" spreadMethod="pad" x1="0" x2="1" xlink:href="#d" y1="0" y2="0"/><clipPath id="h"><path d="m0 319h657.706v-319h-657.706z"/></clipPath><clipPath id="i"><path d="m311.3 242h93.031v-164.9995h-93.031z"/></clipPath><clipPath id="j"><path d="m328.853 112.107c22.297 0 40.372 18.075 40.372 40.372v71.315c0 10.054 7.505 18.206 17.554 18.206 10.048 0 17.552-8.152 17.552-18.206v-71.315c0-41.686-33.793-75.479-75.478-75.479-9.694 0-17.553 7.859-17.553 17.554 0 9.694 7.859 17.553 17.553 17.553"/></clipPath><linearGradient id="k" gradientTransform="matrix(-524.84045 0 0 -524.84045 592.14935 159.5)" gradientUnits="userSpaceOnUse" spreadMethod="pad" x1="0" x2="1" xlink:href="#d" y1="0" y2="0"/><clipPath id="l"><path d="m198.96 242h35.106v-164.9995h-35.106z"/></clipPath><clipPath id="m"><path d="m216.513 242c-10.049 0-17.553-8.152-17.553-18.206v-128.588c0-10.054 7.504-18.206 17.553-18.206 10.048 0 17.553 8.152 17.553 18.206v128.588c0 10.054-7.505 18.206-17.553 18.206"/></clipPath><linearGradient id="n" gradientTransform="matrix(524.84045 0 0 -524.84045 63.801212 159.5)" gradientUnits="userSpaceOnUse" spreadMethod="pad" x1="0" x2="1" xlink:href="#d" y1="0" y2="0"/><clipPath id="o"><path d="m369.225 224.447c0-9.694 7.859-17.553 17.553-17.553 9.695 0 17.553 7.859 17.553 17.553 0 9.694-7.858 17.552-17.553 17.552-9.694 0-17.553-7.858-17.553-17.552"/></clipPath><linearGradient id="p" gradientTransform="matrix(523.08514 0 0 -523.08514 67.896934 224.44646)" gradientUnits="userSpaceOnUse" spreadMethod="pad" x1="0" x2="1" xlink:href="#d" y1="0" y2="0"/><clipPath id="q"><path d="m553.532 94.554c0-9.695 7.859-17.554 17.553-17.554 9.695 0 17.554 7.859 17.554 17.554 0 9.694-7.859 17.552-17.554 17.552-9.694 0-17.553-7.858-17.553-17.552"/></clipPath><linearGradient id="r" gradientTransform="matrix(524.84045 0 0 -524.84045 63.801212 94.553314)" gradientUnits="userSpaceOnUse" spreadMethod="pad" x1="0" x2="1" xlink:href="#d" y1="0" y2="0"/><clipPath id="s"><path d="m69.067 223.794v-128.588c0-10.054 7.504-18.206 17.553-18.206 10.048 0 17.553 8.152 17.553 18.206v128.588c0 10.055-7.505 18.205-17.553 18.205-10.049 0-17.553-8.15-17.553-18.205"/></clipPath><clipPath id="t"><path d="m198.96 94.554c0-9.695 7.859-17.554 17.553-17.554 9.695 0 17.554 7.859 17.554 17.554 0 9.694-7.859 17.553-17.554 17.553-9.694 0-17.553-7.859-17.553-17.553"/></clipPath><linearGradient id="u" gradientTransform="matrix(524.84045 0 0 -524.84045 63.801212 94.553551)" gradientUnits="userSpaceOnUse" spreadMethod="pad" x1="0" x2="1" xlink:href="#d" y1="0" y2="0"/><clipPath id="v"><path d="m0 319h657.706v-319h-657.706z"/></clipPath><clipPath id="w"><path d="m69.0671 242h100.0529v-100.053h-100.0529z"/></clipPath><clipPath id="x"><path d="m139.155 147.088c6.855-6.855 17.969-6.855 24.824 0s6.855 17.969 0 24.824l-64.947 64.946c-6.855 6.855-17.969 6.855-24.824 0s-6.855-17.969 0-24.823z"/></clipPath><linearGradient id="y" gradientTransform="matrix(521.97632 0 0 -521.97632 69.067139 191.97322)" gradientUnits="userSpaceOnUse" spreadMethod="pad" x1="0" x2="1" xlink:href="#d" y1="0" y2="0"/><clipPath id="z"><path d="m204.101 236.858-64.947-64.946c-6.854-6.855-6.854-17.969 0-24.824 6.856-6.855 17.97-6.855 24.824 0l64.947 64.947c6.855 6.855 6.855 17.968 0 24.823-3.427 3.428-7.919 5.142-12.412 5.142-4.492 0-8.984-1.714-12.412-5.142"/></clipPath><linearGradient id="A" gradientTransform="matrix(523.09039 0 0 -523.09039 67.311829 191.97322)" gradientUnits="userSpaceOnUse" spreadMethod="pad" x1="0" x2="1" xlink:href="#d" y1="0" y2="0"/><clipPath id="B"><path d="m253.374 223.794v-71.315c0-41.685 33.793-75.479 75.479-75.479 9.695 0 17.553 7.859 17.553 17.554 0 9.694-7.858 17.553-17.553 17.553-22.297 0-40.372 18.075-40.372 40.372v71.315c0 10.055-7.505 18.205-17.554 18.205-10.049 0-17.553-8.15-17.553-18.205"/></clipPath><g transform="matrix(1.3333333 0 0 -1.3333333 -92.089331 322.66666)"><g clip-path="url(#a)"><g clip-path="url(#b)" opacity=".699997"><g clip-path="url(#c)"><path d="m558.674 82.142c6.855-6.855 17.969-6.855 24.824 0 6.854 6.855 6.854 17.969 0 24.823l-129.893 129.893c-6.855 6.855-17.969 6.855-24.824 0s-6.855-17.969 0-24.823z" fill="url(#e)"/></g></g></g><g clip-path="url(#f)"><path d="m558.674 236.858-129.893-129.892c-6.855-6.855-6.855-17.969 0-24.825 6.855-6.854 17.969-6.854 24.823 0l129.894 129.894c6.854 6.855 6.854 17.968 0 24.823-3.428 3.428-7.92 5.142-12.412 5.142-4.493 0-8.985-1.714-12.412-5.142" fill="url(#g)"/></g><g clip-path="url(#h)"><g clip-path="url(#i)" opacity=".699997"><g clip-path="url(#j)"><path d="m328.853 112.107c22.297 0 40.372 18.075 40.372 40.372v71.315c0 10.054 7.505 18.206 17.554 18.206 10.048 0 17.552-8.152 17.552-18.206v-71.315c0-41.686-33.793-75.479-75.478-75.479-9.694 0-17.553 7.859-17.553 17.554 0 9.694 7.859 17.553 17.553 17.553" fill="url(#k)"/></g></g><g clip-path="url(#l)" opacity=".699997"><g clip-path="url(#m)"><path d="m216.513 242c-10.049 0-17.553-8.152-17.553-18.206v-128.588c0-10.054 7.504-18.206 17.553-18.206 10.048 0 17.553 8.152 17.553 18.206v128.588c0 10.054-7.505 18.206-17.553 18.206" fill="url(#n)"/></g></g></g><g clip-path="url(#o)"><path d="m369.225 224.447c0-9.694 7.859-17.553 17.553-17.553 9.695 0 17.553 7.859 17.553 17.553 0 9.694-7.858 17.552-17.553 17.552-9.694 0-17.553-7.858-17.553-17.552" fill="url(#p)"/></g><g clip-path="url(#q)"><path d="m553.532 94.554c0-9.695 7.859-17.554 17.553-17.554 9.695 0 17.554 7.859 17.554 17.554 0 9.694-7.859 17.552-17.554 17.552-9.694 0-17.553-7.858-17.553-17.552" fill="url(#r)"/></g><g clip-path="url(#s)"><path d="m69.067 223.794v-128.588c0-10.054 7.504-18.206 17.553-18.206 10.048 0 17.553 8.152 17.553 18.206v128.588c0 10.055-7.505 18.205-17.553 18.205-10.049 0-17.553-8.15-17.553-18.205" fill="url(#n)"/></g><g clip-path="url(#t)"><path d="m198.96 94.554c0-9.695 7.859-17.554 17.553-17.554 9.695 0 17.554 7.859 17.554 17.554 0 9.694-7.859 17.553-17.554 17.553-9.694 0-17.553-7.859-17.553-17.553" fill="url(#u)"/></g><g clip-path="url(#v)"><g clip-path="url(#w)" opacity=".699997"><g clip-path="url(#x)"><path d="m139.155 147.088c6.855-6.855 17.969-6.855 24.824 0s6.855 17.969 0 24.824l-64.947 64.946c-6.855 6.855-17.969 6.855-24.824 0s-6.855-17.969 0-24.823z" fill="url(#y)"/></g></g></g><g clip-path="url(#z)"><path d="m204.101 236.858-64.947-64.946c-6.854-6.855-6.854-17.969 0-24.824 6.856-6.855 17.97-6.855 24.824 0l64.947 64.947c6.855 6.855 6.855 17.968 0 24.823-3.427 3.428-7.919 5.142-12.412 5.142-4.492 0-8.984-1.714-12.412-5.142" fill="url(#A)"/></g><g clip-path="url(#B)"><path d="m253.374 223.794v-71.315c0-41.685 33.793-75.479 75.479-75.479 9.695 0 17.553 7.859 17.553 17.554 0 9.694-7.858 17.553-17.553 17.553-22.297 0-40.372 18.075-40.372 40.372v71.315c0 10.055-7.505 18.205-17.554 18.205-10.049 0-17.553-8.15-17.553-18.205" fill="url(#n)"/></g></g></svg>