<?xml version="1.0" encoding="UTF-8" standalone="no"?>
<!-- Created with Inkscape (http://www.inkscape.org/) -->

<svg
   version="1.1"
   id="svg2"
   xml:space="preserve"
   width="692.76263"
   height="220"
   viewBox="0 0 692.76264 220"
   sodipodi:docname="b83dea2c6989d37021a5bd18c81a4211.ai"
   xmlns:inkscape="http://www.inkscape.org/namespaces/inkscape"
   xmlns:sodipodi="http://sodipodi.sourceforge.net/DTD/sodipodi-0.dtd"
   xmlns="http://www.w3.org/2000/svg"
   xmlns:svg="http://www.w3.org/2000/svg"><defs
     id="defs6"><clipPath
       clipPathUnits="userSpaceOnUse"
       id="clipPath16"><path
         d="M 0,319 H 657.706 V 0 H 0 Z"
         id="path14" /></clipPath><clipPath
       clipPathUnits="userSpaceOnUse"
       id="clipPath24"><path
         d="M 423.64,242 H 588.639 V 77.0005 H 423.64 Z"
         id="path22" /></clipPath><clipPath
       clipPathUnits="userSpaceOnUse"
       id="clipPath28"><path
         d="m 558.674,82.142 c 6.855,-6.855 17.969,-6.855 24.824,0 6.854,6.855 6.854,17.969 0,24.823 L 453.605,236.858 c -6.855,6.855 -17.969,6.855 -24.824,0 -6.855,-6.855 -6.855,-17.969 0,-24.823 z"
         id="path26" /></clipPath><linearGradient
       x1="0"
       y1="0"
       x2="1"
       y2="0"
       gradientUnits="userSpaceOnUse"
       gradientTransform="matrix(528.38055,0,0,-528.38055,63.801212,159.5)"
       spreadMethod="pad"
       id="linearGradient34"><stop
         style="stop-opacity:1;stop-color:#ff4e00"
         offset="0"
         id="stop30" /><stop
         style="stop-opacity:1;stop-color:#ff1791"
         offset="1"
         id="stop32" /></linearGradient><clipPath
       clipPathUnits="userSpaceOnUse"
       id="clipPath56"><path
         d="M 558.674,236.858 428.781,106.966 c -6.855,-6.855 -6.855,-17.969 0,-24.825 v 0 c 6.855,-6.854 17.969,-6.854 24.823,0 v 0 l 129.894,129.894 c 6.854,6.855 6.854,17.968 0,24.823 v 0 c -3.428,3.428 -7.92,5.142 -12.412,5.142 v 0 c -4.493,0 -8.985,-1.714 -12.412,-5.142"
         id="path54" /></clipPath><linearGradient
       x1="0"
       y1="0"
       x2="1"
       y2="0"
       gradientUnits="userSpaceOnUse"
       gradientTransform="matrix(523.66766,0,0,-523.66766,67.896934,159.5)"
       spreadMethod="pad"
       id="linearGradient66"><stop
         style="stop-opacity:1;stop-color:#ff4e00"
         offset="0"
         id="stop62" /><stop
         style="stop-opacity:1;stop-color:#ff1791"
         offset="1"
         id="stop64" /></linearGradient><clipPath
       clipPathUnits="userSpaceOnUse"
       id="clipPath76"><path
         d="M 0,319 H 657.706 V 0 H 0 Z"
         id="path74" /></clipPath><clipPath
       clipPathUnits="userSpaceOnUse"
       id="clipPath84"><path
         d="m 311.3,242 h 93.031 V 77.0005 H 311.3 Z"
         id="path82" /></clipPath><clipPath
       clipPathUnits="userSpaceOnUse"
       id="clipPath88"><path
         d="m 328.853,112.107 c 22.297,0 40.372,18.075 40.372,40.372 v 71.315 c 0,10.054 7.505,18.206 17.554,18.206 10.048,0 17.552,-8.152 17.552,-18.206 V 152.479 C 404.331,110.793 370.538,77 328.853,77 319.159,77 311.3,84.859 311.3,94.554 c 0,9.694 7.859,17.553 17.553,17.553"
         id="path86" /></clipPath><linearGradient
       x1="0"
       y1="0"
       x2="1"
       y2="0"
       gradientUnits="userSpaceOnUse"
       gradientTransform="matrix(-524.84045,0,0,-524.84045,592.14935,159.5)"
       spreadMethod="pad"
       id="linearGradient94"><stop
         style="stop-opacity:1;stop-color:#ff4e00"
         offset="0"
         id="stop90" /><stop
         style="stop-opacity:1;stop-color:#ff1791"
         offset="1"
         id="stop92" /></linearGradient><clipPath
       clipPathUnits="userSpaceOnUse"
       id="clipPath116"><path
         d="m 198.96,242 h 35.106 V 77.0005 H 198.96 Z"
         id="path114" /></clipPath><clipPath
       clipPathUnits="userSpaceOnUse"
       id="clipPath120"><path
         d="m 216.513,242 c -10.049,0 -17.553,-8.152 -17.553,-18.206 V 95.206 C 198.96,85.152 206.464,77 216.513,77 c 10.048,0 17.553,8.152 17.553,18.206 v 128.588 c 0,10.054 -7.505,18.206 -17.553,18.206"
         id="path118" /></clipPath><linearGradient
       x1="0"
       y1="0"
       x2="1"
       y2="0"
       gradientUnits="userSpaceOnUse"
       gradientTransform="matrix(524.84045,0,0,-524.84045,63.801212,159.5)"
       spreadMethod="pad"
       id="linearGradient126"><stop
         style="stop-opacity:1;stop-color:#ff4e00"
         offset="0"
         id="stop122" /><stop
         style="stop-opacity:1;stop-color:#ff1791"
         offset="1"
         id="stop124" /></linearGradient><clipPath
       clipPathUnits="userSpaceOnUse"
       id="clipPath148"><path
         d="m 369.225,224.447 c 0,-9.694 7.859,-17.553 17.553,-17.553 v 0 c 9.695,0 17.553,7.859 17.553,17.553 v 0 c 0,9.694 -7.858,17.552 -17.553,17.552 v 0 c -9.694,0 -17.553,-7.858 -17.553,-17.552"
         id="path146" /></clipPath><linearGradient
       x1="0"
       y1="0"
       x2="1"
       y2="0"
       gradientUnits="userSpaceOnUse"
       gradientTransform="matrix(523.08514,0,0,-523.08514,67.896934,224.44646)"
       spreadMethod="pad"
       id="linearGradient158"><stop
         style="stop-opacity:1;stop-color:#ff4e00"
         offset="0"
         id="stop154" /><stop
         style="stop-opacity:1;stop-color:#ff1791"
         offset="1"
         id="stop156" /></linearGradient><clipPath
       clipPathUnits="userSpaceOnUse"
       id="clipPath168"><path
         d="M 553.532,94.554 C 553.532,84.859 561.391,77 571.085,77 v 0 c 9.695,0 17.554,7.859 17.554,17.554 v 0 c 0,9.694 -7.859,17.552 -17.554,17.552 v 0 c -9.694,0 -17.553,-7.858 -17.553,-17.552"
         id="path166" /></clipPath><linearGradient
       x1="0"
       y1="0"
       x2="1"
       y2="0"
       gradientUnits="userSpaceOnUse"
       gradientTransform="matrix(524.84045,0,0,-524.84045,63.801212,94.553314)"
       spreadMethod="pad"
       id="linearGradient178"><stop
         style="stop-opacity:1;stop-color:#ff4e00"
         offset="0"
         id="stop174" /><stop
         style="stop-opacity:1;stop-color:#ff1791"
         offset="1"
         id="stop176" /></linearGradient><clipPath
       clipPathUnits="userSpaceOnUse"
       id="clipPath188"><path
         d="M 69.067,223.794 V 95.206 C 69.067,85.152 76.571,77 86.62,77 v 0 c 10.048,0 17.553,8.152 17.553,18.206 v 0 128.588 c 0,10.055 -7.505,18.205 -17.553,18.205 v 0 c -10.049,0 -17.553,-8.15 -17.553,-18.205"
         id="path186" /></clipPath><linearGradient
       x1="0"
       y1="0"
       x2="1"
       y2="0"
       gradientUnits="userSpaceOnUse"
       gradientTransform="matrix(524.84045,0,0,-524.84045,63.801212,159.5)"
       spreadMethod="pad"
       id="linearGradient198"><stop
         style="stop-opacity:1;stop-color:#ff4e00"
         offset="0"
         id="stop194" /><stop
         style="stop-opacity:1;stop-color:#ff1791"
         offset="1"
         id="stop196" /></linearGradient><clipPath
       clipPathUnits="userSpaceOnUse"
       id="clipPath208"><path
         d="M 198.96,94.554 C 198.96,84.859 206.819,77 216.513,77 v 0 c 9.695,0 17.554,7.859 17.554,17.554 v 0 c 0,9.694 -7.859,17.553 -17.554,17.553 v 0 c -9.694,0 -17.553,-7.859 -17.553,-17.553"
         id="path206" /></clipPath><linearGradient
       x1="0"
       y1="0"
       x2="1"
       y2="0"
       gradientUnits="userSpaceOnUse"
       gradientTransform="matrix(524.84045,0,0,-524.84045,63.801212,94.553551)"
       spreadMethod="pad"
       id="linearGradient218"><stop
         style="stop-opacity:1;stop-color:#ff4e00"
         offset="0"
         id="stop214" /><stop
         style="stop-opacity:1;stop-color:#ff1791"
         offset="1"
         id="stop216" /></linearGradient><clipPath
       clipPathUnits="userSpaceOnUse"
       id="clipPath228"><path
         d="M 0,319 H 657.706 V 0 H 0 Z"
         id="path226" /></clipPath><clipPath
       clipPathUnits="userSpaceOnUse"
       id="clipPath236"><path
         d="M 69.0671,242 H 169.12 V 141.947 H 69.0671 Z"
         id="path234" /></clipPath><clipPath
       clipPathUnits="userSpaceOnUse"
       id="clipPath240"><path
         d="m 139.155,147.088 c 6.855,-6.855 17.969,-6.855 24.824,0 6.855,6.855 6.855,17.969 0,24.824 l -64.947,64.946 c -6.855,6.855 -17.969,6.855 -24.824,0 -6.855,-6.855 -6.855,-17.969 0,-24.823 z"
         id="path238" /></clipPath><linearGradient
       x1="0"
       y1="0"
       x2="1"
       y2="0"
       gradientUnits="userSpaceOnUse"
       gradientTransform="matrix(521.97632,0,0,-521.97632,69.067139,191.97322)"
       spreadMethod="pad"
       id="linearGradient246"><stop
         style="stop-opacity:1;stop-color:#ff4e00"
         offset="0"
         id="stop242" /><stop
         style="stop-opacity:1;stop-color:#ff1791"
         offset="1"
         id="stop244" /></linearGradient><clipPath
       clipPathUnits="userSpaceOnUse"
       id="clipPath268"><path
         d="m 204.101,236.858 -64.947,-64.946 c -6.854,-6.855 -6.854,-17.969 0,-24.824 v 0 c 6.856,-6.855 17.97,-6.855 24.824,0 v 0 l 64.947,64.947 c 6.855,6.855 6.855,17.968 0,24.823 v 0 c -3.427,3.428 -7.919,5.142 -12.412,5.142 v 0 c -4.492,0 -8.984,-1.714 -12.412,-5.142"
         id="path266" /></clipPath><linearGradient
       x1="0"
       y1="0"
       x2="1"
       y2="0"
       gradientUnits="userSpaceOnUse"
       gradientTransform="matrix(523.09039,0,0,-523.09039,67.311829,191.97322)"
       spreadMethod="pad"
       id="linearGradient278"><stop
         style="stop-opacity:1;stop-color:#ff4e00"
         offset="0"
         id="stop274" /><stop
         style="stop-opacity:1;stop-color:#ff1791"
         offset="1"
         id="stop276" /></linearGradient><clipPath
       clipPathUnits="userSpaceOnUse"
       id="clipPath288"><path
         d="M 253.374,223.794 V 152.479 C 253.374,110.794 287.167,77 328.853,77 v 0 c 9.695,0 17.553,7.859 17.553,17.554 v 0 c 0,9.694 -7.858,17.553 -17.553,17.553 v 0 c -22.297,0 -40.372,18.075 -40.372,40.372 v 0 71.315 c 0,10.055 -7.505,18.205 -17.554,18.205 v 0 c -10.049,0 -17.553,-8.15 -17.553,-18.205"
         id="path286" /></clipPath><linearGradient
       x1="0"
       y1="0"
       x2="1"
       y2="0"
       gradientUnits="userSpaceOnUse"
       gradientTransform="matrix(524.84045,0,0,-524.84045,63.801212,159.5)"
       spreadMethod="pad"
       id="linearGradient298"><stop
         style="stop-opacity:1;stop-color:#ff4e00"
         offset="0"
         id="stop294" /><stop
         style="stop-opacity:1;stop-color:#ff1791"
         offset="1"
         id="stop296" /></linearGradient></defs><sodipodi:namedview
     id="namedview4"
     pagecolor="#ffffff"
     bordercolor="#666666"
     borderopacity="1.0"
     inkscape:pageshadow="2"
     inkscape:pageopacity="0.0"
     inkscape:pagecheckerboard="0" /><g
     id="g8"
     inkscape:groupmode="layer"
     inkscape:label="b83dea2c6989d37021a5bd18c81a4211"
     transform="matrix(1.3333333,0,0,-1.3333333,-92.089331,322.66666)"><g
       id="g10"><g
         id="g12"
         clip-path="url(#clipPath16)"><g
           id="g18"><g
             id="g20" /><g
             id="g48"><g
               clip-path="url(#clipPath24)"
               opacity="0.699997"
               id="g46"><g
                 id="g44"><g
                   clip-path="url(#clipPath28)"
                   id="g42"><g
                     id="g40"><g
                       id="g38"><path
                         d="m 558.674,82.142 c 6.855,-6.855 17.969,-6.855 24.824,0 6.854,6.855 6.854,17.969 0,24.823 L 453.605,236.858 c -6.855,6.855 -17.969,6.855 -24.824,0 -6.855,-6.855 -6.855,-17.969 0,-24.823 z"
                         style="fill:url(#linearGradient34);stroke:none"
                         id="path36" /></g></g></g></g></g></g></g></g></g><g
       id="g50"><g
         id="g52"
         clip-path="url(#clipPath56)"><g
           id="g58"><g
             id="g60"><path
               d="M 558.674,236.858 428.781,106.966 c -6.855,-6.855 -6.855,-17.969 0,-24.825 v 0 c 6.855,-6.854 17.969,-6.854 24.823,0 v 0 l 129.894,129.894 c 6.854,6.855 6.854,17.968 0,24.823 v 0 c -3.428,3.428 -7.92,5.142 -12.412,5.142 v 0 c -4.493,0 -8.985,-1.714 -12.412,-5.142"
               style="fill:url(#linearGradient66);stroke:none"
               id="path68" /></g></g></g></g><g
       id="g70"><g
         id="g72"
         clip-path="url(#clipPath76)"><g
           id="g78"><g
             id="g80" /><g
             id="g108"><g
               clip-path="url(#clipPath84)"
               opacity="0.699997"
               id="g106"><g
                 id="g104"><g
                   clip-path="url(#clipPath88)"
                   id="g102"><g
                     id="g100"><g
                       id="g98"><path
                         d="m 328.853,112.107 c 22.297,0 40.372,18.075 40.372,40.372 v 71.315 c 0,10.054 7.505,18.206 17.554,18.206 10.048,0 17.552,-8.152 17.552,-18.206 V 152.479 C 404.331,110.793 370.538,77 328.853,77 319.159,77 311.3,84.859 311.3,94.554 c 0,9.694 7.859,17.553 17.553,17.553"
                         style="fill:url(#linearGradient94);stroke:none"
                         id="path96" /></g></g></g></g></g></g></g><g
           id="g110"><g
             id="g112" /><g
             id="g140"><g
               clip-path="url(#clipPath116)"
               opacity="0.699997"
               id="g138"><g
                 id="g136"><g
                   clip-path="url(#clipPath120)"
                   id="g134"><g
                     id="g132"><g
                       id="g130"><path
                         d="m 216.513,242 c -10.049,0 -17.553,-8.152 -17.553,-18.206 V 95.206 C 198.96,85.152 206.464,77 216.513,77 c 10.048,0 17.553,8.152 17.553,18.206 v 128.588 c 0,10.054 -7.505,18.206 -17.553,18.206"
                         style="fill:url(#linearGradient126);stroke:none"
                         id="path128" /></g></g></g></g></g></g></g></g></g><g
       id="g142"><g
         id="g144"
         clip-path="url(#clipPath148)"><g
           id="g150"><g
             id="g152"><path
               d="m 369.225,224.447 c 0,-9.694 7.859,-17.553 17.553,-17.553 v 0 c 9.695,0 17.553,7.859 17.553,17.553 v 0 c 0,9.694 -7.858,17.552 -17.553,17.552 v 0 c -9.694,0 -17.553,-7.858 -17.553,-17.552"
               style="fill:url(#linearGradient158);stroke:none"
               id="path160" /></g></g></g></g><g
       id="g162"><g
         id="g164"
         clip-path="url(#clipPath168)"><g
           id="g170"><g
             id="g172"><path
               d="M 553.532,94.554 C 553.532,84.859 561.391,77 571.085,77 v 0 c 9.695,0 17.554,7.859 17.554,17.554 v 0 c 0,9.694 -7.859,17.552 -17.554,17.552 v 0 c -9.694,0 -17.553,-7.858 -17.553,-17.552"
               style="fill:url(#linearGradient178);stroke:none"
               id="path180" /></g></g></g></g><g
       id="g182"><g
         id="g184"
         clip-path="url(#clipPath188)"><g
           id="g190"><g
             id="g192"><path
               d="M 69.067,223.794 V 95.206 C 69.067,85.152 76.571,77 86.62,77 v 0 c 10.048,0 17.553,8.152 17.553,18.206 v 0 128.588 c 0,10.055 -7.505,18.205 -17.553,18.205 v 0 c -10.049,0 -17.553,-8.15 -17.553,-18.205"
               style="fill:url(#linearGradient198);stroke:none"
               id="path200" /></g></g></g></g><g
       id="g202"><g
         id="g204"
         clip-path="url(#clipPath208)"><g
           id="g210"><g
             id="g212"><path
               d="M 198.96,94.554 C 198.96,84.859 206.819,77 216.513,77 v 0 c 9.695,0 17.554,7.859 17.554,17.554 v 0 c 0,9.694 -7.859,17.553 -17.554,17.553 v 0 c -9.694,0 -17.553,-7.859 -17.553,-17.553"
               style="fill:url(#linearGradient218);stroke:none"
               id="path220" /></g></g></g></g><g
       id="g222"><g
         id="g224"
         clip-path="url(#clipPath228)"><g
           id="g230"><g
             id="g232" /><g
             id="g260"><g
               clip-path="url(#clipPath236)"
               opacity="0.699997"
               id="g258"><g
                 id="g256"><g
                   clip-path="url(#clipPath240)"
                   id="g254"><g
                     id="g252"><g
                       id="g250"><path
                         d="m 139.155,147.088 c 6.855,-6.855 17.969,-6.855 24.824,0 6.855,6.855 6.855,17.969 0,24.824 l -64.947,64.946 c -6.855,6.855 -17.969,6.855 -24.824,0 -6.855,-6.855 -6.855,-17.969 0,-24.823 z"
                         style="fill:url(#linearGradient246);stroke:none"
                         id="path248" /></g></g></g></g></g></g></g></g></g><g
       id="g262"><g
         id="g264"
         clip-path="url(#clipPath268)"><g
           id="g270"><g
             id="g272"><path
               d="m 204.101,236.858 -64.947,-64.946 c -6.854,-6.855 -6.854,-17.969 0,-24.824 v 0 c 6.856,-6.855 17.97,-6.855 24.824,0 v 0 l 64.947,64.947 c 6.855,6.855 6.855,17.968 0,24.823 v 0 c -3.427,3.428 -7.919,5.142 -12.412,5.142 v 0 c -4.492,0 -8.984,-1.714 -12.412,-5.142"
               style="fill:url(#linearGradient278);stroke:none"
               id="path280" /></g></g></g></g><g
       id="g282"><g
         id="g284"
         clip-path="url(#clipPath288)"><g
           id="g290"><g
             id="g292"><path
               d="M 253.374,223.794 V 152.479 C 253.374,110.794 287.167,77 328.853,77 v 0 c 9.695,0 17.553,7.859 17.553,17.554 v 0 c 0,9.694 -7.858,17.553 -17.553,17.553 v 0 c -22.297,0 -40.372,18.075 -40.372,40.372 v 0 71.315 c 0,10.055 -7.505,18.205 -17.554,18.205 v 0 c -10.049,0 -17.553,-8.15 -17.553,-18.205"
               style="fill:url(#linearGradient298);stroke:none"
               id="path300" /></g></g></g></g></g></svg>
