<svg xmlns="http://www.w3.org/2000/svg" viewBox="0 0 80 80"><defs><style>.a{fill:#c00}</style></defs><path class="a" d="M2.47 64.37h27.87S25 40.07 42.65 30.23c3.84-1.87 16.08-8.86 36.12 6 .63-.53 1.23-1 1.23-1S61.66 16.93 41.23 19c-10.23.89-22.89 10.24-30.3 22.58S2.47 64.37 2.47 64.37z"/><path class="a" d="M2.47 64.37h27.87S25 40.07 42.65 30.23c3.84-1.87 16.08-8.86 36.12 6 .63-.53 1.23-1 1.23-1S61.66 16.93 41.23 19c-10.23.89-22.89 10.24-30.3 22.58S2.47 64.37 2.47 64.37z"/><path class="a" d="M2.47 64.37h27.87S25 40.07 42.65 30.23c3.84-1.87 16.08-8.86 36.12 6 .63-.53 1.23-1 1.23-1S61.66 16.93 41.23 19c-10.3.92-22.92 10.27-30.33 22.61S2.47 64.37 2.47 64.37zM60.53 21l.14-2.36a17.27 17.27 0 00-3.42-1.24l-.14 2.33c1.16.34 2.29.76 3.42 1.27z"/><path class="a" d="M57.18 28.43L57 30.65a19.79 19.79 0 013.49.42l.14-2.18a24.42 24.42 0 00-3.45-.46zm-13-11h.35l-.71-2.15a28.25 28.25 0 00-3.38.21l.67 2.08c.97-.11 1.99-.15 3.02-.15zm1.69 13l.81 2.44a21.92 21.92 0 013.02-1.27l-.78-2.33a26.25 26.25 0 00-3.1 1.13zm-16-9.27l-1.59-2.44c-.88.46-1.8.95-2.75 1.52l1.62 2.47c.85-.6 1.74-1.13 2.66-1.58zM37 37l1.69 2.54A20.21 20.21 0 0140.81 37l-1.59-2.4A20 20 0 0037 37zm-5.08 11.36l2.86 2.25a28.3 28.3 0 01.74-4.12l-2.54-2a32.56 32.56 0 00-1.06 3.87zM16.47 31.6L14 29.41c-.92.89-1.8 1.77-2.61 2.65l2.71 2.33c.71-.95 1.53-1.91 2.37-2.79zM5.82 47.37l-4.06-1.48C1.09 47.4.35 49.17 0 50.12l4.06 1.48c.45-1.2 1.2-2.93 1.76-4.23zm25.57 10a35 35 0 00.43 4.44l4.23 1.52a45.59 45.59 0 01-.85-4.59z"/></svg>