<svg viewBox="0 0 80 80" xmlns="http://www.w3.org/2000/svg"><g fill="#c00"><path d="m2.47 64.37h27.87s-5.34-24.3 12.31-34.14c3.84-1.87 16.08-8.86 36.12 6 .63-.53 1.23-1 1.23-1s-18.34-18.3-38.77-16.23c-10.23.89-22.89 10.24-30.3 22.58s-8.46 22.79-8.46 22.79z"/><path d="m2.47 64.37h27.87s-5.34-24.3 12.31-34.14c3.84-1.87 16.08-8.86 36.12 6 .63-.53 1.23-1 1.23-1s-18.34-18.3-38.77-16.23c-10.23.89-22.89 10.24-30.3 22.58s-8.46 22.79-8.46 22.79z"/><path d="m2.47 64.37h27.87s-5.34-24.3 12.31-34.14c3.84-1.87 16.08-8.86 36.12 6 .63-.53 1.23-1 1.23-1s-18.34-18.3-38.77-16.23c-10.3.92-22.92 10.27-30.33 22.61s-8.43 22.76-8.43 22.76zm58.06-43.37.14-2.36a17.27 17.27 0 0 0 -3.42-1.24l-.14 2.33c1.16.34 2.29.76 3.42 1.27z"/><path d="m57.18 28.43-.18 2.22a19.79 19.79 0 0 1 3.49.42l.14-2.18a24.42 24.42 0 0 0 -3.45-.46zm-13-11h.35l-.71-2.15a28.25 28.25 0 0 0 -3.38.21l.67 2.08c.97-.11 1.99-.15 3.02-.15zm1.69 13 .81 2.44a21.92 21.92 0 0 1 3.02-1.27l-.78-2.33a26.25 26.25 0 0 0 -3.1 1.13zm-16-9.27-1.59-2.44c-.88.46-1.8.95-2.75 1.52l1.62 2.47c.85-.6 1.74-1.13 2.66-1.58zm7.13 15.84 1.69 2.54a20.21 20.21 0 0 1 2.12-2.54l-1.59-2.4a20 20 0 0 0 -2.22 2.4zm-5.08 11.36 2.86 2.25a28.3 28.3 0 0 1 .74-4.12l-2.54-2a32.56 32.56 0 0 0 -1.06 3.87zm-15.45-16.76-2.47-2.19c-.92.89-1.8 1.77-2.61 2.65l2.71 2.33c.71-.95 1.53-1.91 2.37-2.79zm-10.65 15.77-4.06-1.48c-.67 1.51-1.41 3.28-1.76 4.23l4.06 1.48c.45-1.2 1.2-2.93 1.76-4.23zm25.57 10a35 35 0 0 0 .43 4.44l4.23 1.52a45.59 45.59 0 0 1 -.85-4.59z"/></g></svg>