<svg xmlns="http://www.w3.org/2000/svg" viewBox="0 0 80 80"><defs><style>.b{fill:#61dafb}</style></defs><path fill="#20232a" d="M0 0h80v80H0z"/><circle class="b" cx="40" cy="40" r="6.53"/><path class="b" d="M40 55C19.47 55 3.38 48.39 3.38 40S19.47 25 40 25s36.62 6.57 36.62 15S60.53 55 40 55zm0-26.75C20.3 28.22 6.57 34.43 6.57 40S20.3 51.78 40 51.78 73.43 45.57 73.43 40 59.7 28.22 40 28.22z"/><path class="b" d="M54.62 72.66c-3.25 0-7.17-1.78-11.43-5.24C37.55 62.83 31.81 55.75 27 47.48c-10.27-17.78-12.62-35-5.35-39.19 3.7-2.14 9.07-.62 15.12 4.3C42.45 17.17 48.19 24.25 53 32.52c10.27 17.78 12.62 35 5.35 39.19a7.27 7.27 0 01-3.73.95zM25.43 10.52a4.16 4.16 0 00-2.15.53C18.46 13.83 20 28.83 29.8 45.89c4.58 7.94 10.05 14.71 15.4 19 4.87 4 9.07 5.43 11.52 4 4.82-2.79 3.33-17.79-6.52-34.85-4.58-7.94-10.05-14.7-15.4-19-3.66-2.95-6.93-4.52-9.37-4.52z"/><path class="b" d="M25.38 72.66a7.17 7.17 0 01-3.69-1C14.42 67.52 16.77 50.3 27 32.52c4.77-8.27 10.51-15.35 16.15-19.93 6.05-4.92 11.42-6.45 15.12-4.3 7.27 4.2 4.92 21.41-5.35 39.19-4.77 8.27-10.51 15.35-16.15 19.94-4.22 3.46-8.14 5.24-11.39 5.24zm29.19-62.14c-2.44 0-5.71 1.57-9.37 4.54-5.35 4.35-10.82 11.11-15.4 19C20 51.17 18.46 66.17 23.28 69c2.45 1.4 6.65-.06 11.52-4 5.35-4.34 10.82-11.11 15.4-19 9.85-17.06 11.34-32.06 6.52-34.84a4.16 4.16 0 00-2.15-.64z"/></svg>