<svg width="16" height="16" fill="none" xmlns="http://www.w3.org/2000/svg"><path d="M6.794 10.933l.144-.12 7.243-.063.045.183a.458.458 0 01-.045.112c-.062.11-.197.189-.467.345L6.72 15.436c-.697.403-1.045.605-1.26.557a.565.565 0 01-.407-.353c-.077-.206.073-.58.375-1.325l1.366-3.382z" fill="#7957FF"/><path d="M14.226 10.933H6.794l-.044-.308L9 5.125l.184-.103 4.71 5.232.02.024c.196.217.294.33.318.449a.46.46 0 01-.006.206z" fill="#18B6AA"/><path d="M9.24.559L2.28 4.566c-.271.156-.407.234-.47.344a.463.463 0 00-.05.319c.025.124.13.24.338.473l4.697 5.231 2.39-5.911 1.347-3.341c.3-.743.45-1.115.372-1.321a.565.565 0 00-.406-.353C10.282-.04 9.935.16 9.24.56z" fill="#F845C6"/></svg>