<svg width="167" height="33" viewBox="0 0 167 33" fill="none" xmlns="http://www.w3.org/2000/svg">
<circle cx="16" cy="17" r="16" fill="#6C37F4"/>
<path fill-rule="evenodd" clip-rule="evenodd" d="M11 10C9.89543 10 9 10.8954 9 12V22C9 23.1046 9.89543 24 11 24H17L12 10H11ZM15 10L20 24H21C22.1046 24 23 23.1046 23 22V12C23 10.8954 22.1046 10 21 10H15Z" fill="white"/>
<path d="M48.382 11.636C49.306 11.636 50.1273 11.8413 50.846 12.252C51.5647 12.648 52.122 13.242 52.518 14.034C52.9287 14.8113 53.134 15.75 53.134 16.85V24H50.054V17.268C50.054 16.3 49.812 15.5593 49.328 15.046C48.844 14.518 48.184 14.254 47.348 14.254C46.4973 14.254 45.8227 14.518 45.324 15.046C44.84 15.5593 44.598 16.3 44.598 17.268V24H41.518V7.72H44.598V13.33C44.994 12.802 45.522 12.3913 46.182 12.098C46.842 11.79 47.5753 11.636 48.382 11.636ZM57.6249 10.36C57.0823 10.36 56.6276 10.1913 56.2609 9.854C55.9089 9.502 55.7329 9.06933 55.7329 8.556C55.7329 8.04267 55.9089 7.61733 56.2609 7.28C56.6276 6.928 57.0823 6.752 57.6249 6.752C58.1676 6.752 58.6149 6.928 58.9669 7.28C59.3336 7.61733 59.5169 8.04267 59.5169 8.556C59.5169 9.06933 59.3336 9.502 58.9669 9.854C58.6149 10.1913 58.1676 10.36 57.6249 10.36ZM59.1429 11.812V24H56.0629V11.812H59.1429ZM66.96 11.614C67.8693 11.614 68.6686 11.7973 69.358 12.164C70.0473 12.516 70.59 12.978 70.986 13.55V11.812H74.088V24.088C74.088 25.2173 73.8606 26.222 73.406 27.102C72.9513 27.9967 72.2693 28.7007 71.36 29.214C70.4506 29.742 69.3506 30.006 68.06 30.006C66.3293 30.006 64.9066 29.6027 63.792 28.796C62.692 27.9893 62.0686 26.8893 61.922 25.496H64.98C65.1413 26.0533 65.486 26.4933 66.014 26.816C66.5566 27.1533 67.2093 27.322 67.972 27.322C68.8666 27.322 69.5926 27.0507 70.15 26.508C70.7073 25.98 70.986 25.1733 70.986 24.088V22.196C70.59 22.768 70.04 23.2447 69.336 23.626C68.6466 24.0073 67.8546 24.198 66.96 24.198C65.9333 24.198 64.9946 23.934 64.144 23.406C63.2933 22.878 62.6186 22.1373 62.12 21.184C61.636 20.216 61.394 19.1087 61.394 17.862C61.394 16.63 61.636 15.5373 62.12 14.584C62.6186 13.6307 63.286 12.8973 64.122 12.384C64.9726 11.8707 65.9186 11.614 66.96 11.614ZM70.986 17.906C70.986 17.158 70.8393 16.52 70.546 15.992C70.2526 15.4493 69.8566 15.0387 69.358 14.76C68.8593 14.4667 68.324 14.32 67.752 14.32C67.18 14.32 66.652 14.4593 66.168 14.738C65.684 15.0167 65.288 15.4273 64.98 15.97C64.6866 16.498 64.54 17.1287 64.54 17.862C64.54 18.5953 64.6866 19.2407 64.98 19.798C65.288 20.3407 65.684 20.7587 66.168 21.052C66.6666 21.3453 67.1946 21.492 67.752 21.492C68.324 21.492 68.8593 21.3527 69.358 21.074C69.8566 20.7807 70.2526 20.37 70.546 19.842C70.8393 19.2993 70.986 18.654 70.986 17.906ZM83.9601 11.636C84.8841 11.636 85.7055 11.8413 86.4241 12.252C87.1428 12.648 87.7001 13.242 88.0961 14.034C88.5068 14.8113 88.7121 15.75 88.7121 16.85V24H85.6321V17.268C85.6321 16.3 85.3901 15.5593 84.9061 15.046C84.4221 14.518 83.7621 14.254 82.9261 14.254C82.0755 14.254 81.4008 14.518 80.9021 15.046C80.4181 15.5593 80.1761 16.3 80.1761 17.268V24H77.0961V7.72H80.1761V13.33C80.5721 12.802 81.1001 12.3913 81.7601 12.098C82.4201 11.79 83.1535 11.636 83.9601 11.636ZM94.721 7.72V24H91.641V7.72H94.721ZM99.3261 10.36C98.7834 10.36 98.3288 10.1913 97.9621 9.854C97.6101 9.502 97.4341 9.06933 97.4341 8.556C97.4341 8.04267 97.6101 7.61733 97.9621 7.28C98.3288 6.928 98.7834 6.752 99.3261 6.752C99.8688 6.752 100.316 6.928 100.668 7.28C101.035 7.61733 101.218 8.04267 101.218 8.556C101.218 9.06933 101.035 9.502 100.668 9.854C100.316 10.1913 99.8688 10.36 99.3261 10.36ZM100.844 11.812V24H97.7641V11.812H100.844ZM108.661 11.614C109.57 11.614 110.37 11.7973 111.059 12.164C111.748 12.516 112.291 12.978 112.687 13.55V11.812H115.789V24.088C115.789 25.2173 115.562 26.222 115.107 27.102C114.652 27.9967 113.97 28.7007 113.061 29.214C112.152 29.742 111.052 30.006 109.761 30.006C108.03 30.006 106.608 29.6027 105.493 28.796C104.393 27.9893 103.77 26.8893 103.623 25.496H106.681C106.842 26.0533 107.187 26.4933 107.715 26.816C108.258 27.1533 108.91 27.322 109.673 27.322C110.568 27.322 111.294 27.0507 111.851 26.508C112.408 25.98 112.687 25.1733 112.687 24.088V22.196C112.291 22.768 111.741 23.2447 111.037 23.626C110.348 24.0073 109.556 24.198 108.661 24.198C107.634 24.198 106.696 23.934 105.845 23.406C104.994 22.878 104.32 22.1373 103.821 21.184C103.337 20.216 103.095 19.1087 103.095 17.862C103.095 16.63 103.337 15.5373 103.821 14.584C104.32 13.6307 104.987 12.8973 105.823 12.384C106.674 11.8707 107.62 11.614 108.661 11.614ZM112.687 17.906C112.687 17.158 112.54 16.52 112.247 15.992C111.954 15.4493 111.558 15.0387 111.059 14.76C110.56 14.4667 110.025 14.32 109.453 14.32C108.881 14.32 108.353 14.4593 107.869 14.738C107.385 15.0167 106.989 15.4273 106.681 15.97C106.388 16.498 106.241 17.1287 106.241 17.862C106.241 18.5953 106.388 19.2407 106.681 19.798C106.989 20.3407 107.385 20.7587 107.869 21.052C108.368 21.3453 108.896 21.492 109.453 21.492C110.025 21.492 110.56 21.3527 111.059 21.074C111.558 20.7807 111.954 20.37 112.247 19.842C112.54 19.2993 112.687 18.654 112.687 17.906ZM125.661 11.636C126.585 11.636 127.407 11.8413 128.125 12.252C128.844 12.648 129.401 13.242 129.797 14.034C130.208 14.8113 130.413 15.75 130.413 16.85V24H127.333V17.268C127.333 16.3 127.091 15.5593 126.607 15.046C126.123 14.518 125.463 14.254 124.627 14.254C123.777 14.254 123.102 14.518 122.603 15.046C122.119 15.5593 121.877 16.3 121.877 17.268V24H118.797V7.72H121.877V13.33C122.273 12.802 122.801 12.3913 123.461 12.098C124.121 11.79 124.855 11.636 125.661 11.636ZM136.928 14.342V20.238C136.928 20.6487 137.024 20.9493 137.214 21.14C137.42 21.316 137.757 21.404 138.226 21.404H139.656V24H137.72C135.124 24 133.826 22.7387 133.826 20.216V14.342H132.374V11.812H133.826V8.798H136.928V11.812H139.656V14.342H136.928ZM143.236 24.154C142.678 24.154 142.216 23.9853 141.85 23.648C141.498 23.296 141.322 22.8633 141.322 22.35C141.322 21.8367 141.498 21.4113 141.85 21.074C142.216 20.722 142.678 20.546 143.236 20.546C143.778 20.546 144.226 20.722 144.578 21.074C144.93 21.4113 145.106 21.8367 145.106 22.35C145.106 22.8633 144.93 23.296 144.578 23.648C144.226 23.9853 143.778 24.154 143.236 24.154ZM149.148 10.36C148.606 10.36 148.151 10.1913 147.784 9.854C147.432 9.502 147.256 9.06933 147.256 8.556C147.256 8.04267 147.432 7.61733 147.784 7.28C148.151 6.928 148.606 6.752 149.148 6.752C149.691 6.752 150.138 6.928 150.49 7.28C150.857 7.61733 151.04 8.04267 151.04 8.556C151.04 9.06933 150.857 9.502 150.49 9.854C150.138 10.1913 149.691 10.36 149.148 10.36ZM150.666 11.812V24H147.586V11.812H150.666ZM159.121 24.198C157.948 24.198 156.892 23.9413 155.953 23.428C155.015 22.9 154.274 22.1593 153.731 21.206C153.203 20.2527 152.939 19.1527 152.939 17.906C152.939 16.6593 153.211 15.5593 153.753 14.606C154.311 13.6527 155.066 12.9193 156.019 12.406C156.973 11.878 158.036 11.614 159.209 11.614C160.383 11.614 161.446 11.878 162.399 12.406C163.353 12.9193 164.101 13.6527 164.643 14.606C165.201 15.5593 165.479 16.6593 165.479 17.906C165.479 19.1527 165.193 20.2527 164.621 21.206C164.064 22.1593 163.301 22.9 162.333 23.428C161.38 23.9413 160.309 24.198 159.121 24.198ZM159.121 21.514C159.679 21.514 160.199 21.382 160.683 21.118C161.182 20.8393 161.578 20.4287 161.871 19.886C162.165 19.3433 162.311 18.6833 162.311 17.906C162.311 16.7473 162.003 15.86 161.387 15.244C160.786 14.6133 160.045 14.298 159.165 14.298C158.285 14.298 157.545 14.6133 156.943 15.244C156.357 15.86 156.063 16.7473 156.063 17.906C156.063 19.0647 156.349 19.9593 156.921 20.59C157.508 21.206 158.241 21.514 159.121 21.514Z" fill="white"/>
</svg>
